%TF.GenerationSoftware,KiCad,Pcbnew,10.0.1-10.0.1~ubuntu24.04.1*%
%TF.CreationDate,2026-05-08T08:47:13+02:00*%
%TF.ProjectId,SOS_Schematic,534f535f-5363-4686-956d-617469632e6b,rev?*%
%TF.SameCoordinates,Original*%
%TF.FileFunction,Copper,L2,Inr*%
%TF.FilePolarity,Positive*%
%FSLAX46Y46*%
G04 Gerber Fmt 4.6, Leading zero omitted, Abs format (unit mm)*
G04 Created by KiCad (PCBNEW 10.0.1-10.0.1~ubuntu24.04.1) date 2026-05-08 08:47:13*
%MOMM*%
%LPD*%
G01*
G04 APERTURE LIST*
%TA.AperFunction,HeatsinkPad*%
%ADD10O,1.600000X1.000000*%
%TD*%
%TA.AperFunction,HeatsinkPad*%
%ADD11O,2.100000X1.000000*%
%TD*%
%TA.AperFunction,ComponentPad*%
%ADD12C,5.600000*%
%TD*%
%TA.AperFunction,ComponentPad*%
%ADD13R,1.700000X1.700000*%
%TD*%
%TA.AperFunction,ComponentPad*%
%ADD14C,1.700000*%
%TD*%
%TA.AperFunction,ViaPad*%
%ADD15C,0.450000*%
%TD*%
G04 APERTURE END LIST*
D10*
%TO.N,GND*%
%TO.C,J1*%
X97050000Y-68680000D03*
D11*
X92870000Y-68680000D03*
D10*
X97050000Y-77320000D03*
D11*
X92870000Y-77320000D03*
%TD*%
D12*
%TO.N,GND*%
%TO.C,H1*%
X54000000Y-54000000D03*
%TD*%
D13*
%TO.N,GND*%
%TO.C,J3*%
X54000000Y-83890000D03*
D14*
%TO.N,/SPI1_MOSI*%
X54000000Y-81350000D03*
%TO.N,/RFID_RST*%
X54000000Y-78810000D03*
%TO.N,/RFID_IRQ*%
X54000000Y-76270000D03*
%TO.N,/SPI1_MISO*%
X54000000Y-73730000D03*
%TO.N,/SPI1_SCK*%
X54000000Y-71190000D03*
%TO.N,/SPI1_NSS*%
X54000000Y-68650000D03*
%TO.N,+3.3V*%
X54000000Y-66110000D03*
%TD*%
D12*
%TO.N,GND*%
%TO.C,H2*%
X96000000Y-54000000D03*
%TD*%
%TO.N,GND*%
%TO.C,H3*%
X54000000Y-96000000D03*
%TD*%
%TO.N,GND*%
%TO.C,H4*%
X96000000Y-96000000D03*
%TD*%
D15*
%TO.N,/USR_LED_2*%
X69000000Y-82900000D03*
%TO.N,/USR_LED_1*%
X70000000Y-82900000D03*
%TO.N,/USR_LED_2*%
X76000000Y-86300000D03*
%TO.N,/USR_LED_1*%
X74000000Y-86300000D03*
%TO.N,/RFID_RST*%
X60338105Y-80367621D03*
%TO.N,/RFID_IRQ*%
X61000000Y-80500000D03*
X61900000Y-82500000D03*
%TO.N,/RFID_RST*%
X60900000Y-81900000D03*
%TO.N,/NRST*%
X72300000Y-60100000D03*
X72500000Y-55100000D03*
%TO.N,/VCP_RX*%
X76500000Y-70600000D03*
X74700000Y-67300000D03*
%TO.N,/VCP_TX*%
X75800000Y-70600000D03*
X75200000Y-68100000D03*
%TO.N,+3.3V*%
X92800000Y-59000000D03*
%TO.N,GND*%
X91600000Y-64500000D03*
X87000000Y-64000000D03*
%TO.N,+3.3V*%
X87600000Y-65480000D03*
X86500000Y-65500000D03*
%TO.N,+5V*%
X89000000Y-73000000D03*
X93500000Y-71000000D03*
X93500000Y-75000000D03*
X92700000Y-61000000D03*
X93000000Y-65480000D03*
X91500000Y-65450000D03*
%TO.N,GND*%
X96500000Y-60100000D03*
X87500000Y-59000000D03*
X87500000Y-61000000D03*
X75000000Y-90800000D03*
%TO.N,+3.3V*%
X56400000Y-65500000D03*
%TO.N,GND*%
X56400000Y-67600000D03*
X67200000Y-72200000D03*
X66200000Y-74200000D03*
%TO.N,+3.3V*%
X70900000Y-67100000D03*
%TO.N,GND*%
X71900000Y-67100000D03*
%TO.N,+3.3V*%
X67100000Y-77600000D03*
%TO.N,GND*%
X67100000Y-76600000D03*
%TO.N,+3.3V*%
X78800000Y-82900000D03*
%TO.N,GND*%
X77800000Y-82900000D03*
X71100000Y-82900000D03*
%TO.N,+3.3V*%
X72100000Y-82900000D03*
X67800000Y-70700000D03*
%TO.N,GND*%
X66300000Y-71300000D03*
X82900000Y-72080000D03*
%TO.N,+3.3V*%
X82900000Y-71120000D03*
X77600000Y-51600000D03*
%TO.N,GND*%
X72500000Y-51600000D03*
X76200000Y-51600000D03*
X75000000Y-51600000D03*
X82200000Y-51700000D03*
X87800000Y-51700000D03*
X86100000Y-55000000D03*
X63800000Y-55000000D03*
%TO.N,+3.3V*%
X67800000Y-53300000D03*
X62200000Y-53300000D03*
%TO.N,GND*%
X62200000Y-98300000D03*
X67800000Y-98300000D03*
X67900000Y-95000000D03*
%TO.N,+3.3V*%
X62100000Y-95000000D03*
%TO.N,GND*%
X85300000Y-98300000D03*
X79700000Y-98300000D03*
%TO.N,+3.3V*%
X79500000Y-95000000D03*
%TO.N,GND*%
X85400000Y-95000000D03*
X87000000Y-73000000D03*
X90695000Y-75905000D03*
X90640000Y-69750000D03*
%TD*%
%TA.AperFunction,Conductor*%
%TO.N,+3.3V*%
G36*
X95998740Y-50300528D02*
G01*
X96001236Y-50300589D01*
X96003556Y-50300674D01*
X96032909Y-50302116D01*
X96355385Y-50317958D01*
X96360172Y-50318312D01*
X96365039Y-50318791D01*
X96369793Y-50319378D01*
X96714565Y-50370520D01*
X96719264Y-50371335D01*
X96724089Y-50372294D01*
X96728776Y-50373347D01*
X97066866Y-50458035D01*
X97071489Y-50459314D01*
X97076175Y-50460735D01*
X97080760Y-50462250D01*
X97408888Y-50579656D01*
X97413366Y-50581383D01*
X97417923Y-50583271D01*
X97422293Y-50585208D01*
X97737350Y-50734218D01*
X97741686Y-50736400D01*
X97745971Y-50738691D01*
X97750160Y-50741065D01*
X98049074Y-50920227D01*
X98053175Y-50922824D01*
X98057217Y-50925525D01*
X98061186Y-50928320D01*
X98341085Y-51135907D01*
X98344925Y-51138904D01*
X98348671Y-51141979D01*
X98352341Y-51145146D01*
X98610526Y-51379151D01*
X98614046Y-51382501D01*
X98617497Y-51385952D01*
X98620828Y-51389451D01*
X98854875Y-51647681D01*
X98858022Y-51651330D01*
X98861109Y-51655092D01*
X98864095Y-51658918D01*
X99071678Y-51938812D01*
X99074473Y-51942781D01*
X99077168Y-51946814D01*
X99079770Y-51950922D01*
X99121054Y-52019799D01*
X99180991Y-52119799D01*
X99258922Y-52249819D01*
X99261317Y-52254046D01*
X99263593Y-52258304D01*
X99265778Y-52262645D01*
X99327858Y-52393902D01*
X99414773Y-52577669D01*
X99416744Y-52582117D01*
X99418601Y-52586601D01*
X99420348Y-52591129D01*
X99537743Y-52919222D01*
X99539273Y-52923856D01*
X99540684Y-52928511D01*
X99541974Y-52933174D01*
X99626640Y-53271178D01*
X99627705Y-53275923D01*
X99628658Y-53280715D01*
X99629488Y-53285499D01*
X99680611Y-53630146D01*
X99681205Y-53634956D01*
X99681684Y-53639813D01*
X99682043Y-53644671D01*
X99699322Y-53996384D01*
X99699411Y-53998801D01*
X99699470Y-54001193D01*
X99699500Y-54003634D01*
X99699500Y-60195500D01*
X99680593Y-60253691D01*
X99631093Y-60289655D01*
X99600500Y-60294500D01*
X97043295Y-60294500D01*
X96985104Y-60275593D01*
X96949140Y-60226093D01*
X96947668Y-60169878D01*
X96950500Y-60159309D01*
X96950500Y-60040691D01*
X96919799Y-59926114D01*
X96919797Y-59926111D01*
X96919797Y-59926109D01*
X96919794Y-59926105D01*
X96919475Y-59925399D01*
X96918224Y-59923384D01*
X96860492Y-59823391D01*
X96860490Y-59823389D01*
X96860489Y-59823387D01*
X96776613Y-59739511D01*
X96776610Y-59739509D01*
X96776608Y-59739507D01*
X96731175Y-59713276D01*
X96710142Y-59689916D01*
X96660352Y-59676574D01*
X96660351Y-59676574D01*
X96559309Y-59649500D01*
X96559307Y-59649500D01*
X96440692Y-59649500D01*
X96440691Y-59649500D01*
X96405629Y-59658894D01*
X96370566Y-59668289D01*
X96370565Y-59668288D01*
X96326111Y-59680200D01*
X96326108Y-59680201D01*
X96223393Y-59739505D01*
X96139503Y-59823395D01*
X96080201Y-59926109D01*
X96079924Y-59926844D01*
X96079377Y-59929185D01*
X96049500Y-60040691D01*
X96049500Y-60159308D01*
X96052332Y-60169878D01*
X96049129Y-60230979D01*
X96010623Y-60278529D01*
X95956705Y-60294500D01*
X90099000Y-60294500D01*
X90066856Y-60297030D01*
X90036206Y-60301883D01*
X90031718Y-60302646D01*
X90031713Y-60302647D01*
X89947617Y-60338591D01*
X89898118Y-60374555D01*
X89870372Y-60398797D01*
X89823464Y-60477307D01*
X89823462Y-60477310D01*
X89804556Y-60535499D01*
X89794500Y-60598996D01*
X89794500Y-60599000D01*
X89794500Y-64467746D01*
X89794500Y-65946320D01*
X89794500Y-68631243D01*
X89794500Y-69645935D01*
X89797941Y-69683382D01*
X89797942Y-69683389D01*
X89797943Y-69683396D01*
X89804516Y-69718862D01*
X89807845Y-69734669D01*
X89805290Y-69735206D01*
X89806174Y-69785534D01*
X89805655Y-69787182D01*
X89804556Y-69790564D01*
X89794500Y-69854060D01*
X89794500Y-71195500D01*
X89775593Y-71253691D01*
X89726093Y-71289655D01*
X89695500Y-71294500D01*
X87599000Y-71294500D01*
X87566856Y-71297030D01*
X87536206Y-71301883D01*
X87531718Y-71302646D01*
X87531713Y-71302647D01*
X87447617Y-71338591D01*
X87398118Y-71374555D01*
X87370372Y-71398797D01*
X87323464Y-71477307D01*
X87323462Y-71477310D01*
X87304556Y-71535499D01*
X87294500Y-71598996D01*
X87294500Y-72483500D01*
X87285809Y-72510248D01*
X87278530Y-72537418D01*
X87276428Y-72539119D01*
X87275593Y-72541691D01*
X87252836Y-72558224D01*
X87230980Y-72575924D01*
X87228280Y-72576065D01*
X87226093Y-72577655D01*
X87169879Y-72579127D01*
X87164385Y-72577655D01*
X87160351Y-72576574D01*
X87059309Y-72549500D01*
X87059307Y-72549500D01*
X86940692Y-72549500D01*
X86940691Y-72549500D01*
X86899669Y-72560492D01*
X86826109Y-72580202D01*
X86826108Y-72580202D01*
X86826106Y-72580203D01*
X86723393Y-72639505D01*
X86639503Y-72723395D01*
X86580201Y-72826109D01*
X86579924Y-72826844D01*
X86579377Y-72829185D01*
X86549500Y-72940691D01*
X86549500Y-73059309D01*
X86576574Y-73160351D01*
X86580202Y-73173890D01*
X86639507Y-73276608D01*
X86639509Y-73276610D01*
X86639511Y-73276613D01*
X86723387Y-73360489D01*
X86723389Y-73360490D01*
X86723391Y-73360492D01*
X86723939Y-73360887D01*
X86725934Y-73361960D01*
X86823357Y-73418207D01*
X86823357Y-73418208D01*
X86826109Y-73419797D01*
X86826112Y-73419797D01*
X86826114Y-73419799D01*
X86940691Y-73450500D01*
X86940693Y-73450500D01*
X87059307Y-73450500D01*
X87059308Y-73450500D01*
X87059309Y-73450500D01*
X87169877Y-73420873D01*
X87230978Y-73424074D01*
X87278528Y-73462579D01*
X87294500Y-73516499D01*
X87294500Y-75901000D01*
X87297030Y-75933143D01*
X87301883Y-75963793D01*
X87302646Y-75968281D01*
X87302647Y-75968286D01*
X87338591Y-76052382D01*
X87338592Y-76052383D01*
X87374556Y-76101883D01*
X87398797Y-76129628D01*
X87477307Y-76176536D01*
X87535498Y-76195443D01*
X87547552Y-76197352D01*
X87598996Y-76205500D01*
X87599000Y-76205500D01*
X90145493Y-76205500D01*
X90145500Y-76205500D01*
X90177644Y-76202970D01*
X90208237Y-76198125D01*
X90208248Y-76198123D01*
X90208293Y-76198116D01*
X90212781Y-76197353D01*
X90212783Y-76197353D01*
X90212784Y-76197352D01*
X90212787Y-76197352D01*
X90247521Y-76182505D01*
X90274352Y-76180090D01*
X90300920Y-76175605D01*
X90304451Y-76177381D01*
X90308459Y-76177021D01*
X90355717Y-76202826D01*
X90356063Y-76203165D01*
X90418387Y-76265489D01*
X90418389Y-76265490D01*
X90418391Y-76265492D01*
X90518357Y-76323207D01*
X90518357Y-76323208D01*
X90521109Y-76324797D01*
X90521112Y-76324797D01*
X90521114Y-76324799D01*
X90635691Y-76355500D01*
X90635693Y-76355500D01*
X90754307Y-76355500D01*
X90754309Y-76355500D01*
X90868886Y-76324799D01*
X90868888Y-76324797D01*
X90868890Y-76324797D01*
X90965473Y-76269034D01*
X90968361Y-76267631D01*
X90969145Y-76267115D01*
X90974162Y-76264016D01*
X90975460Y-76263266D01*
X90980817Y-76256284D01*
X91032932Y-76204170D01*
X91087449Y-76176393D01*
X91133526Y-76180018D01*
X91180998Y-76195443D01*
X91197876Y-76198116D01*
X91244496Y-76205500D01*
X91244500Y-76205500D01*
X92675493Y-76205500D01*
X92675500Y-76205500D01*
X92707644Y-76202970D01*
X92738237Y-76198125D01*
X92738248Y-76198123D01*
X92738293Y-76198116D01*
X92742781Y-76197353D01*
X92742780Y-76197353D01*
X92742787Y-76197352D01*
X92753011Y-76192981D01*
X92813950Y-76187496D01*
X92866475Y-76218877D01*
X92874236Y-76229010D01*
X92914142Y-76288733D01*
X93001267Y-76375858D01*
X93081508Y-76429473D01*
X93104256Y-76450503D01*
X93109359Y-76456977D01*
X93130533Y-76514382D01*
X93113921Y-76573269D01*
X93065891Y-76611137D01*
X93061765Y-76612659D01*
X93059825Y-76613375D01*
X93025546Y-76619500D01*
X92251003Y-76619500D01*
X92195876Y-76630465D01*
X92125234Y-76644518D01*
X92125227Y-76644518D01*
X92115668Y-76646419D01*
X91988204Y-76699216D01*
X91988197Y-76699219D01*
X91988174Y-76699232D01*
X91873458Y-76775884D01*
X91775884Y-76873458D01*
X91699232Y-76988174D01*
X91699219Y-76988197D01*
X91699216Y-76988204D01*
X91646421Y-77115664D01*
X91645265Y-77121480D01*
X91645264Y-77121485D01*
X91619500Y-77251003D01*
X91619500Y-77388995D01*
X91644518Y-77514764D01*
X91644518Y-77514768D01*
X91646419Y-77524330D01*
X91699216Y-77651794D01*
X91699219Y-77651801D01*
X91699232Y-77651824D01*
X91775884Y-77766540D01*
X91873458Y-77864114D01*
X91988174Y-77940766D01*
X91988177Y-77940767D01*
X91988182Y-77940771D01*
X91988193Y-77940777D01*
X91988197Y-77940779D01*
X92035283Y-77960282D01*
X92115672Y-77993580D01*
X92251007Y-78020500D01*
X92251008Y-78020500D01*
X93488992Y-78020500D01*
X93488993Y-78020500D01*
X93624328Y-77993580D01*
X93751811Y-77940775D01*
X93866542Y-77864114D01*
X93964114Y-77766542D01*
X94040775Y-77651811D01*
X94093580Y-77524328D01*
X94120500Y-77388993D01*
X94120500Y-77251007D01*
X94120499Y-77251004D01*
X96049500Y-77251004D01*
X96049500Y-77255565D01*
X96049500Y-77388995D01*
X96074518Y-77514764D01*
X96074518Y-77514768D01*
X96076419Y-77524330D01*
X96129216Y-77651794D01*
X96129219Y-77651801D01*
X96129232Y-77651824D01*
X96205884Y-77766540D01*
X96303458Y-77864114D01*
X96418174Y-77940766D01*
X96418177Y-77940767D01*
X96418182Y-77940771D01*
X96418193Y-77940777D01*
X96418197Y-77940779D01*
X96465283Y-77960282D01*
X96545672Y-77993580D01*
X96681007Y-78020500D01*
X96681008Y-78020500D01*
X97418992Y-78020500D01*
X97418993Y-78020500D01*
X97554328Y-77993580D01*
X97681811Y-77940775D01*
X97796542Y-77864114D01*
X97894114Y-77766542D01*
X97970775Y-77651811D01*
X98023580Y-77524328D01*
X98050500Y-77388993D01*
X98050500Y-77251007D01*
X98023580Y-77115672D01*
X97983868Y-77019799D01*
X97970777Y-76988193D01*
X97970771Y-76988182D01*
X97953353Y-76962115D01*
X97894114Y-76873458D01*
X97796540Y-76775884D01*
X97681824Y-76699232D01*
X97681801Y-76699219D01*
X97554329Y-76646420D01*
X97418995Y-76619500D01*
X97418993Y-76619500D01*
X96681007Y-76619500D01*
X96681004Y-76619500D01*
X96681003Y-76619500D01*
X96625876Y-76630465D01*
X96555234Y-76644518D01*
X96555227Y-76644518D01*
X96545668Y-76646419D01*
X96418204Y-76699216D01*
X96418197Y-76699219D01*
X96418174Y-76699232D01*
X96303458Y-76775884D01*
X96205884Y-76873458D01*
X96129232Y-76988174D01*
X96129219Y-76988197D01*
X96129216Y-76988204D01*
X96076421Y-77115664D01*
X96075309Y-77121254D01*
X96075290Y-77121348D01*
X96049500Y-77251004D01*
X94120499Y-77251004D01*
X94110541Y-77200941D01*
X94093580Y-77115672D01*
X94053868Y-77019799D01*
X94040777Y-76988193D01*
X94040771Y-76988182D01*
X94023353Y-76962115D01*
X93964114Y-76873458D01*
X93866540Y-76775884D01*
X93751816Y-76699227D01*
X93751812Y-76699225D01*
X93651638Y-76657731D01*
X93625232Y-76641550D01*
X93622517Y-76639232D01*
X93616916Y-76634447D01*
X93584945Y-76582282D01*
X93589743Y-76521285D01*
X93623006Y-76479083D01*
X93623784Y-76478517D01*
X93627663Y-76475698D01*
X93647969Y-76464324D01*
X93696286Y-76444311D01*
X93798733Y-76375858D01*
X93885858Y-76288733D01*
X93926680Y-76227638D01*
X93974728Y-76189760D01*
X94035866Y-76187358D01*
X94039587Y-76188486D01*
X94060998Y-76195443D01*
X94077876Y-76198116D01*
X94124496Y-76205500D01*
X99600500Y-76205500D01*
X99658691Y-76224407D01*
X99694655Y-76273907D01*
X99699500Y-76304500D01*
X99699500Y-95996364D01*
X99699470Y-95998805D01*
X99699411Y-96001197D01*
X99699322Y-96003614D01*
X99682043Y-96355327D01*
X99681684Y-96360185D01*
X99681205Y-96365042D01*
X99680611Y-96369852D01*
X99629488Y-96714499D01*
X99628658Y-96719283D01*
X99627705Y-96724075D01*
X99626640Y-96728820D01*
X99541974Y-97066824D01*
X99540684Y-97071487D01*
X99539273Y-97076142D01*
X99537743Y-97080776D01*
X99420348Y-97408869D01*
X99418594Y-97413414D01*
X99416736Y-97417898D01*
X99414772Y-97422329D01*
X99265786Y-97737337D01*
X99263598Y-97741684D01*
X99261304Y-97745975D01*
X99258912Y-97750196D01*
X99079776Y-98049066D01*
X99077174Y-98053175D01*
X99074473Y-98057217D01*
X99071678Y-98061186D01*
X98864095Y-98341080D01*
X98861099Y-98344918D01*
X98858011Y-98348680D01*
X98854843Y-98352352D01*
X98620852Y-98610521D01*
X98617502Y-98614041D01*
X98614041Y-98617502D01*
X98610521Y-98620852D01*
X98352352Y-98854843D01*
X98348680Y-98858011D01*
X98344918Y-98861099D01*
X98341080Y-98864095D01*
X98061186Y-99071678D01*
X98057217Y-99074473D01*
X98053175Y-99077174D01*
X98049066Y-99079776D01*
X97750196Y-99258912D01*
X97745975Y-99261304D01*
X97741684Y-99263598D01*
X97737337Y-99265786D01*
X97422329Y-99414772D01*
X97417898Y-99416736D01*
X97413414Y-99418594D01*
X97408869Y-99420348D01*
X97080776Y-99537743D01*
X97076142Y-99539273D01*
X97071487Y-99540684D01*
X97066824Y-99541974D01*
X96728820Y-99626640D01*
X96724075Y-99627705D01*
X96719283Y-99628658D01*
X96714499Y-99629488D01*
X96369852Y-99680611D01*
X96365042Y-99681205D01*
X96360185Y-99681684D01*
X96355327Y-99682043D01*
X96003614Y-99699322D01*
X96001199Y-99699410D01*
X95998770Y-99699470D01*
X95996365Y-99699500D01*
X54003635Y-99699500D01*
X54001228Y-99699470D01*
X53998800Y-99699410D01*
X53996385Y-99699322D01*
X53644671Y-99682043D01*
X53639813Y-99681684D01*
X53634956Y-99681205D01*
X53630146Y-99680611D01*
X53285499Y-99629488D01*
X53280715Y-99628658D01*
X53275923Y-99627705D01*
X53271178Y-99626640D01*
X52933174Y-99541974D01*
X52928511Y-99540684D01*
X52923856Y-99539273D01*
X52919222Y-99537743D01*
X52591129Y-99420348D01*
X52586584Y-99418594D01*
X52582100Y-99416736D01*
X52577670Y-99414772D01*
X52360489Y-99312055D01*
X52360488Y-99312055D01*
X52262647Y-99265779D01*
X52258301Y-99263591D01*
X52254038Y-99261312D01*
X52249816Y-99258920D01*
X52100368Y-99169345D01*
X51950932Y-99079776D01*
X51946823Y-99077174D01*
X51942781Y-99074473D01*
X51938812Y-99071678D01*
X51658918Y-98864095D01*
X51655092Y-98861109D01*
X51651330Y-98858022D01*
X51647681Y-98854875D01*
X51389451Y-98620828D01*
X51385952Y-98617497D01*
X51382501Y-98614046D01*
X51379151Y-98610526D01*
X51379146Y-98610521D01*
X51255311Y-98473890D01*
X51145146Y-98352341D01*
X51141983Y-98348675D01*
X51138897Y-98344916D01*
X51135918Y-98341101D01*
X51061450Y-98240692D01*
X51061448Y-98240689D01*
X50928320Y-98061186D01*
X50925525Y-98057217D01*
X50922824Y-98053175D01*
X50920222Y-98049066D01*
X50892319Y-98002512D01*
X50892311Y-98002498D01*
X50741065Y-97750160D01*
X50738691Y-97745971D01*
X50736399Y-97741684D01*
X50734218Y-97737350D01*
X50585226Y-97422331D01*
X50583252Y-97417876D01*
X50581395Y-97413391D01*
X50579651Y-97408870D01*
X50565071Y-97368122D01*
X50462250Y-97080758D01*
X50460735Y-97076175D01*
X50459313Y-97071487D01*
X50458035Y-97066866D01*
X50373347Y-96728776D01*
X50372292Y-96724075D01*
X50371335Y-96719264D01*
X50370520Y-96714565D01*
X50319378Y-96369793D01*
X50318791Y-96365039D01*
X50318312Y-96360172D01*
X50317958Y-96355383D01*
X50300675Y-96003568D01*
X50300589Y-96001197D01*
X50300528Y-95998733D01*
X50300500Y-95996363D01*
X50300500Y-95831492D01*
X50999500Y-95831492D01*
X50999500Y-96168506D01*
X51037231Y-96503391D01*
X51112224Y-96831960D01*
X51223530Y-97150049D01*
X51223570Y-97150145D01*
X51223847Y-97150708D01*
X51369728Y-97453634D01*
X51369746Y-97453671D01*
X51369752Y-97453683D01*
X51369754Y-97453686D01*
X51369755Y-97453688D01*
X51369756Y-97453691D01*
X51549058Y-97739045D01*
X51549060Y-97739049D01*
X51549065Y-97739055D01*
X51759153Y-98002498D01*
X51759165Y-98002512D01*
X51759171Y-98002518D01*
X51759175Y-98002523D01*
X51997477Y-98240825D01*
X51997481Y-98240828D01*
X51997484Y-98240831D01*
X51997783Y-98241090D01*
X51998598Y-98241721D01*
X52260951Y-98450939D01*
X52260959Y-98450944D01*
X52260961Y-98450946D01*
X52263543Y-98452568D01*
X52265025Y-98453500D01*
X52265028Y-98453501D01*
X52297476Y-98473890D01*
X52523548Y-98615941D01*
X52523547Y-98615941D01*
X52546306Y-98630241D01*
X52546316Y-98630247D01*
X52546328Y-98630253D01*
X52609114Y-98660489D01*
X52849949Y-98776469D01*
X52998440Y-98828428D01*
X53160172Y-98885021D01*
X53165258Y-98887297D01*
X53165287Y-98887305D01*
X53165289Y-98887306D01*
X53170716Y-98888385D01*
X53496606Y-98962767D01*
X53831496Y-99000500D01*
X53831497Y-99000500D01*
X54168503Y-99000500D01*
X54168504Y-99000500D01*
X54503394Y-98962767D01*
X54831954Y-98887776D01*
X55150051Y-98776469D01*
X55453686Y-98630246D01*
X55739039Y-98450946D01*
X55995279Y-98246602D01*
X56002512Y-98240834D01*
X56002515Y-98240831D01*
X56002523Y-98240825D01*
X56002657Y-98240691D01*
X61749500Y-98240691D01*
X61749500Y-98246602D01*
X61749500Y-98359308D01*
X61769235Y-98432964D01*
X61780201Y-98473889D01*
X61780201Y-98473890D01*
X61839506Y-98576607D01*
X61839507Y-98576608D01*
X61839509Y-98576610D01*
X61839511Y-98576613D01*
X61923387Y-98660489D01*
X61923389Y-98660490D01*
X61923391Y-98660492D01*
X61923939Y-98660887D01*
X61925934Y-98661960D01*
X62023357Y-98718207D01*
X62023357Y-98718208D01*
X62026109Y-98719797D01*
X62026112Y-98719797D01*
X62026114Y-98719799D01*
X62140691Y-98750500D01*
X62140693Y-98750500D01*
X62259307Y-98750500D01*
X62259309Y-98750500D01*
X62373886Y-98719799D01*
X62373888Y-98719797D01*
X62373890Y-98719797D01*
X62470473Y-98664034D01*
X62473361Y-98662631D01*
X62474145Y-98662115D01*
X62479162Y-98659016D01*
X62480460Y-98658266D01*
X62485818Y-98651283D01*
X62560489Y-98576613D01*
X62560492Y-98576608D01*
X62619797Y-98473890D01*
X62619797Y-98473888D01*
X62619799Y-98473886D01*
X62650500Y-98359309D01*
X62650500Y-98240691D01*
X67349500Y-98240691D01*
X67349500Y-98359308D01*
X67369235Y-98432964D01*
X67380201Y-98473889D01*
X67380201Y-98473890D01*
X67439506Y-98576607D01*
X67439507Y-98576608D01*
X67439509Y-98576610D01*
X67439511Y-98576613D01*
X67523387Y-98660489D01*
X67523389Y-98660490D01*
X67523391Y-98660492D01*
X67523939Y-98660887D01*
X67525934Y-98661960D01*
X67623357Y-98718207D01*
X67623357Y-98718208D01*
X67626109Y-98719797D01*
X67626112Y-98719797D01*
X67626114Y-98719799D01*
X67740691Y-98750500D01*
X67740693Y-98750500D01*
X67859307Y-98750500D01*
X67859309Y-98750500D01*
X67973886Y-98719799D01*
X67973888Y-98719797D01*
X67973890Y-98719797D01*
X68070473Y-98664034D01*
X68073361Y-98662631D01*
X68074145Y-98662115D01*
X68079162Y-98659016D01*
X68080460Y-98658266D01*
X68085818Y-98651283D01*
X68160489Y-98576613D01*
X68160492Y-98576608D01*
X68219797Y-98473890D01*
X68219797Y-98473888D01*
X68219799Y-98473886D01*
X68250500Y-98359309D01*
X68250500Y-98240691D01*
X79249500Y-98240691D01*
X79249500Y-98359308D01*
X79269235Y-98432964D01*
X79280201Y-98473889D01*
X79280201Y-98473890D01*
X79339506Y-98576607D01*
X79339507Y-98576608D01*
X79339509Y-98576610D01*
X79339511Y-98576613D01*
X79423387Y-98660489D01*
X79423389Y-98660490D01*
X79423391Y-98660492D01*
X79423939Y-98660887D01*
X79425934Y-98661960D01*
X79523357Y-98718207D01*
X79523357Y-98718208D01*
X79526109Y-98719797D01*
X79526112Y-98719797D01*
X79526114Y-98719799D01*
X79640691Y-98750500D01*
X79640693Y-98750500D01*
X79759307Y-98750500D01*
X79759309Y-98750500D01*
X79873886Y-98719799D01*
X79873888Y-98719797D01*
X79873890Y-98719797D01*
X79970473Y-98664034D01*
X79973361Y-98662631D01*
X79974145Y-98662115D01*
X79979162Y-98659016D01*
X79980460Y-98658266D01*
X79985818Y-98651283D01*
X80060489Y-98576613D01*
X80060492Y-98576608D01*
X80119797Y-98473890D01*
X80119797Y-98473888D01*
X80119799Y-98473886D01*
X80150500Y-98359309D01*
X80150500Y-98240691D01*
X84849500Y-98240691D01*
X84849500Y-98359308D01*
X84869235Y-98432964D01*
X84880201Y-98473889D01*
X84880201Y-98473890D01*
X84939506Y-98576607D01*
X84939507Y-98576608D01*
X84939509Y-98576610D01*
X84939511Y-98576613D01*
X85023387Y-98660489D01*
X85023389Y-98660490D01*
X85023391Y-98660492D01*
X85023939Y-98660887D01*
X85025934Y-98661960D01*
X85123357Y-98718207D01*
X85123357Y-98718208D01*
X85126109Y-98719797D01*
X85126112Y-98719797D01*
X85126114Y-98719799D01*
X85240691Y-98750500D01*
X85240693Y-98750500D01*
X85359307Y-98750500D01*
X85359309Y-98750500D01*
X85473886Y-98719799D01*
X85473888Y-98719797D01*
X85473890Y-98719797D01*
X85570473Y-98664034D01*
X85573361Y-98662631D01*
X85574145Y-98662115D01*
X85579162Y-98659016D01*
X85580460Y-98658266D01*
X85585818Y-98651283D01*
X85660489Y-98576613D01*
X85660492Y-98576608D01*
X85719797Y-98473890D01*
X85719797Y-98473888D01*
X85719799Y-98473886D01*
X85750500Y-98359309D01*
X85750500Y-98240691D01*
X85719799Y-98126114D01*
X85719797Y-98126111D01*
X85719797Y-98126109D01*
X85719794Y-98126105D01*
X85719475Y-98125399D01*
X85718224Y-98123384D01*
X85660492Y-98023391D01*
X85660490Y-98023389D01*
X85660489Y-98023387D01*
X85576613Y-97939511D01*
X85576610Y-97939509D01*
X85576608Y-97939507D01*
X85531175Y-97913276D01*
X85510142Y-97889916D01*
X85460352Y-97876574D01*
X85460351Y-97876574D01*
X85359309Y-97849500D01*
X85359307Y-97849500D01*
X85240692Y-97849500D01*
X85240691Y-97849500D01*
X85205629Y-97858894D01*
X85170566Y-97868289D01*
X85170565Y-97868288D01*
X85126111Y-97880200D01*
X85126108Y-97880201D01*
X85023393Y-97939505D01*
X84939503Y-98023395D01*
X84880201Y-98126109D01*
X84879924Y-98126844D01*
X84879377Y-98129185D01*
X84849500Y-98240691D01*
X80150500Y-98240691D01*
X80119799Y-98126114D01*
X80119797Y-98126111D01*
X80119797Y-98126109D01*
X80119608Y-98125781D01*
X80119535Y-98125496D01*
X80118224Y-98123384D01*
X80060492Y-98023391D01*
X80060490Y-98023389D01*
X80060489Y-98023387D01*
X79976613Y-97939511D01*
X79976610Y-97939509D01*
X79976608Y-97939507D01*
X79931175Y-97913276D01*
X79910142Y-97889916D01*
X79860352Y-97876574D01*
X79860351Y-97876574D01*
X79759309Y-97849500D01*
X79759307Y-97849500D01*
X79640692Y-97849500D01*
X79640691Y-97849500D01*
X79605629Y-97858894D01*
X79570566Y-97868289D01*
X79570565Y-97868288D01*
X79526111Y-97880200D01*
X79526108Y-97880201D01*
X79423393Y-97939505D01*
X79339503Y-98023395D01*
X79280201Y-98126109D01*
X79279924Y-98126844D01*
X79279377Y-98129185D01*
X79249500Y-98240691D01*
X68250500Y-98240691D01*
X68219799Y-98126114D01*
X68219797Y-98126111D01*
X68219797Y-98126109D01*
X68219608Y-98125781D01*
X68219535Y-98125496D01*
X68218224Y-98123384D01*
X68160492Y-98023391D01*
X68160490Y-98023389D01*
X68160489Y-98023387D01*
X68076613Y-97939511D01*
X68076610Y-97939509D01*
X68076608Y-97939507D01*
X68031175Y-97913276D01*
X68010142Y-97889916D01*
X67960352Y-97876574D01*
X67960351Y-97876574D01*
X67859309Y-97849500D01*
X67859307Y-97849500D01*
X67740692Y-97849500D01*
X67740691Y-97849500D01*
X67705629Y-97858894D01*
X67670566Y-97868289D01*
X67670565Y-97868288D01*
X67626111Y-97880200D01*
X67626108Y-97880201D01*
X67523393Y-97939505D01*
X67439503Y-98023395D01*
X67380201Y-98126109D01*
X67379924Y-98126844D01*
X67379377Y-98129185D01*
X67349500Y-98240691D01*
X62650500Y-98240691D01*
X62619799Y-98126114D01*
X62619797Y-98126111D01*
X62619797Y-98126109D01*
X62619608Y-98125781D01*
X62619535Y-98125496D01*
X62618224Y-98123384D01*
X62560492Y-98023391D01*
X62560490Y-98023389D01*
X62560489Y-98023387D01*
X62476613Y-97939511D01*
X62476610Y-97939509D01*
X62476608Y-97939507D01*
X62431175Y-97913276D01*
X62410142Y-97889916D01*
X62360352Y-97876574D01*
X62360351Y-97876574D01*
X62259309Y-97849500D01*
X62259307Y-97849500D01*
X62140692Y-97849500D01*
X62140691Y-97849500D01*
X62105629Y-97858894D01*
X62070566Y-97868289D01*
X62070565Y-97868288D01*
X62026111Y-97880200D01*
X62026108Y-97880201D01*
X61923393Y-97939505D01*
X61839503Y-98023395D01*
X61780201Y-98126109D01*
X61779924Y-98126844D01*
X61779683Y-98127872D01*
X61779691Y-98127982D01*
X61779511Y-98128686D01*
X61749500Y-98240691D01*
X56002657Y-98240691D01*
X56240825Y-98002523D01*
X56291079Y-97939507D01*
X56450308Y-97739838D01*
X56450828Y-97739200D01*
X56450943Y-97739042D01*
X56450946Y-97739039D01*
X56630246Y-97453686D01*
X56776469Y-97150051D01*
X56887776Y-96831954D01*
X56962767Y-96503394D01*
X57000500Y-96168504D01*
X57000500Y-95831496D01*
X57000500Y-95831492D01*
X92999500Y-95831492D01*
X92999500Y-96168506D01*
X93037231Y-96503391D01*
X93112224Y-96831960D01*
X93223530Y-97150049D01*
X93223570Y-97150145D01*
X93223847Y-97150708D01*
X93369728Y-97453634D01*
X93369746Y-97453671D01*
X93369752Y-97453683D01*
X93369754Y-97453686D01*
X93369755Y-97453688D01*
X93369756Y-97453691D01*
X93549058Y-97739045D01*
X93549060Y-97739049D01*
X93549065Y-97739055D01*
X93759153Y-98002498D01*
X93759165Y-98002512D01*
X93759171Y-98002518D01*
X93759175Y-98002523D01*
X93997477Y-98240825D01*
X93997481Y-98240828D01*
X93997484Y-98240831D01*
X93997783Y-98241090D01*
X93998598Y-98241721D01*
X94260951Y-98450939D01*
X94260959Y-98450944D01*
X94260961Y-98450946D01*
X94263543Y-98452568D01*
X94265025Y-98453500D01*
X94265028Y-98453501D01*
X94297476Y-98473890D01*
X94523548Y-98615941D01*
X94523547Y-98615941D01*
X94546306Y-98630241D01*
X94546316Y-98630247D01*
X94546328Y-98630253D01*
X94609114Y-98660489D01*
X94849949Y-98776469D01*
X94998440Y-98828428D01*
X95160172Y-98885021D01*
X95165258Y-98887297D01*
X95165287Y-98887305D01*
X95165289Y-98887306D01*
X95170716Y-98888385D01*
X95496606Y-98962767D01*
X95831496Y-99000500D01*
X95831497Y-99000500D01*
X96168503Y-99000500D01*
X96168504Y-99000500D01*
X96503394Y-98962767D01*
X96831954Y-98887776D01*
X97150051Y-98776469D01*
X97453686Y-98630246D01*
X97739039Y-98450946D01*
X97995279Y-98246602D01*
X98002517Y-98240830D01*
X98002518Y-98240829D01*
X98002518Y-98240828D01*
X98002523Y-98240825D01*
X98240825Y-98002523D01*
X98291079Y-97939507D01*
X98450308Y-97739838D01*
X98450828Y-97739200D01*
X98450943Y-97739042D01*
X98450946Y-97739039D01*
X98630246Y-97453686D01*
X98776469Y-97150051D01*
X98887776Y-96831954D01*
X98962767Y-96503394D01*
X99000500Y-96168504D01*
X99000500Y-95831496D01*
X98962767Y-95496606D01*
X98887776Y-95168046D01*
X98887773Y-95168038D01*
X98776469Y-94849948D01*
X98646565Y-94580201D01*
X98644818Y-94576574D01*
X98630253Y-94546328D01*
X98630247Y-94546316D01*
X98630246Y-94546315D01*
X98630244Y-94546310D01*
X98630242Y-94546307D01*
X98450940Y-94260953D01*
X98450938Y-94260949D01*
X98450933Y-94260943D01*
X98241721Y-93998598D01*
X98241721Y-93998599D01*
X98240834Y-93997487D01*
X98240828Y-93997481D01*
X98240825Y-93997477D01*
X98002523Y-93759175D01*
X98002518Y-93759171D01*
X98002512Y-93759165D01*
X98002510Y-93759163D01*
X98002498Y-93759153D01*
X97739055Y-93549065D01*
X97739049Y-93549060D01*
X97739045Y-93549058D01*
X97453691Y-93369756D01*
X97453688Y-93369755D01*
X97453686Y-93369754D01*
X97453683Y-93369752D01*
X97453671Y-93369746D01*
X97453634Y-93369728D01*
X97150708Y-93223847D01*
X97150145Y-93223570D01*
X97150049Y-93223530D01*
X96831960Y-93112224D01*
X96503391Y-93037231D01*
X96168506Y-92999500D01*
X96168505Y-92999500D01*
X96168504Y-92999500D01*
X95831496Y-92999500D01*
X95831494Y-92999500D01*
X95831492Y-92999500D01*
X95496607Y-93037231D01*
X95168038Y-93112224D01*
X94849949Y-93223530D01*
X94849853Y-93223570D01*
X94849290Y-93223847D01*
X94546364Y-93369728D01*
X94546310Y-93369755D01*
X94546307Y-93369756D01*
X94260953Y-93549058D01*
X94260949Y-93549060D01*
X94260943Y-93549065D01*
X93997497Y-93759155D01*
X93759155Y-93997497D01*
X93549065Y-94260943D01*
X93549060Y-94260949D01*
X93549058Y-94260953D01*
X93369756Y-94546307D01*
X93369755Y-94546310D01*
X93369728Y-94546364D01*
X93223847Y-94849290D01*
X93223570Y-94849853D01*
X93223531Y-94849947D01*
X93223531Y-94849948D01*
X93223531Y-94849949D01*
X93112224Y-95168038D01*
X93037231Y-95496607D01*
X92999500Y-95831492D01*
X57000500Y-95831492D01*
X56962767Y-95496606D01*
X56887776Y-95168046D01*
X56887773Y-95168038D01*
X56817392Y-94966900D01*
X56808221Y-94940691D01*
X67449500Y-94940691D01*
X67449500Y-95059309D01*
X67476574Y-95160351D01*
X67480202Y-95173890D01*
X67539507Y-95276608D01*
X67539509Y-95276610D01*
X67539511Y-95276613D01*
X67623387Y-95360489D01*
X67623389Y-95360490D01*
X67623391Y-95360492D01*
X67623939Y-95360887D01*
X67625934Y-95361960D01*
X67723357Y-95418207D01*
X67723357Y-95418208D01*
X67726109Y-95419797D01*
X67726112Y-95419797D01*
X67726114Y-95419799D01*
X67840691Y-95450500D01*
X67840693Y-95450500D01*
X67959307Y-95450500D01*
X67959309Y-95450500D01*
X68073886Y-95419799D01*
X68073887Y-95419798D01*
X68073889Y-95419797D01*
X68073890Y-95419797D01*
X68170473Y-95364034D01*
X68173361Y-95362631D01*
X68174145Y-95362115D01*
X68179162Y-95359016D01*
X68180460Y-95358266D01*
X68185818Y-95351283D01*
X68260489Y-95276613D01*
X68319799Y-95173886D01*
X68350500Y-95059309D01*
X68350500Y-94940691D01*
X84949500Y-94940691D01*
X84949500Y-95059309D01*
X84976574Y-95160351D01*
X84980202Y-95173890D01*
X85039507Y-95276608D01*
X85039509Y-95276610D01*
X85039511Y-95276613D01*
X85123387Y-95360489D01*
X85123389Y-95360490D01*
X85123391Y-95360492D01*
X85123939Y-95360887D01*
X85125934Y-95361960D01*
X85223357Y-95418207D01*
X85223357Y-95418208D01*
X85226109Y-95419797D01*
X85226112Y-95419797D01*
X85226114Y-95419799D01*
X85340691Y-95450500D01*
X85340693Y-95450500D01*
X85459307Y-95450500D01*
X85459309Y-95450500D01*
X85573886Y-95419799D01*
X85573887Y-95419798D01*
X85573889Y-95419797D01*
X85573890Y-95419797D01*
X85670473Y-95364034D01*
X85673361Y-95362631D01*
X85674145Y-95362115D01*
X85679162Y-95359016D01*
X85680460Y-95358266D01*
X85685818Y-95351283D01*
X85760489Y-95276613D01*
X85819799Y-95173886D01*
X85850500Y-95059309D01*
X85850500Y-94940691D01*
X85819799Y-94826114D01*
X85819797Y-94826111D01*
X85819797Y-94826109D01*
X85819794Y-94826105D01*
X85819475Y-94825399D01*
X85818224Y-94823384D01*
X85760492Y-94723391D01*
X85760490Y-94723389D01*
X85760489Y-94723387D01*
X85676613Y-94639511D01*
X85676610Y-94639509D01*
X85676608Y-94639507D01*
X85631175Y-94613276D01*
X85610142Y-94589916D01*
X85560352Y-94576574D01*
X85560351Y-94576574D01*
X85459309Y-94549500D01*
X85459307Y-94549500D01*
X85340692Y-94549500D01*
X85340691Y-94549500D01*
X85305629Y-94558894D01*
X85270566Y-94568289D01*
X85270565Y-94568288D01*
X85226111Y-94580200D01*
X85226108Y-94580201D01*
X85123393Y-94639505D01*
X85039505Y-94723393D01*
X84980202Y-94826108D01*
X84973813Y-94849947D01*
X84973814Y-94849948D01*
X84949500Y-94940691D01*
X68350500Y-94940691D01*
X68319799Y-94826114D01*
X68319797Y-94826111D01*
X68319797Y-94826109D01*
X68319608Y-94825781D01*
X68319535Y-94825496D01*
X68318224Y-94823384D01*
X68260492Y-94723391D01*
X68260490Y-94723389D01*
X68260489Y-94723387D01*
X68176613Y-94639511D01*
X68176610Y-94639509D01*
X68176608Y-94639507D01*
X68131175Y-94613276D01*
X68110142Y-94589916D01*
X68060352Y-94576574D01*
X68060351Y-94576574D01*
X67959309Y-94549500D01*
X67959307Y-94549500D01*
X67840692Y-94549500D01*
X67840691Y-94549500D01*
X67805629Y-94558894D01*
X67770566Y-94568289D01*
X67770565Y-94568288D01*
X67726111Y-94580200D01*
X67726108Y-94580201D01*
X67623393Y-94639505D01*
X67539505Y-94723393D01*
X67480202Y-94826108D01*
X67473813Y-94849947D01*
X67473814Y-94849948D01*
X67449500Y-94940691D01*
X56808221Y-94940691D01*
X56776469Y-94849948D01*
X56646565Y-94580201D01*
X56644818Y-94576574D01*
X56630253Y-94546328D01*
X56630247Y-94546316D01*
X56630246Y-94546315D01*
X56630244Y-94546310D01*
X56630242Y-94546307D01*
X56450940Y-94260953D01*
X56450938Y-94260949D01*
X56450933Y-94260943D01*
X56241721Y-93998598D01*
X56241721Y-93998599D01*
X56240834Y-93997487D01*
X56240828Y-93997481D01*
X56240825Y-93997477D01*
X56002523Y-93759175D01*
X56002518Y-93759171D01*
X56002512Y-93759165D01*
X56002510Y-93759163D01*
X56002498Y-93759153D01*
X55739055Y-93549065D01*
X55739049Y-93549060D01*
X55739045Y-93549058D01*
X55453691Y-93369756D01*
X55453688Y-93369755D01*
X55453686Y-93369754D01*
X55453683Y-93369752D01*
X55453671Y-93369746D01*
X55453634Y-93369728D01*
X55150708Y-93223847D01*
X55150145Y-93223570D01*
X55150049Y-93223530D01*
X54831960Y-93112224D01*
X54503391Y-93037231D01*
X54168506Y-92999500D01*
X54168505Y-92999500D01*
X54168504Y-92999500D01*
X53831496Y-92999500D01*
X53831494Y-92999500D01*
X53831492Y-92999500D01*
X53496607Y-93037231D01*
X53168038Y-93112224D01*
X52849949Y-93223530D01*
X52849853Y-93223570D01*
X52849290Y-93223847D01*
X52546364Y-93369728D01*
X52546310Y-93369755D01*
X52546307Y-93369756D01*
X52260953Y-93549058D01*
X52260949Y-93549060D01*
X52260943Y-93549065D01*
X51997497Y-93759155D01*
X51759155Y-93997497D01*
X51549065Y-94260943D01*
X51549060Y-94260949D01*
X51549058Y-94260953D01*
X51369756Y-94546307D01*
X51369755Y-94546310D01*
X51369728Y-94546364D01*
X51223847Y-94849290D01*
X51223570Y-94849853D01*
X51223531Y-94849947D01*
X51223531Y-94849948D01*
X51223531Y-94849949D01*
X51112224Y-95168038D01*
X51037231Y-95496607D01*
X50999500Y-95831492D01*
X50300500Y-95831492D01*
X50300500Y-90740691D01*
X74549500Y-90740691D01*
X74549500Y-90859309D01*
X74576574Y-90960351D01*
X74580202Y-90973890D01*
X74639507Y-91076608D01*
X74639509Y-91076610D01*
X74639511Y-91076613D01*
X74723387Y-91160489D01*
X74723389Y-91160490D01*
X74723391Y-91160492D01*
X74723939Y-91160887D01*
X74725934Y-91161960D01*
X74823357Y-91218207D01*
X74823357Y-91218208D01*
X74826109Y-91219797D01*
X74826112Y-91219797D01*
X74826114Y-91219799D01*
X74940691Y-91250500D01*
X74940693Y-91250500D01*
X75059307Y-91250500D01*
X75059309Y-91250500D01*
X75173886Y-91219799D01*
X75173887Y-91219798D01*
X75173889Y-91219797D01*
X75173890Y-91219797D01*
X75270473Y-91164034D01*
X75273361Y-91162631D01*
X75274145Y-91162115D01*
X75279162Y-91159016D01*
X75280460Y-91158266D01*
X75285818Y-91151283D01*
X75360489Y-91076613D01*
X75419799Y-90973886D01*
X75450500Y-90859309D01*
X75450500Y-90740691D01*
X75419799Y-90626114D01*
X75419797Y-90626111D01*
X75419797Y-90626109D01*
X75419794Y-90626105D01*
X75419475Y-90625399D01*
X75418224Y-90623384D01*
X75360492Y-90523391D01*
X75360490Y-90523389D01*
X75360489Y-90523387D01*
X75276613Y-90439511D01*
X75276610Y-90439509D01*
X75276608Y-90439507D01*
X75231175Y-90413276D01*
X75210142Y-90389916D01*
X75160352Y-90376574D01*
X75160351Y-90376574D01*
X75059309Y-90349500D01*
X75059307Y-90349500D01*
X74940692Y-90349500D01*
X74940691Y-90349500D01*
X74905629Y-90358894D01*
X74870566Y-90368289D01*
X74870565Y-90368288D01*
X74826111Y-90380200D01*
X74826108Y-90380201D01*
X74723393Y-90439505D01*
X74639503Y-90523395D01*
X74580201Y-90626109D01*
X74579924Y-90626844D01*
X74579683Y-90627872D01*
X74579691Y-90627982D01*
X74579511Y-90628686D01*
X74549500Y-90740691D01*
X50300500Y-90740691D01*
X50300500Y-86240691D01*
X73549500Y-86240691D01*
X73549500Y-86359309D01*
X73576574Y-86460351D01*
X73580202Y-86473890D01*
X73639507Y-86576608D01*
X73639509Y-86576610D01*
X73639511Y-86576613D01*
X73723387Y-86660489D01*
X73723389Y-86660490D01*
X73723391Y-86660492D01*
X73723939Y-86660887D01*
X73725934Y-86661960D01*
X73823357Y-86718207D01*
X73823357Y-86718208D01*
X73826109Y-86719797D01*
X73826112Y-86719797D01*
X73826114Y-86719799D01*
X73940691Y-86750500D01*
X73940693Y-86750500D01*
X74059307Y-86750500D01*
X74059309Y-86750500D01*
X74173886Y-86719799D01*
X74173887Y-86719798D01*
X74173889Y-86719797D01*
X74173890Y-86719797D01*
X74270473Y-86664034D01*
X74273361Y-86662631D01*
X74274145Y-86662115D01*
X74279162Y-86659016D01*
X74280460Y-86658266D01*
X74285818Y-86651283D01*
X74360489Y-86576613D01*
X74419799Y-86473886D01*
X74450500Y-86359309D01*
X74450500Y-86240691D01*
X75549500Y-86240691D01*
X75549500Y-86359309D01*
X75576574Y-86460351D01*
X75580202Y-86473890D01*
X75639507Y-86576608D01*
X75639509Y-86576610D01*
X75639511Y-86576613D01*
X75723387Y-86660489D01*
X75723389Y-86660490D01*
X75723391Y-86660492D01*
X75723939Y-86660887D01*
X75725934Y-86661960D01*
X75823357Y-86718207D01*
X75823357Y-86718208D01*
X75826109Y-86719797D01*
X75826112Y-86719797D01*
X75826114Y-86719799D01*
X75940691Y-86750500D01*
X75940693Y-86750500D01*
X76059307Y-86750500D01*
X76059309Y-86750500D01*
X76173886Y-86719799D01*
X76173887Y-86719798D01*
X76173889Y-86719797D01*
X76173890Y-86719797D01*
X76270473Y-86664034D01*
X76273361Y-86662631D01*
X76274145Y-86662115D01*
X76279162Y-86659016D01*
X76280460Y-86658266D01*
X76285818Y-86651283D01*
X76360489Y-86576613D01*
X76419799Y-86473886D01*
X76450500Y-86359309D01*
X76450500Y-86240691D01*
X76419799Y-86126114D01*
X76419797Y-86126111D01*
X76419797Y-86126109D01*
X76419794Y-86126105D01*
X76419475Y-86125399D01*
X76418224Y-86123384D01*
X76360492Y-86023391D01*
X76360490Y-86023389D01*
X76360489Y-86023387D01*
X76276613Y-85939511D01*
X76276610Y-85939509D01*
X76276608Y-85939507D01*
X76231175Y-85913276D01*
X76210142Y-85889916D01*
X76160352Y-85876574D01*
X76160351Y-85876574D01*
X76059309Y-85849500D01*
X76059307Y-85849500D01*
X75940692Y-85849500D01*
X75940691Y-85849500D01*
X75905629Y-85858894D01*
X75870566Y-85868289D01*
X75870565Y-85868288D01*
X75826111Y-85880200D01*
X75826108Y-85880201D01*
X75723393Y-85939505D01*
X75639503Y-86023395D01*
X75580201Y-86126109D01*
X75579924Y-86126844D01*
X75579377Y-86129185D01*
X75549500Y-86240691D01*
X74450500Y-86240691D01*
X74419799Y-86126114D01*
X74419797Y-86126111D01*
X74419797Y-86126109D01*
X74419608Y-86125781D01*
X74419535Y-86125496D01*
X74418224Y-86123384D01*
X74360492Y-86023391D01*
X74360490Y-86023389D01*
X74360489Y-86023387D01*
X74276613Y-85939511D01*
X74276610Y-85939509D01*
X74276608Y-85939507D01*
X74231175Y-85913276D01*
X74210142Y-85889916D01*
X74160352Y-85876574D01*
X74160351Y-85876574D01*
X74059309Y-85849500D01*
X74059307Y-85849500D01*
X73940692Y-85849500D01*
X73940691Y-85849500D01*
X73905629Y-85858894D01*
X73870566Y-85868289D01*
X73870565Y-85868288D01*
X73826111Y-85880200D01*
X73826108Y-85880201D01*
X73723393Y-85939505D01*
X73639503Y-86023395D01*
X73580201Y-86126109D01*
X73579924Y-86126844D01*
X73579683Y-86127872D01*
X73579691Y-86127982D01*
X73579511Y-86128686D01*
X73549500Y-86240691D01*
X50300500Y-86240691D01*
X50300500Y-83020245D01*
X52949500Y-83020245D01*
X52949500Y-84759753D01*
X52949501Y-84759758D01*
X52961132Y-84818227D01*
X52961133Y-84818231D01*
X53005448Y-84884552D01*
X53071769Y-84928867D01*
X53094000Y-84933289D01*
X53116228Y-84937711D01*
X53116231Y-84937711D01*
X53124159Y-84939288D01*
X53126324Y-84939861D01*
X53128514Y-84940217D01*
X53130081Y-84940500D01*
X53130252Y-84940500D01*
X53130253Y-84940500D01*
X54869747Y-84940500D01*
X54869748Y-84940500D01*
X54928231Y-84928867D01*
X54994552Y-84884552D01*
X55038867Y-84818231D01*
X55050500Y-84759748D01*
X55050500Y-83020252D01*
X55038867Y-82961769D01*
X54994552Y-82895448D01*
X54994543Y-82895442D01*
X54945439Y-82862631D01*
X54942238Y-82860492D01*
X54928233Y-82851134D01*
X54928231Y-82851133D01*
X54928228Y-82851132D01*
X54928227Y-82851131D01*
X54928025Y-82851063D01*
X54926488Y-82850786D01*
X54869768Y-82839503D01*
X54869758Y-82839501D01*
X54869753Y-82839500D01*
X54869750Y-82839500D01*
X54869748Y-82839500D01*
X53130252Y-82839500D01*
X53130251Y-82839500D01*
X53130245Y-82839500D01*
X53071778Y-82851130D01*
X53071763Y-82851135D01*
X53005454Y-82895442D01*
X53005442Y-82895454D01*
X52961135Y-82961763D01*
X52961134Y-82961765D01*
X52961134Y-82961766D01*
X52961132Y-82961772D01*
X52961131Y-82961774D01*
X52949500Y-83020245D01*
X50300500Y-83020245D01*
X50300500Y-82440691D01*
X61449500Y-82440691D01*
X61449500Y-82559308D01*
X61466670Y-82623388D01*
X61466669Y-82623388D01*
X61480201Y-82673889D01*
X61480201Y-82673890D01*
X61532147Y-82763861D01*
X61539507Y-82776608D01*
X61539509Y-82776610D01*
X61539511Y-82776613D01*
X61623387Y-82860489D01*
X61623389Y-82860490D01*
X61623391Y-82860492D01*
X61623939Y-82860887D01*
X61625934Y-82861960D01*
X61723357Y-82918207D01*
X61723357Y-82918208D01*
X61726109Y-82919797D01*
X61726112Y-82919797D01*
X61726114Y-82919799D01*
X61840691Y-82950500D01*
X61840693Y-82950500D01*
X61959307Y-82950500D01*
X61959309Y-82950500D01*
X62073886Y-82919799D01*
X62073888Y-82919797D01*
X62073890Y-82919797D01*
X62170473Y-82864034D01*
X62173361Y-82862631D01*
X62174145Y-82862115D01*
X62179162Y-82859016D01*
X62180460Y-82858266D01*
X62185818Y-82851283D01*
X62196410Y-82840691D01*
X68549500Y-82840691D01*
X68549500Y-82959309D01*
X68550160Y-82961772D01*
X68580202Y-83073890D01*
X68580203Y-83073893D01*
X68639504Y-83176603D01*
X68639507Y-83176608D01*
X68639509Y-83176610D01*
X68639511Y-83176613D01*
X68723387Y-83260489D01*
X68723389Y-83260490D01*
X68723391Y-83260492D01*
X68723939Y-83260887D01*
X68725934Y-83261960D01*
X68823357Y-83318207D01*
X68823357Y-83318208D01*
X68826109Y-83319797D01*
X68826112Y-83319797D01*
X68826114Y-83319799D01*
X68940691Y-83350500D01*
X68940693Y-83350500D01*
X69059307Y-83350500D01*
X69059309Y-83350500D01*
X69173886Y-83319799D01*
X69173888Y-83319797D01*
X69173890Y-83319797D01*
X69270473Y-83264034D01*
X69273361Y-83262631D01*
X69274145Y-83262115D01*
X69279162Y-83259016D01*
X69280460Y-83258266D01*
X69285818Y-83251283D01*
X69360489Y-83176613D01*
X69360492Y-83176608D01*
X69406426Y-83097049D01*
X69425908Y-83072989D01*
X69434386Y-83065355D01*
X69490277Y-83040471D01*
X69550119Y-83053189D01*
X69554342Y-83055627D01*
X69590578Y-83091861D01*
X69639507Y-83176608D01*
X69639509Y-83176610D01*
X69639511Y-83176613D01*
X69723387Y-83260489D01*
X69723389Y-83260490D01*
X69723391Y-83260492D01*
X69723939Y-83260887D01*
X69725934Y-83261960D01*
X69823357Y-83318207D01*
X69823357Y-83318208D01*
X69826109Y-83319797D01*
X69826112Y-83319797D01*
X69826114Y-83319799D01*
X69940691Y-83350500D01*
X69940693Y-83350500D01*
X70059307Y-83350500D01*
X70059309Y-83350500D01*
X70173886Y-83319799D01*
X70173888Y-83319797D01*
X70173890Y-83319797D01*
X70270473Y-83264034D01*
X70273361Y-83262631D01*
X70274145Y-83262115D01*
X70279162Y-83259016D01*
X70280460Y-83258266D01*
X70285818Y-83251283D01*
X70360489Y-83176613D01*
X70360492Y-83176608D01*
X70419797Y-83073890D01*
X70419797Y-83073888D01*
X70419799Y-83073886D01*
X70450500Y-82959309D01*
X70450500Y-82840691D01*
X70649500Y-82840691D01*
X70649500Y-82959309D01*
X70650160Y-82961772D01*
X70680202Y-83073890D01*
X70680203Y-83073893D01*
X70739504Y-83176603D01*
X70739507Y-83176608D01*
X70739509Y-83176610D01*
X70739511Y-83176613D01*
X70823387Y-83260489D01*
X70823389Y-83260490D01*
X70823391Y-83260492D01*
X70823939Y-83260887D01*
X70825934Y-83261960D01*
X70923357Y-83318207D01*
X70923357Y-83318208D01*
X70926109Y-83319797D01*
X70926112Y-83319797D01*
X70926114Y-83319799D01*
X71040691Y-83350500D01*
X71040693Y-83350500D01*
X71159307Y-83350500D01*
X71159309Y-83350500D01*
X71273886Y-83319799D01*
X71273888Y-83319797D01*
X71273890Y-83319797D01*
X71370473Y-83264034D01*
X71373361Y-83262631D01*
X71374145Y-83262115D01*
X71379162Y-83259016D01*
X71380460Y-83258266D01*
X71385818Y-83251283D01*
X71460489Y-83176613D01*
X71460492Y-83176608D01*
X71519797Y-83073890D01*
X71519797Y-83073888D01*
X71519799Y-83073886D01*
X71550500Y-82959309D01*
X71550500Y-82840691D01*
X77349500Y-82840691D01*
X77349500Y-82959309D01*
X77350160Y-82961772D01*
X77380201Y-83073888D01*
X77380203Y-83073893D01*
X77439504Y-83176603D01*
X77439507Y-83176608D01*
X77439509Y-83176610D01*
X77439511Y-83176613D01*
X77523387Y-83260489D01*
X77523389Y-83260490D01*
X77523391Y-83260492D01*
X77523939Y-83260887D01*
X77525934Y-83261960D01*
X77623357Y-83318207D01*
X77623357Y-83318208D01*
X77626109Y-83319797D01*
X77626112Y-83319797D01*
X77626114Y-83319799D01*
X77740691Y-83350500D01*
X77740693Y-83350500D01*
X77859307Y-83350500D01*
X77859309Y-83350500D01*
X77973886Y-83319799D01*
X77973888Y-83319797D01*
X77973890Y-83319797D01*
X78070473Y-83264034D01*
X78073361Y-83262631D01*
X78074145Y-83262115D01*
X78079162Y-83259016D01*
X78080460Y-83258266D01*
X78085818Y-83251283D01*
X78160489Y-83176613D01*
X78160492Y-83176608D01*
X78219797Y-83073890D01*
X78219797Y-83073888D01*
X78219799Y-83073886D01*
X78250500Y-82959309D01*
X78250500Y-82840691D01*
X78219799Y-82726114D01*
X78219797Y-82726111D01*
X78219797Y-82726109D01*
X78219794Y-82726105D01*
X78219475Y-82725399D01*
X78218224Y-82723384D01*
X78160492Y-82623391D01*
X78160490Y-82623389D01*
X78160489Y-82623387D01*
X78076613Y-82539511D01*
X78076610Y-82539509D01*
X78076608Y-82539507D01*
X78031175Y-82513276D01*
X78010142Y-82489916D01*
X77960352Y-82476574D01*
X77960351Y-82476574D01*
X77859309Y-82449500D01*
X77859307Y-82449500D01*
X77740692Y-82449500D01*
X77740691Y-82449500D01*
X77705629Y-82458894D01*
X77670566Y-82468289D01*
X77670565Y-82468288D01*
X77626111Y-82480200D01*
X77626108Y-82480201D01*
X77523393Y-82539505D01*
X77439503Y-82623395D01*
X77380201Y-82726109D01*
X77379924Y-82726844D01*
X77379377Y-82729185D01*
X77349819Y-82839500D01*
X77349500Y-82840691D01*
X71550500Y-82840691D01*
X71519799Y-82726114D01*
X71519797Y-82726111D01*
X71519797Y-82726109D01*
X71519608Y-82725781D01*
X71519535Y-82725496D01*
X71518224Y-82723384D01*
X71460492Y-82623391D01*
X71460490Y-82623389D01*
X71460489Y-82623387D01*
X71376613Y-82539511D01*
X71376610Y-82539509D01*
X71376608Y-82539507D01*
X71331175Y-82513276D01*
X71310142Y-82489916D01*
X71260352Y-82476574D01*
X71260351Y-82476574D01*
X71159309Y-82449500D01*
X71159307Y-82449500D01*
X71040692Y-82449500D01*
X71040691Y-82449500D01*
X71005629Y-82458894D01*
X70970566Y-82468289D01*
X70970565Y-82468288D01*
X70926111Y-82480200D01*
X70926108Y-82480201D01*
X70823393Y-82539505D01*
X70739503Y-82623395D01*
X70680201Y-82726109D01*
X70679428Y-82728158D01*
X70679377Y-82729185D01*
X70649819Y-82839500D01*
X70649500Y-82840691D01*
X70450500Y-82840691D01*
X70419799Y-82726114D01*
X70419797Y-82726111D01*
X70419797Y-82726109D01*
X70419796Y-82726108D01*
X70419706Y-82725770D01*
X70418224Y-82723384D01*
X70360492Y-82623391D01*
X70360490Y-82623389D01*
X70360489Y-82623387D01*
X70276613Y-82539511D01*
X70276610Y-82539509D01*
X70276608Y-82539507D01*
X70231175Y-82513276D01*
X70210142Y-82489916D01*
X70160352Y-82476574D01*
X70160351Y-82476574D01*
X70059309Y-82449500D01*
X70059307Y-82449500D01*
X69940692Y-82449500D01*
X69940691Y-82449500D01*
X69905629Y-82458894D01*
X69870566Y-82468289D01*
X69870565Y-82468288D01*
X69826111Y-82480200D01*
X69826108Y-82480201D01*
X69723393Y-82539505D01*
X69639505Y-82623393D01*
X69593576Y-82702945D01*
X69574080Y-82727019D01*
X69565613Y-82734642D01*
X69509717Y-82759526D01*
X69449871Y-82746803D01*
X69445652Y-82744367D01*
X69409418Y-82708133D01*
X69361971Y-82625954D01*
X69360888Y-82623941D01*
X69360490Y-82623389D01*
X69360489Y-82623387D01*
X69276613Y-82539511D01*
X69276610Y-82539509D01*
X69276608Y-82539507D01*
X69231175Y-82513276D01*
X69210142Y-82489916D01*
X69160352Y-82476574D01*
X69160351Y-82476574D01*
X69059309Y-82449500D01*
X69059307Y-82449500D01*
X68940692Y-82449500D01*
X68940691Y-82449500D01*
X68905629Y-82458894D01*
X68870566Y-82468289D01*
X68870565Y-82468288D01*
X68826111Y-82480200D01*
X68826108Y-82480201D01*
X68723393Y-82539505D01*
X68639503Y-82623395D01*
X68580201Y-82726109D01*
X68579924Y-82726844D01*
X68579683Y-82727872D01*
X68579691Y-82727982D01*
X68579511Y-82728686D01*
X68549500Y-82840691D01*
X62196410Y-82840691D01*
X62260489Y-82776613D01*
X62260492Y-82776608D01*
X62319797Y-82673890D01*
X62319797Y-82673888D01*
X62319799Y-82673886D01*
X62350500Y-82559309D01*
X62350500Y-82440691D01*
X62319799Y-82326114D01*
X62319797Y-82326111D01*
X62319797Y-82326109D01*
X62319794Y-82326105D01*
X62319475Y-82325399D01*
X62318224Y-82323384D01*
X62260492Y-82223391D01*
X62260490Y-82223389D01*
X62260489Y-82223387D01*
X62176613Y-82139511D01*
X62176610Y-82139509D01*
X62176608Y-82139507D01*
X62176605Y-82139505D01*
X62176603Y-82139503D01*
X62131176Y-82113276D01*
X62110142Y-82089915D01*
X62050318Y-82073886D01*
X62029426Y-82068288D01*
X61959309Y-82049500D01*
X61959308Y-82049500D01*
X61840692Y-82049500D01*
X61840691Y-82049500D01*
X61805629Y-82058894D01*
X61770566Y-82068289D01*
X61770565Y-82068288D01*
X61726111Y-82080200D01*
X61726108Y-82080201D01*
X61623393Y-82139505D01*
X61539503Y-82223395D01*
X61480201Y-82326109D01*
X61479441Y-82328123D01*
X61479377Y-82329185D01*
X61449500Y-82440691D01*
X50300500Y-82440691D01*
X50300500Y-81246529D01*
X52949500Y-81246529D01*
X52949500Y-81453469D01*
X52989869Y-81656417D01*
X52989869Y-81656419D01*
X53069055Y-81847593D01*
X53069057Y-81847595D01*
X53069058Y-81847597D01*
X53069059Y-81847598D01*
X53184023Y-82019655D01*
X53330345Y-82165977D01*
X53502402Y-82280941D01*
X53693580Y-82360130D01*
X53896535Y-82400500D01*
X53896536Y-82400500D01*
X54103464Y-82400500D01*
X54103465Y-82400500D01*
X54306420Y-82360130D01*
X54497598Y-82280941D01*
X54669655Y-82165977D01*
X54815977Y-82019655D01*
X54930941Y-81847598D01*
X54933802Y-81840691D01*
X60449500Y-81840691D01*
X60449500Y-81846602D01*
X60449500Y-81959311D01*
X60465668Y-82019649D01*
X60465668Y-82019651D01*
X60465669Y-82019651D01*
X60480201Y-82073888D01*
X60480203Y-82073892D01*
X60518088Y-82139511D01*
X60539507Y-82176608D01*
X60539509Y-82176610D01*
X60539511Y-82176613D01*
X60623387Y-82260489D01*
X60623389Y-82260490D01*
X60623391Y-82260492D01*
X60623939Y-82260887D01*
X60625934Y-82261960D01*
X60723357Y-82318207D01*
X60723357Y-82318208D01*
X60726109Y-82319797D01*
X60726112Y-82319797D01*
X60726114Y-82319799D01*
X60840691Y-82350500D01*
X60840693Y-82350500D01*
X60959307Y-82350500D01*
X60959309Y-82350500D01*
X61073886Y-82319799D01*
X61073887Y-82319797D01*
X61073889Y-82319797D01*
X61073890Y-82319797D01*
X61170473Y-82264034D01*
X61173361Y-82262631D01*
X61174145Y-82262115D01*
X61179162Y-82259016D01*
X61180460Y-82258266D01*
X61185818Y-82251283D01*
X61260489Y-82176613D01*
X61281910Y-82139511D01*
X61281913Y-82139507D01*
X61297057Y-82113276D01*
X61319797Y-82073890D01*
X61319797Y-82073888D01*
X61319799Y-82073886D01*
X61350500Y-81959309D01*
X61350500Y-81840691D01*
X61319799Y-81726114D01*
X61319797Y-81726111D01*
X61319797Y-81726109D01*
X61319794Y-81726105D01*
X61319475Y-81725399D01*
X61318224Y-81723384D01*
X61260492Y-81623391D01*
X61260490Y-81623389D01*
X61260489Y-81623387D01*
X61176613Y-81539511D01*
X61176610Y-81539509D01*
X61176608Y-81539507D01*
X61131175Y-81513276D01*
X61110142Y-81489916D01*
X61060352Y-81476574D01*
X61060351Y-81476574D01*
X60959309Y-81449500D01*
X60959307Y-81449500D01*
X60840692Y-81449500D01*
X60840691Y-81449500D01*
X60805629Y-81458894D01*
X60770566Y-81468289D01*
X60770565Y-81468288D01*
X60726111Y-81480200D01*
X60726108Y-81480201D01*
X60623393Y-81539505D01*
X60539503Y-81623395D01*
X60480201Y-81726109D01*
X60479924Y-81726844D01*
X60479683Y-81727872D01*
X60479691Y-81727982D01*
X60479511Y-81728686D01*
X60449500Y-81840691D01*
X54933802Y-81840691D01*
X55010130Y-81656420D01*
X55050500Y-81453465D01*
X55050500Y-81246535D01*
X55010130Y-81043580D01*
X54930941Y-80852402D01*
X54815977Y-80680345D01*
X54669655Y-80534023D01*
X54669651Y-80534020D01*
X54669647Y-80534017D01*
X54497601Y-80419060D01*
X54497591Y-80419055D01*
X54435379Y-80393287D01*
X54306421Y-80339870D01*
X54306415Y-80339868D01*
X54147770Y-80308312D01*
X59887605Y-80308312D01*
X59887605Y-80426930D01*
X59891293Y-80440692D01*
X59894107Y-80451197D01*
X59894108Y-80451199D01*
X59918308Y-80541513D01*
X59928581Y-80559307D01*
X59977612Y-80644229D01*
X59977614Y-80644231D01*
X59977616Y-80644234D01*
X60061492Y-80728110D01*
X60061494Y-80728111D01*
X60061496Y-80728113D01*
X60062044Y-80728508D01*
X60064039Y-80729581D01*
X60161462Y-80785828D01*
X60161462Y-80785829D01*
X60164214Y-80787418D01*
X60164217Y-80787418D01*
X60164219Y-80787420D01*
X60278796Y-80818121D01*
X60278798Y-80818121D01*
X60397412Y-80818121D01*
X60397414Y-80818121D01*
X60511991Y-80787420D01*
X60520320Y-80782610D01*
X60549233Y-80771511D01*
X60562283Y-80768737D01*
X60623126Y-80775130D01*
X60626457Y-80776613D01*
X60633215Y-80779621D01*
X60662958Y-80800061D01*
X60723387Y-80860489D01*
X60723939Y-80860887D01*
X60725934Y-80861960D01*
X60823357Y-80918207D01*
X60823357Y-80918208D01*
X60826109Y-80919797D01*
X60826112Y-80919797D01*
X60826114Y-80919799D01*
X60940691Y-80950500D01*
X60940693Y-80950500D01*
X61059307Y-80950500D01*
X61059309Y-80950500D01*
X61173886Y-80919799D01*
X61173888Y-80919797D01*
X61173890Y-80919797D01*
X61270473Y-80864034D01*
X61273361Y-80862631D01*
X61274145Y-80862115D01*
X61279162Y-80859016D01*
X61280460Y-80858266D01*
X61285818Y-80851283D01*
X61360489Y-80776613D01*
X61368898Y-80762049D01*
X61388491Y-80728114D01*
X61404144Y-80701001D01*
X61419797Y-80673890D01*
X61419797Y-80673888D01*
X61419799Y-80673886D01*
X61450500Y-80559309D01*
X61450500Y-80440691D01*
X61419799Y-80326114D01*
X61419797Y-80326111D01*
X61419797Y-80326109D01*
X61419794Y-80326105D01*
X61419475Y-80325399D01*
X61418224Y-80323384D01*
X61360492Y-80223391D01*
X61360490Y-80223389D01*
X61360489Y-80223387D01*
X61276613Y-80139511D01*
X61276610Y-80139509D01*
X61276608Y-80139507D01*
X61231175Y-80113276D01*
X61210142Y-80089916D01*
X61160352Y-80076574D01*
X61160351Y-80076574D01*
X61059309Y-80049500D01*
X61059307Y-80049500D01*
X60940692Y-80049500D01*
X60940691Y-80049500D01*
X60912046Y-80057175D01*
X60883401Y-80064850D01*
X60883400Y-80064849D01*
X60826115Y-80080199D01*
X60826111Y-80080201D01*
X60817780Y-80085011D01*
X60788866Y-80096109D01*
X60775819Y-80098882D01*
X60714969Y-80092485D01*
X60714964Y-80092483D01*
X60704872Y-80087989D01*
X60675142Y-80067555D01*
X60614720Y-80007134D01*
X60614713Y-80007128D01*
X60614710Y-80007126D01*
X60569280Y-79980897D01*
X60548247Y-79957537D01*
X60498457Y-79944195D01*
X60498456Y-79944195D01*
X60397414Y-79917121D01*
X60397412Y-79917121D01*
X60278797Y-79917121D01*
X60278796Y-79917121D01*
X60243734Y-79926515D01*
X60208671Y-79935910D01*
X60208670Y-79935909D01*
X60164216Y-79947821D01*
X60164213Y-79947822D01*
X60061498Y-80007126D01*
X59977610Y-80091014D01*
X59918306Y-80193729D01*
X59918306Y-80193730D01*
X59901141Y-80257788D01*
X59901142Y-80257789D01*
X59887923Y-80307122D01*
X59887923Y-80307124D01*
X59887605Y-80308312D01*
X54147770Y-80308312D01*
X54103469Y-80299500D01*
X54103467Y-80299500D01*
X54103465Y-80299500D01*
X53896535Y-80299500D01*
X53896532Y-80299500D01*
X53896529Y-80299500D01*
X53693581Y-80339869D01*
X53693579Y-80339869D01*
X53502404Y-80419056D01*
X53330351Y-80534017D01*
X53184017Y-80680351D01*
X53069056Y-80852404D01*
X52989869Y-81043579D01*
X52989869Y-81043581D01*
X52949500Y-81246529D01*
X50300500Y-81246529D01*
X50300500Y-78706529D01*
X52949500Y-78706529D01*
X52949500Y-78913469D01*
X52989869Y-79116417D01*
X52989869Y-79116419D01*
X53069055Y-79307593D01*
X53069057Y-79307595D01*
X53069058Y-79307597D01*
X53069059Y-79307598D01*
X53184023Y-79479655D01*
X53330345Y-79625977D01*
X53502402Y-79740941D01*
X53693580Y-79820130D01*
X53896535Y-79860500D01*
X53896536Y-79860500D01*
X54103464Y-79860500D01*
X54103465Y-79860500D01*
X54306420Y-79820130D01*
X54497598Y-79740941D01*
X54669655Y-79625977D01*
X54815977Y-79479655D01*
X54930941Y-79307598D01*
X55010130Y-79116420D01*
X55050500Y-78913465D01*
X55050500Y-78706535D01*
X55010130Y-78503580D01*
X54930941Y-78312402D01*
X54815977Y-78140345D01*
X54669658Y-77994025D01*
X54669646Y-77994017D01*
X54668991Y-77993579D01*
X54497597Y-77879058D01*
X54497596Y-77879057D01*
X54497594Y-77879056D01*
X54306418Y-77799869D01*
X54103469Y-77759500D01*
X54103467Y-77759500D01*
X54103465Y-77759500D01*
X53896535Y-77759500D01*
X53896532Y-77759500D01*
X53896529Y-77759500D01*
X53693581Y-77799869D01*
X53693579Y-77799869D01*
X53502404Y-77879056D01*
X53330351Y-77994017D01*
X53184017Y-78140351D01*
X53069056Y-78312404D01*
X52989869Y-78503579D01*
X52989869Y-78503581D01*
X52949500Y-78706529D01*
X50300500Y-78706529D01*
X50300500Y-76166529D01*
X52949500Y-76166529D01*
X52949500Y-76373469D01*
X52970508Y-76479083D01*
X52978902Y-76521285D01*
X52989869Y-76576417D01*
X52989869Y-76576419D01*
X53069056Y-76767594D01*
X53069057Y-76767596D01*
X53069058Y-76767597D01*
X53141900Y-76876613D01*
X53184023Y-76939655D01*
X53330345Y-77085977D01*
X53502402Y-77200941D01*
X53693580Y-77280130D01*
X53896535Y-77320500D01*
X53896536Y-77320500D01*
X54103464Y-77320500D01*
X54103465Y-77320500D01*
X54306420Y-77280130D01*
X54497598Y-77200941D01*
X54669655Y-77085977D01*
X54815977Y-76939655D01*
X54930941Y-76767598D01*
X55010130Y-76576420D01*
X55017237Y-76540691D01*
X66649500Y-76540691D01*
X66649500Y-76659309D01*
X66676574Y-76760351D01*
X66680202Y-76773890D01*
X66739507Y-76876608D01*
X66739509Y-76876610D01*
X66739511Y-76876613D01*
X66823387Y-76960489D01*
X66823389Y-76960490D01*
X66823391Y-76960492D01*
X66823939Y-76960887D01*
X66825934Y-76961960D01*
X66923357Y-77018207D01*
X66923357Y-77018208D01*
X66926109Y-77019797D01*
X66926112Y-77019797D01*
X66926114Y-77019799D01*
X67040691Y-77050500D01*
X67040693Y-77050500D01*
X67159307Y-77050500D01*
X67159309Y-77050500D01*
X67273886Y-77019799D01*
X67273887Y-77019798D01*
X67273889Y-77019797D01*
X67273890Y-77019797D01*
X67370473Y-76964034D01*
X67373361Y-76962631D01*
X67374145Y-76962115D01*
X67379162Y-76959016D01*
X67380460Y-76958266D01*
X67385818Y-76951283D01*
X67460489Y-76876613D01*
X67462311Y-76873458D01*
X67519797Y-76773890D01*
X67519797Y-76773888D01*
X67519799Y-76773886D01*
X67550500Y-76659309D01*
X67550500Y-76540691D01*
X67519799Y-76426114D01*
X67519797Y-76426111D01*
X67519797Y-76426109D01*
X67519794Y-76426105D01*
X67519475Y-76425399D01*
X67518224Y-76423384D01*
X67460492Y-76323391D01*
X67460490Y-76323389D01*
X67460489Y-76323387D01*
X67376613Y-76239511D01*
X67376610Y-76239509D01*
X67376608Y-76239507D01*
X67331175Y-76213276D01*
X67310142Y-76189916D01*
X67260352Y-76176574D01*
X67260351Y-76176574D01*
X67159309Y-76149500D01*
X67159307Y-76149500D01*
X67040693Y-76149500D01*
X67040691Y-76149500D01*
X66977127Y-76166532D01*
X66926109Y-76180202D01*
X66926108Y-76180202D01*
X66926106Y-76180203D01*
X66823393Y-76239505D01*
X66739505Y-76323393D01*
X66680202Y-76426107D01*
X66675324Y-76444310D01*
X66675325Y-76444311D01*
X66649500Y-76540691D01*
X55017237Y-76540691D01*
X55050500Y-76373465D01*
X55050500Y-76166535D01*
X55050500Y-76166532D01*
X55010130Y-75963581D01*
X55010129Y-75963579D01*
X54930941Y-75772402D01*
X54815977Y-75600345D01*
X54669655Y-75454023D01*
X54669651Y-75454020D01*
X54497597Y-75339058D01*
X54497596Y-75339057D01*
X54497594Y-75339056D01*
X54306418Y-75259869D01*
X54103469Y-75219500D01*
X54103467Y-75219500D01*
X54103465Y-75219500D01*
X53896535Y-75219500D01*
X53896532Y-75219500D01*
X53896529Y-75219500D01*
X53693581Y-75259869D01*
X53693579Y-75259869D01*
X53502404Y-75339056D01*
X53330351Y-75454017D01*
X53184017Y-75600351D01*
X53069056Y-75772404D01*
X52989869Y-75963579D01*
X52989869Y-75963581D01*
X52949500Y-76166529D01*
X50300500Y-76166529D01*
X50300500Y-73626529D01*
X52949500Y-73626529D01*
X52949500Y-73833469D01*
X52950702Y-73839511D01*
X52987819Y-74026114D01*
X52989869Y-74036417D01*
X52989869Y-74036419D01*
X53069056Y-74227594D01*
X53069057Y-74227596D01*
X53069058Y-74227597D01*
X53166807Y-74373890D01*
X53184023Y-74399655D01*
X53330345Y-74545977D01*
X53502402Y-74660941D01*
X53693580Y-74740130D01*
X53896535Y-74780500D01*
X53896536Y-74780500D01*
X54103464Y-74780500D01*
X54103465Y-74780500D01*
X54306420Y-74740130D01*
X54497598Y-74660941D01*
X54669655Y-74545977D01*
X54815977Y-74399655D01*
X54930941Y-74227598D01*
X54966939Y-74140691D01*
X65749500Y-74140691D01*
X65749500Y-74259309D01*
X65776574Y-74360351D01*
X65780202Y-74373890D01*
X65839507Y-74476608D01*
X65839509Y-74476610D01*
X65839511Y-74476613D01*
X65923387Y-74560489D01*
X65923389Y-74560490D01*
X65923391Y-74560492D01*
X65923939Y-74560887D01*
X65925934Y-74561960D01*
X66023357Y-74618207D01*
X66023357Y-74618208D01*
X66026109Y-74619797D01*
X66026112Y-74619797D01*
X66026114Y-74619799D01*
X66140691Y-74650500D01*
X66140693Y-74650500D01*
X66259307Y-74650500D01*
X66259309Y-74650500D01*
X66373886Y-74619799D01*
X66373887Y-74619798D01*
X66373889Y-74619797D01*
X66373890Y-74619797D01*
X66470473Y-74564034D01*
X66473361Y-74562631D01*
X66474145Y-74562115D01*
X66479162Y-74559016D01*
X66480460Y-74558266D01*
X66485818Y-74551283D01*
X66560489Y-74476613D01*
X66604921Y-74399655D01*
X66619797Y-74373890D01*
X66619797Y-74373888D01*
X66619799Y-74373886D01*
X66650500Y-74259309D01*
X66650500Y-74140691D01*
X66619799Y-74026114D01*
X66619797Y-74026111D01*
X66619797Y-74026109D01*
X66619794Y-74026105D01*
X66619475Y-74025399D01*
X66618224Y-74023384D01*
X66560492Y-73923391D01*
X66560490Y-73923389D01*
X66560489Y-73923387D01*
X66476613Y-73839511D01*
X66476610Y-73839509D01*
X66476608Y-73839507D01*
X66431175Y-73813276D01*
X66410142Y-73789916D01*
X66360352Y-73776574D01*
X66360351Y-73776574D01*
X66259309Y-73749500D01*
X66259307Y-73749500D01*
X66140692Y-73749500D01*
X66140691Y-73749500D01*
X66105629Y-73758894D01*
X66070566Y-73768289D01*
X66070565Y-73768288D01*
X66026111Y-73780200D01*
X66026108Y-73780201D01*
X65923393Y-73839505D01*
X65839505Y-73923393D01*
X65780201Y-74026108D01*
X65777614Y-74035765D01*
X65777604Y-74035801D01*
X65777439Y-74036420D01*
X65749500Y-74140691D01*
X54966939Y-74140691D01*
X55010130Y-74036420D01*
X55050500Y-73833465D01*
X55050500Y-73626535D01*
X55010130Y-73423580D01*
X54930941Y-73232402D01*
X54815977Y-73060345D01*
X54669655Y-72914023D01*
X54669646Y-72914017D01*
X54538089Y-72826114D01*
X54538082Y-72826109D01*
X54497597Y-72799058D01*
X54497594Y-72799056D01*
X54497593Y-72799056D01*
X54306418Y-72719869D01*
X54103469Y-72679500D01*
X54103467Y-72679500D01*
X54103465Y-72679500D01*
X53896535Y-72679500D01*
X53896532Y-72679500D01*
X53896529Y-72679500D01*
X53693581Y-72719869D01*
X53693579Y-72719869D01*
X53502404Y-72799056D01*
X53330351Y-72914017D01*
X53184017Y-73060351D01*
X53069056Y-73232404D01*
X52989869Y-73423579D01*
X52989869Y-73423581D01*
X52949500Y-73626529D01*
X50300500Y-73626529D01*
X50300500Y-71086529D01*
X52949500Y-71086529D01*
X52949500Y-71293469D01*
X52965629Y-71374555D01*
X52980735Y-71450500D01*
X52989869Y-71496417D01*
X52989869Y-71496419D01*
X53069056Y-71687594D01*
X53170563Y-71839511D01*
X53184024Y-71859657D01*
X53294535Y-71970167D01*
X53330345Y-72005977D01*
X53502402Y-72120941D01*
X53693580Y-72200130D01*
X53896535Y-72240500D01*
X53896536Y-72240500D01*
X54103464Y-72240500D01*
X54103465Y-72240500D01*
X54306420Y-72200130D01*
X54449918Y-72140691D01*
X66749500Y-72140691D01*
X66749500Y-72259309D01*
X66775571Y-72356608D01*
X66780202Y-72373890D01*
X66839507Y-72476608D01*
X66839509Y-72476610D01*
X66839511Y-72476613D01*
X66923387Y-72560489D01*
X66923389Y-72560490D01*
X66923391Y-72560492D01*
X66923939Y-72560887D01*
X66925934Y-72561960D01*
X67023357Y-72618207D01*
X67023357Y-72618208D01*
X67026109Y-72619797D01*
X67026112Y-72619797D01*
X67026114Y-72619799D01*
X67140691Y-72650500D01*
X67140693Y-72650500D01*
X67259307Y-72650500D01*
X67259309Y-72650500D01*
X67373886Y-72619799D01*
X67373888Y-72619797D01*
X67373890Y-72619797D01*
X67470473Y-72564034D01*
X67473361Y-72562631D01*
X67474145Y-72562115D01*
X67479162Y-72559016D01*
X67480460Y-72558266D01*
X67485818Y-72551283D01*
X67560489Y-72476613D01*
X67581344Y-72440492D01*
X67619797Y-72373890D01*
X67619797Y-72373888D01*
X67619799Y-72373886D01*
X67650500Y-72259309D01*
X67650500Y-72140691D01*
X67623161Y-72038664D01*
X67622308Y-72032172D01*
X67622281Y-72032106D01*
X67620191Y-72025951D01*
X67617598Y-72020691D01*
X82449500Y-72020691D01*
X82449500Y-72139309D01*
X82449871Y-72140694D01*
X82465796Y-72200129D01*
X82480201Y-72253889D01*
X82480201Y-72253890D01*
X82533479Y-72346168D01*
X82539507Y-72356608D01*
X82539509Y-72356610D01*
X82539511Y-72356613D01*
X82623387Y-72440489D01*
X82623389Y-72440490D01*
X82623391Y-72440492D01*
X82623939Y-72440887D01*
X82625934Y-72441960D01*
X82723357Y-72498207D01*
X82723357Y-72498208D01*
X82726109Y-72499797D01*
X82726112Y-72499797D01*
X82726114Y-72499799D01*
X82840691Y-72530500D01*
X82840693Y-72530500D01*
X82959307Y-72530500D01*
X82959309Y-72530500D01*
X83073886Y-72499799D01*
X83073888Y-72499797D01*
X83073890Y-72499797D01*
X83170473Y-72444034D01*
X83173361Y-72442631D01*
X83174145Y-72442115D01*
X83179162Y-72439016D01*
X83180460Y-72438266D01*
X83185818Y-72431283D01*
X83260489Y-72356613D01*
X83260492Y-72356608D01*
X83319797Y-72253890D01*
X83319797Y-72253888D01*
X83319799Y-72253886D01*
X83350500Y-72139309D01*
X83350500Y-72020691D01*
X83319799Y-71906114D01*
X83319797Y-71906111D01*
X83319797Y-71906109D01*
X83319794Y-71906105D01*
X83319475Y-71905399D01*
X83318224Y-71903384D01*
X83260492Y-71803391D01*
X83260490Y-71803389D01*
X83260489Y-71803387D01*
X83176613Y-71719511D01*
X83176610Y-71719509D01*
X83176608Y-71719507D01*
X83131175Y-71693276D01*
X83110142Y-71669916D01*
X83060352Y-71656574D01*
X83060351Y-71656574D01*
X82959309Y-71629500D01*
X82959307Y-71629500D01*
X82840692Y-71629500D01*
X82840691Y-71629500D01*
X82805629Y-71638894D01*
X82770566Y-71648289D01*
X82770565Y-71648288D01*
X82726111Y-71660200D01*
X82726108Y-71660201D01*
X82623393Y-71719505D01*
X82539505Y-71803393D01*
X82480201Y-71906108D01*
X82480201Y-71906109D01*
X82463036Y-71970167D01*
X82463037Y-71970168D01*
X82453442Y-72005979D01*
X82449500Y-72020691D01*
X67617598Y-72020691D01*
X67617315Y-72020118D01*
X67617282Y-72020040D01*
X67613283Y-72014827D01*
X67560492Y-71923391D01*
X67560490Y-71923389D01*
X67560489Y-71923387D01*
X67476613Y-71839511D01*
X67476610Y-71839509D01*
X67476608Y-71839507D01*
X67431175Y-71813276D01*
X67410142Y-71789916D01*
X67360352Y-71776574D01*
X67360351Y-71776574D01*
X67259309Y-71749500D01*
X67259307Y-71749500D01*
X67140692Y-71749500D01*
X67140691Y-71749500D01*
X67105629Y-71758894D01*
X67070566Y-71768289D01*
X67070565Y-71768288D01*
X67026111Y-71780200D01*
X67026108Y-71780201D01*
X66923393Y-71839505D01*
X66839503Y-71923395D01*
X66780204Y-72026104D01*
X66780199Y-72026115D01*
X66776699Y-72039180D01*
X66776680Y-72039253D01*
X66776527Y-72039826D01*
X66749500Y-72140691D01*
X54449918Y-72140691D01*
X54497598Y-72120941D01*
X54669655Y-72005977D01*
X54815977Y-71859655D01*
X54930941Y-71687598D01*
X55010130Y-71496420D01*
X55050500Y-71293465D01*
X55050500Y-71240691D01*
X65849500Y-71240691D01*
X65849500Y-71359309D01*
X65873935Y-71450500D01*
X65880202Y-71473890D01*
X65939507Y-71576608D01*
X65939509Y-71576610D01*
X65939511Y-71576613D01*
X66023387Y-71660489D01*
X66023389Y-71660490D01*
X66023391Y-71660492D01*
X66023939Y-71660887D01*
X66025934Y-71661960D01*
X66123357Y-71718207D01*
X66123357Y-71718208D01*
X66126109Y-71719797D01*
X66126112Y-71719797D01*
X66126114Y-71719799D01*
X66240691Y-71750500D01*
X66240693Y-71750500D01*
X66359307Y-71750500D01*
X66359309Y-71750500D01*
X66473886Y-71719799D01*
X66473887Y-71719798D01*
X66473889Y-71719797D01*
X66473890Y-71719797D01*
X66570473Y-71664034D01*
X66573361Y-71662631D01*
X66574145Y-71662115D01*
X66579162Y-71659016D01*
X66580460Y-71658266D01*
X66585818Y-71651283D01*
X66660489Y-71576613D01*
X66660492Y-71576608D01*
X66719797Y-71473890D01*
X66719797Y-71473888D01*
X66719799Y-71473886D01*
X66750500Y-71359309D01*
X66750500Y-71240691D01*
X66719799Y-71126114D01*
X66719797Y-71126111D01*
X66719797Y-71126109D01*
X66719794Y-71126105D01*
X66719475Y-71125399D01*
X66718224Y-71123384D01*
X66660492Y-71023391D01*
X66660490Y-71023389D01*
X66660489Y-71023387D01*
X66576613Y-70939511D01*
X66576610Y-70939509D01*
X66576608Y-70939507D01*
X66531175Y-70913276D01*
X66510142Y-70889916D01*
X66460352Y-70876574D01*
X66460351Y-70876574D01*
X66359309Y-70849500D01*
X66359307Y-70849500D01*
X66240692Y-70849500D01*
X66240691Y-70849500D01*
X66205629Y-70858894D01*
X66170566Y-70868289D01*
X66170565Y-70868288D01*
X66126111Y-70880200D01*
X66126108Y-70880201D01*
X66023393Y-70939505D01*
X65939503Y-71023395D01*
X65880201Y-71126109D01*
X65879924Y-71126844D01*
X65879683Y-71127872D01*
X65879691Y-71127982D01*
X65879511Y-71128686D01*
X65849500Y-71240691D01*
X55050500Y-71240691D01*
X55050500Y-71086535D01*
X55010130Y-70883580D01*
X54930941Y-70692402D01*
X54829572Y-70540691D01*
X75349500Y-70540691D01*
X75349500Y-70546602D01*
X75349500Y-70659311D01*
X75360067Y-70698746D01*
X75360067Y-70698748D01*
X75360068Y-70698748D01*
X75380201Y-70773888D01*
X75380203Y-70773892D01*
X75410351Y-70826110D01*
X75439507Y-70876608D01*
X75439509Y-70876610D01*
X75439511Y-70876613D01*
X75523387Y-70960489D01*
X75523389Y-70960490D01*
X75523391Y-70960492D01*
X75523939Y-70960887D01*
X75525934Y-70961960D01*
X75623357Y-71018207D01*
X75623357Y-71018208D01*
X75626109Y-71019797D01*
X75626112Y-71019797D01*
X75626114Y-71019799D01*
X75740691Y-71050500D01*
X75740693Y-71050500D01*
X75859307Y-71050500D01*
X75859309Y-71050500D01*
X75973886Y-71019799D01*
X75973887Y-71019798D01*
X75973889Y-71019797D01*
X75973890Y-71019797D01*
X76070478Y-70964030D01*
X76073363Y-70962630D01*
X76074137Y-70962120D01*
X76079155Y-70959020D01*
X76098848Y-70947651D01*
X76103382Y-70945189D01*
X76105834Y-70943939D01*
X76166261Y-70934356D01*
X76171316Y-70935156D01*
X76215559Y-70957699D01*
X76216913Y-70955822D01*
X76222177Y-70959616D01*
X76222176Y-70959616D01*
X76223939Y-70960887D01*
X76225934Y-70961960D01*
X76323357Y-71018207D01*
X76323357Y-71018208D01*
X76326109Y-71019797D01*
X76326112Y-71019797D01*
X76326114Y-71019799D01*
X76440691Y-71050500D01*
X76440693Y-71050500D01*
X76559307Y-71050500D01*
X76559309Y-71050500D01*
X76673886Y-71019799D01*
X76673888Y-71019797D01*
X76673890Y-71019797D01*
X76770473Y-70964034D01*
X76773361Y-70962631D01*
X76774145Y-70962115D01*
X76779162Y-70959016D01*
X76780460Y-70958266D01*
X76785818Y-70951283D01*
X76860489Y-70876613D01*
X76860492Y-70876608D01*
X76889648Y-70826110D01*
X76904722Y-70799999D01*
X76919797Y-70773890D01*
X76919797Y-70773888D01*
X76919799Y-70773886D01*
X76950500Y-70659309D01*
X76950500Y-70540691D01*
X76919799Y-70426114D01*
X76919797Y-70426111D01*
X76919797Y-70426109D01*
X76919794Y-70426105D01*
X76919475Y-70425399D01*
X76918224Y-70423384D01*
X76860492Y-70323391D01*
X76860490Y-70323389D01*
X76860489Y-70323387D01*
X76776613Y-70239511D01*
X76776610Y-70239509D01*
X76776608Y-70239507D01*
X76731175Y-70213276D01*
X76710142Y-70189916D01*
X76660352Y-70176574D01*
X76660351Y-70176574D01*
X76559309Y-70149500D01*
X76559307Y-70149500D01*
X76440692Y-70149500D01*
X76440691Y-70149500D01*
X76405629Y-70158894D01*
X76370566Y-70168289D01*
X76370565Y-70168288D01*
X76326111Y-70180200D01*
X76326108Y-70180201D01*
X76223390Y-70239507D01*
X76223373Y-70239518D01*
X76223281Y-70239588D01*
X76223061Y-70239725D01*
X76220915Y-70241142D01*
X76220877Y-70241085D01*
X76208861Y-70248571D01*
X76194147Y-70256068D01*
X76133715Y-70265638D01*
X76129532Y-70264976D01*
X76128667Y-70264839D01*
X76080559Y-70240322D01*
X76079449Y-70241601D01*
X76079432Y-70241625D01*
X76079430Y-70241623D01*
X76079267Y-70241812D01*
X76076621Y-70239517D01*
X76076613Y-70239511D01*
X76076608Y-70239507D01*
X76076605Y-70239505D01*
X76076601Y-70239502D01*
X76031177Y-70213277D01*
X76010142Y-70189916D01*
X75960352Y-70176574D01*
X75960351Y-70176574D01*
X75859309Y-70149500D01*
X75859307Y-70149500D01*
X75740692Y-70149500D01*
X75740691Y-70149500D01*
X75705629Y-70158894D01*
X75670566Y-70168289D01*
X75670565Y-70168288D01*
X75626111Y-70180200D01*
X75626108Y-70180201D01*
X75523393Y-70239505D01*
X75439503Y-70323395D01*
X75380201Y-70426109D01*
X75379924Y-70426844D01*
X75379683Y-70427872D01*
X75379691Y-70427982D01*
X75379511Y-70428686D01*
X75349500Y-70540691D01*
X54829572Y-70540691D01*
X54815977Y-70520345D01*
X54669655Y-70374023D01*
X54669651Y-70374020D01*
X54497597Y-70259058D01*
X54497596Y-70259057D01*
X54497594Y-70259056D01*
X54306418Y-70179869D01*
X54103469Y-70139500D01*
X54103467Y-70139500D01*
X54103465Y-70139500D01*
X53896535Y-70139500D01*
X53896532Y-70139500D01*
X53896529Y-70139500D01*
X53693581Y-70179869D01*
X53693579Y-70179869D01*
X53502404Y-70259056D01*
X53330351Y-70374017D01*
X53184017Y-70520351D01*
X53069056Y-70692404D01*
X52989869Y-70883579D01*
X52989869Y-70883581D01*
X52949500Y-71086529D01*
X50300500Y-71086529D01*
X50300500Y-68546529D01*
X52949500Y-68546529D01*
X52949500Y-68753469D01*
X52989869Y-68956417D01*
X52989869Y-68956419D01*
X53069055Y-69147593D01*
X53069057Y-69147595D01*
X53069058Y-69147597D01*
X53069059Y-69147598D01*
X53184023Y-69319655D01*
X53330345Y-69465977D01*
X53502402Y-69580941D01*
X53693580Y-69660130D01*
X53896535Y-69700500D01*
X53896536Y-69700500D01*
X54103464Y-69700500D01*
X54103465Y-69700500D01*
X54306420Y-69660130D01*
X54497598Y-69580941D01*
X54669655Y-69465977D01*
X54815977Y-69319655D01*
X54930941Y-69147598D01*
X55010130Y-68956420D01*
X55050500Y-68753465D01*
X55050500Y-68546535D01*
X55010130Y-68343580D01*
X54930941Y-68152402D01*
X54815977Y-67980345D01*
X54669655Y-67834023D01*
X54669646Y-67834017D01*
X54653737Y-67823387D01*
X54497594Y-67719056D01*
X54306424Y-67639871D01*
X54306420Y-67639870D01*
X54306418Y-67639869D01*
X54263335Y-67631300D01*
X54259781Y-67630593D01*
X54103469Y-67599500D01*
X54103467Y-67599500D01*
X54103465Y-67599500D01*
X53896535Y-67599500D01*
X53896532Y-67599500D01*
X53896529Y-67599500D01*
X53693581Y-67639869D01*
X53693579Y-67639869D01*
X53502404Y-67719056D01*
X53330351Y-67834017D01*
X53184017Y-67980351D01*
X53069056Y-68152404D01*
X52989869Y-68343579D01*
X52989869Y-68343581D01*
X52949500Y-68546529D01*
X50300500Y-68546529D01*
X50300500Y-67540691D01*
X55949500Y-67540691D01*
X55949500Y-67659309D01*
X55970989Y-67739507D01*
X55970988Y-67739507D01*
X55980201Y-67773889D01*
X55980201Y-67773890D01*
X56039506Y-67876607D01*
X56039507Y-67876608D01*
X56039509Y-67876610D01*
X56039511Y-67876613D01*
X56123387Y-67960489D01*
X56123389Y-67960490D01*
X56123391Y-67960492D01*
X56123939Y-67960887D01*
X56125934Y-67961960D01*
X56223357Y-68018207D01*
X56223357Y-68018208D01*
X56226109Y-68019797D01*
X56226112Y-68019797D01*
X56226114Y-68019799D01*
X56340691Y-68050500D01*
X56340693Y-68050500D01*
X56459307Y-68050500D01*
X56459309Y-68050500D01*
X56573886Y-68019799D01*
X56573888Y-68019797D01*
X56573890Y-68019797D01*
X56670473Y-67964034D01*
X56673361Y-67962631D01*
X56674145Y-67962115D01*
X56679162Y-67959016D01*
X56680460Y-67958266D01*
X56685818Y-67951283D01*
X56760489Y-67876613D01*
X56760493Y-67876607D01*
X56774113Y-67853016D01*
X56791217Y-67823391D01*
X56819797Y-67773890D01*
X56819797Y-67773888D01*
X56819799Y-67773886D01*
X56850500Y-67659309D01*
X56850500Y-67540691D01*
X56819799Y-67426114D01*
X56819797Y-67426111D01*
X56819797Y-67426109D01*
X56819794Y-67426105D01*
X56819475Y-67425399D01*
X56818224Y-67423384D01*
X56760492Y-67323391D01*
X56760490Y-67323389D01*
X56760489Y-67323387D01*
X56676613Y-67239511D01*
X56676610Y-67239509D01*
X56676608Y-67239507D01*
X56631175Y-67213276D01*
X56610142Y-67189916D01*
X56560352Y-67176574D01*
X56560351Y-67176574D01*
X56459309Y-67149500D01*
X56459307Y-67149500D01*
X56340691Y-67149500D01*
X56304083Y-67159308D01*
X56304084Y-67159309D01*
X56226105Y-67180203D01*
X56123393Y-67239505D01*
X56039503Y-67323395D01*
X55980201Y-67426109D01*
X55979924Y-67426844D01*
X55979683Y-67427872D01*
X55979691Y-67427982D01*
X55979511Y-67428686D01*
X55949500Y-67540691D01*
X50300500Y-67540691D01*
X50300500Y-67040691D01*
X71449500Y-67040691D01*
X71449500Y-67159309D01*
X71470989Y-67239507D01*
X71470988Y-67239507D01*
X71480201Y-67273889D01*
X71480201Y-67273890D01*
X71529518Y-67359307D01*
X71539507Y-67376608D01*
X71539509Y-67376610D01*
X71539511Y-67376613D01*
X71623387Y-67460489D01*
X71623389Y-67460490D01*
X71623391Y-67460492D01*
X71623939Y-67460887D01*
X71625934Y-67461960D01*
X71723357Y-67518207D01*
X71723357Y-67518208D01*
X71726109Y-67519797D01*
X71726112Y-67519797D01*
X71726114Y-67519799D01*
X71840691Y-67550500D01*
X71840693Y-67550500D01*
X71959307Y-67550500D01*
X71959309Y-67550500D01*
X72073886Y-67519799D01*
X72073888Y-67519797D01*
X72073890Y-67519797D01*
X72170473Y-67464034D01*
X72173361Y-67462631D01*
X72174145Y-67462115D01*
X72179162Y-67459016D01*
X72180460Y-67458266D01*
X72185818Y-67451283D01*
X72260489Y-67376613D01*
X72260493Y-67376607D01*
X72291219Y-67323387D01*
X72319799Y-67273886D01*
X72328694Y-67240691D01*
X74249500Y-67240691D01*
X74249500Y-67359309D01*
X74276574Y-67460351D01*
X74280202Y-67473890D01*
X74339507Y-67576608D01*
X74339509Y-67576610D01*
X74339511Y-67576613D01*
X74423387Y-67660489D01*
X74423389Y-67660490D01*
X74423391Y-67660492D01*
X74423939Y-67660887D01*
X74425934Y-67661960D01*
X74523357Y-67718207D01*
X74523357Y-67718208D01*
X74526109Y-67719797D01*
X74526112Y-67719797D01*
X74526114Y-67719799D01*
X74640691Y-67750500D01*
X74640693Y-67750500D01*
X74694439Y-67750500D01*
X74725027Y-67755343D01*
X74735864Y-67758865D01*
X74785364Y-67794826D01*
X74804274Y-67853016D01*
X74804274Y-67857891D01*
X74791010Y-67907392D01*
X74780207Y-67926101D01*
X74780192Y-67926129D01*
X74780155Y-67926204D01*
X74779819Y-67927539D01*
X74768045Y-67971476D01*
X74755525Y-68018208D01*
X74749500Y-68040692D01*
X74749500Y-68159308D01*
X74769367Y-68233456D01*
X74780202Y-68273890D01*
X74820438Y-68343581D01*
X74839507Y-68376608D01*
X74839509Y-68376610D01*
X74839511Y-68376613D01*
X74923387Y-68460489D01*
X74923389Y-68460490D01*
X74923391Y-68460492D01*
X74923939Y-68460887D01*
X74925934Y-68461960D01*
X75023357Y-68518207D01*
X75023357Y-68518208D01*
X75026109Y-68519797D01*
X75026112Y-68519797D01*
X75026114Y-68519799D01*
X75140691Y-68550500D01*
X75140693Y-68550500D01*
X75259307Y-68550500D01*
X75259309Y-68550500D01*
X75373886Y-68519799D01*
X75373888Y-68519797D01*
X75373890Y-68519797D01*
X75476608Y-68460492D01*
X75476608Y-68460491D01*
X75476613Y-68460489D01*
X75560489Y-68376613D01*
X75560492Y-68376608D01*
X75619797Y-68273890D01*
X75619797Y-68273888D01*
X75619799Y-68273886D01*
X75650500Y-68159309D01*
X75650500Y-68040691D01*
X75619799Y-67926114D01*
X75619797Y-67926111D01*
X75619797Y-67926109D01*
X75619794Y-67926105D01*
X75619475Y-67925399D01*
X75618224Y-67923384D01*
X75560492Y-67823391D01*
X75560490Y-67823389D01*
X75560489Y-67823387D01*
X75476613Y-67739511D01*
X75476610Y-67739509D01*
X75476608Y-67739507D01*
X75431175Y-67713276D01*
X75410142Y-67689916D01*
X75360352Y-67676574D01*
X75360351Y-67676574D01*
X75259309Y-67649500D01*
X75259307Y-67649500D01*
X75205561Y-67649500D01*
X75174964Y-67644653D01*
X75164129Y-67641132D01*
X75114631Y-67605166D01*
X75112790Y-67599500D01*
X75095726Y-67546979D01*
X75095726Y-67542108D01*
X75108991Y-67492606D01*
X75113683Y-67484477D01*
X75119799Y-67473886D01*
X75150500Y-67359309D01*
X75150500Y-67240691D01*
X75119799Y-67126114D01*
X75119797Y-67126111D01*
X75119797Y-67126109D01*
X75119794Y-67126105D01*
X75119475Y-67125399D01*
X75118224Y-67123384D01*
X75060492Y-67023391D01*
X75060490Y-67023389D01*
X75060489Y-67023387D01*
X74976613Y-66939511D01*
X74976610Y-66939509D01*
X74976608Y-66939507D01*
X74931175Y-66913276D01*
X74910142Y-66889916D01*
X74860352Y-66876574D01*
X74860351Y-66876574D01*
X74759309Y-66849500D01*
X74759307Y-66849500D01*
X74640692Y-66849500D01*
X74640691Y-66849500D01*
X74605629Y-66858894D01*
X74570566Y-66868289D01*
X74570565Y-66868288D01*
X74526111Y-66880200D01*
X74526108Y-66880201D01*
X74423393Y-66939505D01*
X74339505Y-67023393D01*
X74280202Y-67126108D01*
X74271306Y-67159306D01*
X74271307Y-67159307D01*
X74249500Y-67240691D01*
X72328694Y-67240691D01*
X72329011Y-67239507D01*
X72337298Y-67208581D01*
X72337298Y-67208579D01*
X72344901Y-67180203D01*
X72350500Y-67159309D01*
X72350500Y-67040691D01*
X72319799Y-66926114D01*
X72319797Y-66926111D01*
X72319797Y-66926109D01*
X72319794Y-66926105D01*
X72319475Y-66925399D01*
X72318224Y-66923384D01*
X72260492Y-66823391D01*
X72260490Y-66823389D01*
X72260489Y-66823387D01*
X72176613Y-66739511D01*
X72176610Y-66739509D01*
X72176608Y-66739507D01*
X72131175Y-66713276D01*
X72110142Y-66689916D01*
X72060352Y-66676574D01*
X72060351Y-66676574D01*
X71959309Y-66649500D01*
X71959307Y-66649500D01*
X71840692Y-66649500D01*
X71840691Y-66649500D01*
X71830545Y-66652218D01*
X71782530Y-66665083D01*
X71782531Y-66665084D01*
X71726109Y-66680202D01*
X71726108Y-66680202D01*
X71726106Y-66680203D01*
X71623393Y-66739505D01*
X71539503Y-66823395D01*
X71480201Y-66926109D01*
X71479987Y-66926675D01*
X71479691Y-66927982D01*
X71479511Y-66928686D01*
X71449500Y-67040691D01*
X50300500Y-67040691D01*
X50300500Y-63940691D01*
X86549500Y-63940691D01*
X86549500Y-64059309D01*
X86570989Y-64139507D01*
X86570988Y-64139507D01*
X86580201Y-64173889D01*
X86580201Y-64173890D01*
X86639506Y-64276607D01*
X86639507Y-64276608D01*
X86639509Y-64276610D01*
X86639511Y-64276613D01*
X86723387Y-64360489D01*
X86723389Y-64360490D01*
X86723391Y-64360492D01*
X86723939Y-64360887D01*
X86725934Y-64361960D01*
X86823357Y-64418207D01*
X86823357Y-64418208D01*
X86826109Y-64419797D01*
X86826112Y-64419797D01*
X86826114Y-64419799D01*
X86940691Y-64450500D01*
X86940693Y-64450500D01*
X87059307Y-64450500D01*
X87059309Y-64450500D01*
X87173886Y-64419799D01*
X87173888Y-64419797D01*
X87173890Y-64419797D01*
X87270473Y-64364034D01*
X87273361Y-64362631D01*
X87274145Y-64362115D01*
X87279162Y-64359016D01*
X87280460Y-64358266D01*
X87285818Y-64351283D01*
X87360489Y-64276613D01*
X87360493Y-64276607D01*
X87364121Y-64270322D01*
X87391217Y-64223391D01*
X87419797Y-64173890D01*
X87419797Y-64173888D01*
X87419799Y-64173886D01*
X87450500Y-64059309D01*
X87450500Y-63940691D01*
X87419799Y-63826114D01*
X87419797Y-63826111D01*
X87419797Y-63826109D01*
X87419794Y-63826105D01*
X87419475Y-63825399D01*
X87418224Y-63823384D01*
X87360492Y-63723391D01*
X87360490Y-63723389D01*
X87360489Y-63723387D01*
X87276613Y-63639511D01*
X87276610Y-63639509D01*
X87276608Y-63639507D01*
X87231175Y-63613276D01*
X87210142Y-63589916D01*
X87160352Y-63576574D01*
X87160351Y-63576574D01*
X87059309Y-63549500D01*
X87059307Y-63549500D01*
X86940692Y-63549500D01*
X86940691Y-63549500D01*
X86905629Y-63558894D01*
X86870566Y-63568289D01*
X86870565Y-63568288D01*
X86826111Y-63580200D01*
X86826108Y-63580201D01*
X86723393Y-63639505D01*
X86639503Y-63723395D01*
X86580201Y-63826109D01*
X86579924Y-63826844D01*
X86579683Y-63827872D01*
X86579691Y-63827982D01*
X86579511Y-63828686D01*
X86549500Y-63940691D01*
X50300500Y-63940691D01*
X50300500Y-60940691D01*
X87049500Y-60940691D01*
X87049500Y-61059309D01*
X87076574Y-61160351D01*
X87080202Y-61173890D01*
X87139507Y-61276608D01*
X87139509Y-61276610D01*
X87139511Y-61276613D01*
X87223387Y-61360489D01*
X87223389Y-61360490D01*
X87223391Y-61360492D01*
X87223939Y-61360887D01*
X87225934Y-61361960D01*
X87323357Y-61418207D01*
X87323357Y-61418208D01*
X87326109Y-61419797D01*
X87326112Y-61419797D01*
X87326114Y-61419799D01*
X87440691Y-61450500D01*
X87440693Y-61450500D01*
X87559307Y-61450500D01*
X87559309Y-61450500D01*
X87673886Y-61419799D01*
X87673887Y-61419798D01*
X87673889Y-61419797D01*
X87673890Y-61419797D01*
X87770473Y-61364034D01*
X87773361Y-61362631D01*
X87774145Y-61362115D01*
X87779162Y-61359016D01*
X87780460Y-61358266D01*
X87785818Y-61351283D01*
X87860489Y-61276613D01*
X87919799Y-61173886D01*
X87950500Y-61059309D01*
X87950500Y-60940691D01*
X87919799Y-60826114D01*
X87919797Y-60826111D01*
X87919797Y-60826109D01*
X87919794Y-60826105D01*
X87919475Y-60825399D01*
X87918224Y-60823384D01*
X87860492Y-60723391D01*
X87860490Y-60723389D01*
X87860489Y-60723387D01*
X87776613Y-60639511D01*
X87776610Y-60639509D01*
X87776608Y-60639507D01*
X87731175Y-60613276D01*
X87710142Y-60589916D01*
X87660352Y-60576574D01*
X87660351Y-60576574D01*
X87559309Y-60549500D01*
X87559307Y-60549500D01*
X87440692Y-60549500D01*
X87440691Y-60549500D01*
X87405629Y-60558894D01*
X87370566Y-60568289D01*
X87370565Y-60568288D01*
X87326111Y-60580200D01*
X87326108Y-60580201D01*
X87223393Y-60639505D01*
X87139503Y-60723395D01*
X87080201Y-60826109D01*
X87079924Y-60826844D01*
X87079683Y-60827872D01*
X87079691Y-60827982D01*
X87079511Y-60828686D01*
X87049500Y-60940691D01*
X50300500Y-60940691D01*
X50300500Y-60040691D01*
X71849500Y-60040691D01*
X71849500Y-60159309D01*
X71876574Y-60260351D01*
X71880202Y-60273890D01*
X71939507Y-60376608D01*
X71939509Y-60376610D01*
X71939511Y-60376613D01*
X72023387Y-60460489D01*
X72023389Y-60460490D01*
X72023391Y-60460492D01*
X72023939Y-60460887D01*
X72025934Y-60461960D01*
X72123357Y-60518207D01*
X72123357Y-60518208D01*
X72126109Y-60519797D01*
X72126112Y-60519797D01*
X72126114Y-60519799D01*
X72240691Y-60550500D01*
X72240693Y-60550500D01*
X72359307Y-60550500D01*
X72359309Y-60550500D01*
X72473886Y-60519799D01*
X72473887Y-60519798D01*
X72473889Y-60519797D01*
X72473890Y-60519797D01*
X72570473Y-60464034D01*
X72573361Y-60462631D01*
X72574145Y-60462115D01*
X72579162Y-60459016D01*
X72580460Y-60458266D01*
X72585818Y-60451283D01*
X72660489Y-60376613D01*
X72682441Y-60338591D01*
X72719797Y-60273890D01*
X72719797Y-60273888D01*
X72719799Y-60273886D01*
X72750500Y-60159309D01*
X72750500Y-60040691D01*
X72719799Y-59926114D01*
X72719797Y-59926111D01*
X72719797Y-59926109D01*
X72719794Y-59926105D01*
X72719475Y-59925399D01*
X72718224Y-59923384D01*
X72660492Y-59823391D01*
X72660490Y-59823389D01*
X72660489Y-59823387D01*
X72576613Y-59739511D01*
X72576610Y-59739509D01*
X72576608Y-59739507D01*
X72531175Y-59713276D01*
X72510142Y-59689916D01*
X72460352Y-59676574D01*
X72460351Y-59676574D01*
X72359309Y-59649500D01*
X72359307Y-59649500D01*
X72240692Y-59649500D01*
X72240691Y-59649500D01*
X72205629Y-59658894D01*
X72170566Y-59668289D01*
X72170565Y-59668288D01*
X72126111Y-59680200D01*
X72126108Y-59680201D01*
X72023393Y-59739505D01*
X71939503Y-59823395D01*
X71880201Y-59926109D01*
X71879924Y-59926844D01*
X71879683Y-59927872D01*
X71879691Y-59927982D01*
X71879511Y-59928686D01*
X71849500Y-60040691D01*
X50300500Y-60040691D01*
X50300500Y-58940691D01*
X87049500Y-58940691D01*
X87049500Y-58946602D01*
X87049500Y-59059308D01*
X87059221Y-59095591D01*
X87080201Y-59173889D01*
X87080201Y-59173890D01*
X87137955Y-59273920D01*
X87139507Y-59276608D01*
X87139509Y-59276610D01*
X87139511Y-59276613D01*
X87223387Y-59360489D01*
X87223389Y-59360490D01*
X87223391Y-59360492D01*
X87223939Y-59360887D01*
X87225934Y-59361960D01*
X87323357Y-59418207D01*
X87323357Y-59418208D01*
X87326109Y-59419797D01*
X87326112Y-59419797D01*
X87326114Y-59419799D01*
X87440691Y-59450500D01*
X87440693Y-59450500D01*
X87559307Y-59450500D01*
X87559309Y-59450500D01*
X87673886Y-59419799D01*
X87673888Y-59419797D01*
X87673890Y-59419797D01*
X87770473Y-59364034D01*
X87773361Y-59362631D01*
X87774145Y-59362115D01*
X87779162Y-59359016D01*
X87780460Y-59358266D01*
X87785818Y-59351283D01*
X87860489Y-59276613D01*
X87860492Y-59276608D01*
X87919797Y-59173890D01*
X87919797Y-59173888D01*
X87919799Y-59173886D01*
X87932609Y-59126078D01*
X96949500Y-59126078D01*
X96949500Y-59273920D01*
X96978341Y-59418912D01*
X97034915Y-59555493D01*
X97034915Y-59555494D01*
X97034916Y-59555495D01*
X97117049Y-59678416D01*
X97221584Y-59782951D01*
X97344505Y-59865084D01*
X97481087Y-59921658D01*
X97626082Y-59950500D01*
X97626083Y-59950500D01*
X97773917Y-59950500D01*
X97773918Y-59950500D01*
X97918913Y-59921658D01*
X98055495Y-59865084D01*
X98178416Y-59782951D01*
X98282951Y-59678416D01*
X98365084Y-59555495D01*
X98421658Y-59418913D01*
X98450500Y-59273918D01*
X98450500Y-59126082D01*
X98421658Y-58981087D01*
X98365084Y-58844505D01*
X98282951Y-58721584D01*
X98178416Y-58617049D01*
X98055495Y-58534916D01*
X98055493Y-58534915D01*
X97918914Y-58478342D01*
X97918912Y-58478341D01*
X97773920Y-58449500D01*
X97773918Y-58449500D01*
X97626082Y-58449500D01*
X97626081Y-58449500D01*
X97626078Y-58449500D01*
X97481085Y-58478342D01*
X97481083Y-58478342D01*
X97344510Y-58534912D01*
X97344498Y-58534918D01*
X97221586Y-58617047D01*
X97117047Y-58721586D01*
X97034918Y-58844498D01*
X97034912Y-58844510D01*
X96978342Y-58981083D01*
X96978342Y-58981085D01*
X96949500Y-59126078D01*
X87932609Y-59126078D01*
X87950500Y-59059309D01*
X87950500Y-58940691D01*
X87919799Y-58826114D01*
X87919797Y-58826111D01*
X87919797Y-58826109D01*
X87919794Y-58826105D01*
X87919475Y-58825399D01*
X87918224Y-58823384D01*
X87860492Y-58723391D01*
X87860490Y-58723389D01*
X87860489Y-58723387D01*
X87776613Y-58639511D01*
X87776610Y-58639509D01*
X87776608Y-58639507D01*
X87731175Y-58613276D01*
X87710142Y-58589916D01*
X87660352Y-58576574D01*
X87660351Y-58576574D01*
X87559309Y-58549500D01*
X87559307Y-58549500D01*
X87440692Y-58549500D01*
X87440691Y-58549500D01*
X87405629Y-58558894D01*
X87370566Y-58568289D01*
X87370565Y-58568288D01*
X87326111Y-58580200D01*
X87326108Y-58580201D01*
X87223393Y-58639505D01*
X87139503Y-58723395D01*
X87080201Y-58826109D01*
X87079924Y-58826844D01*
X87079683Y-58827872D01*
X87079691Y-58827982D01*
X87079511Y-58828686D01*
X87049500Y-58940691D01*
X50300500Y-58940691D01*
X50300500Y-54003634D01*
X50300529Y-54001234D01*
X50300530Y-54001193D01*
X50300590Y-53998758D01*
X50300675Y-53996429D01*
X50308778Y-53831492D01*
X50999500Y-53831492D01*
X50999500Y-54168506D01*
X51037231Y-54503391D01*
X51112224Y-54831960D01*
X51223529Y-55150047D01*
X51223570Y-55150145D01*
X51223847Y-55150708D01*
X51352668Y-55418208D01*
X51369746Y-55453671D01*
X51369752Y-55453683D01*
X51369754Y-55453686D01*
X51369755Y-55453688D01*
X51369756Y-55453691D01*
X51549058Y-55739045D01*
X51549060Y-55739049D01*
X51549065Y-55739055D01*
X51759153Y-56002498D01*
X51759163Y-56002510D01*
X51759165Y-56002512D01*
X51759171Y-56002518D01*
X51759175Y-56002523D01*
X51997477Y-56240825D01*
X51997481Y-56240828D01*
X51997484Y-56240831D01*
X51997783Y-56241090D01*
X51998598Y-56241721D01*
X52260955Y-56450943D01*
X52264643Y-56453259D01*
X52546314Y-56630246D01*
X52546316Y-56630247D01*
X52546328Y-56630253D01*
X52647205Y-56678832D01*
X52849949Y-56776469D01*
X52998440Y-56828428D01*
X53160172Y-56885021D01*
X53165258Y-56887297D01*
X53165287Y-56887305D01*
X53165289Y-56887306D01*
X53170716Y-56888385D01*
X53496606Y-56962767D01*
X53831496Y-57000500D01*
X53831497Y-57000500D01*
X54168503Y-57000500D01*
X54168504Y-57000500D01*
X54503394Y-56962767D01*
X54831954Y-56887776D01*
X55150051Y-56776469D01*
X55453686Y-56630246D01*
X55739039Y-56450946D01*
X55867019Y-56348885D01*
X56002512Y-56240834D01*
X56002515Y-56240831D01*
X56002523Y-56240825D01*
X56240825Y-56002523D01*
X56450946Y-55739039D01*
X56630246Y-55453686D01*
X56776469Y-55150051D01*
X56776470Y-55150047D01*
X56776471Y-55150047D01*
X56843032Y-54959826D01*
X56843032Y-54959825D01*
X56849728Y-54940691D01*
X63349500Y-54940691D01*
X63349500Y-55059308D01*
X63373813Y-55150047D01*
X63380202Y-55173891D01*
X63439506Y-55276607D01*
X63439507Y-55276608D01*
X63439509Y-55276610D01*
X63439511Y-55276613D01*
X63523387Y-55360489D01*
X63523389Y-55360490D01*
X63523391Y-55360492D01*
X63523939Y-55360887D01*
X63525934Y-55361960D01*
X63623357Y-55418207D01*
X63623357Y-55418208D01*
X63626109Y-55419797D01*
X63626112Y-55419797D01*
X63626114Y-55419799D01*
X63740691Y-55450500D01*
X63740693Y-55450500D01*
X63859307Y-55450500D01*
X63859309Y-55450500D01*
X63973886Y-55419799D01*
X63973888Y-55419797D01*
X63973890Y-55419797D01*
X64070473Y-55364034D01*
X64073361Y-55362631D01*
X64074145Y-55362115D01*
X64079162Y-55359016D01*
X64080460Y-55358266D01*
X64085818Y-55351283D01*
X64160489Y-55276613D01*
X64162058Y-55273894D01*
X64162061Y-55273891D01*
X64181306Y-55240556D01*
X64219797Y-55173890D01*
X64219797Y-55173888D01*
X64219799Y-55173886D01*
X64250500Y-55059309D01*
X64250500Y-55040691D01*
X72049500Y-55040691D01*
X72049500Y-55159309D01*
X72053406Y-55173886D01*
X72080202Y-55273890D01*
X72080203Y-55273893D01*
X72130202Y-55360492D01*
X72139507Y-55376608D01*
X72139509Y-55376610D01*
X72139511Y-55376613D01*
X72223387Y-55460489D01*
X72223389Y-55460490D01*
X72223391Y-55460492D01*
X72223939Y-55460887D01*
X72225934Y-55461960D01*
X72323357Y-55518207D01*
X72323357Y-55518208D01*
X72326109Y-55519797D01*
X72326112Y-55519797D01*
X72326114Y-55519799D01*
X72440691Y-55550500D01*
X72440693Y-55550500D01*
X72559307Y-55550500D01*
X72559309Y-55550500D01*
X72673886Y-55519799D01*
X72673888Y-55519797D01*
X72673890Y-55519797D01*
X72770473Y-55464034D01*
X72773361Y-55462631D01*
X72774145Y-55462115D01*
X72779162Y-55459016D01*
X72780460Y-55458266D01*
X72785818Y-55451283D01*
X72860489Y-55376613D01*
X72860493Y-55376607D01*
X72918223Y-55276616D01*
X72918225Y-55276613D01*
X72919797Y-55273890D01*
X72919797Y-55273888D01*
X72919799Y-55273886D01*
X72950500Y-55159309D01*
X72950500Y-55040691D01*
X72923705Y-54940691D01*
X85649500Y-54940691D01*
X85649500Y-55059308D01*
X85673813Y-55150047D01*
X85680202Y-55173891D01*
X85739506Y-55276607D01*
X85739507Y-55276608D01*
X85739509Y-55276610D01*
X85739511Y-55276613D01*
X85823387Y-55360489D01*
X85823389Y-55360490D01*
X85823391Y-55360492D01*
X85823939Y-55360887D01*
X85825934Y-55361960D01*
X85923357Y-55418207D01*
X85923357Y-55418208D01*
X85926109Y-55419797D01*
X85926112Y-55419797D01*
X85926114Y-55419799D01*
X86040691Y-55450500D01*
X86040693Y-55450500D01*
X86159307Y-55450500D01*
X86159309Y-55450500D01*
X86273886Y-55419799D01*
X86273888Y-55419797D01*
X86273890Y-55419797D01*
X86370473Y-55364034D01*
X86373361Y-55362631D01*
X86374145Y-55362115D01*
X86379162Y-55359016D01*
X86380460Y-55358266D01*
X86385818Y-55351283D01*
X86460489Y-55276613D01*
X86462058Y-55273894D01*
X86462061Y-55273891D01*
X86481306Y-55240556D01*
X86519797Y-55173890D01*
X86519797Y-55173888D01*
X86519799Y-55173886D01*
X86550500Y-55059309D01*
X86550500Y-54940691D01*
X86519799Y-54826114D01*
X86519797Y-54826111D01*
X86519797Y-54826109D01*
X86519794Y-54826105D01*
X86519475Y-54825399D01*
X86518224Y-54823384D01*
X86460492Y-54723391D01*
X86460490Y-54723389D01*
X86460489Y-54723387D01*
X86376613Y-54639511D01*
X86376610Y-54639509D01*
X86376608Y-54639507D01*
X86331175Y-54613276D01*
X86310142Y-54589916D01*
X86260352Y-54576574D01*
X86260351Y-54576574D01*
X86159309Y-54549500D01*
X86159307Y-54549500D01*
X86040692Y-54549500D01*
X86040691Y-54549500D01*
X86005629Y-54558894D01*
X85970566Y-54568289D01*
X85970565Y-54568288D01*
X85926111Y-54580200D01*
X85926108Y-54580201D01*
X85823393Y-54639505D01*
X85739503Y-54723395D01*
X85680201Y-54826109D01*
X85679924Y-54826844D01*
X85679377Y-54829185D01*
X85649500Y-54940691D01*
X72923705Y-54940691D01*
X72919799Y-54926114D01*
X72919796Y-54926109D01*
X72861956Y-54825927D01*
X72860885Y-54823937D01*
X72860492Y-54823391D01*
X72860490Y-54823389D01*
X72860489Y-54823387D01*
X72776613Y-54739511D01*
X72776610Y-54739509D01*
X72776608Y-54739507D01*
X72731175Y-54713276D01*
X72710142Y-54689916D01*
X72660352Y-54676574D01*
X72660351Y-54676574D01*
X72559309Y-54649500D01*
X72559307Y-54649500D01*
X72440692Y-54649500D01*
X72440691Y-54649500D01*
X72405629Y-54658894D01*
X72370566Y-54668289D01*
X72370565Y-54668288D01*
X72326111Y-54680200D01*
X72326108Y-54680201D01*
X72223393Y-54739505D01*
X72139503Y-54823395D01*
X72080201Y-54926109D01*
X72079924Y-54926844D01*
X72079683Y-54927872D01*
X72079691Y-54927982D01*
X72079511Y-54928686D01*
X72049500Y-55040691D01*
X64250500Y-55040691D01*
X64250500Y-54940691D01*
X64219799Y-54826114D01*
X64219797Y-54826111D01*
X64219797Y-54826109D01*
X64219794Y-54826105D01*
X64219475Y-54825399D01*
X64218224Y-54823384D01*
X64160492Y-54723391D01*
X64160490Y-54723389D01*
X64160489Y-54723387D01*
X64076613Y-54639511D01*
X64076610Y-54639509D01*
X64076608Y-54639507D01*
X64031175Y-54613276D01*
X64010142Y-54589916D01*
X63960352Y-54576574D01*
X63960351Y-54576574D01*
X63859309Y-54549500D01*
X63859307Y-54549500D01*
X63740692Y-54549500D01*
X63740691Y-54549500D01*
X63705629Y-54558894D01*
X63670566Y-54568289D01*
X63670565Y-54568288D01*
X63626111Y-54580200D01*
X63626108Y-54580201D01*
X63523393Y-54639505D01*
X63439503Y-54723395D01*
X63380201Y-54826109D01*
X63379924Y-54826844D01*
X63379377Y-54829185D01*
X63349500Y-54940691D01*
X56849728Y-54940691D01*
X56863441Y-54901503D01*
X56875159Y-54868009D01*
X56887775Y-54831957D01*
X56908876Y-54739507D01*
X56962767Y-54503394D01*
X57000500Y-54168504D01*
X57000500Y-53831496D01*
X57000500Y-53831492D01*
X92999500Y-53831492D01*
X92999500Y-54168506D01*
X93037231Y-54503391D01*
X93112224Y-54831960D01*
X93223529Y-55150047D01*
X93223570Y-55150145D01*
X93223847Y-55150708D01*
X93352668Y-55418208D01*
X93369746Y-55453671D01*
X93369752Y-55453683D01*
X93369754Y-55453686D01*
X93369755Y-55453688D01*
X93369756Y-55453691D01*
X93549058Y-55739045D01*
X93549060Y-55739049D01*
X93549065Y-55739055D01*
X93759153Y-56002498D01*
X93759163Y-56002510D01*
X93759165Y-56002512D01*
X93759171Y-56002518D01*
X93759175Y-56002523D01*
X93997477Y-56240825D01*
X93997481Y-56240828D01*
X93997484Y-56240831D01*
X93997783Y-56241090D01*
X93998598Y-56241721D01*
X94260955Y-56450943D01*
X94264643Y-56453259D01*
X94546314Y-56630246D01*
X94546316Y-56630247D01*
X94546328Y-56630253D01*
X94647205Y-56678832D01*
X94849949Y-56776469D01*
X94998440Y-56828428D01*
X95160172Y-56885021D01*
X95165258Y-56887297D01*
X95165287Y-56887305D01*
X95165289Y-56887306D01*
X95170716Y-56888385D01*
X95496606Y-56962767D01*
X95831496Y-57000500D01*
X95831497Y-57000500D01*
X96168503Y-57000500D01*
X96168504Y-57000500D01*
X96503394Y-56962767D01*
X96831954Y-56887776D01*
X97150051Y-56776469D01*
X97453686Y-56630246D01*
X97739039Y-56450946D01*
X97867019Y-56348885D01*
X98002512Y-56240834D01*
X98002515Y-56240831D01*
X98002523Y-56240825D01*
X98240825Y-56002523D01*
X98450946Y-55739039D01*
X98630246Y-55453686D01*
X98776469Y-55150051D01*
X98776470Y-55150049D01*
X98776471Y-55150047D01*
X98887775Y-54831957D01*
X98887775Y-54831956D01*
X98887776Y-54831954D01*
X98962767Y-54503394D01*
X99000500Y-54168504D01*
X99000500Y-53831496D01*
X98962767Y-53496606D01*
X98887776Y-53168046D01*
X98887773Y-53168038D01*
X98776470Y-52849952D01*
X98776468Y-52849948D01*
X98678832Y-52647205D01*
X98630253Y-52546328D01*
X98630247Y-52546316D01*
X98630243Y-52546309D01*
X98630242Y-52546307D01*
X98527360Y-52382574D01*
X98450943Y-52260957D01*
X98450941Y-52260954D01*
X98450939Y-52260952D01*
X98450938Y-52260949D01*
X98450933Y-52260943D01*
X98241721Y-51998598D01*
X98241721Y-51998599D01*
X98240834Y-51997487D01*
X98240828Y-51997481D01*
X98240825Y-51997477D01*
X98002523Y-51759175D01*
X98002518Y-51759171D01*
X98002512Y-51759165D01*
X98002508Y-51759162D01*
X98002498Y-51759153D01*
X97739048Y-51549060D01*
X97739045Y-51549058D01*
X97735136Y-51546602D01*
X97702530Y-51526114D01*
X97453691Y-51369756D01*
X97453688Y-51369755D01*
X97453686Y-51369754D01*
X97453683Y-51369752D01*
X97453671Y-51369746D01*
X97453634Y-51369728D01*
X97150708Y-51223847D01*
X97150145Y-51223570D01*
X97150049Y-51223530D01*
X96831960Y-51112224D01*
X96503391Y-51037231D01*
X96168506Y-50999500D01*
X96168505Y-50999500D01*
X96168504Y-50999500D01*
X95831496Y-50999500D01*
X95831494Y-50999500D01*
X95831492Y-50999500D01*
X95496607Y-51037231D01*
X95168038Y-51112224D01*
X94849949Y-51223530D01*
X94849853Y-51223570D01*
X94849290Y-51223847D01*
X94546364Y-51369728D01*
X94546310Y-51369755D01*
X94546307Y-51369756D01*
X94297469Y-51526114D01*
X94264863Y-51546602D01*
X94260954Y-51549058D01*
X94260951Y-51549060D01*
X93997497Y-51759155D01*
X93759155Y-51997497D01*
X93549065Y-52260943D01*
X93549060Y-52260949D01*
X93549058Y-52260953D01*
X93369756Y-52546307D01*
X93369755Y-52546310D01*
X93369728Y-52546364D01*
X93223847Y-52849290D01*
X93223570Y-52849853D01*
X93223530Y-52849949D01*
X93112224Y-53168038D01*
X93037231Y-53496607D01*
X92999500Y-53831492D01*
X57000500Y-53831492D01*
X56962767Y-53496606D01*
X56887776Y-53168046D01*
X56887773Y-53168038D01*
X56776470Y-52849952D01*
X56776468Y-52849948D01*
X56678832Y-52647205D01*
X56630253Y-52546328D01*
X56630247Y-52546316D01*
X56630243Y-52546309D01*
X56630242Y-52546307D01*
X56527360Y-52382574D01*
X56450943Y-52260957D01*
X56450941Y-52260954D01*
X56450939Y-52260952D01*
X56450938Y-52260949D01*
X56450933Y-52260943D01*
X56241721Y-51998598D01*
X56241721Y-51998599D01*
X56240834Y-51997487D01*
X56240828Y-51997481D01*
X56240825Y-51997477D01*
X56002523Y-51759175D01*
X56002518Y-51759171D01*
X56002512Y-51759165D01*
X56002509Y-51759162D01*
X55932574Y-51703392D01*
X55817474Y-51611603D01*
X55778259Y-51580330D01*
X55739046Y-51549058D01*
X55725730Y-51540691D01*
X72049500Y-51540691D01*
X72049500Y-51659309D01*
X72069088Y-51732413D01*
X72076258Y-51759172D01*
X72080202Y-51773891D01*
X72139506Y-51876607D01*
X72139507Y-51876608D01*
X72139509Y-51876610D01*
X72139511Y-51876613D01*
X72223387Y-51960489D01*
X72223389Y-51960490D01*
X72223391Y-51960492D01*
X72223939Y-51960887D01*
X72225934Y-51961960D01*
X72323357Y-52018207D01*
X72323357Y-52018208D01*
X72326109Y-52019797D01*
X72326112Y-52019797D01*
X72326114Y-52019799D01*
X72440691Y-52050500D01*
X72440693Y-52050500D01*
X72559307Y-52050500D01*
X72559309Y-52050500D01*
X72673886Y-52019799D01*
X72673888Y-52019797D01*
X72673890Y-52019797D01*
X72770473Y-51964034D01*
X72773361Y-51962631D01*
X72774145Y-51962115D01*
X72779162Y-51959016D01*
X72780460Y-51958266D01*
X72785818Y-51951283D01*
X72860489Y-51876613D01*
X72862058Y-51873894D01*
X72862061Y-51873891D01*
X72881306Y-51840556D01*
X72919797Y-51773890D01*
X72919797Y-51773888D01*
X72919799Y-51773886D01*
X72950500Y-51659309D01*
X72950500Y-51540691D01*
X74549500Y-51540691D01*
X74549500Y-51659309D01*
X74569088Y-51732413D01*
X74576258Y-51759172D01*
X74580202Y-51773891D01*
X74639506Y-51876607D01*
X74639507Y-51876608D01*
X74639509Y-51876610D01*
X74639511Y-51876613D01*
X74723387Y-51960489D01*
X74723389Y-51960490D01*
X74723391Y-51960492D01*
X74723939Y-51960887D01*
X74725934Y-51961960D01*
X74823357Y-52018207D01*
X74823357Y-52018208D01*
X74826109Y-52019797D01*
X74826112Y-52019797D01*
X74826114Y-52019799D01*
X74940691Y-52050500D01*
X74940693Y-52050500D01*
X75059307Y-52050500D01*
X75059309Y-52050500D01*
X75173886Y-52019799D01*
X75173888Y-52019797D01*
X75173890Y-52019797D01*
X75270473Y-51964034D01*
X75273361Y-51962631D01*
X75274145Y-51962115D01*
X75279162Y-51959016D01*
X75280460Y-51958266D01*
X75285818Y-51951283D01*
X75360489Y-51876613D01*
X75362058Y-51873894D01*
X75362061Y-51873891D01*
X75381306Y-51840556D01*
X75419797Y-51773890D01*
X75419797Y-51773888D01*
X75419799Y-51773886D01*
X75450500Y-51659309D01*
X75450500Y-51540691D01*
X75749500Y-51540691D01*
X75749500Y-51659309D01*
X75769088Y-51732413D01*
X75776258Y-51759172D01*
X75780202Y-51773891D01*
X75839506Y-51876607D01*
X75839507Y-51876608D01*
X75839509Y-51876610D01*
X75839511Y-51876613D01*
X75923387Y-51960489D01*
X75923389Y-51960490D01*
X75923391Y-51960492D01*
X75923939Y-51960887D01*
X75925934Y-51961960D01*
X76023357Y-52018207D01*
X76023357Y-52018208D01*
X76026109Y-52019797D01*
X76026112Y-52019797D01*
X76026114Y-52019799D01*
X76140691Y-52050500D01*
X76140693Y-52050500D01*
X76259307Y-52050500D01*
X76259309Y-52050500D01*
X76373886Y-52019799D01*
X76373888Y-52019797D01*
X76373890Y-52019797D01*
X76470473Y-51964034D01*
X76473361Y-51962631D01*
X76474145Y-51962115D01*
X76479162Y-51959016D01*
X76480460Y-51958266D01*
X76485818Y-51951283D01*
X76560489Y-51876613D01*
X76562058Y-51873894D01*
X76562061Y-51873891D01*
X76581306Y-51840556D01*
X76619797Y-51773890D01*
X76619797Y-51773888D01*
X76619799Y-51773886D01*
X76650500Y-51659309D01*
X76650500Y-51640691D01*
X81749500Y-51640691D01*
X81749500Y-51759309D01*
X81753406Y-51773886D01*
X81780201Y-51873888D01*
X81780203Y-51873893D01*
X81830202Y-51960492D01*
X81839507Y-51976608D01*
X81839509Y-51976610D01*
X81839511Y-51976613D01*
X81923387Y-52060489D01*
X81923389Y-52060490D01*
X81923391Y-52060492D01*
X81923939Y-52060887D01*
X81925934Y-52061960D01*
X82023357Y-52118207D01*
X82023357Y-52118208D01*
X82026109Y-52119797D01*
X82026112Y-52119797D01*
X82026114Y-52119799D01*
X82140691Y-52150500D01*
X82140693Y-52150500D01*
X82259307Y-52150500D01*
X82259309Y-52150500D01*
X82373886Y-52119799D01*
X82373888Y-52119797D01*
X82373890Y-52119797D01*
X82470473Y-52064034D01*
X82473361Y-52062631D01*
X82474145Y-52062115D01*
X82479162Y-52059016D01*
X82480460Y-52058266D01*
X82485818Y-52051283D01*
X82560489Y-51976613D01*
X82560493Y-51976607D01*
X82618223Y-51876616D01*
X82618225Y-51876613D01*
X82619797Y-51873890D01*
X82619797Y-51873888D01*
X82619799Y-51873886D01*
X82650500Y-51759309D01*
X82650500Y-51640691D01*
X87349500Y-51640691D01*
X87349500Y-51759309D01*
X87353406Y-51773886D01*
X87380201Y-51873888D01*
X87380203Y-51873893D01*
X87430202Y-51960492D01*
X87439507Y-51976608D01*
X87439509Y-51976610D01*
X87439511Y-51976613D01*
X87523387Y-52060489D01*
X87523389Y-52060490D01*
X87523391Y-52060492D01*
X87523939Y-52060887D01*
X87525934Y-52061960D01*
X87623357Y-52118207D01*
X87623357Y-52118208D01*
X87626109Y-52119797D01*
X87626112Y-52119797D01*
X87626114Y-52119799D01*
X87740691Y-52150500D01*
X87740693Y-52150500D01*
X87859307Y-52150500D01*
X87859309Y-52150500D01*
X87973886Y-52119799D01*
X87973888Y-52119797D01*
X87973890Y-52119797D01*
X88070473Y-52064034D01*
X88073361Y-52062631D01*
X88074145Y-52062115D01*
X88079162Y-52059016D01*
X88080460Y-52058266D01*
X88085818Y-52051283D01*
X88160489Y-51976613D01*
X88160493Y-51976607D01*
X88218223Y-51876616D01*
X88218225Y-51876613D01*
X88219797Y-51873890D01*
X88219797Y-51873888D01*
X88219799Y-51873886D01*
X88250500Y-51759309D01*
X88250500Y-51640691D01*
X88219799Y-51526114D01*
X88219797Y-51526111D01*
X88219797Y-51526109D01*
X88219794Y-51526105D01*
X88219475Y-51525399D01*
X88218224Y-51523384D01*
X88161707Y-51425496D01*
X88160492Y-51423391D01*
X88160490Y-51423389D01*
X88160489Y-51423387D01*
X88076613Y-51339511D01*
X88076610Y-51339509D01*
X88076608Y-51339507D01*
X88031175Y-51313276D01*
X88010142Y-51289916D01*
X87960352Y-51276574D01*
X87960351Y-51276574D01*
X87859309Y-51249500D01*
X87859307Y-51249500D01*
X87740692Y-51249500D01*
X87740691Y-51249500D01*
X87705629Y-51258894D01*
X87670566Y-51268289D01*
X87670565Y-51268288D01*
X87626111Y-51280200D01*
X87626108Y-51280201D01*
X87523393Y-51339505D01*
X87439505Y-51423393D01*
X87380202Y-51526107D01*
X87374052Y-51549057D01*
X87374053Y-51549058D01*
X87349500Y-51640691D01*
X82650500Y-51640691D01*
X82619799Y-51526114D01*
X82619797Y-51526111D01*
X82619797Y-51526109D01*
X82619608Y-51525781D01*
X82619535Y-51525496D01*
X82618224Y-51523384D01*
X82561707Y-51425496D01*
X82560492Y-51423391D01*
X82560490Y-51423389D01*
X82560489Y-51423387D01*
X82476613Y-51339511D01*
X82476610Y-51339509D01*
X82476608Y-51339507D01*
X82431175Y-51313276D01*
X82410142Y-51289916D01*
X82360352Y-51276574D01*
X82360351Y-51276574D01*
X82259309Y-51249500D01*
X82259307Y-51249500D01*
X82140692Y-51249500D01*
X82140691Y-51249500D01*
X82105629Y-51258894D01*
X82070566Y-51268289D01*
X82070565Y-51268288D01*
X82026111Y-51280200D01*
X82026108Y-51280201D01*
X81923393Y-51339505D01*
X81839505Y-51423393D01*
X81780202Y-51526107D01*
X81774052Y-51549057D01*
X81774053Y-51549058D01*
X81749500Y-51640691D01*
X76650500Y-51640691D01*
X76650500Y-51540691D01*
X76619799Y-51426114D01*
X76619797Y-51426111D01*
X76619797Y-51426109D01*
X76619794Y-51426105D01*
X76619475Y-51425399D01*
X76618224Y-51423384D01*
X76560492Y-51323391D01*
X76560490Y-51323389D01*
X76560489Y-51323387D01*
X76476613Y-51239511D01*
X76476610Y-51239509D01*
X76476608Y-51239507D01*
X76431175Y-51213276D01*
X76410142Y-51189916D01*
X76360352Y-51176574D01*
X76360351Y-51176574D01*
X76259309Y-51149500D01*
X76259307Y-51149500D01*
X76140692Y-51149500D01*
X76140691Y-51149500D01*
X76105629Y-51158894D01*
X76070566Y-51168289D01*
X76070565Y-51168288D01*
X76026111Y-51180200D01*
X76026108Y-51180201D01*
X75923393Y-51239505D01*
X75839503Y-51323395D01*
X75780201Y-51426109D01*
X75779924Y-51426844D01*
X75779377Y-51429185D01*
X75753408Y-51526107D01*
X75749500Y-51540691D01*
X75450500Y-51540691D01*
X75419799Y-51426114D01*
X75419797Y-51426111D01*
X75419797Y-51426109D01*
X75419794Y-51426105D01*
X75419475Y-51425399D01*
X75418224Y-51423384D01*
X75360492Y-51323391D01*
X75360490Y-51323389D01*
X75360489Y-51323387D01*
X75276613Y-51239511D01*
X75276610Y-51239509D01*
X75276608Y-51239507D01*
X75231175Y-51213276D01*
X75210142Y-51189916D01*
X75160352Y-51176574D01*
X75160351Y-51176574D01*
X75059309Y-51149500D01*
X75059307Y-51149500D01*
X74940692Y-51149500D01*
X74940691Y-51149500D01*
X74905629Y-51158894D01*
X74870566Y-51168289D01*
X74870565Y-51168288D01*
X74826111Y-51180200D01*
X74826108Y-51180201D01*
X74723393Y-51239505D01*
X74639503Y-51323395D01*
X74580201Y-51426109D01*
X74579924Y-51426844D01*
X74579377Y-51429185D01*
X74553408Y-51526107D01*
X74549500Y-51540691D01*
X72950500Y-51540691D01*
X72919799Y-51426114D01*
X72919797Y-51426111D01*
X72919797Y-51426109D01*
X72919608Y-51425781D01*
X72919535Y-51425496D01*
X72918224Y-51423384D01*
X72860492Y-51323391D01*
X72860490Y-51323389D01*
X72860489Y-51323387D01*
X72776613Y-51239511D01*
X72776610Y-51239509D01*
X72776608Y-51239507D01*
X72731175Y-51213276D01*
X72710142Y-51189916D01*
X72660352Y-51176574D01*
X72660351Y-51176574D01*
X72559309Y-51149500D01*
X72559307Y-51149500D01*
X72440692Y-51149500D01*
X72440691Y-51149500D01*
X72405629Y-51158894D01*
X72370566Y-51168289D01*
X72370565Y-51168288D01*
X72326111Y-51180200D01*
X72326108Y-51180201D01*
X72223393Y-51239505D01*
X72139503Y-51323395D01*
X72080201Y-51426109D01*
X72079924Y-51426844D01*
X72079683Y-51427872D01*
X72079691Y-51427982D01*
X72079511Y-51428686D01*
X72049500Y-51540691D01*
X55725730Y-51540691D01*
X55453691Y-51369756D01*
X55453688Y-51369755D01*
X55453686Y-51369754D01*
X55453683Y-51369752D01*
X55453671Y-51369746D01*
X55453634Y-51369728D01*
X55150708Y-51223847D01*
X55150145Y-51223570D01*
X55150049Y-51223530D01*
X54831960Y-51112224D01*
X54503391Y-51037231D01*
X54168506Y-50999500D01*
X54168505Y-50999500D01*
X54168504Y-50999500D01*
X53831496Y-50999500D01*
X53831494Y-50999500D01*
X53831492Y-50999500D01*
X53496607Y-51037231D01*
X53168038Y-51112224D01*
X52849949Y-51223530D01*
X52849853Y-51223570D01*
X52849290Y-51223847D01*
X52546364Y-51369728D01*
X52546310Y-51369755D01*
X52546307Y-51369756D01*
X52297469Y-51526114D01*
X52264863Y-51546602D01*
X52260954Y-51549058D01*
X52260951Y-51549060D01*
X51997497Y-51759155D01*
X51759155Y-51997497D01*
X51549065Y-52260943D01*
X51549060Y-52260949D01*
X51549058Y-52260953D01*
X51369756Y-52546307D01*
X51369755Y-52546310D01*
X51369728Y-52546364D01*
X51223847Y-52849290D01*
X51223570Y-52849853D01*
X51223530Y-52849949D01*
X51112224Y-53168038D01*
X51037231Y-53496607D01*
X50999500Y-53831492D01*
X50308778Y-53831492D01*
X50317957Y-53644637D01*
X50318313Y-53639812D01*
X50318792Y-53634949D01*
X50319373Y-53630241D01*
X50370527Y-53285384D01*
X50371335Y-53280730D01*
X50372295Y-53275905D01*
X50373342Y-53271243D01*
X50458039Y-52933115D01*
X50459313Y-52928511D01*
X50460739Y-52923808D01*
X50462231Y-52919294D01*
X50579662Y-52591095D01*
X50581403Y-52586585D01*
X50583248Y-52582130D01*
X50585208Y-52577704D01*
X50734239Y-52262606D01*
X50736401Y-52258311D01*
X50738685Y-52254038D01*
X50741060Y-52249846D01*
X50920243Y-51950896D01*
X50922826Y-51946819D01*
X50922830Y-51946814D01*
X50925525Y-51942778D01*
X50928307Y-51938829D01*
X51135919Y-51658898D01*
X51138897Y-51655082D01*
X51141969Y-51651339D01*
X51145122Y-51647683D01*
X51379181Y-51389439D01*
X51382501Y-51385952D01*
X51385961Y-51382491D01*
X51389439Y-51379181D01*
X51647683Y-51145122D01*
X51651327Y-51141978D01*
X51655088Y-51138892D01*
X51658898Y-51135919D01*
X51938829Y-50928307D01*
X51942781Y-50925524D01*
X51946819Y-50922826D01*
X51950896Y-50920243D01*
X52249846Y-50741060D01*
X52254038Y-50738685D01*
X52258311Y-50736401D01*
X52262606Y-50734239D01*
X52577704Y-50585208D01*
X52582115Y-50583254D01*
X52586598Y-50581398D01*
X52591095Y-50579662D01*
X52919294Y-50462231D01*
X52923808Y-50460739D01*
X52928517Y-50459310D01*
X52933115Y-50458039D01*
X53271243Y-50373342D01*
X53275905Y-50372295D01*
X53280730Y-50371335D01*
X53285384Y-50370527D01*
X53630241Y-50319373D01*
X53634949Y-50318792D01*
X53639830Y-50318311D01*
X53644637Y-50317957D01*
X53968962Y-50302024D01*
X53996443Y-50300674D01*
X53998763Y-50300589D01*
X54001258Y-50300528D01*
X54003637Y-50300500D01*
X95996363Y-50300500D01*
X95998740Y-50300528D01*
G37*
%TD.AperFunction*%
%TD*%
%TA.AperFunction,Conductor*%
%TO.N,+5V*%
G36*
X96314793Y-60513263D02*
G01*
X96326114Y-60519799D01*
X96440691Y-60550500D01*
X96440693Y-60550500D01*
X96559307Y-60550500D01*
X96559309Y-60550500D01*
X96673886Y-60519799D01*
X96685207Y-60513263D01*
X96734706Y-60500000D01*
X99600500Y-60500000D01*
X99658691Y-60518907D01*
X99694655Y-60568407D01*
X99699500Y-60599000D01*
X99699500Y-75901000D01*
X99680593Y-75959191D01*
X99631093Y-75995155D01*
X99600500Y-76000000D01*
X94124500Y-76000000D01*
X94066309Y-75981093D01*
X94030345Y-75931593D01*
X94025500Y-75901000D01*
X94025500Y-75828396D01*
X94025499Y-75828391D01*
X94001463Y-75707549D01*
X93954311Y-75593714D01*
X93885858Y-75491267D01*
X93798733Y-75404142D01*
X93696286Y-75335689D01*
X93696287Y-75335689D01*
X93696285Y-75335688D01*
X93582450Y-75288536D01*
X93461608Y-75264500D01*
X93461606Y-75264500D01*
X93338394Y-75264500D01*
X93338391Y-75264500D01*
X93217549Y-75288536D01*
X93103714Y-75335688D01*
X93001267Y-75404142D01*
X93001263Y-75404145D01*
X92914145Y-75491263D01*
X92914142Y-75491267D01*
X92845688Y-75593714D01*
X92798536Y-75707549D01*
X92774500Y-75828391D01*
X92774500Y-75901000D01*
X92755593Y-75959191D01*
X92706093Y-75995155D01*
X92675500Y-76000000D01*
X91244500Y-76000000D01*
X91186309Y-75981093D01*
X91150345Y-75931593D01*
X91145500Y-75901000D01*
X91145500Y-75845692D01*
X91145500Y-75845691D01*
X91114799Y-75731114D01*
X91114797Y-75731111D01*
X91114797Y-75731109D01*
X91055492Y-75628391D01*
X91055490Y-75628389D01*
X91055489Y-75628387D01*
X90971613Y-75544511D01*
X90971610Y-75544509D01*
X90971608Y-75544507D01*
X90868889Y-75485202D01*
X90868890Y-75485202D01*
X90855351Y-75481574D01*
X90754309Y-75454500D01*
X90635691Y-75454500D01*
X90565567Y-75473289D01*
X90521109Y-75485202D01*
X90418391Y-75544507D01*
X90334507Y-75628391D01*
X90275202Y-75731109D01*
X90244500Y-75845692D01*
X90244500Y-75901000D01*
X90225593Y-75959191D01*
X90176093Y-75995155D01*
X90145500Y-76000000D01*
X87599000Y-76000000D01*
X87540809Y-75981093D01*
X87504845Y-75931593D01*
X87500000Y-75901000D01*
X87500000Y-71599000D01*
X87518907Y-71540809D01*
X87568407Y-71504845D01*
X87599000Y-71500000D01*
X89999999Y-71500000D01*
X90000000Y-71500000D01*
X90000000Y-69854064D01*
X90018907Y-69795873D01*
X90068407Y-69759909D01*
X90129593Y-69759909D01*
X90179093Y-69795873D01*
X90194625Y-69828438D01*
X90217318Y-69913129D01*
X90220202Y-69923890D01*
X90279507Y-70026608D01*
X90279509Y-70026610D01*
X90279511Y-70026613D01*
X90363387Y-70110489D01*
X90363389Y-70110490D01*
X90363391Y-70110492D01*
X90466110Y-70169797D01*
X90466111Y-70169797D01*
X90466114Y-70169799D01*
X90580691Y-70200500D01*
X90580693Y-70200500D01*
X90699307Y-70200500D01*
X90699309Y-70200500D01*
X90813886Y-70169799D01*
X90813888Y-70169797D01*
X90813890Y-70169797D01*
X90916608Y-70110492D01*
X90916608Y-70110491D01*
X90916613Y-70110489D01*
X91000489Y-70026613D01*
X91059799Y-69923886D01*
X91090500Y-69809309D01*
X91090500Y-69690691D01*
X91059799Y-69576114D01*
X91059797Y-69576111D01*
X91059797Y-69576109D01*
X91000492Y-69473391D01*
X91000490Y-69473389D01*
X91000489Y-69473387D01*
X90916613Y-69389511D01*
X90916610Y-69389509D01*
X90916608Y-69389507D01*
X90813889Y-69330202D01*
X90813890Y-69330202D01*
X90800351Y-69326574D01*
X90699309Y-69299500D01*
X90580691Y-69299500D01*
X90510567Y-69318289D01*
X90466109Y-69330202D01*
X90363391Y-69389507D01*
X90279507Y-69473391D01*
X90220202Y-69576109D01*
X90220201Y-69576114D01*
X90201493Y-69645935D01*
X90194627Y-69671558D01*
X90161302Y-69722873D01*
X90104181Y-69744799D01*
X90045080Y-69728963D01*
X90006575Y-69681413D01*
X90000000Y-69645935D01*
X90000000Y-68611004D01*
X91619500Y-68611004D01*
X91619500Y-68748995D01*
X91646420Y-68884327D01*
X91646420Y-68884329D01*
X91699222Y-69011806D01*
X91699228Y-69011817D01*
X91775885Y-69126541D01*
X91873458Y-69224114D01*
X91988182Y-69300771D01*
X91988193Y-69300777D01*
X92035283Y-69320282D01*
X92115672Y-69353580D01*
X92251007Y-69380500D01*
X92251008Y-69380500D01*
X93039544Y-69380500D01*
X93097735Y-69399407D01*
X93133699Y-69448907D01*
X93133699Y-69510093D01*
X93097735Y-69559593D01*
X93094550Y-69561811D01*
X93073146Y-69576114D01*
X93001267Y-69624142D01*
X93001263Y-69624145D01*
X92914145Y-69711263D01*
X92914142Y-69711267D01*
X92845688Y-69813714D01*
X92798536Y-69927549D01*
X92774500Y-70048391D01*
X92774500Y-70171608D01*
X92798536Y-70292450D01*
X92845688Y-70406285D01*
X92845689Y-70406286D01*
X92914142Y-70508733D01*
X93001267Y-70595858D01*
X93103714Y-70664311D01*
X93217548Y-70711463D01*
X93338394Y-70735500D01*
X93338396Y-70735500D01*
X93461604Y-70735500D01*
X93461606Y-70735500D01*
X93582452Y-70711463D01*
X93696286Y-70664311D01*
X93798733Y-70595858D01*
X93885858Y-70508733D01*
X93954311Y-70406286D01*
X94001463Y-70292452D01*
X94025500Y-70171606D01*
X94025500Y-70048394D01*
X94001463Y-69927548D01*
X93954311Y-69813714D01*
X93885858Y-69711267D01*
X93798733Y-69624142D01*
X93726847Y-69576109D01*
X93696285Y-69555688D01*
X93637153Y-69531195D01*
X93590627Y-69491458D01*
X93576344Y-69431963D01*
X93599759Y-69375435D01*
X93637152Y-69348267D01*
X93751811Y-69300775D01*
X93866542Y-69224114D01*
X93964114Y-69126542D01*
X94040775Y-69011811D01*
X94093580Y-68884328D01*
X94120500Y-68748993D01*
X94120500Y-68611007D01*
X94120499Y-68611004D01*
X96049500Y-68611004D01*
X96049500Y-68748995D01*
X96076420Y-68884327D01*
X96076420Y-68884329D01*
X96129222Y-69011806D01*
X96129228Y-69011817D01*
X96205885Y-69126541D01*
X96303458Y-69224114D01*
X96418182Y-69300771D01*
X96418193Y-69300777D01*
X96465283Y-69320282D01*
X96545672Y-69353580D01*
X96681007Y-69380500D01*
X96681008Y-69380500D01*
X97418992Y-69380500D01*
X97418993Y-69380500D01*
X97554328Y-69353580D01*
X97681811Y-69300775D01*
X97796542Y-69224114D01*
X97894114Y-69126542D01*
X97970775Y-69011811D01*
X98023580Y-68884328D01*
X98050500Y-68748993D01*
X98050500Y-68611007D01*
X98023580Y-68475672D01*
X97970775Y-68348189D01*
X97970774Y-68348187D01*
X97970771Y-68348182D01*
X97894114Y-68233458D01*
X97796541Y-68135885D01*
X97681817Y-68059228D01*
X97681806Y-68059222D01*
X97554328Y-68006420D01*
X97418995Y-67979500D01*
X97418993Y-67979500D01*
X96681007Y-67979500D01*
X96681004Y-67979500D01*
X96545672Y-68006420D01*
X96545670Y-68006420D01*
X96418193Y-68059222D01*
X96418182Y-68059228D01*
X96303458Y-68135885D01*
X96205885Y-68233458D01*
X96129228Y-68348182D01*
X96129222Y-68348193D01*
X96076420Y-68475670D01*
X96076420Y-68475672D01*
X96049500Y-68611004D01*
X94120499Y-68611004D01*
X94093580Y-68475672D01*
X94040775Y-68348189D01*
X94040774Y-68348187D01*
X94040771Y-68348182D01*
X93964114Y-68233458D01*
X93866541Y-68135885D01*
X93751817Y-68059228D01*
X93751806Y-68059222D01*
X93624328Y-68006420D01*
X93488995Y-67979500D01*
X93488993Y-67979500D01*
X92251007Y-67979500D01*
X92251004Y-67979500D01*
X92115672Y-68006420D01*
X92115670Y-68006420D01*
X91988193Y-68059222D01*
X91988182Y-68059228D01*
X91873458Y-68135885D01*
X91775885Y-68233458D01*
X91699228Y-68348182D01*
X91699222Y-68348193D01*
X91646420Y-68475670D01*
X91646420Y-68475672D01*
X91619500Y-68611004D01*
X90000000Y-68611004D01*
X90000000Y-65926082D01*
X96949500Y-65926082D01*
X96949500Y-66073918D01*
X96978342Y-66218913D01*
X97034916Y-66355495D01*
X97117049Y-66478416D01*
X97221584Y-66582951D01*
X97344505Y-66665084D01*
X97481087Y-66721658D01*
X97626082Y-66750500D01*
X97626083Y-66750500D01*
X97773917Y-66750500D01*
X97773918Y-66750500D01*
X97918913Y-66721658D01*
X98055495Y-66665084D01*
X98178416Y-66582951D01*
X98282951Y-66478416D01*
X98365084Y-66355495D01*
X98421658Y-66218913D01*
X98450500Y-66073918D01*
X98450500Y-65926082D01*
X98421658Y-65781087D01*
X98365084Y-65644505D01*
X98282951Y-65521584D01*
X98178416Y-65417049D01*
X98055495Y-65334916D01*
X98055493Y-65334915D01*
X97918914Y-65278342D01*
X97773918Y-65249500D01*
X97626082Y-65249500D01*
X97626081Y-65249500D01*
X97481085Y-65278342D01*
X97344506Y-65334915D01*
X97221585Y-65417048D01*
X97117048Y-65521585D01*
X97034915Y-65644506D01*
X96978342Y-65781085D01*
X96954728Y-65899799D01*
X96949500Y-65926082D01*
X90000000Y-65926082D01*
X90000000Y-64440691D01*
X91149500Y-64440691D01*
X91149500Y-64559309D01*
X91176574Y-64660351D01*
X91180202Y-64673890D01*
X91239507Y-64776608D01*
X91239509Y-64776610D01*
X91239511Y-64776613D01*
X91323387Y-64860489D01*
X91323389Y-64860490D01*
X91323391Y-64860492D01*
X91426110Y-64919797D01*
X91426111Y-64919797D01*
X91426114Y-64919799D01*
X91540691Y-64950500D01*
X91540693Y-64950500D01*
X91659307Y-64950500D01*
X91659309Y-64950500D01*
X91773886Y-64919799D01*
X91773888Y-64919797D01*
X91773890Y-64919797D01*
X91876608Y-64860492D01*
X91876608Y-64860491D01*
X91876613Y-64860489D01*
X91960489Y-64776613D01*
X92019799Y-64673886D01*
X92050500Y-64559309D01*
X92050500Y-64440691D01*
X92019799Y-64326114D01*
X92019797Y-64326111D01*
X92019797Y-64326109D01*
X91960492Y-64223391D01*
X91960490Y-64223389D01*
X91960489Y-64223387D01*
X91876613Y-64139511D01*
X91876610Y-64139509D01*
X91876608Y-64139507D01*
X91773889Y-64080202D01*
X91773890Y-64080202D01*
X91760351Y-64076574D01*
X91659309Y-64049500D01*
X91540691Y-64049500D01*
X91504084Y-64059309D01*
X91426109Y-64080202D01*
X91323391Y-64139507D01*
X91239507Y-64223391D01*
X91180202Y-64326109D01*
X91180201Y-64326114D01*
X91149500Y-64440691D01*
X90000000Y-64440691D01*
X90000000Y-60599000D01*
X90018907Y-60540809D01*
X90068407Y-60504845D01*
X90099000Y-60500000D01*
X96265294Y-60500000D01*
X96314793Y-60513263D01*
G37*
%TD.AperFunction*%
%TD*%
M02*
