%TF.GenerationSoftware,KiCad,Pcbnew,10.0.1-10.0.1~ubuntu24.04.1*%
%TF.CreationDate,2026-05-08T08:47:12+02:00*%
%TF.ProjectId,SOS_Schematic,534f535f-5363-4686-956d-617469632e6b,rev?*%
%TF.SameCoordinates,Original*%
%TF.FileFunction,Copper,L1,Top*%
%TF.FilePolarity,Positive*%
%FSLAX46Y46*%
G04 Gerber Fmt 4.6, Leading zero omitted, Abs format (unit mm)*
G04 Created by KiCad (PCBNEW 10.0.1-10.0.1~ubuntu24.04.1) date 2026-05-08 08:47:12*
%MOMM*%
%LPD*%
G01*
G04 APERTURE LIST*
G04 Aperture macros list*
%AMRoundRect*
0 Rectangle with rounded corners*
0 $1 Rounding radius*
0 $2 $3 $4 $5 $6 $7 $8 $9 X,Y pos of 4 corners*
0 Add a 4 corners polygon primitive as box body*
4,1,4,$2,$3,$4,$5,$6,$7,$8,$9,$2,$3,0*
0 Add four circle primitives for the rounded corners*
1,1,$1+$1,$2,$3*
1,1,$1+$1,$4,$5*
1,1,$1+$1,$6,$7*
1,1,$1+$1,$8,$9*
0 Add four rect primitives between the rounded corners*
20,1,$1+$1,$2,$3,$4,$5,0*
20,1,$1+$1,$4,$5,$6,$7,0*
20,1,$1+$1,$6,$7,$8,$9,0*
20,1,$1+$1,$8,$9,$2,$3,0*%
G04 Aperture macros list end*
%TA.AperFunction,SMDPad,CuDef*%
%ADD10RoundRect,0.250000X1.000000X-0.375000X1.000000X0.375000X-1.000000X0.375000X-1.000000X-0.375000X0*%
%TD*%
%TA.AperFunction,SMDPad,CuDef*%
%ADD11RoundRect,0.140000X-0.140000X-0.170000X0.140000X-0.170000X0.140000X0.170000X-0.140000X0.170000X0*%
%TD*%
%TA.AperFunction,SMDPad,CuDef*%
%ADD12RoundRect,0.140000X0.170000X-0.140000X0.170000X0.140000X-0.170000X0.140000X-0.170000X-0.140000X0*%
%TD*%
%TA.AperFunction,SMDPad,CuDef*%
%ADD13RoundRect,0.140000X-0.170000X0.140000X-0.170000X-0.140000X0.170000X-0.140000X0.170000X0.140000X0*%
%TD*%
%TA.AperFunction,SMDPad,CuDef*%
%ADD14RoundRect,0.075000X-0.075000X-0.700000X0.075000X-0.700000X0.075000X0.700000X-0.075000X0.700000X0*%
%TD*%
%TA.AperFunction,SMDPad,CuDef*%
%ADD15RoundRect,0.075000X-0.700000X-0.075000X0.700000X-0.075000X0.700000X0.075000X-0.700000X0.075000X0*%
%TD*%
%TA.AperFunction,SMDPad,CuDef*%
%ADD16RoundRect,0.082500X0.767500X0.192500X-0.767500X0.192500X-0.767500X-0.192500X0.767500X-0.192500X0*%
%TD*%
%TA.AperFunction,SMDPad,CuDef*%
%ADD17RoundRect,0.135000X0.315000X0.365000X-0.315000X0.365000X-0.315000X-0.365000X0.315000X-0.365000X0*%
%TD*%
%TA.AperFunction,SMDPad,CuDef*%
%ADD18RoundRect,0.135000X0.185000X-0.135000X0.185000X0.135000X-0.185000X0.135000X-0.185000X-0.135000X0*%
%TD*%
%TA.AperFunction,SMDPad,CuDef*%
%ADD19RoundRect,0.150000X-0.512500X-0.150000X0.512500X-0.150000X0.512500X0.150000X-0.512500X0.150000X0*%
%TD*%
%TA.AperFunction,HeatsinkPad*%
%ADD20O,1.600000X1.000000*%
%TD*%
%TA.AperFunction,HeatsinkPad*%
%ADD21O,2.100000X1.000000*%
%TD*%
%TA.AperFunction,SMDPad,CuDef*%
%ADD22R,1.450000X0.600000*%
%TD*%
%TA.AperFunction,SMDPad,CuDef*%
%ADD23R,1.450000X0.300000*%
%TD*%
%TA.AperFunction,ComponentPad*%
%ADD24C,5.600000*%
%TD*%
%TA.AperFunction,SMDPad,CuDef*%
%ADD25R,2.600000X1.900000*%
%TD*%
%TA.AperFunction,SMDPad,CuDef*%
%ADD26RoundRect,0.150000X0.512500X0.150000X-0.512500X0.150000X-0.512500X-0.150000X0.512500X-0.150000X0*%
%TD*%
%TA.AperFunction,SMDPad,CuDef*%
%ADD27RoundRect,0.135000X-0.315000X-0.365000X0.315000X-0.365000X0.315000X0.365000X-0.315000X0.365000X0*%
%TD*%
%TA.AperFunction,SMDPad,CuDef*%
%ADD28RoundRect,0.082500X-0.767500X-0.192500X0.767500X-0.192500X0.767500X0.192500X-0.767500X0.192500X0*%
%TD*%
%TA.AperFunction,SMDPad,CuDef*%
%ADD29RoundRect,0.135000X-0.135000X-0.185000X0.135000X-0.185000X0.135000X0.185000X-0.135000X0.185000X0*%
%TD*%
%TA.AperFunction,SMDPad,CuDef*%
%ADD30RoundRect,0.135000X0.135000X0.185000X-0.135000X0.185000X-0.135000X-0.185000X0.135000X-0.185000X0*%
%TD*%
%TA.AperFunction,SMDPad,CuDef*%
%ADD31RoundRect,0.135000X-0.185000X0.135000X-0.185000X-0.135000X0.185000X-0.135000X0.185000X0.135000X0*%
%TD*%
%TA.AperFunction,SMDPad,CuDef*%
%ADD32RoundRect,0.218750X0.256250X-0.218750X0.256250X0.218750X-0.256250X0.218750X-0.256250X-0.218750X0*%
%TD*%
%TA.AperFunction,SMDPad,CuDef*%
%ADD33RoundRect,0.218750X-0.218750X-0.256250X0.218750X-0.256250X0.218750X0.256250X-0.218750X0.256250X0*%
%TD*%
%TA.AperFunction,SMDPad,CuDef*%
%ADD34RoundRect,0.140000X0.140000X0.170000X-0.140000X0.170000X-0.140000X-0.170000X0.140000X-0.170000X0*%
%TD*%
%TA.AperFunction,SMDPad,CuDef*%
%ADD35RoundRect,0.225000X-0.250000X0.225000X-0.250000X-0.225000X0.250000X-0.225000X0.250000X0.225000X0*%
%TD*%
%TA.AperFunction,ComponentPad*%
%ADD36R,1.700000X1.700000*%
%TD*%
%TA.AperFunction,ComponentPad*%
%ADD37C,1.700000*%
%TD*%
%TA.AperFunction,SMDPad,CuDef*%
%ADD38R,0.740000X2.400000*%
%TD*%
%TA.AperFunction,ViaPad*%
%ADD39C,0.450000*%
%TD*%
%TA.AperFunction,Conductor*%
%ADD40C,0.200000*%
%TD*%
G04 APERTURE END LIST*
D10*
%TO.P,SW1,1,A_1*%
%TO.N,+5V*%
X94950000Y-65100000D03*
%TO.P,SW1,2,B_2*%
%TO.N,Net-(SW1-B)*%
X94950000Y-62600000D03*
%TO.P,SW1,3,C_3*%
%TO.N,GND*%
X94950000Y-60100000D03*
%TD*%
D11*
%TO.P,C16,1*%
%TO.N,+3.3V*%
X70955000Y-67785000D03*
%TO.P,C16,2*%
%TO.N,GND*%
X71915000Y-67785000D03*
%TD*%
D12*
%TO.P,C11,2*%
%TO.N,+3.3V*%
X82300000Y-71120000D03*
%TO.P,C11,1*%
%TO.N,GND*%
X82300000Y-72080000D03*
%TD*%
D13*
%TO.P,C10,2*%
%TO.N,GND*%
X83500000Y-72080000D03*
%TO.P,C10,1*%
%TO.N,+3.3V*%
X83500000Y-71120000D03*
%TD*%
D14*
%TO.P,U3,64,VDD_64*%
%TO.N,+3.3V*%
X71250000Y-69325000D03*
%TO.P,U3,63,VSS_63*%
%TO.N,GND*%
X71750000Y-69325000D03*
%TO.P,U3,62,PB9_62*%
%TO.N,unconnected-(U3-PB9-Pad62)*%
X72250000Y-69325000D03*
%TO.P,U3,61,PB8_61*%
%TO.N,unconnected-(U3-PB8-Pad61)*%
X72750000Y-69325000D03*
%TO.P,U3,60,BOOT0_60*%
%TO.N,/BOOT_0*%
X73250000Y-69325000D03*
%TO.P,U3,59,PB7_59*%
%TO.N,unconnected-(U3-PB7-Pad59)*%
X73750000Y-69325000D03*
%TO.P,U3,58,PB6_58*%
%TO.N,unconnected-(U3-PB6-Pad58)*%
X74250000Y-69325000D03*
%TO.P,U3,57,PB5_57*%
%TO.N,unconnected-(U3-PB5-Pad57)*%
X74750000Y-69325000D03*
%TO.P,U3,56,PB4_56*%
%TO.N,unconnected-(U3-PB4-Pad56)*%
X75250000Y-69325000D03*
%TO.P,U3,55,PB3_55*%
%TO.N,/SWO*%
X75750000Y-69325000D03*
%TO.P,U3,54,PD2_54*%
%TO.N,unconnected-(U3-PD2-Pad54)*%
X76250000Y-69325000D03*
%TO.P,U3,53,PC12_53*%
%TO.N,unconnected-(U3-PC12-Pad53)*%
X76750000Y-69325000D03*
%TO.P,U3,52,PC11_52*%
%TO.N,unconnected-(U3-PC11-Pad52)*%
X77250000Y-69325000D03*
%TO.P,U3,51,PC10_51*%
%TO.N,unconnected-(U3-PC10-Pad51)*%
X77750000Y-69325000D03*
%TO.P,U3,50,PA15_50*%
%TO.N,unconnected-(U3-PA15-Pad50)*%
X78250000Y-69325000D03*
%TO.P,U3,49,PA14_49*%
%TO.N,/SWCLK*%
X78750000Y-69325000D03*
D15*
%TO.P,U3,48,VDDUSB_48*%
%TO.N,+3.3V*%
X80675000Y-71250000D03*
%TO.P,U3,47,VSS_47*%
%TO.N,GND*%
X80675000Y-71750000D03*
%TO.P,U3,46,PA13_46*%
%TO.N,/SWDIO*%
X80675000Y-72250000D03*
%TO.P,U3,45,PA12_45*%
%TO.N,/USBDP*%
X80675000Y-72750000D03*
%TO.P,U3,44,PA11_44*%
%TO.N,/USBDM*%
X80675000Y-73250000D03*
%TO.P,U3,43,PA10_43*%
%TO.N,/VCP_RX*%
X80675000Y-73750000D03*
%TO.P,U3,42,PA9_42*%
%TO.N,/VCP_TX*%
X80675000Y-74250000D03*
%TO.P,U3,41,PA8_41*%
%TO.N,unconnected-(U3-PA8-Pad41)*%
X80675000Y-74750000D03*
%TO.P,U3,40,PC9_40*%
%TO.N,unconnected-(U3-PC9-Pad40)*%
X80675000Y-75250000D03*
%TO.P,U3,39,PC8_39*%
%TO.N,unconnected-(U3-PC8-Pad39)*%
X80675000Y-75750000D03*
%TO.P,U3,38,PC7_38*%
%TO.N,unconnected-(U3-PC7-Pad38)*%
X80675000Y-76250000D03*
%TO.P,U3,37,PC6_37*%
%TO.N,unconnected-(U3-PC6-Pad37)*%
X80675000Y-76750000D03*
%TO.P,U3,36,PB15_36*%
%TO.N,unconnected-(U3-PB15-Pad36)*%
X80675000Y-77250000D03*
%TO.P,U3,35,PB14_35*%
%TO.N,unconnected-(U3-PB14-Pad35)*%
X80675000Y-77750000D03*
%TO.P,U3,34,PB13_34*%
%TO.N,unconnected-(U3-PB13-Pad34)*%
X80675000Y-78250000D03*
%TO.P,U3,33,PB12_33*%
%TO.N,unconnected-(U3-PB12-Pad33)*%
X80675000Y-78750000D03*
D14*
%TO.P,U3,32,VDD_32*%
%TO.N,+3.3V*%
X78750000Y-80675000D03*
%TO.P,U3,31,VSS_31*%
%TO.N,GND*%
X78250000Y-80675000D03*
%TO.P,U3,30,PB11_30*%
%TO.N,unconnected-(U3-PB11-Pad30)*%
X77750000Y-80675000D03*
%TO.P,U3,29,PB10_29*%
%TO.N,unconnected-(U3-PB10-Pad29)*%
X77250000Y-80675000D03*
%TO.P,U3,28,PB2_28*%
%TO.N,/USR_BTN_2*%
X76750000Y-80675000D03*
%TO.P,U3,27,PB1_27*%
%TO.N,/USR_BTN_1*%
X76250000Y-80675000D03*
%TO.P,U3,26,PB0_26*%
%TO.N,/RFID_IRQ*%
X75750000Y-80675000D03*
%TO.P,U3,25,PC5_25*%
%TO.N,unconnected-(U3-PC5-Pad25)*%
X75250000Y-80675000D03*
%TO.P,U3,24,PC4_24*%
%TO.N,/RFID_RST*%
X74750000Y-80675000D03*
%TO.P,U3,23,PA7_23*%
%TO.N,/SPI1_MOSI*%
X74250000Y-80675000D03*
%TO.P,U3,22,PA6_22*%
%TO.N,/SPI1_MISO*%
X73750000Y-80675000D03*
%TO.P,U3,21,PA5_21*%
%TO.N,/SPI1_SCK*%
X73250000Y-80675000D03*
%TO.P,U3,20,PA4_20*%
%TO.N,/SPI1_NSS*%
X72750000Y-80675000D03*
%TO.P,U3,19,VDD_19*%
%TO.N,+3.3V*%
X72250000Y-80675000D03*
%TO.P,U3,18,VSS_18*%
%TO.N,GND*%
X71750000Y-80675000D03*
%TO.P,U3,17,PA3_17*%
%TO.N,unconnected-(U3-PA3-Pad17)*%
X71250000Y-80675000D03*
D15*
%TO.P,U3,16,PA2_16*%
%TO.N,unconnected-(U3-PA2-Pad16)*%
X69325000Y-78750000D03*
%TO.P,U3,15,PA1_15*%
%TO.N,unconnected-(U3-PA1-Pad15)*%
X69325000Y-78250000D03*
%TO.P,U3,14,PA0_14*%
%TO.N,unconnected-(U3-PA0-Pad14)*%
X69325000Y-77750000D03*
%TO.P,U3,13,VDDA_13*%
%TO.N,+3.3V*%
X69325000Y-77250000D03*
%TO.P,U3,12,VSSA_12*%
%TO.N,GND*%
X69325000Y-76750000D03*
%TO.P,U3,11,PC3_11*%
%TO.N,unconnected-(U3-PC3-Pad11)*%
X69325000Y-76250000D03*
%TO.P,U3,10,PC2_10*%
%TO.N,unconnected-(U3-PC2-Pad10)*%
X69325000Y-75750000D03*
%TO.P,U3,9,PC1_9*%
%TO.N,/USR_LED_2*%
X69325000Y-75250000D03*
%TO.P,U3,8,PC0_8*%
%TO.N,/USR_LED_1*%
X69325000Y-74750000D03*
%TO.P,U3,7,NRST_7*%
%TO.N,/NRST*%
X69325000Y-74250000D03*
%TO.P,U3,6,PH1_6*%
%TO.N,/OSC_OUT*%
X69325000Y-73750000D03*
%TO.P,U3,5,PH0_5*%
%TO.N,/OSC_IN*%
X69325000Y-73250000D03*
%TO.P,U3,4,PC15_4*%
%TO.N,unconnected-(U3-PC15-Pad4)*%
X69325000Y-72750000D03*
%TO.P,U3,3,PC14_3*%
%TO.N,unconnected-(U3-PC14-Pad3)*%
X69325000Y-72250000D03*
%TO.P,U3,2,PC13_2*%
%TO.N,unconnected-(U3-PC13-Pad2)*%
X69325000Y-71750000D03*
%TO.P,U3,1,VBAT_1*%
%TO.N,+3.3V*%
X69325000Y-71250000D03*
%TD*%
D16*
%TO.P,SW5,SH*%
%TO.N,N/C*%
X65000000Y-53925000D03*
D17*
%TO.P,SW5,2,2_2*%
%TO.N,/BOOT_0*%
X62950000Y-51700000D03*
X67050000Y-51700000D03*
%TO.P,SW5,1,1_1*%
%TO.N,+3.3V*%
X62950000Y-53300000D03*
X67050000Y-53300000D03*
%TD*%
D18*
%TO.P,R1,2*%
%TO.N,Net-(J1-CC1)*%
X90200000Y-74390000D03*
%TO.P,R1,1*%
%TO.N,GND*%
X90200000Y-75410000D03*
%TD*%
D19*
%TO.P,U2,6,I/O1_6*%
%TO.N,/D+*%
X88137500Y-72050000D03*
%TO.P,U2,5,VBUS_5*%
%TO.N,+5V*%
X88137500Y-73000000D03*
%TO.P,U2,4,I/O2_4*%
%TO.N,/D-*%
X88137500Y-73950000D03*
%TO.P,U2,3,I/O2_3*%
%TO.N,/USBDM*%
X85862500Y-73950000D03*
%TO.P,U2,2,GND_2*%
%TO.N,GND*%
X85862500Y-73000000D03*
%TO.P,U2,1,I/O1_1*%
%TO.N,/USBDP*%
X85862500Y-72050000D03*
%TD*%
D20*
%TO.P,J1,S1,SHIELD_S1*%
%TO.N,GND*%
X97050000Y-68680000D03*
D21*
X92870000Y-68680000D03*
D20*
X97050000Y-77320000D03*
D21*
X92870000Y-77320000D03*
D22*
%TO.P,J1,B12,GND_B12*%
X91955000Y-76250000D03*
%TO.P,J1,B9,VBUS_B9*%
%TO.N,+5V*%
X91955000Y-75450000D03*
D23*
%TO.P,J1,B8,SBU2_B8*%
%TO.N,unconnected-(J1-SBU2-PadB8)*%
X91955000Y-74750000D03*
%TO.P,J1,B7,D-_B7*%
%TO.N,/D-*%
X91955000Y-73750000D03*
%TO.P,J1,B6,D+_B6*%
%TO.N,/D+*%
X91955000Y-72250000D03*
%TO.P,J1,B5,CC2_B5*%
%TO.N,Net-(J1-CC2)*%
X91955000Y-71250000D03*
D22*
%TO.P,J1,B4,VBUS_B4*%
%TO.N,+5V*%
X91955000Y-70550000D03*
%TO.P,J1,B1,GND_B1*%
%TO.N,GND*%
X91955000Y-69750000D03*
%TO.P,J1,A12,GND_A12*%
X91955000Y-69750000D03*
%TO.P,J1,A9,VBUS_A9*%
%TO.N,+5V*%
X91955000Y-70550000D03*
D23*
%TO.P,J1,A8,SBU1_A8*%
%TO.N,unconnected-(J1-SBU1-PadA8)*%
X91955000Y-71750000D03*
%TO.P,J1,A7,D-_A7*%
%TO.N,/D-*%
X91955000Y-72750000D03*
%TO.P,J1,A6,D+_A6*%
%TO.N,/D+*%
X91955000Y-73250000D03*
%TO.P,J1,A5,CC1_A5*%
%TO.N,Net-(J1-CC1)*%
X91955000Y-74250000D03*
D22*
%TO.P,J1,A4,VBUS_A4*%
%TO.N,+5V*%
X91955000Y-75450000D03*
%TO.P,J1,A1,GND_A1*%
%TO.N,GND*%
X91955000Y-76250000D03*
%TD*%
D18*
%TO.P,R2,2*%
%TO.N,GND*%
X90200000Y-70190000D03*
%TO.P,R2,1*%
%TO.N,Net-(J1-CC2)*%
X90200000Y-71210000D03*
%TD*%
D24*
%TO.P,H1,1,1_1*%
%TO.N,GND*%
X54000000Y-54000000D03*
%TD*%
D25*
%TO.P,Y1,1,1_1*%
%TO.N,Net-(C6-Pad1)*%
X63300000Y-75850000D03*
%TO.P,Y1,2,2_2*%
%TO.N,/OSC_IN*%
X63300000Y-71550000D03*
%TD*%
D26*
%TO.P,U1,1,VIN_1*%
%TO.N,+5V*%
X90737500Y-65450000D03*
%TO.P,U1,2,GND_2*%
%TO.N,GND*%
X90737500Y-64500000D03*
%TO.P,U1,3,~{SHDN}_3*%
%TO.N,Net-(SW1-B)*%
X90737500Y-63550000D03*
%TO.P,U1,4,NC_4*%
%TO.N,unconnected-(U1-NC-Pad4)*%
X88462500Y-63550000D03*
%TO.P,U1,5,VOUT_5*%
%TO.N,+3.3V*%
X88462500Y-65450000D03*
%TD*%
D17*
%TO.P,SW4,1,1_1*%
%TO.N,/NRST*%
X87050000Y-53300000D03*
X82950000Y-53300000D03*
%TO.P,SW4,2,2_2*%
%TO.N,GND*%
X87050000Y-51700000D03*
X82950000Y-51700000D03*
D16*
%TO.P,SW4,SH*%
%TO.N,N/C*%
X85000000Y-53925000D03*
%TD*%
D27*
%TO.P,SW3,1,1_1*%
%TO.N,Net-(R11-Pad1)*%
X80450000Y-96700000D03*
X84550000Y-96700000D03*
%TO.P,SW3,2,2_2*%
%TO.N,GND*%
X80450000Y-98300000D03*
X84550000Y-98300000D03*
D28*
%TO.P,SW3,SH*%
%TO.N,N/C*%
X82500000Y-96075000D03*
%TD*%
D27*
%TO.P,SW2,1,1_1*%
%TO.N,Net-(R10-Pad1)*%
X62950000Y-96700000D03*
X67050000Y-96700000D03*
%TO.P,SW2,2,2_2*%
%TO.N,GND*%
X62950000Y-98300000D03*
X67050000Y-98300000D03*
D28*
%TO.P,SW2,SH*%
%TO.N,N/C*%
X65000000Y-96075000D03*
%TD*%
D29*
%TO.P,R12,1*%
%TO.N,GND*%
X64400000Y-55000000D03*
%TO.P,R12,2*%
%TO.N,/BOOT_0*%
X65420000Y-55000000D03*
%TD*%
D30*
%TO.P,R11,1*%
%TO.N,Net-(R11-Pad1)*%
X81110000Y-95000000D03*
%TO.P,R11,2*%
%TO.N,+3.3V*%
X80090000Y-95000000D03*
%TD*%
%TO.P,R10,1*%
%TO.N,Net-(R10-Pad1)*%
X63610000Y-95000000D03*
%TO.P,R10,2*%
%TO.N,+3.3V*%
X62590000Y-95000000D03*
%TD*%
%TO.P,R9,1*%
%TO.N,/USR_BTN_2*%
X83020000Y-95000000D03*
%TO.P,R9,2*%
%TO.N,Net-(R11-Pad1)*%
X82000000Y-95000000D03*
%TD*%
%TO.P,R8,1*%
%TO.N,/USR_BTN_1*%
X65510000Y-95000000D03*
%TO.P,R8,2*%
%TO.N,Net-(R10-Pad1)*%
X64490000Y-95000000D03*
%TD*%
D31*
%TO.P,R7,1*%
%TO.N,/USR_LED_2*%
X76000000Y-87000000D03*
%TO.P,R7,2*%
%TO.N,Net-(D4-A)*%
X76000000Y-88020000D03*
%TD*%
%TO.P,R6,1*%
%TO.N,/USR_LED_1*%
X74000000Y-87000000D03*
%TO.P,R6,2*%
%TO.N,Net-(D3-A)*%
X74000000Y-88020000D03*
%TD*%
%TO.P,R5,1*%
%TO.N,/OSC_OUT*%
X67800000Y-74100000D03*
%TO.P,R5,2*%
%TO.N,Net-(C6-Pad1)*%
X67800000Y-75120000D03*
%TD*%
D30*
%TO.P,R4,1*%
%TO.N,+3.3V*%
X92020000Y-59000000D03*
%TO.P,R4,2*%
%TO.N,Net-(D2-A)*%
X91000000Y-59000000D03*
%TD*%
%TO.P,R3,1*%
%TO.N,+5V*%
X92010000Y-61000000D03*
%TO.P,R3,2*%
%TO.N,Net-(D1-A)*%
X90990000Y-61000000D03*
%TD*%
D32*
%TO.P,D4,2,A_2*%
%TO.N,Net-(D4-A)*%
X76000000Y-89212500D03*
%TO.P,D4,1,K_1*%
%TO.N,GND*%
X76000000Y-90787500D03*
%TD*%
%TO.P,D3,1,K_1*%
%TO.N,GND*%
X74000000Y-90787500D03*
%TO.P,D3,2,A_2*%
%TO.N,Net-(D3-A)*%
X74000000Y-89212500D03*
%TD*%
D33*
%TO.P,D2,1,K_1*%
%TO.N,GND*%
X88212500Y-59000000D03*
%TO.P,D2,2,A_2*%
%TO.N,Net-(D2-A)*%
X89787500Y-59000000D03*
%TD*%
%TO.P,D1,1,K_1*%
%TO.N,GND*%
X88212500Y-61000000D03*
%TO.P,D1,2,A_2*%
%TO.N,Net-(D1-A)*%
X89787500Y-61000000D03*
%TD*%
D11*
%TO.P,C15,1*%
%TO.N,/NRST*%
X84540000Y-55000000D03*
%TO.P,C15,2*%
%TO.N,GND*%
X85500000Y-55000000D03*
%TD*%
D12*
%TO.P,C14,1*%
%TO.N,GND*%
X56400000Y-67080000D03*
%TO.P,C14,2*%
%TO.N,+3.3V*%
X56400000Y-66120000D03*
%TD*%
D11*
%TO.P,C13,1*%
%TO.N,/USR_BTN_2*%
X83900000Y-95000000D03*
%TO.P,C13,2*%
%TO.N,GND*%
X84860000Y-95000000D03*
%TD*%
%TO.P,C12,1*%
%TO.N,/USR_BTN_1*%
X66420000Y-95000000D03*
%TO.P,C12,2*%
%TO.N,GND*%
X67380000Y-95000000D03*
%TD*%
D34*
%TO.P,C9,1*%
%TO.N,+3.3V*%
X78760000Y-82300000D03*
%TO.P,C9,2*%
%TO.N,GND*%
X77800000Y-82300000D03*
%TD*%
D12*
%TO.P,C8,1*%
%TO.N,+3.3V*%
X67700000Y-77560000D03*
%TO.P,C8,2*%
%TO.N,GND*%
X67700000Y-76600000D03*
%TD*%
D34*
%TO.P,C7,1*%
%TO.N,+3.3V*%
X72100000Y-82300000D03*
%TO.P,C7,2*%
%TO.N,GND*%
X71140000Y-82300000D03*
%TD*%
D12*
%TO.P,C6,1*%
%TO.N,Net-(C6-Pad1)*%
X66800000Y-75100000D03*
%TO.P,C6,2*%
%TO.N,GND*%
X66800000Y-74140000D03*
%TD*%
D34*
%TO.P,C5,1*%
%TO.N,+3.3V*%
X67780000Y-71300000D03*
%TO.P,C5,2*%
%TO.N,GND*%
X66820000Y-71300000D03*
%TD*%
D13*
%TO.P,C4,1*%
%TO.N,GND*%
X67800000Y-72220000D03*
%TO.P,C4,2*%
%TO.N,/OSC_IN*%
X67800000Y-73180000D03*
%TD*%
D35*
%TO.P,C3,1*%
%TO.N,GND*%
X66100000Y-76325000D03*
%TO.P,C3,2*%
%TO.N,+3.3V*%
X66100000Y-77875000D03*
%TD*%
D12*
%TO.P,C2,1*%
%TO.N,+3.3V*%
X87000000Y-65480000D03*
%TO.P,C2,2*%
%TO.N,GND*%
X87000000Y-64520000D03*
%TD*%
%TO.P,C1,1*%
%TO.N,+5V*%
X92200000Y-65480000D03*
%TO.P,C1,2*%
%TO.N,GND*%
X92200000Y-64520000D03*
%TD*%
D36*
%TO.P,J3,1,Pin_1_1*%
%TO.N,GND*%
X54000000Y-83890000D03*
D37*
%TO.P,J3,2,Pin_2_2*%
%TO.N,/SPI1_MOSI*%
X54000000Y-81350000D03*
%TO.P,J3,3,Pin_3_3*%
%TO.N,/RFID_RST*%
X54000000Y-78810000D03*
%TO.P,J3,4,Pin_4_4*%
%TO.N,/RFID_IRQ*%
X54000000Y-76270000D03*
%TO.P,J3,5,Pin_5_5*%
%TO.N,/SPI1_MISO*%
X54000000Y-73730000D03*
%TO.P,J3,6,Pin_6_6*%
%TO.N,/SPI1_SCK*%
X54000000Y-71190000D03*
%TO.P,J3,7,Pin_7_7*%
%TO.N,/SPI1_NSS*%
X54000000Y-68650000D03*
%TO.P,J3,8,Pin_8_8*%
%TO.N,+3.3V*%
X54000000Y-66110000D03*
%TD*%
D24*
%TO.P,H2,1,1_1*%
%TO.N,GND*%
X96000000Y-54000000D03*
%TD*%
%TO.P,H3,1,1_1*%
%TO.N,GND*%
X54000000Y-96000000D03*
%TD*%
%TO.P,H4,1,1_1*%
%TO.N,GND*%
X96000000Y-96000000D03*
%TD*%
D38*
%TO.P,J2,1,NC_1*%
%TO.N,unconnected-(J2-NC-Pad1)*%
X78810000Y-53050000D03*
%TO.P,J2,2,NC_2*%
%TO.N,unconnected-(J2-NC-Pad2)*%
X78810000Y-56950000D03*
%TO.P,J2,3,VCC_3*%
%TO.N,+3.3V*%
X77540000Y-53050000D03*
%TO.P,J2,4,JTMS/SWDIO_4*%
%TO.N,/SWDIO*%
X77540000Y-56950000D03*
%TO.P,J2,5,GND_5*%
%TO.N,GND*%
X76270000Y-53050000D03*
%TO.P,J2,6,JCLK/SWCLK_6*%
%TO.N,/SWCLK*%
X76270000Y-56950000D03*
%TO.P,J2,7,GND_7*%
%TO.N,GND*%
X75000000Y-53050000D03*
%TO.P,J2,8,JTDO/SWO_8*%
%TO.N,/SWO*%
X75000000Y-56950000D03*
%TO.P,J2,9,JRCLK/NC_9*%
%TO.N,unconnected-(J2-JRCLK{slash}NC-Pad9)*%
X73730000Y-53050000D03*
%TO.P,J2,10,JTDI/NC_10*%
%TO.N,unconnected-(J2-JTDI{slash}NC-Pad10)*%
X73730000Y-56950000D03*
%TO.P,J2,11,GNDDetect_11*%
%TO.N,GND*%
X72460000Y-53050000D03*
%TO.P,J2,12,~{RST}_12*%
%TO.N,/NRST*%
X72460000Y-56950000D03*
%TO.P,J2,13,VCP_RX_13*%
%TO.N,/VCP_RX*%
X71190000Y-53050000D03*
%TO.P,J2,14,VCP_TX_14*%
%TO.N,/VCP_TX*%
X71190000Y-56950000D03*
%TD*%
D39*
%TO.N,/USR_LED_2*%
X69000000Y-82900000D03*
%TO.N,/USR_LED_1*%
X70000000Y-82900000D03*
%TO.N,/USR_LED_2*%
X76000000Y-86300000D03*
%TO.N,/USR_LED_1*%
X74000000Y-86300000D03*
%TO.N,/RFID_RST*%
X60338105Y-80367621D03*
%TO.N,/RFID_IRQ*%
X61000000Y-80500000D03*
X61900000Y-82500000D03*
%TO.N,/RFID_RST*%
X60900000Y-81900000D03*
%TO.N,/NRST*%
X72300000Y-60100000D03*
X72500000Y-55100000D03*
%TO.N,/VCP_RX*%
X76500000Y-70600000D03*
X74700000Y-67300000D03*
%TO.N,/VCP_TX*%
X75800000Y-70600000D03*
X75200000Y-68100000D03*
%TO.N,+3.3V*%
X92800000Y-59000000D03*
%TO.N,GND*%
X91600000Y-64500000D03*
X87000000Y-64000000D03*
%TO.N,+3.3V*%
X87600000Y-65480000D03*
X86500000Y-65500000D03*
%TO.N,+5V*%
X89000000Y-73000000D03*
X93500000Y-71000000D03*
X93500000Y-75000000D03*
X92700000Y-61000000D03*
X93000000Y-65480000D03*
X91500000Y-65450000D03*
%TO.N,GND*%
X96500000Y-60100000D03*
X87500000Y-59000000D03*
X87500000Y-61000000D03*
X75000000Y-90800000D03*
%TO.N,+3.3V*%
X56400000Y-65500000D03*
%TO.N,GND*%
X56400000Y-67600000D03*
X67200000Y-72200000D03*
X66200000Y-74200000D03*
%TO.N,+3.3V*%
X70900000Y-67100000D03*
%TO.N,GND*%
X71900000Y-67100000D03*
%TO.N,+3.3V*%
X67100000Y-77600000D03*
%TO.N,GND*%
X67100000Y-76600000D03*
%TO.N,+3.3V*%
X78800000Y-82900000D03*
%TO.N,GND*%
X77800000Y-82900000D03*
X71100000Y-82900000D03*
%TO.N,+3.3V*%
X72100000Y-82900000D03*
X67800000Y-70700000D03*
%TO.N,GND*%
X66300000Y-71300000D03*
X82900000Y-72080000D03*
%TO.N,+3.3V*%
X82900000Y-71120000D03*
X77600000Y-51600000D03*
%TO.N,GND*%
X72500000Y-51600000D03*
X76200000Y-51600000D03*
X75000000Y-51600000D03*
X82200000Y-51700000D03*
X87800000Y-51700000D03*
X86100000Y-55000000D03*
X63800000Y-55000000D03*
%TO.N,+3.3V*%
X67800000Y-53300000D03*
X62200000Y-53300000D03*
%TO.N,GND*%
X62200000Y-98300000D03*
X67800000Y-98300000D03*
X67900000Y-95000000D03*
%TO.N,+3.3V*%
X62100000Y-95000000D03*
%TO.N,GND*%
X85300000Y-98300000D03*
X79700000Y-98300000D03*
%TO.N,+3.3V*%
X79500000Y-95000000D03*
%TO.N,GND*%
X85400000Y-95000000D03*
X87000000Y-73000000D03*
X90695000Y-75905000D03*
X90640000Y-69750000D03*
%TD*%
%TO.N,/USR_LED_1*%
D40*
X70000000Y-82900000D02*
X69500000Y-82400000D01*
X69500000Y-82400000D02*
X69500000Y-80465686D01*
X69500000Y-80465686D02*
X70800000Y-79165686D01*
X70800000Y-79165686D02*
X70800000Y-75351905D01*
X70800000Y-75351905D02*
X70198095Y-74750000D01*
X70198095Y-74750000D02*
X69325000Y-74750000D01*
%TO.N,/USR_LED_2*%
X69000000Y-82900000D02*
X69050000Y-82850000D01*
X69050000Y-80350000D02*
X70400000Y-79000000D01*
X69050000Y-82850000D02*
X69050000Y-80350000D01*
X70400000Y-75517590D02*
X70132410Y-75250000D01*
X70400000Y-79000000D02*
X70400000Y-75517590D01*
X70132410Y-75250000D02*
X69325000Y-75250000D01*
X76000000Y-87000000D02*
X76000000Y-86300000D01*
%TO.N,/USR_LED_1*%
X74000000Y-87000000D02*
X74000000Y-86300000D01*
%TO.N,/USR_BTN_2*%
X83500000Y-95000000D02*
X83500000Y-89800000D01*
X83500000Y-89800000D02*
X76750000Y-83050000D01*
X76750000Y-83050000D02*
X76750000Y-80675000D01*
X83020000Y-95000000D02*
X83500000Y-95000000D01*
%TO.N,/USR_BTN_1*%
X65510000Y-95000000D02*
X66000000Y-95000000D01*
X66000000Y-95000000D02*
X66000000Y-87700000D01*
X66000000Y-87700000D02*
X67850000Y-85850000D01*
X67850000Y-85850000D02*
X73412740Y-85850000D01*
X73412740Y-85850000D02*
X76250000Y-83012741D01*
X76250000Y-83012741D02*
X76250000Y-80675000D01*
%TO.N,/SPI1_NSS*%
X72750000Y-80675000D02*
X72750000Y-83027818D01*
X56000000Y-75902942D02*
X56000000Y-70650000D01*
X72750000Y-83027818D02*
X72327818Y-83450000D01*
X72327818Y-83450000D02*
X65950000Y-83450000D01*
X65950000Y-83450000D02*
X59709997Y-77210000D01*
X59709997Y-77210000D02*
X57307058Y-77210000D01*
X57307058Y-77210000D02*
X56000000Y-75902942D01*
X56000000Y-70650000D02*
X54000000Y-68650000D01*
%TO.N,/SPI1_SCK*%
X54000000Y-71190000D02*
X55550000Y-72740000D01*
X55550000Y-72740000D02*
X55550000Y-76018629D01*
X55550000Y-76018629D02*
X57141372Y-77610000D01*
X57141372Y-77610000D02*
X59544311Y-77610000D01*
X59544311Y-77610000D02*
X62617155Y-80682844D01*
%TO.N,/SPI1_MISO*%
X73750000Y-80675000D02*
X73750000Y-83250000D01*
X65618628Y-84250000D02*
X61084314Y-79715687D01*
X73750000Y-83250000D02*
X72750000Y-84250000D01*
X72750000Y-84250000D02*
X65618628Y-84250000D01*
%TO.N,/SPI1_SCK*%
X65784314Y-83850000D02*
X62617156Y-80682844D01*
X72550000Y-83850000D02*
X65784314Y-83850000D01*
X73250000Y-83150000D02*
X72550000Y-83850000D01*
X73250000Y-80675000D02*
X73250000Y-83150000D01*
%TO.N,/SPI1_MISO*%
X61084314Y-79715686D02*
X59378626Y-78010000D01*
X55150000Y-76184315D02*
X55150000Y-74350000D01*
X54530000Y-73730000D02*
X54000000Y-73730000D01*
X59378626Y-78010000D02*
X56975686Y-78010000D01*
X56975686Y-78010000D02*
X55150000Y-76184315D01*
X55150000Y-74350000D02*
X54530000Y-73730000D01*
%TO.N,/RFID_IRQ*%
X61000000Y-80500000D02*
X60888105Y-80500000D01*
X60738105Y-79935163D02*
X59212941Y-78410000D01*
X60888105Y-80500000D02*
X60888105Y-80139803D01*
X60888105Y-80139803D02*
X60738105Y-79989803D01*
X59212941Y-78410000D02*
X56810000Y-78410000D01*
X56810000Y-78410000D02*
X54670000Y-76270000D01*
X54670000Y-76270000D02*
X54000000Y-76270000D01*
%TO.N,/RFID_RST*%
X60338105Y-80367621D02*
X60338105Y-80100849D01*
X60338105Y-80100849D02*
X59047256Y-78810000D01*
X59047256Y-78810000D02*
X54000000Y-78810000D01*
%TO.N,/RFID_IRQ*%
X65121570Y-85450000D02*
X62171570Y-82500000D01*
X62171570Y-82500000D02*
X61900000Y-82500000D01*
X75750000Y-82947055D02*
X73247055Y-85450000D01*
X75750000Y-80675000D02*
X75750000Y-82947055D01*
X73247055Y-85450000D02*
X65121570Y-85450000D01*
%TO.N,/RFID_RST*%
X60900000Y-81900000D02*
X62137256Y-81900000D01*
X62137256Y-81900000D02*
X65287256Y-85050000D01*
X65287256Y-85050000D02*
X73081370Y-85050000D01*
X73081370Y-85050000D02*
X74750000Y-83381370D01*
X74750000Y-83381370D02*
X74750000Y-80675000D01*
%TO.N,/SPI1_MOSI*%
X74250000Y-80675000D02*
X74250000Y-83315686D01*
X74250000Y-83315686D02*
X72915685Y-84650000D01*
X72915685Y-84650000D02*
X65452942Y-84650000D01*
X65452942Y-84650000D02*
X62152942Y-81350000D01*
X62152942Y-81350000D02*
X54000000Y-81350000D01*
%TO.N,/NRST*%
X72300000Y-60100000D02*
X72702942Y-60100000D01*
X70100000Y-66900000D02*
X70100000Y-70100000D01*
X70100000Y-70100000D02*
X70600000Y-70600000D01*
X70350000Y-74250000D02*
X69325000Y-74250000D01*
X72702942Y-60100000D02*
X74150000Y-61547058D01*
X74150000Y-61547058D02*
X74150000Y-66184314D01*
X74150000Y-66184314D02*
X74017157Y-66317157D01*
X74017157Y-66317157D02*
X70682843Y-66317157D01*
X70682843Y-66317157D02*
X70100000Y-66900000D01*
X70600000Y-70600000D02*
X70600000Y-74000000D01*
X70600000Y-74000000D02*
X70350000Y-74250000D01*
X72460000Y-56950000D02*
X72460000Y-55640000D01*
X72460000Y-55640000D02*
X72500000Y-55600000D01*
X72500000Y-55600000D02*
X72500000Y-55100000D01*
X73000000Y-55100000D02*
X72500000Y-55100000D01*
%TO.N,/BOOT_0*%
X65420000Y-55000000D02*
X66451472Y-55000000D01*
X66451472Y-55000000D02*
X70354315Y-58902842D01*
X70354315Y-58902842D02*
X70951472Y-59500000D01*
X70951472Y-59500000D02*
X72668628Y-59500000D01*
X72668628Y-59500000D02*
X74550000Y-61381372D01*
X74550000Y-61381372D02*
X74550000Y-66350000D01*
X74550000Y-66350000D02*
X73250000Y-67650000D01*
X73250000Y-67650000D02*
X73250000Y-69325000D01*
%TO.N,/VCP_RX*%
X74700000Y-67300000D02*
X74950000Y-67050000D01*
X74950000Y-67050000D02*
X74950000Y-61215686D01*
X70520000Y-58502842D02*
X70520000Y-53720000D01*
X74950000Y-61215686D02*
X72834314Y-59100000D01*
X72834314Y-59100000D02*
X71117158Y-59100000D01*
X71117158Y-59100000D02*
X70520000Y-58502842D01*
X70520000Y-53720000D02*
X71190000Y-53050000D01*
X80675000Y-73750000D02*
X79437868Y-73750000D01*
X79437868Y-73750000D02*
X76500000Y-70812132D01*
X76500000Y-70812132D02*
X76500000Y-70600000D01*
%TO.N,/VCP_TX*%
X80675000Y-74250000D02*
X79372182Y-74250000D01*
X75800000Y-70677818D02*
X75800000Y-70600000D01*
X79372182Y-74250000D02*
X75800000Y-70677818D01*
X75350000Y-67950000D02*
X75200000Y-68100000D01*
X73000000Y-58700000D02*
X75350000Y-61050000D01*
X71500000Y-58700000D02*
X73000000Y-58700000D01*
X71190000Y-56950000D02*
X71190000Y-58390000D01*
X75350000Y-61050000D02*
X75350000Y-67950000D01*
X71190000Y-58390000D02*
X71500000Y-58700000D01*
%TO.N,/SWO*%
X75000000Y-56950000D02*
X75000000Y-58000000D01*
X75000000Y-58000000D02*
X75750000Y-58750000D01*
X75750000Y-58750000D02*
X75750000Y-69325000D01*
%TO.N,/SWDIO*%
X80675000Y-72250000D02*
X79867590Y-72250000D01*
X79867590Y-72250000D02*
X79200000Y-71582410D01*
X79200000Y-71582410D02*
X79200000Y-68234315D01*
X79200000Y-68234315D02*
X76550000Y-65584314D01*
X76550000Y-65584314D02*
X76550000Y-58700000D01*
X77540000Y-57710000D02*
X77540000Y-56950000D01*
X76550000Y-58700000D02*
X77540000Y-57710000D01*
%TO.N,/SWCLK*%
X76270000Y-56950000D02*
X76270000Y-58244315D01*
X76270000Y-58244315D02*
X76150000Y-58364315D01*
X76150000Y-58364315D02*
X76150000Y-65750000D01*
X76150000Y-65750000D02*
X78750000Y-68350000D01*
X78750000Y-68350000D02*
X78750000Y-69325000D01*
%TO.N,Net-(SW1-B)*%
X90737500Y-63550000D02*
X92950000Y-63550000D01*
X92950000Y-63550000D02*
X93900000Y-62600000D01*
X93900000Y-62600000D02*
X94950000Y-62600000D01*
%TO.N,+3.3V*%
X92020000Y-59000000D02*
X92800000Y-59000000D01*
%TO.N,+5V*%
X92010000Y-61000000D02*
X92700000Y-61000000D01*
%TO.N,GND*%
X92200000Y-64520000D02*
X91620000Y-64520000D01*
X91620000Y-64520000D02*
X91600000Y-64500000D01*
X90737500Y-64500000D02*
X91600000Y-64500000D01*
X87000000Y-64520000D02*
X87000000Y-64000000D01*
%TO.N,+3.3V*%
X88462500Y-65450000D02*
X87630000Y-65450000D01*
X87630000Y-65450000D02*
X87600000Y-65480000D01*
X86520000Y-65480000D02*
X86500000Y-65500000D01*
X87000000Y-65480000D02*
X86520000Y-65480000D01*
X87000000Y-65480000D02*
X87600000Y-65480000D01*
%TO.N,+5V*%
X88137500Y-73000000D02*
X89000000Y-73000000D01*
X93264695Y-71000000D02*
X93500000Y-71000000D01*
X92814695Y-70550000D02*
X93264695Y-71000000D01*
X91955000Y-70550000D02*
X92814695Y-70550000D01*
X93180000Y-75000000D02*
X93500000Y-75000000D01*
X92730000Y-75450000D02*
X93180000Y-75000000D01*
X91955000Y-75450000D02*
X92730000Y-75450000D01*
X93380000Y-65100000D02*
X93000000Y-65480000D01*
X94950000Y-65100000D02*
X93380000Y-65100000D01*
X92200000Y-65480000D02*
X93000000Y-65480000D01*
X90737500Y-65450000D02*
X92170000Y-65450000D01*
X92170000Y-65450000D02*
X92200000Y-65480000D01*
%TO.N,GND*%
X94950000Y-60100000D02*
X96500000Y-60100000D01*
X88212500Y-59000000D02*
X87500000Y-59000000D01*
X88212500Y-61000000D02*
X87500000Y-61000000D01*
%TO.N,Net-(D1-A)*%
X89787500Y-61000000D02*
X90990000Y-61000000D01*
%TO.N,Net-(D2-A)*%
X91000000Y-59000000D02*
X89787500Y-59000000D01*
%TO.N,GND*%
X76000000Y-90787500D02*
X75012500Y-90787500D01*
X75012500Y-90787500D02*
X75000000Y-90800000D01*
X74987500Y-90787500D02*
X75000000Y-90800000D01*
X74000000Y-90787500D02*
X74987500Y-90787500D01*
%TO.N,Net-(D3-A)*%
X74000000Y-88020000D02*
X74000000Y-89212500D01*
%TO.N,Net-(D4-A)*%
X76000000Y-88020000D02*
X76000000Y-89212500D01*
%TO.N,+3.3V*%
X56400000Y-66120000D02*
X56400000Y-65500000D01*
%TO.N,GND*%
X56400000Y-67080000D02*
X56400000Y-67600000D01*
%TO.N,+3.3V*%
X54000000Y-66110000D02*
X56390000Y-66110000D01*
X56390000Y-66110000D02*
X56400000Y-66120000D01*
%TO.N,GND*%
X67220000Y-72220000D02*
X67200000Y-72200000D01*
X67800000Y-72220000D02*
X67220000Y-72220000D01*
X66260000Y-74140000D02*
X66200000Y-74200000D01*
X66800000Y-74140000D02*
X66260000Y-74140000D01*
%TO.N,Net-(C6-Pad1)*%
X66800000Y-75100000D02*
X64050000Y-75100000D01*
X64050000Y-75100000D02*
X63300000Y-75850000D01*
X67800000Y-75120000D02*
X66820000Y-75120000D01*
X66820000Y-75120000D02*
X66800000Y-75100000D01*
%TO.N,/OSC_OUT*%
X69325000Y-73750000D02*
X68150000Y-73750000D01*
X68150000Y-73750000D02*
X67800000Y-74100000D01*
%TO.N,/OSC_IN*%
X67800000Y-73180000D02*
X64930000Y-73180000D01*
X64930000Y-73180000D02*
X63300000Y-71550000D01*
X69325000Y-73250000D02*
X67870000Y-73250000D01*
X67870000Y-73250000D02*
X67800000Y-73180000D01*
%TO.N,+3.3V*%
X67100000Y-77600000D02*
X66375000Y-77600000D01*
X66375000Y-77600000D02*
X66100000Y-77875000D01*
%TO.N,GND*%
X67100000Y-76600000D02*
X66375000Y-76600000D01*
X66375000Y-76600000D02*
X66100000Y-76325000D01*
%TO.N,+3.3V*%
X70955000Y-67155000D02*
X70900000Y-67100000D01*
X70955000Y-67785000D02*
X70955000Y-67155000D01*
%TO.N,GND*%
X71915000Y-67115000D02*
X71900000Y-67100000D01*
X71915000Y-67785000D02*
X71915000Y-67115000D01*
X71750000Y-69325000D02*
X71750000Y-67950000D01*
X71750000Y-67950000D02*
X71915000Y-67785000D01*
%TO.N,+3.3V*%
X71250000Y-69325000D02*
X71250000Y-68080000D01*
X71250000Y-68080000D02*
X70955000Y-67785000D01*
X67140000Y-77560000D02*
X67100000Y-77600000D01*
X67700000Y-77560000D02*
X67140000Y-77560000D01*
X69325000Y-77250000D02*
X68010000Y-77250000D01*
X68010000Y-77250000D02*
X67700000Y-77560000D01*
%TO.N,GND*%
X67700000Y-76600000D02*
X67100000Y-76600000D01*
X69325000Y-76750000D02*
X67850000Y-76750000D01*
X67850000Y-76750000D02*
X67700000Y-76600000D01*
%TO.N,+3.3V*%
X78760000Y-82860000D02*
X78800000Y-82900000D01*
X78760000Y-82300000D02*
X78760000Y-82860000D01*
%TO.N,GND*%
X77800000Y-82300000D02*
X77800000Y-82900000D01*
%TO.N,+3.3V*%
X78750000Y-80675000D02*
X78750000Y-82290000D01*
X78750000Y-82290000D02*
X78760000Y-82300000D01*
%TO.N,GND*%
X78250000Y-80675000D02*
X78250000Y-81850000D01*
X78250000Y-81850000D02*
X77800000Y-82300000D01*
X71140000Y-82860000D02*
X71100000Y-82900000D01*
X71140000Y-82300000D02*
X71140000Y-82860000D01*
%TO.N,+3.3V*%
X72100000Y-82300000D02*
X72100000Y-82900000D01*
X72250000Y-80675000D02*
X72250000Y-82150000D01*
X72250000Y-82150000D02*
X72100000Y-82300000D01*
%TO.N,GND*%
X71750000Y-80675000D02*
X71750000Y-81690000D01*
X71750000Y-81690000D02*
X71140000Y-82300000D01*
%TO.N,+3.3V*%
X67780000Y-70720000D02*
X67800000Y-70700000D01*
X67780000Y-71300000D02*
X67780000Y-70720000D01*
%TO.N,GND*%
X66820000Y-71300000D02*
X66300000Y-71300000D01*
%TO.N,+3.3V*%
X69325000Y-71250000D02*
X67830000Y-71250000D01*
X67830000Y-71250000D02*
X67780000Y-71300000D01*
%TO.N,GND*%
X83500000Y-72080000D02*
X82300000Y-72080000D01*
%TO.N,+3.3V*%
X83500000Y-71120000D02*
X82300000Y-71120000D01*
%TO.N,GND*%
X80675000Y-71750000D02*
X81970000Y-71750000D01*
X81970000Y-71750000D02*
X82300000Y-72080000D01*
%TO.N,+3.3V*%
X80675000Y-71250000D02*
X82170000Y-71250000D01*
X82170000Y-71250000D02*
X82300000Y-71120000D01*
%TO.N,/NRST*%
X73000000Y-55100000D02*
X82960000Y-55100000D01*
X82960000Y-55100000D02*
X83800000Y-54260000D01*
%TO.N,+3.3V*%
X77540000Y-51660000D02*
X77600000Y-51600000D01*
X77540000Y-53050000D02*
X77540000Y-51660000D01*
%TO.N,GND*%
X72460000Y-51640000D02*
X72500000Y-51600000D01*
X72460000Y-53050000D02*
X72460000Y-51640000D01*
X76270000Y-51670000D02*
X76200000Y-51600000D01*
X76270000Y-53050000D02*
X76270000Y-51670000D01*
X75000000Y-53050000D02*
X75000000Y-51600000D01*
X82950000Y-51700000D02*
X82200000Y-51700000D01*
X87050000Y-51700000D02*
X87800000Y-51700000D01*
X85500000Y-55000000D02*
X86100000Y-55000000D01*
%TO.N,/NRST*%
X82950000Y-53300000D02*
X83800000Y-53300000D01*
X84540000Y-55000000D02*
X83800000Y-54260000D01*
X83800000Y-54260000D02*
X83800000Y-53300000D01*
X83800000Y-53300000D02*
X87050000Y-53300000D01*
%TO.N,/BOOT_0*%
X62950000Y-51700000D02*
X66200000Y-51700000D01*
X65428224Y-55000000D02*
X66200000Y-54228224D01*
X65420000Y-55000000D02*
X65428224Y-55000000D01*
X66200000Y-54228224D02*
X66200000Y-51700000D01*
%TO.N,GND*%
X64400000Y-55000000D02*
X63800000Y-55000000D01*
%TO.N,/BOOT_0*%
X66200000Y-51700000D02*
X67050000Y-51700000D01*
%TO.N,+3.3V*%
X67050000Y-53300000D02*
X67800000Y-53300000D01*
X62950000Y-53300000D02*
X62200000Y-53300000D01*
%TO.N,GND*%
X62950000Y-98300000D02*
X62200000Y-98300000D01*
X67050000Y-98300000D02*
X67800000Y-98300000D01*
X67380000Y-95000000D02*
X67900000Y-95000000D01*
%TO.N,/USR_BTN_1*%
X66000000Y-95000000D02*
X66420000Y-95000000D01*
%TO.N,+3.3V*%
X62590000Y-95000000D02*
X62100000Y-95000000D01*
%TO.N,Net-(R10-Pad1)*%
X62950000Y-96700000D02*
X63600000Y-96700000D01*
X63610000Y-95000000D02*
X63610000Y-96690000D01*
X63610000Y-96690000D02*
X63600000Y-96700000D01*
X63600000Y-96700000D02*
X67050000Y-96700000D01*
X63610000Y-95000000D02*
X64490000Y-95000000D01*
%TO.N,GND*%
X84550000Y-98300000D02*
X85300000Y-98300000D01*
X80450000Y-98300000D02*
X79700000Y-98300000D01*
%TO.N,+3.3V*%
X80090000Y-95000000D02*
X79500000Y-95000000D01*
%TO.N,GND*%
X84860000Y-95000000D02*
X85400000Y-95000000D01*
%TO.N,/USR_BTN_2*%
X83500000Y-95000000D02*
X83900000Y-95000000D01*
%TO.N,Net-(R11-Pad1)*%
X81110000Y-95000000D02*
X81110000Y-96040000D01*
X81110000Y-96040000D02*
X80450000Y-96700000D01*
X80450000Y-96700000D02*
X84550000Y-96700000D01*
X81110000Y-95000000D02*
X82000000Y-95000000D01*
%TO.N,GND*%
X85862500Y-73000000D02*
X87000000Y-73000000D01*
%TO.N,/USBDP*%
X80675000Y-72750000D02*
X84450000Y-72750000D01*
X84450000Y-72750000D02*
X85150000Y-72050000D01*
X85150000Y-72050000D02*
X85862500Y-72050000D01*
%TO.N,/USBDM*%
X85862500Y-73950000D02*
X85200001Y-73950000D01*
X85200001Y-73950000D02*
X84500001Y-73250000D01*
X84500001Y-73250000D02*
X80675000Y-73250000D01*
%TO.N,/D+*%
X89500000Y-72300000D02*
X90730000Y-72300000D01*
%TO.N,GND*%
X91955000Y-69750000D02*
X90640000Y-69750000D01*
X91955000Y-76250000D02*
X91040000Y-76250000D01*
X91040000Y-76250000D02*
X90200000Y-75410000D01*
%TO.N,Net-(J1-CC2)*%
X91955000Y-71250000D02*
X90240000Y-71250000D01*
X90240000Y-71250000D02*
X90200000Y-71210000D01*
%TO.N,Net-(J1-CC1)*%
X91955000Y-74250000D02*
X90340000Y-74250000D01*
X90340000Y-74250000D02*
X90200000Y-74390000D01*
%TO.N,/D+*%
X88137500Y-72050000D02*
X89250000Y-72050000D01*
X89250000Y-72050000D02*
X89500000Y-72300000D01*
X90730000Y-72300000D02*
X90930000Y-72500000D01*
X90930000Y-73200000D02*
X90930000Y-72500000D01*
%TO.N,/D-*%
X88137500Y-73950000D02*
X89350000Y-73950000D01*
X89350000Y-73950000D02*
X89550000Y-73750000D01*
X89550000Y-73750000D02*
X91955000Y-73750000D01*
X91955000Y-72750000D02*
X92930000Y-72750000D01*
X92980000Y-72800000D02*
X92980000Y-73700000D01*
X92980000Y-73700000D02*
X92930000Y-73750000D01*
X92930000Y-72750000D02*
X92980000Y-72800000D01*
X92930000Y-73750000D02*
X91955000Y-73750000D01*
%TO.N,/D+*%
X91955000Y-73250000D02*
X90980000Y-73250000D01*
X90980000Y-73250000D02*
X90930000Y-73200000D01*
X90930000Y-72500000D02*
X90930000Y-72300000D01*
X90930000Y-72300000D02*
X90980000Y-72250000D01*
X90980000Y-72250000D02*
X91955000Y-72250000D01*
%TO.N,GND*%
X90640000Y-69750000D02*
X90200000Y-70190000D01*
%TD*%
%TA.AperFunction,Conductor*%
%TO.N,GND*%
G36*
X67317993Y-75452348D02*
G01*
X67333479Y-75454801D01*
X67358535Y-75473004D01*
X67419596Y-75534065D01*
X67419597Y-75534065D01*
X67419598Y-75534066D01*
X67526824Y-75584067D01*
X67526825Y-75584067D01*
X67526827Y-75584068D01*
X67575684Y-75590500D01*
X67575685Y-75590500D01*
X68024314Y-75590500D01*
X68024316Y-75590500D01*
X68073173Y-75584068D01*
X68180404Y-75534065D01*
X68188972Y-75525496D01*
X68243486Y-75497718D01*
X68303918Y-75507288D01*
X68347184Y-75550551D01*
X68356758Y-75610983D01*
X68356074Y-75614811D01*
X68349500Y-75647859D01*
X68349500Y-75826465D01*
X68330593Y-75884656D01*
X68281093Y-75920620D01*
X68219907Y-75920620D01*
X68200105Y-75911678D01*
X68126197Y-75867969D01*
X67970912Y-75822855D01*
X67950000Y-75821209D01*
X67950000Y-76501000D01*
X67931093Y-76559191D01*
X67881593Y-76595155D01*
X67851000Y-76600000D01*
X67549000Y-76600000D01*
X67490809Y-76581093D01*
X67454845Y-76531593D01*
X67450000Y-76501000D01*
X67450000Y-75821209D01*
X67429087Y-75822855D01*
X67273803Y-75867968D01*
X67181432Y-75922596D01*
X67161423Y-75927068D01*
X67142816Y-75935679D01*
X67132240Y-75933591D01*
X67121720Y-75935943D01*
X67102903Y-75927799D01*
X67082789Y-75923829D01*
X67076694Y-75916457D01*
X67065567Y-75911642D01*
X67041192Y-75878959D01*
X66965742Y-75715916D01*
X66962770Y-75691122D01*
X66956871Y-75666860D01*
X66959187Y-75661220D01*
X66958462Y-75655166D01*
X66970631Y-75633361D01*
X66980120Y-75610264D01*
X66985310Y-75607062D01*
X66988282Y-75601738D01*
X67010943Y-75591251D01*
X67032196Y-75578142D01*
X67042659Y-75576186D01*
X67059487Y-75573972D01*
X67059488Y-75573971D01*
X67059490Y-75573971D01*
X67153585Y-75530093D01*
X67168316Y-75523224D01*
X67218533Y-75473006D01*
X67232501Y-75465889D01*
X67243590Y-75454801D01*
X67259077Y-75452348D01*
X67273047Y-75445230D01*
X67288534Y-75447682D01*
X67304022Y-75445230D01*
X67317993Y-75452348D01*
G37*
%TD.AperFunction*%
%TA.AperFunction,Conductor*%
G36*
X73676555Y-66636564D02*
G01*
X73712519Y-66686064D01*
X73712519Y-66747250D01*
X73688368Y-66786661D01*
X73065489Y-67409540D01*
X73065488Y-67409539D01*
X73009539Y-67465489D01*
X72969980Y-67534007D01*
X72969978Y-67534011D01*
X72949500Y-67610435D01*
X72949500Y-68250500D01*
X72930593Y-68308691D01*
X72881093Y-68344655D01*
X72850500Y-68349500D01*
X72737894Y-68349500D01*
X72679703Y-68330593D01*
X72643739Y-68281093D01*
X72643739Y-68219907D01*
X72647030Y-68211199D01*
X72692144Y-68055912D01*
X72693791Y-68035000D01*
X72014000Y-68035000D01*
X71955809Y-68016093D01*
X71919845Y-67966593D01*
X71915000Y-67936000D01*
X71915000Y-67785001D01*
X71914999Y-67785000D01*
X71764000Y-67785000D01*
X71705809Y-67766093D01*
X71669845Y-67716593D01*
X71665000Y-67686000D01*
X71665000Y-67534999D01*
X72165000Y-67534999D01*
X72165001Y-67535000D01*
X72693789Y-67535000D01*
X72692144Y-67514087D01*
X72692143Y-67514079D01*
X72647030Y-67358802D01*
X72647030Y-67358801D01*
X72564721Y-67219625D01*
X72450374Y-67105278D01*
X72311198Y-67022969D01*
X72311194Y-67022968D01*
X72165000Y-66980494D01*
X72165000Y-67534999D01*
X71665000Y-67534999D01*
X71665000Y-66980494D01*
X71518805Y-67022968D01*
X71518801Y-67022969D01*
X71481687Y-67044919D01*
X71421975Y-67058267D01*
X71365822Y-67033967D01*
X71335666Y-66985331D01*
X71319799Y-66926114D01*
X71319797Y-66926111D01*
X71319797Y-66926109D01*
X71260492Y-66823391D01*
X71260490Y-66823389D01*
X71260489Y-66823387D01*
X71223760Y-66786658D01*
X71195985Y-66732144D01*
X71205556Y-66671712D01*
X71248821Y-66628447D01*
X71293766Y-66617657D01*
X73618364Y-66617657D01*
X73676555Y-66636564D01*
G37*
%TD.AperFunction*%
%TA.AperFunction,Conductor*%
G36*
X96002421Y-50300619D02*
G01*
X96032909Y-50302116D01*
X96357776Y-50318076D01*
X96367418Y-50319026D01*
X96716933Y-50370872D01*
X96726439Y-50372762D01*
X97069201Y-50458620D01*
X97078472Y-50461432D01*
X97411161Y-50580470D01*
X97420130Y-50584185D01*
X97739551Y-50735259D01*
X97748093Y-50739826D01*
X98051156Y-50921475D01*
X98059234Y-50926872D01*
X98343035Y-51137353D01*
X98350542Y-51143515D01*
X98612342Y-51380797D01*
X98619202Y-51387657D01*
X98820568Y-51609829D01*
X98856482Y-51649454D01*
X98862646Y-51656964D01*
X99073127Y-51940765D01*
X99078524Y-51948843D01*
X99079218Y-51950001D01*
X99208156Y-52165121D01*
X99260166Y-52251893D01*
X99264743Y-52260456D01*
X99292525Y-52319195D01*
X99415812Y-52579866D01*
X99419530Y-52588842D01*
X99538563Y-52921514D01*
X99541383Y-52930811D01*
X99627234Y-53273549D01*
X99629129Y-53283078D01*
X99680971Y-53632567D01*
X99681924Y-53642235D01*
X99687243Y-53750500D01*
X99699045Y-53990748D01*
X99699381Y-53997577D01*
X99699500Y-54002435D01*
X99699500Y-95997564D01*
X99699381Y-96002422D01*
X99681924Y-96357764D01*
X99680971Y-96367432D01*
X99629129Y-96716921D01*
X99627234Y-96726450D01*
X99541383Y-97069188D01*
X99538563Y-97078485D01*
X99419530Y-97411157D01*
X99415812Y-97420133D01*
X99264746Y-97739538D01*
X99260166Y-97748106D01*
X99078524Y-98051156D01*
X99073127Y-98059234D01*
X98862646Y-98343035D01*
X98856482Y-98350545D01*
X98619207Y-98612337D01*
X98612337Y-98619207D01*
X98350545Y-98856482D01*
X98343035Y-98862646D01*
X98059234Y-99073127D01*
X98051156Y-99078524D01*
X97748106Y-99260166D01*
X97739538Y-99264746D01*
X97420133Y-99415812D01*
X97411157Y-99419530D01*
X97078485Y-99538563D01*
X97069188Y-99541383D01*
X96726450Y-99627234D01*
X96716921Y-99629129D01*
X96367432Y-99680971D01*
X96357764Y-99681924D01*
X96002422Y-99699381D01*
X95997564Y-99699500D01*
X54002436Y-99699500D01*
X53997578Y-99699381D01*
X53642235Y-99681924D01*
X53632567Y-99680971D01*
X53283078Y-99629129D01*
X53273549Y-99627234D01*
X52930811Y-99541383D01*
X52921514Y-99538563D01*
X52588842Y-99419530D01*
X52579866Y-99415812D01*
X52329006Y-99297165D01*
X52260456Y-99264743D01*
X52251899Y-99260169D01*
X52100368Y-99169345D01*
X51948843Y-99078524D01*
X51940765Y-99073127D01*
X51656964Y-98862646D01*
X51649454Y-98856482D01*
X51532295Y-98750295D01*
X51387657Y-98619202D01*
X51380797Y-98612342D01*
X51324294Y-98550001D01*
X62000000Y-98550001D01*
X62000000Y-98729122D01*
X62002832Y-98765121D01*
X62002834Y-98765128D01*
X62047595Y-98919195D01*
X62047595Y-98919196D01*
X62129261Y-99057285D01*
X62242714Y-99170738D01*
X62380804Y-99252404D01*
X62534871Y-99297165D01*
X62534878Y-99297167D01*
X62570877Y-99300000D01*
X62699999Y-99300000D01*
X62700000Y-99299999D01*
X62700000Y-98550001D01*
X63200000Y-98550001D01*
X63200000Y-99299999D01*
X63200001Y-99300000D01*
X63329123Y-99300000D01*
X63365121Y-99297167D01*
X63365128Y-99297165D01*
X63519195Y-99252404D01*
X63519196Y-99252404D01*
X63657285Y-99170738D01*
X63770738Y-99057285D01*
X63852404Y-98919196D01*
X63852404Y-98919195D01*
X63897165Y-98765128D01*
X63897167Y-98765121D01*
X63900000Y-98729122D01*
X63900000Y-98550001D01*
X66100000Y-98550001D01*
X66100000Y-98729122D01*
X66102832Y-98765121D01*
X66102834Y-98765128D01*
X66147595Y-98919195D01*
X66147595Y-98919196D01*
X66229261Y-99057285D01*
X66342714Y-99170738D01*
X66480804Y-99252404D01*
X66634871Y-99297165D01*
X66634878Y-99297167D01*
X66670877Y-99300000D01*
X66799999Y-99300000D01*
X66800000Y-99299999D01*
X66800000Y-98550001D01*
X67300000Y-98550001D01*
X67300000Y-99299999D01*
X67300001Y-99300000D01*
X67429123Y-99300000D01*
X67465121Y-99297167D01*
X67465128Y-99297165D01*
X67619195Y-99252404D01*
X67619196Y-99252404D01*
X67757285Y-99170738D01*
X67870738Y-99057285D01*
X67952404Y-98919196D01*
X67952404Y-98919195D01*
X67997165Y-98765128D01*
X67997167Y-98765121D01*
X68000000Y-98729122D01*
X68000000Y-98550001D01*
X79500000Y-98550001D01*
X79500000Y-98729122D01*
X79502832Y-98765121D01*
X79502834Y-98765128D01*
X79547595Y-98919195D01*
X79547595Y-98919196D01*
X79629261Y-99057285D01*
X79742714Y-99170738D01*
X79880804Y-99252404D01*
X80034871Y-99297165D01*
X80034878Y-99297167D01*
X80070877Y-99300000D01*
X80199999Y-99300000D01*
X80200000Y-99299999D01*
X80200000Y-98550001D01*
X80700000Y-98550001D01*
X80700000Y-99299999D01*
X80700001Y-99300000D01*
X80829123Y-99300000D01*
X80865121Y-99297167D01*
X80865128Y-99297165D01*
X81019195Y-99252404D01*
X81019196Y-99252404D01*
X81157285Y-99170738D01*
X81270738Y-99057285D01*
X81352404Y-98919196D01*
X81352404Y-98919195D01*
X81397165Y-98765128D01*
X81397167Y-98765121D01*
X81400000Y-98729122D01*
X81400000Y-98550001D01*
X83600000Y-98550001D01*
X83600000Y-98729122D01*
X83602832Y-98765121D01*
X83602834Y-98765128D01*
X83647595Y-98919195D01*
X83647595Y-98919196D01*
X83729261Y-99057285D01*
X83842714Y-99170738D01*
X83980804Y-99252404D01*
X84134871Y-99297165D01*
X84134878Y-99297167D01*
X84170877Y-99300000D01*
X84299999Y-99300000D01*
X84300000Y-99299999D01*
X84300000Y-98550001D01*
X84800000Y-98550001D01*
X84800000Y-99299999D01*
X84800001Y-99300000D01*
X84929123Y-99300000D01*
X84965121Y-99297167D01*
X84965128Y-99297165D01*
X85119195Y-99252404D01*
X85119196Y-99252404D01*
X85257285Y-99170738D01*
X85370738Y-99057285D01*
X85452404Y-98919196D01*
X85452404Y-98919195D01*
X85497165Y-98765128D01*
X85497167Y-98765121D01*
X85500000Y-98729122D01*
X85500000Y-98550001D01*
X85499999Y-98550000D01*
X84800001Y-98550000D01*
X84800000Y-98550001D01*
X84300000Y-98550001D01*
X84299999Y-98550000D01*
X83600001Y-98550000D01*
X83600000Y-98550001D01*
X81400000Y-98550001D01*
X81399999Y-98550000D01*
X80700001Y-98550000D01*
X80700000Y-98550001D01*
X80200000Y-98550001D01*
X80199999Y-98550000D01*
X79500001Y-98550000D01*
X79500000Y-98550001D01*
X68000000Y-98550001D01*
X67999999Y-98550000D01*
X67300001Y-98550000D01*
X67300000Y-98550001D01*
X66800000Y-98550001D01*
X66799999Y-98550000D01*
X66100001Y-98550000D01*
X66100000Y-98550001D01*
X63900000Y-98550001D01*
X63899999Y-98550000D01*
X63200001Y-98550000D01*
X63200000Y-98550001D01*
X62700000Y-98550001D01*
X62699999Y-98550000D01*
X62000001Y-98550000D01*
X62000000Y-98550001D01*
X51324294Y-98550001D01*
X51143515Y-98350542D01*
X51137353Y-98343035D01*
X50926872Y-98059234D01*
X50921475Y-98051156D01*
X50920782Y-98049999D01*
X50739826Y-97748093D01*
X50735259Y-97739551D01*
X50584185Y-97420130D01*
X50580469Y-97411157D01*
X50576656Y-97400500D01*
X50461432Y-97078472D01*
X50458620Y-97069201D01*
X50372762Y-96726439D01*
X50370872Y-96716933D01*
X50319026Y-96367418D01*
X50318076Y-96357776D01*
X50302116Y-96032909D01*
X50300619Y-96002421D01*
X50300500Y-95997564D01*
X50300500Y-84787824D01*
X52649999Y-84787824D01*
X52656401Y-84847370D01*
X52656403Y-84847381D01*
X52706646Y-84982088D01*
X52706647Y-84982090D01*
X52792807Y-85097184D01*
X52792815Y-85097192D01*
X52907909Y-85183352D01*
X52907911Y-85183353D01*
X53042618Y-85233596D01*
X53042629Y-85233598D01*
X53102176Y-85240000D01*
X53749999Y-85240000D01*
X53750000Y-85239999D01*
X53750000Y-84323012D01*
X53807007Y-84355925D01*
X53934174Y-84390000D01*
X54065826Y-84390000D01*
X54192993Y-84355925D01*
X54250000Y-84323012D01*
X54250000Y-85239999D01*
X54250001Y-85240000D01*
X54897824Y-85240000D01*
X54957370Y-85233598D01*
X54957381Y-85233596D01*
X55092088Y-85183353D01*
X55092090Y-85183352D01*
X55207184Y-85097192D01*
X55207192Y-85097184D01*
X55293352Y-84982090D01*
X55293353Y-84982088D01*
X55343596Y-84847381D01*
X55343598Y-84847370D01*
X55350000Y-84787824D01*
X55350000Y-84140001D01*
X55349999Y-84140000D01*
X54433012Y-84140000D01*
X54465925Y-84082993D01*
X54500000Y-83955826D01*
X54500000Y-83824174D01*
X54465925Y-83697007D01*
X54433012Y-83640000D01*
X55349999Y-83640000D01*
X55350000Y-83639999D01*
X55350000Y-82992175D01*
X55343598Y-82932629D01*
X55343596Y-82932618D01*
X55293353Y-82797911D01*
X55293352Y-82797909D01*
X55207192Y-82682815D01*
X55207184Y-82682807D01*
X55092090Y-82596647D01*
X55092088Y-82596646D01*
X54957381Y-82546403D01*
X54957370Y-82546401D01*
X54897824Y-82540000D01*
X54369881Y-82540000D01*
X54311690Y-82521093D01*
X54275726Y-82471593D01*
X54275726Y-82410407D01*
X54311690Y-82360907D01*
X54331992Y-82349537D01*
X54497598Y-82280941D01*
X54669655Y-82165977D01*
X54815977Y-82019655D01*
X54930941Y-81847598D01*
X54984247Y-81718907D01*
X54987268Y-81711614D01*
X55027005Y-81665088D01*
X55078732Y-81650500D01*
X60371442Y-81650500D01*
X60429633Y-81669407D01*
X60465597Y-81718907D01*
X60467068Y-81775122D01*
X60449500Y-81840691D01*
X60449500Y-81959309D01*
X60465669Y-82019651D01*
X60480202Y-82073890D01*
X60539507Y-82176608D01*
X60539509Y-82176610D01*
X60539511Y-82176613D01*
X60623387Y-82260489D01*
X60623389Y-82260490D01*
X60623391Y-82260492D01*
X60726110Y-82319797D01*
X60726111Y-82319797D01*
X60726114Y-82319799D01*
X60840691Y-82350500D01*
X60840693Y-82350500D01*
X60959307Y-82350500D01*
X60959309Y-82350500D01*
X61073886Y-82319799D01*
X61073888Y-82319797D01*
X61073890Y-82319797D01*
X61176608Y-82260492D01*
X61176608Y-82260491D01*
X61176613Y-82260489D01*
X61207607Y-82229495D01*
X61214724Y-82225868D01*
X61219419Y-82219407D01*
X61241468Y-82212242D01*
X61262124Y-82201719D01*
X61277610Y-82200500D01*
X61384840Y-82200500D01*
X61443031Y-82219407D01*
X61478995Y-82268907D01*
X61480467Y-82325123D01*
X61480201Y-82326112D01*
X61480201Y-82326114D01*
X61449500Y-82440691D01*
X61449500Y-82559309D01*
X61476574Y-82660351D01*
X61480202Y-82673890D01*
X61539507Y-82776608D01*
X61539509Y-82776610D01*
X61539511Y-82776613D01*
X61623387Y-82860489D01*
X61623389Y-82860490D01*
X61623391Y-82860492D01*
X61726110Y-82919797D01*
X61726111Y-82919797D01*
X61726114Y-82919799D01*
X61840691Y-82950500D01*
X61840693Y-82950500D01*
X61959307Y-82950500D01*
X61959309Y-82950500D01*
X62073886Y-82919799D01*
X62073897Y-82919792D01*
X62078181Y-82918019D01*
X62139178Y-82913215D01*
X62186076Y-82939477D01*
X64881110Y-85634511D01*
X64881109Y-85634511D01*
X64937059Y-85690460D01*
X65005577Y-85730019D01*
X65005581Y-85730021D01*
X65082005Y-85750499D01*
X65082007Y-85750500D01*
X65082008Y-85750500D01*
X67285521Y-85750500D01*
X67343712Y-85769407D01*
X67379676Y-85818907D01*
X67379676Y-85880093D01*
X67355525Y-85919504D01*
X65815489Y-87459540D01*
X65815488Y-87459539D01*
X65759539Y-87515489D01*
X65719980Y-87584007D01*
X65719978Y-87584011D01*
X65699500Y-87660435D01*
X65699500Y-94380500D01*
X65680593Y-94438691D01*
X65631093Y-94474655D01*
X65600500Y-94479500D01*
X65335684Y-94479500D01*
X65330504Y-94480182D01*
X65286825Y-94485932D01*
X65286824Y-94485932D01*
X65179598Y-94535933D01*
X65095933Y-94619598D01*
X65089724Y-94632915D01*
X65047995Y-94677663D01*
X64987934Y-94689337D01*
X64932482Y-94663478D01*
X64910276Y-94632915D01*
X64904066Y-94619598D01*
X64904065Y-94619597D01*
X64904065Y-94619596D01*
X64820404Y-94535935D01*
X64820402Y-94535934D01*
X64820401Y-94535933D01*
X64713175Y-94485932D01*
X64669496Y-94480182D01*
X64664316Y-94479500D01*
X64315684Y-94479500D01*
X64310504Y-94480182D01*
X64266825Y-94485932D01*
X64266824Y-94485932D01*
X64159598Y-94535933D01*
X64159596Y-94535934D01*
X64159596Y-94535935D01*
X64120001Y-94575529D01*
X64065487Y-94603305D01*
X64005055Y-94593734D01*
X63979999Y-94575530D01*
X63940404Y-94535935D01*
X63940402Y-94535934D01*
X63940401Y-94535933D01*
X63833175Y-94485932D01*
X63789496Y-94480182D01*
X63784316Y-94479500D01*
X63435684Y-94479500D01*
X63430504Y-94480182D01*
X63386825Y-94485932D01*
X63386824Y-94485932D01*
X63279598Y-94535933D01*
X63195933Y-94619598D01*
X63189724Y-94632915D01*
X63147995Y-94677663D01*
X63087934Y-94689337D01*
X63032482Y-94663478D01*
X63010276Y-94632915D01*
X63004066Y-94619598D01*
X63004065Y-94619597D01*
X63004065Y-94619596D01*
X62920404Y-94535935D01*
X62920402Y-94535934D01*
X62920401Y-94535933D01*
X62813175Y-94485932D01*
X62769496Y-94480182D01*
X62764316Y-94479500D01*
X62415684Y-94479500D01*
X62410504Y-94480182D01*
X62366825Y-94485932D01*
X62366824Y-94485932D01*
X62259593Y-94535935D01*
X62255638Y-94538705D01*
X62197125Y-94556590D01*
X62173239Y-94553232D01*
X62159311Y-94549500D01*
X62159309Y-94549500D01*
X62040691Y-94549500D01*
X61972298Y-94567826D01*
X61926109Y-94580202D01*
X61823391Y-94639507D01*
X61739507Y-94723391D01*
X61680202Y-94826109D01*
X61680201Y-94826114D01*
X61649500Y-94940691D01*
X61649500Y-95059309D01*
X61674069Y-95151000D01*
X61680202Y-95173890D01*
X61739507Y-95276608D01*
X61739509Y-95276610D01*
X61739511Y-95276613D01*
X61823387Y-95360489D01*
X61823389Y-95360490D01*
X61823391Y-95360492D01*
X61926110Y-95419797D01*
X61926111Y-95419797D01*
X61926114Y-95419799D01*
X62040691Y-95450500D01*
X62040693Y-95450500D01*
X62159308Y-95450500D01*
X62159309Y-95450500D01*
X62173236Y-95446768D01*
X62234335Y-95449968D01*
X62255643Y-95461297D01*
X62259594Y-95464063D01*
X62259596Y-95464065D01*
X62259597Y-95464065D01*
X62259598Y-95464066D01*
X62366824Y-95514067D01*
X62366825Y-95514067D01*
X62366827Y-95514068D01*
X62415684Y-95520500D01*
X62415685Y-95520500D01*
X62764314Y-95520500D01*
X62764316Y-95520500D01*
X62813173Y-95514068D01*
X62920404Y-95464065D01*
X63004065Y-95380404D01*
X63010275Y-95367085D01*
X63052003Y-95322337D01*
X63112064Y-95310662D01*
X63167517Y-95336519D01*
X63174445Y-95343664D01*
X63183755Y-95354284D01*
X63195935Y-95380404D01*
X63279596Y-95464065D01*
X63280264Y-95464376D01*
X63284945Y-95469716D01*
X63295792Y-95494977D01*
X63308281Y-95519489D01*
X63308721Y-95525088D01*
X63309086Y-95525937D01*
X63308865Y-95526911D01*
X63309500Y-95534976D01*
X63309500Y-95900500D01*
X63290593Y-95958691D01*
X63241093Y-95994655D01*
X63210500Y-95999500D01*
X62595684Y-95999500D01*
X62590504Y-96000182D01*
X62546825Y-96005932D01*
X62546824Y-96005932D01*
X62439598Y-96055933D01*
X62355933Y-96139598D01*
X62305932Y-96246824D01*
X62305932Y-96246825D01*
X62299500Y-96295685D01*
X62299500Y-97104314D01*
X62305932Y-97153174D01*
X62305932Y-97153175D01*
X62355242Y-97258919D01*
X62362699Y-97319648D01*
X62333036Y-97373162D01*
X62315914Y-97385971D01*
X62242713Y-97429262D01*
X62129261Y-97542714D01*
X62047595Y-97680803D01*
X62047595Y-97680804D01*
X62002834Y-97834871D01*
X62002832Y-97834878D01*
X62000000Y-97870877D01*
X62000000Y-98049999D01*
X62000001Y-98050000D01*
X63899999Y-98050000D01*
X63900000Y-98049999D01*
X63900000Y-97870877D01*
X63897167Y-97834878D01*
X63897165Y-97834871D01*
X63852404Y-97680804D01*
X63852404Y-97680803D01*
X63770738Y-97542714D01*
X63657285Y-97429261D01*
X63584086Y-97385971D01*
X63543623Y-97340075D01*
X63537865Y-97279161D01*
X63544757Y-97258919D01*
X63594068Y-97153173D01*
X63600500Y-97104316D01*
X63600500Y-97099500D01*
X63619407Y-97041309D01*
X63668907Y-97005345D01*
X63699500Y-97000500D01*
X66300500Y-97000500D01*
X66358691Y-97019407D01*
X66394655Y-97068907D01*
X66399500Y-97099500D01*
X66399500Y-97104314D01*
X66405932Y-97153174D01*
X66405932Y-97153175D01*
X66455242Y-97258919D01*
X66462699Y-97319648D01*
X66433036Y-97373162D01*
X66415914Y-97385971D01*
X66342713Y-97429262D01*
X66229261Y-97542714D01*
X66147595Y-97680803D01*
X66147595Y-97680804D01*
X66102834Y-97834871D01*
X66102832Y-97834878D01*
X66100000Y-97870877D01*
X66100000Y-98049999D01*
X66100001Y-98050000D01*
X67999999Y-98050000D01*
X68000000Y-98049999D01*
X68000000Y-97870877D01*
X67997167Y-97834878D01*
X67997165Y-97834871D01*
X67952404Y-97680804D01*
X67952404Y-97680803D01*
X67870738Y-97542714D01*
X67757285Y-97429261D01*
X67684086Y-97385971D01*
X67643623Y-97340075D01*
X67637865Y-97279161D01*
X67644757Y-97258919D01*
X67694068Y-97153173D01*
X67700500Y-97104316D01*
X67700500Y-96295684D01*
X67694068Y-96246827D01*
X67665009Y-96184511D01*
X67644066Y-96139598D01*
X67644065Y-96139597D01*
X67644065Y-96139596D01*
X67560404Y-96055935D01*
X67560402Y-96055934D01*
X67560401Y-96055933D01*
X67453175Y-96005932D01*
X67409496Y-96000182D01*
X67404316Y-95999500D01*
X66695684Y-95999500D01*
X66690504Y-96000182D01*
X66646825Y-96005932D01*
X66646824Y-96005932D01*
X66539598Y-96055933D01*
X66455933Y-96139598D01*
X66405932Y-96246824D01*
X66405932Y-96246825D01*
X66399500Y-96295685D01*
X66399500Y-96300500D01*
X66394655Y-96315411D01*
X66394655Y-96331093D01*
X66385438Y-96343778D01*
X66380593Y-96358691D01*
X66367907Y-96367907D01*
X66358691Y-96380593D01*
X66343778Y-96385438D01*
X66331093Y-96394655D01*
X66300500Y-96399500D01*
X66149500Y-96399500D01*
X66091309Y-96380593D01*
X66055345Y-96331093D01*
X66050500Y-96300500D01*
X66050500Y-95840244D01*
X66050499Y-95840241D01*
X66050450Y-95839822D01*
X66047755Y-95816585D01*
X66005018Y-95719796D01*
X65930204Y-95644982D01*
X65930202Y-95644981D01*
X65874614Y-95620436D01*
X65872483Y-95618529D01*
X65869658Y-95618082D01*
X65849866Y-95598290D01*
X65829019Y-95579635D01*
X65828415Y-95576839D01*
X65826393Y-95574817D01*
X65822015Y-95547176D01*
X65816114Y-95519826D01*
X65817269Y-95517209D01*
X65816822Y-95514385D01*
X65829527Y-95489447D01*
X65840829Y-95463854D01*
X65844564Y-95459904D01*
X65896464Y-95408004D01*
X65950977Y-95380230D01*
X66011409Y-95389801D01*
X66036464Y-95408004D01*
X66081684Y-95453224D01*
X66190513Y-95503972D01*
X66240099Y-95510500D01*
X66599900Y-95510499D01*
X66625910Y-95507075D01*
X66686070Y-95518226D01*
X66724042Y-95554830D01*
X66730278Y-95565374D01*
X66844625Y-95679721D01*
X66983802Y-95762030D01*
X67119656Y-95801500D01*
X67130000Y-95801500D01*
X67130000Y-95250001D01*
X67630000Y-95250001D01*
X67630000Y-95804504D01*
X67776197Y-95762030D01*
X67776198Y-95762030D01*
X67915374Y-95679721D01*
X68029721Y-95565374D01*
X68112030Y-95426198D01*
X68112030Y-95426197D01*
X68157144Y-95270912D01*
X68158791Y-95250000D01*
X67630001Y-95250000D01*
X67630000Y-95250001D01*
X67130000Y-95250001D01*
X67130000Y-94749999D01*
X67630000Y-94749999D01*
X67630001Y-94750000D01*
X68158789Y-94750000D01*
X68157144Y-94729087D01*
X68157143Y-94729079D01*
X68112030Y-94573802D01*
X68112030Y-94573801D01*
X68029721Y-94434625D01*
X67915374Y-94320278D01*
X67776198Y-94237969D01*
X67776194Y-94237968D01*
X67630000Y-94195494D01*
X67630000Y-94749999D01*
X67130000Y-94749999D01*
X67130000Y-94195494D01*
X66983805Y-94237968D01*
X66983801Y-94237969D01*
X66844624Y-94320279D01*
X66844622Y-94320280D01*
X66730283Y-94434618D01*
X66724042Y-94445171D01*
X66678143Y-94485631D01*
X66625909Y-94492924D01*
X66599902Y-94489500D01*
X66599901Y-94489500D01*
X66399500Y-94489500D01*
X66341309Y-94470593D01*
X66305345Y-94421093D01*
X66300500Y-94390500D01*
X66300500Y-91037501D01*
X73025001Y-91037501D01*
X73025001Y-91054150D01*
X73035055Y-91152574D01*
X73035058Y-91152586D01*
X73087907Y-91312075D01*
X73176112Y-91455077D01*
X73294922Y-91573887D01*
X73437924Y-91662092D01*
X73597419Y-91714943D01*
X73695849Y-91724999D01*
X73749999Y-91724998D01*
X73750000Y-91724998D01*
X73750000Y-91037501D01*
X74250000Y-91037501D01*
X74250000Y-91724998D01*
X74250001Y-91724999D01*
X74304150Y-91724999D01*
X74402574Y-91714944D01*
X74402586Y-91714941D01*
X74562075Y-91662092D01*
X74705077Y-91573887D01*
X74823887Y-91455077D01*
X74915120Y-91307167D01*
X74917260Y-91308487D01*
X74951990Y-91271232D01*
X75012049Y-91259548D01*
X75067506Y-91285397D01*
X75083804Y-91307830D01*
X75084880Y-91307167D01*
X75176112Y-91455077D01*
X75294922Y-91573887D01*
X75437924Y-91662092D01*
X75597419Y-91714943D01*
X75695849Y-91724999D01*
X75749999Y-91724998D01*
X75750000Y-91724998D01*
X75750000Y-91037501D01*
X76250000Y-91037501D01*
X76250000Y-91724998D01*
X76250001Y-91724999D01*
X76304150Y-91724999D01*
X76402574Y-91714944D01*
X76402586Y-91714941D01*
X76562075Y-91662092D01*
X76705077Y-91573887D01*
X76823887Y-91455077D01*
X76912092Y-91312075D01*
X76964943Y-91152580D01*
X76975000Y-91054151D01*
X76975000Y-91037501D01*
X76974999Y-91037500D01*
X76250001Y-91037500D01*
X76250000Y-91037501D01*
X75750000Y-91037501D01*
X75749999Y-91037500D01*
X74250001Y-91037500D01*
X74250000Y-91037501D01*
X73750000Y-91037501D01*
X73749999Y-91037500D01*
X73025002Y-91037500D01*
X73025001Y-91037501D01*
X66300500Y-91037501D01*
X66300500Y-87865479D01*
X66319407Y-87807288D01*
X66329496Y-87795475D01*
X67945475Y-86179496D01*
X67999992Y-86151719D01*
X68015479Y-86150500D01*
X73450500Y-86150500D01*
X73508691Y-86169407D01*
X73544655Y-86218907D01*
X73549500Y-86249500D01*
X73549500Y-86359309D01*
X73580201Y-86473886D01*
X73580202Y-86473888D01*
X73597650Y-86504108D01*
X73610372Y-86563956D01*
X73585486Y-86619852D01*
X73581918Y-86623612D01*
X73535935Y-86669595D01*
X73535933Y-86669598D01*
X73485932Y-86776824D01*
X73485932Y-86776825D01*
X73479500Y-86825685D01*
X73479500Y-87174314D01*
X73485932Y-87223174D01*
X73485932Y-87223175D01*
X73535933Y-87330401D01*
X73535934Y-87330402D01*
X73535935Y-87330404D01*
X73619596Y-87414065D01*
X73619597Y-87414065D01*
X73619598Y-87414066D01*
X73632915Y-87420276D01*
X73677663Y-87462005D01*
X73689337Y-87522066D01*
X73663478Y-87577518D01*
X73632915Y-87599724D01*
X73619598Y-87605933D01*
X73535933Y-87689598D01*
X73485932Y-87796824D01*
X73485932Y-87796825D01*
X73479500Y-87845685D01*
X73479500Y-88194314D01*
X73485932Y-88243174D01*
X73485932Y-88243175D01*
X73535933Y-88350401D01*
X73535934Y-88350402D01*
X73535935Y-88350404D01*
X73619596Y-88434065D01*
X73619597Y-88434065D01*
X73624209Y-88438677D01*
X73651986Y-88493194D01*
X73642415Y-88553626D01*
X73599151Y-88596890D01*
X73494250Y-88650341D01*
X73400341Y-88744250D01*
X73340050Y-88862576D01*
X73340049Y-88862580D01*
X73324500Y-88960751D01*
X73324500Y-89464248D01*
X73340049Y-89562419D01*
X73340050Y-89562423D01*
X73367091Y-89615493D01*
X73400342Y-89680751D01*
X73470647Y-89751056D01*
X73498423Y-89805571D01*
X73488852Y-89866003D01*
X73445587Y-89909268D01*
X73442478Y-89910784D01*
X73437927Y-89912905D01*
X73294922Y-90001112D01*
X73176112Y-90119922D01*
X73087907Y-90262924D01*
X73035056Y-90422419D01*
X73025000Y-90520848D01*
X73025000Y-90537499D01*
X73025001Y-90537500D01*
X76974998Y-90537500D01*
X76974999Y-90537499D01*
X76974999Y-90520849D01*
X76964944Y-90422425D01*
X76964941Y-90422413D01*
X76912092Y-90262924D01*
X76823887Y-90119922D01*
X76705077Y-90001112D01*
X76562078Y-89912909D01*
X76557524Y-89910786D01*
X76512773Y-89869061D01*
X76501094Y-89809000D01*
X76526948Y-89753546D01*
X76529326Y-89751082D01*
X76599658Y-89680751D01*
X76659951Y-89562420D01*
X76675500Y-89464246D01*
X76675500Y-88960754D01*
X76659951Y-88862580D01*
X76599658Y-88744249D01*
X76505751Y-88650342D01*
X76503679Y-88649286D01*
X76400848Y-88596890D01*
X76357584Y-88553625D01*
X76348013Y-88493193D01*
X76375791Y-88438677D01*
X76380402Y-88434065D01*
X76380404Y-88434065D01*
X76464065Y-88350404D01*
X76514068Y-88243173D01*
X76520500Y-88194316D01*
X76520500Y-87845684D01*
X76514068Y-87796827D01*
X76464065Y-87689596D01*
X76380404Y-87605935D01*
X76367085Y-87599724D01*
X76322337Y-87557997D01*
X76310662Y-87497936D01*
X76336519Y-87442483D01*
X76367084Y-87420275D01*
X76380404Y-87414065D01*
X76464065Y-87330404D01*
X76514068Y-87223173D01*
X76520500Y-87174316D01*
X76520500Y-86825684D01*
X76514068Y-86776827D01*
X76464065Y-86669596D01*
X76418079Y-86623610D01*
X76390304Y-86569096D01*
X76399875Y-86508664D01*
X76402329Y-86504144D01*
X76419799Y-86473886D01*
X76450500Y-86359309D01*
X76450500Y-86240691D01*
X76419799Y-86126114D01*
X76419797Y-86126111D01*
X76419797Y-86126109D01*
X76360492Y-86023391D01*
X76360490Y-86023389D01*
X76360489Y-86023387D01*
X76276613Y-85939511D01*
X76276610Y-85939509D01*
X76276608Y-85939507D01*
X76173889Y-85880202D01*
X76173890Y-85880202D01*
X76160351Y-85876574D01*
X76059309Y-85849500D01*
X75940691Y-85849500D01*
X75870567Y-85868289D01*
X75826109Y-85880202D01*
X75723391Y-85939507D01*
X75639507Y-86023391D01*
X75580202Y-86126109D01*
X75565897Y-86179496D01*
X75549500Y-86240691D01*
X75549500Y-86359309D01*
X75580201Y-86473886D01*
X75580202Y-86473888D01*
X75597650Y-86504108D01*
X75610372Y-86563956D01*
X75585486Y-86619852D01*
X75581918Y-86623612D01*
X75535935Y-86669595D01*
X75535933Y-86669598D01*
X75485932Y-86776824D01*
X75485932Y-86776825D01*
X75479500Y-86825685D01*
X75479500Y-87174314D01*
X75485932Y-87223174D01*
X75485932Y-87223175D01*
X75535933Y-87330401D01*
X75535934Y-87330402D01*
X75535935Y-87330404D01*
X75619596Y-87414065D01*
X75619597Y-87414065D01*
X75619598Y-87414066D01*
X75632915Y-87420276D01*
X75677663Y-87462005D01*
X75689337Y-87522066D01*
X75663478Y-87577518D01*
X75632915Y-87599724D01*
X75619598Y-87605933D01*
X75535933Y-87689598D01*
X75485932Y-87796824D01*
X75485932Y-87796825D01*
X75479500Y-87845685D01*
X75479500Y-88194314D01*
X75485932Y-88243174D01*
X75485932Y-88243175D01*
X75535933Y-88350401D01*
X75535934Y-88350402D01*
X75535935Y-88350404D01*
X75619596Y-88434065D01*
X75619597Y-88434065D01*
X75624209Y-88438677D01*
X75651986Y-88493194D01*
X75642415Y-88553626D01*
X75599151Y-88596890D01*
X75494250Y-88650341D01*
X75400341Y-88744250D01*
X75340050Y-88862576D01*
X75340049Y-88862580D01*
X75324500Y-88960751D01*
X75324500Y-89464248D01*
X75340049Y-89562419D01*
X75340050Y-89562423D01*
X75367091Y-89615493D01*
X75400342Y-89680751D01*
X75470647Y-89751056D01*
X75498423Y-89805571D01*
X75488852Y-89866003D01*
X75445587Y-89909268D01*
X75442478Y-89910784D01*
X75437927Y-89912905D01*
X75294922Y-90001112D01*
X75176112Y-90119922D01*
X75084880Y-90267833D01*
X75082744Y-90266515D01*
X75047985Y-90303781D01*
X74987922Y-90315448D01*
X74932473Y-90289582D01*
X74916191Y-90267172D01*
X74915120Y-90267833D01*
X74823887Y-90119922D01*
X74705077Y-90001112D01*
X74562078Y-89912909D01*
X74557524Y-89910786D01*
X74512773Y-89869061D01*
X74501094Y-89809000D01*
X74526948Y-89753546D01*
X74529326Y-89751082D01*
X74599658Y-89680751D01*
X74659951Y-89562420D01*
X74675500Y-89464246D01*
X74675500Y-88960754D01*
X74659951Y-88862580D01*
X74599658Y-88744249D01*
X74505751Y-88650342D01*
X74503679Y-88649286D01*
X74400848Y-88596890D01*
X74357584Y-88553625D01*
X74348013Y-88493193D01*
X74375791Y-88438677D01*
X74380402Y-88434065D01*
X74380404Y-88434065D01*
X74464065Y-88350404D01*
X74514068Y-88243173D01*
X74520500Y-88194316D01*
X74520500Y-87845684D01*
X74514068Y-87796827D01*
X74464065Y-87689596D01*
X74380404Y-87605935D01*
X74367085Y-87599724D01*
X74322337Y-87557997D01*
X74310662Y-87497936D01*
X74336519Y-87442483D01*
X74367084Y-87420275D01*
X74380404Y-87414065D01*
X74464065Y-87330404D01*
X74514068Y-87223173D01*
X74520500Y-87174316D01*
X74520500Y-86825684D01*
X74514068Y-86776827D01*
X74464065Y-86669596D01*
X74418079Y-86623610D01*
X74390304Y-86569096D01*
X74399875Y-86508664D01*
X74402329Y-86504144D01*
X74419799Y-86473886D01*
X74450500Y-86359309D01*
X74450500Y-86240691D01*
X74419799Y-86126114D01*
X74419797Y-86126111D01*
X74419797Y-86126109D01*
X74360492Y-86023391D01*
X74360490Y-86023389D01*
X74360489Y-86023387D01*
X74276613Y-85939511D01*
X74276610Y-85939509D01*
X74276608Y-85939507D01*
X74173889Y-85880202D01*
X74173890Y-85880202D01*
X74159119Y-85876244D01*
X74059309Y-85849500D01*
X74059307Y-85849500D01*
X74053041Y-85847821D01*
X74053651Y-85845542D01*
X74007725Y-85823624D01*
X73978543Y-85769846D01*
X73986543Y-85709186D01*
X74005882Y-85681827D01*
X76411367Y-83276342D01*
X76465883Y-83248567D01*
X76526315Y-83258138D01*
X76551370Y-83276341D01*
X83170505Y-89895476D01*
X83198281Y-89949991D01*
X83199500Y-89965478D01*
X83199500Y-94380500D01*
X83180593Y-94438691D01*
X83131093Y-94474655D01*
X83100500Y-94479500D01*
X82845684Y-94479500D01*
X82840504Y-94480182D01*
X82796825Y-94485932D01*
X82796824Y-94485932D01*
X82689598Y-94535933D01*
X82605933Y-94619598D01*
X82599724Y-94632915D01*
X82557995Y-94677663D01*
X82497934Y-94689337D01*
X82442482Y-94663478D01*
X82420276Y-94632915D01*
X82414066Y-94619598D01*
X82414065Y-94619597D01*
X82414065Y-94619596D01*
X82330404Y-94535935D01*
X82330402Y-94535934D01*
X82330401Y-94535933D01*
X82223175Y-94485932D01*
X82179496Y-94480182D01*
X82174316Y-94479500D01*
X81825684Y-94479500D01*
X81820504Y-94480182D01*
X81776825Y-94485932D01*
X81776824Y-94485932D01*
X81669598Y-94535933D01*
X81669596Y-94535934D01*
X81669596Y-94535935D01*
X81625001Y-94580529D01*
X81570487Y-94608305D01*
X81510055Y-94598734D01*
X81484999Y-94580530D01*
X81440404Y-94535935D01*
X81440402Y-94535934D01*
X81440401Y-94535933D01*
X81333175Y-94485932D01*
X81289496Y-94480182D01*
X81284316Y-94479500D01*
X80935684Y-94479500D01*
X80930504Y-94480182D01*
X80886825Y-94485932D01*
X80886824Y-94485932D01*
X80779598Y-94535933D01*
X80695933Y-94619598D01*
X80689724Y-94632915D01*
X80647995Y-94677663D01*
X80587934Y-94689337D01*
X80532482Y-94663478D01*
X80510276Y-94632915D01*
X80504066Y-94619598D01*
X80504065Y-94619597D01*
X80504065Y-94619596D01*
X80420404Y-94535935D01*
X80420402Y-94535934D01*
X80420401Y-94535933D01*
X80313175Y-94485932D01*
X80269496Y-94480182D01*
X80264316Y-94479500D01*
X79915684Y-94479500D01*
X79910504Y-94480182D01*
X79866825Y-94485932D01*
X79866824Y-94485932D01*
X79759598Y-94535933D01*
X79759594Y-94535935D01*
X79746986Y-94548544D01*
X79692468Y-94576321D01*
X79651363Y-94574166D01*
X79559309Y-94549500D01*
X79440691Y-94549500D01*
X79372298Y-94567826D01*
X79326109Y-94580202D01*
X79223391Y-94639507D01*
X79139507Y-94723391D01*
X79080202Y-94826109D01*
X79080201Y-94826114D01*
X79049500Y-94940691D01*
X79049500Y-95059309D01*
X79074069Y-95151000D01*
X79080202Y-95173890D01*
X79139507Y-95276608D01*
X79139509Y-95276610D01*
X79139511Y-95276613D01*
X79223387Y-95360489D01*
X79223389Y-95360490D01*
X79223391Y-95360492D01*
X79326110Y-95419797D01*
X79326111Y-95419797D01*
X79326114Y-95419799D01*
X79440691Y-95450500D01*
X79440693Y-95450500D01*
X79559308Y-95450500D01*
X79559309Y-95450500D01*
X79651362Y-95425834D01*
X79712461Y-95429035D01*
X79746985Y-95451454D01*
X79759596Y-95464065D01*
X79759597Y-95464065D01*
X79759598Y-95464066D01*
X79866824Y-95514067D01*
X79866825Y-95514067D01*
X79866827Y-95514068D01*
X79915684Y-95520500D01*
X79915685Y-95520500D01*
X80264314Y-95520500D01*
X80264316Y-95520500D01*
X80313173Y-95514068D01*
X80420404Y-95464065D01*
X80504065Y-95380404D01*
X80510275Y-95367085D01*
X80552003Y-95322337D01*
X80612064Y-95310662D01*
X80667517Y-95336519D01*
X80674445Y-95343664D01*
X80683755Y-95354284D01*
X80695935Y-95380404D01*
X80779596Y-95464065D01*
X80780264Y-95464376D01*
X80784945Y-95469716D01*
X80795792Y-95494977D01*
X80808281Y-95519489D01*
X80808721Y-95525088D01*
X80809086Y-95525937D01*
X80808865Y-95526911D01*
X80809500Y-95534976D01*
X80809500Y-95874521D01*
X80790593Y-95932712D01*
X80780504Y-95944525D01*
X80754525Y-95970504D01*
X80700008Y-95998281D01*
X80684521Y-95999500D01*
X80095684Y-95999500D01*
X80090504Y-96000182D01*
X80046825Y-96005932D01*
X80046824Y-96005932D01*
X79939598Y-96055933D01*
X79855933Y-96139598D01*
X79805932Y-96246824D01*
X79805932Y-96246825D01*
X79799500Y-96295685D01*
X79799500Y-97104314D01*
X79805932Y-97153174D01*
X79805932Y-97153175D01*
X79855242Y-97258919D01*
X79862699Y-97319648D01*
X79833036Y-97373162D01*
X79815914Y-97385971D01*
X79742713Y-97429262D01*
X79629261Y-97542714D01*
X79547595Y-97680803D01*
X79547595Y-97680804D01*
X79502834Y-97834871D01*
X79502832Y-97834878D01*
X79500000Y-97870877D01*
X79500000Y-98049999D01*
X79500001Y-98050000D01*
X81399999Y-98050000D01*
X81400000Y-98049999D01*
X81400000Y-97870877D01*
X81397167Y-97834878D01*
X81397165Y-97834871D01*
X81352404Y-97680804D01*
X81352404Y-97680803D01*
X81270738Y-97542714D01*
X81157285Y-97429261D01*
X81084086Y-97385971D01*
X81043623Y-97340075D01*
X81037865Y-97279161D01*
X81044757Y-97258919D01*
X81094068Y-97153173D01*
X81100500Y-97104316D01*
X81100500Y-97099500D01*
X81119407Y-97041309D01*
X81168907Y-97005345D01*
X81199500Y-97000500D01*
X83800500Y-97000500D01*
X83858691Y-97019407D01*
X83894655Y-97068907D01*
X83899500Y-97099500D01*
X83899500Y-97104314D01*
X83905932Y-97153174D01*
X83905932Y-97153175D01*
X83955242Y-97258919D01*
X83962699Y-97319648D01*
X83933036Y-97373162D01*
X83915914Y-97385971D01*
X83842713Y-97429262D01*
X83729261Y-97542714D01*
X83647595Y-97680803D01*
X83647595Y-97680804D01*
X83602834Y-97834871D01*
X83602832Y-97834878D01*
X83600000Y-97870877D01*
X83600000Y-98049999D01*
X83600001Y-98050000D01*
X85499999Y-98050000D01*
X85500000Y-98049999D01*
X85500000Y-97870877D01*
X85497167Y-97834878D01*
X85497165Y-97834871D01*
X85452404Y-97680804D01*
X85452404Y-97680803D01*
X85370738Y-97542714D01*
X85257285Y-97429261D01*
X85184086Y-97385971D01*
X85143623Y-97340075D01*
X85137865Y-97279161D01*
X85144757Y-97258919D01*
X85194068Y-97153173D01*
X85200500Y-97104316D01*
X85200500Y-96295684D01*
X85194068Y-96246827D01*
X85165009Y-96184511D01*
X85144066Y-96139598D01*
X85144065Y-96139597D01*
X85144065Y-96139596D01*
X85060404Y-96055935D01*
X85060402Y-96055934D01*
X85060401Y-96055933D01*
X84953176Y-96005933D01*
X84946694Y-96004044D01*
X84896119Y-95969609D01*
X84875443Y-95912023D01*
X84892564Y-95853282D01*
X84940943Y-95815823D01*
X84974397Y-95809999D01*
X85064631Y-95809999D01*
X85100913Y-95807144D01*
X85100921Y-95807143D01*
X85256197Y-95762030D01*
X85256198Y-95762030D01*
X85395374Y-95679721D01*
X85509721Y-95565374D01*
X85592030Y-95426198D01*
X85592030Y-95426197D01*
X85637144Y-95270912D01*
X85638791Y-95250000D01*
X84959000Y-95250000D01*
X84900809Y-95231093D01*
X84864845Y-95181593D01*
X84860000Y-95151000D01*
X84860000Y-95000001D01*
X84859999Y-95000000D01*
X84709000Y-95000000D01*
X84650809Y-94981093D01*
X84614845Y-94931593D01*
X84610000Y-94901000D01*
X84610000Y-94749999D01*
X85110000Y-94749999D01*
X85110001Y-94750000D01*
X85638789Y-94750000D01*
X85637144Y-94729087D01*
X85637143Y-94729079D01*
X85592030Y-94573802D01*
X85592030Y-94573801D01*
X85509721Y-94434625D01*
X85395374Y-94320278D01*
X85256198Y-94237969D01*
X85256194Y-94237968D01*
X85110000Y-94195494D01*
X85110000Y-94749999D01*
X84610000Y-94749999D01*
X84610000Y-94195494D01*
X84463805Y-94237968D01*
X84463801Y-94237969D01*
X84324624Y-94320279D01*
X84324622Y-94320280D01*
X84210283Y-94434618D01*
X84204042Y-94445171D01*
X84158143Y-94485631D01*
X84105909Y-94492924D01*
X84079902Y-94489500D01*
X84079901Y-94489500D01*
X83899500Y-94489500D01*
X83841309Y-94470593D01*
X83805345Y-94421093D01*
X83800500Y-94390500D01*
X83800500Y-89760439D01*
X83798653Y-89753546D01*
X83780022Y-89684012D01*
X83780020Y-89684009D01*
X83780020Y-89684007D01*
X83740463Y-89615493D01*
X83740462Y-89615492D01*
X83740461Y-89615491D01*
X83740460Y-89615489D01*
X77370869Y-83245898D01*
X77343092Y-83191381D01*
X77352663Y-83130949D01*
X77395928Y-83087684D01*
X77456360Y-83078113D01*
X77468493Y-83080825D01*
X77549999Y-83104504D01*
X77550000Y-83104504D01*
X77550000Y-82399000D01*
X77568907Y-82340809D01*
X77618407Y-82304845D01*
X77649000Y-82300000D01*
X77951000Y-82300000D01*
X78009191Y-82318907D01*
X78045155Y-82368407D01*
X78050000Y-82399000D01*
X78050000Y-83104504D01*
X78196195Y-83062031D01*
X78242151Y-83034853D01*
X78301863Y-83021505D01*
X78358016Y-83045804D01*
X78378283Y-83070565D01*
X78414636Y-83133529D01*
X78439511Y-83176613D01*
X78523387Y-83260489D01*
X78523389Y-83260490D01*
X78523391Y-83260492D01*
X78626110Y-83319797D01*
X78626111Y-83319797D01*
X78626114Y-83319799D01*
X78740691Y-83350500D01*
X78740693Y-83350500D01*
X78859307Y-83350500D01*
X78859309Y-83350500D01*
X78973886Y-83319799D01*
X78973888Y-83319797D01*
X78973890Y-83319797D01*
X79076608Y-83260492D01*
X79076608Y-83260491D01*
X79076613Y-83260489D01*
X79160489Y-83176613D01*
X79185364Y-83133529D01*
X79219797Y-83073890D01*
X79219797Y-83073888D01*
X79219799Y-83073886D01*
X79250500Y-82959309D01*
X79250500Y-82840691D01*
X79219799Y-82726114D01*
X79210423Y-82709876D01*
X79197702Y-82650029D01*
X79206436Y-82618536D01*
X79233972Y-82559487D01*
X79240500Y-82509901D01*
X79240499Y-82090100D01*
X79233972Y-82040513D01*
X79233972Y-82040511D01*
X79183225Y-81931686D01*
X79183224Y-81931685D01*
X79183224Y-81931684D01*
X79098316Y-81846776D01*
X79098314Y-81846775D01*
X79098310Y-81846771D01*
X79092717Y-81842855D01*
X79082775Y-81829663D01*
X79069407Y-81819950D01*
X79064821Y-81805838D01*
X79055894Y-81793991D01*
X79050500Y-81761759D01*
X79050500Y-81563432D01*
X79067184Y-81508432D01*
X79084515Y-81482495D01*
X79100500Y-81402133D01*
X79100499Y-79947868D01*
X79084515Y-79867505D01*
X79084512Y-79867501D01*
X79023626Y-79776379D01*
X79023624Y-79776376D01*
X79023620Y-79776373D01*
X78932498Y-79715486D01*
X78932495Y-79715485D01*
X78932493Y-79715484D01*
X78932491Y-79715484D01*
X78872438Y-79703538D01*
X78819054Y-79673641D01*
X78813211Y-79666708D01*
X78735099Y-79564910D01*
X78735089Y-79564900D01*
X78614981Y-79472738D01*
X78614977Y-79472736D01*
X78475105Y-79414800D01*
X78475105Y-79414799D01*
X78400000Y-79404911D01*
X78400000Y-79937925D01*
X78398854Y-79941451D01*
X78399023Y-79943004D01*
X78399500Y-79943004D01*
X78399500Y-79947402D01*
X78399524Y-79947624D01*
X78399500Y-79947866D01*
X78399500Y-79947867D01*
X78399500Y-80576001D01*
X78380594Y-80634191D01*
X78331094Y-80670155D01*
X78300501Y-80675000D01*
X78199499Y-80675000D01*
X78141308Y-80656093D01*
X78105344Y-80606593D01*
X78100499Y-80576000D01*
X78100499Y-79947868D01*
X78100476Y-79947635D01*
X78100000Y-79937936D01*
X78100000Y-79404912D01*
X78099999Y-79404911D01*
X78024894Y-79414799D01*
X78024894Y-79414800D01*
X77885022Y-79472736D01*
X77885018Y-79472738D01*
X77764910Y-79564900D01*
X77764903Y-79564907D01*
X77686787Y-79666710D01*
X77638767Y-79700620D01*
X77633246Y-79702409D01*
X77567505Y-79715485D01*
X77543585Y-79731467D01*
X77530522Y-79735701D01*
X77512986Y-79735687D01*
X77496111Y-79740447D01*
X77481390Y-79735664D01*
X77469337Y-79735655D01*
X77459635Y-79728594D01*
X77445001Y-79723840D01*
X77432496Y-79715485D01*
X77432495Y-79715484D01*
X77352134Y-79699500D01*
X77147870Y-79699500D01*
X77147862Y-79699501D01*
X77067505Y-79715484D01*
X77067501Y-79715486D01*
X77054999Y-79723840D01*
X76996111Y-79740447D01*
X76945001Y-79723840D01*
X76932496Y-79715485D01*
X76932495Y-79715484D01*
X76852134Y-79699500D01*
X76647870Y-79699500D01*
X76647862Y-79699501D01*
X76567505Y-79715484D01*
X76567501Y-79715486D01*
X76554999Y-79723840D01*
X76496111Y-79740447D01*
X76445001Y-79723840D01*
X76432496Y-79715485D01*
X76432495Y-79715484D01*
X76352134Y-79699500D01*
X76147870Y-79699500D01*
X76147862Y-79699501D01*
X76067505Y-79715484D01*
X76067501Y-79715486D01*
X76054999Y-79723840D01*
X75996111Y-79740447D01*
X75945001Y-79723840D01*
X75932496Y-79715485D01*
X75932495Y-79715484D01*
X75852134Y-79699500D01*
X75647870Y-79699500D01*
X75647862Y-79699501D01*
X75567505Y-79715484D01*
X75567501Y-79715486D01*
X75554999Y-79723840D01*
X75496111Y-79740447D01*
X75445001Y-79723840D01*
X75432496Y-79715485D01*
X75432495Y-79715484D01*
X75352134Y-79699500D01*
X75147870Y-79699500D01*
X75147862Y-79699501D01*
X75067505Y-79715484D01*
X75067501Y-79715486D01*
X75054999Y-79723840D01*
X74996111Y-79740447D01*
X74945001Y-79723840D01*
X74932496Y-79715485D01*
X74932495Y-79715484D01*
X74852134Y-79699500D01*
X74647870Y-79699500D01*
X74647862Y-79699501D01*
X74567505Y-79715484D01*
X74567501Y-79715486D01*
X74554999Y-79723840D01*
X74496111Y-79740447D01*
X74445001Y-79723840D01*
X74432496Y-79715485D01*
X74432495Y-79715484D01*
X74352134Y-79699500D01*
X74147870Y-79699500D01*
X74147862Y-79699501D01*
X74067505Y-79715484D01*
X74067501Y-79715486D01*
X74054999Y-79723840D01*
X73996111Y-79740447D01*
X73945001Y-79723840D01*
X73932496Y-79715485D01*
X73932495Y-79715484D01*
X73852134Y-79699500D01*
X73647870Y-79699500D01*
X73647862Y-79699501D01*
X73567505Y-79715484D01*
X73567501Y-79715486D01*
X73554999Y-79723840D01*
X73496111Y-79740447D01*
X73445001Y-79723840D01*
X73432496Y-79715485D01*
X73432495Y-79715484D01*
X73352134Y-79699500D01*
X73147870Y-79699500D01*
X73147862Y-79699501D01*
X73067505Y-79715484D01*
X73067501Y-79715486D01*
X73054999Y-79723840D01*
X72996111Y-79740447D01*
X72945001Y-79723840D01*
X72932496Y-79715485D01*
X72932495Y-79715484D01*
X72852134Y-79699500D01*
X72647870Y-79699500D01*
X72647862Y-79699501D01*
X72567505Y-79715484D01*
X72567501Y-79715486D01*
X72554999Y-79723840D01*
X72496111Y-79740447D01*
X72469477Y-79735700D01*
X72456411Y-79731465D01*
X72432495Y-79715485D01*
X72366761Y-79702409D01*
X72361230Y-79700617D01*
X72340930Y-79685891D01*
X72319054Y-79673640D01*
X72313211Y-79666708D01*
X72235095Y-79564906D01*
X72235089Y-79564900D01*
X72114981Y-79472738D01*
X72114977Y-79472736D01*
X71975105Y-79414800D01*
X71975105Y-79414799D01*
X71900000Y-79404911D01*
X71900000Y-79937925D01*
X71898854Y-79941451D01*
X71899023Y-79943004D01*
X71899500Y-79943004D01*
X71899500Y-79947402D01*
X71899524Y-79947624D01*
X71899500Y-79947866D01*
X71899500Y-79947867D01*
X71899500Y-80576001D01*
X71880594Y-80634191D01*
X71831094Y-80670155D01*
X71800501Y-80675000D01*
X71699499Y-80675000D01*
X71641308Y-80656093D01*
X71605344Y-80606593D01*
X71600499Y-80576000D01*
X71600499Y-79947868D01*
X71600476Y-79947635D01*
X71600000Y-79937936D01*
X71600000Y-79404912D01*
X71599999Y-79404911D01*
X71524894Y-79414799D01*
X71524894Y-79414800D01*
X71385022Y-79472736D01*
X71385018Y-79472738D01*
X71264910Y-79564900D01*
X71264903Y-79564907D01*
X71186787Y-79666710D01*
X71136362Y-79701365D01*
X71127558Y-79703540D01*
X71067506Y-79715484D01*
X71067503Y-79715485D01*
X70976379Y-79776373D01*
X70976373Y-79776379D01*
X70915486Y-79867501D01*
X70915486Y-79867503D01*
X70915485Y-79867505D01*
X70903469Y-79927911D01*
X70899500Y-79947866D01*
X70899500Y-81402129D01*
X70899978Y-81406975D01*
X70897837Y-81407185D01*
X70891606Y-81459552D01*
X70850045Y-81504455D01*
X70829347Y-81513116D01*
X70743801Y-81537969D01*
X70604625Y-81620278D01*
X70490278Y-81734625D01*
X70407969Y-81873801D01*
X70407969Y-81873802D01*
X70362855Y-82029087D01*
X70361209Y-82050000D01*
X71041000Y-82050000D01*
X71099191Y-82068907D01*
X71135155Y-82118407D01*
X71140000Y-82149000D01*
X71140000Y-82451000D01*
X71121093Y-82509191D01*
X71071593Y-82545155D01*
X71041000Y-82550000D01*
X70321308Y-82550000D01*
X70271808Y-82536736D01*
X70173889Y-82480202D01*
X70173890Y-82480202D01*
X70144735Y-82472390D01*
X70059309Y-82449500D01*
X70059307Y-82449500D01*
X70015479Y-82449500D01*
X70007881Y-82447031D01*
X69999992Y-82448281D01*
X69979336Y-82437756D01*
X69957288Y-82430593D01*
X69945475Y-82420504D01*
X69829496Y-82304525D01*
X69801719Y-82250008D01*
X69800500Y-82234521D01*
X69800500Y-80631164D01*
X69819407Y-80572973D01*
X69829490Y-80561166D01*
X71040460Y-79350197D01*
X71080022Y-79281674D01*
X71100500Y-79205248D01*
X71100500Y-79126124D01*
X71100500Y-75312343D01*
X71080021Y-75235916D01*
X71070543Y-75219500D01*
X71040460Y-75167394D01*
X70984511Y-75111444D01*
X70984511Y-75111445D01*
X70517341Y-74644275D01*
X70489564Y-74589758D01*
X70499135Y-74529326D01*
X70530664Y-74496103D01*
X70529365Y-74494409D01*
X70534509Y-74490462D01*
X70590461Y-74434511D01*
X70774472Y-74250499D01*
X70840460Y-74184511D01*
X70851442Y-74165489D01*
X70880021Y-74115989D01*
X70900500Y-74039562D01*
X70900500Y-70560438D01*
X70891303Y-70526114D01*
X70880022Y-70484012D01*
X70869328Y-70465489D01*
X70840463Y-70415493D01*
X70840459Y-70415488D01*
X70429496Y-70004524D01*
X70401719Y-69950008D01*
X70400500Y-69934521D01*
X70400500Y-68261047D01*
X70419407Y-68202856D01*
X70468907Y-68166892D01*
X70530093Y-68166892D01*
X70569501Y-68191041D01*
X70616684Y-68238224D01*
X70725513Y-68288972D01*
X70775099Y-68295500D01*
X70850500Y-68295499D01*
X70865411Y-68300344D01*
X70881093Y-68300344D01*
X70893779Y-68309561D01*
X70908690Y-68314406D01*
X70917905Y-68327090D01*
X70930593Y-68336308D01*
X70935438Y-68351221D01*
X70944654Y-68363905D01*
X70949500Y-68394499D01*
X70949500Y-68436567D01*
X70932815Y-68491569D01*
X70915486Y-68517501D01*
X70915486Y-68517503D01*
X70915485Y-68517505D01*
X70906196Y-68564204D01*
X70899500Y-68597866D01*
X70899500Y-70052129D01*
X70899501Y-70052136D01*
X70915484Y-70132494D01*
X70915485Y-70132496D01*
X70971272Y-70215986D01*
X70976376Y-70223624D01*
X70976379Y-70223626D01*
X71067501Y-70284513D01*
X71067503Y-70284513D01*
X71067505Y-70284515D01*
X71127560Y-70296460D01*
X71180943Y-70326357D01*
X71186787Y-70333290D01*
X71264903Y-70435092D01*
X71264910Y-70435099D01*
X71385018Y-70527261D01*
X71385022Y-70527263D01*
X71524895Y-70585199D01*
X71599999Y-70595087D01*
X71600000Y-70595086D01*
X71600000Y-70062072D01*
X71601147Y-70058541D01*
X71600980Y-70056998D01*
X71600500Y-70056998D01*
X71600499Y-70052575D01*
X71600477Y-70052363D01*
X71600497Y-70052146D01*
X71600500Y-70052133D01*
X71600499Y-69423998D01*
X71619406Y-69365809D01*
X71668906Y-69329845D01*
X71699499Y-69325000D01*
X71800501Y-69325000D01*
X71858692Y-69343907D01*
X71894656Y-69393407D01*
X71899501Y-69424000D01*
X71899501Y-70052129D01*
X71899523Y-70052353D01*
X71900000Y-70062061D01*
X71900000Y-70595087D01*
X71975104Y-70585199D01*
X72114977Y-70527263D01*
X72114981Y-70527261D01*
X72235089Y-70435099D01*
X72235099Y-70435089D01*
X72313213Y-70333290D01*
X72361232Y-70299380D01*
X72366750Y-70297591D01*
X72432495Y-70284515D01*
X72456416Y-70268530D01*
X72469477Y-70264298D01*
X72487008Y-70264310D01*
X72503883Y-70259551D01*
X72518604Y-70264334D01*
X72530663Y-70264343D01*
X72540368Y-70271405D01*
X72555000Y-70276159D01*
X72567505Y-70284515D01*
X72647867Y-70300500D01*
X72852132Y-70300499D01*
X72932495Y-70284515D01*
X72944996Y-70276161D01*
X73003883Y-70259551D01*
X73055000Y-70276159D01*
X73067505Y-70284515D01*
X73147867Y-70300500D01*
X73352132Y-70300499D01*
X73432495Y-70284515D01*
X73444996Y-70276161D01*
X73503883Y-70259551D01*
X73555000Y-70276159D01*
X73567505Y-70284515D01*
X73647867Y-70300500D01*
X73852132Y-70300499D01*
X73932495Y-70284515D01*
X73944996Y-70276161D01*
X74003883Y-70259551D01*
X74055000Y-70276159D01*
X74067505Y-70284515D01*
X74147867Y-70300500D01*
X74352132Y-70300499D01*
X74432495Y-70284515D01*
X74444996Y-70276161D01*
X74503883Y-70259551D01*
X74555000Y-70276159D01*
X74567505Y-70284515D01*
X74647867Y-70300500D01*
X74852132Y-70300499D01*
X74932495Y-70284515D01*
X74944996Y-70276161D01*
X75003883Y-70259551D01*
X75055000Y-70276159D01*
X75067505Y-70284515D01*
X75147867Y-70300500D01*
X75284840Y-70300499D01*
X75343030Y-70319406D01*
X75378994Y-70368906D01*
X75380467Y-70425122D01*
X75380202Y-70426112D01*
X75380201Y-70426114D01*
X75349500Y-70540691D01*
X75349500Y-70659309D01*
X75362356Y-70707287D01*
X75380202Y-70773890D01*
X75439507Y-70876608D01*
X75439509Y-70876610D01*
X75439511Y-70876613D01*
X75523387Y-70960489D01*
X75523389Y-70960490D01*
X75523391Y-70960492D01*
X75626110Y-71019797D01*
X75626108Y-71019797D01*
X75626112Y-71019798D01*
X75626114Y-71019799D01*
X75724658Y-71046204D01*
X75769036Y-71071825D01*
X79131722Y-74434511D01*
X79131721Y-74434511D01*
X79187671Y-74490460D01*
X79256189Y-74530019D01*
X79256193Y-74530021D01*
X79332617Y-74550499D01*
X79332619Y-74550500D01*
X79332620Y-74550500D01*
X79411744Y-74550500D01*
X79600500Y-74550500D01*
X79658691Y-74569407D01*
X79694655Y-74618907D01*
X79699500Y-74649500D01*
X79699500Y-74852129D01*
X79699501Y-74852137D01*
X79715484Y-74932494D01*
X79715486Y-74932498D01*
X79723840Y-74945001D01*
X79740447Y-75003889D01*
X79723840Y-75054999D01*
X79715485Y-75067503D01*
X79715484Y-75067504D01*
X79699500Y-75147864D01*
X79699500Y-75352129D01*
X79699501Y-75352137D01*
X79715484Y-75432494D01*
X79715486Y-75432498D01*
X79723840Y-75445001D01*
X79740447Y-75503889D01*
X79723840Y-75554999D01*
X79715485Y-75567503D01*
X79715484Y-75567504D01*
X79699500Y-75647864D01*
X79699500Y-75852129D01*
X79699501Y-75852137D01*
X79715484Y-75932494D01*
X79715486Y-75932498D01*
X79723840Y-75945001D01*
X79740447Y-76003889D01*
X79723840Y-76054999D01*
X79715485Y-76067503D01*
X79715484Y-76067504D01*
X79699500Y-76147864D01*
X79699500Y-76352129D01*
X79699501Y-76352137D01*
X79715484Y-76432494D01*
X79715486Y-76432498D01*
X79723840Y-76445001D01*
X79740447Y-76503889D01*
X79723840Y-76554999D01*
X79715485Y-76567503D01*
X79715484Y-76567504D01*
X79699500Y-76647864D01*
X79699500Y-76852129D01*
X79699501Y-76852137D01*
X79715484Y-76932494D01*
X79715486Y-76932498D01*
X79723840Y-76945001D01*
X79740447Y-77003889D01*
X79723840Y-77054999D01*
X79715485Y-77067503D01*
X79715484Y-77067504D01*
X79699500Y-77147864D01*
X79699500Y-77352129D01*
X79699501Y-77352137D01*
X79715484Y-77432494D01*
X79715486Y-77432498D01*
X79723840Y-77445001D01*
X79740447Y-77503889D01*
X79723840Y-77554999D01*
X79715485Y-77567503D01*
X79715484Y-77567504D01*
X79699500Y-77647864D01*
X79699500Y-77852129D01*
X79699501Y-77852137D01*
X79715484Y-77932494D01*
X79715486Y-77932498D01*
X79723840Y-77945001D01*
X79740447Y-78003889D01*
X79723840Y-78054999D01*
X79715485Y-78067503D01*
X79715484Y-78067504D01*
X79699500Y-78147864D01*
X79699500Y-78352129D01*
X79699501Y-78352137D01*
X79715484Y-78432494D01*
X79715486Y-78432498D01*
X79723840Y-78445001D01*
X79740447Y-78503889D01*
X79723840Y-78554999D01*
X79715485Y-78567503D01*
X79715484Y-78567504D01*
X79699500Y-78647864D01*
X79699500Y-78852129D01*
X79699501Y-78852137D01*
X79715484Y-78932494D01*
X79715485Y-78932496D01*
X79776373Y-79023620D01*
X79776376Y-79023624D01*
X79867505Y-79084515D01*
X79947867Y-79100500D01*
X81402132Y-79100499D01*
X81482495Y-79084515D01*
X81573624Y-79023624D01*
X81634515Y-78932495D01*
X81650500Y-78852133D01*
X81650499Y-78647868D01*
X81634515Y-78567505D01*
X81626159Y-78554999D01*
X81609551Y-78496114D01*
X81626159Y-78444999D01*
X81634515Y-78432495D01*
X81650500Y-78352133D01*
X81650499Y-78147868D01*
X81634515Y-78067505D01*
X81626159Y-78054999D01*
X81609551Y-77996114D01*
X81626159Y-77944999D01*
X81634515Y-77932495D01*
X81650500Y-77852133D01*
X81650499Y-77647868D01*
X81634515Y-77567505D01*
X81622955Y-77550204D01*
X81620327Y-77545064D01*
X81616366Y-77520279D01*
X81609551Y-77496114D01*
X81611531Y-77490018D01*
X81610673Y-77484646D01*
X81617904Y-77470404D01*
X81626159Y-77444999D01*
X81634515Y-77432495D01*
X81650500Y-77352133D01*
X81650499Y-77147868D01*
X81634515Y-77067505D01*
X81626159Y-77054999D01*
X81609551Y-76996114D01*
X81626159Y-76944999D01*
X81634515Y-76932495D01*
X81650500Y-76852133D01*
X81650499Y-76647868D01*
X81634515Y-76567505D01*
X81626159Y-76554999D01*
X81609551Y-76496114D01*
X81626159Y-76444999D01*
X81634515Y-76432495D01*
X81650500Y-76352133D01*
X81650499Y-76147868D01*
X81634515Y-76067505D01*
X81626159Y-76054999D01*
X81609551Y-75996114D01*
X81626159Y-75944999D01*
X81634515Y-75932495D01*
X81650500Y-75852133D01*
X81650499Y-75660000D01*
X89387155Y-75660000D01*
X89427595Y-75799195D01*
X89427595Y-75799196D01*
X89509261Y-75937285D01*
X89622714Y-76050738D01*
X89760804Y-76132404D01*
X89914872Y-76177165D01*
X89914878Y-76177167D01*
X89949999Y-76179930D01*
X89950000Y-76179930D01*
X89950000Y-75660001D01*
X89949999Y-75660000D01*
X89387155Y-75660000D01*
X81650499Y-75660000D01*
X81650499Y-75647868D01*
X81634515Y-75567505D01*
X81617675Y-75542303D01*
X81613412Y-75527639D01*
X81613913Y-75511580D01*
X81609551Y-75496114D01*
X81614911Y-75479618D01*
X81615321Y-75466484D01*
X81621961Y-75457919D01*
X81626159Y-75444999D01*
X81634515Y-75432495D01*
X81650500Y-75352133D01*
X81650499Y-75147868D01*
X81634515Y-75067505D01*
X81626159Y-75054999D01*
X81609551Y-74996114D01*
X81626159Y-74944999D01*
X81634515Y-74932495D01*
X81650500Y-74852133D01*
X81650499Y-74647868D01*
X81649784Y-74644275D01*
X81638941Y-74589758D01*
X81634515Y-74567505D01*
X81626159Y-74555000D01*
X81609551Y-74496114D01*
X81626159Y-74444999D01*
X81634515Y-74432495D01*
X81650500Y-74352133D01*
X81650499Y-74147868D01*
X81634515Y-74067505D01*
X81626159Y-74055000D01*
X81609551Y-73996114D01*
X81626159Y-73944999D01*
X81634515Y-73932495D01*
X81650500Y-73852133D01*
X81650499Y-73649499D01*
X81669406Y-73591310D01*
X81718906Y-73555346D01*
X81749499Y-73550500D01*
X84334522Y-73550500D01*
X84392713Y-73569407D01*
X84404526Y-73579496D01*
X84984484Y-74159454D01*
X85005707Y-74194653D01*
X85006051Y-74194486D01*
X85007954Y-74198380D01*
X85009064Y-74200220D01*
X85009424Y-74201387D01*
X85009427Y-74201393D01*
X85060802Y-74306483D01*
X85143517Y-74389198D01*
X85197285Y-74415483D01*
X85248604Y-74440572D01*
X85248605Y-74440572D01*
X85248607Y-74440573D01*
X85316740Y-74450500D01*
X85316743Y-74450500D01*
X86408257Y-74450500D01*
X86408260Y-74450500D01*
X86476393Y-74440573D01*
X86581483Y-74389198D01*
X86664198Y-74306483D01*
X86715573Y-74201393D01*
X86725500Y-74133260D01*
X86725500Y-73766740D01*
X86725499Y-73766738D01*
X86725241Y-73763169D01*
X86726871Y-73763050D01*
X86736127Y-73708775D01*
X86773408Y-73669544D01*
X86776554Y-73667683D01*
X86892685Y-73551552D01*
X86976280Y-73410201D01*
X86976280Y-73410200D01*
X87022098Y-73252493D01*
X87022100Y-73252486D01*
X87022296Y-73250000D01*
X85961500Y-73250000D01*
X85903309Y-73231093D01*
X85867345Y-73181593D01*
X85862500Y-73151000D01*
X85862500Y-72849000D01*
X85881407Y-72790809D01*
X85930907Y-72754845D01*
X85961500Y-72750000D01*
X87022295Y-72750000D01*
X87022100Y-72747513D01*
X87022098Y-72747506D01*
X86976280Y-72589799D01*
X86976280Y-72589798D01*
X86892685Y-72448447D01*
X86776553Y-72332315D01*
X86773401Y-72330451D01*
X86771780Y-72328612D01*
X86771634Y-72328499D01*
X86771655Y-72328471D01*
X86732940Y-72284553D01*
X86726641Y-72236932D01*
X86725241Y-72236831D01*
X86725500Y-72233258D01*
X86725500Y-71866743D01*
X86725500Y-71866740D01*
X87274500Y-71866740D01*
X87274500Y-72233260D01*
X87275555Y-72240499D01*
X87284427Y-72301395D01*
X87326647Y-72387756D01*
X87335802Y-72406483D01*
X87384317Y-72454998D01*
X87412093Y-72509513D01*
X87402522Y-72569945D01*
X87384318Y-72595000D01*
X87359912Y-72619407D01*
X87335801Y-72643518D01*
X87284427Y-72748604D01*
X87282703Y-72760438D01*
X87274500Y-72816740D01*
X87274500Y-73183260D01*
X87281118Y-73228682D01*
X87284427Y-73251395D01*
X87331485Y-73347653D01*
X87335802Y-73356483D01*
X87384317Y-73404998D01*
X87412093Y-73459513D01*
X87402522Y-73519945D01*
X87384318Y-73545000D01*
X87359912Y-73569407D01*
X87335801Y-73593518D01*
X87284427Y-73698604D01*
X87279463Y-73732673D01*
X87274500Y-73766740D01*
X87274500Y-74133260D01*
X87279195Y-74165484D01*
X87284427Y-74201395D01*
X87328233Y-74291000D01*
X87335802Y-74306483D01*
X87418517Y-74389198D01*
X87472285Y-74415483D01*
X87523604Y-74440572D01*
X87523605Y-74440572D01*
X87523607Y-74440573D01*
X87591740Y-74450500D01*
X87591743Y-74450500D01*
X88683257Y-74450500D01*
X88683260Y-74450500D01*
X88751393Y-74440573D01*
X88856483Y-74389198D01*
X88939198Y-74306483D01*
X88939423Y-74306021D01*
X88939819Y-74305612D01*
X88943965Y-74299806D01*
X88944835Y-74300427D01*
X88981965Y-74262047D01*
X89028365Y-74250500D01*
X89389563Y-74250500D01*
X89389563Y-74250499D01*
X89465989Y-74230021D01*
X89531000Y-74192486D01*
X89590848Y-74179765D01*
X89646743Y-74204651D01*
X89677336Y-74257639D01*
X89679500Y-74278223D01*
X89679500Y-74564316D01*
X89685932Y-74613173D01*
X89685933Y-74613175D01*
X89685935Y-74613182D01*
X89691381Y-74624861D01*
X89698837Y-74685590D01*
X89669172Y-74739103D01*
X89652052Y-74751911D01*
X89622714Y-74769261D01*
X89509261Y-74882714D01*
X89427595Y-75020803D01*
X89427595Y-75020804D01*
X89387155Y-75159999D01*
X89387156Y-75160000D01*
X90101000Y-75160000D01*
X90159191Y-75178907D01*
X90195155Y-75228407D01*
X90200000Y-75259000D01*
X90200000Y-75409999D01*
X90200001Y-75410000D01*
X90351000Y-75410000D01*
X90409191Y-75428907D01*
X90445155Y-75478407D01*
X90450000Y-75509000D01*
X90450000Y-76179930D01*
X90485121Y-76177167D01*
X90485128Y-76177165D01*
X90625000Y-76136529D01*
X90625000Y-76099000D01*
X90643907Y-76040809D01*
X90693407Y-76004845D01*
X90724000Y-76000000D01*
X91856000Y-76000000D01*
X91914191Y-76018907D01*
X91950155Y-76068407D01*
X91955000Y-76099000D01*
X91955000Y-76401000D01*
X91936093Y-76459191D01*
X91886593Y-76495155D01*
X91856000Y-76500000D01*
X90730001Y-76500000D01*
X90730000Y-76500001D01*
X90730000Y-76597824D01*
X90729999Y-76597824D01*
X90736401Y-76657370D01*
X90736403Y-76657381D01*
X90786646Y-76792088D01*
X90786647Y-76792090D01*
X90872807Y-76907184D01*
X90872815Y-76907192D01*
X90987909Y-76993352D01*
X90987911Y-76993353D01*
X91122618Y-77043596D01*
X91122629Y-77043598D01*
X91182176Y-77050000D01*
X91286900Y-77050000D01*
X91345091Y-77068907D01*
X91346250Y-77070000D01*
X92153012Y-77070000D01*
X92135795Y-77079940D01*
X92079940Y-77135795D01*
X92040444Y-77204204D01*
X92020000Y-77280504D01*
X92020000Y-77359496D01*
X92040444Y-77435796D01*
X92079940Y-77504205D01*
X92135795Y-77560060D01*
X92153012Y-77570000D01*
X91350137Y-77570000D01*
X91358428Y-77611684D01*
X91358431Y-77611695D01*
X91433808Y-77793673D01*
X91433814Y-77793685D01*
X91543249Y-77957462D01*
X91543252Y-77957466D01*
X91682533Y-78096747D01*
X91682537Y-78096750D01*
X91846314Y-78206185D01*
X91846326Y-78206191D01*
X92028310Y-78281570D01*
X92221506Y-78319999D01*
X92221510Y-78320000D01*
X92619999Y-78320000D01*
X92620000Y-78319999D01*
X92620000Y-77620000D01*
X93120000Y-77620000D01*
X93120000Y-78319999D01*
X93120001Y-78320000D01*
X93518490Y-78320000D01*
X93518493Y-78319999D01*
X93711688Y-78281570D01*
X93711690Y-78281570D01*
X93893673Y-78206191D01*
X93893685Y-78206185D01*
X94057462Y-78096750D01*
X94057466Y-78096747D01*
X94196747Y-77957466D01*
X94196750Y-77957462D01*
X94306185Y-77793685D01*
X94306191Y-77793673D01*
X94381568Y-77611695D01*
X94381571Y-77611684D01*
X94389863Y-77570000D01*
X93586988Y-77570000D01*
X93604205Y-77560060D01*
X93660060Y-77504205D01*
X93699556Y-77435796D01*
X93720000Y-77359496D01*
X93720000Y-77280504D01*
X93699556Y-77204204D01*
X93660060Y-77135795D01*
X93604205Y-77079940D01*
X93586988Y-77070000D01*
X94389862Y-77070000D01*
X95780137Y-77070000D01*
X96583012Y-77070000D01*
X96565795Y-77079940D01*
X96509940Y-77135795D01*
X96470444Y-77204204D01*
X96450000Y-77280504D01*
X96450000Y-77359496D01*
X96470444Y-77435796D01*
X96509940Y-77504205D01*
X96565795Y-77560060D01*
X96583012Y-77570000D01*
X95780137Y-77570000D01*
X95788428Y-77611684D01*
X95788431Y-77611695D01*
X95863808Y-77793673D01*
X95863814Y-77793685D01*
X95973249Y-77957462D01*
X95973252Y-77957466D01*
X96112533Y-78096747D01*
X96112537Y-78096750D01*
X96276314Y-78206185D01*
X96276326Y-78206191D01*
X96458310Y-78281570D01*
X96651506Y-78319999D01*
X96651510Y-78320000D01*
X96799999Y-78320000D01*
X96800000Y-78319999D01*
X96800000Y-77620000D01*
X97300000Y-77620000D01*
X97300000Y-78319999D01*
X97300001Y-78320000D01*
X97448490Y-78320000D01*
X97448493Y-78319999D01*
X97641688Y-78281570D01*
X97641690Y-78281570D01*
X97823673Y-78206191D01*
X97823685Y-78206185D01*
X97987462Y-78096750D01*
X97987466Y-78096747D01*
X98126747Y-77957466D01*
X98126750Y-77957462D01*
X98236185Y-77793685D01*
X98236191Y-77793673D01*
X98311568Y-77611695D01*
X98311571Y-77611684D01*
X98319863Y-77570000D01*
X97516988Y-77570000D01*
X97534205Y-77560060D01*
X97590060Y-77504205D01*
X97629556Y-77435796D01*
X97650000Y-77359496D01*
X97650000Y-77280504D01*
X97629556Y-77204204D01*
X97590060Y-77135795D01*
X97534205Y-77079940D01*
X97516988Y-77070000D01*
X98319862Y-77070000D01*
X98311571Y-77028315D01*
X98311568Y-77028304D01*
X98236191Y-76846326D01*
X98236185Y-76846314D01*
X98126750Y-76682537D01*
X98126747Y-76682533D01*
X97987466Y-76543252D01*
X97987462Y-76543249D01*
X97823685Y-76433814D01*
X97823673Y-76433808D01*
X97641689Y-76358429D01*
X97448493Y-76320000D01*
X97300001Y-76320000D01*
X97300000Y-76320001D01*
X97300000Y-77020000D01*
X96800000Y-77020000D01*
X96800000Y-76320001D01*
X96799999Y-76320000D01*
X96651506Y-76320000D01*
X96458311Y-76358429D01*
X96458309Y-76358429D01*
X96276326Y-76433808D01*
X96276314Y-76433814D01*
X96112537Y-76543249D01*
X96112533Y-76543252D01*
X95973252Y-76682533D01*
X95973249Y-76682537D01*
X95863814Y-76846314D01*
X95863808Y-76846326D01*
X95788431Y-77028304D01*
X95788428Y-77028315D01*
X95780137Y-77070000D01*
X94389862Y-77070000D01*
X94381571Y-77028315D01*
X94381568Y-77028304D01*
X94306191Y-76846326D01*
X94306185Y-76846314D01*
X94196750Y-76682537D01*
X94196747Y-76682533D01*
X94057466Y-76543252D01*
X94057462Y-76543249D01*
X93902323Y-76439588D01*
X93864444Y-76391538D01*
X93862042Y-76330400D01*
X93883775Y-76293330D01*
X93882765Y-76292502D01*
X93885847Y-76288743D01*
X93885858Y-76288733D01*
X93954311Y-76186286D01*
X94001463Y-76072452D01*
X94025500Y-75951606D01*
X94025500Y-75828394D01*
X94001463Y-75707548D01*
X93954311Y-75593714D01*
X93885858Y-75491267D01*
X93835850Y-75441259D01*
X93808073Y-75386742D01*
X93817644Y-75326310D01*
X93835847Y-75301254D01*
X93860489Y-75276613D01*
X93919799Y-75173886D01*
X93950500Y-75059309D01*
X93950500Y-74940691D01*
X93919799Y-74826114D01*
X93919797Y-74826111D01*
X93919797Y-74826109D01*
X93860492Y-74723391D01*
X93860490Y-74723389D01*
X93860489Y-74723387D01*
X93776613Y-74639511D01*
X93776610Y-74639509D01*
X93776608Y-74639507D01*
X93673889Y-74580202D01*
X93673890Y-74580202D01*
X93660351Y-74576574D01*
X93559309Y-74549500D01*
X93440691Y-74549500D01*
X93373496Y-74567505D01*
X93326109Y-74580202D01*
X93223391Y-74639507D01*
X93190558Y-74672340D01*
X93154869Y-74695198D01*
X93143227Y-74699500D01*
X93140438Y-74699500D01*
X93064011Y-74719979D01*
X93021710Y-74744401D01*
X93013814Y-74747319D01*
X92991245Y-74748217D01*
X92969152Y-74752914D01*
X92961282Y-74749410D01*
X92952677Y-74749753D01*
X92933891Y-74737215D01*
X92913256Y-74728028D01*
X92908949Y-74720568D01*
X92901785Y-74715787D01*
X92893956Y-74694600D01*
X92882663Y-74675040D01*
X92881047Y-74659663D01*
X92880578Y-74658394D01*
X92880822Y-74657525D01*
X92880500Y-74654456D01*
X92880500Y-74580253D01*
X92880498Y-74580241D01*
X92868379Y-74519315D01*
X92868379Y-74480685D01*
X92880498Y-74419758D01*
X92880500Y-74419746D01*
X92880500Y-74149045D01*
X92899407Y-74090854D01*
X92948907Y-74054890D01*
X92966587Y-74050891D01*
X92969553Y-74050500D01*
X92969562Y-74050500D01*
X93045989Y-74030021D01*
X93114511Y-73990460D01*
X93146564Y-73958407D01*
X93170461Y-73934511D01*
X93220459Y-73884512D01*
X93220463Y-73884506D01*
X93260020Y-73815992D01*
X93260020Y-73815990D01*
X93260022Y-73815988D01*
X93280500Y-73739562D01*
X93280500Y-73660438D01*
X93280500Y-72760438D01*
X93271926Y-72728442D01*
X93269630Y-72719869D01*
X93269630Y-72719868D01*
X93260022Y-72684012D01*
X93260020Y-72684008D01*
X93220463Y-72615493D01*
X93220461Y-72615491D01*
X93220460Y-72615489D01*
X93114511Y-72509540D01*
X93109043Y-72506383D01*
X93079632Y-72489402D01*
X93079628Y-72489400D01*
X93071159Y-72484511D01*
X93045989Y-72469979D01*
X92969562Y-72449500D01*
X92961845Y-72449500D01*
X92947735Y-72444720D01*
X92930620Y-72431955D01*
X92911352Y-72422765D01*
X92906626Y-72414061D01*
X92898688Y-72408141D01*
X92892344Y-72387756D01*
X92882158Y-72368994D01*
X92880500Y-72350954D01*
X92880500Y-72080253D01*
X92880498Y-72080241D01*
X92868379Y-72019315D01*
X92868379Y-71980685D01*
X92880498Y-71919758D01*
X92880500Y-71919746D01*
X92880500Y-71580253D01*
X92880498Y-71580241D01*
X92868379Y-71519315D01*
X92869565Y-71509290D01*
X92866477Y-71499680D01*
X92868379Y-71480685D01*
X92880498Y-71419758D01*
X92880500Y-71419746D01*
X92880500Y-71279783D01*
X92899407Y-71221592D01*
X92948907Y-71185628D01*
X93010093Y-71185628D01*
X93049501Y-71209777D01*
X93080184Y-71240460D01*
X93123726Y-71265598D01*
X93144224Y-71281326D01*
X93223387Y-71360489D01*
X93223389Y-71360490D01*
X93223391Y-71360492D01*
X93326110Y-71419797D01*
X93326111Y-71419797D01*
X93326114Y-71419799D01*
X93440691Y-71450500D01*
X93440693Y-71450500D01*
X93559307Y-71450500D01*
X93559309Y-71450500D01*
X93673886Y-71419799D01*
X93673888Y-71419797D01*
X93673890Y-71419797D01*
X93776608Y-71360492D01*
X93776608Y-71360491D01*
X93776613Y-71360489D01*
X93860489Y-71276613D01*
X93899076Y-71209779D01*
X93919797Y-71173890D01*
X93919797Y-71173888D01*
X93919799Y-71173886D01*
X93950500Y-71059309D01*
X93950500Y-70940691D01*
X93919799Y-70826114D01*
X93919797Y-70826111D01*
X93919797Y-70826109D01*
X93860492Y-70723391D01*
X93860490Y-70723389D01*
X93860489Y-70723387D01*
X93835847Y-70698745D01*
X93808072Y-70644231D01*
X93817643Y-70583799D01*
X93835848Y-70558742D01*
X93885858Y-70508733D01*
X93954311Y-70406286D01*
X94001463Y-70292452D01*
X94025500Y-70171606D01*
X94025500Y-70048394D01*
X94001463Y-69927548D01*
X93954311Y-69813714D01*
X93885858Y-69711267D01*
X93885852Y-69711261D01*
X93882765Y-69707498D01*
X93884098Y-69706404D01*
X93859545Y-69658214D01*
X93869116Y-69597782D01*
X93902324Y-69560412D01*
X94057462Y-69456750D01*
X94057466Y-69456747D01*
X94196747Y-69317466D01*
X94196750Y-69317462D01*
X94306185Y-69153685D01*
X94306191Y-69153673D01*
X94381568Y-68971695D01*
X94381571Y-68971684D01*
X94389863Y-68930000D01*
X93586988Y-68930000D01*
X93604205Y-68920060D01*
X93660060Y-68864205D01*
X93699556Y-68795796D01*
X93720000Y-68719496D01*
X93720000Y-68640504D01*
X93699556Y-68564204D01*
X93660060Y-68495795D01*
X93604205Y-68439940D01*
X93586988Y-68430000D01*
X94389862Y-68430000D01*
X95780137Y-68430000D01*
X96583012Y-68430000D01*
X96565795Y-68439940D01*
X96509940Y-68495795D01*
X96470444Y-68564204D01*
X96450000Y-68640504D01*
X96450000Y-68719496D01*
X96470444Y-68795796D01*
X96509940Y-68864205D01*
X96565795Y-68920060D01*
X96583012Y-68930000D01*
X95780137Y-68930000D01*
X95788428Y-68971684D01*
X95788431Y-68971695D01*
X95863808Y-69153673D01*
X95863814Y-69153685D01*
X95973249Y-69317462D01*
X95973252Y-69317466D01*
X96112533Y-69456747D01*
X96112537Y-69456750D01*
X96276314Y-69566185D01*
X96276326Y-69566191D01*
X96458310Y-69641570D01*
X96651506Y-69679999D01*
X96651510Y-69680000D01*
X96799999Y-69680000D01*
X96800000Y-69679999D01*
X96800000Y-68980000D01*
X97300000Y-68980000D01*
X97300000Y-69679999D01*
X97300001Y-69680000D01*
X97448490Y-69680000D01*
X97448493Y-69679999D01*
X97641688Y-69641570D01*
X97641690Y-69641570D01*
X97823673Y-69566191D01*
X97823685Y-69566185D01*
X97987462Y-69456750D01*
X97987466Y-69456747D01*
X98126747Y-69317466D01*
X98126750Y-69317462D01*
X98236185Y-69153685D01*
X98236191Y-69153673D01*
X98311568Y-68971695D01*
X98311571Y-68971684D01*
X98319863Y-68930000D01*
X97516988Y-68930000D01*
X97534205Y-68920060D01*
X97590060Y-68864205D01*
X97629556Y-68795796D01*
X97650000Y-68719496D01*
X97650000Y-68640504D01*
X97629556Y-68564204D01*
X97590060Y-68495795D01*
X97534205Y-68439940D01*
X97516988Y-68430000D01*
X98319862Y-68430000D01*
X98311571Y-68388315D01*
X98311568Y-68388304D01*
X98236191Y-68206326D01*
X98236185Y-68206314D01*
X98126750Y-68042537D01*
X98126747Y-68042533D01*
X97987466Y-67903252D01*
X97987462Y-67903249D01*
X97823685Y-67793814D01*
X97823673Y-67793808D01*
X97641689Y-67718429D01*
X97448493Y-67680000D01*
X97300001Y-67680000D01*
X97300000Y-67680001D01*
X97300000Y-68380000D01*
X96800000Y-68380000D01*
X96800000Y-67680001D01*
X96799999Y-67680000D01*
X96651506Y-67680000D01*
X96458311Y-67718429D01*
X96458309Y-67718429D01*
X96276326Y-67793808D01*
X96276314Y-67793814D01*
X96112537Y-67903249D01*
X96112533Y-67903252D01*
X95973252Y-68042533D01*
X95973249Y-68042537D01*
X95863814Y-68206314D01*
X95863808Y-68206326D01*
X95788431Y-68388304D01*
X95788428Y-68388315D01*
X95780137Y-68430000D01*
X94389862Y-68430000D01*
X94381571Y-68388315D01*
X94381568Y-68388304D01*
X94306191Y-68206326D01*
X94306185Y-68206314D01*
X94196750Y-68042537D01*
X94196747Y-68042533D01*
X94057466Y-67903252D01*
X94057462Y-67903249D01*
X93893685Y-67793814D01*
X93893673Y-67793808D01*
X93711689Y-67718429D01*
X93518493Y-67680000D01*
X93120001Y-67680000D01*
X93120000Y-67680001D01*
X93120000Y-68380000D01*
X92620000Y-68380000D01*
X92620000Y-67680001D01*
X92619999Y-67680000D01*
X92221506Y-67680000D01*
X92028311Y-67718429D01*
X92028309Y-67718429D01*
X91846326Y-67793808D01*
X91846314Y-67793814D01*
X91682537Y-67903249D01*
X91682533Y-67903252D01*
X91543252Y-68042533D01*
X91543249Y-68042537D01*
X91433814Y-68206314D01*
X91433808Y-68206326D01*
X91358431Y-68388304D01*
X91358428Y-68388315D01*
X91350137Y-68430000D01*
X92153012Y-68430000D01*
X92135795Y-68439940D01*
X92079940Y-68495795D01*
X92040444Y-68564204D01*
X92020000Y-68640504D01*
X92020000Y-68719496D01*
X92040444Y-68795796D01*
X92079940Y-68864205D01*
X92135795Y-68920060D01*
X92153012Y-68930000D01*
X91338129Y-68930000D01*
X91311895Y-68946793D01*
X91286900Y-68950000D01*
X91182176Y-68950000D01*
X91122629Y-68956401D01*
X91122618Y-68956403D01*
X90987911Y-69006646D01*
X90987909Y-69006647D01*
X90872815Y-69092807D01*
X90872807Y-69092815D01*
X90786647Y-69207909D01*
X90786646Y-69207911D01*
X90736403Y-69342618D01*
X90736401Y-69342628D01*
X90733055Y-69373756D01*
X90708035Y-69429592D01*
X90654975Y-69460058D01*
X90607002Y-69458242D01*
X90485124Y-69422833D01*
X90450000Y-69420068D01*
X90450000Y-70091000D01*
X90431093Y-70149191D01*
X90381593Y-70185155D01*
X90351000Y-70190000D01*
X90200001Y-70190000D01*
X90200000Y-70190001D01*
X90200000Y-70341000D01*
X90181093Y-70399191D01*
X90131593Y-70435155D01*
X90101000Y-70440000D01*
X89387155Y-70440000D01*
X89427595Y-70579195D01*
X89427595Y-70579196D01*
X89509261Y-70717285D01*
X89622712Y-70830736D01*
X89652051Y-70848087D01*
X89692514Y-70893983D01*
X89698272Y-70954897D01*
X89691382Y-70975136D01*
X89685935Y-70986817D01*
X89685932Y-70986825D01*
X89685932Y-70986827D01*
X89680369Y-71029087D01*
X89679500Y-71035685D01*
X89679500Y-71384314D01*
X89685932Y-71433174D01*
X89685932Y-71433175D01*
X89735933Y-71540401D01*
X89735934Y-71540402D01*
X89735935Y-71540404D01*
X89819596Y-71624065D01*
X89819597Y-71624065D01*
X89819598Y-71624066D01*
X89926824Y-71674067D01*
X89926825Y-71674067D01*
X89926827Y-71674068D01*
X89975684Y-71680500D01*
X89975685Y-71680500D01*
X90424314Y-71680500D01*
X90424316Y-71680500D01*
X90473173Y-71674068D01*
X90580404Y-71624065D01*
X90610497Y-71593972D01*
X90624974Y-71579496D01*
X90679491Y-71551719D01*
X90694977Y-71550500D01*
X90930500Y-71550500D01*
X90988691Y-71569407D01*
X91024655Y-71618907D01*
X91029500Y-71649500D01*
X91029500Y-71850954D01*
X91010593Y-71909145D01*
X90962935Y-71944490D01*
X90948487Y-71949500D01*
X90940438Y-71949500D01*
X90864012Y-71969978D01*
X90825777Y-71992052D01*
X90816873Y-71995140D01*
X90795243Y-71995564D01*
X90774088Y-72000061D01*
X90771518Y-71999757D01*
X90769566Y-71999500D01*
X90769562Y-71999500D01*
X89665479Y-71999500D01*
X89607288Y-71980593D01*
X89595476Y-71970504D01*
X89434510Y-71809539D01*
X89434508Y-71809538D01*
X89415576Y-71798608D01*
X89415576Y-71798607D01*
X89415572Y-71798606D01*
X89380741Y-71778496D01*
X89365988Y-71769978D01*
X89289564Y-71749500D01*
X89289562Y-71749500D01*
X89028365Y-71749500D01*
X88970174Y-71730593D01*
X88944389Y-71699891D01*
X88943965Y-71700194D01*
X88940115Y-71694802D01*
X88939423Y-71693978D01*
X88939198Y-71693517D01*
X88856483Y-71610802D01*
X88835408Y-71600499D01*
X88751395Y-71559427D01*
X88724139Y-71555456D01*
X88683260Y-71549500D01*
X87591740Y-71549500D01*
X87557673Y-71554463D01*
X87523604Y-71559427D01*
X87418518Y-71610801D01*
X87335801Y-71693518D01*
X87284427Y-71798604D01*
X87283645Y-71803972D01*
X87274500Y-71866740D01*
X86725500Y-71866740D01*
X86725301Y-71865374D01*
X86715573Y-71798607D01*
X86705741Y-71778496D01*
X86687065Y-71740292D01*
X86664198Y-71693517D01*
X86581483Y-71610802D01*
X86560408Y-71600499D01*
X86476395Y-71559427D01*
X86449139Y-71555456D01*
X86408260Y-71549500D01*
X85316740Y-71549500D01*
X85282673Y-71554463D01*
X85248604Y-71559427D01*
X85143518Y-71610801D01*
X85060800Y-71693519D01*
X85032527Y-71751351D01*
X84993095Y-71793601D01*
X84984428Y-71798606D01*
X84984424Y-71798608D01*
X84965491Y-71809538D01*
X84965489Y-71809539D01*
X84445438Y-72329589D01*
X84390922Y-72357366D01*
X84330490Y-72347795D01*
X84309320Y-72330000D01*
X82399000Y-72330000D01*
X82340809Y-72311093D01*
X82304845Y-72261593D01*
X82300000Y-72231000D01*
X82300000Y-71929000D01*
X82318907Y-71870809D01*
X82368407Y-71834845D01*
X82399000Y-71830000D01*
X84304504Y-71830000D01*
X84304504Y-71829999D01*
X84262030Y-71683802D01*
X84262030Y-71683801D01*
X84179721Y-71544625D01*
X84065374Y-71430278D01*
X84054834Y-71424045D01*
X84014371Y-71378150D01*
X84007075Y-71325911D01*
X84010500Y-71299901D01*
X84010499Y-70940100D01*
X84003972Y-70890513D01*
X84003972Y-70890511D01*
X83953225Y-70781686D01*
X83953224Y-70781685D01*
X83953224Y-70781684D01*
X83868316Y-70696776D01*
X83868314Y-70696775D01*
X83868313Y-70696774D01*
X83759489Y-70646029D01*
X83759488Y-70646028D01*
X83742958Y-70643852D01*
X83709901Y-70639500D01*
X83709899Y-70639500D01*
X83290103Y-70639500D01*
X83290092Y-70639501D01*
X83240515Y-70646027D01*
X83138584Y-70693558D01*
X83077855Y-70701014D01*
X83071122Y-70699460D01*
X83024449Y-70686954D01*
X82959309Y-70669500D01*
X82840691Y-70669500D01*
X82815468Y-70676258D01*
X82728876Y-70699460D01*
X82667775Y-70696257D01*
X82661415Y-70693558D01*
X82658936Y-70692402D01*
X82559487Y-70646028D01*
X82509901Y-70639500D01*
X82509899Y-70639500D01*
X82090103Y-70639500D01*
X82090092Y-70639501D01*
X82040513Y-70646027D01*
X82040511Y-70646027D01*
X81931686Y-70696774D01*
X81846774Y-70781686D01*
X81795176Y-70892339D01*
X81778244Y-70910496D01*
X81763643Y-70930593D01*
X81757704Y-70932522D01*
X81753448Y-70937087D01*
X81705452Y-70949500D01*
X81563433Y-70949500D01*
X81508431Y-70932815D01*
X81482497Y-70915486D01*
X81482496Y-70915485D01*
X81482495Y-70915485D01*
X81402133Y-70899500D01*
X81402132Y-70899500D01*
X79947870Y-70899500D01*
X79947863Y-70899501D01*
X79867505Y-70915484D01*
X79867503Y-70915485D01*
X79776379Y-70976373D01*
X79776373Y-70976379D01*
X79715486Y-71067501D01*
X79715484Y-71067508D01*
X79703538Y-71127561D01*
X79701240Y-71131662D01*
X79701364Y-71136364D01*
X79686479Y-71158021D01*
X79673641Y-71180945D01*
X79666708Y-71186788D01*
X79659767Y-71192114D01*
X79602091Y-71212538D01*
X79543426Y-71195160D01*
X79506178Y-71146619D01*
X79500500Y-71113572D01*
X79500500Y-69939999D01*
X89387155Y-69939999D01*
X89387156Y-69940000D01*
X89949999Y-69940000D01*
X89950000Y-69939999D01*
X89950000Y-69420068D01*
X89914875Y-69422833D01*
X89760804Y-69467595D01*
X89760803Y-69467595D01*
X89622714Y-69549261D01*
X89509261Y-69662714D01*
X89427595Y-69800803D01*
X89427595Y-69800804D01*
X89387155Y-69939999D01*
X79500500Y-69939999D01*
X79500500Y-68194753D01*
X79489152Y-68152402D01*
X79489152Y-68152401D01*
X79486108Y-68141043D01*
X79480022Y-68118327D01*
X79440460Y-68049804D01*
X76879496Y-65488839D01*
X76854964Y-65440691D01*
X86049500Y-65440691D01*
X86049500Y-65559309D01*
X86069314Y-65633256D01*
X86080202Y-65673890D01*
X86139507Y-65776608D01*
X86139509Y-65776610D01*
X86139511Y-65776613D01*
X86223387Y-65860489D01*
X86223389Y-65860490D01*
X86223391Y-65860492D01*
X86326110Y-65919797D01*
X86326111Y-65919797D01*
X86326114Y-65919799D01*
X86440691Y-65950500D01*
X86440693Y-65950500D01*
X86559309Y-65950500D01*
X86634853Y-65930257D01*
X86695951Y-65933458D01*
X86702301Y-65936153D01*
X86740513Y-65953972D01*
X86790099Y-65960500D01*
X87209900Y-65960499D01*
X87259487Y-65953972D01*
X87361415Y-65906441D01*
X87422145Y-65898985D01*
X87428861Y-65900535D01*
X87540691Y-65930500D01*
X87540693Y-65930500D01*
X87659310Y-65930500D01*
X87659310Y-65930499D01*
X87720525Y-65914097D01*
X87732472Y-65910896D01*
X87793574Y-65914097D01*
X87801577Y-65917582D01*
X87818967Y-65926083D01*
X87848607Y-65940573D01*
X87916740Y-65950500D01*
X87916743Y-65950500D01*
X89008257Y-65950500D01*
X89008260Y-65950500D01*
X89076393Y-65940573D01*
X89181483Y-65889198D01*
X89264198Y-65806483D01*
X89315573Y-65701393D01*
X89325500Y-65633260D01*
X89325500Y-65266740D01*
X89315573Y-65198607D01*
X89264198Y-65093517D01*
X89181483Y-65010802D01*
X89160958Y-65000768D01*
X89076395Y-64959427D01*
X89049139Y-64955456D01*
X89008260Y-64949500D01*
X87916740Y-64949500D01*
X87916738Y-64949500D01*
X87897361Y-64952323D01*
X87837053Y-64942002D01*
X87794329Y-64898203D01*
X87784123Y-64851797D01*
X87786239Y-64770000D01*
X86195495Y-64770000D01*
X86237969Y-64916197D01*
X86237969Y-64916198D01*
X86281783Y-64990283D01*
X86295131Y-65049995D01*
X86270831Y-65106148D01*
X86246071Y-65126414D01*
X86223389Y-65139509D01*
X86139507Y-65223391D01*
X86080202Y-65326109D01*
X86077842Y-65334916D01*
X86049500Y-65440691D01*
X76854964Y-65440691D01*
X76851719Y-65434322D01*
X76850500Y-65418835D01*
X76850500Y-64750000D01*
X89577704Y-64750000D01*
X89577899Y-64752486D01*
X89577901Y-64752493D01*
X89623719Y-64910200D01*
X89623719Y-64910201D01*
X89707314Y-65051552D01*
X89823447Y-65167685D01*
X89826595Y-65169547D01*
X89828213Y-65171382D01*
X89828366Y-65171501D01*
X89828343Y-65171530D01*
X89867058Y-65215442D01*
X89873382Y-65263070D01*
X89874759Y-65263170D01*
X89874500Y-65266737D01*
X89874500Y-65266740D01*
X89874500Y-65633260D01*
X89878354Y-65659711D01*
X89884427Y-65701395D01*
X89928034Y-65790593D01*
X89935802Y-65806483D01*
X90018517Y-65889198D01*
X90062214Y-65910560D01*
X90123604Y-65940572D01*
X90123605Y-65940572D01*
X90123607Y-65940573D01*
X90191740Y-65950500D01*
X90191743Y-65950500D01*
X91283257Y-65950500D01*
X91283260Y-65950500D01*
X91351393Y-65940573D01*
X91381032Y-65926083D01*
X91412785Y-65910560D01*
X91456266Y-65900500D01*
X91559307Y-65900500D01*
X91559309Y-65900500D01*
X91673886Y-65869799D01*
X91686944Y-65862259D01*
X91746791Y-65849536D01*
X91802688Y-65874420D01*
X91806431Y-65877971D01*
X91831684Y-65903224D01*
X91940513Y-65953972D01*
X91990099Y-65960500D01*
X92409900Y-65960499D01*
X92459487Y-65953972D01*
X92459488Y-65953972D01*
X92520547Y-65925499D01*
X92568316Y-65903224D01*
X92611134Y-65860405D01*
X92665648Y-65832629D01*
X92726080Y-65842200D01*
X92730612Y-65844660D01*
X92826114Y-65899799D01*
X92940691Y-65930500D01*
X92940693Y-65930500D01*
X93059307Y-65930500D01*
X93059309Y-65930500D01*
X93075801Y-65926081D01*
X96949500Y-65926081D01*
X96949500Y-66073918D01*
X96978342Y-66218914D01*
X97022660Y-66325906D01*
X97034916Y-66355495D01*
X97117049Y-66478416D01*
X97221584Y-66582951D01*
X97344505Y-66665084D01*
X97481087Y-66721658D01*
X97626082Y-66750500D01*
X97626083Y-66750500D01*
X97773917Y-66750500D01*
X97773918Y-66750500D01*
X97918913Y-66721658D01*
X98055495Y-66665084D01*
X98178416Y-66582951D01*
X98282951Y-66478416D01*
X98365084Y-66355495D01*
X98421658Y-66218913D01*
X98450500Y-66073918D01*
X98450500Y-65926082D01*
X98421658Y-65781087D01*
X98365084Y-65644505D01*
X98282951Y-65521584D01*
X98178416Y-65417049D01*
X98055495Y-65334916D01*
X98055493Y-65334915D01*
X97918914Y-65278342D01*
X97773918Y-65249500D01*
X97626082Y-65249500D01*
X97626081Y-65249500D01*
X97481085Y-65278342D01*
X97344506Y-65334915D01*
X97221585Y-65417048D01*
X97117048Y-65521585D01*
X97034915Y-65644506D01*
X96978342Y-65781085D01*
X96949500Y-65926081D01*
X93075801Y-65926081D01*
X93173886Y-65899799D01*
X93173888Y-65899797D01*
X93173890Y-65899797D01*
X93276608Y-65840492D01*
X93276608Y-65840491D01*
X93276613Y-65840489D01*
X93360489Y-65756613D01*
X93389106Y-65707046D01*
X93434575Y-65666107D01*
X93495425Y-65659711D01*
X93548413Y-65690304D01*
X93554497Y-65697760D01*
X93627845Y-65797144D01*
X93627850Y-65797150D01*
X93627853Y-65797152D01*
X93627855Y-65797154D01*
X93737116Y-65877792D01*
X93737117Y-65877792D01*
X93737118Y-65877793D01*
X93865301Y-65922646D01*
X93895725Y-65925499D01*
X93895727Y-65925500D01*
X93895734Y-65925500D01*
X96004273Y-65925500D01*
X96004273Y-65925499D01*
X96034699Y-65922646D01*
X96162882Y-65877793D01*
X96186328Y-65860489D01*
X96211973Y-65841563D01*
X96255416Y-65809500D01*
X96272150Y-65797150D01*
X96352793Y-65687882D01*
X96397646Y-65559699D01*
X96400499Y-65529273D01*
X96400500Y-65529273D01*
X96400500Y-64670727D01*
X96400499Y-64670725D01*
X96397646Y-64640305D01*
X96397646Y-64640301D01*
X96352793Y-64512118D01*
X96272150Y-64402850D01*
X96272146Y-64402847D01*
X96272144Y-64402845D01*
X96162883Y-64322207D01*
X96034703Y-64277355D01*
X96034694Y-64277353D01*
X96004274Y-64274500D01*
X96004266Y-64274500D01*
X93895734Y-64274500D01*
X93895725Y-64274500D01*
X93865305Y-64277353D01*
X93865296Y-64277355D01*
X93737116Y-64322207D01*
X93627855Y-64402845D01*
X93627845Y-64402855D01*
X93547207Y-64512116D01*
X93502355Y-64640296D01*
X93502353Y-64640305D01*
X93499500Y-64670725D01*
X93499500Y-64700500D01*
X93480593Y-64758691D01*
X93431093Y-64794655D01*
X93400500Y-64799500D01*
X93340435Y-64799500D01*
X93264011Y-64819978D01*
X93264007Y-64819980D01*
X93195488Y-64859539D01*
X93162275Y-64892752D01*
X93107757Y-64920529D01*
X93047326Y-64910955D01*
X93004062Y-64867690D01*
X92994492Y-64807257D01*
X92997204Y-64795126D01*
X93004504Y-64770000D01*
X91346007Y-64770000D01*
X91287816Y-64751093D01*
X91286536Y-64750000D01*
X89577704Y-64750000D01*
X76850500Y-64750000D01*
X76850500Y-64269999D01*
X86195495Y-64269999D01*
X86195496Y-64270000D01*
X86749999Y-64270000D01*
X86750000Y-64269999D01*
X86750000Y-63741209D01*
X87250000Y-63741209D01*
X87250000Y-64269999D01*
X87250001Y-64270000D01*
X87804504Y-64270000D01*
X87804504Y-64269999D01*
X87798694Y-64250000D01*
X89577704Y-64250000D01*
X91943993Y-64250000D01*
X92002184Y-64268907D01*
X92003464Y-64270000D01*
X93004504Y-64270000D01*
X93004504Y-64269999D01*
X92962030Y-64123802D01*
X92962030Y-64123801D01*
X92888752Y-63999895D01*
X92875404Y-63940183D01*
X92899704Y-63884030D01*
X92952369Y-63852884D01*
X92973965Y-63850500D01*
X92989563Y-63850500D01*
X92989563Y-63850499D01*
X93065989Y-63830021D01*
X93134511Y-63790460D01*
X93162485Y-63762485D01*
X93190461Y-63734511D01*
X93502326Y-63422644D01*
X93567591Y-63357378D01*
X93622106Y-63329602D01*
X93682538Y-63339173D01*
X93696376Y-63347724D01*
X93737118Y-63377793D01*
X93865301Y-63422646D01*
X93895725Y-63425499D01*
X93895727Y-63425500D01*
X93895734Y-63425500D01*
X96004273Y-63425500D01*
X96004273Y-63425499D01*
X96034699Y-63422646D01*
X96162882Y-63377793D01*
X96272150Y-63297150D01*
X96352793Y-63187882D01*
X96397646Y-63059699D01*
X96400499Y-63029273D01*
X96400500Y-63029273D01*
X96400500Y-62170727D01*
X96400499Y-62170725D01*
X96397646Y-62140305D01*
X96397646Y-62140301D01*
X96352793Y-62012118D01*
X96325398Y-61974999D01*
X96272154Y-61902855D01*
X96272152Y-61902853D01*
X96272150Y-61902850D01*
X96272146Y-61902847D01*
X96272144Y-61902845D01*
X96162883Y-61822207D01*
X96034703Y-61777355D01*
X96034694Y-61777353D01*
X96004274Y-61774500D01*
X96004266Y-61774500D01*
X93895734Y-61774500D01*
X93895725Y-61774500D01*
X93865305Y-61777353D01*
X93865296Y-61777355D01*
X93737116Y-61822207D01*
X93627855Y-61902845D01*
X93627845Y-61902855D01*
X93547207Y-62012116D01*
X93502355Y-62140296D01*
X93502353Y-62140305D01*
X93499500Y-62170725D01*
X93499500Y-62534521D01*
X93480593Y-62592712D01*
X93470504Y-62604525D01*
X92854525Y-63220504D01*
X92800008Y-63248281D01*
X92784521Y-63249500D01*
X91628365Y-63249500D01*
X91570174Y-63230593D01*
X91544389Y-63199891D01*
X91543965Y-63200194D01*
X91540115Y-63194802D01*
X91539423Y-63193978D01*
X91539198Y-63193518D01*
X91539198Y-63193517D01*
X91456483Y-63110802D01*
X91456481Y-63110801D01*
X91351395Y-63059427D01*
X91324139Y-63055456D01*
X91283260Y-63049500D01*
X90191740Y-63049500D01*
X90157673Y-63054463D01*
X90123604Y-63059427D01*
X90018518Y-63110801D01*
X89935801Y-63193518D01*
X89884427Y-63298604D01*
X89874500Y-63366743D01*
X89874500Y-63733257D01*
X89874759Y-63736830D01*
X89873150Y-63736946D01*
X89863831Y-63791304D01*
X89826598Y-63830452D01*
X89823445Y-63832316D01*
X89707314Y-63948447D01*
X89623719Y-64089798D01*
X89623719Y-64089799D01*
X89577901Y-64247506D01*
X89577899Y-64247513D01*
X89577704Y-64250000D01*
X87798694Y-64250000D01*
X87775886Y-64171495D01*
X87777808Y-64110339D01*
X87815308Y-64061993D01*
X87874064Y-64044923D01*
X87885230Y-64045909D01*
X87916740Y-64050500D01*
X87916741Y-64050500D01*
X89008257Y-64050500D01*
X89008260Y-64050500D01*
X89076393Y-64040573D01*
X89181483Y-63989198D01*
X89264198Y-63906483D01*
X89315573Y-63801393D01*
X89325500Y-63733260D01*
X89325500Y-63366740D01*
X89315573Y-63298607D01*
X89314852Y-63297133D01*
X89264198Y-63193518D01*
X89264198Y-63193517D01*
X89181483Y-63110802D01*
X89181481Y-63110801D01*
X89076395Y-63059427D01*
X89049139Y-63055456D01*
X89008260Y-63049500D01*
X87916740Y-63049500D01*
X87882673Y-63054463D01*
X87848604Y-63059427D01*
X87743518Y-63110801D01*
X87660801Y-63193518D01*
X87609427Y-63298604D01*
X87599500Y-63366743D01*
X87599500Y-63716894D01*
X87580593Y-63775085D01*
X87531093Y-63811049D01*
X87469907Y-63811049D01*
X87450107Y-63802109D01*
X87426195Y-63787968D01*
X87270912Y-63742855D01*
X87250000Y-63741209D01*
X86750000Y-63741209D01*
X86729087Y-63742855D01*
X86573802Y-63787969D01*
X86573801Y-63787969D01*
X86434625Y-63870278D01*
X86320278Y-63984625D01*
X86237969Y-64123801D01*
X86237969Y-64123802D01*
X86195495Y-64269999D01*
X76850500Y-64269999D01*
X76850500Y-61250001D01*
X87275001Y-61250001D01*
X87275001Y-61304150D01*
X87285055Y-61402574D01*
X87285058Y-61402586D01*
X87337907Y-61562075D01*
X87426112Y-61705077D01*
X87544922Y-61823887D01*
X87687924Y-61912092D01*
X87847419Y-61964943D01*
X87945849Y-61974999D01*
X87962499Y-61974999D01*
X87962500Y-61974998D01*
X87962500Y-61250001D01*
X87962499Y-61250000D01*
X87275002Y-61250000D01*
X87275001Y-61250001D01*
X76850500Y-61250001D01*
X76850500Y-60695848D01*
X87275000Y-60695848D01*
X87275000Y-60749999D01*
X87275001Y-60750000D01*
X87962499Y-60750000D01*
X87962500Y-60749999D01*
X87962500Y-59250001D01*
X87962499Y-59250000D01*
X87275002Y-59250000D01*
X87275001Y-59250001D01*
X87275001Y-59304150D01*
X87285055Y-59402574D01*
X87285058Y-59402586D01*
X87337907Y-59562075D01*
X87426112Y-59705077D01*
X87544922Y-59823887D01*
X87692833Y-59915120D01*
X87691515Y-59917255D01*
X87728781Y-59952015D01*
X87740448Y-60012078D01*
X87714582Y-60067527D01*
X87692172Y-60083808D01*
X87692833Y-60084880D01*
X87544922Y-60176112D01*
X87426112Y-60294922D01*
X87337907Y-60437924D01*
X87285056Y-60597419D01*
X87275000Y-60695848D01*
X76850500Y-60695848D01*
X76850500Y-58865479D01*
X76869407Y-58807288D01*
X76879496Y-58795475D01*
X76979123Y-58695848D01*
X87275000Y-58695848D01*
X87275000Y-58749999D01*
X87275001Y-58750000D01*
X87962499Y-58750000D01*
X87962500Y-58749999D01*
X87962500Y-58025001D01*
X88462500Y-58025001D01*
X88462500Y-61974998D01*
X88462501Y-61974999D01*
X88479150Y-61974999D01*
X88577574Y-61964944D01*
X88577586Y-61964941D01*
X88737075Y-61912092D01*
X88880077Y-61823887D01*
X88998887Y-61705077D01*
X89087091Y-61562076D01*
X89089210Y-61557532D01*
X89130931Y-61512777D01*
X89190990Y-61501093D01*
X89246447Y-61526942D01*
X89248916Y-61529325D01*
X89319249Y-61599658D01*
X89437580Y-61659951D01*
X89504130Y-61670491D01*
X89535751Y-61675500D01*
X89535754Y-61675500D01*
X90039249Y-61675500D01*
X90067803Y-61670976D01*
X90137420Y-61659951D01*
X90255751Y-61599658D01*
X90349658Y-61505751D01*
X90407130Y-61392955D01*
X90450394Y-61349692D01*
X90510826Y-61340121D01*
X90565343Y-61367899D01*
X90575313Y-61379781D01*
X90575934Y-61380402D01*
X90575935Y-61380404D01*
X90659596Y-61464065D01*
X90659597Y-61464065D01*
X90659598Y-61464066D01*
X90766824Y-61514067D01*
X90766825Y-61514067D01*
X90766827Y-61514068D01*
X90815684Y-61520500D01*
X90815685Y-61520500D01*
X91164314Y-61520500D01*
X91164316Y-61520500D01*
X91213173Y-61514068D01*
X91320404Y-61464065D01*
X91404065Y-61380404D01*
X91410275Y-61367085D01*
X91452003Y-61322337D01*
X91512064Y-61310662D01*
X91567517Y-61336519D01*
X91589724Y-61367084D01*
X91595935Y-61380404D01*
X91679596Y-61464065D01*
X91679597Y-61464065D01*
X91679598Y-61464066D01*
X91786824Y-61514067D01*
X91786825Y-61514067D01*
X91786827Y-61514068D01*
X91835684Y-61520500D01*
X91835685Y-61520500D01*
X92184314Y-61520500D01*
X92184316Y-61520500D01*
X92233173Y-61514068D01*
X92340404Y-61464065D01*
X92382727Y-61421741D01*
X92437241Y-61393965D01*
X92497673Y-61403536D01*
X92502229Y-61406009D01*
X92526112Y-61419798D01*
X92526114Y-61419799D01*
X92640691Y-61450500D01*
X92640693Y-61450500D01*
X92759307Y-61450500D01*
X92759309Y-61450500D01*
X92873886Y-61419799D01*
X92873888Y-61419797D01*
X92873890Y-61419797D01*
X92976608Y-61360492D01*
X92976608Y-61360491D01*
X92976613Y-61360489D01*
X93060489Y-61276613D01*
X93119799Y-61173886D01*
X93150500Y-61059309D01*
X93150500Y-60956532D01*
X93169407Y-60898341D01*
X93218907Y-60862377D01*
X93280093Y-60862377D01*
X93329593Y-60898341D01*
X93333761Y-60904560D01*
X93357680Y-60943340D01*
X93481659Y-61067319D01*
X93630875Y-61159356D01*
X93797306Y-61214506D01*
X93900012Y-61224999D01*
X94699998Y-61224999D01*
X94700000Y-61224998D01*
X94700000Y-60350001D01*
X95200000Y-60350001D01*
X95200000Y-61224998D01*
X95200001Y-61224999D01*
X95999986Y-61224999D01*
X96102687Y-61214507D01*
X96102699Y-61214504D01*
X96269124Y-61159356D01*
X96418340Y-61067319D01*
X96542319Y-60943340D01*
X96634356Y-60794124D01*
X96689506Y-60627693D01*
X96700000Y-60524987D01*
X96700000Y-60350001D01*
X96699999Y-60350000D01*
X95200001Y-60350000D01*
X95200000Y-60350001D01*
X94700000Y-60350001D01*
X94699999Y-60350000D01*
X93200002Y-60350000D01*
X93200001Y-60350001D01*
X93200001Y-60524986D01*
X93210168Y-60624511D01*
X93197273Y-60684322D01*
X93151684Y-60725130D01*
X93090815Y-60731348D01*
X93041679Y-60704577D01*
X92976613Y-60639511D01*
X92976610Y-60639509D01*
X92976608Y-60639507D01*
X92873889Y-60580202D01*
X92873890Y-60580202D01*
X92860351Y-60576574D01*
X92759309Y-60549500D01*
X92640691Y-60549500D01*
X92583402Y-60564850D01*
X92526112Y-60580201D01*
X92502225Y-60593992D01*
X92442376Y-60606710D01*
X92386482Y-60581821D01*
X92382744Y-60578275D01*
X92340404Y-60535935D01*
X92340402Y-60535934D01*
X92340401Y-60535933D01*
X92233175Y-60485932D01*
X92200601Y-60481644D01*
X92184316Y-60479500D01*
X91835684Y-60479500D01*
X91819398Y-60481644D01*
X91786825Y-60485932D01*
X91786824Y-60485932D01*
X91679598Y-60535933D01*
X91595933Y-60619598D01*
X91589724Y-60632915D01*
X91547995Y-60677663D01*
X91487934Y-60689337D01*
X91432482Y-60663478D01*
X91410276Y-60632915D01*
X91404066Y-60619598D01*
X91404065Y-60619597D01*
X91404065Y-60619596D01*
X91320404Y-60535935D01*
X91320402Y-60535934D01*
X91320401Y-60535933D01*
X91213175Y-60485932D01*
X91180601Y-60481644D01*
X91164316Y-60479500D01*
X90815684Y-60479500D01*
X90799398Y-60481644D01*
X90766825Y-60485932D01*
X90766824Y-60485932D01*
X90659598Y-60535933D01*
X90659596Y-60535934D01*
X90659596Y-60535935D01*
X90575935Y-60619596D01*
X90575934Y-60619597D01*
X90569811Y-60625721D01*
X90568758Y-60624668D01*
X90527564Y-60655706D01*
X90466387Y-60656769D01*
X90416270Y-60621671D01*
X90407130Y-60607043D01*
X90362675Y-60519797D01*
X90349658Y-60494249D01*
X90255751Y-60400342D01*
X90251631Y-60398243D01*
X90137423Y-60340050D01*
X90137420Y-60340049D01*
X90112876Y-60336161D01*
X90039249Y-60324500D01*
X90039246Y-60324500D01*
X89535754Y-60324500D01*
X89535751Y-60324500D01*
X89437580Y-60340049D01*
X89437576Y-60340050D01*
X89319249Y-60400342D01*
X89319247Y-60400343D01*
X89248944Y-60470646D01*
X89194427Y-60498423D01*
X89133995Y-60488851D01*
X89090731Y-60445586D01*
X89089212Y-60442470D01*
X89087095Y-60437928D01*
X88998887Y-60294922D01*
X88880077Y-60176112D01*
X88732167Y-60084880D01*
X88733487Y-60082739D01*
X88696232Y-60048010D01*
X88684548Y-59987951D01*
X88710397Y-59932494D01*
X88732830Y-59916195D01*
X88732167Y-59915120D01*
X88880077Y-59823887D01*
X88998887Y-59705077D01*
X89087091Y-59562076D01*
X89089210Y-59557532D01*
X89130931Y-59512777D01*
X89190990Y-59501093D01*
X89246447Y-59526942D01*
X89248916Y-59529325D01*
X89319249Y-59599658D01*
X89437580Y-59659951D01*
X89504130Y-59670491D01*
X89535751Y-59675500D01*
X89535754Y-59675500D01*
X90039249Y-59675500D01*
X90067803Y-59670976D01*
X90137420Y-59659951D01*
X90255751Y-59599658D01*
X90349658Y-59505751D01*
X90409951Y-59387420D01*
X90409951Y-59387415D01*
X90411396Y-59384581D01*
X90454661Y-59341316D01*
X90515093Y-59331745D01*
X90569609Y-59359522D01*
X90579830Y-59374105D01*
X90580967Y-59373309D01*
X90585932Y-59380400D01*
X90585934Y-59380402D01*
X90585935Y-59380404D01*
X90669596Y-59464065D01*
X90669597Y-59464065D01*
X90669598Y-59464066D01*
X90776824Y-59514067D01*
X90776825Y-59514067D01*
X90776827Y-59514068D01*
X90825684Y-59520500D01*
X90825685Y-59520500D01*
X91174314Y-59520500D01*
X91174316Y-59520500D01*
X91223173Y-59514068D01*
X91330404Y-59464065D01*
X91414065Y-59380404D01*
X91420275Y-59367085D01*
X91462003Y-59322337D01*
X91522064Y-59310662D01*
X91577517Y-59336519D01*
X91599724Y-59367084D01*
X91605935Y-59380404D01*
X91689596Y-59464065D01*
X91689597Y-59464065D01*
X91689598Y-59464066D01*
X91796824Y-59514067D01*
X91796825Y-59514067D01*
X91796827Y-59514068D01*
X91845684Y-59520500D01*
X91845685Y-59520500D01*
X92194314Y-59520500D01*
X92194316Y-59520500D01*
X92243173Y-59514068D01*
X92350404Y-59464065D01*
X92425670Y-59388798D01*
X92480184Y-59361022D01*
X92540617Y-59370593D01*
X92545165Y-59373062D01*
X92626114Y-59419799D01*
X92740691Y-59450500D01*
X92740693Y-59450500D01*
X92859307Y-59450500D01*
X92859309Y-59450500D01*
X92973886Y-59419799D01*
X92973888Y-59419797D01*
X92973890Y-59419797D01*
X93076608Y-59360492D01*
X93076608Y-59360491D01*
X93076613Y-59360489D01*
X93086447Y-59350654D01*
X93140961Y-59322876D01*
X93201393Y-59332446D01*
X93244659Y-59375709D01*
X93254233Y-59436141D01*
X93250426Y-59451797D01*
X93210493Y-59572306D01*
X93200000Y-59675012D01*
X93200000Y-59849999D01*
X93200001Y-59850000D01*
X94699999Y-59850000D01*
X94700000Y-59849999D01*
X94700000Y-58975001D01*
X95200000Y-58975001D01*
X95200000Y-59849999D01*
X95200001Y-59850000D01*
X96699998Y-59850000D01*
X96699999Y-59849999D01*
X96699999Y-59675013D01*
X96689507Y-59572312D01*
X96689504Y-59572300D01*
X96634356Y-59405875D01*
X96542319Y-59256659D01*
X96418340Y-59132680D01*
X96407641Y-59126081D01*
X96949500Y-59126081D01*
X96949500Y-59273918D01*
X96978342Y-59418914D01*
X97034915Y-59555493D01*
X97034916Y-59555495D01*
X97117049Y-59678416D01*
X97221584Y-59782951D01*
X97344505Y-59865084D01*
X97481087Y-59921658D01*
X97626082Y-59950500D01*
X97626083Y-59950500D01*
X97773917Y-59950500D01*
X97773918Y-59950500D01*
X97918913Y-59921658D01*
X98055495Y-59865084D01*
X98178416Y-59782951D01*
X98282951Y-59678416D01*
X98365084Y-59555495D01*
X98421658Y-59418913D01*
X98450500Y-59273918D01*
X98450500Y-59126082D01*
X98421658Y-58981087D01*
X98365084Y-58844505D01*
X98282951Y-58721584D01*
X98178416Y-58617049D01*
X98055495Y-58534916D01*
X98055493Y-58534915D01*
X97918914Y-58478342D01*
X97773918Y-58449500D01*
X97626082Y-58449500D01*
X97626081Y-58449500D01*
X97481085Y-58478342D01*
X97344506Y-58534915D01*
X97221585Y-58617048D01*
X97117048Y-58721585D01*
X97034915Y-58844506D01*
X96978342Y-58981085D01*
X96949500Y-59126081D01*
X96407641Y-59126081D01*
X96269124Y-59040643D01*
X96102693Y-58985493D01*
X95999987Y-58975000D01*
X95200001Y-58975000D01*
X95200000Y-58975001D01*
X94700000Y-58975001D01*
X94699999Y-58975000D01*
X93900013Y-58975000D01*
X93797312Y-58985492D01*
X93797300Y-58985495D01*
X93630875Y-59040643D01*
X93481658Y-59132681D01*
X93481655Y-59132683D01*
X93400290Y-59214048D01*
X93345773Y-59241825D01*
X93285341Y-59232253D01*
X93242077Y-59188989D01*
X93232506Y-59128556D01*
X93234661Y-59118420D01*
X93250500Y-59059309D01*
X93250500Y-58940691D01*
X93219799Y-58826114D01*
X93219797Y-58826111D01*
X93219797Y-58826109D01*
X93160492Y-58723391D01*
X93160490Y-58723389D01*
X93160489Y-58723387D01*
X93076613Y-58639511D01*
X93076610Y-58639509D01*
X93076608Y-58639507D01*
X92973889Y-58580202D01*
X92973890Y-58580202D01*
X92960351Y-58576574D01*
X92859309Y-58549500D01*
X92740691Y-58549500D01*
X92683402Y-58564850D01*
X92626112Y-58580201D01*
X92545172Y-58626933D01*
X92485324Y-58639654D01*
X92429428Y-58614767D01*
X92425687Y-58611218D01*
X92350404Y-58535935D01*
X92350402Y-58535934D01*
X92350401Y-58535933D01*
X92243175Y-58485932D01*
X92210601Y-58481644D01*
X92194316Y-58479500D01*
X91845684Y-58479500D01*
X91829398Y-58481644D01*
X91796825Y-58485932D01*
X91796824Y-58485932D01*
X91689598Y-58535933D01*
X91605933Y-58619598D01*
X91599724Y-58632915D01*
X91557995Y-58677663D01*
X91497934Y-58689337D01*
X91442482Y-58663478D01*
X91420276Y-58632915D01*
X91414066Y-58619598D01*
X91414065Y-58619597D01*
X91414065Y-58619596D01*
X91330404Y-58535935D01*
X91330402Y-58535934D01*
X91330401Y-58535933D01*
X91223175Y-58485932D01*
X91190601Y-58481644D01*
X91174316Y-58479500D01*
X90825684Y-58479500D01*
X90809398Y-58481644D01*
X90776825Y-58485932D01*
X90776824Y-58485932D01*
X90669598Y-58535933D01*
X90585932Y-58619599D01*
X90580967Y-58626691D01*
X90577932Y-58624566D01*
X90547468Y-58657135D01*
X90487388Y-58668716D01*
X90431976Y-58642772D01*
X90411396Y-58615418D01*
X90409951Y-58612582D01*
X90409951Y-58612580D01*
X90349658Y-58494249D01*
X90255751Y-58400342D01*
X90212631Y-58378371D01*
X90137423Y-58340050D01*
X90137420Y-58340049D01*
X90112876Y-58336161D01*
X90039249Y-58324500D01*
X90039246Y-58324500D01*
X89535754Y-58324500D01*
X89535751Y-58324500D01*
X89437580Y-58340049D01*
X89437576Y-58340050D01*
X89319249Y-58400342D01*
X89319247Y-58400343D01*
X89248944Y-58470646D01*
X89194427Y-58498423D01*
X89133995Y-58488851D01*
X89090731Y-58445586D01*
X89089212Y-58442470D01*
X89087095Y-58437928D01*
X88998887Y-58294922D01*
X88880077Y-58176112D01*
X88737075Y-58087907D01*
X88577580Y-58035056D01*
X88479151Y-58025000D01*
X88462501Y-58025000D01*
X88462500Y-58025001D01*
X87962500Y-58025001D01*
X87962500Y-58025000D01*
X87945862Y-58025000D01*
X87945855Y-58025001D01*
X87847424Y-58035055D01*
X87847413Y-58035058D01*
X87687924Y-58087907D01*
X87544922Y-58176112D01*
X87426112Y-58294922D01*
X87337907Y-58437924D01*
X87285056Y-58597419D01*
X87275000Y-58695848D01*
X76979123Y-58695848D01*
X77295475Y-58379496D01*
X77349992Y-58351719D01*
X77365479Y-58350500D01*
X77929747Y-58350500D01*
X77929748Y-58350500D01*
X77988231Y-58338867D01*
X78054552Y-58294552D01*
X78092686Y-58237481D01*
X78140735Y-58199603D01*
X78201873Y-58197201D01*
X78252746Y-58231194D01*
X78257307Y-58237472D01*
X78295448Y-58294552D01*
X78361769Y-58338867D01*
X78406231Y-58347711D01*
X78420241Y-58350498D01*
X78420246Y-58350498D01*
X78420252Y-58350500D01*
X78420253Y-58350500D01*
X79199747Y-58350500D01*
X79199748Y-58350500D01*
X79258231Y-58338867D01*
X79324552Y-58294552D01*
X79368867Y-58228231D01*
X79380500Y-58169748D01*
X79380500Y-55730252D01*
X79368867Y-55671769D01*
X79324552Y-55605448D01*
X79289182Y-55581814D01*
X79251304Y-55533765D01*
X79248902Y-55472627D01*
X79282895Y-55421753D01*
X79340299Y-55400576D01*
X79344185Y-55400500D01*
X82999563Y-55400500D01*
X82999563Y-55400499D01*
X83075989Y-55380021D01*
X83144511Y-55340460D01*
X83200460Y-55284511D01*
X83729996Y-54754975D01*
X83784513Y-54727198D01*
X83844945Y-54736769D01*
X83870004Y-54754975D01*
X84030504Y-54915475D01*
X84058281Y-54969992D01*
X84059500Y-54985479D01*
X84059500Y-55209895D01*
X84059501Y-55209907D01*
X84066027Y-55259486D01*
X84066027Y-55259488D01*
X84116774Y-55368313D01*
X84116775Y-55368314D01*
X84116776Y-55368316D01*
X84201684Y-55453224D01*
X84310513Y-55503972D01*
X84360099Y-55510500D01*
X84719900Y-55510499D01*
X84745910Y-55507075D01*
X84806070Y-55518226D01*
X84844042Y-55554830D01*
X84850278Y-55565374D01*
X84964625Y-55679721D01*
X85103802Y-55762030D01*
X85249999Y-55804504D01*
X85250000Y-55804504D01*
X85250000Y-55250001D01*
X85750000Y-55250001D01*
X85750000Y-55804504D01*
X85896197Y-55762030D01*
X85896198Y-55762030D01*
X86035374Y-55679721D01*
X86149721Y-55565374D01*
X86232030Y-55426198D01*
X86232030Y-55426197D01*
X86277144Y-55270912D01*
X86278791Y-55250000D01*
X85750001Y-55250000D01*
X85750000Y-55250001D01*
X85250000Y-55250001D01*
X85250000Y-55099000D01*
X85268907Y-55040809D01*
X85318407Y-55004845D01*
X85349000Y-55000000D01*
X85499999Y-55000000D01*
X85500000Y-54999999D01*
X85500000Y-54849000D01*
X85518907Y-54790809D01*
X85568407Y-54754845D01*
X85599000Y-54750000D01*
X86278789Y-54750000D01*
X86277144Y-54729087D01*
X86277143Y-54729079D01*
X86232030Y-54573802D01*
X86232030Y-54573801D01*
X86149721Y-54434625D01*
X86049994Y-54334898D01*
X86022217Y-54280381D01*
X86029433Y-54224909D01*
X86047755Y-54183415D01*
X86050500Y-54159754D01*
X86050500Y-53699500D01*
X86055345Y-53684588D01*
X86055345Y-53668907D01*
X86064561Y-53656221D01*
X86069407Y-53641309D01*
X86082092Y-53632092D01*
X86091309Y-53619407D01*
X86106221Y-53614561D01*
X86118907Y-53605345D01*
X86149500Y-53600500D01*
X86300500Y-53600500D01*
X86358691Y-53619407D01*
X86394655Y-53668907D01*
X86399500Y-53699500D01*
X86399500Y-53704314D01*
X86405932Y-53753174D01*
X86405932Y-53753175D01*
X86455933Y-53860401D01*
X86455934Y-53860402D01*
X86455935Y-53860404D01*
X86539596Y-53944065D01*
X86539597Y-53944065D01*
X86539598Y-53944066D01*
X86646824Y-53994067D01*
X86646825Y-53994067D01*
X86646827Y-53994068D01*
X86695684Y-54000500D01*
X86695685Y-54000500D01*
X87404314Y-54000500D01*
X87404316Y-54000500D01*
X87453173Y-53994068D01*
X87560404Y-53944065D01*
X87644065Y-53860404D01*
X87694068Y-53753173D01*
X87700500Y-53704316D01*
X87700500Y-52895684D01*
X87694068Y-52846827D01*
X87644756Y-52741079D01*
X87637300Y-52680351D01*
X87666963Y-52626837D01*
X87684086Y-52614027D01*
X87757287Y-52570736D01*
X87870738Y-52457285D01*
X87952404Y-52319196D01*
X87952404Y-52319195D01*
X87997165Y-52165128D01*
X87997167Y-52165121D01*
X88000000Y-52129122D01*
X88000000Y-51950001D01*
X87999999Y-51950000D01*
X86100001Y-51950000D01*
X86100000Y-51950001D01*
X86100000Y-52129122D01*
X86102832Y-52165121D01*
X86102834Y-52165128D01*
X86147595Y-52319195D01*
X86147595Y-52319196D01*
X86229261Y-52457285D01*
X86342714Y-52570738D01*
X86415913Y-52614028D01*
X86456376Y-52659923D01*
X86462134Y-52720837D01*
X86455243Y-52741080D01*
X86405932Y-52846827D01*
X86399500Y-52895685D01*
X86399500Y-52900500D01*
X86380593Y-52958691D01*
X86331093Y-52994655D01*
X86300500Y-52999500D01*
X83699500Y-52999500D01*
X83641309Y-52980593D01*
X83605345Y-52931093D01*
X83600500Y-52900500D01*
X83600500Y-52895685D01*
X83600500Y-52895684D01*
X83594068Y-52846827D01*
X83544756Y-52741079D01*
X83537300Y-52680351D01*
X83566963Y-52626837D01*
X83584086Y-52614027D01*
X83657287Y-52570736D01*
X83770738Y-52457285D01*
X83852404Y-52319196D01*
X83852404Y-52319195D01*
X83897165Y-52165128D01*
X83897167Y-52165121D01*
X83900000Y-52129122D01*
X83900000Y-51950001D01*
X83899999Y-51950000D01*
X82000001Y-51950000D01*
X82000000Y-51950001D01*
X82000000Y-52129122D01*
X82002832Y-52165121D01*
X82002834Y-52165128D01*
X82047595Y-52319195D01*
X82047595Y-52319196D01*
X82129261Y-52457285D01*
X82242714Y-52570738D01*
X82315913Y-52614028D01*
X82356376Y-52659923D01*
X82362134Y-52720837D01*
X82355243Y-52741080D01*
X82305932Y-52846827D01*
X82299500Y-52895685D01*
X82299500Y-53704314D01*
X82305932Y-53753174D01*
X82305932Y-53753175D01*
X82355933Y-53860401D01*
X82355934Y-53860402D01*
X82355935Y-53860404D01*
X82439596Y-53944065D01*
X82439597Y-53944065D01*
X82439598Y-53944066D01*
X82546824Y-53994067D01*
X82546825Y-53994067D01*
X82546827Y-53994068D01*
X82595684Y-54000500D01*
X82595685Y-54000500D01*
X83304314Y-54000500D01*
X83304316Y-54000500D01*
X83353173Y-53994068D01*
X83358661Y-53991508D01*
X83364855Y-53990748D01*
X83369907Y-53987078D01*
X83394746Y-53987078D01*
X83419389Y-53984052D01*
X83424848Y-53987078D01*
X83431093Y-53987078D01*
X83451186Y-54001676D01*
X83472903Y-54013714D01*
X83475541Y-54019371D01*
X83480593Y-54023042D01*
X83488267Y-54046662D01*
X83498762Y-54069167D01*
X83499500Y-54081233D01*
X83499500Y-54094521D01*
X83480593Y-54152712D01*
X83470504Y-54164525D01*
X82864525Y-54770504D01*
X82810008Y-54798281D01*
X82794521Y-54799500D01*
X77037739Y-54799500D01*
X76979548Y-54780593D01*
X76943584Y-54731093D01*
X76943584Y-54669907D01*
X76978410Y-54621247D01*
X76997184Y-54607192D01*
X76997192Y-54607184D01*
X77084789Y-54490171D01*
X77134798Y-54454918D01*
X77164042Y-54450500D01*
X77929747Y-54450500D01*
X77929748Y-54450500D01*
X77988231Y-54438867D01*
X78054552Y-54394552D01*
X78092686Y-54337481D01*
X78140735Y-54299603D01*
X78201873Y-54297201D01*
X78252746Y-54331194D01*
X78257307Y-54337472D01*
X78295448Y-54394552D01*
X78295451Y-54394554D01*
X78355420Y-54434625D01*
X78361769Y-54438867D01*
X78406231Y-54447711D01*
X78420241Y-54450498D01*
X78420246Y-54450498D01*
X78420252Y-54450500D01*
X78420253Y-54450500D01*
X79199747Y-54450500D01*
X79199748Y-54450500D01*
X79258231Y-54438867D01*
X79324552Y-54394552D01*
X79368867Y-54328231D01*
X79380500Y-54269748D01*
X79380500Y-51830252D01*
X79368867Y-51771769D01*
X79324552Y-51705448D01*
X79324548Y-51705445D01*
X79258233Y-51661134D01*
X79258231Y-51661133D01*
X79258228Y-51661132D01*
X79258227Y-51661132D01*
X79199758Y-51649501D01*
X79199748Y-51649500D01*
X78420252Y-51649500D01*
X78420251Y-51649500D01*
X78420241Y-51649501D01*
X78361772Y-51661132D01*
X78361766Y-51661134D01*
X78295451Y-51705445D01*
X78295445Y-51705451D01*
X78257315Y-51762517D01*
X78254144Y-51765016D01*
X78252747Y-51768805D01*
X78230382Y-51783748D01*
X78209265Y-51800396D01*
X78205230Y-51800554D01*
X78201873Y-51802798D01*
X78175000Y-51801742D01*
X78148127Y-51802798D01*
X78144769Y-51800554D01*
X78140735Y-51800396D01*
X78119617Y-51783748D01*
X78097253Y-51768805D01*
X78092685Y-51762517D01*
X78066794Y-51723769D01*
X78050185Y-51664881D01*
X78050500Y-51661187D01*
X78050500Y-51540692D01*
X78038938Y-51497543D01*
X78019799Y-51426114D01*
X78019797Y-51426110D01*
X78019797Y-51426109D01*
X77960493Y-51323393D01*
X77960491Y-51323390D01*
X77960490Y-51323389D01*
X77960489Y-51323387D01*
X77907979Y-51270877D01*
X82000000Y-51270877D01*
X82000000Y-51449999D01*
X82000001Y-51450000D01*
X82699999Y-51450000D01*
X82700000Y-51449999D01*
X82700000Y-50700001D01*
X83200000Y-50700001D01*
X83200000Y-51449999D01*
X83200001Y-51450000D01*
X83899999Y-51450000D01*
X83900000Y-51449999D01*
X83900000Y-51270877D01*
X86100000Y-51270877D01*
X86100000Y-51449999D01*
X86100001Y-51450000D01*
X86799999Y-51450000D01*
X86800000Y-51449999D01*
X86800000Y-50700001D01*
X87300000Y-50700001D01*
X87300000Y-51449999D01*
X87300001Y-51450000D01*
X87999999Y-51450000D01*
X88000000Y-51449999D01*
X88000000Y-51270877D01*
X87997167Y-51234878D01*
X87997165Y-51234871D01*
X87952404Y-51080804D01*
X87952404Y-51080803D01*
X87870738Y-50942714D01*
X87757285Y-50829261D01*
X87619195Y-50747595D01*
X87465128Y-50702834D01*
X87465121Y-50702832D01*
X87429123Y-50700000D01*
X87300001Y-50700000D01*
X87300000Y-50700001D01*
X86800000Y-50700001D01*
X86799999Y-50700000D01*
X86670877Y-50700000D01*
X86634878Y-50702832D01*
X86634871Y-50702834D01*
X86480804Y-50747595D01*
X86480803Y-50747595D01*
X86342714Y-50829261D01*
X86229261Y-50942714D01*
X86147595Y-51080803D01*
X86147595Y-51080804D01*
X86102834Y-51234871D01*
X86102832Y-51234878D01*
X86100000Y-51270877D01*
X83900000Y-51270877D01*
X83897167Y-51234878D01*
X83897165Y-51234871D01*
X83852404Y-51080804D01*
X83852404Y-51080803D01*
X83770738Y-50942714D01*
X83657285Y-50829261D01*
X83519195Y-50747595D01*
X83365128Y-50702834D01*
X83365121Y-50702832D01*
X83329123Y-50700000D01*
X83200001Y-50700000D01*
X83200000Y-50700001D01*
X82700000Y-50700001D01*
X82699999Y-50700000D01*
X82570877Y-50700000D01*
X82534878Y-50702832D01*
X82534871Y-50702834D01*
X82380804Y-50747595D01*
X82380803Y-50747595D01*
X82242714Y-50829261D01*
X82129261Y-50942714D01*
X82047595Y-51080803D01*
X82047595Y-51080804D01*
X82002834Y-51234871D01*
X82002832Y-51234878D01*
X82000000Y-51270877D01*
X77907979Y-51270877D01*
X77876613Y-51239511D01*
X77876610Y-51239509D01*
X77876608Y-51239507D01*
X77773889Y-51180202D01*
X77773890Y-51180202D01*
X77760351Y-51176574D01*
X77659309Y-51149500D01*
X77540691Y-51149500D01*
X77470567Y-51168289D01*
X77426109Y-51180202D01*
X77323391Y-51239507D01*
X77239507Y-51323391D01*
X77180202Y-51426110D01*
X77180200Y-51426114D01*
X77171547Y-51458409D01*
X77138223Y-51509723D01*
X77081101Y-51531649D01*
X77022001Y-51515813D01*
X77002469Y-51497543D01*
X77002195Y-51497818D01*
X76997184Y-51492807D01*
X76882090Y-51406647D01*
X76882088Y-51406646D01*
X76747381Y-51356403D01*
X76747370Y-51356401D01*
X76687824Y-51350000D01*
X76520001Y-51350000D01*
X76520000Y-51350001D01*
X76520000Y-52951000D01*
X76501093Y-53009191D01*
X76451593Y-53045155D01*
X76421000Y-53050000D01*
X76270001Y-53050000D01*
X76270000Y-53050001D01*
X76270000Y-53201000D01*
X76251093Y-53259191D01*
X76201593Y-53295155D01*
X76171000Y-53300000D01*
X75099000Y-53300000D01*
X75040809Y-53281093D01*
X75004845Y-53231593D01*
X75000000Y-53201000D01*
X75000000Y-53050001D01*
X74999999Y-53050000D01*
X74849000Y-53050000D01*
X74790809Y-53031093D01*
X74754845Y-52981593D01*
X74750000Y-52951000D01*
X74750000Y-51350001D01*
X75250000Y-51350001D01*
X75250000Y-52799999D01*
X75250001Y-52800000D01*
X76019999Y-52800000D01*
X76020000Y-52799999D01*
X76020000Y-51350001D01*
X76019999Y-51350000D01*
X75852176Y-51350000D01*
X75792629Y-51356401D01*
X75792618Y-51356403D01*
X75669596Y-51402288D01*
X75608467Y-51404908D01*
X75600404Y-51402288D01*
X75477381Y-51356403D01*
X75477370Y-51356401D01*
X75417824Y-51350000D01*
X75250001Y-51350000D01*
X75250000Y-51350001D01*
X74750000Y-51350001D01*
X74749999Y-51350000D01*
X74582176Y-51350000D01*
X74522629Y-51356401D01*
X74522618Y-51356403D01*
X74387911Y-51406646D01*
X74387909Y-51406647D01*
X74272815Y-51492807D01*
X74272807Y-51492815D01*
X74185210Y-51609829D01*
X74135201Y-51645082D01*
X74105957Y-51649500D01*
X73354042Y-51649500D01*
X73295851Y-51630593D01*
X73274789Y-51609829D01*
X73187192Y-51492815D01*
X73187184Y-51492807D01*
X73072090Y-51406647D01*
X73072088Y-51406646D01*
X72937381Y-51356403D01*
X72937370Y-51356401D01*
X72877824Y-51350000D01*
X72710001Y-51350000D01*
X72710000Y-51350001D01*
X72710000Y-52951000D01*
X72691093Y-53009191D01*
X72641593Y-53045155D01*
X72611000Y-53050000D01*
X72309000Y-53050000D01*
X72250809Y-53031093D01*
X72214845Y-52981593D01*
X72210000Y-52951000D01*
X72210000Y-51350001D01*
X72209999Y-51350000D01*
X72042176Y-51350000D01*
X71982629Y-51356401D01*
X71982618Y-51356403D01*
X71847911Y-51406646D01*
X71847909Y-51406647D01*
X71732815Y-51492807D01*
X71732807Y-51492815D01*
X71645210Y-51609829D01*
X71595201Y-51645082D01*
X71565957Y-51649500D01*
X70800252Y-51649500D01*
X70800251Y-51649500D01*
X70800241Y-51649501D01*
X70741772Y-51661132D01*
X70741766Y-51661134D01*
X70675451Y-51705445D01*
X70675445Y-51705451D01*
X70631134Y-51771766D01*
X70631132Y-51771772D01*
X70619501Y-51830241D01*
X70619500Y-51830253D01*
X70619500Y-53154521D01*
X70600593Y-53212712D01*
X70590504Y-53224525D01*
X70335489Y-53479540D01*
X70335488Y-53479539D01*
X70279539Y-53535489D01*
X70239980Y-53604007D01*
X70239978Y-53604011D01*
X70219500Y-53680435D01*
X70219500Y-58104048D01*
X70200593Y-58162239D01*
X70151093Y-58198203D01*
X70089907Y-58198203D01*
X70050496Y-58174052D01*
X67538960Y-55662517D01*
X66635983Y-54759540D01*
X66627851Y-54754845D01*
X66603027Y-54740512D01*
X66603027Y-54740513D01*
X66567461Y-54719979D01*
X66567460Y-54719978D01*
X66567459Y-54719978D01*
X66491036Y-54699500D01*
X66491034Y-54699500D01*
X66392702Y-54699500D01*
X66334511Y-54680593D01*
X66298547Y-54631093D01*
X66298547Y-54569907D01*
X66322696Y-54530498D01*
X66440460Y-54412735D01*
X66461675Y-54375989D01*
X66480021Y-54344213D01*
X66500500Y-54267786D01*
X66500500Y-54081233D01*
X66519407Y-54023042D01*
X66568907Y-53987078D01*
X66630093Y-53987078D01*
X66641335Y-53991507D01*
X66646827Y-53994068D01*
X66695684Y-54000500D01*
X66695685Y-54000500D01*
X67404314Y-54000500D01*
X67404316Y-54000500D01*
X67453173Y-53994068D01*
X67560404Y-53944065D01*
X67644065Y-53860404D01*
X67668660Y-53807661D01*
X67710388Y-53762913D01*
X67758384Y-53750500D01*
X67859307Y-53750500D01*
X67859309Y-53750500D01*
X67973886Y-53719799D01*
X67973888Y-53719797D01*
X67973890Y-53719797D01*
X68076608Y-53660492D01*
X68076608Y-53660491D01*
X68076613Y-53660489D01*
X68160489Y-53576613D01*
X68216535Y-53479540D01*
X68219797Y-53473890D01*
X68219797Y-53473888D01*
X68219799Y-53473886D01*
X68250500Y-53359309D01*
X68250500Y-53240691D01*
X68219799Y-53126114D01*
X68219797Y-53126111D01*
X68219797Y-53126109D01*
X68160492Y-53023391D01*
X68160490Y-53023389D01*
X68160489Y-53023387D01*
X68076613Y-52939511D01*
X68076610Y-52939509D01*
X68076608Y-52939507D01*
X67973889Y-52880202D01*
X67973890Y-52880202D01*
X67960351Y-52876574D01*
X67859309Y-52849500D01*
X67758384Y-52849500D01*
X67700193Y-52830593D01*
X67668660Y-52792339D01*
X67644066Y-52739598D01*
X67644065Y-52739597D01*
X67644065Y-52739596D01*
X67560404Y-52655935D01*
X67560402Y-52655934D01*
X67560401Y-52655933D01*
X67453175Y-52605932D01*
X67420601Y-52601644D01*
X67404316Y-52599500D01*
X66695684Y-52599500D01*
X66679398Y-52601644D01*
X66646825Y-52605932D01*
X66641334Y-52608493D01*
X66635141Y-52609252D01*
X66630093Y-52612921D01*
X66605253Y-52612921D01*
X66580605Y-52615946D01*
X66575148Y-52612921D01*
X66568907Y-52612921D01*
X66548811Y-52598320D01*
X66527092Y-52586280D01*
X66524455Y-52580624D01*
X66519407Y-52576957D01*
X66511732Y-52553336D01*
X66501237Y-52530826D01*
X66500500Y-52518766D01*
X66500500Y-52481233D01*
X66519407Y-52423042D01*
X66568907Y-52387078D01*
X66630093Y-52387078D01*
X66641335Y-52391507D01*
X66646827Y-52394068D01*
X66695684Y-52400500D01*
X66695685Y-52400500D01*
X67404314Y-52400500D01*
X67404316Y-52400500D01*
X67453173Y-52394068D01*
X67560404Y-52344065D01*
X67644065Y-52260404D01*
X67694068Y-52153173D01*
X67700500Y-52104316D01*
X67700500Y-51295684D01*
X67694068Y-51246827D01*
X67690656Y-51239511D01*
X67644066Y-51139598D01*
X67644065Y-51139597D01*
X67644065Y-51139596D01*
X67560404Y-51055935D01*
X67560402Y-51055934D01*
X67560401Y-51055933D01*
X67453175Y-51005932D01*
X67420601Y-51001644D01*
X67404316Y-50999500D01*
X66695684Y-50999500D01*
X66679398Y-51001644D01*
X66646825Y-51005932D01*
X66646824Y-51005932D01*
X66539598Y-51055933D01*
X66455933Y-51139598D01*
X66405932Y-51246824D01*
X66405932Y-51246825D01*
X66399500Y-51295685D01*
X66399500Y-51300500D01*
X66380593Y-51358691D01*
X66331093Y-51394655D01*
X66300500Y-51399500D01*
X63699500Y-51399500D01*
X63641309Y-51380593D01*
X63605345Y-51331093D01*
X63600500Y-51300500D01*
X63600500Y-51295685D01*
X63597234Y-51270877D01*
X63594068Y-51246827D01*
X63590656Y-51239511D01*
X63544066Y-51139598D01*
X63544065Y-51139597D01*
X63544065Y-51139596D01*
X63460404Y-51055935D01*
X63460402Y-51055934D01*
X63460401Y-51055933D01*
X63353175Y-51005932D01*
X63320601Y-51001644D01*
X63304316Y-50999500D01*
X62595684Y-50999500D01*
X62579398Y-51001644D01*
X62546825Y-51005932D01*
X62546824Y-51005932D01*
X62439598Y-51055933D01*
X62355933Y-51139598D01*
X62305932Y-51246824D01*
X62305932Y-51246825D01*
X62299500Y-51295685D01*
X62299500Y-52104314D01*
X62305932Y-52153174D01*
X62305932Y-52153175D01*
X62355933Y-52260401D01*
X62355934Y-52260402D01*
X62355935Y-52260404D01*
X62439596Y-52344065D01*
X62439597Y-52344065D01*
X62439598Y-52344066D01*
X62546824Y-52394067D01*
X62546825Y-52394067D01*
X62546827Y-52394068D01*
X62595684Y-52400500D01*
X62595685Y-52400500D01*
X63304314Y-52400500D01*
X63304316Y-52400500D01*
X63353173Y-52394068D01*
X63460404Y-52344065D01*
X63544065Y-52260404D01*
X63594068Y-52153173D01*
X63600500Y-52104316D01*
X63600500Y-52099500D01*
X63619407Y-52041309D01*
X63668907Y-52005345D01*
X63699500Y-52000500D01*
X65800500Y-52000500D01*
X65858691Y-52019407D01*
X65894655Y-52068907D01*
X65899500Y-52099500D01*
X65899500Y-53350500D01*
X65880593Y-53408691D01*
X65831093Y-53444655D01*
X65800500Y-53449500D01*
X64190241Y-53449500D01*
X64166587Y-53452244D01*
X64069796Y-53494982D01*
X63994982Y-53569796D01*
X63952244Y-53666587D01*
X63949500Y-53690241D01*
X63949500Y-54159758D01*
X63953103Y-54190811D01*
X63950300Y-54191136D01*
X63947931Y-54239644D01*
X63909595Y-54287331D01*
X63905778Y-54289707D01*
X63872713Y-54309262D01*
X63759261Y-54422714D01*
X63677595Y-54560803D01*
X63677595Y-54560804D01*
X63632834Y-54714872D01*
X63632832Y-54714878D01*
X63630069Y-54749999D01*
X63630070Y-54750000D01*
X64301000Y-54750000D01*
X64359191Y-54768907D01*
X64395155Y-54818407D01*
X64400000Y-54849000D01*
X64400000Y-54999999D01*
X64400001Y-55000000D01*
X64551000Y-55000000D01*
X64609191Y-55018907D01*
X64645155Y-55068407D01*
X64650000Y-55099000D01*
X64650000Y-55812844D01*
X64789195Y-55772404D01*
X64789196Y-55772404D01*
X64927285Y-55690738D01*
X65040737Y-55577286D01*
X65058087Y-55547949D01*
X65103982Y-55507486D01*
X65164896Y-55501727D01*
X65185142Y-55508620D01*
X65196820Y-55514066D01*
X65196823Y-55514067D01*
X65196825Y-55514067D01*
X65196827Y-55514068D01*
X65245684Y-55520500D01*
X65245685Y-55520500D01*
X65594314Y-55520500D01*
X65594316Y-55520500D01*
X65643173Y-55514068D01*
X65750404Y-55464065D01*
X65834065Y-55380404D01*
X65844671Y-55357660D01*
X65886399Y-55312912D01*
X65934395Y-55300500D01*
X66285993Y-55300500D01*
X66344184Y-55319407D01*
X66355997Y-55329496D01*
X70113855Y-59087353D01*
X70711011Y-59684510D01*
X70711012Y-59684511D01*
X70711011Y-59684511D01*
X70766961Y-59740460D01*
X70835479Y-59780019D01*
X70835483Y-59780021D01*
X70911907Y-59800499D01*
X70911909Y-59800500D01*
X70911910Y-59800500D01*
X71784840Y-59800500D01*
X71843031Y-59819407D01*
X71878995Y-59868907D01*
X71880467Y-59925123D01*
X71880201Y-59926112D01*
X71880201Y-59926114D01*
X71849500Y-60040691D01*
X71849500Y-60159309D01*
X71876574Y-60260351D01*
X71880202Y-60273890D01*
X71939507Y-60376608D01*
X71939509Y-60376610D01*
X71939511Y-60376613D01*
X72023387Y-60460489D01*
X72023389Y-60460490D01*
X72023391Y-60460492D01*
X72126110Y-60519797D01*
X72126111Y-60519797D01*
X72126114Y-60519799D01*
X72240691Y-60550500D01*
X72240693Y-60550500D01*
X72359307Y-60550500D01*
X72359309Y-60550500D01*
X72473886Y-60519799D01*
X72550033Y-60475834D01*
X72609882Y-60463113D01*
X72665777Y-60487999D01*
X72669538Y-60491567D01*
X73820504Y-61642533D01*
X73848281Y-61697050D01*
X73849500Y-61712537D01*
X73849500Y-65917657D01*
X73830593Y-65975848D01*
X73781093Y-66011812D01*
X73750500Y-66016657D01*
X70643278Y-66016657D01*
X70566855Y-66037135D01*
X70543707Y-66050500D01*
X70543706Y-66050499D01*
X70498333Y-66076696D01*
X69915489Y-66659540D01*
X69915488Y-66659539D01*
X69859539Y-66715489D01*
X69819980Y-66784007D01*
X69819978Y-66784011D01*
X69799500Y-66860435D01*
X69799500Y-70139564D01*
X69811717Y-70185155D01*
X69819979Y-70215989D01*
X69845108Y-70259514D01*
X69845109Y-70259516D01*
X69845110Y-70259516D01*
X69859540Y-70284511D01*
X70270505Y-70695476D01*
X70274130Y-70702591D01*
X70280593Y-70707287D01*
X70287756Y-70729335D01*
X70298281Y-70749991D01*
X70299500Y-70765478D01*
X70299500Y-70841858D01*
X70280593Y-70900049D01*
X70231093Y-70936013D01*
X70169907Y-70936013D01*
X70145498Y-70924173D01*
X70132498Y-70915487D01*
X70132496Y-70915486D01*
X70132495Y-70915485D01*
X70052133Y-70899500D01*
X70052132Y-70899500D01*
X68597870Y-70899500D01*
X68597863Y-70899501D01*
X68517505Y-70915484D01*
X68517503Y-70915485D01*
X68491569Y-70932815D01*
X68436567Y-70949500D01*
X68328558Y-70949500D01*
X68270367Y-70930593D01*
X68234403Y-70881093D01*
X68232931Y-70824877D01*
X68240686Y-70795935D01*
X68250500Y-70759309D01*
X68250500Y-70640691D01*
X68219799Y-70526114D01*
X68219797Y-70526111D01*
X68219797Y-70526109D01*
X68160492Y-70423391D01*
X68160490Y-70423389D01*
X68160489Y-70423387D01*
X68076613Y-70339511D01*
X68076610Y-70339509D01*
X68076608Y-70339507D01*
X67973889Y-70280202D01*
X67973890Y-70280202D01*
X67914703Y-70264343D01*
X67859309Y-70249500D01*
X67740691Y-70249500D01*
X67685297Y-70264343D01*
X67626109Y-70280202D01*
X67523391Y-70339507D01*
X67439509Y-70423389D01*
X67383374Y-70520617D01*
X67337904Y-70561557D01*
X67277054Y-70567952D01*
X67247243Y-70556330D01*
X67216193Y-70537967D01*
X67070000Y-70495494D01*
X67070000Y-71969999D01*
X67070001Y-71970000D01*
X67701000Y-71970000D01*
X67759191Y-71988907D01*
X67795155Y-72038407D01*
X67800000Y-72069000D01*
X67800000Y-72371000D01*
X67781093Y-72429191D01*
X67731593Y-72465155D01*
X67701000Y-72470000D01*
X66995495Y-72470000D01*
X67037969Y-72616197D01*
X67037969Y-72616198D01*
X67105334Y-72730105D01*
X67118682Y-72789817D01*
X67094382Y-72845970D01*
X67041717Y-72877116D01*
X67020121Y-72879500D01*
X65095479Y-72879500D01*
X65037288Y-72860593D01*
X65025475Y-72850504D01*
X64820367Y-72645396D01*
X64792590Y-72590879D01*
X64793274Y-72556076D01*
X64800499Y-72519756D01*
X64800500Y-72519746D01*
X64800500Y-71550000D01*
X66041210Y-71550000D01*
X66042855Y-71570912D01*
X66042856Y-71570920D01*
X66087969Y-71726197D01*
X66087969Y-71726198D01*
X66170278Y-71865374D01*
X66284625Y-71979721D01*
X66423802Y-72062030D01*
X66569999Y-72104504D01*
X66570000Y-72104504D01*
X66570000Y-71550001D01*
X66569999Y-71550000D01*
X66041210Y-71550000D01*
X64800500Y-71550000D01*
X64800500Y-71050000D01*
X66041209Y-71050000D01*
X66569999Y-71050000D01*
X66570000Y-71049999D01*
X66570000Y-70495494D01*
X66423805Y-70537968D01*
X66423801Y-70537969D01*
X66284625Y-70620278D01*
X66170278Y-70734625D01*
X66087969Y-70873801D01*
X66087969Y-70873802D01*
X66042855Y-71029087D01*
X66041209Y-71050000D01*
X64800500Y-71050000D01*
X64800500Y-70580253D01*
X64800498Y-70580241D01*
X64796221Y-70558739D01*
X64788867Y-70521769D01*
X64787915Y-70520345D01*
X64744554Y-70455451D01*
X64744552Y-70455448D01*
X64714182Y-70435155D01*
X64678233Y-70411134D01*
X64678231Y-70411133D01*
X64678228Y-70411132D01*
X64678227Y-70411132D01*
X64619758Y-70399501D01*
X64619748Y-70399500D01*
X61980252Y-70399500D01*
X61980251Y-70399500D01*
X61980241Y-70399501D01*
X61921772Y-70411132D01*
X61921766Y-70411134D01*
X61855451Y-70455445D01*
X61855445Y-70455451D01*
X61811134Y-70521766D01*
X61811132Y-70521772D01*
X61799501Y-70580241D01*
X61799500Y-70580253D01*
X61799500Y-72519746D01*
X61799501Y-72519758D01*
X61811132Y-72578227D01*
X61811134Y-72578233D01*
X61854307Y-72642845D01*
X61855448Y-72644552D01*
X61921769Y-72688867D01*
X61966231Y-72697711D01*
X61980241Y-72700498D01*
X61980246Y-72700498D01*
X61980252Y-72700500D01*
X63984521Y-72700500D01*
X64042712Y-72719407D01*
X64054525Y-72729496D01*
X64689540Y-73364511D01*
X64689539Y-73364511D01*
X64745489Y-73420460D01*
X64814007Y-73460019D01*
X64814011Y-73460021D01*
X64890435Y-73480499D01*
X64890437Y-73480500D01*
X64890438Y-73480500D01*
X64969562Y-73480500D01*
X66020121Y-73480500D01*
X66078312Y-73499407D01*
X66114276Y-73548907D01*
X66114276Y-73610093D01*
X66105334Y-73629895D01*
X66037969Y-73743801D01*
X66037969Y-73743802D01*
X65995495Y-73889999D01*
X65995496Y-73890000D01*
X66701000Y-73890000D01*
X66759191Y-73908907D01*
X66795155Y-73958407D01*
X66800000Y-73989000D01*
X66800000Y-74291000D01*
X66781093Y-74349191D01*
X66731593Y-74385155D01*
X66701000Y-74390000D01*
X65995495Y-74390000D01*
X66037969Y-74536197D01*
X66037969Y-74536198D01*
X66105334Y-74650105D01*
X66118682Y-74709817D01*
X66094382Y-74765970D01*
X66041717Y-74797116D01*
X66020121Y-74799500D01*
X64826903Y-74799500D01*
X64768712Y-74780593D01*
X64744587Y-74755501D01*
X64744552Y-74755448D01*
X64735516Y-74749410D01*
X64678233Y-74711134D01*
X64678231Y-74711133D01*
X64678228Y-74711132D01*
X64678227Y-74711132D01*
X64619758Y-74699501D01*
X64619748Y-74699500D01*
X61980252Y-74699500D01*
X61980251Y-74699500D01*
X61980241Y-74699501D01*
X61921772Y-74711132D01*
X61921766Y-74711134D01*
X61855451Y-74755445D01*
X61855445Y-74755451D01*
X61811134Y-74821766D01*
X61811132Y-74821772D01*
X61799501Y-74880241D01*
X61799500Y-74880253D01*
X61799500Y-76819746D01*
X61799501Y-76819758D01*
X61811132Y-76878227D01*
X61811134Y-76878233D01*
X61852173Y-76939651D01*
X61855448Y-76944552D01*
X61921769Y-76988867D01*
X61966231Y-76997711D01*
X61980241Y-77000498D01*
X61980246Y-77000498D01*
X61980252Y-77000500D01*
X61980253Y-77000500D01*
X64619747Y-77000500D01*
X64619748Y-77000500D01*
X64678231Y-76988867D01*
X64744552Y-76944552D01*
X64788867Y-76878231D01*
X64800500Y-76819748D01*
X64800500Y-75499500D01*
X64819407Y-75441309D01*
X64868907Y-75405345D01*
X64899500Y-75400500D01*
X65285188Y-75400500D01*
X65343379Y-75419407D01*
X65379343Y-75468907D01*
X65379343Y-75530093D01*
X65355192Y-75569504D01*
X65277426Y-75647269D01*
X65277425Y-75647270D01*
X65188454Y-75791512D01*
X65135143Y-75952396D01*
X65125000Y-76051676D01*
X65125000Y-76074999D01*
X65125001Y-76075000D01*
X66001000Y-76075000D01*
X66059191Y-76093907D01*
X66095155Y-76143407D01*
X66100000Y-76174000D01*
X66100000Y-76476000D01*
X66081093Y-76534191D01*
X66031593Y-76570155D01*
X66001000Y-76575000D01*
X65125002Y-76575000D01*
X65125001Y-76575001D01*
X65125001Y-76598322D01*
X65135142Y-76697597D01*
X65135145Y-76697609D01*
X65188454Y-76858487D01*
X65277425Y-77002729D01*
X65397269Y-77122573D01*
X65524751Y-77201206D01*
X65564352Y-77247847D01*
X65568975Y-77308857D01*
X65542782Y-77355469D01*
X65501473Y-77396778D01*
X65501470Y-77396782D01*
X65440283Y-77516867D01*
X65440281Y-77516874D01*
X65424500Y-77616510D01*
X65424500Y-78133489D01*
X65440281Y-78233125D01*
X65440283Y-78233132D01*
X65500918Y-78352133D01*
X65501472Y-78353220D01*
X65596780Y-78448528D01*
X65596782Y-78448529D01*
X65716867Y-78509716D01*
X65716869Y-78509716D01*
X65716874Y-78509719D01*
X65792541Y-78521703D01*
X65816510Y-78525500D01*
X65816512Y-78525500D01*
X66383490Y-78525500D01*
X66404885Y-78522111D01*
X66483126Y-78509719D01*
X66603220Y-78448528D01*
X66698528Y-78353220D01*
X66759719Y-78233126D01*
X66773601Y-78145473D01*
X66775500Y-78133489D01*
X66775500Y-78104315D01*
X66794407Y-78046124D01*
X66843907Y-78010160D01*
X66905093Y-78010160D01*
X66924003Y-78018580D01*
X66926110Y-78019797D01*
X66926114Y-78019799D01*
X67040691Y-78050500D01*
X67040693Y-78050500D01*
X67159307Y-78050500D01*
X67159309Y-78050500D01*
X67273886Y-78019799D01*
X67290122Y-78010424D01*
X67349968Y-77997702D01*
X67381462Y-78006435D01*
X67440513Y-78033972D01*
X67490099Y-78040500D01*
X67909900Y-78040499D01*
X67959487Y-78033972D01*
X67959488Y-78033972D01*
X68040673Y-77996114D01*
X68068316Y-77983224D01*
X68153224Y-77898316D01*
X68169433Y-77863555D01*
X68185869Y-77845928D01*
X68199730Y-77826216D01*
X68206369Y-77823944D01*
X68211156Y-77818811D01*
X68234815Y-77814211D01*
X68257620Y-77806409D01*
X68264328Y-77808474D01*
X68271217Y-77807135D01*
X68293061Y-77817320D01*
X68316097Y-77824412D01*
X68319508Y-77829651D01*
X68326671Y-77832991D01*
X68352824Y-77873349D01*
X68354966Y-77879610D01*
X68365485Y-77932495D01*
X68381010Y-77955730D01*
X68385192Y-77967952D01*
X68385475Y-77986260D01*
X68390447Y-78003889D01*
X68385962Y-78017689D01*
X68386140Y-78029130D01*
X68378899Y-78039427D01*
X68373840Y-78054999D01*
X68365485Y-78067503D01*
X68365484Y-78067504D01*
X68349500Y-78147864D01*
X68349500Y-78352129D01*
X68349501Y-78352137D01*
X68365484Y-78432494D01*
X68365486Y-78432498D01*
X68373840Y-78445001D01*
X68390447Y-78503889D01*
X68373840Y-78554999D01*
X68365485Y-78567503D01*
X68365484Y-78567504D01*
X68349500Y-78647864D01*
X68349500Y-78852129D01*
X68349501Y-78852137D01*
X68365484Y-78932494D01*
X68365485Y-78932496D01*
X68426373Y-79023620D01*
X68426376Y-79023624D01*
X68517505Y-79084515D01*
X68597867Y-79100500D01*
X69635520Y-79100499D01*
X69693711Y-79119406D01*
X69729675Y-79168906D01*
X69729675Y-79230092D01*
X69705524Y-79269502D01*
X68865489Y-80109539D01*
X68809539Y-80165489D01*
X68769980Y-80234007D01*
X68769978Y-80234011D01*
X68749500Y-80310435D01*
X68749500Y-82472390D01*
X68730593Y-82530581D01*
X68720504Y-82542393D01*
X68639511Y-82623386D01*
X68639507Y-82623391D01*
X68580202Y-82726109D01*
X68566671Y-82776608D01*
X68549500Y-82840691D01*
X68549500Y-82959309D01*
X68566165Y-83021505D01*
X68567069Y-83024877D01*
X68563866Y-83085979D01*
X68525361Y-83133529D01*
X68471442Y-83149500D01*
X66115479Y-83149500D01*
X66057288Y-83130593D01*
X66045475Y-83120504D01*
X65285101Y-82360130D01*
X59894508Y-76969540D01*
X59894505Y-76969538D01*
X59825989Y-76929980D01*
X59825985Y-76929978D01*
X59749561Y-76909500D01*
X59749559Y-76909500D01*
X57472537Y-76909500D01*
X57414346Y-76890593D01*
X57402533Y-76880504D01*
X56329496Y-75807467D01*
X56301719Y-75752950D01*
X56300500Y-75737463D01*
X56300500Y-70610437D01*
X56300499Y-70610435D01*
X56296386Y-70595087D01*
X56280021Y-70534011D01*
X56275462Y-70526115D01*
X56240460Y-70465489D01*
X56184511Y-70409539D01*
X56184511Y-70409540D01*
X54975263Y-69200292D01*
X54947486Y-69145775D01*
X54953802Y-69092405D01*
X55010130Y-68956420D01*
X55050500Y-68753465D01*
X55050500Y-68546535D01*
X55010130Y-68343580D01*
X54930941Y-68152402D01*
X54815977Y-67980345D01*
X54669655Y-67834023D01*
X54653737Y-67823387D01*
X54497597Y-67719058D01*
X54306418Y-67639869D01*
X54103467Y-67599500D01*
X54103465Y-67599500D01*
X53896535Y-67599500D01*
X53896532Y-67599500D01*
X53693581Y-67639869D01*
X53502402Y-67719058D01*
X53330348Y-67834020D01*
X53184020Y-67980348D01*
X53069058Y-68152402D01*
X52989869Y-68343581D01*
X52949500Y-68546532D01*
X52949500Y-68753467D01*
X52989869Y-68956418D01*
X53069058Y-69147597D01*
X53182560Y-69317466D01*
X53184023Y-69319655D01*
X53330345Y-69465977D01*
X53502402Y-69580941D01*
X53693580Y-69660130D01*
X53896535Y-69700500D01*
X53896536Y-69700500D01*
X54103464Y-69700500D01*
X54103465Y-69700500D01*
X54306420Y-69660130D01*
X54442405Y-69603802D01*
X54503399Y-69599002D01*
X54550292Y-69625263D01*
X55670504Y-70745475D01*
X55698281Y-70799992D01*
X55699500Y-70815479D01*
X55699500Y-72225521D01*
X55680593Y-72283712D01*
X55631093Y-72319676D01*
X55569907Y-72319676D01*
X55530496Y-72295525D01*
X54975263Y-71740292D01*
X54947486Y-71685775D01*
X54953802Y-71632405D01*
X55010130Y-71496420D01*
X55050500Y-71293465D01*
X55050500Y-71086535D01*
X55010130Y-70883580D01*
X54930941Y-70692402D01*
X54815977Y-70520345D01*
X54669655Y-70374023D01*
X54634467Y-70350511D01*
X54497597Y-70259058D01*
X54306418Y-70179869D01*
X54103467Y-70139500D01*
X54103465Y-70139500D01*
X53896535Y-70139500D01*
X53896532Y-70139500D01*
X53693581Y-70179869D01*
X53502402Y-70259058D01*
X53330348Y-70374020D01*
X53184020Y-70520348D01*
X53069058Y-70692402D01*
X52989869Y-70883581D01*
X52949500Y-71086532D01*
X52949500Y-71293467D01*
X52989869Y-71496418D01*
X53069058Y-71687597D01*
X53178209Y-71850954D01*
X53184023Y-71859655D01*
X53330345Y-72005977D01*
X53502402Y-72120941D01*
X53693580Y-72200130D01*
X53896535Y-72240500D01*
X53896536Y-72240500D01*
X54103464Y-72240500D01*
X54103465Y-72240500D01*
X54306420Y-72200130D01*
X54442405Y-72143802D01*
X54503399Y-72139002D01*
X54550292Y-72165263D01*
X55220504Y-72835475D01*
X55248281Y-72889992D01*
X55249500Y-72905479D01*
X55249500Y-73785521D01*
X55242336Y-73807568D01*
X55238710Y-73830466D01*
X55233061Y-73836114D01*
X55230593Y-73843712D01*
X55211836Y-73857339D01*
X55195445Y-73873731D01*
X55187555Y-73874980D01*
X55181093Y-73879676D01*
X55157908Y-73879676D01*
X55135013Y-73883302D01*
X55127896Y-73879676D01*
X55119907Y-73879676D01*
X55080496Y-73855525D01*
X55079496Y-73854525D01*
X55051719Y-73800008D01*
X55050500Y-73784521D01*
X55050500Y-73626536D01*
X55050499Y-73626532D01*
X55047229Y-73610093D01*
X55010130Y-73423580D01*
X54930941Y-73232402D01*
X54815977Y-73060345D01*
X54669655Y-72914023D01*
X54633690Y-72889992D01*
X54497597Y-72799058D01*
X54306418Y-72719869D01*
X54103467Y-72679500D01*
X54103465Y-72679500D01*
X53896535Y-72679500D01*
X53896532Y-72679500D01*
X53693581Y-72719869D01*
X53502402Y-72799058D01*
X53330348Y-72914020D01*
X53184020Y-73060348D01*
X53069058Y-73232402D01*
X52989869Y-73423581D01*
X52949500Y-73626532D01*
X52949500Y-73833467D01*
X52989869Y-74036418D01*
X53069058Y-74227597D01*
X53184020Y-74399651D01*
X53184023Y-74399655D01*
X53330345Y-74545977D01*
X53502402Y-74660941D01*
X53693580Y-74740130D01*
X53896535Y-74780500D01*
X53896536Y-74780500D01*
X54103464Y-74780500D01*
X54103465Y-74780500D01*
X54306420Y-74740130D01*
X54497598Y-74660941D01*
X54669655Y-74545977D01*
X54680495Y-74535136D01*
X54735010Y-74507357D01*
X54795442Y-74516927D01*
X54838708Y-74560190D01*
X54849500Y-74605138D01*
X54849500Y-75394861D01*
X54830593Y-75453052D01*
X54781093Y-75489016D01*
X54719907Y-75489016D01*
X54680498Y-75464866D01*
X54669655Y-75454023D01*
X54668202Y-75453052D01*
X54497597Y-75339058D01*
X54306418Y-75259869D01*
X54103467Y-75219500D01*
X54103465Y-75219500D01*
X53896535Y-75219500D01*
X53896532Y-75219500D01*
X53693581Y-75259869D01*
X53502402Y-75339058D01*
X53330348Y-75454020D01*
X53184020Y-75600348D01*
X53069058Y-75772402D01*
X52989869Y-75963581D01*
X52949500Y-76166532D01*
X52949500Y-76373467D01*
X52989869Y-76576418D01*
X53069058Y-76767597D01*
X53177558Y-76929980D01*
X53184023Y-76939655D01*
X53330345Y-77085977D01*
X53502402Y-77200941D01*
X53693580Y-77280130D01*
X53896535Y-77320500D01*
X53896536Y-77320500D01*
X54103464Y-77320500D01*
X54103465Y-77320500D01*
X54306420Y-77280130D01*
X54497598Y-77200941D01*
X54669655Y-77085977D01*
X54795328Y-76960303D01*
X54849843Y-76932528D01*
X54910275Y-76942099D01*
X54935334Y-76960305D01*
X56315525Y-78340496D01*
X56343302Y-78395013D01*
X56333731Y-78455445D01*
X56290466Y-78498710D01*
X56245521Y-78509500D01*
X55078732Y-78509500D01*
X55020541Y-78490593D01*
X54987268Y-78448386D01*
X54930941Y-78312402D01*
X54815979Y-78140348D01*
X54815977Y-78140345D01*
X54669655Y-77994023D01*
X54653495Y-77983225D01*
X54497597Y-77879058D01*
X54306418Y-77799869D01*
X54103467Y-77759500D01*
X54103465Y-77759500D01*
X53896535Y-77759500D01*
X53896532Y-77759500D01*
X53693581Y-77799869D01*
X53502402Y-77879058D01*
X53330348Y-77994020D01*
X53184020Y-78140348D01*
X53069058Y-78312402D01*
X52989869Y-78503581D01*
X52949500Y-78706532D01*
X52949500Y-78913467D01*
X52989869Y-79116418D01*
X53069058Y-79307597D01*
X53179400Y-79472736D01*
X53184023Y-79479655D01*
X53330345Y-79625977D01*
X53502402Y-79740941D01*
X53693580Y-79820130D01*
X53896535Y-79860500D01*
X53896536Y-79860500D01*
X54103464Y-79860500D01*
X54103465Y-79860500D01*
X54306420Y-79820130D01*
X54497598Y-79740941D01*
X54669655Y-79625977D01*
X54815977Y-79479655D01*
X54930941Y-79307598D01*
X54987268Y-79171614D01*
X55027005Y-79125088D01*
X55078732Y-79110500D01*
X58881777Y-79110500D01*
X58939968Y-79129407D01*
X58951781Y-79139496D01*
X59897222Y-80084937D01*
X59924999Y-80139454D01*
X59919338Y-80187293D01*
X59919986Y-80187467D01*
X59918789Y-80191933D01*
X59918684Y-80192823D01*
X59918306Y-80193733D01*
X59907515Y-80234007D01*
X59887605Y-80308312D01*
X59887605Y-80426930D01*
X59909018Y-80506843D01*
X59918307Y-80541511D01*
X59977612Y-80644229D01*
X59977614Y-80644231D01*
X59977616Y-80644234D01*
X60061492Y-80728110D01*
X60061494Y-80728111D01*
X60061496Y-80728113D01*
X60164215Y-80787418D01*
X60164216Y-80787418D01*
X60164219Y-80787420D01*
X60278796Y-80818121D01*
X60278798Y-80818121D01*
X60397412Y-80818121D01*
X60397414Y-80818121D01*
X60511991Y-80787420D01*
X60533897Y-80774772D01*
X60534421Y-80774660D01*
X60534787Y-80774263D01*
X60564298Y-80768308D01*
X60593741Y-80762049D01*
X60594234Y-80762268D01*
X60594764Y-80762162D01*
X60603735Y-80766498D01*
X60649638Y-80786932D01*
X60650399Y-80787625D01*
X60651935Y-80789037D01*
X60723387Y-80860489D01*
X60740247Y-80870223D01*
X60748291Y-80877618D01*
X60758211Y-80895218D01*
X60771731Y-80910234D01*
X60772889Y-80921260D01*
X60778334Y-80930919D01*
X60776014Y-80950991D01*
X60778126Y-80971084D01*
X60772582Y-80980684D01*
X60771310Y-80991700D01*
X60757634Y-81006576D01*
X60747533Y-81024072D01*
X60737405Y-81028581D01*
X60729901Y-81036744D01*
X60710095Y-81040740D01*
X60691637Y-81048958D01*
X60681290Y-81049500D01*
X55078732Y-81049500D01*
X55020541Y-81030593D01*
X54987268Y-80988386D01*
X54930941Y-80852402D01*
X54815979Y-80680348D01*
X54815977Y-80680345D01*
X54669655Y-80534023D01*
X54497598Y-80419059D01*
X54497599Y-80419059D01*
X54497597Y-80419058D01*
X54306418Y-80339869D01*
X54103467Y-80299500D01*
X54103465Y-80299500D01*
X53896535Y-80299500D01*
X53896532Y-80299500D01*
X53693581Y-80339869D01*
X53502402Y-80419058D01*
X53330348Y-80534020D01*
X53184020Y-80680348D01*
X53069058Y-80852402D01*
X52989869Y-81043581D01*
X52949500Y-81246532D01*
X52949500Y-81453467D01*
X52989869Y-81656418D01*
X53069058Y-81847597D01*
X53125243Y-81931684D01*
X53184023Y-82019655D01*
X53330345Y-82165977D01*
X53502402Y-82280941D01*
X53668005Y-82349536D01*
X53714530Y-82389273D01*
X53728814Y-82448767D01*
X53705399Y-82505295D01*
X53653230Y-82537265D01*
X53630119Y-82540000D01*
X53102176Y-82540000D01*
X53042629Y-82546401D01*
X53042618Y-82546403D01*
X52907911Y-82596646D01*
X52907909Y-82596647D01*
X52792815Y-82682807D01*
X52792807Y-82682815D01*
X52706647Y-82797909D01*
X52706646Y-82797911D01*
X52656403Y-82932618D01*
X52656401Y-82932629D01*
X52650000Y-82992175D01*
X52650000Y-83639999D01*
X52650001Y-83640000D01*
X53566988Y-83640000D01*
X53534075Y-83697007D01*
X53500000Y-83824174D01*
X53500000Y-83955826D01*
X53534075Y-84082993D01*
X53566988Y-84140000D01*
X52650001Y-84140000D01*
X52650000Y-84140001D01*
X52650000Y-84787824D01*
X52649999Y-84787824D01*
X50300500Y-84787824D01*
X50300500Y-67330000D01*
X55595495Y-67330000D01*
X55637969Y-67476197D01*
X55637969Y-67476198D01*
X55720278Y-67615374D01*
X55834625Y-67729721D01*
X55973802Y-67812030D01*
X56129079Y-67857143D01*
X56129087Y-67857144D01*
X56150000Y-67858789D01*
X56150000Y-67330001D01*
X56650000Y-67330001D01*
X56650000Y-67858789D01*
X56670912Y-67857144D01*
X56670920Y-67857143D01*
X56826197Y-67812030D01*
X56826198Y-67812030D01*
X56965374Y-67729721D01*
X57079721Y-67615374D01*
X57162030Y-67476198D01*
X57162030Y-67476197D01*
X57204504Y-67330000D01*
X56650001Y-67330000D01*
X56650000Y-67330001D01*
X56150000Y-67330001D01*
X56149999Y-67330000D01*
X55595495Y-67330000D01*
X50300500Y-67330000D01*
X50300500Y-66006532D01*
X52949500Y-66006532D01*
X52949500Y-66213467D01*
X52989869Y-66416418D01*
X53069058Y-66607597D01*
X53164542Y-66750500D01*
X53184023Y-66779655D01*
X53330345Y-66925977D01*
X53502402Y-67040941D01*
X53693580Y-67120130D01*
X53896535Y-67160500D01*
X53896536Y-67160500D01*
X54103464Y-67160500D01*
X54103465Y-67160500D01*
X54306420Y-67120130D01*
X54497598Y-67040941D01*
X54669655Y-66925977D01*
X54815977Y-66779655D01*
X54930941Y-66607598D01*
X54987268Y-66471614D01*
X55027005Y-66425088D01*
X55078732Y-66410500D01*
X55626035Y-66410500D01*
X55684226Y-66429407D01*
X55720190Y-66478907D01*
X55720190Y-66540093D01*
X55711248Y-66559895D01*
X55637969Y-66683801D01*
X55637969Y-66683802D01*
X55595495Y-66829999D01*
X55595496Y-66830000D01*
X57204504Y-66830000D01*
X57204504Y-66829999D01*
X57162030Y-66683802D01*
X57162030Y-66683801D01*
X57079721Y-66544625D01*
X56965374Y-66430278D01*
X56954834Y-66424045D01*
X56914371Y-66378150D01*
X56907075Y-66325911D01*
X56910500Y-66299901D01*
X56910499Y-65940100D01*
X56903972Y-65890513D01*
X56903972Y-65890511D01*
X56853225Y-65781686D01*
X56853223Y-65781682D01*
X56844496Y-65772955D01*
X56816720Y-65718438D01*
X56818875Y-65677330D01*
X56819796Y-65673889D01*
X56819799Y-65673886D01*
X56850500Y-65559309D01*
X56850500Y-65440691D01*
X56819799Y-65326114D01*
X56819797Y-65326111D01*
X56819797Y-65326109D01*
X56760492Y-65223391D01*
X56760490Y-65223389D01*
X56760489Y-65223387D01*
X56676613Y-65139511D01*
X56676610Y-65139509D01*
X56676608Y-65139507D01*
X56573889Y-65080202D01*
X56573890Y-65080202D01*
X56522126Y-65066332D01*
X56459309Y-65049500D01*
X56340691Y-65049500D01*
X56300755Y-65060201D01*
X56226109Y-65080202D01*
X56123391Y-65139507D01*
X56039507Y-65223391D01*
X55980202Y-65326109D01*
X55977842Y-65334916D01*
X55949500Y-65440691D01*
X55949500Y-65559309D01*
X55969314Y-65633256D01*
X55981124Y-65677331D01*
X55980040Y-65697993D01*
X55983280Y-65718428D01*
X55978475Y-65727861D01*
X55977921Y-65738433D01*
X55955510Y-65772948D01*
X55947966Y-65780494D01*
X55893453Y-65808279D01*
X55877953Y-65809500D01*
X55078732Y-65809500D01*
X55020541Y-65790593D01*
X54987268Y-65748386D01*
X54930941Y-65612402D01*
X54815979Y-65440348D01*
X54815977Y-65440345D01*
X54669655Y-65294023D01*
X54646187Y-65278342D01*
X54497597Y-65179058D01*
X54306418Y-65099869D01*
X54103467Y-65059500D01*
X54103465Y-65059500D01*
X53896535Y-65059500D01*
X53896532Y-65059500D01*
X53693581Y-65099869D01*
X53502402Y-65179058D01*
X53330348Y-65294020D01*
X53184020Y-65440348D01*
X53069058Y-65612402D01*
X52989869Y-65803581D01*
X52949500Y-66006532D01*
X50300500Y-66006532D01*
X50300500Y-55250000D01*
X63630069Y-55250000D01*
X63632832Y-55285121D01*
X63632834Y-55285127D01*
X63677595Y-55439195D01*
X63677595Y-55439196D01*
X63759261Y-55577285D01*
X63872714Y-55690738D01*
X64010804Y-55772404D01*
X64149999Y-55812844D01*
X64150000Y-55812844D01*
X64150000Y-55250001D01*
X64149999Y-55250000D01*
X63630069Y-55250000D01*
X50300500Y-55250000D01*
X50300500Y-54002435D01*
X50300619Y-53997578D01*
X50301283Y-53984052D01*
X50318076Y-53642221D01*
X50319026Y-53632583D01*
X50370872Y-53283062D01*
X50372761Y-53273564D01*
X50380995Y-53240691D01*
X61749500Y-53240691D01*
X61749500Y-53359309D01*
X61761803Y-53405224D01*
X61780202Y-53473890D01*
X61839507Y-53576608D01*
X61839509Y-53576610D01*
X61839511Y-53576613D01*
X61923387Y-53660489D01*
X61923389Y-53660490D01*
X61923391Y-53660492D01*
X62026110Y-53719797D01*
X62026111Y-53719797D01*
X62026114Y-53719799D01*
X62140691Y-53750500D01*
X62140693Y-53750500D01*
X62241616Y-53750500D01*
X62299807Y-53769407D01*
X62331340Y-53807661D01*
X62355933Y-53860401D01*
X62355934Y-53860402D01*
X62355935Y-53860404D01*
X62439596Y-53944065D01*
X62439597Y-53944065D01*
X62439598Y-53944066D01*
X62546824Y-53994067D01*
X62546825Y-53994067D01*
X62546827Y-53994068D01*
X62595684Y-54000500D01*
X62595685Y-54000500D01*
X63304314Y-54000500D01*
X63304316Y-54000500D01*
X63353173Y-53994068D01*
X63460404Y-53944065D01*
X63544065Y-53860404D01*
X63594068Y-53753173D01*
X63600500Y-53704316D01*
X63600500Y-52895684D01*
X63594068Y-52846827D01*
X63544757Y-52741081D01*
X63544066Y-52739598D01*
X63544065Y-52739597D01*
X63544065Y-52739596D01*
X63460404Y-52655935D01*
X63460402Y-52655934D01*
X63460401Y-52655933D01*
X63353175Y-52605932D01*
X63320601Y-52601644D01*
X63304316Y-52599500D01*
X62595684Y-52599500D01*
X62579398Y-52601644D01*
X62546825Y-52605932D01*
X62546824Y-52605932D01*
X62439598Y-52655933D01*
X62355933Y-52739598D01*
X62331340Y-52792339D01*
X62289612Y-52837087D01*
X62241616Y-52849500D01*
X62140691Y-52849500D01*
X62070567Y-52868289D01*
X62026109Y-52880202D01*
X61923391Y-52939507D01*
X61839507Y-53023391D01*
X61780202Y-53126109D01*
X61780201Y-53126114D01*
X61749500Y-53240691D01*
X50380995Y-53240691D01*
X50458621Y-52930792D01*
X50461430Y-52921533D01*
X50580473Y-52588831D01*
X50584182Y-52579876D01*
X50735264Y-52260440D01*
X50739821Y-52251914D01*
X50921480Y-51948834D01*
X50926865Y-51940774D01*
X51137364Y-51656950D01*
X51143506Y-51649467D01*
X51380807Y-51387646D01*
X51387646Y-51380807D01*
X51649467Y-51143506D01*
X51656950Y-51137364D01*
X51940774Y-50926865D01*
X51948834Y-50921480D01*
X52251914Y-50739821D01*
X52260440Y-50735264D01*
X52579876Y-50584182D01*
X52588831Y-50580473D01*
X52921533Y-50461430D01*
X52930792Y-50458621D01*
X53273564Y-50372761D01*
X53283062Y-50370872D01*
X53632583Y-50319026D01*
X53642221Y-50318076D01*
X53968962Y-50302024D01*
X53997579Y-50300619D01*
X54002436Y-50300500D01*
X54047595Y-50300500D01*
X95952405Y-50300500D01*
X95997564Y-50300500D01*
X96002421Y-50300619D01*
G37*
%TD.AperFunction*%
%TD*%
%TA.AperFunction,NonConductor*%
G36*
X90588691Y-72619407D02*
G01*
X90624655Y-72668907D01*
X90629500Y-72699500D01*
X90629500Y-73239562D01*
X90649979Y-73315989D01*
X90650887Y-73317562D01*
X90653051Y-73326053D01*
X90651510Y-73349846D01*
X90653380Y-73373619D01*
X90649569Y-73379835D01*
X90649099Y-73387110D01*
X90633866Y-73405455D01*
X90621406Y-73425785D01*
X90614670Y-73428574D01*
X90610013Y-73434184D01*
X90586905Y-73440072D01*
X90564877Y-73449195D01*
X90557117Y-73449500D01*
X89589562Y-73449500D01*
X89510438Y-73449500D01*
X89434012Y-73469978D01*
X89434010Y-73469978D01*
X89427744Y-73471658D01*
X89427063Y-73469117D01*
X89377196Y-73473025D01*
X89325038Y-73441038D01*
X89301643Y-73384502D01*
X89315946Y-73325012D01*
X89330329Y-73306772D01*
X89360489Y-73276613D01*
X89385303Y-73233635D01*
X89419797Y-73173890D01*
X89419797Y-73173888D01*
X89419799Y-73173886D01*
X89450500Y-73059309D01*
X89450500Y-72940691D01*
X89419799Y-72826114D01*
X89419797Y-72826111D01*
X89419797Y-72826109D01*
X89375278Y-72749000D01*
X89362556Y-72689152D01*
X89387443Y-72633256D01*
X89440431Y-72602663D01*
X89461014Y-72600500D01*
X89539562Y-72600500D01*
X90530500Y-72600500D01*
X90588691Y-72619407D01*
G37*
%TD.AperFunction*%
%TA.AperFunction,NonConductor*%
G36*
X89304060Y-73423630D02*
G01*
X89334654Y-73476618D01*
X89328260Y-73537468D01*
X89307822Y-73567207D01*
X89254525Y-73620504D01*
X89200008Y-73648281D01*
X89184521Y-73649500D01*
X89028365Y-73649500D01*
X88970174Y-73630593D01*
X88939429Y-73593990D01*
X88938940Y-73592990D01*
X88930362Y-73532409D01*
X88959032Y-73478356D01*
X89013998Y-73451478D01*
X89027876Y-73450500D01*
X89059307Y-73450500D01*
X89059309Y-73450500D01*
X89173886Y-73419799D01*
X89188316Y-73411468D01*
X89248164Y-73398745D01*
X89304060Y-73423630D01*
G37*
%TD.AperFunction*%
%TA.AperFunction,NonConductor*%
G36*
X74117718Y-54454321D02*
G01*
X74130057Y-54453478D01*
X74146117Y-54463548D01*
X74164148Y-54469407D01*
X74179330Y-54484374D01*
X74181894Y-54485982D01*
X74308198Y-54636982D01*
X74331030Y-54693748D01*
X74316136Y-54753093D01*
X74269204Y-54792349D01*
X74232261Y-54799500D01*
X73227739Y-54799500D01*
X73169548Y-54780593D01*
X73133584Y-54731093D01*
X73133584Y-54669907D01*
X73168410Y-54621247D01*
X73187184Y-54607192D01*
X73187192Y-54607184D01*
X73274789Y-54490171D01*
X73324798Y-54454918D01*
X73354042Y-54450500D01*
X74105957Y-54450500D01*
X74117718Y-54454321D01*
G37*
%TD.AperFunction*%
%TA.AperFunction,NonConductor*%
G36*
X73197745Y-55401127D02*
G01*
X73199701Y-55400576D01*
X73226670Y-55410525D01*
X73254006Y-55419407D01*
X73255199Y-55421050D01*
X73257105Y-55421753D01*
X73273069Y-55445646D01*
X73289970Y-55468907D01*
X73289970Y-55470938D01*
X73291098Y-55472627D01*
X73289970Y-55501337D01*
X73289970Y-55530093D01*
X73288775Y-55531736D01*
X73288696Y-55533765D01*
X73270909Y-55556327D01*
X73254006Y-55579593D01*
X73250817Y-55581815D01*
X73215450Y-55605446D01*
X73215445Y-55605451D01*
X73177315Y-55662517D01*
X73129265Y-55700396D01*
X73068127Y-55702798D01*
X73017253Y-55668805D01*
X73012685Y-55662517D01*
X72974554Y-55605451D01*
X72974552Y-55605448D01*
X72939182Y-55581814D01*
X72901304Y-55533765D01*
X72898902Y-55472627D01*
X72932895Y-55421753D01*
X72990299Y-55400576D01*
X72994185Y-55400500D01*
X73195815Y-55400500D01*
X73197745Y-55401127D01*
G37*
%TD.AperFunction*%
%TA.AperFunction,NonConductor*%
G36*
X71624148Y-54469407D02*
G01*
X71645210Y-54490171D01*
X71732807Y-54607184D01*
X71732815Y-54607192D01*
X71847909Y-54693352D01*
X71847911Y-54693353D01*
X71982618Y-54743596D01*
X71982629Y-54743598D01*
X72022534Y-54747888D01*
X72078370Y-54772906D01*
X72108838Y-54825966D01*
X72102299Y-54886801D01*
X72097690Y-54895820D01*
X72080202Y-54926110D01*
X72080201Y-54926114D01*
X72049500Y-55040691D01*
X72049500Y-55159309D01*
X72063055Y-55209895D01*
X72080202Y-55273890D01*
X72139507Y-55376608D01*
X72139509Y-55376610D01*
X72139511Y-55376613D01*
X72143396Y-55380498D01*
X72171172Y-55435013D01*
X72161601Y-55495445D01*
X72118336Y-55538710D01*
X72073391Y-55549500D01*
X72070252Y-55549500D01*
X72070251Y-55549500D01*
X72070241Y-55549501D01*
X72011772Y-55561132D01*
X72011766Y-55561134D01*
X71945451Y-55605445D01*
X71945445Y-55605451D01*
X71907315Y-55662517D01*
X71859265Y-55700396D01*
X71798127Y-55702798D01*
X71747253Y-55668805D01*
X71742685Y-55662517D01*
X71704554Y-55605451D01*
X71704552Y-55605448D01*
X71704548Y-55605445D01*
X71638233Y-55561134D01*
X71638231Y-55561133D01*
X71638228Y-55561132D01*
X71638227Y-55561132D01*
X71579758Y-55549501D01*
X71579748Y-55549500D01*
X71579747Y-55549500D01*
X70919500Y-55549500D01*
X70861309Y-55530593D01*
X70825345Y-55481093D01*
X70820500Y-55450500D01*
X70820500Y-54549500D01*
X70839407Y-54491309D01*
X70888907Y-54455345D01*
X70919500Y-54450500D01*
X71565957Y-54450500D01*
X71624148Y-54469407D01*
G37*
%TD.AperFunction*%
%TA.AperFunction,NonConductor*%
G36*
X78296309Y-55407158D02*
G01*
X78317694Y-55409794D01*
X78324782Y-55416410D01*
X78334006Y-55419407D01*
X78346671Y-55436840D01*
X78362424Y-55451542D01*
X78364270Y-55461061D01*
X78369970Y-55468907D01*
X78369970Y-55490455D01*
X78374072Y-55511609D01*
X78369970Y-55520395D01*
X78369970Y-55530093D01*
X78357303Y-55547526D01*
X78348189Y-55567050D01*
X78340359Y-55575438D01*
X78295448Y-55605448D01*
X78252853Y-55669194D01*
X78247374Y-55675065D01*
X78193847Y-55704704D01*
X78133121Y-55697221D01*
X78092685Y-55662517D01*
X78054554Y-55605451D01*
X78054552Y-55605448D01*
X78019182Y-55581814D01*
X77981304Y-55533765D01*
X77978902Y-55472627D01*
X78012895Y-55421753D01*
X78070299Y-55400576D01*
X78074185Y-55400500D01*
X78275815Y-55400500D01*
X78296309Y-55407158D01*
G37*
%TD.AperFunction*%
%TA.AperFunction,NonConductor*%
G36*
X77026309Y-55407158D02*
G01*
X77047694Y-55409794D01*
X77054782Y-55416410D01*
X77064006Y-55419407D01*
X77076671Y-55436840D01*
X77092424Y-55451542D01*
X77094270Y-55461061D01*
X77099970Y-55468907D01*
X77099970Y-55490455D01*
X77104072Y-55511609D01*
X77099970Y-55520395D01*
X77099970Y-55530093D01*
X77087303Y-55547526D01*
X77078189Y-55567050D01*
X77070359Y-55575438D01*
X77025448Y-55605448D01*
X76982853Y-55669194D01*
X76977374Y-55675065D01*
X76923847Y-55704704D01*
X76863121Y-55697221D01*
X76822685Y-55662517D01*
X76784554Y-55605451D01*
X76784552Y-55605448D01*
X76749182Y-55581814D01*
X76711304Y-55533765D01*
X76708902Y-55472627D01*
X76742895Y-55421753D01*
X76800299Y-55400576D01*
X76804185Y-55400500D01*
X77005815Y-55400500D01*
X77026309Y-55407158D01*
G37*
%TD.AperFunction*%
%TA.AperFunction,NonConductor*%
G36*
X75756309Y-55407158D02*
G01*
X75777694Y-55409794D01*
X75784782Y-55416410D01*
X75794006Y-55419407D01*
X75806671Y-55436840D01*
X75822424Y-55451542D01*
X75824270Y-55461061D01*
X75829970Y-55468907D01*
X75829970Y-55490455D01*
X75834072Y-55511609D01*
X75829970Y-55520395D01*
X75829970Y-55530093D01*
X75817303Y-55547526D01*
X75808189Y-55567050D01*
X75800359Y-55575438D01*
X75755448Y-55605448D01*
X75712853Y-55669194D01*
X75707374Y-55675065D01*
X75653847Y-55704704D01*
X75593121Y-55697221D01*
X75552685Y-55662517D01*
X75514554Y-55605451D01*
X75514552Y-55605448D01*
X75479182Y-55581814D01*
X75441304Y-55533765D01*
X75438902Y-55472627D01*
X75472895Y-55421753D01*
X75530299Y-55400576D01*
X75534185Y-55400500D01*
X75735815Y-55400500D01*
X75756309Y-55407158D01*
G37*
%TD.AperFunction*%
%TA.AperFunction,NonConductor*%
G36*
X74486309Y-55407158D02*
G01*
X74507694Y-55409794D01*
X74514782Y-55416410D01*
X74524006Y-55419407D01*
X74536671Y-55436840D01*
X74552424Y-55451542D01*
X74554270Y-55461061D01*
X74559970Y-55468907D01*
X74559970Y-55490455D01*
X74564072Y-55511609D01*
X74559970Y-55520395D01*
X74559970Y-55530093D01*
X74547303Y-55547526D01*
X74538189Y-55567050D01*
X74530359Y-55575438D01*
X74485448Y-55605448D01*
X74442853Y-55669194D01*
X74437374Y-55675065D01*
X74383847Y-55704704D01*
X74323121Y-55697221D01*
X74282685Y-55662517D01*
X74244554Y-55605451D01*
X74244552Y-55605448D01*
X74209182Y-55581814D01*
X74171304Y-55533765D01*
X74168902Y-55472627D01*
X74202895Y-55421753D01*
X74260299Y-55400576D01*
X74264185Y-55400500D01*
X74465815Y-55400500D01*
X74486309Y-55407158D01*
G37*
%TD.AperFunction*%
%TA.AperFunction,NonConductor*%
G36*
X74395230Y-58199444D02*
G01*
X74399265Y-58199603D01*
X74420385Y-58216253D01*
X74442746Y-58231194D01*
X74447307Y-58237472D01*
X74485448Y-58294552D01*
X74551769Y-58338867D01*
X74596231Y-58347711D01*
X74610241Y-58350498D01*
X74610246Y-58350498D01*
X74610252Y-58350500D01*
X74884521Y-58350500D01*
X74942712Y-58369407D01*
X74954525Y-58379496D01*
X75420504Y-58845475D01*
X75448281Y-58899992D01*
X75449500Y-58915479D01*
X75449500Y-60485521D01*
X75430593Y-60543712D01*
X75381093Y-60579676D01*
X75319907Y-60579676D01*
X75280496Y-60555525D01*
X74280464Y-59555493D01*
X73240493Y-58515522D01*
X73212718Y-58461008D01*
X73222289Y-58400576D01*
X73265554Y-58357311D01*
X73325986Y-58347740D01*
X73329799Y-58348420D01*
X73340252Y-58350500D01*
X73340253Y-58350500D01*
X74119747Y-58350500D01*
X74119748Y-58350500D01*
X74178231Y-58338867D01*
X74244552Y-58294552D01*
X74282686Y-58237481D01*
X74285856Y-58234981D01*
X74287254Y-58231194D01*
X74309614Y-58216253D01*
X74330735Y-58199603D01*
X74334769Y-58199444D01*
X74338127Y-58197201D01*
X74365000Y-58198256D01*
X74391873Y-58197201D01*
X74395230Y-58199444D01*
G37*
%TD.AperFunction*%
%TA.AperFunction,NonConductor*%
G36*
X76219504Y-66244475D02*
G01*
X78164251Y-68189222D01*
X78167516Y-68195630D01*
X78173399Y-68199763D01*
X78181158Y-68222404D01*
X78192028Y-68243739D01*
X78190903Y-68250842D01*
X78193234Y-68257644D01*
X78186201Y-68280525D01*
X78182457Y-68304171D01*
X78177372Y-68309255D01*
X78175260Y-68316129D01*
X78161599Y-68325028D01*
X78139192Y-68347436D01*
X78126341Y-68352880D01*
X78120063Y-68355031D01*
X78067505Y-68365485D01*
X78044286Y-68380998D01*
X78032094Y-68385177D01*
X78013758Y-68385470D01*
X77996111Y-68390447D01*
X77982339Y-68385972D01*
X77970916Y-68386155D01*
X77960599Y-68378908D01*
X77945001Y-68373840D01*
X77932496Y-68365485D01*
X77932495Y-68365484D01*
X77852134Y-68349500D01*
X77647870Y-68349500D01*
X77647862Y-68349501D01*
X77567505Y-68365484D01*
X77567501Y-68365486D01*
X77554999Y-68373840D01*
X77496111Y-68390447D01*
X77445001Y-68373840D01*
X77432496Y-68365485D01*
X77432495Y-68365484D01*
X77352134Y-68349500D01*
X77147870Y-68349500D01*
X77147862Y-68349501D01*
X77067505Y-68365484D01*
X77067501Y-68365486D01*
X77054999Y-68373840D01*
X76996111Y-68390447D01*
X76945001Y-68373840D01*
X76932496Y-68365485D01*
X76932495Y-68365484D01*
X76852134Y-68349500D01*
X76647870Y-68349500D01*
X76647862Y-68349501D01*
X76567505Y-68365484D01*
X76567501Y-68365486D01*
X76554999Y-68373840D01*
X76496111Y-68390447D01*
X76445001Y-68373840D01*
X76432496Y-68365485D01*
X76432495Y-68365484D01*
X76352135Y-68349500D01*
X76149500Y-68349500D01*
X76091309Y-68330593D01*
X76055345Y-68281093D01*
X76050500Y-68250500D01*
X76050500Y-66314479D01*
X76069407Y-66256288D01*
X76118907Y-66220324D01*
X76180093Y-66220324D01*
X76219504Y-66244475D01*
G37*
%TD.AperFunction*%
%TA.AperFunction,NonConductor*%
G36*
X74195445Y-67226269D02*
G01*
X74238710Y-67269534D01*
X74249500Y-67314479D01*
X74249500Y-67359309D01*
X74264874Y-67416684D01*
X74280202Y-67473890D01*
X74339507Y-67576608D01*
X74339509Y-67576610D01*
X74339511Y-67576613D01*
X74423387Y-67660489D01*
X74423389Y-67660490D01*
X74423391Y-67660492D01*
X74526110Y-67719797D01*
X74526111Y-67719797D01*
X74526114Y-67719799D01*
X74640691Y-67750500D01*
X74640693Y-67750500D01*
X74710119Y-67750500D01*
X74768310Y-67769407D01*
X74804274Y-67818907D01*
X74804274Y-67880093D01*
X74795855Y-67899001D01*
X74780202Y-67926111D01*
X74780201Y-67926113D01*
X74780201Y-67926114D01*
X74749500Y-68040691D01*
X74749500Y-68159309D01*
X74762095Y-68206314D01*
X74767069Y-68224877D01*
X74763866Y-68285979D01*
X74725361Y-68333529D01*
X74694481Y-68346782D01*
X74683118Y-68349500D01*
X74647868Y-68349501D01*
X74567505Y-68365485D01*
X74540271Y-68383681D01*
X74523039Y-68387805D01*
X74509339Y-68386716D01*
X74496111Y-68390447D01*
X74476632Y-68384118D01*
X74462045Y-68382959D01*
X74455294Y-68377184D01*
X74445001Y-68373840D01*
X74432496Y-68365485D01*
X74432495Y-68365484D01*
X74352134Y-68349500D01*
X74147870Y-68349500D01*
X74147862Y-68349501D01*
X74067505Y-68365484D01*
X74067501Y-68365486D01*
X74054999Y-68373840D01*
X73996111Y-68390447D01*
X73945001Y-68373840D01*
X73932496Y-68365485D01*
X73932495Y-68365484D01*
X73852135Y-68349500D01*
X73649500Y-68349500D01*
X73591309Y-68330593D01*
X73555345Y-68281093D01*
X73550500Y-68250500D01*
X73550500Y-67815479D01*
X73569407Y-67757288D01*
X73579496Y-67745475D01*
X74080496Y-67244475D01*
X74135013Y-67216698D01*
X74195445Y-67226269D01*
G37*
%TD.AperFunction*%
%TA.AperFunction,NonConductor*%
G36*
X78555000Y-70276159D02*
G01*
X78567505Y-70284515D01*
X78647867Y-70300500D01*
X78800499Y-70300499D01*
X78858690Y-70319406D01*
X78894654Y-70368906D01*
X78899500Y-70399499D01*
X78899500Y-71621974D01*
X78919977Y-71698395D01*
X78919981Y-71698403D01*
X78940826Y-71734510D01*
X78940827Y-71734510D01*
X78951632Y-71753224D01*
X78959540Y-71766921D01*
X79627130Y-72434511D01*
X79627129Y-72434511D01*
X79685472Y-72492853D01*
X79713250Y-72547369D01*
X79712567Y-72582170D01*
X79699500Y-72647862D01*
X79699500Y-72852129D01*
X79699501Y-72852137D01*
X79715484Y-72932494D01*
X79715486Y-72932498D01*
X79723840Y-72945001D01*
X79740447Y-73003889D01*
X79723840Y-73054999D01*
X79715485Y-73067503D01*
X79715484Y-73067504D01*
X79699500Y-73147864D01*
X79699500Y-73347653D01*
X79680593Y-73405844D01*
X79631093Y-73441808D01*
X79569907Y-73441808D01*
X79530496Y-73417657D01*
X76953225Y-70840386D01*
X76925448Y-70785869D01*
X76927602Y-70744762D01*
X76950500Y-70659309D01*
X76950500Y-70540691D01*
X76919799Y-70426114D01*
X76910701Y-70410356D01*
X76908102Y-70398129D01*
X76901155Y-70387734D01*
X76901893Y-70368922D01*
X76897979Y-70350511D01*
X76903063Y-70339089D01*
X76903554Y-70326595D01*
X76915207Y-70311810D01*
X76922863Y-70294615D01*
X76941425Y-70278547D01*
X76944997Y-70276161D01*
X77003881Y-70259551D01*
X77055000Y-70276159D01*
X77067505Y-70284515D01*
X77147867Y-70300500D01*
X77352132Y-70300499D01*
X77432495Y-70284515D01*
X77444996Y-70276161D01*
X77503883Y-70259551D01*
X77555000Y-70276159D01*
X77567505Y-70284515D01*
X77647867Y-70300500D01*
X77852132Y-70300499D01*
X77932495Y-70284515D01*
X77944996Y-70276161D01*
X78003883Y-70259551D01*
X78055000Y-70276159D01*
X78067505Y-70284515D01*
X78147867Y-70300500D01*
X78352132Y-70300499D01*
X78432495Y-70284515D01*
X78444996Y-70276161D01*
X78503883Y-70259551D01*
X78555000Y-70276159D01*
G37*
%TD.AperFunction*%
%TA.AperFunction,NonConductor*%
G36*
X61576765Y-80633542D02*
G01*
X61582484Y-80638828D01*
X61824152Y-80880497D01*
X61851929Y-80935013D01*
X61842358Y-80995445D01*
X61799093Y-81038710D01*
X61754148Y-81049500D01*
X61318710Y-81049500D01*
X61260519Y-81030593D01*
X61224555Y-80981093D01*
X61224555Y-80919907D01*
X61260519Y-80870407D01*
X61269209Y-80864764D01*
X61271147Y-80863644D01*
X61276613Y-80860489D01*
X61360489Y-80776613D01*
X61388493Y-80728110D01*
X61419795Y-80673893D01*
X61419795Y-80673892D01*
X61419799Y-80673886D01*
X61419801Y-80673878D01*
X61421011Y-80670958D01*
X61422491Y-80669224D01*
X61423044Y-80668267D01*
X61423221Y-80668369D01*
X61460741Y-80624427D01*
X61520234Y-80610135D01*
X61576765Y-80633542D01*
G37*
%TD.AperFunction*%
%TA.AperFunction,NonConductor*%
G36*
X75408691Y-81669406D02*
G01*
X75444655Y-81718906D01*
X75449500Y-81749499D01*
X75449500Y-82781576D01*
X75430593Y-82839767D01*
X75420504Y-82851580D01*
X75219504Y-83052580D01*
X75164987Y-83080357D01*
X75104555Y-83070786D01*
X75061290Y-83027521D01*
X75050500Y-82982576D01*
X75050500Y-81749499D01*
X75069407Y-81691308D01*
X75118907Y-81655344D01*
X75149493Y-81650499D01*
X75350500Y-81650499D01*
X75408691Y-81669406D01*
G37*
%TD.AperFunction*%
%TA.AperFunction,NonConductor*%
G36*
X83506409Y-95404801D02*
G01*
X83531464Y-95423004D01*
X83561684Y-95453224D01*
X83670513Y-95503972D01*
X83720099Y-95510500D01*
X84079900Y-95510499D01*
X84105910Y-95507075D01*
X84166070Y-95518226D01*
X84204042Y-95554830D01*
X84210278Y-95565374D01*
X84324625Y-95679721D01*
X84463802Y-95762030D01*
X84613188Y-95805431D01*
X84663793Y-95839822D01*
X84684519Y-95897390D01*
X84667449Y-95956146D01*
X84619103Y-95993647D01*
X84585568Y-95999500D01*
X84195684Y-95999500D01*
X84190504Y-96000182D01*
X84146825Y-96005932D01*
X84146824Y-96005932D01*
X84039598Y-96055933D01*
X83955933Y-96139598D01*
X83905932Y-96246824D01*
X83905932Y-96246825D01*
X83899500Y-96295685D01*
X83899500Y-96300500D01*
X83894655Y-96315411D01*
X83894655Y-96331093D01*
X83885438Y-96343778D01*
X83880593Y-96358691D01*
X83867907Y-96367907D01*
X83858691Y-96380593D01*
X83843778Y-96385438D01*
X83831093Y-96394655D01*
X83800500Y-96399500D01*
X83649500Y-96399500D01*
X83591309Y-96380593D01*
X83555345Y-96331093D01*
X83550500Y-96300500D01*
X83550500Y-95840244D01*
X83550499Y-95840241D01*
X83550450Y-95839822D01*
X83547755Y-95816585D01*
X83505018Y-95719796D01*
X83430204Y-95644982D01*
X83430202Y-95644981D01*
X83381551Y-95623499D01*
X83379420Y-95621592D01*
X83376595Y-95621145D01*
X83356803Y-95601353D01*
X83335956Y-95582698D01*
X83335352Y-95579902D01*
X83333330Y-95577880D01*
X83328952Y-95550239D01*
X83323051Y-95522889D01*
X83324206Y-95520272D01*
X83323759Y-95517448D01*
X83336464Y-95492510D01*
X83347766Y-95466917D01*
X83351501Y-95462967D01*
X83391464Y-95423004D01*
X83445977Y-95395230D01*
X83506409Y-95404801D01*
G37*
%TD.AperFunction*%
M02*
