%TF.GenerationSoftware,KiCad,Pcbnew,10.0.1-10.0.1~ubuntu24.04.1*%
%TF.CreationDate,2026-05-08T08:47:13+02:00*%
%TF.ProjectId,SOS_Schematic,534f535f-5363-4686-956d-617469632e6b,rev?*%
%TF.SameCoordinates,Original*%
%TF.FileFunction,Legend,Top*%
%TF.FilePolarity,Positive*%
%FSLAX46Y46*%
G04 Gerber Fmt 4.6, Leading zero omitted, Abs format (unit mm)*
G04 Created by KiCad (PCBNEW 10.0.1-10.0.1~ubuntu24.04.1) date 2026-05-08 08:47:13*
%MOMM*%
%LPD*%
G01*
G04 APERTURE LIST*
%ADD10C,0.100000*%
%ADD11C,0.120000*%
G04 APERTURE END LIST*
D10*
X98066666Y-57385300D02*
X98166666Y-57418633D01*
X98166666Y-57418633D02*
X98333333Y-57418633D01*
X98333333Y-57418633D02*
X98399999Y-57385300D01*
X98399999Y-57385300D02*
X98433333Y-57351966D01*
X98433333Y-57351966D02*
X98466666Y-57285300D01*
X98466666Y-57285300D02*
X98466666Y-57218633D01*
X98466666Y-57218633D02*
X98433333Y-57151966D01*
X98433333Y-57151966D02*
X98399999Y-57118633D01*
X98399999Y-57118633D02*
X98333333Y-57085300D01*
X98333333Y-57085300D02*
X98199999Y-57051966D01*
X98199999Y-57051966D02*
X98133333Y-57018633D01*
X98133333Y-57018633D02*
X98099999Y-56985300D01*
X98099999Y-56985300D02*
X98066666Y-56918633D01*
X98066666Y-56918633D02*
X98066666Y-56851966D01*
X98066666Y-56851966D02*
X98099999Y-56785300D01*
X98099999Y-56785300D02*
X98133333Y-56751966D01*
X98133333Y-56751966D02*
X98199999Y-56718633D01*
X98199999Y-56718633D02*
X98366666Y-56718633D01*
X98366666Y-56718633D02*
X98466666Y-56751966D01*
X98700000Y-56718633D02*
X98866666Y-57418633D01*
X98866666Y-57418633D02*
X99000000Y-56918633D01*
X99000000Y-56918633D02*
X99133333Y-57418633D01*
X99133333Y-57418633D02*
X99300000Y-56718633D01*
X99933333Y-57418633D02*
X99533333Y-57418633D01*
X99733333Y-57418633D02*
X99733333Y-56718633D01*
X99733333Y-56718633D02*
X99666666Y-56818633D01*
X99666666Y-56818633D02*
X99600000Y-56885300D01*
X99600000Y-56885300D02*
X99533333Y-56918633D01*
X70984999Y-66876966D02*
X70951666Y-66910300D01*
X70951666Y-66910300D02*
X70851666Y-66943633D01*
X70851666Y-66943633D02*
X70784999Y-66943633D01*
X70784999Y-66943633D02*
X70684999Y-66910300D01*
X70684999Y-66910300D02*
X70618333Y-66843633D01*
X70618333Y-66843633D02*
X70584999Y-66776966D01*
X70584999Y-66776966D02*
X70551666Y-66643633D01*
X70551666Y-66643633D02*
X70551666Y-66543633D01*
X70551666Y-66543633D02*
X70584999Y-66410300D01*
X70584999Y-66410300D02*
X70618333Y-66343633D01*
X70618333Y-66343633D02*
X70684999Y-66276966D01*
X70684999Y-66276966D02*
X70784999Y-66243633D01*
X70784999Y-66243633D02*
X70851666Y-66243633D01*
X70851666Y-66243633D02*
X70951666Y-66276966D01*
X70951666Y-66276966D02*
X70984999Y-66310300D01*
X71651666Y-66943633D02*
X71251666Y-66943633D01*
X71451666Y-66943633D02*
X71451666Y-66243633D01*
X71451666Y-66243633D02*
X71384999Y-66343633D01*
X71384999Y-66343633D02*
X71318333Y-66410300D01*
X71318333Y-66410300D02*
X71251666Y-66443633D01*
X72251666Y-66243633D02*
X72118333Y-66243633D01*
X72118333Y-66243633D02*
X72051666Y-66276966D01*
X72051666Y-66276966D02*
X72018333Y-66310300D01*
X72018333Y-66310300D02*
X71951666Y-66410300D01*
X71951666Y-66410300D02*
X71918333Y-66543633D01*
X71918333Y-66543633D02*
X71918333Y-66810300D01*
X71918333Y-66810300D02*
X71951666Y-66876966D01*
X71951666Y-66876966D02*
X71985000Y-66910300D01*
X71985000Y-66910300D02*
X72051666Y-66943633D01*
X72051666Y-66943633D02*
X72185000Y-66943633D01*
X72185000Y-66943633D02*
X72251666Y-66910300D01*
X72251666Y-66910300D02*
X72285000Y-66876966D01*
X72285000Y-66876966D02*
X72318333Y-66810300D01*
X72318333Y-66810300D02*
X72318333Y-66643633D01*
X72318333Y-66643633D02*
X72285000Y-66576966D01*
X72285000Y-66576966D02*
X72251666Y-66543633D01*
X72251666Y-66543633D02*
X72185000Y-66510300D01*
X72185000Y-66510300D02*
X72051666Y-66510300D01*
X72051666Y-66510300D02*
X71985000Y-66543633D01*
X71985000Y-66543633D02*
X71951666Y-66576966D01*
X71951666Y-66576966D02*
X71918333Y-66643633D01*
X81449999Y-70451966D02*
X81416666Y-70485300D01*
X81416666Y-70485300D02*
X81316666Y-70518633D01*
X81316666Y-70518633D02*
X81249999Y-70518633D01*
X81249999Y-70518633D02*
X81149999Y-70485300D01*
X81149999Y-70485300D02*
X81083333Y-70418633D01*
X81083333Y-70418633D02*
X81049999Y-70351966D01*
X81049999Y-70351966D02*
X81016666Y-70218633D01*
X81016666Y-70218633D02*
X81016666Y-70118633D01*
X81016666Y-70118633D02*
X81049999Y-69985300D01*
X81049999Y-69985300D02*
X81083333Y-69918633D01*
X81083333Y-69918633D02*
X81149999Y-69851966D01*
X81149999Y-69851966D02*
X81249999Y-69818633D01*
X81249999Y-69818633D02*
X81316666Y-69818633D01*
X81316666Y-69818633D02*
X81416666Y-69851966D01*
X81416666Y-69851966D02*
X81449999Y-69885300D01*
X82116666Y-70518633D02*
X81716666Y-70518633D01*
X81916666Y-70518633D02*
X81916666Y-69818633D01*
X81916666Y-69818633D02*
X81849999Y-69918633D01*
X81849999Y-69918633D02*
X81783333Y-69985300D01*
X81783333Y-69985300D02*
X81716666Y-70018633D01*
X82783333Y-70518633D02*
X82383333Y-70518633D01*
X82583333Y-70518633D02*
X82583333Y-69818633D01*
X82583333Y-69818633D02*
X82516666Y-69918633D01*
X82516666Y-69918633D02*
X82450000Y-69985300D01*
X82450000Y-69985300D02*
X82383333Y-70018633D01*
X83549999Y-70451966D02*
X83516666Y-70485300D01*
X83516666Y-70485300D02*
X83416666Y-70518633D01*
X83416666Y-70518633D02*
X83349999Y-70518633D01*
X83349999Y-70518633D02*
X83249999Y-70485300D01*
X83249999Y-70485300D02*
X83183333Y-70418633D01*
X83183333Y-70418633D02*
X83149999Y-70351966D01*
X83149999Y-70351966D02*
X83116666Y-70218633D01*
X83116666Y-70218633D02*
X83116666Y-70118633D01*
X83116666Y-70118633D02*
X83149999Y-69985300D01*
X83149999Y-69985300D02*
X83183333Y-69918633D01*
X83183333Y-69918633D02*
X83249999Y-69851966D01*
X83249999Y-69851966D02*
X83349999Y-69818633D01*
X83349999Y-69818633D02*
X83416666Y-69818633D01*
X83416666Y-69818633D02*
X83516666Y-69851966D01*
X83516666Y-69851966D02*
X83549999Y-69885300D01*
X84216666Y-70518633D02*
X83816666Y-70518633D01*
X84016666Y-70518633D02*
X84016666Y-69818633D01*
X84016666Y-69818633D02*
X83949999Y-69918633D01*
X83949999Y-69918633D02*
X83883333Y-69985300D01*
X83883333Y-69985300D02*
X83816666Y-70018633D01*
X84650000Y-69818633D02*
X84716666Y-69818633D01*
X84716666Y-69818633D02*
X84783333Y-69851966D01*
X84783333Y-69851966D02*
X84816666Y-69885300D01*
X84816666Y-69885300D02*
X84850000Y-69951966D01*
X84850000Y-69951966D02*
X84883333Y-70085300D01*
X84883333Y-70085300D02*
X84883333Y-70251966D01*
X84883333Y-70251966D02*
X84850000Y-70385300D01*
X84850000Y-70385300D02*
X84816666Y-70451966D01*
X84816666Y-70451966D02*
X84783333Y-70485300D01*
X84783333Y-70485300D02*
X84716666Y-70518633D01*
X84716666Y-70518633D02*
X84650000Y-70518633D01*
X84650000Y-70518633D02*
X84583333Y-70485300D01*
X84583333Y-70485300D02*
X84550000Y-70451966D01*
X84550000Y-70451966D02*
X84516666Y-70385300D01*
X84516666Y-70385300D02*
X84483333Y-70251966D01*
X84483333Y-70251966D02*
X84483333Y-70085300D01*
X84483333Y-70085300D02*
X84516666Y-69951966D01*
X84516666Y-69951966D02*
X84550000Y-69885300D01*
X84550000Y-69885300D02*
X84583333Y-69851966D01*
X84583333Y-69851966D02*
X84650000Y-69818633D01*
X68466666Y-69418633D02*
X68466666Y-69985300D01*
X68466666Y-69985300D02*
X68500000Y-70051966D01*
X68500000Y-70051966D02*
X68533333Y-70085300D01*
X68533333Y-70085300D02*
X68600000Y-70118633D01*
X68600000Y-70118633D02*
X68733333Y-70118633D01*
X68733333Y-70118633D02*
X68800000Y-70085300D01*
X68800000Y-70085300D02*
X68833333Y-70051966D01*
X68833333Y-70051966D02*
X68866666Y-69985300D01*
X68866666Y-69985300D02*
X68866666Y-69418633D01*
X69133333Y-69418633D02*
X69566666Y-69418633D01*
X69566666Y-69418633D02*
X69333333Y-69685300D01*
X69333333Y-69685300D02*
X69433333Y-69685300D01*
X69433333Y-69685300D02*
X69499999Y-69718633D01*
X69499999Y-69718633D02*
X69533333Y-69751966D01*
X69533333Y-69751966D02*
X69566666Y-69818633D01*
X69566666Y-69818633D02*
X69566666Y-69985300D01*
X69566666Y-69985300D02*
X69533333Y-70051966D01*
X69533333Y-70051966D02*
X69499999Y-70085300D01*
X69499999Y-70085300D02*
X69433333Y-70118633D01*
X69433333Y-70118633D02*
X69233333Y-70118633D01*
X69233333Y-70118633D02*
X69166666Y-70085300D01*
X69166666Y-70085300D02*
X69133333Y-70051966D01*
X67866666Y-52785300D02*
X67966666Y-52818633D01*
X67966666Y-52818633D02*
X68133333Y-52818633D01*
X68133333Y-52818633D02*
X68199999Y-52785300D01*
X68199999Y-52785300D02*
X68233333Y-52751966D01*
X68233333Y-52751966D02*
X68266666Y-52685300D01*
X68266666Y-52685300D02*
X68266666Y-52618633D01*
X68266666Y-52618633D02*
X68233333Y-52551966D01*
X68233333Y-52551966D02*
X68199999Y-52518633D01*
X68199999Y-52518633D02*
X68133333Y-52485300D01*
X68133333Y-52485300D02*
X67999999Y-52451966D01*
X67999999Y-52451966D02*
X67933333Y-52418633D01*
X67933333Y-52418633D02*
X67899999Y-52385300D01*
X67899999Y-52385300D02*
X67866666Y-52318633D01*
X67866666Y-52318633D02*
X67866666Y-52251966D01*
X67866666Y-52251966D02*
X67899999Y-52185300D01*
X67899999Y-52185300D02*
X67933333Y-52151966D01*
X67933333Y-52151966D02*
X67999999Y-52118633D01*
X67999999Y-52118633D02*
X68166666Y-52118633D01*
X68166666Y-52118633D02*
X68266666Y-52151966D01*
X68500000Y-52118633D02*
X68666666Y-52818633D01*
X68666666Y-52818633D02*
X68800000Y-52318633D01*
X68800000Y-52318633D02*
X68933333Y-52818633D01*
X68933333Y-52818633D02*
X69100000Y-52118633D01*
X69700000Y-52118633D02*
X69366666Y-52118633D01*
X69366666Y-52118633D02*
X69333333Y-52451966D01*
X69333333Y-52451966D02*
X69366666Y-52418633D01*
X69366666Y-52418633D02*
X69433333Y-52385300D01*
X69433333Y-52385300D02*
X69600000Y-52385300D01*
X69600000Y-52385300D02*
X69666666Y-52418633D01*
X69666666Y-52418633D02*
X69700000Y-52451966D01*
X69700000Y-52451966D02*
X69733333Y-52518633D01*
X69733333Y-52518633D02*
X69733333Y-52685300D01*
X69733333Y-52685300D02*
X69700000Y-52751966D01*
X69700000Y-52751966D02*
X69666666Y-52785300D01*
X69666666Y-52785300D02*
X69600000Y-52818633D01*
X69600000Y-52818633D02*
X69433333Y-52818633D01*
X69433333Y-52818633D02*
X69366666Y-52785300D01*
X69366666Y-52785300D02*
X69333333Y-52751966D01*
X88983333Y-75218633D02*
X88750000Y-74885300D01*
X88583333Y-75218633D02*
X88583333Y-74518633D01*
X88583333Y-74518633D02*
X88850000Y-74518633D01*
X88850000Y-74518633D02*
X88916667Y-74551966D01*
X88916667Y-74551966D02*
X88950000Y-74585300D01*
X88950000Y-74585300D02*
X88983333Y-74651966D01*
X88983333Y-74651966D02*
X88983333Y-74751966D01*
X88983333Y-74751966D02*
X88950000Y-74818633D01*
X88950000Y-74818633D02*
X88916667Y-74851966D01*
X88916667Y-74851966D02*
X88850000Y-74885300D01*
X88850000Y-74885300D02*
X88583333Y-74885300D01*
X89650000Y-75218633D02*
X89250000Y-75218633D01*
X89450000Y-75218633D02*
X89450000Y-74518633D01*
X89450000Y-74518633D02*
X89383333Y-74618633D01*
X89383333Y-74618633D02*
X89316667Y-74685300D01*
X89316667Y-74685300D02*
X89250000Y-74718633D01*
X86466666Y-70418633D02*
X86466666Y-70985300D01*
X86466666Y-70985300D02*
X86500000Y-71051966D01*
X86500000Y-71051966D02*
X86533333Y-71085300D01*
X86533333Y-71085300D02*
X86600000Y-71118633D01*
X86600000Y-71118633D02*
X86733333Y-71118633D01*
X86733333Y-71118633D02*
X86800000Y-71085300D01*
X86800000Y-71085300D02*
X86833333Y-71051966D01*
X86833333Y-71051966D02*
X86866666Y-70985300D01*
X86866666Y-70985300D02*
X86866666Y-70418633D01*
X87166666Y-70485300D02*
X87199999Y-70451966D01*
X87199999Y-70451966D02*
X87266666Y-70418633D01*
X87266666Y-70418633D02*
X87433333Y-70418633D01*
X87433333Y-70418633D02*
X87499999Y-70451966D01*
X87499999Y-70451966D02*
X87533333Y-70485300D01*
X87533333Y-70485300D02*
X87566666Y-70551966D01*
X87566666Y-70551966D02*
X87566666Y-70618633D01*
X87566666Y-70618633D02*
X87533333Y-70718633D01*
X87533333Y-70718633D02*
X87133333Y-71118633D01*
X87133333Y-71118633D02*
X87566666Y-71118633D01*
X89973633Y-73233333D02*
X90473633Y-73233333D01*
X90473633Y-73233333D02*
X90573633Y-73266666D01*
X90573633Y-73266666D02*
X90640300Y-73333333D01*
X90640300Y-73333333D02*
X90673633Y-73433333D01*
X90673633Y-73433333D02*
X90673633Y-73500000D01*
X90673633Y-72533333D02*
X90673633Y-72933333D01*
X90673633Y-72733333D02*
X89973633Y-72733333D01*
X89973633Y-72733333D02*
X90073633Y-72800000D01*
X90073633Y-72800000D02*
X90140300Y-72866667D01*
X90140300Y-72866667D02*
X90173633Y-72933333D01*
X88913333Y-71018633D02*
X88680000Y-70685300D01*
X88513333Y-71018633D02*
X88513333Y-70318633D01*
X88513333Y-70318633D02*
X88780000Y-70318633D01*
X88780000Y-70318633D02*
X88846667Y-70351966D01*
X88846667Y-70351966D02*
X88880000Y-70385300D01*
X88880000Y-70385300D02*
X88913333Y-70451966D01*
X88913333Y-70451966D02*
X88913333Y-70551966D01*
X88913333Y-70551966D02*
X88880000Y-70618633D01*
X88880000Y-70618633D02*
X88846667Y-70651966D01*
X88846667Y-70651966D02*
X88780000Y-70685300D01*
X88780000Y-70685300D02*
X88513333Y-70685300D01*
X89180000Y-70385300D02*
X89213333Y-70351966D01*
X89213333Y-70351966D02*
X89280000Y-70318633D01*
X89280000Y-70318633D02*
X89446667Y-70318633D01*
X89446667Y-70318633D02*
X89513333Y-70351966D01*
X89513333Y-70351966D02*
X89546667Y-70385300D01*
X89546667Y-70385300D02*
X89580000Y-70451966D01*
X89580000Y-70451966D02*
X89580000Y-70518633D01*
X89580000Y-70518633D02*
X89546667Y-70618633D01*
X89546667Y-70618633D02*
X89146667Y-71018633D01*
X89146667Y-71018633D02*
X89580000Y-71018633D01*
X62966667Y-69985300D02*
X62966667Y-70318633D01*
X62733333Y-69618633D02*
X62966667Y-69985300D01*
X62966667Y-69985300D02*
X63200000Y-69618633D01*
X63800000Y-70318633D02*
X63400000Y-70318633D01*
X63600000Y-70318633D02*
X63600000Y-69618633D01*
X63600000Y-69618633D02*
X63533333Y-69718633D01*
X63533333Y-69718633D02*
X63466667Y-69785300D01*
X63466667Y-69785300D02*
X63400000Y-69818633D01*
X89066666Y-66518633D02*
X89066666Y-67085300D01*
X89066666Y-67085300D02*
X89100000Y-67151966D01*
X89100000Y-67151966D02*
X89133333Y-67185300D01*
X89133333Y-67185300D02*
X89200000Y-67218633D01*
X89200000Y-67218633D02*
X89333333Y-67218633D01*
X89333333Y-67218633D02*
X89400000Y-67185300D01*
X89400000Y-67185300D02*
X89433333Y-67151966D01*
X89433333Y-67151966D02*
X89466666Y-67085300D01*
X89466666Y-67085300D02*
X89466666Y-66518633D01*
X90166666Y-67218633D02*
X89766666Y-67218633D01*
X89966666Y-67218633D02*
X89966666Y-66518633D01*
X89966666Y-66518633D02*
X89899999Y-66618633D01*
X89899999Y-66618633D02*
X89833333Y-66685300D01*
X89833333Y-66685300D02*
X89766666Y-66718633D01*
X87866666Y-52785300D02*
X87966666Y-52818633D01*
X87966666Y-52818633D02*
X88133333Y-52818633D01*
X88133333Y-52818633D02*
X88199999Y-52785300D01*
X88199999Y-52785300D02*
X88233333Y-52751966D01*
X88233333Y-52751966D02*
X88266666Y-52685300D01*
X88266666Y-52685300D02*
X88266666Y-52618633D01*
X88266666Y-52618633D02*
X88233333Y-52551966D01*
X88233333Y-52551966D02*
X88199999Y-52518633D01*
X88199999Y-52518633D02*
X88133333Y-52485300D01*
X88133333Y-52485300D02*
X87999999Y-52451966D01*
X87999999Y-52451966D02*
X87933333Y-52418633D01*
X87933333Y-52418633D02*
X87899999Y-52385300D01*
X87899999Y-52385300D02*
X87866666Y-52318633D01*
X87866666Y-52318633D02*
X87866666Y-52251966D01*
X87866666Y-52251966D02*
X87899999Y-52185300D01*
X87899999Y-52185300D02*
X87933333Y-52151966D01*
X87933333Y-52151966D02*
X87999999Y-52118633D01*
X87999999Y-52118633D02*
X88166666Y-52118633D01*
X88166666Y-52118633D02*
X88266666Y-52151966D01*
X88500000Y-52118633D02*
X88666666Y-52818633D01*
X88666666Y-52818633D02*
X88800000Y-52318633D01*
X88800000Y-52318633D02*
X88933333Y-52818633D01*
X88933333Y-52818633D02*
X89100000Y-52118633D01*
X89666666Y-52351966D02*
X89666666Y-52818633D01*
X89500000Y-52085300D02*
X89333333Y-52585300D01*
X89333333Y-52585300D02*
X89766666Y-52585300D01*
X85366666Y-97785300D02*
X85466666Y-97818633D01*
X85466666Y-97818633D02*
X85633333Y-97818633D01*
X85633333Y-97818633D02*
X85699999Y-97785300D01*
X85699999Y-97785300D02*
X85733333Y-97751966D01*
X85733333Y-97751966D02*
X85766666Y-97685300D01*
X85766666Y-97685300D02*
X85766666Y-97618633D01*
X85766666Y-97618633D02*
X85733333Y-97551966D01*
X85733333Y-97551966D02*
X85699999Y-97518633D01*
X85699999Y-97518633D02*
X85633333Y-97485300D01*
X85633333Y-97485300D02*
X85499999Y-97451966D01*
X85499999Y-97451966D02*
X85433333Y-97418633D01*
X85433333Y-97418633D02*
X85399999Y-97385300D01*
X85399999Y-97385300D02*
X85366666Y-97318633D01*
X85366666Y-97318633D02*
X85366666Y-97251966D01*
X85366666Y-97251966D02*
X85399999Y-97185300D01*
X85399999Y-97185300D02*
X85433333Y-97151966D01*
X85433333Y-97151966D02*
X85499999Y-97118633D01*
X85499999Y-97118633D02*
X85666666Y-97118633D01*
X85666666Y-97118633D02*
X85766666Y-97151966D01*
X86000000Y-97118633D02*
X86166666Y-97818633D01*
X86166666Y-97818633D02*
X86300000Y-97318633D01*
X86300000Y-97318633D02*
X86433333Y-97818633D01*
X86433333Y-97818633D02*
X86600000Y-97118633D01*
X86800000Y-97118633D02*
X87233333Y-97118633D01*
X87233333Y-97118633D02*
X87000000Y-97385300D01*
X87000000Y-97385300D02*
X87100000Y-97385300D01*
X87100000Y-97385300D02*
X87166666Y-97418633D01*
X87166666Y-97418633D02*
X87200000Y-97451966D01*
X87200000Y-97451966D02*
X87233333Y-97518633D01*
X87233333Y-97518633D02*
X87233333Y-97685300D01*
X87233333Y-97685300D02*
X87200000Y-97751966D01*
X87200000Y-97751966D02*
X87166666Y-97785300D01*
X87166666Y-97785300D02*
X87100000Y-97818633D01*
X87100000Y-97818633D02*
X86900000Y-97818633D01*
X86900000Y-97818633D02*
X86833333Y-97785300D01*
X86833333Y-97785300D02*
X86800000Y-97751966D01*
X67866666Y-97785300D02*
X67966666Y-97818633D01*
X67966666Y-97818633D02*
X68133333Y-97818633D01*
X68133333Y-97818633D02*
X68199999Y-97785300D01*
X68199999Y-97785300D02*
X68233333Y-97751966D01*
X68233333Y-97751966D02*
X68266666Y-97685300D01*
X68266666Y-97685300D02*
X68266666Y-97618633D01*
X68266666Y-97618633D02*
X68233333Y-97551966D01*
X68233333Y-97551966D02*
X68199999Y-97518633D01*
X68199999Y-97518633D02*
X68133333Y-97485300D01*
X68133333Y-97485300D02*
X67999999Y-97451966D01*
X67999999Y-97451966D02*
X67933333Y-97418633D01*
X67933333Y-97418633D02*
X67899999Y-97385300D01*
X67899999Y-97385300D02*
X67866666Y-97318633D01*
X67866666Y-97318633D02*
X67866666Y-97251966D01*
X67866666Y-97251966D02*
X67899999Y-97185300D01*
X67899999Y-97185300D02*
X67933333Y-97151966D01*
X67933333Y-97151966D02*
X67999999Y-97118633D01*
X67999999Y-97118633D02*
X68166666Y-97118633D01*
X68166666Y-97118633D02*
X68266666Y-97151966D01*
X68500000Y-97118633D02*
X68666666Y-97818633D01*
X68666666Y-97818633D02*
X68800000Y-97318633D01*
X68800000Y-97318633D02*
X68933333Y-97818633D01*
X68933333Y-97818633D02*
X69100000Y-97118633D01*
X69333333Y-97185300D02*
X69366666Y-97151966D01*
X69366666Y-97151966D02*
X69433333Y-97118633D01*
X69433333Y-97118633D02*
X69600000Y-97118633D01*
X69600000Y-97118633D02*
X69666666Y-97151966D01*
X69666666Y-97151966D02*
X69700000Y-97185300D01*
X69700000Y-97185300D02*
X69733333Y-97251966D01*
X69733333Y-97251966D02*
X69733333Y-97318633D01*
X69733333Y-97318633D02*
X69700000Y-97418633D01*
X69700000Y-97418633D02*
X69300000Y-97818633D01*
X69300000Y-97818633D02*
X69733333Y-97818633D01*
X64449999Y-56318633D02*
X64216666Y-55985300D01*
X64049999Y-56318633D02*
X64049999Y-55618633D01*
X64049999Y-55618633D02*
X64316666Y-55618633D01*
X64316666Y-55618633D02*
X64383333Y-55651966D01*
X64383333Y-55651966D02*
X64416666Y-55685300D01*
X64416666Y-55685300D02*
X64449999Y-55751966D01*
X64449999Y-55751966D02*
X64449999Y-55851966D01*
X64449999Y-55851966D02*
X64416666Y-55918633D01*
X64416666Y-55918633D02*
X64383333Y-55951966D01*
X64383333Y-55951966D02*
X64316666Y-55985300D01*
X64316666Y-55985300D02*
X64049999Y-55985300D01*
X65116666Y-56318633D02*
X64716666Y-56318633D01*
X64916666Y-56318633D02*
X64916666Y-55618633D01*
X64916666Y-55618633D02*
X64849999Y-55718633D01*
X64849999Y-55718633D02*
X64783333Y-55785300D01*
X64783333Y-55785300D02*
X64716666Y-55818633D01*
X65383333Y-55685300D02*
X65416666Y-55651966D01*
X65416666Y-55651966D02*
X65483333Y-55618633D01*
X65483333Y-55618633D02*
X65650000Y-55618633D01*
X65650000Y-55618633D02*
X65716666Y-55651966D01*
X65716666Y-55651966D02*
X65750000Y-55685300D01*
X65750000Y-55685300D02*
X65783333Y-55751966D01*
X65783333Y-55751966D02*
X65783333Y-55818633D01*
X65783333Y-55818633D02*
X65750000Y-55918633D01*
X65750000Y-55918633D02*
X65350000Y-56318633D01*
X65350000Y-56318633D02*
X65783333Y-56318633D01*
X80149999Y-94418633D02*
X79916666Y-94085300D01*
X79749999Y-94418633D02*
X79749999Y-93718633D01*
X79749999Y-93718633D02*
X80016666Y-93718633D01*
X80016666Y-93718633D02*
X80083333Y-93751966D01*
X80083333Y-93751966D02*
X80116666Y-93785300D01*
X80116666Y-93785300D02*
X80149999Y-93851966D01*
X80149999Y-93851966D02*
X80149999Y-93951966D01*
X80149999Y-93951966D02*
X80116666Y-94018633D01*
X80116666Y-94018633D02*
X80083333Y-94051966D01*
X80083333Y-94051966D02*
X80016666Y-94085300D01*
X80016666Y-94085300D02*
X79749999Y-94085300D01*
X80816666Y-94418633D02*
X80416666Y-94418633D01*
X80616666Y-94418633D02*
X80616666Y-93718633D01*
X80616666Y-93718633D02*
X80549999Y-93818633D01*
X80549999Y-93818633D02*
X80483333Y-93885300D01*
X80483333Y-93885300D02*
X80416666Y-93918633D01*
X81483333Y-94418633D02*
X81083333Y-94418633D01*
X81283333Y-94418633D02*
X81283333Y-93718633D01*
X81283333Y-93718633D02*
X81216666Y-93818633D01*
X81216666Y-93818633D02*
X81150000Y-93885300D01*
X81150000Y-93885300D02*
X81083333Y-93918633D01*
X62649999Y-94418633D02*
X62416666Y-94085300D01*
X62249999Y-94418633D02*
X62249999Y-93718633D01*
X62249999Y-93718633D02*
X62516666Y-93718633D01*
X62516666Y-93718633D02*
X62583333Y-93751966D01*
X62583333Y-93751966D02*
X62616666Y-93785300D01*
X62616666Y-93785300D02*
X62649999Y-93851966D01*
X62649999Y-93851966D02*
X62649999Y-93951966D01*
X62649999Y-93951966D02*
X62616666Y-94018633D01*
X62616666Y-94018633D02*
X62583333Y-94051966D01*
X62583333Y-94051966D02*
X62516666Y-94085300D01*
X62516666Y-94085300D02*
X62249999Y-94085300D01*
X63316666Y-94418633D02*
X62916666Y-94418633D01*
X63116666Y-94418633D02*
X63116666Y-93718633D01*
X63116666Y-93718633D02*
X63049999Y-93818633D01*
X63049999Y-93818633D02*
X62983333Y-93885300D01*
X62983333Y-93885300D02*
X62916666Y-93918633D01*
X63750000Y-93718633D02*
X63816666Y-93718633D01*
X63816666Y-93718633D02*
X63883333Y-93751966D01*
X63883333Y-93751966D02*
X63916666Y-93785300D01*
X63916666Y-93785300D02*
X63950000Y-93851966D01*
X63950000Y-93851966D02*
X63983333Y-93985300D01*
X63983333Y-93985300D02*
X63983333Y-94151966D01*
X63983333Y-94151966D02*
X63950000Y-94285300D01*
X63950000Y-94285300D02*
X63916666Y-94351966D01*
X63916666Y-94351966D02*
X63883333Y-94385300D01*
X63883333Y-94385300D02*
X63816666Y-94418633D01*
X63816666Y-94418633D02*
X63750000Y-94418633D01*
X63750000Y-94418633D02*
X63683333Y-94385300D01*
X63683333Y-94385300D02*
X63650000Y-94351966D01*
X63650000Y-94351966D02*
X63616666Y-94285300D01*
X63616666Y-94285300D02*
X63583333Y-94151966D01*
X63583333Y-94151966D02*
X63583333Y-93985300D01*
X63583333Y-93985300D02*
X63616666Y-93851966D01*
X63616666Y-93851966D02*
X63650000Y-93785300D01*
X63650000Y-93785300D02*
X63683333Y-93751966D01*
X63683333Y-93751966D02*
X63750000Y-93718633D01*
X82383333Y-94418633D02*
X82150000Y-94085300D01*
X81983333Y-94418633D02*
X81983333Y-93718633D01*
X81983333Y-93718633D02*
X82250000Y-93718633D01*
X82250000Y-93718633D02*
X82316667Y-93751966D01*
X82316667Y-93751966D02*
X82350000Y-93785300D01*
X82350000Y-93785300D02*
X82383333Y-93851966D01*
X82383333Y-93851966D02*
X82383333Y-93951966D01*
X82383333Y-93951966D02*
X82350000Y-94018633D01*
X82350000Y-94018633D02*
X82316667Y-94051966D01*
X82316667Y-94051966D02*
X82250000Y-94085300D01*
X82250000Y-94085300D02*
X81983333Y-94085300D01*
X82716667Y-94418633D02*
X82850000Y-94418633D01*
X82850000Y-94418633D02*
X82916667Y-94385300D01*
X82916667Y-94385300D02*
X82950000Y-94351966D01*
X82950000Y-94351966D02*
X83016667Y-94251966D01*
X83016667Y-94251966D02*
X83050000Y-94118633D01*
X83050000Y-94118633D02*
X83050000Y-93851966D01*
X83050000Y-93851966D02*
X83016667Y-93785300D01*
X83016667Y-93785300D02*
X82983333Y-93751966D01*
X82983333Y-93751966D02*
X82916667Y-93718633D01*
X82916667Y-93718633D02*
X82783333Y-93718633D01*
X82783333Y-93718633D02*
X82716667Y-93751966D01*
X82716667Y-93751966D02*
X82683333Y-93785300D01*
X82683333Y-93785300D02*
X82650000Y-93851966D01*
X82650000Y-93851966D02*
X82650000Y-94018633D01*
X82650000Y-94018633D02*
X82683333Y-94085300D01*
X82683333Y-94085300D02*
X82716667Y-94118633D01*
X82716667Y-94118633D02*
X82783333Y-94151966D01*
X82783333Y-94151966D02*
X82916667Y-94151966D01*
X82916667Y-94151966D02*
X82983333Y-94118633D01*
X82983333Y-94118633D02*
X83016667Y-94085300D01*
X83016667Y-94085300D02*
X83050000Y-94018633D01*
X64783333Y-94418633D02*
X64550000Y-94085300D01*
X64383333Y-94418633D02*
X64383333Y-93718633D01*
X64383333Y-93718633D02*
X64650000Y-93718633D01*
X64650000Y-93718633D02*
X64716667Y-93751966D01*
X64716667Y-93751966D02*
X64750000Y-93785300D01*
X64750000Y-93785300D02*
X64783333Y-93851966D01*
X64783333Y-93851966D02*
X64783333Y-93951966D01*
X64783333Y-93951966D02*
X64750000Y-94018633D01*
X64750000Y-94018633D02*
X64716667Y-94051966D01*
X64716667Y-94051966D02*
X64650000Y-94085300D01*
X64650000Y-94085300D02*
X64383333Y-94085300D01*
X65183333Y-94018633D02*
X65116667Y-93985300D01*
X65116667Y-93985300D02*
X65083333Y-93951966D01*
X65083333Y-93951966D02*
X65050000Y-93885300D01*
X65050000Y-93885300D02*
X65050000Y-93851966D01*
X65050000Y-93851966D02*
X65083333Y-93785300D01*
X65083333Y-93785300D02*
X65116667Y-93751966D01*
X65116667Y-93751966D02*
X65183333Y-93718633D01*
X65183333Y-93718633D02*
X65316667Y-93718633D01*
X65316667Y-93718633D02*
X65383333Y-93751966D01*
X65383333Y-93751966D02*
X65416667Y-93785300D01*
X65416667Y-93785300D02*
X65450000Y-93851966D01*
X65450000Y-93851966D02*
X65450000Y-93885300D01*
X65450000Y-93885300D02*
X65416667Y-93951966D01*
X65416667Y-93951966D02*
X65383333Y-93985300D01*
X65383333Y-93985300D02*
X65316667Y-94018633D01*
X65316667Y-94018633D02*
X65183333Y-94018633D01*
X65183333Y-94018633D02*
X65116667Y-94051966D01*
X65116667Y-94051966D02*
X65083333Y-94085300D01*
X65083333Y-94085300D02*
X65050000Y-94151966D01*
X65050000Y-94151966D02*
X65050000Y-94285300D01*
X65050000Y-94285300D02*
X65083333Y-94351966D01*
X65083333Y-94351966D02*
X65116667Y-94385300D01*
X65116667Y-94385300D02*
X65183333Y-94418633D01*
X65183333Y-94418633D02*
X65316667Y-94418633D01*
X65316667Y-94418633D02*
X65383333Y-94385300D01*
X65383333Y-94385300D02*
X65416667Y-94351966D01*
X65416667Y-94351966D02*
X65450000Y-94285300D01*
X65450000Y-94285300D02*
X65450000Y-94151966D01*
X65450000Y-94151966D02*
X65416667Y-94085300D01*
X65416667Y-94085300D02*
X65383333Y-94051966D01*
X65383333Y-94051966D02*
X65316667Y-94018633D01*
X77053333Y-87828633D02*
X76820000Y-87495300D01*
X76653333Y-87828633D02*
X76653333Y-87128633D01*
X76653333Y-87128633D02*
X76920000Y-87128633D01*
X76920000Y-87128633D02*
X76986667Y-87161966D01*
X76986667Y-87161966D02*
X77020000Y-87195300D01*
X77020000Y-87195300D02*
X77053333Y-87261966D01*
X77053333Y-87261966D02*
X77053333Y-87361966D01*
X77053333Y-87361966D02*
X77020000Y-87428633D01*
X77020000Y-87428633D02*
X76986667Y-87461966D01*
X76986667Y-87461966D02*
X76920000Y-87495300D01*
X76920000Y-87495300D02*
X76653333Y-87495300D01*
X77286667Y-87128633D02*
X77753333Y-87128633D01*
X77753333Y-87128633D02*
X77453333Y-87828633D01*
X72683333Y-87818633D02*
X72450000Y-87485300D01*
X72283333Y-87818633D02*
X72283333Y-87118633D01*
X72283333Y-87118633D02*
X72550000Y-87118633D01*
X72550000Y-87118633D02*
X72616667Y-87151966D01*
X72616667Y-87151966D02*
X72650000Y-87185300D01*
X72650000Y-87185300D02*
X72683333Y-87251966D01*
X72683333Y-87251966D02*
X72683333Y-87351966D01*
X72683333Y-87351966D02*
X72650000Y-87418633D01*
X72650000Y-87418633D02*
X72616667Y-87451966D01*
X72616667Y-87451966D02*
X72550000Y-87485300D01*
X72550000Y-87485300D02*
X72283333Y-87485300D01*
X73283333Y-87118633D02*
X73150000Y-87118633D01*
X73150000Y-87118633D02*
X73083333Y-87151966D01*
X73083333Y-87151966D02*
X73050000Y-87185300D01*
X73050000Y-87185300D02*
X72983333Y-87285300D01*
X72983333Y-87285300D02*
X72950000Y-87418633D01*
X72950000Y-87418633D02*
X72950000Y-87685300D01*
X72950000Y-87685300D02*
X72983333Y-87751966D01*
X72983333Y-87751966D02*
X73016667Y-87785300D01*
X73016667Y-87785300D02*
X73083333Y-87818633D01*
X73083333Y-87818633D02*
X73216667Y-87818633D01*
X73216667Y-87818633D02*
X73283333Y-87785300D01*
X73283333Y-87785300D02*
X73316667Y-87751966D01*
X73316667Y-87751966D02*
X73350000Y-87685300D01*
X73350000Y-87685300D02*
X73350000Y-87518633D01*
X73350000Y-87518633D02*
X73316667Y-87451966D01*
X73316667Y-87451966D02*
X73283333Y-87418633D01*
X73283333Y-87418633D02*
X73216667Y-87385300D01*
X73216667Y-87385300D02*
X73083333Y-87385300D01*
X73083333Y-87385300D02*
X73016667Y-87418633D01*
X73016667Y-87418633D02*
X72983333Y-87451966D01*
X72983333Y-87451966D02*
X72950000Y-87518633D01*
X67583333Y-76218633D02*
X67350000Y-75885300D01*
X67183333Y-76218633D02*
X67183333Y-75518633D01*
X67183333Y-75518633D02*
X67450000Y-75518633D01*
X67450000Y-75518633D02*
X67516667Y-75551966D01*
X67516667Y-75551966D02*
X67550000Y-75585300D01*
X67550000Y-75585300D02*
X67583333Y-75651966D01*
X67583333Y-75651966D02*
X67583333Y-75751966D01*
X67583333Y-75751966D02*
X67550000Y-75818633D01*
X67550000Y-75818633D02*
X67516667Y-75851966D01*
X67516667Y-75851966D02*
X67450000Y-75885300D01*
X67450000Y-75885300D02*
X67183333Y-75885300D01*
X68216667Y-75518633D02*
X67883333Y-75518633D01*
X67883333Y-75518633D02*
X67850000Y-75851966D01*
X67850000Y-75851966D02*
X67883333Y-75818633D01*
X67883333Y-75818633D02*
X67950000Y-75785300D01*
X67950000Y-75785300D02*
X68116667Y-75785300D01*
X68116667Y-75785300D02*
X68183333Y-75818633D01*
X68183333Y-75818633D02*
X68216667Y-75851966D01*
X68216667Y-75851966D02*
X68250000Y-75918633D01*
X68250000Y-75918633D02*
X68250000Y-76085300D01*
X68250000Y-76085300D02*
X68216667Y-76151966D01*
X68216667Y-76151966D02*
X68183333Y-76185300D01*
X68183333Y-76185300D02*
X68116667Y-76218633D01*
X68116667Y-76218633D02*
X67950000Y-76218633D01*
X67950000Y-76218633D02*
X67883333Y-76185300D01*
X67883333Y-76185300D02*
X67850000Y-76151966D01*
X91393333Y-60218633D02*
X91160000Y-59885300D01*
X90993333Y-60218633D02*
X90993333Y-59518633D01*
X90993333Y-59518633D02*
X91260000Y-59518633D01*
X91260000Y-59518633D02*
X91326667Y-59551966D01*
X91326667Y-59551966D02*
X91360000Y-59585300D01*
X91360000Y-59585300D02*
X91393333Y-59651966D01*
X91393333Y-59651966D02*
X91393333Y-59751966D01*
X91393333Y-59751966D02*
X91360000Y-59818633D01*
X91360000Y-59818633D02*
X91326667Y-59851966D01*
X91326667Y-59851966D02*
X91260000Y-59885300D01*
X91260000Y-59885300D02*
X90993333Y-59885300D01*
X91993333Y-59751966D02*
X91993333Y-60218633D01*
X91826667Y-59485300D02*
X91660000Y-59985300D01*
X91660000Y-59985300D02*
X92093333Y-59985300D01*
X91383333Y-62318633D02*
X91150000Y-61985300D01*
X90983333Y-62318633D02*
X90983333Y-61618633D01*
X90983333Y-61618633D02*
X91250000Y-61618633D01*
X91250000Y-61618633D02*
X91316667Y-61651966D01*
X91316667Y-61651966D02*
X91350000Y-61685300D01*
X91350000Y-61685300D02*
X91383333Y-61751966D01*
X91383333Y-61751966D02*
X91383333Y-61851966D01*
X91383333Y-61851966D02*
X91350000Y-61918633D01*
X91350000Y-61918633D02*
X91316667Y-61951966D01*
X91316667Y-61951966D02*
X91250000Y-61985300D01*
X91250000Y-61985300D02*
X90983333Y-61985300D01*
X91616667Y-61618633D02*
X92050000Y-61618633D01*
X92050000Y-61618633D02*
X91816667Y-61885300D01*
X91816667Y-61885300D02*
X91916667Y-61885300D01*
X91916667Y-61885300D02*
X91983333Y-61918633D01*
X91983333Y-61918633D02*
X92016667Y-61951966D01*
X92016667Y-61951966D02*
X92050000Y-62018633D01*
X92050000Y-62018633D02*
X92050000Y-62185300D01*
X92050000Y-62185300D02*
X92016667Y-62251966D01*
X92016667Y-62251966D02*
X91983333Y-62285300D01*
X91983333Y-62285300D02*
X91916667Y-62318633D01*
X91916667Y-62318633D02*
X91716667Y-62318633D01*
X91716667Y-62318633D02*
X91650000Y-62285300D01*
X91650000Y-62285300D02*
X91616667Y-62251966D01*
X76983333Y-90318633D02*
X76983333Y-89618633D01*
X76983333Y-89618633D02*
X77150000Y-89618633D01*
X77150000Y-89618633D02*
X77250000Y-89651966D01*
X77250000Y-89651966D02*
X77316667Y-89718633D01*
X77316667Y-89718633D02*
X77350000Y-89785300D01*
X77350000Y-89785300D02*
X77383333Y-89918633D01*
X77383333Y-89918633D02*
X77383333Y-90018633D01*
X77383333Y-90018633D02*
X77350000Y-90151966D01*
X77350000Y-90151966D02*
X77316667Y-90218633D01*
X77316667Y-90218633D02*
X77250000Y-90285300D01*
X77250000Y-90285300D02*
X77150000Y-90318633D01*
X77150000Y-90318633D02*
X76983333Y-90318633D01*
X77983333Y-89851966D02*
X77983333Y-90318633D01*
X77816667Y-89585300D02*
X77650000Y-90085300D01*
X77650000Y-90085300D02*
X78083333Y-90085300D01*
X71983333Y-90318633D02*
X71983333Y-89618633D01*
X71983333Y-89618633D02*
X72150000Y-89618633D01*
X72150000Y-89618633D02*
X72250000Y-89651966D01*
X72250000Y-89651966D02*
X72316667Y-89718633D01*
X72316667Y-89718633D02*
X72350000Y-89785300D01*
X72350000Y-89785300D02*
X72383333Y-89918633D01*
X72383333Y-89918633D02*
X72383333Y-90018633D01*
X72383333Y-90018633D02*
X72350000Y-90151966D01*
X72350000Y-90151966D02*
X72316667Y-90218633D01*
X72316667Y-90218633D02*
X72250000Y-90285300D01*
X72250000Y-90285300D02*
X72150000Y-90318633D01*
X72150000Y-90318633D02*
X71983333Y-90318633D01*
X72616667Y-89618633D02*
X73050000Y-89618633D01*
X73050000Y-89618633D02*
X72816667Y-89885300D01*
X72816667Y-89885300D02*
X72916667Y-89885300D01*
X72916667Y-89885300D02*
X72983333Y-89918633D01*
X72983333Y-89918633D02*
X73016667Y-89951966D01*
X73016667Y-89951966D02*
X73050000Y-90018633D01*
X73050000Y-90018633D02*
X73050000Y-90185300D01*
X73050000Y-90185300D02*
X73016667Y-90251966D01*
X73016667Y-90251966D02*
X72983333Y-90285300D01*
X72983333Y-90285300D02*
X72916667Y-90318633D01*
X72916667Y-90318633D02*
X72716667Y-90318633D01*
X72716667Y-90318633D02*
X72650000Y-90285300D01*
X72650000Y-90285300D02*
X72616667Y-90251966D01*
X86183333Y-59318633D02*
X86183333Y-58618633D01*
X86183333Y-58618633D02*
X86350000Y-58618633D01*
X86350000Y-58618633D02*
X86450000Y-58651966D01*
X86450000Y-58651966D02*
X86516667Y-58718633D01*
X86516667Y-58718633D02*
X86550000Y-58785300D01*
X86550000Y-58785300D02*
X86583333Y-58918633D01*
X86583333Y-58918633D02*
X86583333Y-59018633D01*
X86583333Y-59018633D02*
X86550000Y-59151966D01*
X86550000Y-59151966D02*
X86516667Y-59218633D01*
X86516667Y-59218633D02*
X86450000Y-59285300D01*
X86450000Y-59285300D02*
X86350000Y-59318633D01*
X86350000Y-59318633D02*
X86183333Y-59318633D01*
X86850000Y-58685300D02*
X86883333Y-58651966D01*
X86883333Y-58651966D02*
X86950000Y-58618633D01*
X86950000Y-58618633D02*
X87116667Y-58618633D01*
X87116667Y-58618633D02*
X87183333Y-58651966D01*
X87183333Y-58651966D02*
X87216667Y-58685300D01*
X87216667Y-58685300D02*
X87250000Y-58751966D01*
X87250000Y-58751966D02*
X87250000Y-58818633D01*
X87250000Y-58818633D02*
X87216667Y-58918633D01*
X87216667Y-58918633D02*
X86816667Y-59318633D01*
X86816667Y-59318633D02*
X87250000Y-59318633D01*
X86183333Y-61318633D02*
X86183333Y-60618633D01*
X86183333Y-60618633D02*
X86350000Y-60618633D01*
X86350000Y-60618633D02*
X86450000Y-60651966D01*
X86450000Y-60651966D02*
X86516667Y-60718633D01*
X86516667Y-60718633D02*
X86550000Y-60785300D01*
X86550000Y-60785300D02*
X86583333Y-60918633D01*
X86583333Y-60918633D02*
X86583333Y-61018633D01*
X86583333Y-61018633D02*
X86550000Y-61151966D01*
X86550000Y-61151966D02*
X86516667Y-61218633D01*
X86516667Y-61218633D02*
X86450000Y-61285300D01*
X86450000Y-61285300D02*
X86350000Y-61318633D01*
X86350000Y-61318633D02*
X86183333Y-61318633D01*
X87250000Y-61318633D02*
X86850000Y-61318633D01*
X87050000Y-61318633D02*
X87050000Y-60618633D01*
X87050000Y-60618633D02*
X86983333Y-60718633D01*
X86983333Y-60718633D02*
X86916667Y-60785300D01*
X86916667Y-60785300D02*
X86850000Y-60818633D01*
X84569999Y-56251966D02*
X84536666Y-56285300D01*
X84536666Y-56285300D02*
X84436666Y-56318633D01*
X84436666Y-56318633D02*
X84369999Y-56318633D01*
X84369999Y-56318633D02*
X84269999Y-56285300D01*
X84269999Y-56285300D02*
X84203333Y-56218633D01*
X84203333Y-56218633D02*
X84169999Y-56151966D01*
X84169999Y-56151966D02*
X84136666Y-56018633D01*
X84136666Y-56018633D02*
X84136666Y-55918633D01*
X84136666Y-55918633D02*
X84169999Y-55785300D01*
X84169999Y-55785300D02*
X84203333Y-55718633D01*
X84203333Y-55718633D02*
X84269999Y-55651966D01*
X84269999Y-55651966D02*
X84369999Y-55618633D01*
X84369999Y-55618633D02*
X84436666Y-55618633D01*
X84436666Y-55618633D02*
X84536666Y-55651966D01*
X84536666Y-55651966D02*
X84569999Y-55685300D01*
X85236666Y-56318633D02*
X84836666Y-56318633D01*
X85036666Y-56318633D02*
X85036666Y-55618633D01*
X85036666Y-55618633D02*
X84969999Y-55718633D01*
X84969999Y-55718633D02*
X84903333Y-55785300D01*
X84903333Y-55785300D02*
X84836666Y-55818633D01*
X85870000Y-55618633D02*
X85536666Y-55618633D01*
X85536666Y-55618633D02*
X85503333Y-55951966D01*
X85503333Y-55951966D02*
X85536666Y-55918633D01*
X85536666Y-55918633D02*
X85603333Y-55885300D01*
X85603333Y-55885300D02*
X85770000Y-55885300D01*
X85770000Y-55885300D02*
X85836666Y-55918633D01*
X85836666Y-55918633D02*
X85870000Y-55951966D01*
X85870000Y-55951966D02*
X85903333Y-56018633D01*
X85903333Y-56018633D02*
X85903333Y-56185300D01*
X85903333Y-56185300D02*
X85870000Y-56251966D01*
X85870000Y-56251966D02*
X85836666Y-56285300D01*
X85836666Y-56285300D02*
X85770000Y-56318633D01*
X85770000Y-56318633D02*
X85603333Y-56318633D01*
X85603333Y-56318633D02*
X85536666Y-56285300D01*
X85536666Y-56285300D02*
X85503333Y-56251966D01*
X57349999Y-66851966D02*
X57316666Y-66885300D01*
X57316666Y-66885300D02*
X57216666Y-66918633D01*
X57216666Y-66918633D02*
X57149999Y-66918633D01*
X57149999Y-66918633D02*
X57049999Y-66885300D01*
X57049999Y-66885300D02*
X56983333Y-66818633D01*
X56983333Y-66818633D02*
X56949999Y-66751966D01*
X56949999Y-66751966D02*
X56916666Y-66618633D01*
X56916666Y-66618633D02*
X56916666Y-66518633D01*
X56916666Y-66518633D02*
X56949999Y-66385300D01*
X56949999Y-66385300D02*
X56983333Y-66318633D01*
X56983333Y-66318633D02*
X57049999Y-66251966D01*
X57049999Y-66251966D02*
X57149999Y-66218633D01*
X57149999Y-66218633D02*
X57216666Y-66218633D01*
X57216666Y-66218633D02*
X57316666Y-66251966D01*
X57316666Y-66251966D02*
X57349999Y-66285300D01*
X58016666Y-66918633D02*
X57616666Y-66918633D01*
X57816666Y-66918633D02*
X57816666Y-66218633D01*
X57816666Y-66218633D02*
X57749999Y-66318633D01*
X57749999Y-66318633D02*
X57683333Y-66385300D01*
X57683333Y-66385300D02*
X57616666Y-66418633D01*
X58616666Y-66451966D02*
X58616666Y-66918633D01*
X58450000Y-66185300D02*
X58283333Y-66685300D01*
X58283333Y-66685300D02*
X58716666Y-66685300D01*
X83929999Y-94351966D02*
X83896666Y-94385300D01*
X83896666Y-94385300D02*
X83796666Y-94418633D01*
X83796666Y-94418633D02*
X83729999Y-94418633D01*
X83729999Y-94418633D02*
X83629999Y-94385300D01*
X83629999Y-94385300D02*
X83563333Y-94318633D01*
X83563333Y-94318633D02*
X83529999Y-94251966D01*
X83529999Y-94251966D02*
X83496666Y-94118633D01*
X83496666Y-94118633D02*
X83496666Y-94018633D01*
X83496666Y-94018633D02*
X83529999Y-93885300D01*
X83529999Y-93885300D02*
X83563333Y-93818633D01*
X83563333Y-93818633D02*
X83629999Y-93751966D01*
X83629999Y-93751966D02*
X83729999Y-93718633D01*
X83729999Y-93718633D02*
X83796666Y-93718633D01*
X83796666Y-93718633D02*
X83896666Y-93751966D01*
X83896666Y-93751966D02*
X83929999Y-93785300D01*
X84596666Y-94418633D02*
X84196666Y-94418633D01*
X84396666Y-94418633D02*
X84396666Y-93718633D01*
X84396666Y-93718633D02*
X84329999Y-93818633D01*
X84329999Y-93818633D02*
X84263333Y-93885300D01*
X84263333Y-93885300D02*
X84196666Y-93918633D01*
X84830000Y-93718633D02*
X85263333Y-93718633D01*
X85263333Y-93718633D02*
X85030000Y-93985300D01*
X85030000Y-93985300D02*
X85130000Y-93985300D01*
X85130000Y-93985300D02*
X85196666Y-94018633D01*
X85196666Y-94018633D02*
X85230000Y-94051966D01*
X85230000Y-94051966D02*
X85263333Y-94118633D01*
X85263333Y-94118633D02*
X85263333Y-94285300D01*
X85263333Y-94285300D02*
X85230000Y-94351966D01*
X85230000Y-94351966D02*
X85196666Y-94385300D01*
X85196666Y-94385300D02*
X85130000Y-94418633D01*
X85130000Y-94418633D02*
X84930000Y-94418633D01*
X84930000Y-94418633D02*
X84863333Y-94385300D01*
X84863333Y-94385300D02*
X84830000Y-94351966D01*
X66449999Y-94351966D02*
X66416666Y-94385300D01*
X66416666Y-94385300D02*
X66316666Y-94418633D01*
X66316666Y-94418633D02*
X66249999Y-94418633D01*
X66249999Y-94418633D02*
X66149999Y-94385300D01*
X66149999Y-94385300D02*
X66083333Y-94318633D01*
X66083333Y-94318633D02*
X66049999Y-94251966D01*
X66049999Y-94251966D02*
X66016666Y-94118633D01*
X66016666Y-94118633D02*
X66016666Y-94018633D01*
X66016666Y-94018633D02*
X66049999Y-93885300D01*
X66049999Y-93885300D02*
X66083333Y-93818633D01*
X66083333Y-93818633D02*
X66149999Y-93751966D01*
X66149999Y-93751966D02*
X66249999Y-93718633D01*
X66249999Y-93718633D02*
X66316666Y-93718633D01*
X66316666Y-93718633D02*
X66416666Y-93751966D01*
X66416666Y-93751966D02*
X66449999Y-93785300D01*
X67116666Y-94418633D02*
X66716666Y-94418633D01*
X66916666Y-94418633D02*
X66916666Y-93718633D01*
X66916666Y-93718633D02*
X66849999Y-93818633D01*
X66849999Y-93818633D02*
X66783333Y-93885300D01*
X66783333Y-93885300D02*
X66716666Y-93918633D01*
X67383333Y-93785300D02*
X67416666Y-93751966D01*
X67416666Y-93751966D02*
X67483333Y-93718633D01*
X67483333Y-93718633D02*
X67650000Y-93718633D01*
X67650000Y-93718633D02*
X67716666Y-93751966D01*
X67716666Y-93751966D02*
X67750000Y-93785300D01*
X67750000Y-93785300D02*
X67783333Y-93851966D01*
X67783333Y-93851966D02*
X67783333Y-93918633D01*
X67783333Y-93918633D02*
X67750000Y-94018633D01*
X67750000Y-94018633D02*
X67350000Y-94418633D01*
X67350000Y-94418633D02*
X67783333Y-94418633D01*
X78163333Y-83711966D02*
X78130000Y-83745300D01*
X78130000Y-83745300D02*
X78030000Y-83778633D01*
X78030000Y-83778633D02*
X77963333Y-83778633D01*
X77963333Y-83778633D02*
X77863333Y-83745300D01*
X77863333Y-83745300D02*
X77796667Y-83678633D01*
X77796667Y-83678633D02*
X77763333Y-83611966D01*
X77763333Y-83611966D02*
X77730000Y-83478633D01*
X77730000Y-83478633D02*
X77730000Y-83378633D01*
X77730000Y-83378633D02*
X77763333Y-83245300D01*
X77763333Y-83245300D02*
X77796667Y-83178633D01*
X77796667Y-83178633D02*
X77863333Y-83111966D01*
X77863333Y-83111966D02*
X77963333Y-83078633D01*
X77963333Y-83078633D02*
X78030000Y-83078633D01*
X78030000Y-83078633D02*
X78130000Y-83111966D01*
X78130000Y-83111966D02*
X78163333Y-83145300D01*
X78496667Y-83778633D02*
X78630000Y-83778633D01*
X78630000Y-83778633D02*
X78696667Y-83745300D01*
X78696667Y-83745300D02*
X78730000Y-83711966D01*
X78730000Y-83711966D02*
X78796667Y-83611966D01*
X78796667Y-83611966D02*
X78830000Y-83478633D01*
X78830000Y-83478633D02*
X78830000Y-83211966D01*
X78830000Y-83211966D02*
X78796667Y-83145300D01*
X78796667Y-83145300D02*
X78763333Y-83111966D01*
X78763333Y-83111966D02*
X78696667Y-83078633D01*
X78696667Y-83078633D02*
X78563333Y-83078633D01*
X78563333Y-83078633D02*
X78496667Y-83111966D01*
X78496667Y-83111966D02*
X78463333Y-83145300D01*
X78463333Y-83145300D02*
X78430000Y-83211966D01*
X78430000Y-83211966D02*
X78430000Y-83378633D01*
X78430000Y-83378633D02*
X78463333Y-83445300D01*
X78463333Y-83445300D02*
X78496667Y-83478633D01*
X78496667Y-83478633D02*
X78563333Y-83511966D01*
X78563333Y-83511966D02*
X78696667Y-83511966D01*
X78696667Y-83511966D02*
X78763333Y-83478633D01*
X78763333Y-83478633D02*
X78796667Y-83445300D01*
X78796667Y-83445300D02*
X78830000Y-83378633D01*
X64583333Y-77751966D02*
X64550000Y-77785300D01*
X64550000Y-77785300D02*
X64450000Y-77818633D01*
X64450000Y-77818633D02*
X64383333Y-77818633D01*
X64383333Y-77818633D02*
X64283333Y-77785300D01*
X64283333Y-77785300D02*
X64216667Y-77718633D01*
X64216667Y-77718633D02*
X64183333Y-77651966D01*
X64183333Y-77651966D02*
X64150000Y-77518633D01*
X64150000Y-77518633D02*
X64150000Y-77418633D01*
X64150000Y-77418633D02*
X64183333Y-77285300D01*
X64183333Y-77285300D02*
X64216667Y-77218633D01*
X64216667Y-77218633D02*
X64283333Y-77151966D01*
X64283333Y-77151966D02*
X64383333Y-77118633D01*
X64383333Y-77118633D02*
X64450000Y-77118633D01*
X64450000Y-77118633D02*
X64550000Y-77151966D01*
X64550000Y-77151966D02*
X64583333Y-77185300D01*
X64983333Y-77418633D02*
X64916667Y-77385300D01*
X64916667Y-77385300D02*
X64883333Y-77351966D01*
X64883333Y-77351966D02*
X64850000Y-77285300D01*
X64850000Y-77285300D02*
X64850000Y-77251966D01*
X64850000Y-77251966D02*
X64883333Y-77185300D01*
X64883333Y-77185300D02*
X64916667Y-77151966D01*
X64916667Y-77151966D02*
X64983333Y-77118633D01*
X64983333Y-77118633D02*
X65116667Y-77118633D01*
X65116667Y-77118633D02*
X65183333Y-77151966D01*
X65183333Y-77151966D02*
X65216667Y-77185300D01*
X65216667Y-77185300D02*
X65250000Y-77251966D01*
X65250000Y-77251966D02*
X65250000Y-77285300D01*
X65250000Y-77285300D02*
X65216667Y-77351966D01*
X65216667Y-77351966D02*
X65183333Y-77385300D01*
X65183333Y-77385300D02*
X65116667Y-77418633D01*
X65116667Y-77418633D02*
X64983333Y-77418633D01*
X64983333Y-77418633D02*
X64916667Y-77451966D01*
X64916667Y-77451966D02*
X64883333Y-77485300D01*
X64883333Y-77485300D02*
X64850000Y-77551966D01*
X64850000Y-77551966D02*
X64850000Y-77685300D01*
X64850000Y-77685300D02*
X64883333Y-77751966D01*
X64883333Y-77751966D02*
X64916667Y-77785300D01*
X64916667Y-77785300D02*
X64983333Y-77818633D01*
X64983333Y-77818633D02*
X65116667Y-77818633D01*
X65116667Y-77818633D02*
X65183333Y-77785300D01*
X65183333Y-77785300D02*
X65216667Y-77751966D01*
X65216667Y-77751966D02*
X65250000Y-77685300D01*
X65250000Y-77685300D02*
X65250000Y-77551966D01*
X65250000Y-77551966D02*
X65216667Y-77485300D01*
X65216667Y-77485300D02*
X65183333Y-77451966D01*
X65183333Y-77451966D02*
X65116667Y-77418633D01*
X71503333Y-83711966D02*
X71470000Y-83745300D01*
X71470000Y-83745300D02*
X71370000Y-83778633D01*
X71370000Y-83778633D02*
X71303333Y-83778633D01*
X71303333Y-83778633D02*
X71203333Y-83745300D01*
X71203333Y-83745300D02*
X71136667Y-83678633D01*
X71136667Y-83678633D02*
X71103333Y-83611966D01*
X71103333Y-83611966D02*
X71070000Y-83478633D01*
X71070000Y-83478633D02*
X71070000Y-83378633D01*
X71070000Y-83378633D02*
X71103333Y-83245300D01*
X71103333Y-83245300D02*
X71136667Y-83178633D01*
X71136667Y-83178633D02*
X71203333Y-83111966D01*
X71203333Y-83111966D02*
X71303333Y-83078633D01*
X71303333Y-83078633D02*
X71370000Y-83078633D01*
X71370000Y-83078633D02*
X71470000Y-83111966D01*
X71470000Y-83111966D02*
X71503333Y-83145300D01*
X71736667Y-83078633D02*
X72203333Y-83078633D01*
X72203333Y-83078633D02*
X71903333Y-83778633D01*
X66151966Y-75016666D02*
X66185300Y-75049999D01*
X66185300Y-75049999D02*
X66218633Y-75149999D01*
X66218633Y-75149999D02*
X66218633Y-75216666D01*
X66218633Y-75216666D02*
X66185300Y-75316666D01*
X66185300Y-75316666D02*
X66118633Y-75383333D01*
X66118633Y-75383333D02*
X66051966Y-75416666D01*
X66051966Y-75416666D02*
X65918633Y-75449999D01*
X65918633Y-75449999D02*
X65818633Y-75449999D01*
X65818633Y-75449999D02*
X65685300Y-75416666D01*
X65685300Y-75416666D02*
X65618633Y-75383333D01*
X65618633Y-75383333D02*
X65551966Y-75316666D01*
X65551966Y-75316666D02*
X65518633Y-75216666D01*
X65518633Y-75216666D02*
X65518633Y-75149999D01*
X65518633Y-75149999D02*
X65551966Y-75049999D01*
X65551966Y-75049999D02*
X65585300Y-75016666D01*
X65518633Y-74416666D02*
X65518633Y-74549999D01*
X65518633Y-74549999D02*
X65551966Y-74616666D01*
X65551966Y-74616666D02*
X65585300Y-74649999D01*
X65585300Y-74649999D02*
X65685300Y-74716666D01*
X65685300Y-74716666D02*
X65818633Y-74749999D01*
X65818633Y-74749999D02*
X66085300Y-74749999D01*
X66085300Y-74749999D02*
X66151966Y-74716666D01*
X66151966Y-74716666D02*
X66185300Y-74683333D01*
X66185300Y-74683333D02*
X66218633Y-74616666D01*
X66218633Y-74616666D02*
X66218633Y-74483333D01*
X66218633Y-74483333D02*
X66185300Y-74416666D01*
X66185300Y-74416666D02*
X66151966Y-74383333D01*
X66151966Y-74383333D02*
X66085300Y-74349999D01*
X66085300Y-74349999D02*
X65918633Y-74349999D01*
X65918633Y-74349999D02*
X65851966Y-74383333D01*
X65851966Y-74383333D02*
X65818633Y-74416666D01*
X65818633Y-74416666D02*
X65785300Y-74483333D01*
X65785300Y-74483333D02*
X65785300Y-74616666D01*
X65785300Y-74616666D02*
X65818633Y-74683333D01*
X65818633Y-74683333D02*
X65851966Y-74716666D01*
X65851966Y-74716666D02*
X65918633Y-74749999D01*
X66783333Y-70651966D02*
X66750000Y-70685300D01*
X66750000Y-70685300D02*
X66650000Y-70718633D01*
X66650000Y-70718633D02*
X66583333Y-70718633D01*
X66583333Y-70718633D02*
X66483333Y-70685300D01*
X66483333Y-70685300D02*
X66416667Y-70618633D01*
X66416667Y-70618633D02*
X66383333Y-70551966D01*
X66383333Y-70551966D02*
X66350000Y-70418633D01*
X66350000Y-70418633D02*
X66350000Y-70318633D01*
X66350000Y-70318633D02*
X66383333Y-70185300D01*
X66383333Y-70185300D02*
X66416667Y-70118633D01*
X66416667Y-70118633D02*
X66483333Y-70051966D01*
X66483333Y-70051966D02*
X66583333Y-70018633D01*
X66583333Y-70018633D02*
X66650000Y-70018633D01*
X66650000Y-70018633D02*
X66750000Y-70051966D01*
X66750000Y-70051966D02*
X66783333Y-70085300D01*
X67416667Y-70018633D02*
X67083333Y-70018633D01*
X67083333Y-70018633D02*
X67050000Y-70351966D01*
X67050000Y-70351966D02*
X67083333Y-70318633D01*
X67083333Y-70318633D02*
X67150000Y-70285300D01*
X67150000Y-70285300D02*
X67316667Y-70285300D01*
X67316667Y-70285300D02*
X67383333Y-70318633D01*
X67383333Y-70318633D02*
X67416667Y-70351966D01*
X67416667Y-70351966D02*
X67450000Y-70418633D01*
X67450000Y-70418633D02*
X67450000Y-70585300D01*
X67450000Y-70585300D02*
X67416667Y-70651966D01*
X67416667Y-70651966D02*
X67383333Y-70685300D01*
X67383333Y-70685300D02*
X67316667Y-70718633D01*
X67316667Y-70718633D02*
X67150000Y-70718633D01*
X67150000Y-70718633D02*
X67083333Y-70685300D01*
X67083333Y-70685300D02*
X67050000Y-70651966D01*
X66583333Y-72951966D02*
X66550000Y-72985300D01*
X66550000Y-72985300D02*
X66450000Y-73018633D01*
X66450000Y-73018633D02*
X66383333Y-73018633D01*
X66383333Y-73018633D02*
X66283333Y-72985300D01*
X66283333Y-72985300D02*
X66216667Y-72918633D01*
X66216667Y-72918633D02*
X66183333Y-72851966D01*
X66183333Y-72851966D02*
X66150000Y-72718633D01*
X66150000Y-72718633D02*
X66150000Y-72618633D01*
X66150000Y-72618633D02*
X66183333Y-72485300D01*
X66183333Y-72485300D02*
X66216667Y-72418633D01*
X66216667Y-72418633D02*
X66283333Y-72351966D01*
X66283333Y-72351966D02*
X66383333Y-72318633D01*
X66383333Y-72318633D02*
X66450000Y-72318633D01*
X66450000Y-72318633D02*
X66550000Y-72351966D01*
X66550000Y-72351966D02*
X66583333Y-72385300D01*
X67183333Y-72551966D02*
X67183333Y-73018633D01*
X67016667Y-72285300D02*
X66850000Y-72785300D01*
X66850000Y-72785300D02*
X67283333Y-72785300D01*
X67483333Y-78651966D02*
X67450000Y-78685300D01*
X67450000Y-78685300D02*
X67350000Y-78718633D01*
X67350000Y-78718633D02*
X67283333Y-78718633D01*
X67283333Y-78718633D02*
X67183333Y-78685300D01*
X67183333Y-78685300D02*
X67116667Y-78618633D01*
X67116667Y-78618633D02*
X67083333Y-78551966D01*
X67083333Y-78551966D02*
X67050000Y-78418633D01*
X67050000Y-78418633D02*
X67050000Y-78318633D01*
X67050000Y-78318633D02*
X67083333Y-78185300D01*
X67083333Y-78185300D02*
X67116667Y-78118633D01*
X67116667Y-78118633D02*
X67183333Y-78051966D01*
X67183333Y-78051966D02*
X67283333Y-78018633D01*
X67283333Y-78018633D02*
X67350000Y-78018633D01*
X67350000Y-78018633D02*
X67450000Y-78051966D01*
X67450000Y-78051966D02*
X67483333Y-78085300D01*
X67716667Y-78018633D02*
X68150000Y-78018633D01*
X68150000Y-78018633D02*
X67916667Y-78285300D01*
X67916667Y-78285300D02*
X68016667Y-78285300D01*
X68016667Y-78285300D02*
X68083333Y-78318633D01*
X68083333Y-78318633D02*
X68116667Y-78351966D01*
X68116667Y-78351966D02*
X68150000Y-78418633D01*
X68150000Y-78418633D02*
X68150000Y-78585300D01*
X68150000Y-78585300D02*
X68116667Y-78651966D01*
X68116667Y-78651966D02*
X68083333Y-78685300D01*
X68083333Y-78685300D02*
X68016667Y-78718633D01*
X68016667Y-78718633D02*
X67816667Y-78718633D01*
X67816667Y-78718633D02*
X67750000Y-78685300D01*
X67750000Y-78685300D02*
X67716667Y-78651966D01*
X85723333Y-65251966D02*
X85690000Y-65285300D01*
X85690000Y-65285300D02*
X85590000Y-65318633D01*
X85590000Y-65318633D02*
X85523333Y-65318633D01*
X85523333Y-65318633D02*
X85423333Y-65285300D01*
X85423333Y-65285300D02*
X85356667Y-65218633D01*
X85356667Y-65218633D02*
X85323333Y-65151966D01*
X85323333Y-65151966D02*
X85290000Y-65018633D01*
X85290000Y-65018633D02*
X85290000Y-64918633D01*
X85290000Y-64918633D02*
X85323333Y-64785300D01*
X85323333Y-64785300D02*
X85356667Y-64718633D01*
X85356667Y-64718633D02*
X85423333Y-64651966D01*
X85423333Y-64651966D02*
X85523333Y-64618633D01*
X85523333Y-64618633D02*
X85590000Y-64618633D01*
X85590000Y-64618633D02*
X85690000Y-64651966D01*
X85690000Y-64651966D02*
X85723333Y-64685300D01*
X85990000Y-64685300D02*
X86023333Y-64651966D01*
X86023333Y-64651966D02*
X86090000Y-64618633D01*
X86090000Y-64618633D02*
X86256667Y-64618633D01*
X86256667Y-64618633D02*
X86323333Y-64651966D01*
X86323333Y-64651966D02*
X86356667Y-64685300D01*
X86356667Y-64685300D02*
X86390000Y-64751966D01*
X86390000Y-64751966D02*
X86390000Y-64818633D01*
X86390000Y-64818633D02*
X86356667Y-64918633D01*
X86356667Y-64918633D02*
X85956667Y-65318633D01*
X85956667Y-65318633D02*
X86390000Y-65318633D01*
X92083333Y-66651966D02*
X92050000Y-66685300D01*
X92050000Y-66685300D02*
X91950000Y-66718633D01*
X91950000Y-66718633D02*
X91883333Y-66718633D01*
X91883333Y-66718633D02*
X91783333Y-66685300D01*
X91783333Y-66685300D02*
X91716667Y-66618633D01*
X91716667Y-66618633D02*
X91683333Y-66551966D01*
X91683333Y-66551966D02*
X91650000Y-66418633D01*
X91650000Y-66418633D02*
X91650000Y-66318633D01*
X91650000Y-66318633D02*
X91683333Y-66185300D01*
X91683333Y-66185300D02*
X91716667Y-66118633D01*
X91716667Y-66118633D02*
X91783333Y-66051966D01*
X91783333Y-66051966D02*
X91883333Y-66018633D01*
X91883333Y-66018633D02*
X91950000Y-66018633D01*
X91950000Y-66018633D02*
X92050000Y-66051966D01*
X92050000Y-66051966D02*
X92083333Y-66085300D01*
X92750000Y-66718633D02*
X92350000Y-66718633D01*
X92550000Y-66718633D02*
X92550000Y-66018633D01*
X92550000Y-66018633D02*
X92483333Y-66118633D01*
X92483333Y-66118633D02*
X92416667Y-66185300D01*
X92416667Y-66185300D02*
X92350000Y-66218633D01*
X80266666Y-54618633D02*
X80266666Y-55118633D01*
X80266666Y-55118633D02*
X80233333Y-55218633D01*
X80233333Y-55218633D02*
X80166666Y-55285300D01*
X80166666Y-55285300D02*
X80066666Y-55318633D01*
X80066666Y-55318633D02*
X80000000Y-55318633D01*
X80566666Y-54685300D02*
X80599999Y-54651966D01*
X80599999Y-54651966D02*
X80666666Y-54618633D01*
X80666666Y-54618633D02*
X80833333Y-54618633D01*
X80833333Y-54618633D02*
X80899999Y-54651966D01*
X80899999Y-54651966D02*
X80933333Y-54685300D01*
X80933333Y-54685300D02*
X80966666Y-54751966D01*
X80966666Y-54751966D02*
X80966666Y-54818633D01*
X80966666Y-54818633D02*
X80933333Y-54918633D01*
X80933333Y-54918633D02*
X80533333Y-55318633D01*
X80533333Y-55318633D02*
X80966666Y-55318633D01*
%TO.C,SW1*%
D11*
X95800000Y-67200000D02*
X95800000Y-66000000D01*
X98100000Y-67200000D02*
X95800000Y-67200000D01*
X95800000Y-63500000D02*
X95800000Y-64200000D01*
X95800000Y-61000000D02*
X95800000Y-61700000D01*
X95800000Y-59200000D02*
X95800000Y-58000000D01*
X95800000Y-58000000D02*
X98100000Y-58000000D01*
%TO.C,C16*%
X71327164Y-67425000D02*
X71542836Y-67425000D01*
X71327164Y-68145000D02*
X71542836Y-68145000D01*
%TO.C,C11*%
X82660000Y-71707836D02*
X82660000Y-71492164D01*
X81940000Y-71707836D02*
X81940000Y-71492164D01*
%TO.C,C10*%
X83140000Y-71492164D02*
X83140000Y-71707836D01*
X83860000Y-71492164D02*
X83860000Y-71707836D01*
%TO.C,U3*%
X69250000Y-70840000D02*
X68910000Y-70370000D01*
X69590000Y-70370000D01*
X69250000Y-70840000D01*
G36*
X69250000Y-70840000D02*
G01*
X68910000Y-70370000D01*
X69590000Y-70370000D01*
X69250000Y-70840000D01*
G37*
X80110000Y-80110000D02*
X79160000Y-80110000D01*
X80110000Y-79160000D02*
X80110000Y-80110000D01*
X80110000Y-69890000D02*
X80110000Y-70840000D01*
X79160000Y-69890000D02*
X80110000Y-69890000D01*
X70840000Y-80110000D02*
X69890000Y-80110000D01*
X69890000Y-80110000D02*
X69890000Y-79160000D01*
X69890000Y-70840000D02*
X69890000Y-69890000D01*
X69890000Y-69890000D02*
X70840000Y-69890000D01*
%TO.C,SW5*%
X62790000Y-52540000D02*
X62790000Y-52460000D01*
X63890000Y-54060000D02*
X62790000Y-54060000D01*
X67210000Y-52540000D02*
X67210000Y-52460000D01*
X67210000Y-54060000D02*
X66110000Y-54060000D01*
%TO.C,R1*%
X90580000Y-75053641D02*
X90580000Y-74746359D01*
X89820000Y-75053641D02*
X89820000Y-74746359D01*
%TO.C,U2*%
X85550000Y-71490000D02*
X85310000Y-71160000D01*
X85790000Y-71160000D01*
X85550000Y-71490000D01*
G36*
X85550000Y-71490000D02*
G01*
X85310000Y-71160000D01*
X85790000Y-71160000D01*
X85550000Y-71490000D01*
G37*
X87910000Y-74560000D02*
X86090000Y-74560000D01*
X87910000Y-74510000D02*
X87910000Y-74560000D01*
X87910000Y-71440000D02*
X87910000Y-71490000D01*
X86090000Y-74560000D02*
X86090000Y-74510000D01*
X86090000Y-71490000D02*
X86090000Y-71440000D01*
X86090000Y-71440000D02*
X87910000Y-71440000D01*
%TO.C,J1*%
X99900000Y-77700000D02*
X99900000Y-68300000D01*
X98000000Y-77700000D02*
X99900000Y-77700000D01*
X98000000Y-68300000D02*
X99900000Y-68300000D01*
X94100000Y-77700000D02*
X96100000Y-77700000D01*
X94100000Y-68300000D02*
X96100000Y-68300000D01*
%TO.C,R2*%
X90580000Y-70853641D02*
X90580000Y-70546359D01*
X89820000Y-70853641D02*
X89820000Y-70546359D01*
%TO.C,Y1*%
X61440000Y-76700000D02*
X61440000Y-70700000D01*
X65160000Y-76700000D02*
X65160000Y-70700000D01*
%TO.C,U1*%
X90510000Y-66060000D02*
X88690000Y-66060000D01*
X90510000Y-66010000D02*
X90510000Y-66060000D01*
X90510000Y-62940000D02*
X90510000Y-62990000D01*
X88690000Y-66060000D02*
X88690000Y-66010000D01*
X88690000Y-64890000D02*
X88690000Y-64110000D01*
X88690000Y-62990000D02*
X88690000Y-62940000D01*
X88690000Y-62940000D02*
X90510000Y-62940000D01*
X91290000Y-66340000D02*
X90810000Y-66340000D01*
X91050000Y-66010000D01*
X91290000Y-66340000D01*
G36*
X91290000Y-66340000D02*
G01*
X90810000Y-66340000D01*
X91050000Y-66010000D01*
X91290000Y-66340000D01*
G37*
%TO.C,SW4*%
X87210000Y-54060000D02*
X86110000Y-54060000D01*
X87210000Y-52540000D02*
X87210000Y-52460000D01*
X83890000Y-54060000D02*
X82790000Y-54060000D01*
X82790000Y-52540000D02*
X82790000Y-52460000D01*
%TO.C,SW3*%
X80290000Y-95940000D02*
X81390000Y-95940000D01*
X80290000Y-97460000D02*
X80290000Y-97540000D01*
X83610000Y-95940000D02*
X84710000Y-95940000D01*
X84710000Y-97460000D02*
X84710000Y-97540000D01*
%TO.C,SW2*%
X62790000Y-95940000D02*
X63890000Y-95940000D01*
X62790000Y-97460000D02*
X62790000Y-97540000D01*
X66110000Y-95940000D02*
X67210000Y-95940000D01*
X67210000Y-97460000D02*
X67210000Y-97540000D01*
%TO.C,R12*%
X64756359Y-54620000D02*
X65063641Y-54620000D01*
X64756359Y-55380000D02*
X65063641Y-55380000D01*
%TO.C,R11*%
X80753641Y-95380000D02*
X80446359Y-95380000D01*
X80753641Y-94620000D02*
X80446359Y-94620000D01*
%TO.C,R10*%
X63253641Y-95380000D02*
X62946359Y-95380000D01*
X63253641Y-94620000D02*
X62946359Y-94620000D01*
%TO.C,R9*%
X82663641Y-95380000D02*
X82356359Y-95380000D01*
X82663641Y-94620000D02*
X82356359Y-94620000D01*
%TO.C,R8*%
X65153641Y-95380000D02*
X64846359Y-95380000D01*
X65153641Y-94620000D02*
X64846359Y-94620000D01*
%TO.C,R7*%
X76380000Y-87356359D02*
X76380000Y-87663641D01*
X75620000Y-87356359D02*
X75620000Y-87663641D01*
%TO.C,R6*%
X74380000Y-87356359D02*
X74380000Y-87663641D01*
X73620000Y-87356359D02*
X73620000Y-87663641D01*
%TO.C,R5*%
X68180000Y-74456359D02*
X68180000Y-74763641D01*
X67420000Y-74456359D02*
X67420000Y-74763641D01*
%TO.C,R4*%
X91663641Y-59380000D02*
X91356359Y-59380000D01*
X91663641Y-58620000D02*
X91356359Y-58620000D01*
%TO.C,R3*%
X91653641Y-61380000D02*
X91346359Y-61380000D01*
X91653641Y-60620000D02*
X91346359Y-60620000D01*
%TO.C,D4*%
X75265000Y-89200000D02*
X75265000Y-91485000D01*
X76735000Y-91485000D02*
X76735000Y-89200000D01*
X75265000Y-91485000D02*
X76735000Y-91485000D01*
%TO.C,D3*%
X73265000Y-91485000D02*
X74735000Y-91485000D01*
X74735000Y-91485000D02*
X74735000Y-89200000D01*
X73265000Y-89200000D02*
X73265000Y-91485000D01*
%TO.C,D2*%
X87515000Y-58265000D02*
X87515000Y-59735000D01*
X87515000Y-59735000D02*
X89800000Y-59735000D01*
X89800000Y-58265000D02*
X87515000Y-58265000D01*
%TO.C,D1*%
X87515000Y-60265000D02*
X87515000Y-61735000D01*
X87515000Y-61735000D02*
X89800000Y-61735000D01*
X89800000Y-60265000D02*
X87515000Y-60265000D01*
%TO.C,C15*%
X84912164Y-54640000D02*
X85127836Y-54640000D01*
X84912164Y-55360000D02*
X85127836Y-55360000D01*
%TO.C,C14*%
X56040000Y-66707836D02*
X56040000Y-66492164D01*
X56760000Y-66707836D02*
X56760000Y-66492164D01*
%TO.C,C13*%
X84272164Y-94640000D02*
X84487836Y-94640000D01*
X84272164Y-95360000D02*
X84487836Y-95360000D01*
%TO.C,C12*%
X66792164Y-94640000D02*
X67007836Y-94640000D01*
X66792164Y-95360000D02*
X67007836Y-95360000D01*
%TO.C,C9*%
X78387836Y-82660000D02*
X78172164Y-82660000D01*
X78387836Y-81940000D02*
X78172164Y-81940000D01*
%TO.C,C8*%
X67340000Y-77187836D02*
X67340000Y-76972164D01*
X68060000Y-77187836D02*
X68060000Y-76972164D01*
%TO.C,C7*%
X71727836Y-82660000D02*
X71512164Y-82660000D01*
X71727836Y-81940000D02*
X71512164Y-81940000D01*
%TO.C,C6*%
X66440000Y-74727836D02*
X66440000Y-74512164D01*
X67160000Y-74727836D02*
X67160000Y-74512164D01*
%TO.C,C5*%
X67407836Y-71660000D02*
X67192164Y-71660000D01*
X67407836Y-70940000D02*
X67192164Y-70940000D01*
%TO.C,C4*%
X68160000Y-72592164D02*
X68160000Y-72807836D01*
X67440000Y-72592164D02*
X67440000Y-72807836D01*
%TO.C,C3*%
X66610000Y-76959420D02*
X66610000Y-77240580D01*
X65590000Y-76959420D02*
X65590000Y-77240580D01*
%TO.C,C2*%
X86640000Y-65107836D02*
X86640000Y-64892164D01*
X87360000Y-65107836D02*
X87360000Y-64892164D01*
%TO.C,C1*%
X91840000Y-65107836D02*
X91840000Y-64892164D01*
X92560000Y-65107836D02*
X92560000Y-64892164D01*
%TO.C,J3*%
X52670000Y-82620000D02*
X52670000Y-64780000D01*
X52670000Y-85220000D02*
X52670000Y-83890000D01*
X54000000Y-85220000D02*
X52670000Y-85220000D01*
X55330000Y-64780000D02*
X52670000Y-64780000D01*
X55330000Y-82620000D02*
X52670000Y-82620000D01*
X55330000Y-82620000D02*
X55330000Y-64780000D01*
%TO.C,J2*%
X79555000Y-56815000D02*
X79490000Y-56815000D01*
X79555000Y-53185000D02*
X79555000Y-56815000D01*
X79555000Y-53185000D02*
X79490000Y-53185000D01*
X79490000Y-51910000D02*
X79490000Y-53185000D01*
X70510000Y-56815000D02*
X70445000Y-56815000D01*
X70510000Y-53185000D02*
X70445000Y-53185000D01*
X70445000Y-53185000D02*
X70445000Y-56815000D01*
%TD*%
M02*
