%TF.GenerationSoftware,KiCad,Pcbnew,10.0.1-10.0.1~ubuntu24.04.1*%
%TF.CreationDate,2026-05-08T08:47:13+02:00*%
%TF.ProjectId,SOS_Schematic,534f535f-5363-4686-956d-617469632e6b,rev?*%
%TF.SameCoordinates,Original*%
%TF.FileFunction,Soldermask,Top*%
%TF.FilePolarity,Negative*%
%FSLAX46Y46*%
G04 Gerber Fmt 4.6, Leading zero omitted, Abs format (unit mm)*
G04 Created by KiCad (PCBNEW 10.0.1-10.0.1~ubuntu24.04.1) date 2026-05-08 08:47:13*
%MOMM*%
%LPD*%
G01*
G04 APERTURE LIST*
G04 Aperture macros list*
%AMRoundRect*
0 Rectangle with rounded corners*
0 $1 Rounding radius*
0 $2 $3 $4 $5 $6 $7 $8 $9 X,Y pos of 4 corners*
0 Add a 4 corners polygon primitive as box body*
4,1,4,$2,$3,$4,$5,$6,$7,$8,$9,$2,$3,0*
0 Add four circle primitives for the rounded corners*
1,1,$1+$1,$2,$3*
1,1,$1+$1,$4,$5*
1,1,$1+$1,$6,$7*
1,1,$1+$1,$8,$9*
0 Add four rect primitives between the rounded corners*
20,1,$1+$1,$2,$3,$4,$5,0*
20,1,$1+$1,$4,$5,$6,$7,0*
20,1,$1+$1,$6,$7,$8,$9,0*
20,1,$1+$1,$8,$9,$2,$3,0*%
G04 Aperture macros list end*
%ADD10C,0.900000*%
%ADD11RoundRect,0.250000X1.000000X-0.375000X1.000000X0.375000X-1.000000X0.375000X-1.000000X-0.375000X0*%
%ADD12RoundRect,0.140000X-0.140000X-0.170000X0.140000X-0.170000X0.140000X0.170000X-0.140000X0.170000X0*%
%ADD13RoundRect,0.140000X0.170000X-0.140000X0.170000X0.140000X-0.170000X0.140000X-0.170000X-0.140000X0*%
%ADD14RoundRect,0.140000X-0.170000X0.140000X-0.170000X-0.140000X0.170000X-0.140000X0.170000X0.140000X0*%
%ADD15RoundRect,0.075000X-0.075000X-0.700000X0.075000X-0.700000X0.075000X0.700000X-0.075000X0.700000X0*%
%ADD16RoundRect,0.075000X-0.700000X-0.075000X0.700000X-0.075000X0.700000X0.075000X-0.700000X0.075000X0*%
%ADD17RoundRect,0.082500X0.767500X0.192500X-0.767500X0.192500X-0.767500X-0.192500X0.767500X-0.192500X0*%
%ADD18RoundRect,0.135000X0.315000X0.365000X-0.315000X0.365000X-0.315000X-0.365000X0.315000X-0.365000X0*%
%ADD19RoundRect,0.135000X0.185000X-0.135000X0.185000X0.135000X-0.185000X0.135000X-0.185000X-0.135000X0*%
%ADD20RoundRect,0.150000X-0.512500X-0.150000X0.512500X-0.150000X0.512500X0.150000X-0.512500X0.150000X0*%
%ADD21O,1.600000X1.000000*%
%ADD22O,2.100000X1.000000*%
%ADD23R,1.450000X0.600000*%
%ADD24R,1.450000X0.300000*%
%ADD25C,0.650000*%
%ADD26C,5.600000*%
%ADD27R,2.600000X1.900000*%
%ADD28RoundRect,0.150000X0.512500X0.150000X-0.512500X0.150000X-0.512500X-0.150000X0.512500X-0.150000X0*%
%ADD29RoundRect,0.135000X-0.315000X-0.365000X0.315000X-0.365000X0.315000X0.365000X-0.315000X0.365000X0*%
%ADD30RoundRect,0.082500X-0.767500X-0.192500X0.767500X-0.192500X0.767500X0.192500X-0.767500X0.192500X0*%
%ADD31RoundRect,0.135000X-0.135000X-0.185000X0.135000X-0.185000X0.135000X0.185000X-0.135000X0.185000X0*%
%ADD32RoundRect,0.135000X0.135000X0.185000X-0.135000X0.185000X-0.135000X-0.185000X0.135000X-0.185000X0*%
%ADD33RoundRect,0.135000X-0.185000X0.135000X-0.185000X-0.135000X0.185000X-0.135000X0.185000X0.135000X0*%
%ADD34RoundRect,0.218750X0.256250X-0.218750X0.256250X0.218750X-0.256250X0.218750X-0.256250X-0.218750X0*%
%ADD35RoundRect,0.218750X-0.218750X-0.256250X0.218750X-0.256250X0.218750X0.256250X-0.218750X0.256250X0*%
%ADD36RoundRect,0.140000X0.140000X0.170000X-0.140000X0.170000X-0.140000X-0.170000X0.140000X-0.170000X0*%
%ADD37RoundRect,0.225000X-0.250000X0.225000X-0.250000X-0.225000X0.250000X-0.225000X0.250000X0.225000X0*%
%ADD38R,1.700000X1.700000*%
%ADD39C,1.700000*%
%ADD40R,0.740000X2.400000*%
G04 APERTURE END LIST*
D10*
%TO.C,SW1*%
X97700000Y-66000000D03*
X97700000Y-59200000D03*
D11*
X94950000Y-65100000D03*
X94950000Y-62600000D03*
X94950000Y-60100000D03*
%TD*%
D12*
%TO.C,C16*%
X70955000Y-67785000D03*
X71915000Y-67785000D03*
%TD*%
D13*
%TO.C,C11*%
X82300000Y-71120000D03*
X82300000Y-72080000D03*
%TD*%
D14*
%TO.C,C10*%
X83500000Y-72080000D03*
X83500000Y-71120000D03*
%TD*%
D15*
%TO.C,U3*%
X71250000Y-69325000D03*
X71750000Y-69325000D03*
X72250000Y-69325000D03*
X72750000Y-69325000D03*
X73250000Y-69325000D03*
X73750000Y-69325000D03*
X74250000Y-69325000D03*
X74750000Y-69325000D03*
X75250000Y-69325000D03*
X75750000Y-69325000D03*
X76250000Y-69325000D03*
X76750000Y-69325000D03*
X77250000Y-69325000D03*
X77750000Y-69325000D03*
X78250000Y-69325000D03*
X78750000Y-69325000D03*
D16*
X80675000Y-71250000D03*
X80675000Y-71750000D03*
X80675000Y-72250000D03*
X80675000Y-72750000D03*
X80675000Y-73250000D03*
X80675000Y-73750000D03*
X80675000Y-74250000D03*
X80675000Y-74750000D03*
X80675000Y-75250000D03*
X80675000Y-75750000D03*
X80675000Y-76250000D03*
X80675000Y-76750000D03*
X80675000Y-77250000D03*
X80675000Y-77750000D03*
X80675000Y-78250000D03*
X80675000Y-78750000D03*
D15*
X78750000Y-80675000D03*
X78250000Y-80675000D03*
X77750000Y-80675000D03*
X77250000Y-80675000D03*
X76750000Y-80675000D03*
X76250000Y-80675000D03*
X75750000Y-80675000D03*
X75250000Y-80675000D03*
X74750000Y-80675000D03*
X74250000Y-80675000D03*
X73750000Y-80675000D03*
X73250000Y-80675000D03*
X72750000Y-80675000D03*
X72250000Y-80675000D03*
X71750000Y-80675000D03*
X71250000Y-80675000D03*
D16*
X69325000Y-78750000D03*
X69325000Y-78250000D03*
X69325000Y-77750000D03*
X69325000Y-77250000D03*
X69325000Y-76750000D03*
X69325000Y-76250000D03*
X69325000Y-75750000D03*
X69325000Y-75250000D03*
X69325000Y-74750000D03*
X69325000Y-74250000D03*
X69325000Y-73750000D03*
X69325000Y-73250000D03*
X69325000Y-72750000D03*
X69325000Y-72250000D03*
X69325000Y-71750000D03*
X69325000Y-71250000D03*
%TD*%
D17*
%TO.C,SW5*%
X65000000Y-53925000D03*
D18*
X62950000Y-51700000D03*
X67050000Y-51700000D03*
X62950000Y-53300000D03*
X67050000Y-53300000D03*
%TD*%
D19*
%TO.C,R1*%
X90200000Y-74390000D03*
X90200000Y-75410000D03*
%TD*%
D20*
%TO.C,U2*%
X88137500Y-72050000D03*
X88137500Y-73000000D03*
X88137500Y-73950000D03*
X85862500Y-73950000D03*
X85862500Y-73000000D03*
X85862500Y-72050000D03*
%TD*%
D21*
%TO.C,J1*%
X97050000Y-68680000D03*
D22*
X92870000Y-68680000D03*
D21*
X97050000Y-77320000D03*
D22*
X92870000Y-77320000D03*
D23*
X91955000Y-76250000D03*
X91955000Y-75450000D03*
D24*
X91955000Y-74750000D03*
X91955000Y-73750000D03*
X91955000Y-72250000D03*
X91955000Y-71250000D03*
D23*
X91955000Y-70550000D03*
X91955000Y-69750000D03*
X91955000Y-69750000D03*
X91955000Y-70550000D03*
D24*
X91955000Y-71750000D03*
X91955000Y-72750000D03*
X91955000Y-73250000D03*
X91955000Y-74250000D03*
D23*
X91955000Y-75450000D03*
X91955000Y-76250000D03*
D25*
X93400000Y-70110000D03*
X93400000Y-75890000D03*
%TD*%
D19*
%TO.C,R2*%
X90200000Y-70190000D03*
X90200000Y-71210000D03*
%TD*%
D26*
%TO.C,H1*%
X54000000Y-54000000D03*
%TD*%
D27*
%TO.C,Y1*%
X63300000Y-75850000D03*
X63300000Y-71550000D03*
%TD*%
D28*
%TO.C,U1*%
X90737500Y-65450000D03*
X90737500Y-64500000D03*
X90737500Y-63550000D03*
X88462500Y-63550000D03*
X88462500Y-65450000D03*
%TD*%
D18*
%TO.C,SW4*%
X87050000Y-53300000D03*
X82950000Y-53300000D03*
X87050000Y-51700000D03*
X82950000Y-51700000D03*
D17*
X85000000Y-53925000D03*
%TD*%
D29*
%TO.C,SW3*%
X80450000Y-96700000D03*
X84550000Y-96700000D03*
X80450000Y-98300000D03*
X84550000Y-98300000D03*
D30*
X82500000Y-96075000D03*
%TD*%
D29*
%TO.C,SW2*%
X62950000Y-96700000D03*
X67050000Y-96700000D03*
X62950000Y-98300000D03*
X67050000Y-98300000D03*
D30*
X65000000Y-96075000D03*
%TD*%
D31*
%TO.C,R12*%
X64400000Y-55000000D03*
X65420000Y-55000000D03*
%TD*%
D32*
%TO.C,R11*%
X81110000Y-95000000D03*
X80090000Y-95000000D03*
%TD*%
%TO.C,R10*%
X63610000Y-95000000D03*
X62590000Y-95000000D03*
%TD*%
%TO.C,R9*%
X83020000Y-95000000D03*
X82000000Y-95000000D03*
%TD*%
%TO.C,R8*%
X65510000Y-95000000D03*
X64490000Y-95000000D03*
%TD*%
D33*
%TO.C,R7*%
X76000000Y-87000000D03*
X76000000Y-88020000D03*
%TD*%
%TO.C,R6*%
X74000000Y-87000000D03*
X74000000Y-88020000D03*
%TD*%
%TO.C,R5*%
X67800000Y-74100000D03*
X67800000Y-75120000D03*
%TD*%
D32*
%TO.C,R4*%
X92020000Y-59000000D03*
X91000000Y-59000000D03*
%TD*%
%TO.C,R3*%
X92010000Y-61000000D03*
X90990000Y-61000000D03*
%TD*%
D34*
%TO.C,D4*%
X76000000Y-89212500D03*
X76000000Y-90787500D03*
%TD*%
%TO.C,D3*%
X74000000Y-90787500D03*
X74000000Y-89212500D03*
%TD*%
D35*
%TO.C,D2*%
X88212500Y-59000000D03*
X89787500Y-59000000D03*
%TD*%
%TO.C,D1*%
X88212500Y-61000000D03*
X89787500Y-61000000D03*
%TD*%
D12*
%TO.C,C15*%
X84540000Y-55000000D03*
X85500000Y-55000000D03*
%TD*%
D13*
%TO.C,C14*%
X56400000Y-67080000D03*
X56400000Y-66120000D03*
%TD*%
D12*
%TO.C,C13*%
X83900000Y-95000000D03*
X84860000Y-95000000D03*
%TD*%
%TO.C,C12*%
X66420000Y-95000000D03*
X67380000Y-95000000D03*
%TD*%
D36*
%TO.C,C9*%
X78760000Y-82300000D03*
X77800000Y-82300000D03*
%TD*%
D13*
%TO.C,C8*%
X67700000Y-77560000D03*
X67700000Y-76600000D03*
%TD*%
D36*
%TO.C,C7*%
X72100000Y-82300000D03*
X71140000Y-82300000D03*
%TD*%
D13*
%TO.C,C6*%
X66800000Y-75100000D03*
X66800000Y-74140000D03*
%TD*%
D36*
%TO.C,C5*%
X67780000Y-71300000D03*
X66820000Y-71300000D03*
%TD*%
D14*
%TO.C,C4*%
X67800000Y-72220000D03*
X67800000Y-73180000D03*
%TD*%
D37*
%TO.C,C3*%
X66100000Y-76325000D03*
X66100000Y-77875000D03*
%TD*%
D13*
%TO.C,C2*%
X87000000Y-65480000D03*
X87000000Y-64520000D03*
%TD*%
%TO.C,C1*%
X92200000Y-65480000D03*
X92200000Y-64520000D03*
%TD*%
D38*
%TO.C,J3*%
X54000000Y-83890000D03*
D39*
X54000000Y-81350000D03*
X54000000Y-78810000D03*
X54000000Y-76270000D03*
X54000000Y-73730000D03*
X54000000Y-71190000D03*
X54000000Y-68650000D03*
X54000000Y-66110000D03*
%TD*%
D26*
%TO.C,H2*%
X96000000Y-54000000D03*
%TD*%
%TO.C,H3*%
X54000000Y-96000000D03*
%TD*%
%TO.C,H4*%
X96000000Y-96000000D03*
%TD*%
D40*
%TO.C,J2*%
X78810000Y-53050000D03*
X78810000Y-56950000D03*
X77540000Y-53050000D03*
X77540000Y-56950000D03*
X76270000Y-53050000D03*
X76270000Y-56950000D03*
X75000000Y-53050000D03*
X75000000Y-56950000D03*
X73730000Y-53050000D03*
X73730000Y-56950000D03*
X72460000Y-53050000D03*
X72460000Y-56950000D03*
X71190000Y-53050000D03*
X71190000Y-56950000D03*
%TD*%
M02*
