M48
; DRILL file KiCad 10.0.1-10.0.1~ubuntu24.04.1 date 2026-05-08T08:47:15
; FORMAT={-:-/ absolute / metric / decimal}
; #@! TF.CreationDate,2026-05-08T08:47:15+02:00
; #@! TF.GenerationSoftware,Kicad,Pcbnew,10.0.1-10.0.1~ubuntu24.04.1
; #@! TF.FileFunction,Plated,1,4,PTH
FMAT,2
METRIC
; #@! TA.AperFunction,Plated,PTH,ViaDrill
T1C0.300
; #@! TA.AperFunction,Plated,PTH,ComponentDrill
T2C0.600
; #@! TA.AperFunction,Plated,PTH,ComponentDrill
T3C1.000
; #@! TA.AperFunction,Plated,PTH,ComponentDrill
T4C3.200
%
G90
G05
T1
X56.4Y-65.5
X56.4Y-67.6
X60.338Y-80.368
X60.9Y-81.9
X61.0Y-80.5
X61.9Y-82.5
X62.1Y-95.0
X62.2Y-53.3
X62.2Y-98.3
X63.8Y-55.0
X66.2Y-74.2
X66.3Y-71.3
X67.1Y-76.6
X67.1Y-77.6
X67.2Y-72.2
X67.8Y-53.3
X67.8Y-70.7
X67.8Y-98.3
X67.9Y-95.0
X69.0Y-82.9
X70.0Y-82.9
X70.9Y-67.1
X71.1Y-82.9
X71.9Y-67.1
X72.1Y-82.9
X72.3Y-60.1
X72.5Y-51.6
X72.5Y-55.1
X74.0Y-86.3
X74.7Y-67.3
X75.0Y-51.6
X75.0Y-90.8
X75.2Y-68.1
X75.8Y-70.6
X76.0Y-86.3
X76.2Y-51.6
X76.5Y-70.6
X77.6Y-51.6
X77.8Y-82.9
X78.8Y-82.9
X79.5Y-95.0
X79.7Y-98.3
X82.2Y-51.7
X82.9Y-71.12
X82.9Y-72.08
X85.3Y-98.3
X85.4Y-95.0
X86.1Y-55.0
X86.5Y-65.5
X87.0Y-64.0
X87.0Y-73.0
X87.5Y-59.0
X87.5Y-61.0
X87.6Y-65.48
X87.8Y-51.7
X89.0Y-73.0
X90.64Y-69.75
X90.695Y-75.905
X91.5Y-65.45
X91.6Y-64.5
X92.7Y-61.0
X92.8Y-59.0
X93.0Y-65.48
X93.5Y-71.0
X93.5Y-75.0
X96.5Y-60.1
T3
X54.0Y-66.11
X54.0Y-68.65
X54.0Y-71.19
X54.0Y-73.73
X54.0Y-76.27
X54.0Y-78.81
X54.0Y-81.35
X54.0Y-83.89
T4
X54.0Y-54.0
X54.0Y-96.0
X96.0Y-54.0
X96.0Y-96.0
T2
G00X92.32Y-68.68
M15
G01X93.42Y-68.68
M16
G05
G00X92.32Y-77.32
M15
G01X93.42Y-77.32
M16
G05
G00X96.75Y-68.68
M15
G01X97.35Y-68.68
M16
G05
G00X96.75Y-77.32
M15
G01X97.35Y-77.32
M16
G05
M30
