%TF.GenerationSoftware,KiCad,Pcbnew,9.0.7*%
%TF.CreationDate,2026-02-23T22:26:49+01:00*%
%TF.ProjectId,SOS_Schematic (4),534f535f-5363-4686-956d-617469632028,rev?*%
%TF.SameCoordinates,Original*%
%TF.FileFunction,Legend,Top*%
%TF.FilePolarity,Positive*%
%FSLAX46Y46*%
G04 Gerber Fmt 4.6, Leading zero omitted, Abs format (unit mm)*
G04 Created by KiCad (PCBNEW 9.0.7) date 2026-02-23 22:26:49*
%MOMM*%
%LPD*%
G01*
G04 APERTURE LIST*
%ADD10C,0.150000*%
%ADD11C,0.120000*%
G04 APERTURE END LIST*
D10*
X124223333Y-109544819D02*
X123890000Y-109068628D01*
X123651905Y-109544819D02*
X123651905Y-108544819D01*
X123651905Y-108544819D02*
X124032857Y-108544819D01*
X124032857Y-108544819D02*
X124128095Y-108592438D01*
X124128095Y-108592438D02*
X124175714Y-108640057D01*
X124175714Y-108640057D02*
X124223333Y-108735295D01*
X124223333Y-108735295D02*
X124223333Y-108878152D01*
X124223333Y-108878152D02*
X124175714Y-108973390D01*
X124175714Y-108973390D02*
X124128095Y-109021009D01*
X124128095Y-109021009D02*
X124032857Y-109068628D01*
X124032857Y-109068628D02*
X123651905Y-109068628D01*
X125128095Y-108544819D02*
X124651905Y-108544819D01*
X124651905Y-108544819D02*
X124604286Y-109021009D01*
X124604286Y-109021009D02*
X124651905Y-108973390D01*
X124651905Y-108973390D02*
X124747143Y-108925771D01*
X124747143Y-108925771D02*
X124985238Y-108925771D01*
X124985238Y-108925771D02*
X125080476Y-108973390D01*
X125080476Y-108973390D02*
X125128095Y-109021009D01*
X125128095Y-109021009D02*
X125175714Y-109116247D01*
X125175714Y-109116247D02*
X125175714Y-109354342D01*
X125175714Y-109354342D02*
X125128095Y-109449580D01*
X125128095Y-109449580D02*
X125080476Y-109497200D01*
X125080476Y-109497200D02*
X124985238Y-109544819D01*
X124985238Y-109544819D02*
X124747143Y-109544819D01*
X124747143Y-109544819D02*
X124651905Y-109497200D01*
X124651905Y-109497200D02*
X124604286Y-109449580D01*
X119223333Y-106669580D02*
X119175714Y-106717200D01*
X119175714Y-106717200D02*
X119032857Y-106764819D01*
X119032857Y-106764819D02*
X118937619Y-106764819D01*
X118937619Y-106764819D02*
X118794762Y-106717200D01*
X118794762Y-106717200D02*
X118699524Y-106621961D01*
X118699524Y-106621961D02*
X118651905Y-106526723D01*
X118651905Y-106526723D02*
X118604286Y-106336247D01*
X118604286Y-106336247D02*
X118604286Y-106193390D01*
X118604286Y-106193390D02*
X118651905Y-106002914D01*
X118651905Y-106002914D02*
X118699524Y-105907676D01*
X118699524Y-105907676D02*
X118794762Y-105812438D01*
X118794762Y-105812438D02*
X118937619Y-105764819D01*
X118937619Y-105764819D02*
X119032857Y-105764819D01*
X119032857Y-105764819D02*
X119175714Y-105812438D01*
X119175714Y-105812438D02*
X119223333Y-105860057D01*
X120080476Y-105764819D02*
X119890000Y-105764819D01*
X119890000Y-105764819D02*
X119794762Y-105812438D01*
X119794762Y-105812438D02*
X119747143Y-105860057D01*
X119747143Y-105860057D02*
X119651905Y-106002914D01*
X119651905Y-106002914D02*
X119604286Y-106193390D01*
X119604286Y-106193390D02*
X119604286Y-106574342D01*
X119604286Y-106574342D02*
X119651905Y-106669580D01*
X119651905Y-106669580D02*
X119699524Y-106717200D01*
X119699524Y-106717200D02*
X119794762Y-106764819D01*
X119794762Y-106764819D02*
X119985238Y-106764819D01*
X119985238Y-106764819D02*
X120080476Y-106717200D01*
X120080476Y-106717200D02*
X120128095Y-106669580D01*
X120128095Y-106669580D02*
X120175714Y-106574342D01*
X120175714Y-106574342D02*
X120175714Y-106336247D01*
X120175714Y-106336247D02*
X120128095Y-106241009D01*
X120128095Y-106241009D02*
X120080476Y-106193390D01*
X120080476Y-106193390D02*
X119985238Y-106145771D01*
X119985238Y-106145771D02*
X119794762Y-106145771D01*
X119794762Y-106145771D02*
X119699524Y-106193390D01*
X119699524Y-106193390D02*
X119651905Y-106241009D01*
X119651905Y-106241009D02*
X119604286Y-106336247D01*
X117223333Y-84144819D02*
X116747143Y-84144819D01*
X116747143Y-84144819D02*
X116747143Y-83144819D01*
X118080476Y-84144819D02*
X117509048Y-84144819D01*
X117794762Y-84144819D02*
X117794762Y-83144819D01*
X117794762Y-83144819D02*
X117699524Y-83287676D01*
X117699524Y-83287676D02*
X117604286Y-83382914D01*
X117604286Y-83382914D02*
X117509048Y-83430533D01*
X162738642Y-84348580D02*
X162691023Y-84396200D01*
X162691023Y-84396200D02*
X162548166Y-84443819D01*
X162548166Y-84443819D02*
X162452928Y-84443819D01*
X162452928Y-84443819D02*
X162310071Y-84396200D01*
X162310071Y-84396200D02*
X162214833Y-84300961D01*
X162214833Y-84300961D02*
X162167214Y-84205723D01*
X162167214Y-84205723D02*
X162119595Y-84015247D01*
X162119595Y-84015247D02*
X162119595Y-83872390D01*
X162119595Y-83872390D02*
X162167214Y-83681914D01*
X162167214Y-83681914D02*
X162214833Y-83586676D01*
X162214833Y-83586676D02*
X162310071Y-83491438D01*
X162310071Y-83491438D02*
X162452928Y-83443819D01*
X162452928Y-83443819D02*
X162548166Y-83443819D01*
X162548166Y-83443819D02*
X162691023Y-83491438D01*
X162691023Y-83491438D02*
X162738642Y-83539057D01*
X163691023Y-84443819D02*
X163119595Y-84443819D01*
X163405309Y-84443819D02*
X163405309Y-83443819D01*
X163405309Y-83443819D02*
X163310071Y-83586676D01*
X163310071Y-83586676D02*
X163214833Y-83681914D01*
X163214833Y-83681914D02*
X163119595Y-83729533D01*
X164071976Y-83539057D02*
X164119595Y-83491438D01*
X164119595Y-83491438D02*
X164214833Y-83443819D01*
X164214833Y-83443819D02*
X164452928Y-83443819D01*
X164452928Y-83443819D02*
X164548166Y-83491438D01*
X164548166Y-83491438D02*
X164595785Y-83539057D01*
X164595785Y-83539057D02*
X164643404Y-83634295D01*
X164643404Y-83634295D02*
X164643404Y-83729533D01*
X164643404Y-83729533D02*
X164595785Y-83872390D01*
X164595785Y-83872390D02*
X164024357Y-84443819D01*
X164024357Y-84443819D02*
X164643404Y-84443819D01*
X112273333Y-92284819D02*
X111940000Y-91808628D01*
X111701905Y-92284819D02*
X111701905Y-91284819D01*
X111701905Y-91284819D02*
X112082857Y-91284819D01*
X112082857Y-91284819D02*
X112178095Y-91332438D01*
X112178095Y-91332438D02*
X112225714Y-91380057D01*
X112225714Y-91380057D02*
X112273333Y-91475295D01*
X112273333Y-91475295D02*
X112273333Y-91618152D01*
X112273333Y-91618152D02*
X112225714Y-91713390D01*
X112225714Y-91713390D02*
X112178095Y-91761009D01*
X112178095Y-91761009D02*
X112082857Y-91808628D01*
X112082857Y-91808628D02*
X111701905Y-91808628D01*
X112606667Y-91284819D02*
X113225714Y-91284819D01*
X113225714Y-91284819D02*
X112892381Y-91665771D01*
X112892381Y-91665771D02*
X113035238Y-91665771D01*
X113035238Y-91665771D02*
X113130476Y-91713390D01*
X113130476Y-91713390D02*
X113178095Y-91761009D01*
X113178095Y-91761009D02*
X113225714Y-91856247D01*
X113225714Y-91856247D02*
X113225714Y-92094342D01*
X113225714Y-92094342D02*
X113178095Y-92189580D01*
X113178095Y-92189580D02*
X113130476Y-92237200D01*
X113130476Y-92237200D02*
X113035238Y-92284819D01*
X113035238Y-92284819D02*
X112749524Y-92284819D01*
X112749524Y-92284819D02*
X112654286Y-92237200D01*
X112654286Y-92237200D02*
X112606667Y-92189580D01*
X123410833Y-70909580D02*
X123363214Y-70957200D01*
X123363214Y-70957200D02*
X123220357Y-71004819D01*
X123220357Y-71004819D02*
X123125119Y-71004819D01*
X123125119Y-71004819D02*
X122982262Y-70957200D01*
X122982262Y-70957200D02*
X122887024Y-70861961D01*
X122887024Y-70861961D02*
X122839405Y-70766723D01*
X122839405Y-70766723D02*
X122791786Y-70576247D01*
X122791786Y-70576247D02*
X122791786Y-70433390D01*
X122791786Y-70433390D02*
X122839405Y-70242914D01*
X122839405Y-70242914D02*
X122887024Y-70147676D01*
X122887024Y-70147676D02*
X122982262Y-70052438D01*
X122982262Y-70052438D02*
X123125119Y-70004819D01*
X123125119Y-70004819D02*
X123220357Y-70004819D01*
X123220357Y-70004819D02*
X123363214Y-70052438D01*
X123363214Y-70052438D02*
X123410833Y-70100057D01*
X124363214Y-71004819D02*
X123791786Y-71004819D01*
X124077500Y-71004819D02*
X124077500Y-70004819D01*
X124077500Y-70004819D02*
X123982262Y-70147676D01*
X123982262Y-70147676D02*
X123887024Y-70242914D01*
X123887024Y-70242914D02*
X123791786Y-70290533D01*
X164448257Y-71307860D02*
X164448257Y-70307860D01*
X164448257Y-70784050D02*
X165019685Y-70784050D01*
X165019685Y-71307860D02*
X165019685Y-70307860D01*
X165448257Y-70403098D02*
X165495876Y-70355479D01*
X165495876Y-70355479D02*
X165591114Y-70307860D01*
X165591114Y-70307860D02*
X165829209Y-70307860D01*
X165829209Y-70307860D02*
X165924447Y-70355479D01*
X165924447Y-70355479D02*
X165972066Y-70403098D01*
X165972066Y-70403098D02*
X166019685Y-70498336D01*
X166019685Y-70498336D02*
X166019685Y-70593574D01*
X166019685Y-70593574D02*
X165972066Y-70736431D01*
X165972066Y-70736431D02*
X165400638Y-71307860D01*
X165400638Y-71307860D02*
X166019685Y-71307860D01*
X109069819Y-101413333D02*
X109784104Y-101413333D01*
X109784104Y-101413333D02*
X109926961Y-101460952D01*
X109926961Y-101460952D02*
X110022200Y-101556190D01*
X110022200Y-101556190D02*
X110069819Y-101699047D01*
X110069819Y-101699047D02*
X110069819Y-101794285D01*
X110069819Y-100413333D02*
X110069819Y-100984761D01*
X110069819Y-100699047D02*
X109069819Y-100699047D01*
X109069819Y-100699047D02*
X109212676Y-100794285D01*
X109212676Y-100794285D02*
X109307914Y-100889523D01*
X109307914Y-100889523D02*
X109355533Y-100984761D01*
X127496667Y-119937200D02*
X127639524Y-119984819D01*
X127639524Y-119984819D02*
X127877619Y-119984819D01*
X127877619Y-119984819D02*
X127972857Y-119937200D01*
X127972857Y-119937200D02*
X128020476Y-119889580D01*
X128020476Y-119889580D02*
X128068095Y-119794342D01*
X128068095Y-119794342D02*
X128068095Y-119699104D01*
X128068095Y-119699104D02*
X128020476Y-119603866D01*
X128020476Y-119603866D02*
X127972857Y-119556247D01*
X127972857Y-119556247D02*
X127877619Y-119508628D01*
X127877619Y-119508628D02*
X127687143Y-119461009D01*
X127687143Y-119461009D02*
X127591905Y-119413390D01*
X127591905Y-119413390D02*
X127544286Y-119365771D01*
X127544286Y-119365771D02*
X127496667Y-119270533D01*
X127496667Y-119270533D02*
X127496667Y-119175295D01*
X127496667Y-119175295D02*
X127544286Y-119080057D01*
X127544286Y-119080057D02*
X127591905Y-119032438D01*
X127591905Y-119032438D02*
X127687143Y-118984819D01*
X127687143Y-118984819D02*
X127925238Y-118984819D01*
X127925238Y-118984819D02*
X128068095Y-119032438D01*
X128401429Y-118984819D02*
X128639524Y-119984819D01*
X128639524Y-119984819D02*
X128830000Y-119270533D01*
X128830000Y-119270533D02*
X129020476Y-119984819D01*
X129020476Y-119984819D02*
X129258572Y-118984819D01*
X130163333Y-119984819D02*
X129591905Y-119984819D01*
X129877619Y-119984819D02*
X129877619Y-118984819D01*
X129877619Y-118984819D02*
X129782381Y-119127676D01*
X129782381Y-119127676D02*
X129687143Y-119222914D01*
X129687143Y-119222914D02*
X129591905Y-119270533D01*
X134483333Y-103449580D02*
X134435714Y-103497200D01*
X134435714Y-103497200D02*
X134292857Y-103544819D01*
X134292857Y-103544819D02*
X134197619Y-103544819D01*
X134197619Y-103544819D02*
X134054762Y-103497200D01*
X134054762Y-103497200D02*
X133959524Y-103401961D01*
X133959524Y-103401961D02*
X133911905Y-103306723D01*
X133911905Y-103306723D02*
X133864286Y-103116247D01*
X133864286Y-103116247D02*
X133864286Y-102973390D01*
X133864286Y-102973390D02*
X133911905Y-102782914D01*
X133911905Y-102782914D02*
X133959524Y-102687676D01*
X133959524Y-102687676D02*
X134054762Y-102592438D01*
X134054762Y-102592438D02*
X134197619Y-102544819D01*
X134197619Y-102544819D02*
X134292857Y-102544819D01*
X134292857Y-102544819D02*
X134435714Y-102592438D01*
X134435714Y-102592438D02*
X134483333Y-102640057D01*
X134816667Y-102544819D02*
X135435714Y-102544819D01*
X135435714Y-102544819D02*
X135102381Y-102925771D01*
X135102381Y-102925771D02*
X135245238Y-102925771D01*
X135245238Y-102925771D02*
X135340476Y-102973390D01*
X135340476Y-102973390D02*
X135388095Y-103021009D01*
X135388095Y-103021009D02*
X135435714Y-103116247D01*
X135435714Y-103116247D02*
X135435714Y-103354342D01*
X135435714Y-103354342D02*
X135388095Y-103449580D01*
X135388095Y-103449580D02*
X135340476Y-103497200D01*
X135340476Y-103497200D02*
X135245238Y-103544819D01*
X135245238Y-103544819D02*
X134959524Y-103544819D01*
X134959524Y-103544819D02*
X134864286Y-103497200D01*
X134864286Y-103497200D02*
X134816667Y-103449580D01*
X149434642Y-70409580D02*
X149387023Y-70457200D01*
X149387023Y-70457200D02*
X149244166Y-70504819D01*
X149244166Y-70504819D02*
X149148928Y-70504819D01*
X149148928Y-70504819D02*
X149006071Y-70457200D01*
X149006071Y-70457200D02*
X148910833Y-70361961D01*
X148910833Y-70361961D02*
X148863214Y-70266723D01*
X148863214Y-70266723D02*
X148815595Y-70076247D01*
X148815595Y-70076247D02*
X148815595Y-69933390D01*
X148815595Y-69933390D02*
X148863214Y-69742914D01*
X148863214Y-69742914D02*
X148910833Y-69647676D01*
X148910833Y-69647676D02*
X149006071Y-69552438D01*
X149006071Y-69552438D02*
X149148928Y-69504819D01*
X149148928Y-69504819D02*
X149244166Y-69504819D01*
X149244166Y-69504819D02*
X149387023Y-69552438D01*
X149387023Y-69552438D02*
X149434642Y-69600057D01*
X150387023Y-70504819D02*
X149815595Y-70504819D01*
X150101309Y-70504819D02*
X150101309Y-69504819D01*
X150101309Y-69504819D02*
X150006071Y-69647676D01*
X150006071Y-69647676D02*
X149910833Y-69742914D01*
X149910833Y-69742914D02*
X149815595Y-69790533D01*
X150720357Y-69504819D02*
X151387023Y-69504819D01*
X151387023Y-69504819D02*
X150958452Y-70504819D01*
X150635833Y-118409580D02*
X150588214Y-118457200D01*
X150588214Y-118457200D02*
X150445357Y-118504819D01*
X150445357Y-118504819D02*
X150350119Y-118504819D01*
X150350119Y-118504819D02*
X150207262Y-118457200D01*
X150207262Y-118457200D02*
X150112024Y-118361961D01*
X150112024Y-118361961D02*
X150064405Y-118266723D01*
X150064405Y-118266723D02*
X150016786Y-118076247D01*
X150016786Y-118076247D02*
X150016786Y-117933390D01*
X150016786Y-117933390D02*
X150064405Y-117742914D01*
X150064405Y-117742914D02*
X150112024Y-117647676D01*
X150112024Y-117647676D02*
X150207262Y-117552438D01*
X150207262Y-117552438D02*
X150350119Y-117504819D01*
X150350119Y-117504819D02*
X150445357Y-117504819D01*
X150445357Y-117504819D02*
X150588214Y-117552438D01*
X150588214Y-117552438D02*
X150635833Y-117600057D01*
X151207262Y-117933390D02*
X151112024Y-117885771D01*
X151112024Y-117885771D02*
X151064405Y-117838152D01*
X151064405Y-117838152D02*
X151016786Y-117742914D01*
X151016786Y-117742914D02*
X151016786Y-117695295D01*
X151016786Y-117695295D02*
X151064405Y-117600057D01*
X151064405Y-117600057D02*
X151112024Y-117552438D01*
X151112024Y-117552438D02*
X151207262Y-117504819D01*
X151207262Y-117504819D02*
X151397738Y-117504819D01*
X151397738Y-117504819D02*
X151492976Y-117552438D01*
X151492976Y-117552438D02*
X151540595Y-117600057D01*
X151540595Y-117600057D02*
X151588214Y-117695295D01*
X151588214Y-117695295D02*
X151588214Y-117742914D01*
X151588214Y-117742914D02*
X151540595Y-117838152D01*
X151540595Y-117838152D02*
X151492976Y-117885771D01*
X151492976Y-117885771D02*
X151397738Y-117933390D01*
X151397738Y-117933390D02*
X151207262Y-117933390D01*
X151207262Y-117933390D02*
X151112024Y-117981009D01*
X151112024Y-117981009D02*
X151064405Y-118028628D01*
X151064405Y-118028628D02*
X151016786Y-118123866D01*
X151016786Y-118123866D02*
X151016786Y-118314342D01*
X151016786Y-118314342D02*
X151064405Y-118409580D01*
X151064405Y-118409580D02*
X151112024Y-118457200D01*
X151112024Y-118457200D02*
X151207262Y-118504819D01*
X151207262Y-118504819D02*
X151397738Y-118504819D01*
X151397738Y-118504819D02*
X151492976Y-118457200D01*
X151492976Y-118457200D02*
X151540595Y-118409580D01*
X151540595Y-118409580D02*
X151588214Y-118314342D01*
X151588214Y-118314342D02*
X151588214Y-118123866D01*
X151588214Y-118123866D02*
X151540595Y-118028628D01*
X151540595Y-118028628D02*
X151492976Y-117981009D01*
X151492976Y-117981009D02*
X151397738Y-117933390D01*
X114448257Y-121307860D02*
X114448257Y-120307860D01*
X114448257Y-120784050D02*
X115019685Y-120784050D01*
X115019685Y-121307860D02*
X115019685Y-120307860D01*
X115924447Y-120641193D02*
X115924447Y-121307860D01*
X115686352Y-120260241D02*
X115448257Y-120974526D01*
X115448257Y-120974526D02*
X116067304Y-120974526D01*
X162373333Y-102044819D02*
X162040000Y-101568628D01*
X161801905Y-102044819D02*
X161801905Y-101044819D01*
X161801905Y-101044819D02*
X162182857Y-101044819D01*
X162182857Y-101044819D02*
X162278095Y-101092438D01*
X162278095Y-101092438D02*
X162325714Y-101140057D01*
X162325714Y-101140057D02*
X162373333Y-101235295D01*
X162373333Y-101235295D02*
X162373333Y-101378152D01*
X162373333Y-101378152D02*
X162325714Y-101473390D01*
X162325714Y-101473390D02*
X162278095Y-101521009D01*
X162278095Y-101521009D02*
X162182857Y-101568628D01*
X162182857Y-101568628D02*
X161801905Y-101568628D01*
X163230476Y-101378152D02*
X163230476Y-102044819D01*
X162992381Y-100997200D02*
X162754286Y-101711485D01*
X162754286Y-101711485D02*
X163373333Y-101711485D01*
X124884642Y-76409580D02*
X124837023Y-76457200D01*
X124837023Y-76457200D02*
X124694166Y-76504819D01*
X124694166Y-76504819D02*
X124598928Y-76504819D01*
X124598928Y-76504819D02*
X124456071Y-76457200D01*
X124456071Y-76457200D02*
X124360833Y-76361961D01*
X124360833Y-76361961D02*
X124313214Y-76266723D01*
X124313214Y-76266723D02*
X124265595Y-76076247D01*
X124265595Y-76076247D02*
X124265595Y-75933390D01*
X124265595Y-75933390D02*
X124313214Y-75742914D01*
X124313214Y-75742914D02*
X124360833Y-75647676D01*
X124360833Y-75647676D02*
X124456071Y-75552438D01*
X124456071Y-75552438D02*
X124598928Y-75504819D01*
X124598928Y-75504819D02*
X124694166Y-75504819D01*
X124694166Y-75504819D02*
X124837023Y-75552438D01*
X124837023Y-75552438D02*
X124884642Y-75600057D01*
X125837023Y-76504819D02*
X125265595Y-76504819D01*
X125551309Y-76504819D02*
X125551309Y-75504819D01*
X125551309Y-75504819D02*
X125456071Y-75647676D01*
X125456071Y-75647676D02*
X125360833Y-75742914D01*
X125360833Y-75742914D02*
X125265595Y-75790533D01*
X126694166Y-75838152D02*
X126694166Y-76504819D01*
X126456071Y-75457200D02*
X126217976Y-76171485D01*
X126217976Y-76171485D02*
X126837023Y-76171485D01*
X143410833Y-110909580D02*
X143363214Y-110957200D01*
X143363214Y-110957200D02*
X143220357Y-111004819D01*
X143220357Y-111004819D02*
X143125119Y-111004819D01*
X143125119Y-111004819D02*
X142982262Y-110957200D01*
X142982262Y-110957200D02*
X142887024Y-110861961D01*
X142887024Y-110861961D02*
X142839405Y-110766723D01*
X142839405Y-110766723D02*
X142791786Y-110576247D01*
X142791786Y-110576247D02*
X142791786Y-110433390D01*
X142791786Y-110433390D02*
X142839405Y-110242914D01*
X142839405Y-110242914D02*
X142887024Y-110147676D01*
X142887024Y-110147676D02*
X142982262Y-110052438D01*
X142982262Y-110052438D02*
X143125119Y-110004819D01*
X143125119Y-110004819D02*
X143220357Y-110004819D01*
X143220357Y-110004819D02*
X143363214Y-110052438D01*
X143363214Y-110052438D02*
X143410833Y-110100057D01*
X144315595Y-110004819D02*
X143839405Y-110004819D01*
X143839405Y-110004819D02*
X143791786Y-110481009D01*
X143791786Y-110481009D02*
X143839405Y-110433390D01*
X143839405Y-110433390D02*
X143934643Y-110385771D01*
X143934643Y-110385771D02*
X144172738Y-110385771D01*
X144172738Y-110385771D02*
X144267976Y-110433390D01*
X144267976Y-110433390D02*
X144315595Y-110481009D01*
X144315595Y-110481009D02*
X144363214Y-110576247D01*
X144363214Y-110576247D02*
X144363214Y-110814342D01*
X144363214Y-110814342D02*
X144315595Y-110909580D01*
X144315595Y-110909580D02*
X144267976Y-110957200D01*
X144267976Y-110957200D02*
X144172738Y-111004819D01*
X144172738Y-111004819D02*
X143934643Y-111004819D01*
X143934643Y-111004819D02*
X143839405Y-110957200D01*
X143839405Y-110957200D02*
X143791786Y-110909580D01*
X160974819Y-98426666D02*
X160498628Y-98759999D01*
X160974819Y-98998094D02*
X159974819Y-98998094D01*
X159974819Y-98998094D02*
X159974819Y-98617142D01*
X159974819Y-98617142D02*
X160022438Y-98521904D01*
X160022438Y-98521904D02*
X160070057Y-98474285D01*
X160070057Y-98474285D02*
X160165295Y-98426666D01*
X160165295Y-98426666D02*
X160308152Y-98426666D01*
X160308152Y-98426666D02*
X160403390Y-98474285D01*
X160403390Y-98474285D02*
X160451009Y-98521904D01*
X160451009Y-98521904D02*
X160498628Y-98617142D01*
X160498628Y-98617142D02*
X160498628Y-98998094D01*
X160070057Y-98045713D02*
X160022438Y-97998094D01*
X160022438Y-97998094D02*
X159974819Y-97902856D01*
X159974819Y-97902856D02*
X159974819Y-97664761D01*
X159974819Y-97664761D02*
X160022438Y-97569523D01*
X160022438Y-97569523D02*
X160070057Y-97521904D01*
X160070057Y-97521904D02*
X160165295Y-97474285D01*
X160165295Y-97474285D02*
X160260533Y-97474285D01*
X160260533Y-97474285D02*
X160403390Y-97521904D01*
X160403390Y-97521904D02*
X160974819Y-98093332D01*
X160974819Y-98093332D02*
X160974819Y-97474285D01*
X164589580Y-108096666D02*
X164637200Y-108144285D01*
X164637200Y-108144285D02*
X164684819Y-108287142D01*
X164684819Y-108287142D02*
X164684819Y-108382380D01*
X164684819Y-108382380D02*
X164637200Y-108525237D01*
X164637200Y-108525237D02*
X164541961Y-108620475D01*
X164541961Y-108620475D02*
X164446723Y-108668094D01*
X164446723Y-108668094D02*
X164256247Y-108715713D01*
X164256247Y-108715713D02*
X164113390Y-108715713D01*
X164113390Y-108715713D02*
X163922914Y-108668094D01*
X163922914Y-108668094D02*
X163827676Y-108620475D01*
X163827676Y-108620475D02*
X163732438Y-108525237D01*
X163732438Y-108525237D02*
X163684819Y-108382380D01*
X163684819Y-108382380D02*
X163684819Y-108287142D01*
X163684819Y-108287142D02*
X163732438Y-108144285D01*
X163732438Y-108144285D02*
X163780057Y-108096666D01*
X163684819Y-107763332D02*
X163684819Y-107096666D01*
X163684819Y-107096666D02*
X164684819Y-107525237D01*
X139782333Y-91738580D02*
X139734714Y-91786200D01*
X139734714Y-91786200D02*
X139591857Y-91833819D01*
X139591857Y-91833819D02*
X139496619Y-91833819D01*
X139496619Y-91833819D02*
X139353762Y-91786200D01*
X139353762Y-91786200D02*
X139258524Y-91690961D01*
X139258524Y-91690961D02*
X139210905Y-91595723D01*
X139210905Y-91595723D02*
X139163286Y-91405247D01*
X139163286Y-91405247D02*
X139163286Y-91262390D01*
X139163286Y-91262390D02*
X139210905Y-91071914D01*
X139210905Y-91071914D02*
X139258524Y-90976676D01*
X139258524Y-90976676D02*
X139353762Y-90881438D01*
X139353762Y-90881438D02*
X139496619Y-90833819D01*
X139496619Y-90833819D02*
X139591857Y-90833819D01*
X139591857Y-90833819D02*
X139734714Y-90881438D01*
X139734714Y-90881438D02*
X139782333Y-90929057D01*
X140639476Y-91167152D02*
X140639476Y-91833819D01*
X140401381Y-90786200D02*
X140163286Y-91500485D01*
X140163286Y-91500485D02*
X140782333Y-91500485D01*
X114448257Y-71307860D02*
X114448257Y-70307860D01*
X114448257Y-70784050D02*
X115019685Y-70784050D01*
X115019685Y-71307860D02*
X115019685Y-70307860D01*
X116019685Y-71307860D02*
X115448257Y-71307860D01*
X115733971Y-71307860D02*
X115733971Y-70307860D01*
X115733971Y-70307860D02*
X115638733Y-70450717D01*
X115638733Y-70450717D02*
X115543495Y-70545955D01*
X115543495Y-70545955D02*
X115448257Y-70593574D01*
X128873095Y-103204819D02*
X128873095Y-104014342D01*
X128873095Y-104014342D02*
X128920714Y-104109580D01*
X128920714Y-104109580D02*
X128968333Y-104157200D01*
X128968333Y-104157200D02*
X129063571Y-104204819D01*
X129063571Y-104204819D02*
X129254047Y-104204819D01*
X129254047Y-104204819D02*
X129349285Y-104157200D01*
X129349285Y-104157200D02*
X129396904Y-104109580D01*
X129396904Y-104109580D02*
X129444523Y-104014342D01*
X129444523Y-104014342D02*
X129444523Y-103204819D01*
X129825476Y-103204819D02*
X130444523Y-103204819D01*
X130444523Y-103204819D02*
X130111190Y-103585771D01*
X130111190Y-103585771D02*
X130254047Y-103585771D01*
X130254047Y-103585771D02*
X130349285Y-103633390D01*
X130349285Y-103633390D02*
X130396904Y-103681009D01*
X130396904Y-103681009D02*
X130444523Y-103776247D01*
X130444523Y-103776247D02*
X130444523Y-104014342D01*
X130444523Y-104014342D02*
X130396904Y-104109580D01*
X130396904Y-104109580D02*
X130349285Y-104157200D01*
X130349285Y-104157200D02*
X130254047Y-104204819D01*
X130254047Y-104204819D02*
X129968333Y-104204819D01*
X129968333Y-104204819D02*
X129873095Y-104157200D01*
X129873095Y-104157200D02*
X129825476Y-104109580D01*
X140356666Y-68884819D02*
X140356666Y-69599104D01*
X140356666Y-69599104D02*
X140309047Y-69741961D01*
X140309047Y-69741961D02*
X140213809Y-69837200D01*
X140213809Y-69837200D02*
X140070952Y-69884819D01*
X140070952Y-69884819D02*
X139975714Y-69884819D01*
X140737619Y-68884819D02*
X141356666Y-68884819D01*
X141356666Y-68884819D02*
X141023333Y-69265771D01*
X141023333Y-69265771D02*
X141166190Y-69265771D01*
X141166190Y-69265771D02*
X141261428Y-69313390D01*
X141261428Y-69313390D02*
X141309047Y-69361009D01*
X141309047Y-69361009D02*
X141356666Y-69456247D01*
X141356666Y-69456247D02*
X141356666Y-69694342D01*
X141356666Y-69694342D02*
X141309047Y-69789580D01*
X141309047Y-69789580D02*
X141261428Y-69837200D01*
X141261428Y-69837200D02*
X141166190Y-69884819D01*
X141166190Y-69884819D02*
X140880476Y-69884819D01*
X140880476Y-69884819D02*
X140785238Y-69837200D01*
X140785238Y-69837200D02*
X140737619Y-69789580D01*
X157573642Y-92698580D02*
X157526023Y-92746200D01*
X157526023Y-92746200D02*
X157383166Y-92793819D01*
X157383166Y-92793819D02*
X157287928Y-92793819D01*
X157287928Y-92793819D02*
X157145071Y-92746200D01*
X157145071Y-92746200D02*
X157049833Y-92650961D01*
X157049833Y-92650961D02*
X157002214Y-92555723D01*
X157002214Y-92555723D02*
X156954595Y-92365247D01*
X156954595Y-92365247D02*
X156954595Y-92222390D01*
X156954595Y-92222390D02*
X157002214Y-92031914D01*
X157002214Y-92031914D02*
X157049833Y-91936676D01*
X157049833Y-91936676D02*
X157145071Y-91841438D01*
X157145071Y-91841438D02*
X157287928Y-91793819D01*
X157287928Y-91793819D02*
X157383166Y-91793819D01*
X157383166Y-91793819D02*
X157526023Y-91841438D01*
X157526023Y-91841438D02*
X157573642Y-91889057D01*
X158526023Y-92793819D02*
X157954595Y-92793819D01*
X158240309Y-92793819D02*
X158240309Y-91793819D01*
X158240309Y-91793819D02*
X158145071Y-91936676D01*
X158145071Y-91936676D02*
X158049833Y-92031914D01*
X158049833Y-92031914D02*
X157954595Y-92079533D01*
X159002214Y-92793819D02*
X159192690Y-92793819D01*
X159192690Y-92793819D02*
X159287928Y-92746200D01*
X159287928Y-92746200D02*
X159335547Y-92698580D01*
X159335547Y-92698580D02*
X159430785Y-92555723D01*
X159430785Y-92555723D02*
X159478404Y-92365247D01*
X159478404Y-92365247D02*
X159478404Y-91984295D01*
X159478404Y-91984295D02*
X159430785Y-91889057D01*
X159430785Y-91889057D02*
X159383166Y-91841438D01*
X159383166Y-91841438D02*
X159287928Y-91793819D01*
X159287928Y-91793819D02*
X159097452Y-91793819D01*
X159097452Y-91793819D02*
X159002214Y-91841438D01*
X159002214Y-91841438D02*
X158954595Y-91889057D01*
X158954595Y-91889057D02*
X158906976Y-91984295D01*
X158906976Y-91984295D02*
X158906976Y-92222390D01*
X158906976Y-92222390D02*
X158954595Y-92317628D01*
X158954595Y-92317628D02*
X159002214Y-92365247D01*
X159002214Y-92365247D02*
X159097452Y-92412866D01*
X159097452Y-92412866D02*
X159287928Y-92412866D01*
X159287928Y-92412866D02*
X159383166Y-92365247D01*
X159383166Y-92365247D02*
X159430785Y-92317628D01*
X159430785Y-92317628D02*
X159478404Y-92222390D01*
X155698819Y-100752904D02*
X156508342Y-100752904D01*
X156508342Y-100752904D02*
X156603580Y-100705285D01*
X156603580Y-100705285D02*
X156651200Y-100657666D01*
X156651200Y-100657666D02*
X156698819Y-100562428D01*
X156698819Y-100562428D02*
X156698819Y-100371952D01*
X156698819Y-100371952D02*
X156651200Y-100276714D01*
X156651200Y-100276714D02*
X156603580Y-100229095D01*
X156603580Y-100229095D02*
X156508342Y-100181476D01*
X156508342Y-100181476D02*
X155698819Y-100181476D01*
X155794057Y-99752904D02*
X155746438Y-99705285D01*
X155746438Y-99705285D02*
X155698819Y-99610047D01*
X155698819Y-99610047D02*
X155698819Y-99371952D01*
X155698819Y-99371952D02*
X155746438Y-99276714D01*
X155746438Y-99276714D02*
X155794057Y-99229095D01*
X155794057Y-99229095D02*
X155889295Y-99181476D01*
X155889295Y-99181476D02*
X155984533Y-99181476D01*
X155984533Y-99181476D02*
X156127390Y-99229095D01*
X156127390Y-99229095D02*
X156698819Y-99800523D01*
X156698819Y-99800523D02*
X156698819Y-99181476D01*
X139829671Y-87760778D02*
X139496338Y-87284587D01*
X139258243Y-87760778D02*
X139258243Y-86760778D01*
X139258243Y-86760778D02*
X139639195Y-86760778D01*
X139639195Y-86760778D02*
X139734433Y-86808397D01*
X139734433Y-86808397D02*
X139782052Y-86856016D01*
X139782052Y-86856016D02*
X139829671Y-86951254D01*
X139829671Y-86951254D02*
X139829671Y-87094111D01*
X139829671Y-87094111D02*
X139782052Y-87189349D01*
X139782052Y-87189349D02*
X139734433Y-87236968D01*
X139734433Y-87236968D02*
X139639195Y-87284587D01*
X139639195Y-87284587D02*
X139258243Y-87284587D01*
X140163005Y-86760778D02*
X140829671Y-86760778D01*
X140829671Y-86760778D02*
X140401100Y-87760778D01*
X166716666Y-84069819D02*
X166716666Y-84784104D01*
X166716666Y-84784104D02*
X166669047Y-84926961D01*
X166669047Y-84926961D02*
X166573809Y-85022200D01*
X166573809Y-85022200D02*
X166430952Y-85069819D01*
X166430952Y-85069819D02*
X166335714Y-85069819D01*
X167145238Y-84165057D02*
X167192857Y-84117438D01*
X167192857Y-84117438D02*
X167288095Y-84069819D01*
X167288095Y-84069819D02*
X167526190Y-84069819D01*
X167526190Y-84069819D02*
X167621428Y-84117438D01*
X167621428Y-84117438D02*
X167669047Y-84165057D01*
X167669047Y-84165057D02*
X167716666Y-84260295D01*
X167716666Y-84260295D02*
X167716666Y-84355533D01*
X167716666Y-84355533D02*
X167669047Y-84498390D01*
X167669047Y-84498390D02*
X167097619Y-85069819D01*
X167097619Y-85069819D02*
X167716666Y-85069819D01*
X118273333Y-80909580D02*
X118225714Y-80957200D01*
X118225714Y-80957200D02*
X118082857Y-81004819D01*
X118082857Y-81004819D02*
X117987619Y-81004819D01*
X117987619Y-81004819D02*
X117844762Y-80957200D01*
X117844762Y-80957200D02*
X117749524Y-80861961D01*
X117749524Y-80861961D02*
X117701905Y-80766723D01*
X117701905Y-80766723D02*
X117654286Y-80576247D01*
X117654286Y-80576247D02*
X117654286Y-80433390D01*
X117654286Y-80433390D02*
X117701905Y-80242914D01*
X117701905Y-80242914D02*
X117749524Y-80147676D01*
X117749524Y-80147676D02*
X117844762Y-80052438D01*
X117844762Y-80052438D02*
X117987619Y-80004819D01*
X117987619Y-80004819D02*
X118082857Y-80004819D01*
X118082857Y-80004819D02*
X118225714Y-80052438D01*
X118225714Y-80052438D02*
X118273333Y-80100057D01*
X118749524Y-81004819D02*
X118940000Y-81004819D01*
X118940000Y-81004819D02*
X119035238Y-80957200D01*
X119035238Y-80957200D02*
X119082857Y-80909580D01*
X119082857Y-80909580D02*
X119178095Y-80766723D01*
X119178095Y-80766723D02*
X119225714Y-80576247D01*
X119225714Y-80576247D02*
X119225714Y-80195295D01*
X119225714Y-80195295D02*
X119178095Y-80100057D01*
X119178095Y-80100057D02*
X119130476Y-80052438D01*
X119130476Y-80052438D02*
X119035238Y-80004819D01*
X119035238Y-80004819D02*
X118844762Y-80004819D01*
X118844762Y-80004819D02*
X118749524Y-80052438D01*
X118749524Y-80052438D02*
X118701905Y-80100057D01*
X118701905Y-80100057D02*
X118654286Y-80195295D01*
X118654286Y-80195295D02*
X118654286Y-80433390D01*
X118654286Y-80433390D02*
X118701905Y-80528628D01*
X118701905Y-80528628D02*
X118749524Y-80576247D01*
X118749524Y-80576247D02*
X118844762Y-80623866D01*
X118844762Y-80623866D02*
X119035238Y-80623866D01*
X119035238Y-80623866D02*
X119130476Y-80576247D01*
X119130476Y-80576247D02*
X119178095Y-80528628D01*
X119178095Y-80528628D02*
X119225714Y-80433390D01*
X145322809Y-81247628D02*
X145322809Y-81723819D01*
X144989476Y-80723819D02*
X145322809Y-81247628D01*
X145322809Y-81247628D02*
X145656142Y-80723819D01*
X145941857Y-80819057D02*
X145989476Y-80771438D01*
X145989476Y-80771438D02*
X146084714Y-80723819D01*
X146084714Y-80723819D02*
X146322809Y-80723819D01*
X146322809Y-80723819D02*
X146418047Y-80771438D01*
X146418047Y-80771438D02*
X146465666Y-80819057D01*
X146465666Y-80819057D02*
X146513285Y-80914295D01*
X146513285Y-80914295D02*
X146513285Y-81009533D01*
X146513285Y-81009533D02*
X146465666Y-81152390D01*
X146465666Y-81152390D02*
X145894238Y-81723819D01*
X145894238Y-81723819D02*
X146513285Y-81723819D01*
X164948257Y-121307860D02*
X164948257Y-120307860D01*
X164948257Y-120784050D02*
X165519685Y-120784050D01*
X165519685Y-121307860D02*
X165519685Y-120307860D01*
X165900638Y-120307860D02*
X166519685Y-120307860D01*
X166519685Y-120307860D02*
X166186352Y-120688812D01*
X166186352Y-120688812D02*
X166329209Y-120688812D01*
X166329209Y-120688812D02*
X166424447Y-120736431D01*
X166424447Y-120736431D02*
X166472066Y-120784050D01*
X166472066Y-120784050D02*
X166519685Y-120879288D01*
X166519685Y-120879288D02*
X166519685Y-121117383D01*
X166519685Y-121117383D02*
X166472066Y-121212621D01*
X166472066Y-121212621D02*
X166424447Y-121260241D01*
X166424447Y-121260241D02*
X166329209Y-121307860D01*
X166329209Y-121307860D02*
X166043495Y-121307860D01*
X166043495Y-121307860D02*
X165948257Y-121260241D01*
X165948257Y-121260241D02*
X165900638Y-121212621D01*
X139434642Y-114909580D02*
X139387023Y-114957200D01*
X139387023Y-114957200D02*
X139244166Y-115004819D01*
X139244166Y-115004819D02*
X139148928Y-115004819D01*
X139148928Y-115004819D02*
X139006071Y-114957200D01*
X139006071Y-114957200D02*
X138910833Y-114861961D01*
X138910833Y-114861961D02*
X138863214Y-114766723D01*
X138863214Y-114766723D02*
X138815595Y-114576247D01*
X138815595Y-114576247D02*
X138815595Y-114433390D01*
X138815595Y-114433390D02*
X138863214Y-114242914D01*
X138863214Y-114242914D02*
X138910833Y-114147676D01*
X138910833Y-114147676D02*
X139006071Y-114052438D01*
X139006071Y-114052438D02*
X139148928Y-114004819D01*
X139148928Y-114004819D02*
X139244166Y-114004819D01*
X139244166Y-114004819D02*
X139387023Y-114052438D01*
X139387023Y-114052438D02*
X139434642Y-114100057D01*
X139815595Y-114100057D02*
X139863214Y-114052438D01*
X139863214Y-114052438D02*
X139958452Y-114004819D01*
X139958452Y-114004819D02*
X140196547Y-114004819D01*
X140196547Y-114004819D02*
X140291785Y-114052438D01*
X140291785Y-114052438D02*
X140339404Y-114100057D01*
X140339404Y-114100057D02*
X140387023Y-114195295D01*
X140387023Y-114195295D02*
X140387023Y-114290533D01*
X140387023Y-114290533D02*
X140339404Y-114433390D01*
X140339404Y-114433390D02*
X139767976Y-115004819D01*
X139767976Y-115004819D02*
X140387023Y-115004819D01*
X141006071Y-114004819D02*
X141101309Y-114004819D01*
X141101309Y-114004819D02*
X141196547Y-114052438D01*
X141196547Y-114052438D02*
X141244166Y-114100057D01*
X141244166Y-114100057D02*
X141291785Y-114195295D01*
X141291785Y-114195295D02*
X141339404Y-114385771D01*
X141339404Y-114385771D02*
X141339404Y-114623866D01*
X141339404Y-114623866D02*
X141291785Y-114814342D01*
X141291785Y-114814342D02*
X141244166Y-114909580D01*
X141244166Y-114909580D02*
X141196547Y-114957200D01*
X141196547Y-114957200D02*
X141101309Y-115004819D01*
X141101309Y-115004819D02*
X141006071Y-115004819D01*
X141006071Y-115004819D02*
X140910833Y-114957200D01*
X140910833Y-114957200D02*
X140863214Y-114909580D01*
X140863214Y-114909580D02*
X140815595Y-114814342D01*
X140815595Y-114814342D02*
X140767976Y-114623866D01*
X140767976Y-114623866D02*
X140767976Y-114385771D01*
X140767976Y-114385771D02*
X140815595Y-114195295D01*
X140815595Y-114195295D02*
X140863214Y-114100057D01*
X140863214Y-114100057D02*
X140910833Y-114052438D01*
X140910833Y-114052438D02*
X141006071Y-114004819D01*
X123410833Y-104689580D02*
X123363214Y-104737200D01*
X123363214Y-104737200D02*
X123220357Y-104784819D01*
X123220357Y-104784819D02*
X123125119Y-104784819D01*
X123125119Y-104784819D02*
X122982262Y-104737200D01*
X122982262Y-104737200D02*
X122887024Y-104641961D01*
X122887024Y-104641961D02*
X122839405Y-104546723D01*
X122839405Y-104546723D02*
X122791786Y-104356247D01*
X122791786Y-104356247D02*
X122791786Y-104213390D01*
X122791786Y-104213390D02*
X122839405Y-104022914D01*
X122839405Y-104022914D02*
X122887024Y-103927676D01*
X122887024Y-103927676D02*
X122982262Y-103832438D01*
X122982262Y-103832438D02*
X123125119Y-103784819D01*
X123125119Y-103784819D02*
X123220357Y-103784819D01*
X123220357Y-103784819D02*
X123363214Y-103832438D01*
X123363214Y-103832438D02*
X123410833Y-103880057D01*
X123791786Y-103880057D02*
X123839405Y-103832438D01*
X123839405Y-103832438D02*
X123934643Y-103784819D01*
X123934643Y-103784819D02*
X124172738Y-103784819D01*
X124172738Y-103784819D02*
X124267976Y-103832438D01*
X124267976Y-103832438D02*
X124315595Y-103880057D01*
X124315595Y-103880057D02*
X124363214Y-103975295D01*
X124363214Y-103975295D02*
X124363214Y-104070533D01*
X124363214Y-104070533D02*
X124315595Y-104213390D01*
X124315595Y-104213390D02*
X123744167Y-104784819D01*
X123744167Y-104784819D02*
X124363214Y-104784819D01*
X154073642Y-84198580D02*
X154026023Y-84246200D01*
X154026023Y-84246200D02*
X153883166Y-84293819D01*
X153883166Y-84293819D02*
X153787928Y-84293819D01*
X153787928Y-84293819D02*
X153645071Y-84246200D01*
X153645071Y-84246200D02*
X153549833Y-84150961D01*
X153549833Y-84150961D02*
X153502214Y-84055723D01*
X153502214Y-84055723D02*
X153454595Y-83865247D01*
X153454595Y-83865247D02*
X153454595Y-83722390D01*
X153454595Y-83722390D02*
X153502214Y-83531914D01*
X153502214Y-83531914D02*
X153549833Y-83436676D01*
X153549833Y-83436676D02*
X153645071Y-83341438D01*
X153645071Y-83341438D02*
X153787928Y-83293819D01*
X153787928Y-83293819D02*
X153883166Y-83293819D01*
X153883166Y-83293819D02*
X154026023Y-83341438D01*
X154026023Y-83341438D02*
X154073642Y-83389057D01*
X155026023Y-84293819D02*
X154454595Y-84293819D01*
X154740309Y-84293819D02*
X154740309Y-83293819D01*
X154740309Y-83293819D02*
X154645071Y-83436676D01*
X154645071Y-83436676D02*
X154549833Y-83531914D01*
X154549833Y-83531914D02*
X154454595Y-83579533D01*
X155883166Y-83293819D02*
X155692690Y-83293819D01*
X155692690Y-83293819D02*
X155597452Y-83341438D01*
X155597452Y-83341438D02*
X155549833Y-83389057D01*
X155549833Y-83389057D02*
X155454595Y-83531914D01*
X155454595Y-83531914D02*
X155406976Y-83722390D01*
X155406976Y-83722390D02*
X155406976Y-84103342D01*
X155406976Y-84103342D02*
X155454595Y-84198580D01*
X155454595Y-84198580D02*
X155502214Y-84246200D01*
X155502214Y-84246200D02*
X155597452Y-84293819D01*
X155597452Y-84293819D02*
X155787928Y-84293819D01*
X155787928Y-84293819D02*
X155883166Y-84246200D01*
X155883166Y-84246200D02*
X155930785Y-84198580D01*
X155930785Y-84198580D02*
X155978404Y-84103342D01*
X155978404Y-84103342D02*
X155978404Y-83865247D01*
X155978404Y-83865247D02*
X155930785Y-83770009D01*
X155930785Y-83770009D02*
X155883166Y-83722390D01*
X155883166Y-83722390D02*
X155787928Y-83674771D01*
X155787928Y-83674771D02*
X155597452Y-83674771D01*
X155597452Y-83674771D02*
X155502214Y-83722390D01*
X155502214Y-83722390D02*
X155454595Y-83770009D01*
X155454595Y-83770009D02*
X155406976Y-83865247D01*
X124223333Y-89044819D02*
X123890000Y-88568628D01*
X123651905Y-89044819D02*
X123651905Y-88044819D01*
X123651905Y-88044819D02*
X124032857Y-88044819D01*
X124032857Y-88044819D02*
X124128095Y-88092438D01*
X124128095Y-88092438D02*
X124175714Y-88140057D01*
X124175714Y-88140057D02*
X124223333Y-88235295D01*
X124223333Y-88235295D02*
X124223333Y-88378152D01*
X124223333Y-88378152D02*
X124175714Y-88473390D01*
X124175714Y-88473390D02*
X124128095Y-88521009D01*
X124128095Y-88521009D02*
X124032857Y-88568628D01*
X124032857Y-88568628D02*
X123651905Y-88568628D01*
X125175714Y-89044819D02*
X124604286Y-89044819D01*
X124890000Y-89044819D02*
X124890000Y-88044819D01*
X124890000Y-88044819D02*
X124794762Y-88187676D01*
X124794762Y-88187676D02*
X124699524Y-88282914D01*
X124699524Y-88282914D02*
X124604286Y-88330533D01*
X138073642Y-95198580D02*
X138026023Y-95246200D01*
X138026023Y-95246200D02*
X137883166Y-95293819D01*
X137883166Y-95293819D02*
X137787928Y-95293819D01*
X137787928Y-95293819D02*
X137645071Y-95246200D01*
X137645071Y-95246200D02*
X137549833Y-95150961D01*
X137549833Y-95150961D02*
X137502214Y-95055723D01*
X137502214Y-95055723D02*
X137454595Y-94865247D01*
X137454595Y-94865247D02*
X137454595Y-94722390D01*
X137454595Y-94722390D02*
X137502214Y-94531914D01*
X137502214Y-94531914D02*
X137549833Y-94436676D01*
X137549833Y-94436676D02*
X137645071Y-94341438D01*
X137645071Y-94341438D02*
X137787928Y-94293819D01*
X137787928Y-94293819D02*
X137883166Y-94293819D01*
X137883166Y-94293819D02*
X138026023Y-94341438D01*
X138026023Y-94341438D02*
X138073642Y-94389057D01*
X139026023Y-95293819D02*
X138454595Y-95293819D01*
X138740309Y-95293819D02*
X138740309Y-94293819D01*
X138740309Y-94293819D02*
X138645071Y-94436676D01*
X138645071Y-94436676D02*
X138549833Y-94531914D01*
X138549833Y-94531914D02*
X138454595Y-94579533D01*
X139359357Y-94293819D02*
X139978404Y-94293819D01*
X139978404Y-94293819D02*
X139645071Y-94674771D01*
X139645071Y-94674771D02*
X139787928Y-94674771D01*
X139787928Y-94674771D02*
X139883166Y-94722390D01*
X139883166Y-94722390D02*
X139930785Y-94770009D01*
X139930785Y-94770009D02*
X139978404Y-94865247D01*
X139978404Y-94865247D02*
X139978404Y-95103342D01*
X139978404Y-95103342D02*
X139930785Y-95198580D01*
X139930785Y-95198580D02*
X139883166Y-95246200D01*
X139883166Y-95246200D02*
X139787928Y-95293819D01*
X139787928Y-95293819D02*
X139502214Y-95293819D01*
X139502214Y-95293819D02*
X139406976Y-95246200D01*
X139406976Y-95246200D02*
X139359357Y-95198580D01*
X156215595Y-121834819D02*
X156215595Y-122644342D01*
X156215595Y-122644342D02*
X156263214Y-122739580D01*
X156263214Y-122739580D02*
X156310833Y-122787200D01*
X156310833Y-122787200D02*
X156406071Y-122834819D01*
X156406071Y-122834819D02*
X156596547Y-122834819D01*
X156596547Y-122834819D02*
X156691785Y-122787200D01*
X156691785Y-122787200D02*
X156739404Y-122739580D01*
X156739404Y-122739580D02*
X156787023Y-122644342D01*
X156787023Y-122644342D02*
X156787023Y-121834819D01*
X157787023Y-122834819D02*
X157215595Y-122834819D01*
X157501309Y-122834819D02*
X157501309Y-121834819D01*
X157501309Y-121834819D02*
X157406071Y-121977676D01*
X157406071Y-121977676D02*
X157310833Y-122072914D01*
X157310833Y-122072914D02*
X157215595Y-122120533D01*
X130659642Y-74909580D02*
X130612023Y-74957200D01*
X130612023Y-74957200D02*
X130469166Y-75004819D01*
X130469166Y-75004819D02*
X130373928Y-75004819D01*
X130373928Y-75004819D02*
X130231071Y-74957200D01*
X130231071Y-74957200D02*
X130135833Y-74861961D01*
X130135833Y-74861961D02*
X130088214Y-74766723D01*
X130088214Y-74766723D02*
X130040595Y-74576247D01*
X130040595Y-74576247D02*
X130040595Y-74433390D01*
X130040595Y-74433390D02*
X130088214Y-74242914D01*
X130088214Y-74242914D02*
X130135833Y-74147676D01*
X130135833Y-74147676D02*
X130231071Y-74052438D01*
X130231071Y-74052438D02*
X130373928Y-74004819D01*
X130373928Y-74004819D02*
X130469166Y-74004819D01*
X130469166Y-74004819D02*
X130612023Y-74052438D01*
X130612023Y-74052438D02*
X130659642Y-74100057D01*
X131612023Y-75004819D02*
X131040595Y-75004819D01*
X131326309Y-75004819D02*
X131326309Y-74004819D01*
X131326309Y-74004819D02*
X131231071Y-74147676D01*
X131231071Y-74147676D02*
X131135833Y-74242914D01*
X131135833Y-74242914D02*
X131040595Y-74290533D01*
X132183452Y-74433390D02*
X132088214Y-74385771D01*
X132088214Y-74385771D02*
X132040595Y-74338152D01*
X132040595Y-74338152D02*
X131992976Y-74242914D01*
X131992976Y-74242914D02*
X131992976Y-74195295D01*
X131992976Y-74195295D02*
X132040595Y-74100057D01*
X132040595Y-74100057D02*
X132088214Y-74052438D01*
X132088214Y-74052438D02*
X132183452Y-74004819D01*
X132183452Y-74004819D02*
X132373928Y-74004819D01*
X132373928Y-74004819D02*
X132469166Y-74052438D01*
X132469166Y-74052438D02*
X132516785Y-74100057D01*
X132516785Y-74100057D02*
X132564404Y-74195295D01*
X132564404Y-74195295D02*
X132564404Y-74242914D01*
X132564404Y-74242914D02*
X132516785Y-74338152D01*
X132516785Y-74338152D02*
X132469166Y-74385771D01*
X132469166Y-74385771D02*
X132373928Y-74433390D01*
X132373928Y-74433390D02*
X132183452Y-74433390D01*
X132183452Y-74433390D02*
X132088214Y-74481009D01*
X132088214Y-74481009D02*
X132040595Y-74528628D01*
X132040595Y-74528628D02*
X131992976Y-74623866D01*
X131992976Y-74623866D02*
X131992976Y-74814342D01*
X131992976Y-74814342D02*
X132040595Y-74909580D01*
X132040595Y-74909580D02*
X132088214Y-74957200D01*
X132088214Y-74957200D02*
X132183452Y-75004819D01*
X132183452Y-75004819D02*
X132373928Y-75004819D01*
X132373928Y-75004819D02*
X132469166Y-74957200D01*
X132469166Y-74957200D02*
X132516785Y-74909580D01*
X132516785Y-74909580D02*
X132564404Y-74814342D01*
X132564404Y-74814342D02*
X132564404Y-74623866D01*
X132564404Y-74623866D02*
X132516785Y-74528628D01*
X132516785Y-74528628D02*
X132469166Y-74481009D01*
X132469166Y-74481009D02*
X132373928Y-74433390D01*
X130934642Y-70909580D02*
X130887023Y-70957200D01*
X130887023Y-70957200D02*
X130744166Y-71004819D01*
X130744166Y-71004819D02*
X130648928Y-71004819D01*
X130648928Y-71004819D02*
X130506071Y-70957200D01*
X130506071Y-70957200D02*
X130410833Y-70861961D01*
X130410833Y-70861961D02*
X130363214Y-70766723D01*
X130363214Y-70766723D02*
X130315595Y-70576247D01*
X130315595Y-70576247D02*
X130315595Y-70433390D01*
X130315595Y-70433390D02*
X130363214Y-70242914D01*
X130363214Y-70242914D02*
X130410833Y-70147676D01*
X130410833Y-70147676D02*
X130506071Y-70052438D01*
X130506071Y-70052438D02*
X130648928Y-70004819D01*
X130648928Y-70004819D02*
X130744166Y-70004819D01*
X130744166Y-70004819D02*
X130887023Y-70052438D01*
X130887023Y-70052438D02*
X130934642Y-70100057D01*
X131887023Y-71004819D02*
X131315595Y-71004819D01*
X131601309Y-71004819D02*
X131601309Y-70004819D01*
X131601309Y-70004819D02*
X131506071Y-70147676D01*
X131506071Y-70147676D02*
X131410833Y-70242914D01*
X131410833Y-70242914D02*
X131315595Y-70290533D01*
X132839404Y-71004819D02*
X132267976Y-71004819D01*
X132553690Y-71004819D02*
X132553690Y-70004819D01*
X132553690Y-70004819D02*
X132458452Y-70147676D01*
X132458452Y-70147676D02*
X132363214Y-70242914D01*
X132363214Y-70242914D02*
X132267976Y-70290533D01*
X105026309Y-142518628D02*
X105026309Y-142994819D01*
X104692976Y-141994819D02*
X105026309Y-142518628D01*
X105026309Y-142518628D02*
X105359642Y-141994819D01*
X106216785Y-142994819D02*
X105645357Y-142994819D01*
X105931071Y-142994819D02*
X105931071Y-141994819D01*
X105931071Y-141994819D02*
X105835833Y-142137676D01*
X105835833Y-142137676D02*
X105740595Y-142232914D01*
X105740595Y-142232914D02*
X105645357Y-142280533D01*
D11*
%TO.C,R5*%
X127662936Y-107505000D02*
X128117064Y-107505000D01*
X127662936Y-108975000D02*
X128117064Y-108975000D01*
%TO.C,L2*%
X127879758Y-112920000D02*
X128700242Y-112920000D01*
X127879758Y-114040000D02*
X128700242Y-114040000D01*
%TO.C,C6*%
X119243733Y-107230000D02*
X119536267Y-107230000D01*
X119243733Y-108250000D02*
X119536267Y-108250000D01*
%TO.C,L1*%
X116979758Y-84680000D02*
X117800242Y-84680000D01*
X116979758Y-85800000D02*
X117800242Y-85800000D01*
%TO.C,C12*%
X147096233Y-89120000D02*
X147388767Y-89120000D01*
X147096233Y-90140000D02*
X147388767Y-90140000D01*
%TO.C,R3*%
X112212936Y-92745000D02*
X112667064Y-92745000D01*
X112212936Y-94215000D02*
X112667064Y-94215000D01*
%TO.C,C1*%
X123431233Y-71470000D02*
X123723767Y-71470000D01*
X123431233Y-72490000D02*
X123723767Y-72490000D01*
D10*
%TO.C,J1*%
X110415000Y-97180000D02*
X111015000Y-97180000D01*
X110415000Y-104980000D02*
X110415000Y-97180000D01*
X111015000Y-104980000D02*
X110415000Y-104980000D01*
X113915000Y-104980000D02*
X114515000Y-104980000D01*
X114515000Y-97180000D02*
X113915000Y-97180000D01*
X114515000Y-104980000D02*
X114515000Y-97180000D01*
X114815000Y-103180000D02*
X114815000Y-102180000D01*
D11*
%TO.C,SW1*%
X125230000Y-120330000D02*
X125230000Y-120480000D01*
X125230000Y-122980000D02*
X125230000Y-122480000D01*
X125230000Y-125480000D02*
X125230000Y-124980000D01*
X125230000Y-127630000D02*
X125230000Y-127480000D01*
X125230000Y-127630000D02*
X133180000Y-127630000D01*
X133180000Y-120330000D02*
X125230000Y-120330000D01*
X133180000Y-127630000D02*
X133180000Y-120330000D01*
%TO.C,C3*%
X121453733Y-97560000D02*
X121746267Y-97560000D01*
X121453733Y-98580000D02*
X121746267Y-98580000D01*
%TO.C,C10*%
X112431233Y-83470000D02*
X112723767Y-83470000D01*
X112431233Y-84490000D02*
X112723767Y-84490000D01*
%TO.C,C17*%
X149931233Y-70970000D02*
X150223767Y-70970000D01*
X149931233Y-71990000D02*
X150223767Y-71990000D01*
%TO.C,C8*%
X150656233Y-118970000D02*
X150948767Y-118970000D01*
X150656233Y-119990000D02*
X150948767Y-119990000D01*
%TO.C,R4*%
X162312936Y-102505000D02*
X162767064Y-102505000D01*
X162312936Y-103975000D02*
X162767064Y-103975000D01*
%TO.C,C14*%
X125656233Y-76970000D02*
X125948767Y-76970000D01*
X125656233Y-77990000D02*
X125948767Y-77990000D01*
%TO.C,C5*%
X143431233Y-111470000D02*
X143723767Y-111470000D01*
X143431233Y-112490000D02*
X143723767Y-112490000D01*
%TO.C,R2*%
X158135000Y-98032936D02*
X158135000Y-98487064D01*
X159605000Y-98032936D02*
X159605000Y-98487064D01*
%TO.C,C7*%
X161566233Y-105610000D02*
X161858767Y-105610000D01*
X161566233Y-106630000D02*
X161858767Y-106630000D01*
%TO.C,C4*%
X139802733Y-92299000D02*
X140095267Y-92299000D01*
X139802733Y-93319000D02*
X140095267Y-93319000D01*
%TO.C,C15*%
X128793733Y-80970000D02*
X129086267Y-80970000D01*
X128793733Y-81990000D02*
X129086267Y-81990000D01*
%TO.C,U3*%
X127575000Y-94035000D02*
X131695000Y-94035000D01*
X127575000Y-94100000D02*
X127575000Y-94035000D01*
X127575000Y-102905000D02*
X127575000Y-102840000D01*
X131695000Y-94035000D02*
X131695000Y-94100000D01*
X131695000Y-102840000D02*
X131695000Y-102905000D01*
X131695000Y-102905000D02*
X127575000Y-102905000D01*
X132475000Y-103170000D02*
X131995000Y-103170000D01*
X132235000Y-102840000D01*
X132475000Y-103170000D01*
G36*
X132475000Y-103170000D02*
G01*
X131995000Y-103170000D01*
X132235000Y-102840000D01*
X132475000Y-103170000D01*
G37*
%TO.C,J3*%
X136590000Y-70230000D02*
X136590000Y-71480000D01*
X136890000Y-72780000D02*
X137640000Y-72780000D01*
X137640000Y-72780000D02*
X137640000Y-75730000D01*
X137640000Y-75730000D02*
X140690000Y-75730000D01*
X137840000Y-70230000D02*
X136590000Y-70230000D01*
X143740000Y-72780000D02*
X143740000Y-75730000D01*
X143740000Y-75730000D02*
X140690000Y-75730000D01*
X144490000Y-72780000D02*
X143740000Y-72780000D01*
X136880000Y-70520000D02*
X144500000Y-70520000D01*
X144500000Y-76490000D01*
X136880000Y-76490000D01*
X136880000Y-70520000D01*
X136890000Y-70530000D02*
X138690000Y-70530000D01*
X138690000Y-71280000D01*
X136890000Y-71280000D01*
X136890000Y-70530000D01*
X140190000Y-70530000D02*
X141190000Y-70530000D01*
X141190000Y-71280000D01*
X140190000Y-71280000D01*
X140190000Y-70530000D01*
X142690000Y-70530000D02*
X144490000Y-70530000D01*
X144490000Y-71280000D01*
X142690000Y-71280000D01*
X142690000Y-70530000D01*
%TO.C,C19*%
X158070233Y-93259000D02*
X158362767Y-93259000D01*
X158070233Y-94279000D02*
X158362767Y-94279000D01*
%TO.C,U2*%
X143734000Y-94881000D02*
X144684000Y-94881000D01*
X143734000Y-95831000D02*
X143734000Y-94881000D01*
X143734000Y-105101000D02*
X143734000Y-104151000D01*
X144684000Y-105101000D02*
X143734000Y-105101000D01*
X153004000Y-94881000D02*
X153954000Y-94881000D01*
X153954000Y-94881000D02*
X153954000Y-95831000D01*
X153954000Y-104151000D02*
X153954000Y-105101000D01*
X153954000Y-105101000D02*
X153004000Y-105101000D01*
X153474000Y-94581000D02*
X153004000Y-94241000D01*
X153474000Y-93901000D01*
X153474000Y-94581000D01*
G36*
X153474000Y-94581000D02*
G01*
X153004000Y-94241000D01*
X153474000Y-93901000D01*
X153474000Y-94581000D01*
G37*
%TO.C,R7*%
X154351936Y-91034000D02*
X154806064Y-91034000D01*
X154351936Y-92504000D02*
X154806064Y-92504000D01*
%TO.C,J2*%
X163960000Y-85680000D02*
X165235000Y-85680000D01*
X165235000Y-85615000D02*
X165235000Y-85680000D01*
X165235000Y-85615000D02*
X168865000Y-85615000D01*
X165235000Y-98470000D02*
X165235000Y-98535000D01*
X165235000Y-98535000D02*
X168865000Y-98535000D01*
X168865000Y-85615000D02*
X168865000Y-85680000D01*
X168865000Y-98470000D02*
X168865000Y-98535000D01*
%TO.C,C9*%
X118293733Y-81470000D02*
X118586267Y-81470000D01*
X118293733Y-82490000D02*
X118586267Y-82490000D01*
%TO.C,Y2*%
X145561000Y-82407000D02*
G75*
G02*
X146037000Y-82407000I238000J-566042D01*
G01*
X146037000Y-83531000D02*
G75*
G02*
X145561000Y-83531000I-238000J566042D01*
G01*
%TO.C,C20*%
X139931233Y-115470000D02*
X140223767Y-115470000D01*
X139931233Y-116490000D02*
X140223767Y-116490000D01*
%TO.C,C2*%
X123723767Y-102390000D02*
X123431233Y-102390000D01*
X123723767Y-103410000D02*
X123431233Y-103410000D01*
%TO.C,C16*%
X154570233Y-84759000D02*
X154862767Y-84759000D01*
X154570233Y-85779000D02*
X154862767Y-85779000D01*
%TO.C,R1*%
X124162936Y-89505000D02*
X124617064Y-89505000D01*
X124162936Y-90975000D02*
X124617064Y-90975000D01*
%TO.C,C13*%
X138570233Y-95759000D02*
X138862767Y-95759000D01*
X138570233Y-96779000D02*
X138862767Y-96779000D01*
%TO.C,U1*%
X156067500Y-123220000D02*
X157887500Y-123220000D01*
X156067500Y-123270000D02*
X156067500Y-123220000D01*
X156067500Y-126340000D02*
X156067500Y-126290000D01*
X157887500Y-123220000D02*
X157887500Y-123270000D01*
X157887500Y-124390000D02*
X157887500Y-125170000D01*
X157887500Y-126290000D02*
X157887500Y-126340000D01*
X157887500Y-126340000D02*
X156067500Y-126340000D01*
X155527500Y-123270000D02*
X155287500Y-122940000D01*
X155767500Y-122940000D01*
X155527500Y-123270000D01*
G36*
X155527500Y-123270000D02*
G01*
X155287500Y-122940000D01*
X155767500Y-122940000D01*
X155527500Y-123270000D01*
G37*
%TO.C,C18*%
X131156233Y-75470000D02*
X131448767Y-75470000D01*
X131156233Y-76490000D02*
X131448767Y-76490000D01*
%TO.C,C11*%
X131431233Y-71470000D02*
X131723767Y-71470000D01*
X131431233Y-72490000D02*
X131723767Y-72490000D01*
%TO.C,Y1*%
X119264500Y-112178000D02*
G75*
G02*
X119740500Y-112178000I238000J-566042D01*
G01*
X119740500Y-113302000D02*
G75*
G02*
X119264500Y-113302000I-238000J566042D01*
G01*
%TO.C,R6*%
X168212936Y-114745000D02*
X168667064Y-114745000D01*
X168212936Y-116215000D02*
X168667064Y-116215000D01*
%TD*%
M02*
