%TF.GenerationSoftware,KiCad,Pcbnew,9.0.7*%
%TF.CreationDate,2026-02-23T22:26:49+01:00*%
%TF.ProjectId,SOS_Schematic (4),534f535f-5363-4686-956d-617469632028,rev?*%
%TF.SameCoordinates,Original*%
%TF.FileFunction,Copper,L1,Top*%
%TF.FilePolarity,Positive*%
%FSLAX46Y46*%
G04 Gerber Fmt 4.6, Leading zero omitted, Abs format (unit mm)*
G04 Created by KiCad (PCBNEW 9.0.7) date 2026-02-23 22:26:49*
%MOMM*%
%LPD*%
G01*
G04 APERTURE LIST*
G04 Aperture macros list*
%AMRoundRect*
0 Rectangle with rounded corners*
0 $1 Rounding radius*
0 $2 $3 $4 $5 $6 $7 $8 $9 X,Y pos of 4 corners*
0 Add a 4 corners polygon primitive as box body*
4,1,4,$2,$3,$4,$5,$6,$7,$8,$9,$2,$3,0*
0 Add four circle primitives for the rounded corners*
1,1,$1+$1,$2,$3*
1,1,$1+$1,$4,$5*
1,1,$1+$1,$6,$7*
1,1,$1+$1,$8,$9*
0 Add four rect primitives between the rounded corners*
20,1,$1+$1,$2,$3,$4,$5,0*
20,1,$1+$1,$4,$5,$6,$7,0*
20,1,$1+$1,$6,$7,$8,$9,0*
20,1,$1+$1,$8,$9,$2,$3,0*%
G04 Aperture macros list end*
%TA.AperFunction,Conductor*%
%ADD10C,0.200000*%
%TD*%
%ADD11C,0.300000*%
%TA.AperFunction,NonConductor*%
%ADD12C,0.300000*%
%TD*%
%TA.AperFunction,SMDPad,CuDef*%
%ADD13RoundRect,0.250000X-0.350000X-0.450000X0.350000X-0.450000X0.350000X0.450000X-0.350000X0.450000X0*%
%TD*%
%TA.AperFunction,SMDPad,CuDef*%
%ADD14RoundRect,0.250000X-0.275000X-0.350000X0.275000X-0.350000X0.275000X0.350000X-0.275000X0.350000X0*%
%TD*%
%TA.AperFunction,SMDPad,CuDef*%
%ADD15RoundRect,0.237500X-0.300000X-0.237500X0.300000X-0.237500X0.300000X0.237500X-0.300000X0.237500X0*%
%TD*%
%TA.AperFunction,ComponentPad*%
%ADD16C,5.600000*%
%TD*%
%TA.AperFunction,ComponentPad*%
%ADD17R,1.100000X1.100000*%
%TD*%
%TA.AperFunction,ComponentPad*%
%ADD18C,1.100000*%
%TD*%
%TA.AperFunction,ComponentPad*%
%ADD19O,2.400000X1.100000*%
%TD*%
%TA.AperFunction,ComponentPad*%
%ADD20C,1.600000*%
%TD*%
%TA.AperFunction,ComponentPad*%
%ADD21RoundRect,0.400000X0.400000X0.400000X-0.400000X0.400000X-0.400000X-0.400000X0.400000X-0.400000X0*%
%TD*%
%TA.AperFunction,SMDPad,CuDef*%
%ADD22RoundRect,0.250000X-0.450000X0.350000X-0.450000X-0.350000X0.450000X-0.350000X0.450000X0.350000X0*%
%TD*%
%TA.AperFunction,SMDPad,CuDef*%
%ADD23RoundRect,0.150000X0.825000X0.150000X-0.825000X0.150000X-0.825000X-0.150000X0.825000X-0.150000X0*%
%TD*%
%TA.AperFunction,ComponentPad*%
%ADD24RoundRect,0.250000X-0.600000X-0.750000X0.600000X-0.750000X0.600000X0.750000X-0.600000X0.750000X0*%
%TD*%
%TA.AperFunction,ComponentPad*%
%ADD25O,1.700000X2.000000*%
%TD*%
%TA.AperFunction,SMDPad,CuDef*%
%ADD26RoundRect,0.075000X-0.075000X0.700000X-0.075000X-0.700000X0.075000X-0.700000X0.075000X0.700000X0*%
%TD*%
%TA.AperFunction,SMDPad,CuDef*%
%ADD27RoundRect,0.075000X-0.700000X0.075000X-0.700000X-0.075000X0.700000X-0.075000X0.700000X0.075000X0*%
%TD*%
%TA.AperFunction,SMDPad,CuDef*%
%ADD28R,2.400000X0.740000*%
%TD*%
%TA.AperFunction,ComponentPad*%
%ADD29C,1.000000*%
%TD*%
%TA.AperFunction,SMDPad,CuDef*%
%ADD30RoundRect,0.237500X0.300000X0.237500X-0.300000X0.237500X-0.300000X-0.237500X0.300000X-0.237500X0*%
%TD*%
%TA.AperFunction,SMDPad,CuDef*%
%ADD31RoundRect,0.150000X-0.512500X-0.150000X0.512500X-0.150000X0.512500X0.150000X-0.512500X0.150000X0*%
%TD*%
%TA.AperFunction,ViaPad*%
%ADD32C,0.800000*%
%TD*%
%TA.AperFunction,Conductor*%
%ADD33C,0.100000*%
%TD*%
%TA.AperFunction,Conductor*%
%ADD34C,0.300000*%
%TD*%
%TA.AperFunction,Conductor*%
%ADD35C,0.500000*%
%TD*%
G04 APERTURE END LIST*
D10*
%TO.N,GND*%
X166120000Y-128960000D02*
X164100000Y-128960000D01*
D11*
D12*
X170520225Y-123395828D02*
X171377368Y-123395828D01*
X170948796Y-124895828D02*
X170948796Y-123395828D01*
D11*
D12*
X153694510Y-118190828D02*
X153694510Y-116690828D01*
X153694510Y-116690828D02*
X154265939Y-116690828D01*
X154265939Y-116690828D02*
X154408796Y-116762257D01*
X154408796Y-116762257D02*
X154480225Y-116833685D01*
X154480225Y-116833685D02*
X154551653Y-116976542D01*
X154551653Y-116976542D02*
X154551653Y-117190828D01*
X154551653Y-117190828D02*
X154480225Y-117333685D01*
X154480225Y-117333685D02*
X154408796Y-117405114D01*
X154408796Y-117405114D02*
X154265939Y-117476542D01*
X154265939Y-117476542D02*
X153694510Y-117476542D01*
X155194510Y-118190828D02*
X155194510Y-117190828D01*
X155194510Y-117476542D02*
X155265939Y-117333685D01*
X155265939Y-117333685D02*
X155337368Y-117262257D01*
X155337368Y-117262257D02*
X155480225Y-117190828D01*
X155480225Y-117190828D02*
X155623082Y-117190828D01*
X156337367Y-118190828D02*
X156194510Y-118119400D01*
X156194510Y-118119400D02*
X156123081Y-118047971D01*
X156123081Y-118047971D02*
X156051653Y-117905114D01*
X156051653Y-117905114D02*
X156051653Y-117476542D01*
X156051653Y-117476542D02*
X156123081Y-117333685D01*
X156123081Y-117333685D02*
X156194510Y-117262257D01*
X156194510Y-117262257D02*
X156337367Y-117190828D01*
X156337367Y-117190828D02*
X156551653Y-117190828D01*
X156551653Y-117190828D02*
X156694510Y-117262257D01*
X156694510Y-117262257D02*
X156765939Y-117333685D01*
X156765939Y-117333685D02*
X156837367Y-117476542D01*
X156837367Y-117476542D02*
X156837367Y-117905114D01*
X156837367Y-117905114D02*
X156765939Y-118047971D01*
X156765939Y-118047971D02*
X156694510Y-118119400D01*
X156694510Y-118119400D02*
X156551653Y-118190828D01*
X156551653Y-118190828D02*
X156337367Y-118190828D01*
X157480224Y-117190828D02*
X157480224Y-118476542D01*
X157480224Y-118476542D02*
X157408796Y-118619400D01*
X157408796Y-118619400D02*
X157265939Y-118690828D01*
X157265939Y-118690828D02*
X157194510Y-118690828D01*
X157480224Y-116690828D02*
X157408796Y-116762257D01*
X157408796Y-116762257D02*
X157480224Y-116833685D01*
X157480224Y-116833685D02*
X157551653Y-116762257D01*
X157551653Y-116762257D02*
X157480224Y-116690828D01*
X157480224Y-116690828D02*
X157480224Y-116833685D01*
X158765939Y-118119400D02*
X158623082Y-118190828D01*
X158623082Y-118190828D02*
X158337368Y-118190828D01*
X158337368Y-118190828D02*
X158194510Y-118119400D01*
X158194510Y-118119400D02*
X158123082Y-117976542D01*
X158123082Y-117976542D02*
X158123082Y-117405114D01*
X158123082Y-117405114D02*
X158194510Y-117262257D01*
X158194510Y-117262257D02*
X158337368Y-117190828D01*
X158337368Y-117190828D02*
X158623082Y-117190828D01*
X158623082Y-117190828D02*
X158765939Y-117262257D01*
X158765939Y-117262257D02*
X158837368Y-117405114D01*
X158837368Y-117405114D02*
X158837368Y-117547971D01*
X158837368Y-117547971D02*
X158123082Y-117690828D01*
X159265939Y-117190828D02*
X159837367Y-117190828D01*
X159480224Y-116690828D02*
X159480224Y-117976542D01*
X159480224Y-117976542D02*
X159551653Y-118119400D01*
X159551653Y-118119400D02*
X159694510Y-118190828D01*
X159694510Y-118190828D02*
X159837367Y-118190828D01*
X161408796Y-118119400D02*
X161623082Y-118190828D01*
X161623082Y-118190828D02*
X161980224Y-118190828D01*
X161980224Y-118190828D02*
X162123082Y-118119400D01*
X162123082Y-118119400D02*
X162194510Y-118047971D01*
X162194510Y-118047971D02*
X162265939Y-117905114D01*
X162265939Y-117905114D02*
X162265939Y-117762257D01*
X162265939Y-117762257D02*
X162194510Y-117619400D01*
X162194510Y-117619400D02*
X162123082Y-117547971D01*
X162123082Y-117547971D02*
X161980224Y-117476542D01*
X161980224Y-117476542D02*
X161694510Y-117405114D01*
X161694510Y-117405114D02*
X161551653Y-117333685D01*
X161551653Y-117333685D02*
X161480224Y-117262257D01*
X161480224Y-117262257D02*
X161408796Y-117119400D01*
X161408796Y-117119400D02*
X161408796Y-116976542D01*
X161408796Y-116976542D02*
X161480224Y-116833685D01*
X161480224Y-116833685D02*
X161551653Y-116762257D01*
X161551653Y-116762257D02*
X161694510Y-116690828D01*
X161694510Y-116690828D02*
X162051653Y-116690828D01*
X162051653Y-116690828D02*
X162265939Y-116762257D01*
X163194510Y-116690828D02*
X163480224Y-116690828D01*
X163480224Y-116690828D02*
X163623081Y-116762257D01*
X163623081Y-116762257D02*
X163765938Y-116905114D01*
X163765938Y-116905114D02*
X163837367Y-117190828D01*
X163837367Y-117190828D02*
X163837367Y-117690828D01*
X163837367Y-117690828D02*
X163765938Y-117976542D01*
X163765938Y-117976542D02*
X163623081Y-118119400D01*
X163623081Y-118119400D02*
X163480224Y-118190828D01*
X163480224Y-118190828D02*
X163194510Y-118190828D01*
X163194510Y-118190828D02*
X163051653Y-118119400D01*
X163051653Y-118119400D02*
X162908795Y-117976542D01*
X162908795Y-117976542D02*
X162837367Y-117690828D01*
X162837367Y-117690828D02*
X162837367Y-117190828D01*
X162837367Y-117190828D02*
X162908795Y-116905114D01*
X162908795Y-116905114D02*
X163051653Y-116762257D01*
X163051653Y-116762257D02*
X163194510Y-116690828D01*
X164408796Y-118119400D02*
X164623082Y-118190828D01*
X164623082Y-118190828D02*
X164980224Y-118190828D01*
X164980224Y-118190828D02*
X165123082Y-118119400D01*
X165123082Y-118119400D02*
X165194510Y-118047971D01*
X165194510Y-118047971D02*
X165265939Y-117905114D01*
X165265939Y-117905114D02*
X165265939Y-117762257D01*
X165265939Y-117762257D02*
X165194510Y-117619400D01*
X165194510Y-117619400D02*
X165123082Y-117547971D01*
X165123082Y-117547971D02*
X164980224Y-117476542D01*
X164980224Y-117476542D02*
X164694510Y-117405114D01*
X164694510Y-117405114D02*
X164551653Y-117333685D01*
X164551653Y-117333685D02*
X164480224Y-117262257D01*
X164480224Y-117262257D02*
X164408796Y-117119400D01*
X164408796Y-117119400D02*
X164408796Y-116976542D01*
X164408796Y-116976542D02*
X164480224Y-116833685D01*
X164480224Y-116833685D02*
X164551653Y-116762257D01*
X164551653Y-116762257D02*
X164694510Y-116690828D01*
X164694510Y-116690828D02*
X165051653Y-116690828D01*
X165051653Y-116690828D02*
X165265939Y-116762257D01*
%TD*%
D13*
%TO.P,R5,1*%
%TO.N,GND*%
X126890000Y-108240000D03*
%TO.P,R5,2*%
%TO.N,Net-(J2-Pin_17)*%
X128890000Y-108240000D03*
%TD*%
D14*
%TO.P,L2,1*%
%TO.N,+3.3VA*%
X127140000Y-113480000D03*
%TO.P,L2,2*%
%TO.N,+3.3V*%
X129440000Y-113480000D03*
%TD*%
D15*
%TO.P,C6,1*%
%TO.N,Net-(U3-XTAL2)*%
X118527500Y-107740000D03*
%TO.P,C6,2*%
%TO.N,GND*%
X120252500Y-107740000D03*
%TD*%
D14*
%TO.P,L1,1*%
%TO.N,Net-(U3-TX1)*%
X116240000Y-85240000D03*
%TO.P,L1,2*%
%TO.N,Net-(C5-Pad2)*%
X118540000Y-85240000D03*
%TD*%
D15*
%TO.P,C12,1*%
%TO.N,GND*%
X146380000Y-89630000D03*
%TO.P,C12,2*%
%TO.N,+3.3VA*%
X148105000Y-89630000D03*
%TD*%
D13*
%TO.P,R3,1*%
%TO.N,Net-(J1-ID)*%
X111440000Y-93480000D03*
%TO.P,R3,2*%
%TO.N,GND*%
X113440000Y-93480000D03*
%TD*%
D15*
%TO.P,C1,1*%
%TO.N,GND*%
X122715000Y-71980000D03*
%TO.P,C1,2*%
%TO.N,+3.3V*%
X124440000Y-71980000D03*
%TD*%
D16*
%TO.P,H2,1,1*%
%TO.N,GND*%
X165210162Y-74603041D03*
%TD*%
D17*
%TO.P,J1,1,VBUS*%
%TO.N,+5V*%
X113315000Y-102680000D03*
D18*
%TO.P,J1,2,D-*%
%TO.N,USBDM*%
X111565000Y-101880000D03*
%TO.P,J1,3,D+*%
%TO.N,USBDP*%
X113315000Y-101080000D03*
%TO.P,J1,4,ID*%
%TO.N,Net-(J1-ID)*%
X111565000Y-100280000D03*
%TO.P,J1,5,GND*%
%TO.N,GND*%
X113315000Y-99480000D03*
D19*
%TO.P,J1,6,Shield*%
X112440000Y-104730000D03*
X112440000Y-97430000D03*
%TD*%
D20*
%TO.P,SW1,*%
%TO.N,*%
X130430000Y-121440000D03*
X130430000Y-126520000D03*
D21*
%TO.P,SW1,1,A*%
%TO.N,+5V*%
X125350000Y-121440000D03*
D20*
%TO.P,SW1,2,B*%
%TO.N,Net-(SW1-B)*%
X125350000Y-123980000D03*
%TO.P,SW1,3,C*%
%TO.N,GND*%
X125350000Y-126520000D03*
%TD*%
D15*
%TO.P,C3,1*%
%TO.N,Net-(U3-CEXT)*%
X120737500Y-98070000D03*
%TO.P,C3,2*%
%TO.N,GND*%
X122462500Y-98070000D03*
%TD*%
%TO.P,C10,1*%
%TO.N,+3.3V*%
X111715000Y-83980000D03*
%TO.P,C10,2*%
%TO.N,GND*%
X113440000Y-83980000D03*
%TD*%
%TO.P,C17,1*%
%TO.N,+5V*%
X149215000Y-71480000D03*
%TO.P,C17,2*%
%TO.N,GND*%
X150940000Y-71480000D03*
%TD*%
%TO.P,C8,1*%
%TO.N,GND*%
X149940000Y-119480000D03*
%TO.P,C8,2*%
%TO.N,Net-(U3-XTAL1)*%
X151665000Y-119480000D03*
%TD*%
D16*
%TO.P,H4,1,1*%
%TO.N,GND*%
X115210162Y-124603041D03*
%TD*%
D13*
%TO.P,R4,1*%
%TO.N,GND*%
X161540000Y-103240000D03*
%TO.P,R4,2*%
%TO.N,Net-(J2-Pin_11)*%
X163540000Y-103240000D03*
%TD*%
D15*
%TO.P,C14,1*%
%TO.N,+3.3V*%
X124940000Y-77480000D03*
%TO.P,C14,2*%
%TO.N,GND*%
X126665000Y-77480000D03*
%TD*%
%TO.P,C5,1*%
%TO.N,Net-(U3-TX2)*%
X142715000Y-111980000D03*
%TO.P,C5,2*%
%TO.N,Net-(C5-Pad2)*%
X144440000Y-111980000D03*
%TD*%
D22*
%TO.P,R2,1*%
%TO.N,GND*%
X158870000Y-97260000D03*
%TO.P,R2,2*%
%TO.N,Net-(U2-BOOT0)*%
X158870000Y-99260000D03*
%TD*%
D15*
%TO.P,C7,1*%
%TO.N,GND*%
X160850000Y-106120000D03*
%TO.P,C7,2*%
%TO.N,NRST*%
X162575000Y-106120000D03*
%TD*%
%TO.P,C4,1*%
%TO.N,GND*%
X139086500Y-92809000D03*
%TO.P,C4,2*%
%TO.N,+3.3V*%
X140811500Y-92809000D03*
%TD*%
D16*
%TO.P,H1,1,1*%
%TO.N,GND*%
X115210162Y-74603041D03*
%TD*%
D15*
%TO.P,C15,1*%
%TO.N,GND*%
X128077500Y-81480000D03*
%TO.P,C15,2*%
%TO.N,+3.3V*%
X129802500Y-81480000D03*
%TD*%
D23*
%TO.P,U3,1,VSS*%
%TO.N,GND*%
X132110000Y-102280000D03*
%TO.P,U3,2,TX2*%
%TO.N,Net-(U3-TX2)*%
X132110000Y-101010000D03*
%TO.P,U3,3,VDD*%
%TO.N,+3.3V*%
X132110000Y-99740000D03*
%TO.P,U3,4,TX1*%
%TO.N,Net-(U3-TX1)*%
X132110000Y-98470000D03*
%TO.P,U3,5,MODE*%
%TO.N,GND*%
X132110000Y-97200000D03*
%TO.P,U3,6,XTAL1*%
%TO.N,Net-(U3-XTAL1)*%
X132110000Y-95930000D03*
%TO.P,U3,7,XTAL2*%
%TO.N,Net-(U3-XTAL2)*%
X132110000Y-94660000D03*
%TO.P,U3,8,SCLK*%
%TO.N,SPI1_SCK*%
X127160000Y-94660000D03*
%TO.P,U3,9,DIN*%
%TO.N,SPI1_MOSI*%
X127160000Y-95930000D03*
%TO.P,U3,10,DOUT*%
%TO.N,SPI1_MISO*%
X127160000Y-97200000D03*
%TO.P,U3,11*%
%TO.N,N/C*%
X127160000Y-98470000D03*
%TO.P,U3,12,CEXT*%
%TO.N,Net-(U3-CEXT)*%
X127160000Y-99740000D03*
%TO.P,U3,13,QGND*%
%TO.N,Net-(U3-QGND)*%
X127160000Y-101010000D03*
%TO.P,U3,14,RX*%
%TO.N,Net-(U3-RX)*%
X127160000Y-102280000D03*
%TD*%
D24*
%TO.P,J3,1,Pin_1*%
%TO.N,GND*%
X139440000Y-72980000D03*
D25*
%TO.P,J3,2,Pin_2*%
%TO.N,+5V*%
X141940000Y-72980000D03*
%TD*%
D15*
%TO.P,C19,1*%
%TO.N,Net-(C19-Pad1)*%
X157354000Y-93769000D03*
%TO.P,C19,2*%
%TO.N,GND*%
X159079000Y-93769000D03*
%TD*%
D26*
%TO.P,U2,1,VBAT*%
%TO.N,+3.3V*%
X152594000Y-94316000D03*
%TO.P,U2,2,PC13*%
%TO.N,unconnected-(U2-PC13-Pad2)*%
X152094000Y-94316000D03*
%TO.P,U2,3,PC14*%
%TO.N,unconnected-(U2-PC14-Pad3)*%
X151594000Y-94316000D03*
%TO.P,U2,4,PC15*%
%TO.N,unconnected-(U2-PC15-Pad4)*%
X151094000Y-94316000D03*
%TO.P,U2,5,PH0*%
%TO.N,OSC_IN*%
X150594000Y-94316000D03*
%TO.P,U2,6,PH1*%
%TO.N,OSC_OUT*%
X150094000Y-94316000D03*
%TO.P,U2,7,NRST*%
%TO.N,NRST*%
X149594000Y-94316000D03*
%TO.P,U2,8,PC0*%
%TO.N,unconnected-(U2-PC0-Pad8)*%
X149094000Y-94316000D03*
%TO.P,U2,9,PC1*%
%TO.N,unconnected-(U2-PC1-Pad9)*%
X148594000Y-94316000D03*
%TO.P,U2,10,PC2*%
%TO.N,unconnected-(U2-PC2-Pad10)*%
X148094000Y-94316000D03*
%TO.P,U2,11,PC3*%
%TO.N,unconnected-(U2-PC3-Pad11)*%
X147594000Y-94316000D03*
%TO.P,U2,12,VSSA*%
%TO.N,GND*%
X147094000Y-94316000D03*
%TO.P,U2,13,VDDA*%
%TO.N,+3.3VA*%
X146594000Y-94316000D03*
%TO.P,U2,14,PA0*%
%TO.N,unconnected-(U2-PA0-Pad14)*%
X146094000Y-94316000D03*
%TO.P,U2,15,PA1*%
%TO.N,unconnected-(U2-PA1-Pad15)*%
X145594000Y-94316000D03*
%TO.P,U2,16,PA2*%
%TO.N,unconnected-(U2-PA2-Pad16)*%
X145094000Y-94316000D03*
D27*
%TO.P,U2,17,PA3*%
%TO.N,unconnected-(U2-PA3-Pad17)*%
X143169000Y-96241000D03*
%TO.P,U2,18,VSS*%
%TO.N,GND*%
X143169000Y-96741000D03*
%TO.P,U2,19,VDD*%
%TO.N,+3.3V*%
X143169000Y-97241000D03*
%TO.P,U2,20,PA4*%
%TO.N,unconnected-(U2-PA4-Pad20)*%
X143169000Y-97741000D03*
%TO.P,U2,21,PA5*%
%TO.N,SPI1_SCK*%
X143169000Y-98241000D03*
%TO.P,U2,22,PA6*%
%TO.N,SPI1_MISO*%
X143169000Y-98741000D03*
%TO.P,U2,23,PA7*%
%TO.N,SPI1_MOSI*%
X143169000Y-99241000D03*
%TO.P,U2,24,PC4*%
%TO.N,unconnected-(U2-PC4-Pad24)*%
X143169000Y-99741000D03*
%TO.P,U2,25,PC5*%
%TO.N,unconnected-(U2-PC5-Pad25)*%
X143169000Y-100241000D03*
%TO.P,U2,26,PB0*%
%TO.N,unconnected-(U2-PB0-Pad26)*%
X143169000Y-100741000D03*
%TO.P,U2,27,PB1*%
%TO.N,unconnected-(U2-PB1-Pad27)*%
X143169000Y-101241000D03*
%TO.P,U2,28,PB2*%
%TO.N,unconnected-(U2-PB2-Pad28)*%
X143169000Y-101741000D03*
%TO.P,U2,29,PB10*%
%TO.N,unconnected-(U2-PB10-Pad29)*%
X143169000Y-102241000D03*
%TO.P,U2,30,PB11*%
%TO.N,unconnected-(U2-PB11-Pad30)*%
X143169000Y-102741000D03*
%TO.P,U2,31,VSS*%
%TO.N,GND*%
X143169000Y-103241000D03*
%TO.P,U2,32,VDD*%
%TO.N,+3.3V*%
X143169000Y-103741000D03*
D26*
%TO.P,U2,33,PB12*%
%TO.N,unconnected-(U2-PB12-Pad33)*%
X145094000Y-105666000D03*
%TO.P,U2,34,PB13*%
%TO.N,unconnected-(U2-PB13-Pad34)*%
X145594000Y-105666000D03*
%TO.P,U2,35,PB14*%
%TO.N,unconnected-(U2-PB14-Pad35)*%
X146094000Y-105666000D03*
%TO.P,U2,36,PB15*%
%TO.N,unconnected-(U2-PB15-Pad36)*%
X146594000Y-105666000D03*
%TO.P,U2,37,PC6*%
%TO.N,unconnected-(U2-PC6-Pad37)*%
X147094000Y-105666000D03*
%TO.P,U2,38,PC7*%
%TO.N,unconnected-(U2-PC7-Pad38)*%
X147594000Y-105666000D03*
%TO.P,U2,39,PC8*%
%TO.N,unconnected-(U2-PC8-Pad39)*%
X148094000Y-105666000D03*
%TO.P,U2,40,PC9*%
%TO.N,unconnected-(U2-PC9-Pad40)*%
X148594000Y-105666000D03*
%TO.P,U2,41,PA8*%
%TO.N,unconnected-(U2-PA8-Pad41)*%
X149094000Y-105666000D03*
%TO.P,U2,42,PA9*%
%TO.N,unconnected-(U2-PA9-Pad42)*%
X149594000Y-105666000D03*
%TO.P,U2,43,PA10*%
%TO.N,unconnected-(U2-PA10-Pad43)*%
X150094000Y-105666000D03*
%TO.P,U2,44,PA11*%
%TO.N,USBDM*%
X150594000Y-105666000D03*
%TO.P,U2,45,PA12*%
%TO.N,USBDP*%
X151094000Y-105666000D03*
%TO.P,U2,46,PA13*%
%TO.N,SWDIO*%
X151594000Y-105666000D03*
%TO.P,U2,47,VSS*%
%TO.N,GND*%
X152094000Y-105666000D03*
%TO.P,U2,48,VDDUSB*%
%TO.N,+3.3V*%
X152594000Y-105666000D03*
D27*
%TO.P,U2,49,PA14*%
%TO.N,SWDCK*%
X154519000Y-103741000D03*
%TO.P,U2,50,PA15*%
%TO.N,TDI*%
X154519000Y-103241000D03*
%TO.P,U2,51,PC10*%
%TO.N,unconnected-(U2-PC10-Pad51)*%
X154519000Y-102741000D03*
%TO.P,U2,52,PC11*%
%TO.N,unconnected-(U2-PC11-Pad52)*%
X154519000Y-102241000D03*
%TO.P,U2,53,PC12*%
%TO.N,unconnected-(U2-PC12-Pad53)*%
X154519000Y-101741000D03*
%TO.P,U2,54,PD2*%
%TO.N,unconnected-(U2-PD2-Pad54)*%
X154519000Y-101241000D03*
%TO.P,U2,55,PB3*%
%TO.N,TDO*%
X154519000Y-100741000D03*
%TO.P,U2,56,PB4*%
%TO.N,TRST*%
X154519000Y-100241000D03*
%TO.P,U2,57,PB5*%
%TO.N,unconnected-(U2-PB5-Pad57)*%
X154519000Y-99741000D03*
%TO.P,U2,58,PB6*%
%TO.N,unconnected-(U2-PB6-Pad58)*%
X154519000Y-99241000D03*
%TO.P,U2,59,PB7*%
%TO.N,unconnected-(U2-PB7-Pad59)*%
X154519000Y-98741000D03*
%TO.P,U2,60,BOOT0*%
%TO.N,Net-(U2-BOOT0)*%
X154519000Y-98241000D03*
%TO.P,U2,61,PB8*%
%TO.N,unconnected-(U2-PB8-Pad61)*%
X154519000Y-97741000D03*
%TO.P,U2,62,PB9*%
%TO.N,unconnected-(U2-PB9-Pad62)*%
X154519000Y-97241000D03*
%TO.P,U2,63,VSS*%
%TO.N,GND*%
X154519000Y-96741000D03*
%TO.P,U2,64,VDD*%
%TO.N,+3.3V*%
X154519000Y-96241000D03*
%TD*%
D13*
%TO.P,R7,1*%
%TO.N,OSC_OUT*%
X153579000Y-91769000D03*
%TO.P,R7,2*%
%TO.N,Net-(C19-Pad1)*%
X155579000Y-91769000D03*
%TD*%
D28*
%TO.P,J2,1,Pin_1*%
%TO.N,+3.3V*%
X165100000Y-86360000D03*
%TO.P,J2,2,Pin_2*%
X169000000Y-86360000D03*
%TO.P,J2,3,Pin_3*%
%TO.N,TRST*%
X165100000Y-87630000D03*
%TO.P,J2,4,Pin_4*%
%TO.N,GND*%
X169000000Y-87630000D03*
%TO.P,J2,5,Pin_5*%
%TO.N,TDI*%
X165100000Y-88900000D03*
%TO.P,J2,6,Pin_6*%
%TO.N,GND*%
X169000000Y-88900000D03*
%TO.P,J2,7,Pin_7*%
%TO.N,SWDIO*%
X165100000Y-90170000D03*
%TO.P,J2,8,Pin_8*%
%TO.N,GND*%
X169000000Y-90170000D03*
%TO.P,J2,9,Pin_9*%
%TO.N,SWDCK*%
X165100000Y-91440000D03*
%TO.P,J2,10,Pin_10*%
%TO.N,GND*%
X169000000Y-91440000D03*
%TO.P,J2,11,Pin_11*%
%TO.N,Net-(J2-Pin_11)*%
X165100000Y-92710000D03*
%TO.P,J2,12,Pin_12*%
%TO.N,GND*%
X169000000Y-92710000D03*
%TO.P,J2,13,Pin_13*%
%TO.N,TDO*%
X165100000Y-93980000D03*
%TO.P,J2,14,Pin_14*%
%TO.N,GND*%
X169000000Y-93980000D03*
%TO.P,J2,15,Pin_15*%
%TO.N,NRST*%
X165100000Y-95250000D03*
%TO.P,J2,16,Pin_16*%
%TO.N,GND*%
X169000000Y-95250000D03*
%TO.P,J2,17,Pin_17*%
%TO.N,Net-(J2-Pin_17)*%
X165100000Y-96520000D03*
%TO.P,J2,18,Pin_18*%
%TO.N,GND*%
X169000000Y-96520000D03*
%TO.P,J2,19,Pin_19*%
%TO.N,Net-(J2-Pin_19)*%
X165100000Y-97790000D03*
%TO.P,J2,20,Pin_20*%
%TO.N,GND*%
X169000000Y-97790000D03*
%TD*%
D15*
%TO.P,C9,1*%
%TO.N,GND*%
X117577500Y-81980000D03*
%TO.P,C9,2*%
%TO.N,+3.3V*%
X119302500Y-81980000D03*
%TD*%
D29*
%TO.P,Y2,1,1*%
%TO.N,Net-(C19-Pad1)*%
X145049000Y-82969000D03*
%TO.P,Y2,2,2*%
%TO.N,OSC_IN*%
X146549000Y-82969000D03*
%TD*%
D16*
%TO.P,H3,1,1*%
%TO.N,GND*%
X165710162Y-124603041D03*
%TD*%
D15*
%TO.P,C20,1*%
%TO.N,+3.3V*%
X139215000Y-115980000D03*
%TO.P,C20,2*%
%TO.N,GND*%
X140940000Y-115980000D03*
%TD*%
D30*
%TO.P,C2,1*%
%TO.N,Net-(U3-QGND)*%
X124440000Y-102900000D03*
%TO.P,C2,2*%
%TO.N,GND*%
X122715000Y-102900000D03*
%TD*%
D15*
%TO.P,C16,1*%
%TO.N,GND*%
X153854000Y-85269000D03*
%TO.P,C16,2*%
%TO.N,OSC_IN*%
X155579000Y-85269000D03*
%TD*%
D13*
%TO.P,R1,1*%
%TO.N,Net-(C5-Pad2)*%
X123390000Y-90240000D03*
%TO.P,R1,2*%
%TO.N,Net-(U3-RX)*%
X125390000Y-90240000D03*
%TD*%
D15*
%TO.P,C13,1*%
%TO.N,+3.3VA*%
X137854000Y-96269000D03*
%TO.P,C13,2*%
%TO.N,GND*%
X139579000Y-96269000D03*
%TD*%
D31*
%TO.P,U1,1,VIN*%
%TO.N,+5V*%
X155840000Y-123830000D03*
%TO.P,U1,2,GND*%
%TO.N,GND*%
X155840000Y-124780000D03*
%TO.P,U1,3,~{SHDN}*%
%TO.N,Net-(SW1-B)*%
X155840000Y-125730000D03*
%TO.P,U1,4,NC*%
%TO.N,unconnected-(U1-NC-Pad4)*%
X158115000Y-125730000D03*
%TO.P,U1,5,VOUT*%
%TO.N,+3.3V*%
X158115000Y-123830000D03*
%TD*%
D15*
%TO.P,C18,1*%
%TO.N,+3.3V*%
X130440000Y-75980000D03*
%TO.P,C18,2*%
%TO.N,GND*%
X132165000Y-75980000D03*
%TD*%
%TO.P,C11,1*%
%TO.N,+3.3V*%
X130715000Y-71980000D03*
%TO.P,C11,2*%
%TO.N,GND*%
X132440000Y-71980000D03*
%TD*%
D29*
%TO.P,Y1,1,1*%
%TO.N,Net-(U3-XTAL2)*%
X118752500Y-112740000D03*
%TO.P,Y1,2,2*%
%TO.N,Net-(U3-XTAL1)*%
X120252500Y-112740000D03*
%TD*%
D13*
%TO.P,R6,1*%
%TO.N,Net-(J2-Pin_19)*%
X167440000Y-115480000D03*
%TO.P,R6,2*%
%TO.N,GND*%
X169440000Y-115480000D03*
%TD*%
D32*
%TO.N,GND*%
X134770000Y-93710000D03*
X126500000Y-86720000D03*
X126500000Y-79650000D03*
X118960000Y-93700000D03*
X127140000Y-115850000D03*
X142950000Y-115570000D03*
X148780000Y-115510000D03*
X154410000Y-108860000D03*
X154410000Y-115420000D03*
X159850000Y-108860000D03*
X159710000Y-115280000D03*
X159810000Y-122100000D03*
X165040000Y-80220000D03*
X159650000Y-80030000D03*
X154530000Y-80030000D03*
X134720000Y-79660000D03*
X119130000Y-121970000D03*
X119440000Y-79580000D03*
X159630000Y-74620000D03*
X154360000Y-74600000D03*
X149370000Y-74640000D03*
X134580000Y-74620000D03*
X119400000Y-74910000D03*
X111160000Y-88620000D03*
X111130000Y-86720000D03*
X111240000Y-82240000D03*
X111160000Y-80390000D03*
X111190000Y-78270000D03*
X111210000Y-76060000D03*
X111200000Y-90660000D03*
X111190000Y-73830000D03*
X111950000Y-71880000D03*
X113440000Y-70610000D03*
X111180000Y-106240000D03*
X111170000Y-108280000D03*
X111170000Y-110390000D03*
X111170000Y-112580000D03*
X111170000Y-114820000D03*
X111170000Y-117150000D03*
X111170000Y-119110000D03*
X111170000Y-121030000D03*
X111170000Y-123030000D03*
X111170000Y-124920000D03*
X111220000Y-126870000D03*
X112590000Y-128960000D03*
X114900000Y-128960000D03*
X116980000Y-128960000D03*
X118710000Y-128960000D03*
X120470000Y-128960000D03*
X122260000Y-128960000D03*
X124040000Y-128960000D03*
X126080000Y-128960000D03*
X128240000Y-128960000D03*
X130310000Y-128960000D03*
X132340000Y-128960000D03*
X134380000Y-128960000D03*
X136080000Y-128960000D03*
X137840000Y-128960000D03*
X139800000Y-128960000D03*
X141710000Y-128960000D03*
X143660000Y-128960000D03*
X145400000Y-128960000D03*
X147220000Y-128960000D03*
X149300000Y-128960000D03*
X151450000Y-128960000D03*
X153650000Y-128960000D03*
X155840000Y-128960000D03*
X157820000Y-128960000D03*
X160120000Y-128960000D03*
X162120000Y-128960000D03*
X164100000Y-128960000D03*
X166090000Y-128940000D03*
X168490000Y-127660000D03*
X170170000Y-125340000D03*
X170160000Y-122600000D03*
X170170000Y-120060000D03*
X170170000Y-117640000D03*
X170170000Y-113780000D03*
X170180000Y-111780000D03*
X170180000Y-109820000D03*
X170220000Y-107800000D03*
X170180000Y-105720000D03*
X170170000Y-103700000D03*
X170170000Y-101850000D03*
X170180000Y-99750000D03*
X170150000Y-83860000D03*
X170200000Y-81500000D03*
X170200000Y-79560000D03*
X170200000Y-77780000D03*
X167280000Y-69750000D03*
X165320000Y-69750000D03*
X163390000Y-69750000D03*
X161300000Y-69780000D03*
X159340000Y-69750000D03*
X157440000Y-69780000D03*
X170170000Y-75650000D03*
X155420000Y-69770000D03*
X153160000Y-69740000D03*
X151090000Y-69760000D03*
X148930000Y-69760000D03*
X146800000Y-69760000D03*
X144630000Y-69770000D03*
X142660000Y-69790000D03*
X140630000Y-69750000D03*
X138570000Y-69720000D03*
X136550000Y-69770000D03*
X134700000Y-69780000D03*
X116970000Y-69770000D03*
X115230000Y-69770000D03*
X129956000Y-102229486D03*
X153035000Y-95885000D03*
X120650000Y-109220000D03*
X134151223Y-97321223D03*
X124460000Y-110490000D03*
X151765000Y-90170000D03*
X154305000Y-88900000D03*
X141605000Y-95885000D03*
X123190000Y-100440000D03*
X137160000Y-92710000D03*
X124460000Y-97790000D03*
X156210000Y-95250000D03*
%TO.N,+3.3V*%
X139700000Y-114300000D03*
X142240000Y-106042000D03*
%TO.N,Net-(C5-Pad2)*%
X131445000Y-107950000D03*
X121285000Y-89535000D03*
%TO.N,Net-(U3-TX2)*%
X135890000Y-108585000D03*
X130178106Y-100961894D03*
%TO.N,Net-(U3-XTAL2)*%
X125131753Y-98461753D03*
%TO.N,NRST*%
X165100000Y-105410000D03*
X163366236Y-96017345D03*
%TO.N,Net-(U3-XTAL1)*%
X134410000Y-96050000D03*
X139190000Y-110060000D03*
%TO.N,+3.3VA*%
X139700000Y-99891000D03*
X136525000Y-97155000D03*
%TO.N,+5V*%
X116350000Y-102510000D03*
X135060000Y-84790000D03*
%TO.N,USBDM*%
X123190000Y-113030000D03*
X109220000Y-102870000D03*
%TO.N,USBDP*%
X149860000Y-107590000D03*
X123190000Y-105410000D03*
%TO.N,TDO*%
X163160000Y-95090000D03*
X156210000Y-100841000D03*
%TO.N,Net-(J2-Pin_17)*%
X132080000Y-113030000D03*
X163351599Y-97378102D03*
%TO.N,SWDIO*%
X151710000Y-107490000D03*
X163160000Y-100330000D03*
%TO.N,SPI1_MOSI*%
X128810000Y-95660000D03*
X135530000Y-102040000D03*
%TO.N,SPI1_MISO*%
X129130000Y-97480000D03*
X134380000Y-101080000D03*
%TO.N,GND*%
X118580000Y-69770000D03*
X120190000Y-69770000D03*
X121780000Y-69770000D03*
X123220000Y-69750000D03*
X124740000Y-69770000D03*
X126470000Y-69770000D03*
X128060000Y-69770000D03*
X129500000Y-69770000D03*
X131190000Y-69750000D03*
X132900000Y-69800000D03*
X169210000Y-71280000D03*
X170150000Y-73570000D03*
X144780000Y-89535000D03*
%TD*%
D33*
%TO.N,+3.3V*%
X149600000Y-79805000D02*
X145915000Y-79805000D01*
%TO.N,GND*%
X111170000Y-106250000D02*
X111180000Y-106240000D01*
%TO.N,+3.3V*%
X140811500Y-84908500D02*
X145925000Y-79795000D01*
X159000000Y-86360000D02*
X152445000Y-79805000D01*
X152445000Y-79805000D02*
X149600000Y-79805000D01*
X145915000Y-79805000D02*
X140811500Y-84908500D01*
X169000000Y-86360000D02*
X159000000Y-86360000D01*
X140811500Y-84908500D02*
X140811500Y-92809000D01*
%TO.N,GND*%
X160328000Y-106642000D02*
X152295001Y-106642000D01*
X147094000Y-93571000D02*
X149860000Y-90805000D01*
X122742500Y-97790000D02*
X122462500Y-98070000D01*
X129956000Y-102229486D02*
X130072831Y-102346317D01*
X152094000Y-106440999D02*
X152094000Y-105666000D01*
X150495000Y-88900000D02*
X147110000Y-88900000D01*
X142410000Y-103241000D02*
X141819000Y-103832000D01*
X129956000Y-102229486D02*
X130057514Y-102331000D01*
X132059000Y-102331000D02*
X132110000Y-102280000D01*
X156315000Y-97260000D02*
X158870000Y-97260000D01*
X158073000Y-95250000D02*
X157480000Y-95250000D01*
X137160000Y-92710000D02*
X137259000Y-92809000D01*
X146285000Y-89535000D02*
X146380000Y-89630000D01*
X149940000Y-119480000D02*
X150616000Y-120156000D01*
X151765000Y-90170000D02*
X150495000Y-88900000D01*
X128077500Y-81800000D02*
X128077500Y-81480000D01*
X158870000Y-97260000D02*
X158351000Y-96741000D01*
X147110000Y-88900000D02*
X146380000Y-89630000D01*
X155796000Y-96741000D02*
X156315000Y-97260000D01*
X157480000Y-95250000D02*
X156210000Y-95250000D01*
X153854000Y-88449000D02*
X154305000Y-88900000D01*
X150616000Y-120156000D02*
X164764000Y-120156000D01*
X159079000Y-94244000D02*
X158073000Y-95250000D01*
X147094000Y-95476000D02*
X145829000Y-96741000D01*
X155840000Y-124780000D02*
X160140000Y-124780000D01*
X132110000Y-97200000D02*
X134030000Y-97200000D01*
X153035000Y-96327000D02*
X153449000Y-96741000D01*
X139579000Y-96269000D02*
X141221000Y-96269000D01*
X149860000Y-89535000D02*
X148590000Y-88265000D01*
X130072831Y-102346317D02*
X130698683Y-102346317D01*
X140051000Y-96741000D02*
X143169000Y-96741000D01*
X159079000Y-93769000D02*
X159079000Y-94244000D01*
X154519000Y-96741000D02*
X155796000Y-96741000D01*
X152295001Y-106642000D02*
X152094000Y-106440999D01*
X153035000Y-95885000D02*
X153035000Y-96327000D01*
X149860000Y-90805000D02*
X149860000Y-89535000D01*
X147094000Y-94316000D02*
X147094000Y-93571000D01*
X139086500Y-92809000D02*
X128077500Y-81800000D01*
X153854000Y-85269000D02*
X153854000Y-88449000D01*
X141819000Y-103832000D02*
X131298000Y-103832000D01*
X153449000Y-96741000D02*
X154519000Y-96741000D01*
X134030000Y-97200000D02*
X134151223Y-97321223D01*
X124460000Y-97790000D02*
X122742500Y-97790000D01*
X120650000Y-109220000D02*
X120650000Y-108137500D01*
X120650000Y-108137500D02*
X120252500Y-107740000D01*
X131298000Y-103832000D02*
X126890000Y-108240000D01*
X143169000Y-103241000D02*
X142410000Y-103241000D01*
X141221000Y-96269000D02*
X141605000Y-95885000D01*
X164764000Y-120156000D02*
X169440000Y-115480000D01*
X160850000Y-106120000D02*
X160328000Y-106642000D01*
X148590000Y-88265000D02*
X146685000Y-88265000D01*
X146380000Y-88570000D02*
X146380000Y-89630000D01*
X130057514Y-102331000D02*
X132059000Y-102331000D01*
X124640000Y-110490000D02*
X124460000Y-110490000D01*
X147094000Y-94316000D02*
X147094000Y-95476000D01*
X145829000Y-96741000D02*
X143169000Y-96741000D01*
X137259000Y-92809000D02*
X139086500Y-92809000D01*
X122715000Y-102900000D02*
X122715000Y-100915000D01*
X126890000Y-108240000D02*
X124640000Y-110490000D01*
X160140000Y-124780000D02*
X169440000Y-115480000D01*
X122715000Y-100915000D02*
X123190000Y-100440000D01*
X146685000Y-88265000D02*
X146380000Y-88570000D01*
X139579000Y-96269000D02*
X140051000Y-96741000D01*
%TO.N,+3.3V*%
X160020000Y-90738000D02*
X160020000Y-94615000D01*
X139215000Y-115980000D02*
X144520000Y-121285000D01*
D34*
X118228500Y-83054000D02*
X119302500Y-81980000D01*
D33*
X142193000Y-97790000D02*
X137450000Y-97790000D01*
X129560000Y-113480000D02*
X132060000Y-115980000D01*
X142193000Y-97549598D02*
X142193000Y-97790000D01*
X142240000Y-104670000D02*
X142240000Y-106042000D01*
X143020000Y-97390000D02*
X142352598Y-97390000D01*
X154519000Y-96241000D02*
X152594000Y-94316000D01*
X143169000Y-97241000D02*
X143020000Y-97390000D01*
X165100000Y-86360000D02*
X164398000Y-86360000D01*
X152594000Y-104891001D02*
X151443999Y-103741000D01*
X129440000Y-113480000D02*
X129560000Y-113480000D01*
X144145000Y-103432402D02*
X144145000Y-97442001D01*
X129390000Y-113430000D02*
X129440000Y-113480000D01*
X155570000Y-121285000D02*
X158115000Y-123830000D01*
X138775000Y-93635000D02*
X139985500Y-93635000D01*
X158394000Y-96241000D02*
X154519000Y-96241000D01*
X151443999Y-103741000D02*
X143169000Y-103741000D01*
X160020000Y-94615000D02*
X158394000Y-96241000D01*
D34*
X130715000Y-71980000D02*
X130715000Y-75705000D01*
D33*
X135312000Y-97098000D02*
X138775000Y-93635000D01*
D34*
X124940000Y-76980000D02*
X124440000Y-76480000D01*
X112641000Y-83054000D02*
X118228500Y-83054000D01*
D33*
X143836402Y-103741000D02*
X144145000Y-103432402D01*
D34*
X120440000Y-81980000D02*
X124940000Y-77480000D01*
D33*
X144145000Y-97442001D02*
X143943999Y-97241000D01*
D34*
X130715000Y-71980000D02*
X124440000Y-71980000D01*
D33*
X164398000Y-86360000D02*
X160020000Y-90738000D01*
X144520000Y-121285000D02*
X155570000Y-121285000D01*
X133689000Y-98721000D02*
X133954944Y-98721000D01*
D34*
X130715000Y-75705000D02*
X130440000Y-75980000D01*
X130440000Y-75980000D02*
X130440000Y-80842500D01*
D33*
X135500000Y-99740000D02*
X132110000Y-99740000D01*
D34*
X119302500Y-81980000D02*
X120440000Y-81980000D01*
X111715000Y-83980000D02*
X112641000Y-83054000D01*
X124440000Y-76480000D02*
X124440000Y-71980000D01*
X129802500Y-81480000D02*
X129802500Y-81800000D01*
D33*
X135312000Y-97363944D02*
X135312000Y-97098000D01*
D34*
X129802500Y-81800000D02*
X140811500Y-92809000D01*
D33*
X165100000Y-86360000D02*
X169000000Y-86360000D01*
X142352598Y-97390000D02*
X142193000Y-97549598D01*
X152594000Y-105666000D02*
X152594000Y-104891001D01*
X143943999Y-97241000D02*
X143169000Y-97241000D01*
X139700000Y-114300000D02*
X139215000Y-114785000D01*
D34*
X124940000Y-77480000D02*
X124940000Y-76980000D01*
D33*
X139985500Y-93635000D02*
X140811500Y-92809000D01*
X132060000Y-115980000D02*
X139215000Y-115980000D01*
X139215000Y-114785000D02*
X139215000Y-115980000D01*
X133954944Y-98721000D02*
X135312000Y-97363944D01*
X143169000Y-103741000D02*
X143836402Y-103741000D01*
D34*
X130440000Y-80842500D02*
X129802500Y-81480000D01*
D33*
X137450000Y-97790000D02*
X135500000Y-99740000D01*
X132110000Y-99740000D02*
X132670000Y-99740000D01*
X132670000Y-99740000D02*
X133689000Y-98721000D01*
X143169000Y-103741000D02*
X142240000Y-104670000D01*
D34*
%TO.N,Net-(U3-QGND)*%
X124440000Y-102900000D02*
X126330000Y-101010000D01*
X128134999Y-101010000D02*
X127160000Y-101010000D01*
X126330000Y-101010000D02*
X127160000Y-101010000D01*
%TO.N,Net-(U3-CEXT)*%
X122407500Y-99740000D02*
X120737500Y-98070000D01*
X126920000Y-99500000D02*
X127160000Y-99740000D01*
X127160000Y-99740000D02*
X122407500Y-99740000D01*
%TO.N,Net-(C5-Pad2)*%
X123390000Y-90090000D02*
X118540000Y-85240000D01*
D33*
X121990000Y-90240000D02*
X123390000Y-90240000D01*
D34*
X123390000Y-90240000D02*
X123390000Y-90090000D01*
D33*
X140410000Y-107950000D02*
X131445000Y-107950000D01*
X144440000Y-111980000D02*
X140410000Y-107950000D01*
X121285000Y-89535000D02*
X121990000Y-90240000D01*
%TO.N,Net-(U3-TX2)*%
X139320000Y-108585000D02*
X142715000Y-111980000D01*
X132110000Y-101010000D02*
X130226212Y-101010000D01*
X135890000Y-108585000D02*
X139320000Y-108585000D01*
X130226212Y-101010000D02*
X130178106Y-100961894D01*
%TO.N,Net-(U3-XTAL2)*%
X118752500Y-107965000D02*
X118527500Y-107740000D01*
X126185454Y-94159000D02*
X125131753Y-95212701D01*
X118752500Y-112740000D02*
X118752500Y-107965000D01*
X125131753Y-95212701D02*
X125131753Y-98461753D01*
X131609000Y-94159000D02*
X126185454Y-94159000D01*
X132110000Y-94660000D02*
X131609000Y-94159000D01*
%TO.N,NRST*%
X165100000Y-105410000D02*
X163830000Y-105410000D01*
X154487498Y-105444000D02*
X152400000Y-103356502D01*
X152400000Y-96520000D02*
X151130000Y-96520000D01*
X163830000Y-105410000D02*
X163120000Y-106120000D01*
X161899000Y-105444000D02*
X154487498Y-105444000D01*
X163120000Y-106120000D02*
X162575000Y-106120000D01*
X149594000Y-95090999D02*
X149594000Y-94316000D01*
X152400000Y-103356502D02*
X152400000Y-96520000D01*
X162845000Y-105850000D02*
X162575000Y-106120000D01*
X164133581Y-95250000D02*
X163366236Y-96017345D01*
X165100000Y-95250000D02*
X164133581Y-95250000D01*
X151023001Y-96520000D02*
X149594000Y-95090999D01*
X162575000Y-106120000D02*
X161899000Y-105444000D01*
X151130000Y-96520000D02*
X151023001Y-96520000D01*
D34*
%TO.N,Net-(U3-XTAL1)*%
X134410000Y-96050000D02*
X132230000Y-96050000D01*
X132230000Y-96050000D02*
X132110000Y-95930000D01*
X124562603Y-107265000D02*
X129256000Y-102571602D01*
X130684000Y-96381001D02*
X131135001Y-95930000D01*
X130232000Y-99003000D02*
X130684000Y-98551000D01*
D33*
X151665000Y-119480000D02*
X148690000Y-116505000D01*
D34*
X130684000Y-98551000D02*
X130684000Y-96381001D01*
D33*
X145635000Y-116505000D02*
X139190000Y-110060000D01*
X148690000Y-116505000D02*
X145635000Y-116505000D01*
D34*
X129256000Y-100475388D02*
X130232000Y-99499388D01*
X123875000Y-107265000D02*
X124562603Y-107265000D01*
X130232000Y-99499388D02*
X130232000Y-99003000D01*
X129256000Y-102571602D02*
X129256000Y-100475388D01*
X120252500Y-112740000D02*
X120252500Y-110887500D01*
X120115000Y-112877500D02*
X120252500Y-112740000D01*
X131135001Y-95930000D02*
X132110000Y-95930000D01*
X120252500Y-110887500D02*
X123875000Y-107265000D01*
D33*
%TO.N,+3.3VA*%
X146347534Y-93190000D02*
X146594000Y-93436466D01*
X122920346Y-113681000D02*
X122539000Y-113299654D01*
X148105000Y-89630000D02*
X143699000Y-94036000D01*
X122539000Y-111075552D02*
X130033552Y-103581000D01*
X130033552Y-103581000D02*
X136010000Y-103581000D01*
X122539000Y-113299654D02*
X122539000Y-111075552D01*
X127140000Y-113480000D02*
X126939000Y-113681000D01*
X143699000Y-94036000D02*
X140087000Y-94036000D01*
X140087000Y-94036000D02*
X137854000Y-96269000D01*
X136968000Y-97155000D02*
X137854000Y-96269000D01*
X144840466Y-93190000D02*
X146347534Y-93190000D01*
X139286500Y-94836500D02*
X143193966Y-94836500D01*
X143193966Y-94836500D02*
X144840466Y-93190000D01*
X136525000Y-97155000D02*
X136968000Y-97155000D01*
X126939000Y-113681000D02*
X122920346Y-113681000D01*
X136010000Y-103581000D02*
X139700000Y-99891000D01*
X146594000Y-93436466D02*
X146594000Y-94316000D01*
X137854000Y-96269000D02*
X139286500Y-94836500D01*
%TO.N,OSC_IN*%
X150594000Y-93541001D02*
X151415001Y-92720000D01*
X156845076Y-94495000D02*
X158010924Y-94495000D01*
D34*
X155579000Y-85269000D02*
X153279000Y-82969000D01*
D33*
X158290500Y-94215424D02*
X158290500Y-87980500D01*
X150594000Y-94316000D02*
X150594000Y-93541001D01*
X155070076Y-92720000D02*
X156845076Y-94495000D01*
D34*
X153279000Y-82969000D02*
X146549000Y-82969000D01*
D33*
X158290500Y-87980500D02*
X155579000Y-85269000D01*
X151415001Y-92720000D02*
X155070076Y-92720000D01*
X158010924Y-94495000D02*
X158290500Y-94215424D01*
D35*
%TO.N,+5V*%
X154801000Y-122791000D02*
X155840000Y-123830000D01*
X149215000Y-71480000D02*
X143440000Y-71480000D01*
X155939000Y-123929000D02*
X156170000Y-123929000D01*
X116350000Y-102510000D02*
X113591000Y-102510000D01*
X125350000Y-121440000D02*
X126701000Y-122791000D01*
X141940000Y-72980000D02*
X141940000Y-77910000D01*
X155840000Y-123830000D02*
X155939000Y-123929000D01*
X113591000Y-102510000D02*
X113591000Y-102680000D01*
X141940000Y-77910000D02*
X135060000Y-84790000D01*
X126701000Y-122791000D02*
X154801000Y-122791000D01*
X125350000Y-121440000D02*
X114191000Y-110281000D01*
X143440000Y-71480000D02*
X141940000Y-72980000D01*
X114191000Y-103556000D02*
X113315000Y-102680000D01*
X114191000Y-110281000D02*
X114191000Y-103556000D01*
D34*
%TO.N,Net-(C19-Pad1)*%
X146000000Y-83920000D02*
X145049000Y-82969000D01*
X147730000Y-83920000D02*
X146000000Y-83920000D01*
X155579000Y-91769000D02*
X147730000Y-83920000D01*
X157354000Y-93544000D02*
X155579000Y-91769000D01*
X157354000Y-93769000D02*
X157354000Y-93544000D01*
D33*
%TO.N,USBDM*%
X110210000Y-101880000D02*
X111565000Y-101880000D01*
X128039000Y-107575552D02*
X128039000Y-108606448D01*
X150594000Y-106440999D02*
X150342999Y-106692000D01*
X150594000Y-105666000D02*
X150594000Y-106440999D01*
X150342999Y-106692000D02*
X128922552Y-106692000D01*
X128039000Y-108606448D02*
X123615448Y-113030000D01*
X123615448Y-113030000D02*
X123190000Y-113030000D01*
X109220000Y-102870000D02*
X110210000Y-101880000D01*
X128922552Y-106692000D02*
X128039000Y-107575552D01*
%TO.N,USBDP*%
X118860000Y-101080000D02*
X123190000Y-105410000D01*
X113315000Y-101080000D02*
X118860000Y-101080000D01*
X149860000Y-107590000D02*
X149944999Y-107590000D01*
X151094000Y-106440999D02*
X151094000Y-105666000D01*
X149944999Y-107590000D02*
X151094000Y-106440999D01*
D34*
%TO.N,Net-(J1-ID)*%
X110789000Y-99504000D02*
X111565000Y-100280000D01*
X110789000Y-94131000D02*
X110789000Y-99504000D01*
X111440000Y-93480000D02*
X110789000Y-94131000D01*
D33*
%TO.N,TDO*%
X156210000Y-100841000D02*
X156110000Y-100741000D01*
X154619000Y-100841000D02*
X154519000Y-100741000D01*
X163160000Y-95090000D02*
X164270000Y-93980000D01*
X156110000Y-100741000D02*
X154519000Y-100741000D01*
X164270000Y-93980000D02*
X165100000Y-93980000D01*
%TO.N,TRST*%
X165100000Y-87630000D02*
X164398000Y-87630000D01*
X164398000Y-87630000D02*
X160655000Y-91373000D01*
X159931000Y-100241000D02*
X154519000Y-100241000D01*
X160655000Y-99517000D02*
X159931000Y-100241000D01*
X160655000Y-91373000D02*
X160655000Y-99517000D01*
%TO.N,SWDCK*%
X163830000Y-99060000D02*
X163830000Y-101043000D01*
X164270000Y-91440000D02*
X161792000Y-93918000D01*
X161792000Y-97022000D02*
X163830000Y-99060000D01*
X155465634Y-103741000D02*
X154519000Y-103741000D01*
X161792000Y-93918000D02*
X161792000Y-97022000D01*
X158163634Y-101043000D02*
X155465634Y-103741000D01*
X163830000Y-101043000D02*
X158163634Y-101043000D01*
X165100000Y-91440000D02*
X164270000Y-91440000D01*
%TO.N,Net-(J2-Pin_17)*%
X165100000Y-96520000D02*
X164209701Y-96520000D01*
X164209701Y-96520000D02*
X163351599Y-97378102D01*
X132080000Y-113030000D02*
X128890000Y-109840000D01*
X128890000Y-109840000D02*
X128890000Y-108240000D01*
%TO.N,Net-(J2-Pin_19)*%
X167440000Y-100130000D02*
X167440000Y-115480000D01*
X165100000Y-97790000D02*
X167440000Y-100130000D01*
%TO.N,Net-(J2-Pin_11)*%
X164081000Y-102699000D02*
X163540000Y-103240000D01*
X164081000Y-98956032D02*
X164081000Y-102699000D01*
X165100000Y-92710000D02*
X164398000Y-92710000D01*
X162560000Y-94548000D02*
X162560000Y-97435032D01*
X162560000Y-97435032D02*
X164081000Y-98956032D01*
X164398000Y-92710000D02*
X162560000Y-94548000D01*
%TO.N,SWDIO*%
X151710000Y-107490000D02*
X151594000Y-107374000D01*
X161541000Y-98711000D02*
X163160000Y-100330000D01*
X165100000Y-90170000D02*
X164081000Y-90170000D01*
X151594000Y-107374000D02*
X151594000Y-105666000D01*
X165100000Y-90170000D02*
X164270000Y-90170000D01*
X161541000Y-92899000D02*
X161541000Y-98711000D01*
X164270000Y-90170000D02*
X161541000Y-92899000D01*
%TO.N,TDI*%
X157790232Y-100744767D02*
X155293999Y-103241000D01*
X155293999Y-103241000D02*
X154519000Y-103241000D01*
X165100000Y-88900000D02*
X163830000Y-88900000D01*
X161290000Y-91440000D02*
X161290000Y-99889534D01*
X161290000Y-99889534D02*
X162145233Y-100744767D01*
X162145233Y-100744767D02*
X157790232Y-100744767D01*
X163830000Y-88900000D02*
X161290000Y-91440000D01*
%TO.N,Net-(U3-TX1)*%
X128569654Y-89289000D02*
X135061000Y-95780346D01*
X135061000Y-97259976D02*
X133850976Y-98470000D01*
X124539000Y-89575552D02*
X124825552Y-89289000D01*
X116240000Y-87030000D02*
X122207161Y-92997161D01*
X133850976Y-98470000D02*
X132110000Y-98470000D01*
X124825552Y-89289000D02*
X128569654Y-89289000D01*
X124539000Y-90665322D02*
X124539000Y-89575552D01*
X135061000Y-95780346D02*
X135061000Y-97259976D01*
X122207161Y-92997161D02*
X124539000Y-90665322D01*
X116240000Y-85240000D02*
X116240000Y-87030000D01*
%TO.N,Net-(U3-RX)*%
X122164654Y-103726000D02*
X119849000Y-101410346D01*
X119849000Y-95781000D02*
X125390000Y-90240000D01*
X119849000Y-101410346D02*
X119849000Y-95781000D01*
X127160000Y-102280000D02*
X125714000Y-103726000D01*
X125714000Y-103726000D02*
X122164654Y-103726000D01*
%TO.N,Net-(U2-BOOT0)*%
X158870000Y-99260000D02*
X157851000Y-98241000D01*
D34*
X158870000Y-99260000D02*
X159000000Y-99260000D01*
D33*
X157851000Y-98241000D02*
X154519000Y-98241000D01*
%TO.N,OSC_OUT*%
X151866001Y-91769000D02*
X153579000Y-91769000D01*
X150094000Y-94316000D02*
X150094000Y-93541001D01*
X150094000Y-93541001D02*
X151866001Y-91769000D01*
D34*
%TO.N,Net-(SW1-B)*%
X143658000Y-124330000D02*
X126220000Y-124330000D01*
X155540000Y-125430000D02*
X144758000Y-125430000D01*
X144758000Y-125430000D02*
X143658000Y-124330000D01*
X155840000Y-125730000D02*
X155540000Y-125430000D01*
X126220000Y-124330000D02*
X125870000Y-123980000D01*
X125870000Y-123980000D02*
X125350000Y-123980000D01*
D33*
%TO.N,SPI1_MOSI*%
X138329000Y-99241000D02*
X135530000Y-102040000D01*
X143169000Y-99241000D02*
X138329000Y-99241000D01*
X128810000Y-95660000D02*
X128540000Y-95930000D01*
X128540000Y-95930000D02*
X127160000Y-95930000D01*
%TO.N,SPI1_SCK*%
X124417214Y-106914000D02*
X128905000Y-102426214D01*
X133436000Y-102641678D02*
X133146678Y-102931000D01*
X121103500Y-111687504D02*
X121103500Y-113092496D01*
X129881000Y-95668925D02*
X128872075Y-94660000D01*
X137566100Y-98241000D02*
X135626778Y-100180322D01*
X121103500Y-113092496D02*
X120604996Y-113591000D01*
X120604996Y-113591000D02*
X118400004Y-113591000D01*
X117639000Y-107252154D02*
X117977154Y-106914000D01*
X128905000Y-100330000D02*
X129881000Y-99354000D01*
X128905000Y-102426214D02*
X128905000Y-100330000D01*
X133146678Y-102931000D02*
X129860004Y-102931000D01*
X135626778Y-100180322D02*
X133436000Y-100180322D01*
X128872075Y-94660000D02*
X127160000Y-94660000D01*
X118400004Y-113591000D02*
X117639000Y-112829996D01*
X143169000Y-98241000D02*
X137566100Y-98241000D01*
X117977154Y-106914000D02*
X124417214Y-106914000D01*
X129881000Y-99354000D02*
X129881000Y-95668925D01*
X133436000Y-100180322D02*
X133436000Y-102641678D01*
X129860004Y-102931000D02*
X121103500Y-111687504D01*
X117639000Y-112829996D02*
X117639000Y-107252154D01*
%TO.N,SPI1_MISO*%
X129130000Y-97480000D02*
X128850000Y-97200000D01*
X128850000Y-97200000D02*
X127160000Y-97200000D01*
X135820301Y-101080000D02*
X134380000Y-101080000D01*
X143169000Y-98741000D02*
X138159301Y-98741000D01*
X138159301Y-98741000D02*
X135820301Y-101080000D01*
%TO.N,GND*%
X144780000Y-89535000D02*
X146285000Y-89535000D01*
%TD*%
%TA.AperFunction,Conductor*%
%TO.N,GND*%
G36*
X165212510Y-68103627D02*
G01*
X165691283Y-68121541D01*
X165700505Y-68122233D01*
X166174298Y-68175616D01*
X166183444Y-68176995D01*
X166544402Y-68245292D01*
X166651903Y-68265633D01*
X166660944Y-68267696D01*
X166862843Y-68321794D01*
X167121475Y-68391095D01*
X167130325Y-68393825D01*
X167257367Y-68438279D01*
X167580348Y-68551295D01*
X167588980Y-68554683D01*
X168025975Y-68745343D01*
X168034329Y-68749367D01*
X168455829Y-68972137D01*
X168463860Y-68976773D01*
X168867558Y-69230434D01*
X168875220Y-69235658D01*
X169258833Y-69518778D01*
X169266071Y-69524550D01*
X169275052Y-69532279D01*
X169627451Y-69835545D01*
X169634234Y-69841838D01*
X169971381Y-70178987D01*
X169977676Y-70185772D01*
X170251963Y-70504501D01*
X170288672Y-70547157D01*
X170294449Y-70554402D01*
X170486713Y-70814912D01*
X170577556Y-70938000D01*
X170582780Y-70945661D01*
X170836443Y-71349367D01*
X170841079Y-71357398D01*
X170934804Y-71534736D01*
X171008908Y-71674949D01*
X171063850Y-71778904D01*
X171067873Y-71787257D01*
X171124253Y-71916484D01*
X171258528Y-72224249D01*
X171261916Y-72232881D01*
X171419382Y-72682900D01*
X171422115Y-72691761D01*
X171545510Y-73152284D01*
X171547573Y-73161325D01*
X171636207Y-73629779D01*
X171637589Y-73638948D01*
X171690968Y-74112715D01*
X171691661Y-74121962D01*
X171709571Y-74600680D01*
X171709658Y-74605316D01*
X171709661Y-116680500D01*
X171709662Y-122616328D01*
X171689977Y-122683367D01*
X171637173Y-122729122D01*
X171585662Y-122740328D01*
X169864725Y-122740328D01*
X169864725Y-125551328D01*
X171491268Y-125551328D01*
X171558307Y-125571013D01*
X171604062Y-125623817D01*
X171614006Y-125692975D01*
X171613106Y-125698381D01*
X171547569Y-126044749D01*
X171545506Y-126053790D01*
X171422107Y-126514321D01*
X171419374Y-126523181D01*
X171261909Y-126973192D01*
X171258521Y-126981825D01*
X171067859Y-127418825D01*
X171063835Y-127427179D01*
X170841065Y-127848681D01*
X170836429Y-127856712D01*
X170582768Y-128260412D01*
X170577544Y-128268074D01*
X170294434Y-128651674D01*
X170288652Y-128658924D01*
X169977649Y-129020316D01*
X169971342Y-129027113D01*
X169634226Y-129364229D01*
X169627429Y-129370536D01*
X169266053Y-129681526D01*
X169258803Y-129687308D01*
X168875195Y-129970423D01*
X168867533Y-129975647D01*
X168463833Y-130229308D01*
X168455802Y-130233944D01*
X168034300Y-130456714D01*
X168025946Y-130460738D01*
X167588950Y-130651398D01*
X167580318Y-130654785D01*
X167130299Y-130812254D01*
X167121438Y-130814988D01*
X166660911Y-130938386D01*
X166651870Y-130940449D01*
X166183420Y-131029085D01*
X166174251Y-131030467D01*
X165700480Y-131083848D01*
X165691233Y-131084541D01*
X165212514Y-131102454D01*
X165207877Y-131102541D01*
X115212477Y-131102541D01*
X115207840Y-131102454D01*
X114729093Y-131084538D01*
X114719846Y-131083845D01*
X114246079Y-131030461D01*
X114236910Y-131029079D01*
X113768456Y-130940441D01*
X113759415Y-130938378D01*
X113298878Y-130814976D01*
X113290017Y-130812242D01*
X112840023Y-130654781D01*
X112831391Y-130651394D01*
X112394390Y-130460731D01*
X112386035Y-130456707D01*
X111964523Y-130233930D01*
X111956493Y-130229294D01*
X111552799Y-129975636D01*
X111545137Y-129970412D01*
X111161529Y-129687296D01*
X111154279Y-129681514D01*
X110792903Y-129370524D01*
X110786106Y-129364217D01*
X110448983Y-129027095D01*
X110442676Y-129020298D01*
X110131686Y-128658922D01*
X110125904Y-128651672D01*
X109842789Y-128268064D01*
X109837565Y-128260402D01*
X109583906Y-127856708D01*
X109579270Y-127848678D01*
X109453207Y-127610157D01*
X109356493Y-127427167D01*
X109352469Y-127418812D01*
X109329956Y-127367213D01*
X109178045Y-127019031D01*
X109161806Y-126981810D01*
X109158419Y-126973178D01*
X109119863Y-126862993D01*
X109000953Y-126523173D01*
X108998223Y-126514322D01*
X108979624Y-126444909D01*
X108898029Y-126140398D01*
X108874818Y-126053777D01*
X108872758Y-126044746D01*
X108868223Y-126020781D01*
X108784120Y-125576292D01*
X108782738Y-125567123D01*
X108778333Y-125528028D01*
X108729354Y-125093344D01*
X108728662Y-125084109D01*
X108728054Y-125067870D01*
X108710749Y-124605442D01*
X108710662Y-124600805D01*
X108710662Y-103819298D01*
X108730347Y-103752259D01*
X108783151Y-103706504D01*
X108852309Y-103696560D01*
X108882112Y-103704736D01*
X108957334Y-103735894D01*
X108957336Y-103735894D01*
X108957341Y-103735896D01*
X109131304Y-103770499D01*
X109131307Y-103770500D01*
X109131309Y-103770500D01*
X109308693Y-103770500D01*
X109308694Y-103770499D01*
X109366682Y-103758964D01*
X109482658Y-103735896D01*
X109482661Y-103735894D01*
X109482666Y-103735894D01*
X109622535Y-103677958D01*
X109646540Y-103668016D01*
X109646540Y-103668015D01*
X109646547Y-103668013D01*
X109794035Y-103569464D01*
X109919464Y-103444035D01*
X110018013Y-103296547D01*
X110085894Y-103132666D01*
X110086236Y-103130951D01*
X110120499Y-102958695D01*
X110120500Y-102958693D01*
X110120500Y-102799386D01*
X110140185Y-102732347D01*
X110156819Y-102711705D01*
X110401706Y-102466819D01*
X110428633Y-102452115D01*
X110454452Y-102435523D01*
X110460652Y-102434631D01*
X110463029Y-102433334D01*
X110489387Y-102430500D01*
X110603127Y-102430500D01*
X110670166Y-102450185D01*
X110706229Y-102485609D01*
X110749024Y-102549657D01*
X110895342Y-102695975D01*
X110895345Y-102695977D01*
X111067402Y-102810941D01*
X111258580Y-102890130D01*
X111440596Y-102926335D01*
X111461530Y-102930499D01*
X111461534Y-102930500D01*
X111461535Y-102930500D01*
X111668466Y-102930500D01*
X111668467Y-102930499D01*
X111871420Y-102890130D01*
X112062598Y-102810941D01*
X112071608Y-102804920D01*
X112138280Y-102784041D01*
X112205661Y-102802522D01*
X112252354Y-102854499D01*
X112264500Y-102908021D01*
X112264500Y-103277869D01*
X112264501Y-103277876D01*
X112270908Y-103337483D01*
X112321202Y-103472328D01*
X112321204Y-103472332D01*
X112328208Y-103481687D01*
X112352627Y-103547151D01*
X112337777Y-103615424D01*
X112288373Y-103664831D01*
X112228943Y-103680000D01*
X111686579Y-103680000D01*
X111483733Y-103720348D01*
X111483725Y-103720350D01*
X111292641Y-103799500D01*
X111292631Y-103799505D01*
X111120664Y-103914410D01*
X111120660Y-103914413D01*
X110974413Y-104060660D01*
X110974410Y-104060664D01*
X110859505Y-104232631D01*
X110859500Y-104232641D01*
X110780351Y-104423723D01*
X110780350Y-104423725D01*
X110769157Y-104480000D01*
X111545025Y-104480000D01*
X111509930Y-104515095D01*
X111463852Y-104594905D01*
X111440000Y-104683922D01*
X111440000Y-104776078D01*
X111463852Y-104865095D01*
X111509930Y-104944905D01*
X111545025Y-104980000D01*
X110769157Y-104980000D01*
X110780350Y-105036274D01*
X110780351Y-105036276D01*
X110859500Y-105227358D01*
X110859505Y-105227368D01*
X110974410Y-105399335D01*
X110974413Y-105399339D01*
X111120660Y-105545586D01*
X111120664Y-105545589D01*
X111292631Y-105660494D01*
X111292641Y-105660499D01*
X111483725Y-105739649D01*
X111483733Y-105739651D01*
X111686579Y-105779999D01*
X111686583Y-105780000D01*
X112190000Y-105780000D01*
X112190000Y-105080000D01*
X112690000Y-105080000D01*
X112690000Y-105780000D01*
X113193417Y-105780000D01*
X113193417Y-105779999D01*
X113292308Y-105760329D01*
X113361900Y-105766556D01*
X113417077Y-105809419D01*
X113440322Y-105875308D01*
X113440500Y-105881946D01*
X113440500Y-110354918D01*
X113440500Y-110354920D01*
X113440499Y-110354920D01*
X113469340Y-110499907D01*
X113469342Y-110499912D01*
X113525914Y-110636491D01*
X113525918Y-110636498D01*
X113556179Y-110681788D01*
X113608049Y-110759418D01*
X113608052Y-110759421D01*
X124013181Y-121164548D01*
X124046666Y-121225871D01*
X124049500Y-121252229D01*
X124049500Y-121903010D01*
X124049501Y-121903029D01*
X124055687Y-121981643D01*
X124071458Y-122040500D01*
X124104680Y-122164488D01*
X124126783Y-122207868D01*
X124190614Y-122333146D01*
X124239859Y-122393958D01*
X124309743Y-122480257D01*
X124416311Y-122566554D01*
X124456853Y-122599385D01*
X124617978Y-122681481D01*
X124668775Y-122729455D01*
X124685570Y-122797276D01*
X124663033Y-122863411D01*
X124634569Y-122892284D01*
X124502787Y-122988028D01*
X124502782Y-122988032D01*
X124358028Y-123132786D01*
X124237715Y-123298386D01*
X124144781Y-123480776D01*
X124081522Y-123675465D01*
X124057882Y-123824727D01*
X124049500Y-123877648D01*
X124049500Y-124082352D01*
X124049535Y-124082573D01*
X124081522Y-124284534D01*
X124144781Y-124479223D01*
X124206731Y-124600805D01*
X124232133Y-124650659D01*
X124237715Y-124661613D01*
X124358028Y-124827213D01*
X124502786Y-124971971D01*
X124668385Y-125092284D01*
X124668387Y-125092285D01*
X124668390Y-125092287D01*
X124757581Y-125137732D01*
X124761630Y-125139795D01*
X124812426Y-125187770D01*
X124829221Y-125255591D01*
X124806684Y-125321725D01*
X124761630Y-125360765D01*
X124668644Y-125408143D01*
X124624077Y-125440523D01*
X124624077Y-125440524D01*
X125265498Y-126081944D01*
X125178236Y-126105326D01*
X125076764Y-126163911D01*
X124993911Y-126246764D01*
X124935326Y-126348236D01*
X124911944Y-126435497D01*
X124270524Y-125794077D01*
X124270523Y-125794077D01*
X124238143Y-125838644D01*
X124145244Y-126020968D01*
X124082009Y-126215582D01*
X124050000Y-126417682D01*
X124050000Y-126622317D01*
X124082009Y-126824417D01*
X124145244Y-127019031D01*
X124238141Y-127201350D01*
X124238147Y-127201359D01*
X124270523Y-127245921D01*
X124270524Y-127245922D01*
X124911944Y-126604502D01*
X124935326Y-126691764D01*
X124993911Y-126793236D01*
X125076764Y-126876089D01*
X125178236Y-126934674D01*
X125265497Y-126958055D01*
X124624076Y-127599474D01*
X124668650Y-127631859D01*
X124850968Y-127724755D01*
X125045582Y-127787990D01*
X125247683Y-127820000D01*
X125452317Y-127820000D01*
X125654417Y-127787990D01*
X125849031Y-127724755D01*
X126031349Y-127631859D01*
X126075921Y-127599474D01*
X125434502Y-126958055D01*
X125521764Y-126934674D01*
X125623236Y-126876089D01*
X125706089Y-126793236D01*
X125764674Y-126691764D01*
X125788055Y-126604502D01*
X126429474Y-127245921D01*
X126461859Y-127201349D01*
X126554755Y-127019031D01*
X126617990Y-126824417D01*
X126650000Y-126622317D01*
X126650000Y-126417682D01*
X126617990Y-126215582D01*
X126554755Y-126020968D01*
X126461859Y-125838650D01*
X126429474Y-125794077D01*
X126429474Y-125794076D01*
X125788055Y-126435496D01*
X125764674Y-126348236D01*
X125706089Y-126246764D01*
X125623236Y-126163911D01*
X125521764Y-126105326D01*
X125434501Y-126081944D01*
X126075922Y-125440524D01*
X126075921Y-125440523D01*
X126031359Y-125408147D01*
X126031350Y-125408141D01*
X125938369Y-125360765D01*
X125887573Y-125312790D01*
X125870778Y-125244969D01*
X125893315Y-125178835D01*
X125938370Y-125139795D01*
X125942419Y-125137732D01*
X126031610Y-125092287D01*
X126152877Y-125004181D01*
X126218683Y-124980702D01*
X126225762Y-124980500D01*
X126284069Y-124980500D01*
X130261069Y-124980500D01*
X130328108Y-125000185D01*
X130373863Y-125052989D01*
X130383807Y-125122147D01*
X130354782Y-125185703D01*
X130296004Y-125223477D01*
X130280469Y-125226972D01*
X130263429Y-125229671D01*
X130125465Y-125251522D01*
X129930776Y-125314781D01*
X129748386Y-125407715D01*
X129582786Y-125528028D01*
X129438028Y-125672786D01*
X129317715Y-125838386D01*
X129224781Y-126020776D01*
X129161522Y-126215465D01*
X129129500Y-126417648D01*
X129129500Y-126622351D01*
X129161522Y-126824534D01*
X129224781Y-127019223D01*
X129288691Y-127144653D01*
X129317585Y-127201359D01*
X129317715Y-127201613D01*
X129438028Y-127367213D01*
X129582786Y-127511971D01*
X129703226Y-127599474D01*
X129748390Y-127632287D01*
X129864607Y-127691503D01*
X129930776Y-127725218D01*
X129930778Y-127725218D01*
X129930781Y-127725220D01*
X130035137Y-127759127D01*
X130125465Y-127788477D01*
X130226557Y-127804488D01*
X130327648Y-127820500D01*
X130327649Y-127820500D01*
X130532351Y-127820500D01*
X130532352Y-127820500D01*
X130734534Y-127788477D01*
X130929219Y-127725220D01*
X131111610Y-127632287D01*
X131204590Y-127564732D01*
X131277213Y-127511971D01*
X131277215Y-127511968D01*
X131277219Y-127511966D01*
X131421966Y-127367219D01*
X131421968Y-127367215D01*
X131421971Y-127367213D01*
X131474732Y-127294590D01*
X131542287Y-127201610D01*
X131635220Y-127019219D01*
X131698477Y-126824534D01*
X131730500Y-126622352D01*
X131730500Y-126417648D01*
X131724526Y-126379928D01*
X131698477Y-126215465D01*
X131648077Y-126060351D01*
X131635220Y-126020781D01*
X131635218Y-126020778D01*
X131635218Y-126020776D01*
X131591651Y-125935272D01*
X131542287Y-125838390D01*
X131510092Y-125794077D01*
X131421971Y-125672786D01*
X131277213Y-125528028D01*
X131111613Y-125407715D01*
X131111612Y-125407714D01*
X131111610Y-125407713D01*
X131019470Y-125360765D01*
X130929223Y-125314781D01*
X130734534Y-125251522D01*
X130598931Y-125230045D01*
X130579532Y-125226972D01*
X130516398Y-125197044D01*
X130479467Y-125137732D01*
X130480465Y-125067870D01*
X130519075Y-125009637D01*
X130583038Y-124981523D01*
X130598931Y-124980500D01*
X143337192Y-124980500D01*
X143404231Y-125000185D01*
X143424873Y-125016819D01*
X144343325Y-125935272D01*
X144343332Y-125935278D01*
X144414110Y-125982570D01*
X144414111Y-125982570D01*
X144449866Y-126006461D01*
X144449872Y-126006464D01*
X144449873Y-126006465D01*
X144568256Y-126055501D01*
X144568260Y-126055501D01*
X144568261Y-126055502D01*
X144693928Y-126080500D01*
X144693931Y-126080500D01*
X154619604Y-126080500D01*
X154686643Y-126100185D01*
X154726336Y-126141379D01*
X154809416Y-126281861D01*
X154809423Y-126281870D01*
X154925629Y-126398076D01*
X154925633Y-126398079D01*
X154925635Y-126398081D01*
X155067102Y-126481744D01*
X155108724Y-126493836D01*
X155224926Y-126527597D01*
X155224929Y-126527597D01*
X155224931Y-126527598D01*
X155261806Y-126530500D01*
X155261814Y-126530500D01*
X156418186Y-126530500D01*
X156418194Y-126530500D01*
X156455069Y-126527598D01*
X156455071Y-126527597D01*
X156455073Y-126527597D01*
X156500768Y-126514321D01*
X156612898Y-126481744D01*
X156754365Y-126398081D01*
X156870581Y-126281865D01*
X156870767Y-126281549D01*
X156870977Y-126281353D01*
X156875361Y-126275702D01*
X156876272Y-126276409D01*
X156921836Y-126233866D01*
X156990577Y-126221362D01*
X157055167Y-126248006D01*
X157079355Y-126275921D01*
X157079639Y-126275702D01*
X157083679Y-126280911D01*
X157084232Y-126281548D01*
X157084419Y-126281865D01*
X157084421Y-126281867D01*
X157084423Y-126281870D01*
X157200629Y-126398076D01*
X157200633Y-126398079D01*
X157200635Y-126398081D01*
X157342102Y-126481744D01*
X157383724Y-126493836D01*
X157499926Y-126527597D01*
X157499929Y-126527597D01*
X157499931Y-126527598D01*
X157536806Y-126530500D01*
X157536814Y-126530500D01*
X158693186Y-126530500D01*
X158693194Y-126530500D01*
X158730069Y-126527598D01*
X158730071Y-126527597D01*
X158730073Y-126527597D01*
X158775768Y-126514321D01*
X158887898Y-126481744D01*
X159029365Y-126398081D01*
X159145581Y-126281865D01*
X159229244Y-126140398D01*
X159275098Y-125982569D01*
X159278000Y-125945694D01*
X159278000Y-125514306D01*
X159275098Y-125477431D01*
X159264375Y-125440524D01*
X159229245Y-125319606D01*
X159229244Y-125319603D01*
X159229244Y-125319602D01*
X159145581Y-125178135D01*
X159145579Y-125178133D01*
X159145576Y-125178129D01*
X159029370Y-125061923D01*
X159029362Y-125061917D01*
X158887896Y-124978255D01*
X158887893Y-124978254D01*
X158730073Y-124932402D01*
X158730067Y-124932401D01*
X158693201Y-124929500D01*
X158693194Y-124929500D01*
X157536806Y-124929500D01*
X157536798Y-124929500D01*
X157499932Y-124932401D01*
X157499926Y-124932402D01*
X157342106Y-124978254D01*
X157342103Y-124978255D01*
X157200637Y-125061917D01*
X157194469Y-125066702D01*
X157193164Y-125065019D01*
X157141454Y-125093246D01*
X157071763Y-125088251D01*
X157024058Y-125056247D01*
X156999796Y-125030000D01*
X156734315Y-125030000D01*
X156671194Y-125012732D01*
X156612896Y-124978255D01*
X156612893Y-124978254D01*
X156455073Y-124932402D01*
X156455067Y-124932401D01*
X156418201Y-124929500D01*
X156418194Y-124929500D01*
X155999433Y-124929500D01*
X155981295Y-124924174D01*
X155962395Y-124923839D01*
X155934151Y-124910331D01*
X155932394Y-124909815D01*
X155930555Y-124908611D01*
X155927559Y-124906609D01*
X155882749Y-124853004D01*
X155874033Y-124783680D01*
X155904180Y-124720649D01*
X155963619Y-124683922D01*
X155996439Y-124679500D01*
X156243920Y-124679500D01*
X156388908Y-124650659D01*
X156388908Y-124650658D01*
X156388913Y-124650658D01*
X156424129Y-124636070D01*
X156449308Y-124628649D01*
X156455056Y-124627598D01*
X156455069Y-124627598D01*
X156612898Y-124581744D01*
X156671194Y-124547268D01*
X156734315Y-124530000D01*
X156999794Y-124530000D01*
X157024057Y-124503752D01*
X157084018Y-124467885D01*
X157153852Y-124470129D01*
X157193512Y-124494530D01*
X157194469Y-124493298D01*
X157200632Y-124498078D01*
X157200635Y-124498081D01*
X157342102Y-124581744D01*
X157383724Y-124593836D01*
X157499926Y-124627597D01*
X157499929Y-124627597D01*
X157499931Y-124627598D01*
X157536806Y-124630500D01*
X157536814Y-124630500D01*
X158693186Y-124630500D01*
X158693194Y-124630500D01*
X158730069Y-124627598D01*
X158730071Y-124627597D01*
X158730073Y-124627597D01*
X158771691Y-124615505D01*
X158887898Y-124581744D01*
X159029365Y-124498081D01*
X159145581Y-124381865D01*
X159229244Y-124240398D01*
X159275098Y-124082569D01*
X159278000Y-124045694D01*
X159278000Y-123614306D01*
X159275098Y-123577431D01*
X159229244Y-123419602D01*
X159145581Y-123278135D01*
X159145579Y-123278133D01*
X159145576Y-123278129D01*
X159029370Y-123161923D01*
X159029362Y-123161917D01*
X158887896Y-123078255D01*
X158887893Y-123078254D01*
X158730073Y-123032402D01*
X158730067Y-123032401D01*
X158693201Y-123029500D01*
X158693194Y-123029500D01*
X158144386Y-123029500D01*
X158077347Y-123009815D01*
X158056705Y-122993181D01*
X155908016Y-120844491D01*
X155908015Y-120844490D01*
X155782485Y-120772016D01*
X155782486Y-120772016D01*
X155747482Y-120762637D01*
X155642475Y-120734500D01*
X155642472Y-120734500D01*
X144799387Y-120734500D01*
X144732348Y-120714815D01*
X144711706Y-120698181D01*
X143780179Y-119766654D01*
X148902501Y-119766654D01*
X148912819Y-119867652D01*
X148967046Y-120031300D01*
X148967051Y-120031311D01*
X149057552Y-120178034D01*
X149057555Y-120178038D01*
X149179461Y-120299944D01*
X149179465Y-120299947D01*
X149326188Y-120390448D01*
X149326199Y-120390453D01*
X149489847Y-120444680D01*
X149590851Y-120454999D01*
X149690000Y-120454998D01*
X149690000Y-119730000D01*
X148902501Y-119730000D01*
X148902501Y-119766654D01*
X143780179Y-119766654D01*
X141180205Y-117166680D01*
X141146720Y-117105357D01*
X141151704Y-117035665D01*
X141193576Y-116979732D01*
X141259040Y-116955315D01*
X141267886Y-116954999D01*
X141289140Y-116954999D01*
X141289154Y-116954998D01*
X141390152Y-116944680D01*
X141553800Y-116890453D01*
X141553811Y-116890448D01*
X141700534Y-116799947D01*
X141700538Y-116799944D01*
X141822444Y-116678038D01*
X141822447Y-116678034D01*
X141912948Y-116531311D01*
X141912953Y-116531300D01*
X141967180Y-116367652D01*
X141977499Y-116266654D01*
X141977500Y-116266641D01*
X141977500Y-116230000D01*
X141064000Y-116230000D01*
X140996961Y-116210315D01*
X140951206Y-116157511D01*
X140940000Y-116106000D01*
X140940000Y-115980000D01*
X140814000Y-115980000D01*
X140746961Y-115960315D01*
X140701206Y-115907511D01*
X140690000Y-115856000D01*
X140690000Y-115730000D01*
X141190000Y-115730000D01*
X141977499Y-115730000D01*
X141977499Y-115693360D01*
X141977498Y-115693345D01*
X141967180Y-115592347D01*
X141912953Y-115428699D01*
X141912948Y-115428688D01*
X141822447Y-115281965D01*
X141822444Y-115281961D01*
X141700538Y-115160055D01*
X141700534Y-115160052D01*
X141553811Y-115069551D01*
X141553800Y-115069546D01*
X141390152Y-115015319D01*
X141289154Y-115005000D01*
X141190000Y-115005000D01*
X141190000Y-115730000D01*
X140690000Y-115730000D01*
X140690000Y-115004999D01*
X140590860Y-115005000D01*
X140590841Y-115005001D01*
X140553571Y-115008809D01*
X140484878Y-114996039D01*
X140433994Y-114948158D01*
X140417074Y-114880368D01*
X140437868Y-114816560D01*
X140450318Y-114797926D01*
X140498013Y-114726547D01*
X140504505Y-114710875D01*
X140507958Y-114702535D01*
X140565894Y-114562666D01*
X140566096Y-114561654D01*
X140600499Y-114388695D01*
X140600500Y-114388693D01*
X140600500Y-114211306D01*
X140600499Y-114211304D01*
X140565896Y-114037341D01*
X140565893Y-114037332D01*
X140563481Y-114031510D01*
X140543304Y-113982796D01*
X140498016Y-113873459D01*
X140498009Y-113873446D01*
X140399464Y-113725965D01*
X140399461Y-113725961D01*
X140274038Y-113600538D01*
X140274034Y-113600535D01*
X140126553Y-113501990D01*
X140126540Y-113501983D01*
X139962667Y-113434106D01*
X139962658Y-113434103D01*
X139788694Y-113399500D01*
X139788691Y-113399500D01*
X139611309Y-113399500D01*
X139611306Y-113399500D01*
X139437341Y-113434103D01*
X139437332Y-113434106D01*
X139273459Y-113501983D01*
X139273446Y-113501990D01*
X139125965Y-113600535D01*
X139125961Y-113600538D01*
X139000538Y-113725961D01*
X139000535Y-113725965D01*
X138901990Y-113873446D01*
X138901983Y-113873459D01*
X138834106Y-114037332D01*
X138834103Y-114037341D01*
X138799500Y-114211304D01*
X138799500Y-114372299D01*
X138795195Y-114388107D01*
X138795765Y-114402504D01*
X138785485Y-114423768D01*
X138782383Y-114435163D01*
X138776771Y-114444703D01*
X138774490Y-114446985D01*
X138724543Y-114533497D01*
X138724359Y-114533815D01*
X138724320Y-114533882D01*
X138702017Y-114572512D01*
X138702016Y-114572513D01*
X138699876Y-114580500D01*
X138664500Y-114712525D01*
X138664500Y-114712527D01*
X138664500Y-114960708D01*
X138644815Y-115027747D01*
X138605597Y-115066247D01*
X138454148Y-115159661D01*
X138332159Y-115281650D01*
X138277298Y-115370596D01*
X138225350Y-115417321D01*
X138171759Y-115429500D01*
X132339387Y-115429500D01*
X132272348Y-115409815D01*
X132251706Y-115393181D01*
X130501818Y-113643293D01*
X130468333Y-113581970D01*
X130465499Y-113555612D01*
X130465499Y-113079998D01*
X130465498Y-113079981D01*
X130454999Y-112977203D01*
X130454998Y-112977200D01*
X130445167Y-112947531D01*
X130399814Y-112810666D01*
X130307712Y-112661344D01*
X130183656Y-112537288D01*
X130034334Y-112445186D01*
X129867797Y-112390001D01*
X129867795Y-112390000D01*
X129765010Y-112379500D01*
X129114998Y-112379500D01*
X129114980Y-112379501D01*
X129012203Y-112390000D01*
X129012200Y-112390001D01*
X128845668Y-112445185D01*
X128845663Y-112445187D01*
X128696342Y-112537289D01*
X128572289Y-112661342D01*
X128480187Y-112810663D01*
X128480186Y-112810666D01*
X128425001Y-112977203D01*
X128425001Y-112977204D01*
X128425000Y-112977204D01*
X128414500Y-113079983D01*
X128414500Y-113880001D01*
X128414501Y-113880019D01*
X128425000Y-113982796D01*
X128425001Y-113982799D01*
X128443075Y-114037341D01*
X128480186Y-114149334D01*
X128572288Y-114298656D01*
X128696344Y-114422712D01*
X128845666Y-114514814D01*
X129012203Y-114569999D01*
X129114991Y-114580500D01*
X129765008Y-114580499D01*
X129812515Y-114575646D01*
X129881208Y-114588416D01*
X129912798Y-114611323D01*
X131721985Y-116420510D01*
X131847515Y-116492984D01*
X131987525Y-116530500D01*
X131987526Y-116530500D01*
X132132474Y-116530500D01*
X138171759Y-116530500D01*
X138238798Y-116550185D01*
X138277297Y-116589402D01*
X138292971Y-116614814D01*
X138331967Y-116678038D01*
X138332160Y-116678350D01*
X138454150Y-116800340D01*
X138600984Y-116890908D01*
X138764747Y-116945174D01*
X138865823Y-116955500D01*
X139360612Y-116955499D01*
X139427651Y-116975183D01*
X139448293Y-116991818D01*
X144181985Y-121725510D01*
X144181986Y-121725511D01*
X144181988Y-121725512D01*
X144303203Y-121795495D01*
X144303202Y-121795495D01*
X144307511Y-121797983D01*
X144315018Y-121801092D01*
X144314002Y-121803542D01*
X144362476Y-121833087D01*
X144393007Y-121895933D01*
X144384715Y-121965309D01*
X144340231Y-122019188D01*
X144273680Y-122040465D01*
X144270725Y-122040500D01*
X131772984Y-122040500D01*
X131705945Y-122020815D01*
X131660190Y-121968011D01*
X131650246Y-121898853D01*
X131655053Y-121878182D01*
X131698476Y-121744538D01*
X131698476Y-121744537D01*
X131698477Y-121744534D01*
X131730500Y-121542352D01*
X131730500Y-121337648D01*
X131698477Y-121135466D01*
X131635220Y-120940781D01*
X131635218Y-120940778D01*
X131635218Y-120940776D01*
X131601503Y-120874607D01*
X131542287Y-120758390D01*
X131498543Y-120698181D01*
X131421971Y-120592786D01*
X131277213Y-120448028D01*
X131111613Y-120327715D01*
X131111612Y-120327714D01*
X131111610Y-120327713D01*
X131029785Y-120286021D01*
X130929223Y-120234781D01*
X130734534Y-120171522D01*
X130559995Y-120143878D01*
X130532352Y-120139500D01*
X130327648Y-120139500D01*
X130303329Y-120143351D01*
X130125465Y-120171522D01*
X129930776Y-120234781D01*
X129748386Y-120327715D01*
X129582786Y-120448028D01*
X129438028Y-120592786D01*
X129317715Y-120758386D01*
X129224781Y-120940776D01*
X129161522Y-121135465D01*
X129129500Y-121337648D01*
X129129500Y-121542351D01*
X129161523Y-121744535D01*
X129161523Y-121744538D01*
X129204947Y-121878182D01*
X129206942Y-121948023D01*
X129170862Y-122007856D01*
X129108161Y-122038684D01*
X129087016Y-122040500D01*
X127063229Y-122040500D01*
X126996190Y-122020815D01*
X126975548Y-122004181D01*
X126686818Y-121715451D01*
X126653333Y-121654128D01*
X126650499Y-121627770D01*
X126650499Y-120976989D01*
X126650498Y-120976970D01*
X126647650Y-120940781D01*
X126644312Y-120898355D01*
X126595320Y-120715512D01*
X126532788Y-120592786D01*
X126509385Y-120546853D01*
X126435407Y-120455499D01*
X126390257Y-120399743D01*
X126267505Y-120300340D01*
X126243146Y-120280614D01*
X126117868Y-120216783D01*
X126074488Y-120194680D01*
X125988060Y-120171522D01*
X125891643Y-120145687D01*
X125813026Y-120139500D01*
X125813021Y-120139500D01*
X125162229Y-120139500D01*
X125095190Y-120119815D01*
X125074548Y-120103181D01*
X119324549Y-114353181D01*
X119291064Y-114291858D01*
X119296048Y-114222166D01*
X119337920Y-114166233D01*
X119403384Y-114141816D01*
X119412230Y-114141500D01*
X120677468Y-114141500D01*
X120677470Y-114141500D01*
X120677471Y-114141500D01*
X120817481Y-114103984D01*
X120846006Y-114087515D01*
X120943011Y-114031510D01*
X121544010Y-113430511D01*
X121616484Y-113304981D01*
X121623914Y-113277249D01*
X121639922Y-113217514D01*
X121646960Y-113191243D01*
X121654000Y-113164971D01*
X121654000Y-111966891D01*
X121662644Y-111937450D01*
X121669168Y-111907464D01*
X121672922Y-111902448D01*
X121673685Y-111899852D01*
X121690319Y-111879210D01*
X121776819Y-111792710D01*
X121838142Y-111759225D01*
X121907834Y-111764209D01*
X121963767Y-111806081D01*
X121988184Y-111871545D01*
X121988500Y-111880391D01*
X121988500Y-113372129D01*
X121997985Y-113407526D01*
X122026016Y-113512139D01*
X122098490Y-113637669D01*
X122582332Y-114121510D01*
X122616956Y-114141500D01*
X122707857Y-114193982D01*
X122707858Y-114193982D01*
X122707861Y-114193984D01*
X122847871Y-114231500D01*
X122847872Y-114231500D01*
X122992820Y-114231500D01*
X126161659Y-114231500D01*
X126228698Y-114251185D01*
X126267196Y-114290401D01*
X126272288Y-114298656D01*
X126396344Y-114422712D01*
X126545666Y-114514814D01*
X126712203Y-114569999D01*
X126814991Y-114580500D01*
X127465008Y-114580499D01*
X127465016Y-114580498D01*
X127465019Y-114580498D01*
X127521302Y-114574748D01*
X127567797Y-114569999D01*
X127734334Y-114514814D01*
X127883656Y-114422712D01*
X128007712Y-114298656D01*
X128099814Y-114149334D01*
X128154999Y-113982797D01*
X128165500Y-113880009D01*
X128165499Y-113079992D01*
X128154999Y-112977203D01*
X128099814Y-112810666D01*
X128007712Y-112661344D01*
X127883656Y-112537288D01*
X127734334Y-112445186D01*
X127567797Y-112390001D01*
X127567795Y-112390000D01*
X127465010Y-112379500D01*
X126814998Y-112379500D01*
X126814980Y-112379501D01*
X126712203Y-112390000D01*
X126712200Y-112390001D01*
X126545668Y-112445185D01*
X126545663Y-112445187D01*
X126396342Y-112537289D01*
X126272289Y-112661342D01*
X126180187Y-112810663D01*
X126180186Y-112810666D01*
X126125001Y-112977203D01*
X126125001Y-112977204D01*
X126125000Y-112977204D01*
X126120720Y-113019104D01*
X126094323Y-113083795D01*
X126037142Y-113123946D01*
X125997362Y-113130500D01*
X124592835Y-113130500D01*
X124525796Y-113110815D01*
X124480041Y-113058011D01*
X124470097Y-112988853D01*
X124499122Y-112925297D01*
X124505154Y-112918819D01*
X125366962Y-112057011D01*
X128045260Y-109378711D01*
X128064498Y-109368207D01*
X128081013Y-109353790D01*
X128094561Y-109351791D01*
X128106581Y-109345228D01*
X128128447Y-109346791D01*
X128150135Y-109343592D01*
X128166579Y-109349518D01*
X128176273Y-109350212D01*
X128184035Y-109353411D01*
X128191274Y-109356685D01*
X128220666Y-109374814D01*
X128260676Y-109388071D01*
X128266596Y-109390749D01*
X128288354Y-109409463D01*
X128311948Y-109425798D01*
X128314509Y-109431958D01*
X128319568Y-109436309D01*
X128327753Y-109463813D01*
X128338772Y-109490313D01*
X128339469Y-109503178D01*
X128339499Y-109503276D01*
X128339479Y-109503345D01*
X128339500Y-109503732D01*
X128339500Y-109767526D01*
X128339500Y-109912474D01*
X128355264Y-109971304D01*
X128377016Y-110052485D01*
X128449489Y-110178013D01*
X128449491Y-110178016D01*
X131143181Y-112871706D01*
X131176666Y-112933029D01*
X131179500Y-112959387D01*
X131179500Y-113118695D01*
X131214103Y-113292658D01*
X131214106Y-113292667D01*
X131281983Y-113456540D01*
X131281990Y-113456553D01*
X131380535Y-113604034D01*
X131380538Y-113604038D01*
X131505961Y-113729461D01*
X131505965Y-113729464D01*
X131653446Y-113828009D01*
X131653459Y-113828016D01*
X131776363Y-113878923D01*
X131817334Y-113895894D01*
X131817336Y-113895894D01*
X131817341Y-113895896D01*
X131991304Y-113930499D01*
X131991307Y-113930500D01*
X131991309Y-113930500D01*
X132168693Y-113930500D01*
X132168694Y-113930499D01*
X132226682Y-113918964D01*
X132342658Y-113895896D01*
X132342661Y-113895894D01*
X132342666Y-113895894D01*
X132506547Y-113828013D01*
X132654035Y-113729464D01*
X132779464Y-113604035D01*
X132878013Y-113456547D01*
X132945894Y-113292666D01*
X132980500Y-113118691D01*
X132980500Y-112941309D01*
X132980500Y-112941306D01*
X132980499Y-112941304D01*
X132945896Y-112767341D01*
X132945893Y-112767332D01*
X132939909Y-112752886D01*
X132917461Y-112698690D01*
X132878016Y-112603459D01*
X132878009Y-112603446D01*
X132779464Y-112455965D01*
X132779461Y-112455961D01*
X132654038Y-112330538D01*
X132654034Y-112330535D01*
X132506553Y-112231990D01*
X132506540Y-112231983D01*
X132342667Y-112164106D01*
X132342658Y-112164103D01*
X132168694Y-112129500D01*
X132168691Y-112129500D01*
X132009387Y-112129500D01*
X131942348Y-112109815D01*
X131921706Y-112093181D01*
X129476819Y-109648294D01*
X129462115Y-109621366D01*
X129445523Y-109595548D01*
X129444631Y-109589347D01*
X129443334Y-109586971D01*
X129440500Y-109560613D01*
X129440500Y-109503732D01*
X129460185Y-109436693D01*
X129512989Y-109390938D01*
X129525495Y-109386026D01*
X129559334Y-109374814D01*
X129708656Y-109282712D01*
X129832712Y-109158656D01*
X129924814Y-109009334D01*
X129979999Y-108842797D01*
X129990500Y-108740009D01*
X129990499Y-107739992D01*
X129984237Y-107678695D01*
X129979999Y-107637203D01*
X129979998Y-107637200D01*
X129960611Y-107578695D01*
X129924814Y-107470666D01*
X129904059Y-107437016D01*
X129900716Y-107431596D01*
X129882276Y-107364203D01*
X129903199Y-107297540D01*
X129956841Y-107252771D01*
X130006255Y-107242500D01*
X130602726Y-107242500D01*
X130669765Y-107262185D01*
X130715520Y-107314989D01*
X130725464Y-107384147D01*
X130705828Y-107435391D01*
X130646990Y-107523446D01*
X130646983Y-107523459D01*
X130579106Y-107687332D01*
X130579103Y-107687341D01*
X130544500Y-107861304D01*
X130544500Y-108038695D01*
X130579103Y-108212658D01*
X130579106Y-108212667D01*
X130646983Y-108376540D01*
X130646990Y-108376553D01*
X130745535Y-108524034D01*
X130745538Y-108524038D01*
X130870961Y-108649461D01*
X130870965Y-108649464D01*
X131018446Y-108748009D01*
X131018459Y-108748016D01*
X131067877Y-108768485D01*
X131182334Y-108815894D01*
X131182336Y-108815894D01*
X131182341Y-108815896D01*
X131356304Y-108850499D01*
X131356307Y-108850500D01*
X131356309Y-108850500D01*
X131533693Y-108850500D01*
X131533694Y-108850499D01*
X131591682Y-108838964D01*
X131707658Y-108815896D01*
X131707661Y-108815894D01*
X131707666Y-108815894D01*
X131871547Y-108748013D01*
X132019035Y-108649464D01*
X132131681Y-108536817D01*
X132193002Y-108503334D01*
X132219361Y-108500500D01*
X134865500Y-108500500D01*
X134932539Y-108520185D01*
X134978294Y-108572989D01*
X134989500Y-108624500D01*
X134989500Y-108673695D01*
X135024103Y-108847658D01*
X135024106Y-108847667D01*
X135091983Y-109011540D01*
X135091990Y-109011553D01*
X135190535Y-109159034D01*
X135190538Y-109159038D01*
X135315961Y-109284461D01*
X135315965Y-109284464D01*
X135463446Y-109383009D01*
X135463459Y-109383016D01*
X135566746Y-109425798D01*
X135627334Y-109450894D01*
X135627336Y-109450894D01*
X135627341Y-109450896D01*
X135801304Y-109485499D01*
X135801307Y-109485500D01*
X135801309Y-109485500D01*
X135978693Y-109485500D01*
X135978694Y-109485499D01*
X136036682Y-109473964D01*
X136152658Y-109450896D01*
X136152661Y-109450894D01*
X136152666Y-109450894D01*
X136316547Y-109383013D01*
X136464035Y-109284464D01*
X136576681Y-109171817D01*
X136638002Y-109138334D01*
X136664361Y-109135500D01*
X138543982Y-109135500D01*
X138611021Y-109155185D01*
X138656776Y-109207989D01*
X138666720Y-109277147D01*
X138637695Y-109340703D01*
X138620219Y-109356119D01*
X138620673Y-109356672D01*
X138615961Y-109360538D01*
X138490538Y-109485961D01*
X138490535Y-109485965D01*
X138391990Y-109633446D01*
X138391983Y-109633459D01*
X138324106Y-109797332D01*
X138324103Y-109797341D01*
X138289500Y-109971304D01*
X138289500Y-110148695D01*
X138324103Y-110322658D01*
X138324106Y-110322667D01*
X138391983Y-110486540D01*
X138391990Y-110486553D01*
X138490535Y-110634034D01*
X138490538Y-110634038D01*
X138615961Y-110759461D01*
X138615965Y-110759464D01*
X138763446Y-110858009D01*
X138763459Y-110858016D01*
X138886363Y-110908923D01*
X138927334Y-110925894D01*
X138927336Y-110925894D01*
X138927341Y-110925896D01*
X139101304Y-110960499D01*
X139101307Y-110960500D01*
X139260613Y-110960500D01*
X139327652Y-110980185D01*
X139348294Y-110996819D01*
X145296985Y-116945510D01*
X145422515Y-117017984D01*
X145562525Y-117055500D01*
X148410613Y-117055500D01*
X148477652Y-117075185D01*
X148498294Y-117091819D01*
X149699794Y-118293319D01*
X149733279Y-118354642D01*
X149728295Y-118424334D01*
X149686423Y-118480267D01*
X149620959Y-118504684D01*
X149612118Y-118505000D01*
X149590863Y-118505000D01*
X149590844Y-118505001D01*
X149489847Y-118515319D01*
X149326199Y-118569546D01*
X149326188Y-118569551D01*
X149179465Y-118660052D01*
X149179461Y-118660055D01*
X149057555Y-118781961D01*
X149057552Y-118781965D01*
X148967051Y-118928688D01*
X148967046Y-118928699D01*
X148912819Y-119092347D01*
X148902500Y-119193345D01*
X148902500Y-119230000D01*
X149816000Y-119230000D01*
X149883039Y-119249685D01*
X149928794Y-119302489D01*
X149940000Y-119354000D01*
X149940000Y-119480000D01*
X150066000Y-119480000D01*
X150133039Y-119499685D01*
X150178794Y-119552489D01*
X150190000Y-119604000D01*
X150190000Y-120454999D01*
X150289140Y-120454999D01*
X150289154Y-120454998D01*
X150390152Y-120444680D01*
X150553800Y-120390453D01*
X150553811Y-120390448D01*
X150700535Y-120299947D01*
X150714460Y-120286021D01*
X150775782Y-120252533D01*
X150845473Y-120257514D01*
X150889827Y-120286017D01*
X150904150Y-120300340D01*
X151050984Y-120390908D01*
X151214747Y-120445174D01*
X151315823Y-120455500D01*
X152014176Y-120455499D01*
X152014184Y-120455498D01*
X152014187Y-120455498D01*
X152087255Y-120448034D01*
X152115253Y-120445174D01*
X152279016Y-120390908D01*
X152425850Y-120300340D01*
X152547840Y-120178350D01*
X152638408Y-120031516D01*
X152692674Y-119867753D01*
X152703000Y-119766677D01*
X152702999Y-119348053D01*
X153039010Y-119348053D01*
X165923164Y-119348053D01*
X165923164Y-116033603D01*
X153039010Y-116033603D01*
X153039010Y-119348053D01*
X152702999Y-119348053D01*
X152702999Y-119193324D01*
X152692674Y-119092247D01*
X152638408Y-118928484D01*
X152547840Y-118781650D01*
X152425850Y-118659660D01*
X152334629Y-118603395D01*
X152279018Y-118569093D01*
X152279013Y-118569091D01*
X152277569Y-118568612D01*
X152115253Y-118514826D01*
X152115251Y-118514825D01*
X152014184Y-118504500D01*
X152014177Y-118504500D01*
X151519387Y-118504500D01*
X151452348Y-118484815D01*
X151431706Y-118468181D01*
X149028016Y-116064491D01*
X149028015Y-116064490D01*
X148902485Y-115992016D01*
X148902486Y-115992016D01*
X148857540Y-115979973D01*
X148762475Y-115954500D01*
X148762472Y-115954500D01*
X145914387Y-115954500D01*
X145847348Y-115934815D01*
X145826706Y-115918181D01*
X143067095Y-113158570D01*
X143033610Y-113097247D01*
X143038594Y-113027555D01*
X143080466Y-112971622D01*
X143142176Y-112947531D01*
X143165253Y-112945174D01*
X143329016Y-112890908D01*
X143475850Y-112800340D01*
X143489819Y-112786371D01*
X143551142Y-112752886D01*
X143620834Y-112757870D01*
X143665181Y-112786371D01*
X143679150Y-112800340D01*
X143825984Y-112890908D01*
X143989747Y-112945174D01*
X144090823Y-112955500D01*
X144789176Y-112955499D01*
X144789184Y-112955498D01*
X144789187Y-112955498D01*
X144867179Y-112947531D01*
X144890253Y-112945174D01*
X145054016Y-112890908D01*
X145200850Y-112800340D01*
X145322840Y-112678350D01*
X145413408Y-112531516D01*
X145467674Y-112367753D01*
X145478000Y-112266677D01*
X145477999Y-111693324D01*
X145467674Y-111592247D01*
X145413408Y-111428484D01*
X145322840Y-111281650D01*
X145200850Y-111159660D01*
X145054016Y-111069092D01*
X144890253Y-111014826D01*
X144890251Y-111014825D01*
X144789184Y-111004500D01*
X144789177Y-111004500D01*
X144294386Y-111004500D01*
X144227347Y-110984815D01*
X144206705Y-110968181D01*
X140748016Y-107509491D01*
X140748011Y-107509487D01*
X140686349Y-107473887D01*
X140638134Y-107423320D01*
X140624910Y-107354713D01*
X140650878Y-107289849D01*
X140707792Y-107249320D01*
X140748349Y-107242500D01*
X148859886Y-107242500D01*
X148926925Y-107262185D01*
X148972680Y-107314989D01*
X148982624Y-107384147D01*
X148981503Y-107390692D01*
X148959500Y-107501306D01*
X148959500Y-107678695D01*
X148994103Y-107852658D01*
X148994106Y-107852667D01*
X149061983Y-108016540D01*
X149061990Y-108016553D01*
X149160535Y-108164034D01*
X149160538Y-108164038D01*
X149285961Y-108289461D01*
X149285965Y-108289464D01*
X149433446Y-108388009D01*
X149433459Y-108388016D01*
X149554216Y-108438034D01*
X149597334Y-108455894D01*
X149597336Y-108455894D01*
X149597341Y-108455896D01*
X149771304Y-108490499D01*
X149771307Y-108490500D01*
X149771309Y-108490500D01*
X149948693Y-108490500D01*
X149948694Y-108490499D01*
X150006682Y-108478964D01*
X150122658Y-108455896D01*
X150122661Y-108455894D01*
X150122666Y-108455894D01*
X150286547Y-108388013D01*
X150434035Y-108289464D01*
X150559464Y-108164035D01*
X150658013Y-108016547D01*
X150691996Y-107934501D01*
X150735836Y-107880100D01*
X150802130Y-107858034D01*
X150869829Y-107875312D01*
X150909659Y-107913064D01*
X151010535Y-108064034D01*
X151010538Y-108064038D01*
X151135961Y-108189461D01*
X151135965Y-108189464D01*
X151283446Y-108288009D01*
X151283459Y-108288016D01*
X151406363Y-108338923D01*
X151447334Y-108355894D01*
X151447336Y-108355894D01*
X151447341Y-108355896D01*
X151621304Y-108390499D01*
X151621307Y-108390500D01*
X151621309Y-108390500D01*
X151798693Y-108390500D01*
X151798694Y-108390499D01*
X151868872Y-108376540D01*
X151972658Y-108355896D01*
X151972661Y-108355894D01*
X151972666Y-108355894D01*
X152128585Y-108291311D01*
X152136540Y-108288016D01*
X152136540Y-108288015D01*
X152136547Y-108288013D01*
X152284035Y-108189464D01*
X152409464Y-108064035D01*
X152508013Y-107916547D01*
X152575894Y-107752666D01*
X152576185Y-107751206D01*
X152598964Y-107636682D01*
X152610500Y-107578691D01*
X152610500Y-107401309D01*
X152610500Y-107401306D01*
X152610499Y-107401304D01*
X152575896Y-107227341D01*
X152575893Y-107227332D01*
X152528516Y-107112952D01*
X152521047Y-107043483D01*
X152552323Y-106981004D01*
X152612412Y-106945352D01*
X152643077Y-106941500D01*
X152706713Y-106941500D01*
X152706720Y-106941500D01*
X152819236Y-106926687D01*
X152959233Y-106868698D01*
X153079451Y-106776451D01*
X153171698Y-106656233D01*
X153229687Y-106516236D01*
X153244114Y-106406654D01*
X159812501Y-106406654D01*
X159822819Y-106507652D01*
X159877046Y-106671300D01*
X159877051Y-106671311D01*
X159967552Y-106818034D01*
X159967555Y-106818038D01*
X160089461Y-106939944D01*
X160089465Y-106939947D01*
X160236188Y-107030448D01*
X160236199Y-107030453D01*
X160399847Y-107084680D01*
X160500851Y-107094999D01*
X160600000Y-107094998D01*
X160600000Y-106370000D01*
X159812501Y-106370000D01*
X159812501Y-106406654D01*
X153244114Y-106406654D01*
X153244500Y-106403720D01*
X153244500Y-105278889D01*
X153264185Y-105211850D01*
X153316989Y-105166095D01*
X153386147Y-105156151D01*
X153449703Y-105185176D01*
X153456181Y-105191208D01*
X154149483Y-105884510D01*
X154216123Y-105922984D01*
X154275013Y-105956984D01*
X154415023Y-105994500D01*
X154415024Y-105994500D01*
X154559972Y-105994500D01*
X160726000Y-105994500D01*
X160793039Y-106014185D01*
X160838794Y-106066989D01*
X160850000Y-106118500D01*
X160850000Y-106120000D01*
X160976000Y-106120000D01*
X161043039Y-106139685D01*
X161088794Y-106192489D01*
X161100000Y-106244000D01*
X161100000Y-107094999D01*
X161199140Y-107094999D01*
X161199154Y-107094998D01*
X161300152Y-107084680D01*
X161463800Y-107030453D01*
X161463811Y-107030448D01*
X161610535Y-106939947D01*
X161624460Y-106926021D01*
X161685782Y-106892533D01*
X161755473Y-106897514D01*
X161799827Y-106926017D01*
X161814150Y-106940340D01*
X161960984Y-107030908D01*
X162124747Y-107085174D01*
X162225823Y-107095500D01*
X162924176Y-107095499D01*
X162924184Y-107095498D01*
X162924187Y-107095498D01*
X162979530Y-107089844D01*
X163025253Y-107085174D01*
X163189016Y-107030908D01*
X163335850Y-106940340D01*
X163457840Y-106818350D01*
X163548408Y-106671516D01*
X163602674Y-106507753D01*
X163608647Y-106449276D01*
X163635042Y-106384586D01*
X163644315Y-106374208D01*
X164021705Y-105996819D01*
X164048632Y-105982115D01*
X164074451Y-105965523D01*
X164080651Y-105964631D01*
X164083028Y-105963334D01*
X164109386Y-105960500D01*
X164325639Y-105960500D01*
X164392678Y-105980185D01*
X164413315Y-105996814D01*
X164483490Y-106066989D01*
X164525966Y-106109465D01*
X164673446Y-106208009D01*
X164673459Y-106208016D01*
X164760334Y-106244000D01*
X164837334Y-106275894D01*
X164837336Y-106275894D01*
X164837341Y-106275896D01*
X165011304Y-106310499D01*
X165011307Y-106310500D01*
X165011309Y-106310500D01*
X165188693Y-106310500D01*
X165188694Y-106310499D01*
X165246682Y-106298964D01*
X165362658Y-106275896D01*
X165362661Y-106275894D01*
X165362666Y-106275894D01*
X165526547Y-106208013D01*
X165674035Y-106109464D01*
X165799464Y-105984035D01*
X165898013Y-105836547D01*
X165965894Y-105672666D01*
X165968315Y-105660499D01*
X166000499Y-105498695D01*
X166000500Y-105498693D01*
X166000500Y-105321306D01*
X166000499Y-105321304D01*
X165965896Y-105147341D01*
X165965893Y-105147332D01*
X165898016Y-104983459D01*
X165898009Y-104983446D01*
X165799464Y-104835965D01*
X165799461Y-104835961D01*
X165674038Y-104710538D01*
X165674034Y-104710535D01*
X165526553Y-104611990D01*
X165526540Y-104611983D01*
X165362667Y-104544106D01*
X165362658Y-104544103D01*
X165188694Y-104509500D01*
X165188691Y-104509500D01*
X165011309Y-104509500D01*
X165011306Y-104509500D01*
X164837341Y-104544103D01*
X164837332Y-104544106D01*
X164673459Y-104611983D01*
X164673446Y-104611990D01*
X164525966Y-104710534D01*
X164486816Y-104749685D01*
X164413318Y-104823182D01*
X164351998Y-104856666D01*
X164325639Y-104859500D01*
X163757525Y-104859500D01*
X163671744Y-104882485D01*
X163671743Y-104882484D01*
X163617519Y-104897014D01*
X163617512Y-104897017D01*
X163491989Y-104969487D01*
X163491988Y-104969488D01*
X163290694Y-105170781D01*
X163229371Y-105204265D01*
X163164010Y-105200805D01*
X163025255Y-105154826D01*
X163025251Y-105154825D01*
X162924184Y-105144500D01*
X162924177Y-105144500D01*
X162429387Y-105144500D01*
X162362348Y-105124815D01*
X162341706Y-105108181D01*
X162237016Y-105003491D01*
X162237015Y-105003490D01*
X162111485Y-104931016D01*
X162111486Y-104931016D01*
X161994654Y-104899711D01*
X161994651Y-104899709D01*
X161971477Y-104893500D01*
X161971475Y-104893500D01*
X154766885Y-104893500D01*
X154699846Y-104873815D01*
X154679204Y-104857181D01*
X154425204Y-104603181D01*
X154391719Y-104541858D01*
X154396703Y-104472166D01*
X154438575Y-104416233D01*
X154504039Y-104391816D01*
X154512885Y-104391500D01*
X155256713Y-104391500D01*
X155256720Y-104391500D01*
X155369236Y-104376687D01*
X155509233Y-104318698D01*
X155528632Y-104303811D01*
X155531314Y-104302370D01*
X155532332Y-104301080D01*
X155543394Y-104295877D01*
X155563724Y-104284950D01*
X155567821Y-104283537D01*
X155678119Y-104253984D01*
X155704100Y-104238984D01*
X155803649Y-104181510D01*
X156245173Y-103739986D01*
X160440001Y-103739986D01*
X160450494Y-103842697D01*
X160505641Y-104009119D01*
X160505643Y-104009124D01*
X160597684Y-104158345D01*
X160721654Y-104282315D01*
X160870875Y-104374356D01*
X160870880Y-104374358D01*
X161037302Y-104429505D01*
X161037309Y-104429506D01*
X161140019Y-104439999D01*
X161289999Y-104439999D01*
X161290000Y-104439998D01*
X161290000Y-103490000D01*
X160440001Y-103490000D01*
X160440001Y-103739986D01*
X156245173Y-103739986D01*
X157245146Y-102740013D01*
X160440000Y-102740013D01*
X160440000Y-102990000D01*
X161290000Y-102990000D01*
X161290000Y-102040000D01*
X161140027Y-102040000D01*
X161140012Y-102040001D01*
X161037302Y-102050494D01*
X160870880Y-102105641D01*
X160870875Y-102105643D01*
X160721654Y-102197684D01*
X160597684Y-102321654D01*
X160505643Y-102470875D01*
X160505641Y-102470880D01*
X160450494Y-102637302D01*
X160450493Y-102637309D01*
X160440000Y-102740013D01*
X157245146Y-102740013D01*
X158355340Y-101629819D01*
X158416663Y-101596334D01*
X158443021Y-101593500D01*
X163406500Y-101593500D01*
X163415185Y-101596050D01*
X163424147Y-101594762D01*
X163448187Y-101605740D01*
X163473539Y-101613185D01*
X163479466Y-101620025D01*
X163487703Y-101623787D01*
X163501992Y-101646021D01*
X163519294Y-101665989D01*
X163521581Y-101676503D01*
X163525477Y-101682565D01*
X163530500Y-101717500D01*
X163530500Y-101915500D01*
X163510815Y-101982539D01*
X163458011Y-102028294D01*
X163406500Y-102039500D01*
X163139999Y-102039500D01*
X163139980Y-102039501D01*
X163037203Y-102050000D01*
X163037200Y-102050001D01*
X162870668Y-102105185D01*
X162870663Y-102105187D01*
X162721345Y-102197287D01*
X162627327Y-102291305D01*
X162566003Y-102324789D01*
X162496312Y-102319805D01*
X162451965Y-102291304D01*
X162358345Y-102197684D01*
X162209124Y-102105643D01*
X162209119Y-102105641D01*
X162042697Y-102050494D01*
X162042690Y-102050493D01*
X161939986Y-102040000D01*
X161790000Y-102040000D01*
X161790000Y-104439999D01*
X161939972Y-104439999D01*
X161939986Y-104439998D01*
X162042697Y-104429505D01*
X162209119Y-104374358D01*
X162209124Y-104374356D01*
X162358342Y-104282317D01*
X162451964Y-104188695D01*
X162513287Y-104155210D01*
X162582979Y-104160194D01*
X162627327Y-104188695D01*
X162721344Y-104282712D01*
X162870666Y-104374814D01*
X163037203Y-104429999D01*
X163139991Y-104440500D01*
X163940008Y-104440499D01*
X163940016Y-104440498D01*
X163940019Y-104440498D01*
X164011980Y-104433147D01*
X164042797Y-104429999D01*
X164209334Y-104374814D01*
X164358656Y-104282712D01*
X164482712Y-104158656D01*
X164574814Y-104009334D01*
X164629999Y-103842797D01*
X164640500Y-103740009D01*
X164640499Y-102739992D01*
X164637859Y-102714151D01*
X164632142Y-102658180D01*
X164631500Y-102645579D01*
X164631500Y-98883559D01*
X164631500Y-98883557D01*
X164613556Y-98816590D01*
X164615219Y-98746743D01*
X164654381Y-98688881D01*
X164718609Y-98661376D01*
X164733331Y-98660499D01*
X165140612Y-98660499D01*
X165207651Y-98680184D01*
X165228293Y-98696818D01*
X166853181Y-100321706D01*
X166886666Y-100383029D01*
X166889500Y-100409387D01*
X166889500Y-114216267D01*
X166869815Y-114283306D01*
X166817011Y-114329061D01*
X166804506Y-114333972D01*
X166770671Y-114345184D01*
X166770663Y-114345187D01*
X166621342Y-114437289D01*
X166497289Y-114561342D01*
X166405187Y-114710663D01*
X166405185Y-114710668D01*
X166399922Y-114726552D01*
X166350001Y-114877203D01*
X166350001Y-114877204D01*
X166350000Y-114877204D01*
X166339500Y-114979983D01*
X166339500Y-114979996D01*
X166339501Y-115980000D01*
X166339501Y-115980019D01*
X166350000Y-116082796D01*
X166350001Y-116082799D01*
X166392256Y-116210315D01*
X166405186Y-116249334D01*
X166497288Y-116398656D01*
X166621344Y-116522712D01*
X166770666Y-116614814D01*
X166937203Y-116669999D01*
X167039991Y-116680500D01*
X167840008Y-116680499D01*
X167840016Y-116680498D01*
X167840019Y-116680498D01*
X167896302Y-116674748D01*
X167942797Y-116669999D01*
X168109334Y-116614814D01*
X168258656Y-116522712D01*
X168352675Y-116428692D01*
X168413994Y-116395210D01*
X168483686Y-116400194D01*
X168528034Y-116428695D01*
X168621654Y-116522315D01*
X168770875Y-116614356D01*
X168770880Y-116614358D01*
X168937302Y-116669505D01*
X168937309Y-116669506D01*
X169040019Y-116679999D01*
X169189999Y-116679999D01*
X169690000Y-116679999D01*
X169839972Y-116679999D01*
X169839986Y-116679998D01*
X169942697Y-116669505D01*
X170109119Y-116614358D01*
X170109124Y-116614356D01*
X170258345Y-116522315D01*
X170382315Y-116398345D01*
X170474356Y-116249124D01*
X170474358Y-116249119D01*
X170529505Y-116082697D01*
X170529506Y-116082690D01*
X170539999Y-115979986D01*
X170540000Y-115979973D01*
X170540000Y-115730000D01*
X169690000Y-115730000D01*
X169690000Y-116679999D01*
X169189999Y-116679999D01*
X169190000Y-116679998D01*
X169190000Y-115230000D01*
X169690000Y-115230000D01*
X170539999Y-115230000D01*
X170539999Y-114980028D01*
X170539998Y-114980013D01*
X170529505Y-114877302D01*
X170474358Y-114710880D01*
X170474356Y-114710875D01*
X170382315Y-114561654D01*
X170258345Y-114437684D01*
X170109124Y-114345643D01*
X170109119Y-114345641D01*
X169942697Y-114290494D01*
X169942690Y-114290493D01*
X169839986Y-114280000D01*
X169690000Y-114280000D01*
X169690000Y-115230000D01*
X169190000Y-115230000D01*
X169190000Y-114280000D01*
X169040027Y-114280000D01*
X169040012Y-114280001D01*
X168937302Y-114290494D01*
X168770880Y-114345641D01*
X168770875Y-114345643D01*
X168621657Y-114437682D01*
X168528034Y-114531305D01*
X168466710Y-114564789D01*
X168397019Y-114559805D01*
X168352672Y-114531304D01*
X168258657Y-114437289D01*
X168258656Y-114437288D01*
X168165888Y-114380069D01*
X168109336Y-114345187D01*
X168109335Y-114345186D01*
X168109334Y-114345186D01*
X168109328Y-114345184D01*
X168075494Y-114333972D01*
X168018050Y-114294199D01*
X167991228Y-114229683D01*
X167990500Y-114216267D01*
X167990500Y-100057527D01*
X167990500Y-100057525D01*
X167952984Y-99917515D01*
X167937964Y-99891500D01*
X167880510Y-99791985D01*
X166711485Y-98622960D01*
X166678000Y-98561637D01*
X166682984Y-98491945D01*
X166699897Y-98460972D01*
X166743796Y-98402331D01*
X166794091Y-98267483D01*
X166800500Y-98207873D01*
X166800500Y-98207844D01*
X167300000Y-98207844D01*
X167306401Y-98267372D01*
X167306403Y-98267379D01*
X167356645Y-98402086D01*
X167356649Y-98402093D01*
X167442809Y-98517187D01*
X167442812Y-98517190D01*
X167557906Y-98603350D01*
X167557913Y-98603354D01*
X167692620Y-98653596D01*
X167692627Y-98653598D01*
X167752155Y-98659999D01*
X167752172Y-98660000D01*
X168750000Y-98660000D01*
X169250000Y-98660000D01*
X170247828Y-98660000D01*
X170247844Y-98659999D01*
X170307372Y-98653598D01*
X170307379Y-98653596D01*
X170442086Y-98603354D01*
X170442093Y-98603350D01*
X170557187Y-98517190D01*
X170557190Y-98517187D01*
X170643350Y-98402093D01*
X170643354Y-98402086D01*
X170693596Y-98267379D01*
X170693598Y-98267372D01*
X170699999Y-98207844D01*
X170700000Y-98207827D01*
X170700000Y-98040000D01*
X169250000Y-98040000D01*
X169250000Y-98660000D01*
X168750000Y-98660000D01*
X168750000Y-98040000D01*
X167300000Y-98040000D01*
X167300000Y-98207844D01*
X166800500Y-98207844D01*
X166800499Y-97783360D01*
X166800499Y-97372129D01*
X166800498Y-97372123D01*
X166800447Y-97371650D01*
X166794103Y-97312627D01*
X166794091Y-97312516D01*
X166753311Y-97203181D01*
X166751502Y-97198332D01*
X166746519Y-97128642D01*
X166751503Y-97111667D01*
X166794091Y-96997483D01*
X166800500Y-96937873D01*
X166800500Y-96937844D01*
X167300000Y-96937844D01*
X167306401Y-96997372D01*
X167306403Y-96997380D01*
X167349029Y-97111667D01*
X167354013Y-97181359D01*
X167349029Y-97198333D01*
X167306403Y-97312619D01*
X167306401Y-97312627D01*
X167300000Y-97372155D01*
X167300000Y-97540000D01*
X168750000Y-97540000D01*
X169250000Y-97540000D01*
X170700000Y-97540000D01*
X170700000Y-97372172D01*
X170699999Y-97372155D01*
X170693598Y-97312627D01*
X170693597Y-97312623D01*
X170650969Y-97198334D01*
X170645985Y-97128643D01*
X170650969Y-97111666D01*
X170693597Y-96997376D01*
X170693598Y-96997372D01*
X170699999Y-96937844D01*
X170700000Y-96937827D01*
X170700000Y-96770000D01*
X169250000Y-96770000D01*
X169250000Y-97540000D01*
X168750000Y-97540000D01*
X168750000Y-96770000D01*
X167300000Y-96770000D01*
X167300000Y-96937844D01*
X166800500Y-96937844D01*
X166800499Y-96519000D01*
X166800499Y-96102129D01*
X166800498Y-96102123D01*
X166798065Y-96079491D01*
X166794103Y-96042627D01*
X166794091Y-96042516D01*
X166753311Y-95933181D01*
X166751502Y-95928332D01*
X166746519Y-95858642D01*
X166751503Y-95841667D01*
X166794091Y-95727483D01*
X166800500Y-95667873D01*
X166800500Y-95667844D01*
X167300000Y-95667844D01*
X167306401Y-95727372D01*
X167306403Y-95727380D01*
X167349029Y-95841667D01*
X167354013Y-95911359D01*
X167349029Y-95928333D01*
X167306403Y-96042619D01*
X167306401Y-96042627D01*
X167300000Y-96102155D01*
X167300000Y-96270000D01*
X168750000Y-96270000D01*
X169250000Y-96270000D01*
X170700000Y-96270000D01*
X170700000Y-96102172D01*
X170699999Y-96102155D01*
X170693598Y-96042627D01*
X170693597Y-96042623D01*
X170650969Y-95928334D01*
X170645985Y-95858643D01*
X170650969Y-95841666D01*
X170693597Y-95727376D01*
X170693598Y-95727372D01*
X170699999Y-95667844D01*
X170700000Y-95667827D01*
X170700000Y-95500000D01*
X169250000Y-95500000D01*
X169250000Y-96270000D01*
X168750000Y-96270000D01*
X168750000Y-95500000D01*
X167300000Y-95500000D01*
X167300000Y-95667844D01*
X166800500Y-95667844D01*
X166800499Y-95219927D01*
X166800499Y-94832129D01*
X166800498Y-94832123D01*
X166799565Y-94823447D01*
X166794103Y-94772627D01*
X166794091Y-94772516D01*
X166763950Y-94691705D01*
X166751502Y-94658332D01*
X166746519Y-94588642D01*
X166751503Y-94571667D01*
X166794091Y-94457483D01*
X166800500Y-94397873D01*
X166800500Y-94397844D01*
X167300000Y-94397844D01*
X167306401Y-94457372D01*
X167306403Y-94457380D01*
X167349029Y-94571667D01*
X167354013Y-94641359D01*
X167349029Y-94658333D01*
X167306403Y-94772619D01*
X167306401Y-94772627D01*
X167300000Y-94832155D01*
X167300000Y-95000000D01*
X168750000Y-95000000D01*
X169250000Y-95000000D01*
X170700000Y-95000000D01*
X170700000Y-94832172D01*
X170699999Y-94832155D01*
X170693598Y-94772627D01*
X170693597Y-94772623D01*
X170650969Y-94658334D01*
X170645985Y-94588643D01*
X170650969Y-94571666D01*
X170693597Y-94457376D01*
X170693598Y-94457372D01*
X170699999Y-94397844D01*
X170700000Y-94397827D01*
X170700000Y-94230000D01*
X169250000Y-94230000D01*
X169250000Y-95000000D01*
X168750000Y-95000000D01*
X168750000Y-94230000D01*
X167300000Y-94230000D01*
X167300000Y-94397844D01*
X166800500Y-94397844D01*
X166800499Y-93979986D01*
X166800499Y-93562129D01*
X166800498Y-93562123D01*
X166794091Y-93502516D01*
X166760707Y-93413011D01*
X166751502Y-93388332D01*
X166746519Y-93318642D01*
X166751503Y-93301667D01*
X166794091Y-93187483D01*
X166800500Y-93127873D01*
X166800500Y-93127844D01*
X167300000Y-93127844D01*
X167306401Y-93187372D01*
X167306403Y-93187380D01*
X167349029Y-93301667D01*
X167354013Y-93371359D01*
X167349029Y-93388333D01*
X167306403Y-93502619D01*
X167306401Y-93502627D01*
X167300000Y-93562155D01*
X167300000Y-93730000D01*
X168750000Y-93730000D01*
X169250000Y-93730000D01*
X170700000Y-93730000D01*
X170700000Y-93562172D01*
X170699999Y-93562155D01*
X170693598Y-93502627D01*
X170693597Y-93502623D01*
X170650969Y-93388334D01*
X170645985Y-93318643D01*
X170650969Y-93301666D01*
X170693597Y-93187376D01*
X170693598Y-93187372D01*
X170699999Y-93127844D01*
X170700000Y-93127827D01*
X170700000Y-92960000D01*
X169250000Y-92960000D01*
X169250000Y-93730000D01*
X168750000Y-93730000D01*
X168750000Y-92960000D01*
X167300000Y-92960000D01*
X167300000Y-93127844D01*
X166800500Y-93127844D01*
X166800499Y-92690946D01*
X166800499Y-92292129D01*
X166800498Y-92292123D01*
X166799141Y-92279501D01*
X166794103Y-92232627D01*
X166794091Y-92232516D01*
X166756210Y-92130954D01*
X166751502Y-92118332D01*
X166746519Y-92048642D01*
X166751503Y-92031667D01*
X166794091Y-91917483D01*
X166800500Y-91857873D01*
X166800500Y-91857844D01*
X167300000Y-91857844D01*
X167306401Y-91917372D01*
X167306403Y-91917380D01*
X167349029Y-92031667D01*
X167354013Y-92101359D01*
X167349029Y-92118333D01*
X167306403Y-92232619D01*
X167306401Y-92232627D01*
X167300000Y-92292155D01*
X167300000Y-92460000D01*
X168750000Y-92460000D01*
X169250000Y-92460000D01*
X170700000Y-92460000D01*
X170700000Y-92292172D01*
X170699999Y-92292155D01*
X170693598Y-92232627D01*
X170693597Y-92232623D01*
X170650969Y-92118334D01*
X170645985Y-92048643D01*
X170650969Y-92031666D01*
X170693597Y-91917376D01*
X170693598Y-91917372D01*
X170699999Y-91857844D01*
X170700000Y-91857827D01*
X170700000Y-91690000D01*
X169250000Y-91690000D01*
X169250000Y-92460000D01*
X168750000Y-92460000D01*
X168750000Y-91690000D01*
X167300000Y-91690000D01*
X167300000Y-91857844D01*
X166800500Y-91857844D01*
X166800499Y-91438463D01*
X166800499Y-91022129D01*
X166800498Y-91022123D01*
X166799123Y-91009334D01*
X166794103Y-90962627D01*
X166794091Y-90962516D01*
X166752252Y-90850342D01*
X166751502Y-90848332D01*
X166746519Y-90778642D01*
X166751503Y-90761667D01*
X166794091Y-90647483D01*
X166800500Y-90587873D01*
X166800500Y-90587844D01*
X167300000Y-90587844D01*
X167306401Y-90647372D01*
X167306403Y-90647380D01*
X167349029Y-90761667D01*
X167354013Y-90831359D01*
X167349029Y-90848333D01*
X167306403Y-90962619D01*
X167306401Y-90962627D01*
X167300000Y-91022155D01*
X167300000Y-91190000D01*
X168750000Y-91190000D01*
X169250000Y-91190000D01*
X170700000Y-91190000D01*
X170700000Y-91022172D01*
X170699999Y-91022155D01*
X170693598Y-90962627D01*
X170693597Y-90962623D01*
X170650969Y-90848334D01*
X170645985Y-90778643D01*
X170650969Y-90761666D01*
X170693597Y-90647376D01*
X170693598Y-90647372D01*
X170699999Y-90587844D01*
X170700000Y-90587827D01*
X170700000Y-90420000D01*
X169250000Y-90420000D01*
X169250000Y-91190000D01*
X168750000Y-91190000D01*
X168750000Y-90420000D01*
X167300000Y-90420000D01*
X167300000Y-90587844D01*
X166800500Y-90587844D01*
X166800499Y-90109038D01*
X166800499Y-89752129D01*
X166800498Y-89752123D01*
X166794091Y-89692516D01*
X166764603Y-89613456D01*
X166751502Y-89578332D01*
X166746519Y-89508642D01*
X166751503Y-89491667D01*
X166794091Y-89377483D01*
X166800500Y-89317873D01*
X166800500Y-89317844D01*
X167300000Y-89317844D01*
X167306401Y-89377372D01*
X167306403Y-89377380D01*
X167349029Y-89491667D01*
X167354013Y-89561359D01*
X167349029Y-89578333D01*
X167306403Y-89692619D01*
X167306401Y-89692627D01*
X167300000Y-89752155D01*
X167300000Y-89920000D01*
X168750000Y-89920000D01*
X169250000Y-89920000D01*
X170700000Y-89920000D01*
X170700000Y-89752172D01*
X170699999Y-89752155D01*
X170693598Y-89692627D01*
X170693597Y-89692623D01*
X170650969Y-89578334D01*
X170645985Y-89508643D01*
X170650969Y-89491666D01*
X170693597Y-89377376D01*
X170693598Y-89377372D01*
X170699999Y-89317844D01*
X170700000Y-89317827D01*
X170700000Y-89150000D01*
X169250000Y-89150000D01*
X169250000Y-89920000D01*
X168750000Y-89920000D01*
X168750000Y-89150000D01*
X167300000Y-89150000D01*
X167300000Y-89317844D01*
X166800500Y-89317844D01*
X166800499Y-88857468D01*
X166800499Y-88482129D01*
X166800498Y-88482123D01*
X166794091Y-88422516D01*
X166764603Y-88343456D01*
X166751502Y-88308332D01*
X166746519Y-88238642D01*
X166751503Y-88221667D01*
X166794091Y-88107483D01*
X166800500Y-88047873D01*
X166800500Y-88047844D01*
X167300000Y-88047844D01*
X167306401Y-88107372D01*
X167306403Y-88107380D01*
X167349029Y-88221667D01*
X167354013Y-88291359D01*
X167349029Y-88308333D01*
X167306403Y-88422619D01*
X167306401Y-88422627D01*
X167300000Y-88482155D01*
X167300000Y-88650000D01*
X168750000Y-88650000D01*
X169250000Y-88650000D01*
X170700000Y-88650000D01*
X170700000Y-88482172D01*
X170699999Y-88482155D01*
X170693598Y-88422627D01*
X170693597Y-88422623D01*
X170650969Y-88308334D01*
X170645985Y-88238643D01*
X170650969Y-88221666D01*
X170693597Y-88107376D01*
X170693598Y-88107372D01*
X170699999Y-88047844D01*
X170700000Y-88047827D01*
X170700000Y-87880000D01*
X169250000Y-87880000D01*
X169250000Y-88650000D01*
X168750000Y-88650000D01*
X168750000Y-87880000D01*
X167300000Y-87880000D01*
X167300000Y-88047844D01*
X166800500Y-88047844D01*
X166800499Y-87212128D01*
X166794103Y-87152627D01*
X166794091Y-87152516D01*
X166766236Y-87077833D01*
X166761252Y-87008141D01*
X166794737Y-86946818D01*
X166856061Y-86913334D01*
X166882418Y-86910500D01*
X167218115Y-86910500D01*
X167285154Y-86930185D01*
X167330909Y-86982989D01*
X167340853Y-87052147D01*
X167334297Y-87077833D01*
X167306403Y-87152620D01*
X167306401Y-87152627D01*
X167300000Y-87212155D01*
X167300000Y-87380000D01*
X170700000Y-87380000D01*
X170700000Y-87212172D01*
X170699999Y-87212155D01*
X170693598Y-87152627D01*
X170693597Y-87152623D01*
X170651236Y-87039049D01*
X170646252Y-86969357D01*
X170651232Y-86952391D01*
X170694091Y-86837483D01*
X170700500Y-86777873D01*
X170700499Y-85942128D01*
X170694091Y-85882517D01*
X170666857Y-85809500D01*
X170643797Y-85747671D01*
X170643793Y-85747664D01*
X170557547Y-85632455D01*
X170557544Y-85632452D01*
X170442335Y-85546206D01*
X170442328Y-85546202D01*
X170307482Y-85495908D01*
X170307483Y-85495908D01*
X170247883Y-85489501D01*
X170247881Y-85489500D01*
X170247873Y-85489500D01*
X170247864Y-85489500D01*
X167752129Y-85489500D01*
X167752123Y-85489501D01*
X167692516Y-85495908D01*
X167557671Y-85546202D01*
X167557664Y-85546206D01*
X167442455Y-85632452D01*
X167442452Y-85632455D01*
X167350888Y-85754769D01*
X167349155Y-85753471D01*
X167308298Y-85794331D01*
X167248869Y-85809500D01*
X166851131Y-85809500D01*
X166784092Y-85789815D01*
X166750497Y-85753731D01*
X166749112Y-85754769D01*
X166657547Y-85632455D01*
X166657544Y-85632452D01*
X166542335Y-85546206D01*
X166542328Y-85546202D01*
X166407482Y-85495908D01*
X166407483Y-85495908D01*
X166347883Y-85489501D01*
X166347881Y-85489500D01*
X166347873Y-85489500D01*
X166347864Y-85489500D01*
X163852129Y-85489500D01*
X163852123Y-85489501D01*
X163792516Y-85495908D01*
X163657671Y-85546202D01*
X163657664Y-85546206D01*
X163542455Y-85632452D01*
X163542452Y-85632455D01*
X163450888Y-85754769D01*
X163449155Y-85753471D01*
X163408298Y-85794331D01*
X163348869Y-85809500D01*
X159279387Y-85809500D01*
X159212348Y-85789815D01*
X159191706Y-85773181D01*
X152783016Y-79364491D01*
X152783015Y-79364490D01*
X152657485Y-79292016D01*
X152657480Y-79292014D01*
X152620166Y-79282015D01*
X152620166Y-79282016D01*
X152568820Y-79268258D01*
X152517475Y-79254500D01*
X152517474Y-79254500D01*
X146051119Y-79254500D01*
X146019026Y-79250275D01*
X145997474Y-79244500D01*
X145852526Y-79244500D01*
X145747517Y-79272637D01*
X145712514Y-79282016D01*
X145586986Y-79354489D01*
X145586983Y-79354491D01*
X140370991Y-84570483D01*
X140370987Y-84570488D01*
X140317267Y-84663534D01*
X140317268Y-84663535D01*
X140298516Y-84696013D01*
X140287479Y-84737204D01*
X140261000Y-84836025D01*
X140261000Y-84836027D01*
X140261000Y-91039192D01*
X140241315Y-91106231D01*
X140188511Y-91151986D01*
X140119353Y-91161930D01*
X140055797Y-91132905D01*
X140049319Y-91126873D01*
X134813009Y-85890563D01*
X134779524Y-85829240D01*
X134784508Y-85759548D01*
X134826380Y-85703615D01*
X134891844Y-85679198D01*
X134924881Y-85681264D01*
X134950049Y-85686271D01*
X134971308Y-85690500D01*
X134971309Y-85690500D01*
X135148693Y-85690500D01*
X135148694Y-85690499D01*
X135206682Y-85678964D01*
X135322658Y-85655896D01*
X135322661Y-85655894D01*
X135322666Y-85655894D01*
X135486547Y-85588013D01*
X135634035Y-85489464D01*
X135759464Y-85364035D01*
X135858013Y-85216547D01*
X135925894Y-85052666D01*
X135935239Y-85005680D01*
X135967624Y-84943770D01*
X135969176Y-84942191D01*
X142522948Y-78388419D01*
X142522951Y-78388416D01*
X142605084Y-78265495D01*
X142661658Y-78128913D01*
X142690500Y-77983918D01*
X142690500Y-77836083D01*
X142690500Y-74317220D01*
X142710185Y-74250181D01*
X142741614Y-74216902D01*
X142819792Y-74160104D01*
X142970104Y-74009792D01*
X142970106Y-74009788D01*
X142970109Y-74009786D01*
X143095048Y-73837820D01*
X143095047Y-73837820D01*
X143095051Y-73837816D01*
X143191557Y-73648412D01*
X143257246Y-73446243D01*
X143290500Y-73236287D01*
X143290500Y-72742229D01*
X143310185Y-72675190D01*
X143326819Y-72654548D01*
X143714548Y-72266819D01*
X143775871Y-72233334D01*
X143802229Y-72230500D01*
X148332948Y-72230500D01*
X148399987Y-72250185D01*
X148420629Y-72266819D01*
X148454150Y-72300340D01*
X148600984Y-72390908D01*
X148764747Y-72445174D01*
X148865823Y-72455500D01*
X149564176Y-72455499D01*
X149564184Y-72455498D01*
X149564187Y-72455498D01*
X149619530Y-72449844D01*
X149665253Y-72445174D01*
X149829016Y-72390908D01*
X149975850Y-72300340D01*
X149990171Y-72286018D01*
X150051489Y-72252533D01*
X150121181Y-72257514D01*
X150165534Y-72286017D01*
X150179461Y-72299944D01*
X150179465Y-72299947D01*
X150326188Y-72390448D01*
X150326199Y-72390453D01*
X150489847Y-72444680D01*
X150590851Y-72454999D01*
X151190000Y-72454999D01*
X151289140Y-72454999D01*
X151289154Y-72454998D01*
X151390152Y-72444680D01*
X151553800Y-72390453D01*
X151553811Y-72390448D01*
X151700534Y-72299947D01*
X151700538Y-72299944D01*
X151822444Y-72178038D01*
X151822447Y-72178034D01*
X151912948Y-72031311D01*
X151912953Y-72031300D01*
X151967180Y-71867652D01*
X151977499Y-71766654D01*
X151977500Y-71766641D01*
X151977500Y-71730000D01*
X151190000Y-71730000D01*
X151190000Y-72454999D01*
X150590851Y-72454999D01*
X150690000Y-72454998D01*
X150690000Y-71230000D01*
X151190000Y-71230000D01*
X151977499Y-71230000D01*
X151977499Y-71193360D01*
X151977498Y-71193345D01*
X151967180Y-71092347D01*
X151912953Y-70928699D01*
X151912948Y-70928688D01*
X151822447Y-70781965D01*
X151822444Y-70781961D01*
X151700538Y-70660055D01*
X151700534Y-70660052D01*
X151553811Y-70569551D01*
X151553800Y-70569546D01*
X151390152Y-70515319D01*
X151289154Y-70505000D01*
X151190000Y-70505000D01*
X151190000Y-71230000D01*
X150690000Y-71230000D01*
X150690000Y-70504999D01*
X150590860Y-70505000D01*
X150590844Y-70505001D01*
X150489847Y-70515319D01*
X150326199Y-70569546D01*
X150326188Y-70569551D01*
X150179465Y-70660052D01*
X150165532Y-70673985D01*
X150104208Y-70707468D01*
X150034516Y-70702482D01*
X149990172Y-70673982D01*
X149975851Y-70659661D01*
X149975850Y-70659660D01*
X149884629Y-70603395D01*
X149829018Y-70569093D01*
X149829013Y-70569091D01*
X149806597Y-70561663D01*
X149665253Y-70514826D01*
X149665251Y-70514825D01*
X149564178Y-70504500D01*
X148865830Y-70504500D01*
X148865812Y-70504501D01*
X148764747Y-70514825D01*
X148600984Y-70569092D01*
X148600981Y-70569093D01*
X148454148Y-70659661D01*
X148420629Y-70693181D01*
X148359306Y-70726666D01*
X148332948Y-70729500D01*
X143366080Y-70729500D01*
X143221092Y-70758340D01*
X143221082Y-70758343D01*
X143084511Y-70814912D01*
X143084498Y-70814919D01*
X142961584Y-70897048D01*
X142961580Y-70897051D01*
X142377627Y-71481004D01*
X142316304Y-71514489D01*
X142261209Y-71512925D01*
X142260978Y-71513891D01*
X142256240Y-71512753D01*
X142094957Y-71487208D01*
X142046287Y-71479500D01*
X141833713Y-71479500D01*
X141785042Y-71487208D01*
X141623760Y-71512753D01*
X141421585Y-71578444D01*
X141232179Y-71674951D01*
X141060215Y-71799889D01*
X140921035Y-71939069D01*
X140859712Y-71972553D01*
X140790020Y-71967569D01*
X140734087Y-71925697D01*
X140727815Y-71916484D01*
X140632315Y-71761654D01*
X140508345Y-71637684D01*
X140359124Y-71545643D01*
X140359119Y-71545641D01*
X140192697Y-71490494D01*
X140192690Y-71490493D01*
X140089986Y-71480000D01*
X139690000Y-71480000D01*
X139690000Y-72546988D01*
X139632993Y-72514075D01*
X139505826Y-72480000D01*
X139374174Y-72480000D01*
X139247007Y-72514075D01*
X139190000Y-72546988D01*
X139190000Y-71480000D01*
X138790028Y-71480000D01*
X138790012Y-71480001D01*
X138687302Y-71490494D01*
X138520880Y-71545641D01*
X138520875Y-71545643D01*
X138371654Y-71637684D01*
X138247684Y-71761654D01*
X138155643Y-71910875D01*
X138155641Y-71910880D01*
X138100494Y-72077302D01*
X138100493Y-72077309D01*
X138090000Y-72180013D01*
X138090000Y-72730000D01*
X139006988Y-72730000D01*
X138974075Y-72787007D01*
X138940000Y-72914174D01*
X138940000Y-73045826D01*
X138974075Y-73172993D01*
X139006988Y-73230000D01*
X138090001Y-73230000D01*
X138090001Y-73779986D01*
X138100494Y-73882697D01*
X138155641Y-74049119D01*
X138155643Y-74049124D01*
X138247684Y-74198345D01*
X138371654Y-74322315D01*
X138520875Y-74414356D01*
X138520880Y-74414358D01*
X138687302Y-74469505D01*
X138687309Y-74469506D01*
X138790019Y-74479999D01*
X139189999Y-74479999D01*
X139190000Y-74479998D01*
X139190000Y-73413012D01*
X139247007Y-73445925D01*
X139374174Y-73480000D01*
X139505826Y-73480000D01*
X139632993Y-73445925D01*
X139690000Y-73413012D01*
X139690000Y-74479999D01*
X140089972Y-74479999D01*
X140089986Y-74479998D01*
X140192697Y-74469505D01*
X140359119Y-74414358D01*
X140359124Y-74414356D01*
X140508345Y-74322315D01*
X140632317Y-74198343D01*
X140727815Y-74043516D01*
X140779763Y-73996791D01*
X140848725Y-73985568D01*
X140912808Y-74013412D01*
X140921035Y-74020931D01*
X141060208Y-74160104D01*
X141138384Y-74216902D01*
X141181051Y-74272231D01*
X141189500Y-74317220D01*
X141189500Y-77547769D01*
X141169815Y-77614808D01*
X141153181Y-77635450D01*
X134907807Y-83880823D01*
X134846484Y-83914308D01*
X134844319Y-83914759D01*
X134797337Y-83924104D01*
X134797331Y-83924106D01*
X134633459Y-83991983D01*
X134633446Y-83991990D01*
X134485965Y-84090535D01*
X134485961Y-84090538D01*
X134360538Y-84215961D01*
X134360535Y-84215965D01*
X134261990Y-84363446D01*
X134261983Y-84363459D01*
X134194106Y-84527332D01*
X134194103Y-84527341D01*
X134159500Y-84701304D01*
X134159500Y-84878695D01*
X134168734Y-84925118D01*
X134162507Y-84994710D01*
X134119643Y-85049887D01*
X134053754Y-85073131D01*
X133985757Y-85057063D01*
X133959436Y-85036990D01*
X130868134Y-81945688D01*
X130834649Y-81884365D01*
X130832457Y-81845404D01*
X130840500Y-81766677D01*
X130840499Y-81413306D01*
X130860183Y-81346268D01*
X130876812Y-81325631D01*
X130945276Y-81257169D01*
X131016465Y-81150627D01*
X131065501Y-81032244D01*
X131068966Y-81014826D01*
X131090500Y-80906569D01*
X131090500Y-76937610D01*
X131092078Y-76932235D01*
X131090977Y-76926742D01*
X131101815Y-76899075D01*
X131110185Y-76870571D01*
X131114956Y-76865529D01*
X131116462Y-76861686D01*
X131130751Y-76848839D01*
X131141823Y-76837141D01*
X131145511Y-76834472D01*
X131200850Y-76800340D01*
X131222168Y-76779021D01*
X131230176Y-76773229D01*
X131254156Y-76764728D01*
X131276489Y-76752533D01*
X131286537Y-76753251D01*
X131296031Y-76749886D01*
X131320800Y-76755700D01*
X131346181Y-76757514D01*
X131356338Y-76764041D01*
X131364052Y-76765852D01*
X131372107Y-76774175D01*
X131390534Y-76786017D01*
X131404461Y-76799944D01*
X131404465Y-76799947D01*
X131551188Y-76890448D01*
X131551199Y-76890453D01*
X131714847Y-76944680D01*
X131815851Y-76954999D01*
X132415000Y-76954999D01*
X132514140Y-76954999D01*
X132514154Y-76954998D01*
X132615152Y-76944680D01*
X132778800Y-76890453D01*
X132778811Y-76890448D01*
X132925534Y-76799947D01*
X132925538Y-76799944D01*
X133047444Y-76678038D01*
X133047447Y-76678034D01*
X133137948Y-76531311D01*
X133137953Y-76531300D01*
X133192180Y-76367652D01*
X133202499Y-76266654D01*
X133202500Y-76266641D01*
X133202500Y-76230000D01*
X132415000Y-76230000D01*
X132415000Y-76954999D01*
X131815851Y-76954999D01*
X131915000Y-76954998D01*
X131915000Y-75730000D01*
X132415000Y-75730000D01*
X133202499Y-75730000D01*
X133202499Y-75693360D01*
X133202498Y-75693345D01*
X133192180Y-75592347D01*
X133137953Y-75428699D01*
X133137948Y-75428688D01*
X133047447Y-75281965D01*
X133047444Y-75281961D01*
X132925538Y-75160055D01*
X132925534Y-75160052D01*
X132778811Y-75069551D01*
X132778800Y-75069546D01*
X132615152Y-75015319D01*
X132514154Y-75005000D01*
X132415000Y-75005000D01*
X132415000Y-75730000D01*
X131915000Y-75730000D01*
X131915000Y-75004999D01*
X131815860Y-75005000D01*
X131815844Y-75005001D01*
X131714847Y-75015319D01*
X131551199Y-75069546D01*
X131544649Y-75072601D01*
X131543645Y-75070448D01*
X131487193Y-75085890D01*
X131420531Y-75064961D01*
X131375767Y-75011315D01*
X131365500Y-74961911D01*
X131365500Y-72937610D01*
X131367078Y-72932235D01*
X131365977Y-72926742D01*
X131376815Y-72899075D01*
X131385185Y-72870571D01*
X131389956Y-72865529D01*
X131391462Y-72861686D01*
X131405751Y-72848839D01*
X131416823Y-72837141D01*
X131420511Y-72834472D01*
X131475850Y-72800340D01*
X131497168Y-72779021D01*
X131505176Y-72773229D01*
X131529156Y-72764728D01*
X131551489Y-72752533D01*
X131561537Y-72753251D01*
X131571031Y-72749886D01*
X131595800Y-72755700D01*
X131621181Y-72757514D01*
X131631338Y-72764041D01*
X131639052Y-72765852D01*
X131647107Y-72774175D01*
X131665534Y-72786017D01*
X131679461Y-72799944D01*
X131679465Y-72799947D01*
X131826188Y-72890448D01*
X131826199Y-72890453D01*
X131989847Y-72944680D01*
X132090851Y-72954999D01*
X132690000Y-72954999D01*
X132789140Y-72954999D01*
X132789154Y-72954998D01*
X132890152Y-72944680D01*
X133053800Y-72890453D01*
X133053811Y-72890448D01*
X133200534Y-72799947D01*
X133200538Y-72799944D01*
X133322444Y-72678038D01*
X133322447Y-72678034D01*
X133412948Y-72531311D01*
X133412953Y-72531300D01*
X133467180Y-72367652D01*
X133477499Y-72266654D01*
X133477500Y-72266641D01*
X133477500Y-72230000D01*
X132690000Y-72230000D01*
X132690000Y-72954999D01*
X132090851Y-72954999D01*
X132190000Y-72954998D01*
X132190000Y-71730000D01*
X132690000Y-71730000D01*
X133477499Y-71730000D01*
X133477499Y-71693360D01*
X133477498Y-71693345D01*
X133467180Y-71592347D01*
X133412953Y-71428699D01*
X133412948Y-71428688D01*
X133322447Y-71281965D01*
X133322444Y-71281961D01*
X133200538Y-71160055D01*
X133200534Y-71160052D01*
X133053811Y-71069551D01*
X133053800Y-71069546D01*
X132890152Y-71015319D01*
X132789154Y-71005000D01*
X132690000Y-71005000D01*
X132690000Y-71730000D01*
X132190000Y-71730000D01*
X132190000Y-71004999D01*
X132090860Y-71005000D01*
X132090844Y-71005001D01*
X131989847Y-71015319D01*
X131826199Y-71069546D01*
X131826188Y-71069551D01*
X131679465Y-71160052D01*
X131665532Y-71173985D01*
X131604208Y-71207468D01*
X131534516Y-71202482D01*
X131490172Y-71173982D01*
X131475851Y-71159661D01*
X131475850Y-71159660D01*
X131366556Y-71092247D01*
X131329018Y-71069093D01*
X131329013Y-71069091D01*
X131327569Y-71068612D01*
X131165253Y-71014826D01*
X131165251Y-71014825D01*
X131064178Y-71004500D01*
X130365830Y-71004500D01*
X130365812Y-71004501D01*
X130264747Y-71014825D01*
X130100984Y-71069092D01*
X130100981Y-71069093D01*
X129954148Y-71159661D01*
X129832155Y-71281654D01*
X129831555Y-71282414D01*
X129831010Y-71282799D01*
X129827053Y-71286757D01*
X129826376Y-71286080D01*
X129774532Y-71322789D01*
X129734292Y-71329500D01*
X125420708Y-71329500D01*
X125353669Y-71309815D01*
X125328084Y-71286619D01*
X125327947Y-71286757D01*
X125325147Y-71283957D01*
X125323445Y-71282414D01*
X125322844Y-71281654D01*
X125200851Y-71159661D01*
X125200850Y-71159660D01*
X125091556Y-71092247D01*
X125054018Y-71069093D01*
X125054013Y-71069091D01*
X125052569Y-71068612D01*
X124890253Y-71014826D01*
X124890251Y-71014825D01*
X124789178Y-71004500D01*
X124090830Y-71004500D01*
X124090812Y-71004501D01*
X123989747Y-71014825D01*
X123825984Y-71069092D01*
X123825981Y-71069093D01*
X123679148Y-71159661D01*
X123664825Y-71173984D01*
X123603501Y-71207468D01*
X123533809Y-71202482D01*
X123489465Y-71173982D01*
X123475538Y-71160055D01*
X123475534Y-71160052D01*
X123328811Y-71069551D01*
X123328800Y-71069546D01*
X123165152Y-71015319D01*
X123064154Y-71005000D01*
X122965000Y-71005000D01*
X122965000Y-72954999D01*
X123064140Y-72954999D01*
X123064154Y-72954998D01*
X123165152Y-72944680D01*
X123328800Y-72890453D01*
X123328811Y-72890448D01*
X123475535Y-72799947D01*
X123489460Y-72786021D01*
X123550782Y-72752533D01*
X123620473Y-72757514D01*
X123649822Y-72773228D01*
X123657832Y-72779022D01*
X123679150Y-72800340D01*
X123734490Y-72834474D01*
X123738176Y-72837140D01*
X123756882Y-72861294D01*
X123777321Y-72884017D01*
X123778501Y-72889209D01*
X123780957Y-72892381D01*
X123782053Y-72904841D01*
X123789500Y-72937610D01*
X123789500Y-76544069D01*
X123789500Y-76544071D01*
X123789499Y-76544071D01*
X123812493Y-76659660D01*
X123812494Y-76659663D01*
X123814498Y-76669743D01*
X123862661Y-76786017D01*
X123863535Y-76788127D01*
X123927606Y-76884017D01*
X123929855Y-76887383D01*
X123950732Y-76954061D01*
X123944458Y-76995276D01*
X123912326Y-77092244D01*
X123912325Y-77092248D01*
X123902000Y-77193315D01*
X123902000Y-77546691D01*
X123882315Y-77613730D01*
X123865681Y-77634372D01*
X120289552Y-81210500D01*
X120228229Y-81243985D01*
X120158537Y-81239001D01*
X120114190Y-81210500D01*
X120063351Y-81159661D01*
X120063350Y-81159660D01*
X119954056Y-81092247D01*
X119916518Y-81069093D01*
X119916513Y-81069091D01*
X119915069Y-81068612D01*
X119752753Y-81014826D01*
X119752751Y-81014825D01*
X119651678Y-81004500D01*
X118953330Y-81004500D01*
X118953312Y-81004501D01*
X118852247Y-81014825D01*
X118688484Y-81069092D01*
X118688481Y-81069093D01*
X118541648Y-81159661D01*
X118527325Y-81173984D01*
X118466001Y-81207468D01*
X118396309Y-81202482D01*
X118351965Y-81173982D01*
X118338038Y-81160055D01*
X118338034Y-81160052D01*
X118191311Y-81069551D01*
X118191300Y-81069546D01*
X118027652Y-81015319D01*
X117926654Y-81005000D01*
X117827500Y-81005000D01*
X117827500Y-81856000D01*
X117807815Y-81923039D01*
X117755011Y-81968794D01*
X117703500Y-81980000D01*
X117577500Y-81980000D01*
X117577500Y-82106000D01*
X117557815Y-82173039D01*
X117505011Y-82218794D01*
X117453500Y-82230000D01*
X116540001Y-82230000D01*
X116540001Y-82266639D01*
X116540000Y-82266639D01*
X116540026Y-82266884D01*
X116540016Y-82266937D01*
X116540162Y-82269802D01*
X116539477Y-82269836D01*
X116527264Y-82335579D01*
X116479389Y-82386468D01*
X116416669Y-82403500D01*
X112576929Y-82403500D01*
X112451261Y-82428497D01*
X112451255Y-82428499D01*
X112386070Y-82455500D01*
X112332874Y-82477534D01*
X112226326Y-82548726D01*
X111806871Y-82968181D01*
X111745548Y-83001666D01*
X111719190Y-83004500D01*
X111365830Y-83004500D01*
X111365812Y-83004501D01*
X111264747Y-83014825D01*
X111100984Y-83069092D01*
X111100981Y-83069093D01*
X110954148Y-83159661D01*
X110832161Y-83281648D01*
X110741593Y-83428481D01*
X110741591Y-83428486D01*
X110736810Y-83442914D01*
X110687326Y-83592247D01*
X110687326Y-83592248D01*
X110687325Y-83592248D01*
X110677000Y-83693315D01*
X110677000Y-84266669D01*
X110677001Y-84266687D01*
X110687325Y-84367752D01*
X110706388Y-84425278D01*
X110741520Y-84531300D01*
X110741592Y-84531515D01*
X110741593Y-84531518D01*
X110765738Y-84570663D01*
X110832160Y-84678350D01*
X110954150Y-84800340D01*
X111100984Y-84890908D01*
X111264747Y-84945174D01*
X111365823Y-84955500D01*
X112064176Y-84955499D01*
X112064184Y-84955498D01*
X112064187Y-84955498D01*
X112119530Y-84949844D01*
X112165253Y-84945174D01*
X112329016Y-84890908D01*
X112475850Y-84800340D01*
X112490171Y-84786018D01*
X112551489Y-84752533D01*
X112621181Y-84757514D01*
X112665534Y-84786017D01*
X112679461Y-84799944D01*
X112679465Y-84799947D01*
X112826188Y-84890448D01*
X112826199Y-84890453D01*
X112989847Y-84944680D01*
X113090851Y-84954999D01*
X113690000Y-84954999D01*
X113789140Y-84954999D01*
X113789154Y-84954998D01*
X113890152Y-84944680D01*
X114053800Y-84890453D01*
X114053811Y-84890448D01*
X114200534Y-84799947D01*
X114200538Y-84799944D01*
X114322444Y-84678038D01*
X114322447Y-84678034D01*
X114412948Y-84531311D01*
X114412953Y-84531300D01*
X114467180Y-84367652D01*
X114477499Y-84266654D01*
X114477500Y-84266641D01*
X114477500Y-84230000D01*
X113690000Y-84230000D01*
X113690000Y-84954999D01*
X113090851Y-84954999D01*
X113190000Y-84954998D01*
X113190000Y-84104000D01*
X113209685Y-84036961D01*
X113262489Y-83991206D01*
X113314000Y-83980000D01*
X113440000Y-83980000D01*
X113440000Y-83854000D01*
X113459685Y-83786961D01*
X113512489Y-83741206D01*
X113564000Y-83730000D01*
X114486493Y-83730000D01*
X114528003Y-83707334D01*
X114554361Y-83704500D01*
X118292571Y-83704500D01*
X118377115Y-83687682D01*
X118418244Y-83679501D01*
X118536627Y-83630465D01*
X118643169Y-83559277D01*
X119210627Y-82991817D01*
X119271950Y-82958333D01*
X119298308Y-82955499D01*
X119651670Y-82955499D01*
X119651676Y-82955499D01*
X119752753Y-82945174D01*
X119916516Y-82890908D01*
X120063350Y-82800340D01*
X120185340Y-82678350D01*
X120185341Y-82678347D01*
X120185344Y-82678345D01*
X120185945Y-82677586D01*
X120186489Y-82677200D01*
X120190447Y-82673243D01*
X120191123Y-82673919D01*
X120242968Y-82637211D01*
X120283208Y-82630500D01*
X120504071Y-82630500D01*
X120588615Y-82613682D01*
X120629744Y-82605501D01*
X120748127Y-82556465D01*
X120785466Y-82531516D01*
X120854669Y-82485277D01*
X121573292Y-81766654D01*
X127040001Y-81766654D01*
X127050319Y-81867652D01*
X127104546Y-82031300D01*
X127104551Y-82031311D01*
X127195052Y-82178034D01*
X127195055Y-82178038D01*
X127316961Y-82299944D01*
X127316965Y-82299947D01*
X127463688Y-82390448D01*
X127463699Y-82390453D01*
X127627347Y-82444680D01*
X127728351Y-82454999D01*
X127827500Y-82454998D01*
X127827500Y-81730000D01*
X127040001Y-81730000D01*
X127040001Y-81766654D01*
X121573292Y-81766654D01*
X122146601Y-81193345D01*
X127040000Y-81193345D01*
X127040000Y-81230000D01*
X127827500Y-81230000D01*
X127827500Y-80504999D01*
X127728360Y-80505000D01*
X127728344Y-80505001D01*
X127627347Y-80515319D01*
X127463699Y-80569546D01*
X127463688Y-80569551D01*
X127316965Y-80660052D01*
X127316961Y-80660055D01*
X127195055Y-80781961D01*
X127195052Y-80781965D01*
X127104551Y-80928688D01*
X127104546Y-80928699D01*
X127050319Y-81092347D01*
X127040000Y-81193345D01*
X122146601Y-81193345D01*
X122892407Y-80447539D01*
X124848127Y-78491818D01*
X124909450Y-78458333D01*
X124935808Y-78455499D01*
X125289170Y-78455499D01*
X125289176Y-78455499D01*
X125390253Y-78445174D01*
X125554016Y-78390908D01*
X125700850Y-78300340D01*
X125715171Y-78286018D01*
X125776489Y-78252533D01*
X125846181Y-78257514D01*
X125890534Y-78286017D01*
X125904461Y-78299944D01*
X125904465Y-78299947D01*
X126051188Y-78390448D01*
X126051199Y-78390453D01*
X126214847Y-78444680D01*
X126315851Y-78454999D01*
X126915000Y-78454999D01*
X127014140Y-78454999D01*
X127014154Y-78454998D01*
X127115152Y-78444680D01*
X127278800Y-78390453D01*
X127278811Y-78390448D01*
X127425534Y-78299947D01*
X127425538Y-78299944D01*
X127547444Y-78178038D01*
X127547447Y-78178034D01*
X127637948Y-78031311D01*
X127637953Y-78031300D01*
X127692180Y-77867652D01*
X127702499Y-77766654D01*
X127702500Y-77766641D01*
X127702500Y-77730000D01*
X126915000Y-77730000D01*
X126915000Y-78454999D01*
X126315851Y-78454999D01*
X126415000Y-78454998D01*
X126415000Y-77230000D01*
X126915000Y-77230000D01*
X127702499Y-77230000D01*
X127702499Y-77193360D01*
X127702498Y-77193345D01*
X127692180Y-77092347D01*
X127637953Y-76928699D01*
X127637948Y-76928688D01*
X127547447Y-76781965D01*
X127547444Y-76781961D01*
X127425538Y-76660055D01*
X127425534Y-76660052D01*
X127278811Y-76569551D01*
X127278800Y-76569546D01*
X127115152Y-76515319D01*
X127014154Y-76505000D01*
X126915000Y-76505000D01*
X126915000Y-77230000D01*
X126415000Y-77230000D01*
X126415000Y-76504999D01*
X126315860Y-76505000D01*
X126315844Y-76505001D01*
X126214847Y-76515319D01*
X126051199Y-76569546D01*
X126051188Y-76569551D01*
X125904465Y-76660052D01*
X125890532Y-76673985D01*
X125829208Y-76707468D01*
X125759516Y-76702482D01*
X125715172Y-76673982D01*
X125700851Y-76659661D01*
X125700850Y-76659660D01*
X125554016Y-76569092D01*
X125440618Y-76531515D01*
X125424905Y-76526308D01*
X125376229Y-76496283D01*
X125126819Y-76246873D01*
X125093334Y-76185550D01*
X125090500Y-76159192D01*
X125090500Y-72937610D01*
X125110185Y-72870571D01*
X125149401Y-72832073D01*
X125200850Y-72800340D01*
X125322840Y-72678350D01*
X125322841Y-72678347D01*
X125322844Y-72678345D01*
X125323445Y-72677586D01*
X125323989Y-72677200D01*
X125327947Y-72673243D01*
X125328623Y-72673919D01*
X125380468Y-72637211D01*
X125420708Y-72630500D01*
X129734292Y-72630500D01*
X129801331Y-72650185D01*
X129826915Y-72673380D01*
X129827053Y-72673243D01*
X129829852Y-72676042D01*
X129831555Y-72677586D01*
X129832155Y-72678345D01*
X129832160Y-72678350D01*
X129954150Y-72800340D01*
X130005597Y-72832072D01*
X130052321Y-72884017D01*
X130064500Y-72937610D01*
X130064500Y-74900514D01*
X130044815Y-74967553D01*
X129992011Y-75013308D01*
X129979505Y-75018220D01*
X129825984Y-75069092D01*
X129825981Y-75069093D01*
X129679148Y-75159661D01*
X129557161Y-75281648D01*
X129466593Y-75428481D01*
X129466591Y-75428486D01*
X129439219Y-75511088D01*
X129412326Y-75592247D01*
X129412326Y-75592248D01*
X129412325Y-75592248D01*
X129402000Y-75693315D01*
X129402000Y-76266669D01*
X129402001Y-76266687D01*
X129412325Y-76367752D01*
X129448609Y-76477249D01*
X129466592Y-76531516D01*
X129557160Y-76678350D01*
X129679150Y-76800340D01*
X129730597Y-76832072D01*
X129777321Y-76884017D01*
X129789500Y-76937610D01*
X129789500Y-80380500D01*
X129769815Y-80447539D01*
X129717011Y-80493294D01*
X129665501Y-80504500D01*
X129453331Y-80504500D01*
X129453312Y-80504501D01*
X129352247Y-80514825D01*
X129188484Y-80569092D01*
X129188481Y-80569093D01*
X129041648Y-80659661D01*
X129027325Y-80673984D01*
X128966001Y-80707468D01*
X128896309Y-80702482D01*
X128851965Y-80673982D01*
X128838038Y-80660055D01*
X128838034Y-80660052D01*
X128691311Y-80569551D01*
X128691300Y-80569546D01*
X128527652Y-80515319D01*
X128426654Y-80505000D01*
X128327500Y-80505000D01*
X128327500Y-82454999D01*
X128426640Y-82454999D01*
X128426654Y-82454998D01*
X128527652Y-82444680D01*
X128691300Y-82390453D01*
X128691311Y-82390448D01*
X128838035Y-82299947D01*
X128851960Y-82286021D01*
X128913282Y-82252533D01*
X128982973Y-82257514D01*
X129027327Y-82286017D01*
X129041650Y-82300340D01*
X129188484Y-82390908D01*
X129352247Y-82445174D01*
X129453323Y-82455500D01*
X129486690Y-82455499D01*
X129553728Y-82475182D01*
X129574372Y-82491818D01*
X138715425Y-91632871D01*
X138748910Y-91694194D01*
X138743926Y-91763886D01*
X138702054Y-91819819D01*
X138642963Y-91842889D01*
X138642966Y-91842902D01*
X138642891Y-91842918D01*
X138640353Y-91843909D01*
X138636350Y-91844318D01*
X138472699Y-91898546D01*
X138472688Y-91898551D01*
X138325965Y-91989052D01*
X138325961Y-91989055D01*
X138204055Y-92110961D01*
X138204052Y-92110965D01*
X138113551Y-92257688D01*
X138113546Y-92257699D01*
X138059319Y-92421347D01*
X138049000Y-92522345D01*
X138049000Y-92559000D01*
X138962500Y-92559000D01*
X139029539Y-92578685D01*
X139075294Y-92631489D01*
X139086500Y-92683000D01*
X139086500Y-92935000D01*
X139066815Y-93002039D01*
X139014011Y-93047794D01*
X138962500Y-93059000D01*
X138049001Y-93059000D01*
X138049001Y-93095654D01*
X138059319Y-93196652D01*
X138113549Y-93360308D01*
X138113549Y-93360309D01*
X138122209Y-93374349D01*
X138140648Y-93441742D01*
X138119724Y-93508405D01*
X138104350Y-93527124D01*
X135823181Y-95808294D01*
X135761858Y-95841779D01*
X135692166Y-95836795D01*
X135636233Y-95794923D01*
X135611816Y-95729459D01*
X135611500Y-95720613D01*
X135611500Y-95707873D01*
X135611500Y-95707871D01*
X135573984Y-95567861D01*
X135573157Y-95566429D01*
X135511999Y-95460500D01*
X135511998Y-95460498D01*
X135501512Y-95442335D01*
X135501508Y-95442330D01*
X128907670Y-88848491D01*
X128907669Y-88848490D01*
X128782139Y-88776016D01*
X128782140Y-88776016D01*
X128747136Y-88766637D01*
X128642129Y-88738500D01*
X124753077Y-88738500D01*
X124648069Y-88766637D01*
X124613066Y-88776016D01*
X124487539Y-88848488D01*
X124234740Y-89101286D01*
X124173417Y-89134770D01*
X124103725Y-89129786D01*
X124081964Y-89119144D01*
X124059338Y-89105188D01*
X124059335Y-89105186D01*
X124059334Y-89105186D01*
X123892797Y-89050001D01*
X123892795Y-89050000D01*
X123790016Y-89039500D01*
X123790009Y-89039500D01*
X123310808Y-89039500D01*
X123243769Y-89019815D01*
X123223127Y-89003181D01*
X119601818Y-85381872D01*
X119568333Y-85320549D01*
X119565499Y-85294191D01*
X119565499Y-84839998D01*
X119565498Y-84839981D01*
X119554999Y-84737203D01*
X119554998Y-84737200D01*
X119543103Y-84701304D01*
X119499814Y-84570666D01*
X119407712Y-84421344D01*
X119283656Y-84297288D01*
X119151803Y-84215961D01*
X119134336Y-84205187D01*
X119134331Y-84205185D01*
X119132862Y-84204698D01*
X118967797Y-84150001D01*
X118967795Y-84150000D01*
X118865010Y-84139500D01*
X118214998Y-84139500D01*
X118214980Y-84139501D01*
X118112203Y-84150000D01*
X118112200Y-84150001D01*
X117945668Y-84205185D01*
X117945663Y-84205187D01*
X117796342Y-84297289D01*
X117672289Y-84421342D01*
X117580187Y-84570663D01*
X117580186Y-84570666D01*
X117525001Y-84737203D01*
X117525001Y-84737204D01*
X117525000Y-84737204D01*
X117514500Y-84839983D01*
X117514500Y-85640001D01*
X117514501Y-85640019D01*
X117525000Y-85742796D01*
X117525001Y-85742799D01*
X117553645Y-85829240D01*
X117580186Y-85909334D01*
X117672288Y-86058656D01*
X117796344Y-86182712D01*
X117945666Y-86274814D01*
X118112203Y-86329999D01*
X118214991Y-86340500D01*
X118669191Y-86340499D01*
X118736230Y-86360183D01*
X118756872Y-86376818D01*
X120910078Y-88530024D01*
X120943563Y-88591347D01*
X120938579Y-88661039D01*
X120896707Y-88716972D01*
X120869850Y-88732266D01*
X120858456Y-88736985D01*
X120858446Y-88736990D01*
X120710965Y-88835535D01*
X120710961Y-88835538D01*
X120585538Y-88960961D01*
X120585535Y-88960965D01*
X120486990Y-89108446D01*
X120486983Y-89108459D01*
X120419106Y-89272332D01*
X120419103Y-89272341D01*
X120384500Y-89446304D01*
X120384500Y-89623695D01*
X120419103Y-89797658D01*
X120419106Y-89797667D01*
X120486983Y-89961540D01*
X120486990Y-89961553D01*
X120585535Y-90109034D01*
X120585538Y-90109038D01*
X120710961Y-90234461D01*
X120710965Y-90234464D01*
X120858446Y-90333009D01*
X120858459Y-90333016D01*
X120918944Y-90358069D01*
X121022334Y-90400894D01*
X121022336Y-90400894D01*
X121022341Y-90400896D01*
X121196304Y-90435499D01*
X121196307Y-90435500D01*
X121355614Y-90435500D01*
X121422653Y-90455185D01*
X121443295Y-90471819D01*
X121651986Y-90680510D01*
X121651988Y-90680511D01*
X121651992Y-90680514D01*
X121721250Y-90720500D01*
X121721251Y-90720500D01*
X121777515Y-90752984D01*
X121917525Y-90790500D01*
X121917526Y-90790500D01*
X122062475Y-90790500D01*
X122193130Y-90790500D01*
X122260169Y-90810185D01*
X122305924Y-90862989D01*
X122310836Y-90875495D01*
X122355186Y-91009334D01*
X122447288Y-91158656D01*
X122571344Y-91282712D01*
X122720666Y-91374814D01*
X122777940Y-91393792D01*
X122835384Y-91433565D01*
X122862207Y-91498081D01*
X122849892Y-91566856D01*
X122826616Y-91599179D01*
X122294841Y-92130954D01*
X122233518Y-92164439D01*
X122163826Y-92159455D01*
X122119479Y-92130954D01*
X116826819Y-86838294D01*
X116793334Y-86776971D01*
X116790500Y-86750613D01*
X116790500Y-86371057D01*
X116810185Y-86304018D01*
X116849401Y-86265520D01*
X116983656Y-86182712D01*
X117107712Y-86058656D01*
X117199814Y-85909334D01*
X117254999Y-85742797D01*
X117265500Y-85640009D01*
X117265499Y-84839992D01*
X117261448Y-84800339D01*
X117254999Y-84737203D01*
X117254998Y-84737200D01*
X117243103Y-84701304D01*
X117199814Y-84570666D01*
X117107712Y-84421344D01*
X116983656Y-84297288D01*
X116851803Y-84215961D01*
X116834336Y-84205187D01*
X116834331Y-84205185D01*
X116832862Y-84204698D01*
X116667797Y-84150001D01*
X116667795Y-84150000D01*
X116565010Y-84139500D01*
X115914998Y-84139500D01*
X115914980Y-84139501D01*
X115812203Y-84150000D01*
X115812200Y-84150001D01*
X115645668Y-84205185D01*
X115645663Y-84205187D01*
X115496342Y-84297289D01*
X115372289Y-84421342D01*
X115280187Y-84570663D01*
X115280186Y-84570666D01*
X115225001Y-84737203D01*
X115225001Y-84737204D01*
X115225000Y-84737204D01*
X115214500Y-84839983D01*
X115214500Y-85640001D01*
X115214501Y-85640019D01*
X115225000Y-85742796D01*
X115225001Y-85742799D01*
X115253645Y-85829240D01*
X115280186Y-85909334D01*
X115372288Y-86058656D01*
X115496344Y-86182712D01*
X115630597Y-86265519D01*
X115677321Y-86317465D01*
X115689500Y-86371057D01*
X115689500Y-87102475D01*
X115702909Y-87152517D01*
X115727016Y-87242485D01*
X115799489Y-87368013D01*
X115799491Y-87368016D01*
X121553794Y-93122319D01*
X121587279Y-93183642D01*
X121582295Y-93253334D01*
X121553794Y-93297681D01*
X119408491Y-95442983D01*
X119408489Y-95442985D01*
X119384081Y-95485264D01*
X119364778Y-95518698D01*
X119354246Y-95536940D01*
X119336394Y-95567861D01*
X119336016Y-95568515D01*
X119298500Y-95708525D01*
X119298500Y-95708527D01*
X119298500Y-100482731D01*
X119278815Y-100549770D01*
X119226011Y-100595525D01*
X119156853Y-100605469D01*
X119112501Y-100590119D01*
X119072485Y-100567016D01*
X119072483Y-100567015D01*
X119059349Y-100563496D01*
X119059349Y-100563495D01*
X118955694Y-100535721D01*
X118932475Y-100529500D01*
X118932474Y-100529500D01*
X114276873Y-100529500D01*
X114209834Y-100509815D01*
X114173771Y-100474391D01*
X114130975Y-100410342D01*
X113984657Y-100264024D01*
X113853719Y-100176535D01*
X113812598Y-100149059D01*
X113808450Y-100147341D01*
X113621420Y-100069870D01*
X113621412Y-100069868D01*
X113570801Y-100059801D01*
X113508890Y-100027417D01*
X113507311Y-100025865D01*
X113311446Y-99830000D01*
X113361078Y-99830000D01*
X113450095Y-99806148D01*
X113529905Y-99760070D01*
X113595070Y-99694905D01*
X113641148Y-99615095D01*
X113665000Y-99526078D01*
X113665000Y-99479999D01*
X113668554Y-99479999D01*
X113668554Y-99480000D01*
X114213620Y-100025067D01*
X114213621Y-100025066D01*
X114245495Y-99977366D01*
X114324649Y-99786274D01*
X114324651Y-99786266D01*
X114364999Y-99583420D01*
X114365000Y-99583417D01*
X114365000Y-99376583D01*
X114364999Y-99376579D01*
X114324651Y-99173733D01*
X114324649Y-99173725D01*
X114245498Y-98982639D01*
X114245495Y-98982633D01*
X114213621Y-98934932D01*
X114213620Y-98934931D01*
X113668554Y-99479999D01*
X113665000Y-99479999D01*
X113665000Y-99433922D01*
X113641148Y-99344905D01*
X113595070Y-99265095D01*
X113529905Y-99199930D01*
X113450095Y-99153852D01*
X113361078Y-99130000D01*
X113268922Y-99130000D01*
X113179905Y-99153852D01*
X113100095Y-99199930D01*
X113034930Y-99265095D01*
X112988852Y-99344905D01*
X112965000Y-99433922D01*
X112965000Y-99483554D01*
X112416378Y-98934932D01*
X112416377Y-98934932D01*
X112384505Y-98982631D01*
X112384500Y-98982641D01*
X112305350Y-99173725D01*
X112305348Y-99173733D01*
X112282291Y-99289648D01*
X112249906Y-99351559D01*
X112189190Y-99386133D01*
X112119421Y-99382394D01*
X112091785Y-99368560D01*
X112062599Y-99349059D01*
X111871420Y-99269870D01*
X111871412Y-99269868D01*
X111668469Y-99229500D01*
X111668465Y-99229500D01*
X111563500Y-99229500D01*
X111496461Y-99209815D01*
X111450706Y-99157011D01*
X111439500Y-99105500D01*
X111439500Y-98581946D01*
X111459185Y-98514907D01*
X111511989Y-98469152D01*
X111581147Y-98459208D01*
X111587692Y-98460329D01*
X111686582Y-98479999D01*
X111686583Y-98480000D01*
X112190000Y-98480000D01*
X112190000Y-97780000D01*
X112690000Y-97780000D01*
X112690000Y-98480000D01*
X112709494Y-98499494D01*
X112710143Y-98499685D01*
X112713115Y-98503115D01*
X112726319Y-98516319D01*
X112725374Y-98517263D01*
X112755898Y-98552489D01*
X112758868Y-98570314D01*
X113315000Y-99126446D01*
X113315001Y-99126446D01*
X113860067Y-98581378D01*
X113860067Y-98581377D01*
X113812359Y-98549500D01*
X113713178Y-98508418D01*
X113658775Y-98464577D01*
X113636710Y-98398282D01*
X113653989Y-98330583D01*
X113691741Y-98290754D01*
X113759338Y-98245587D01*
X113905586Y-98099339D01*
X113905589Y-98099335D01*
X114020494Y-97927368D01*
X114020499Y-97927358D01*
X114099648Y-97736276D01*
X114099649Y-97736274D01*
X114110843Y-97680000D01*
X113334975Y-97680000D01*
X113370070Y-97644905D01*
X113416148Y-97565095D01*
X113440000Y-97476078D01*
X113440000Y-97383922D01*
X113416148Y-97294905D01*
X113370070Y-97215095D01*
X113334975Y-97180000D01*
X114110843Y-97180000D01*
X114099649Y-97123725D01*
X114099648Y-97123723D01*
X114020499Y-96932641D01*
X114020494Y-96932631D01*
X113905589Y-96760664D01*
X113905586Y-96760660D01*
X113759339Y-96614413D01*
X113759335Y-96614410D01*
X113587368Y-96499505D01*
X113587358Y-96499500D01*
X113396274Y-96420350D01*
X113396266Y-96420348D01*
X113193420Y-96380000D01*
X112690000Y-96380000D01*
X112690000Y-97080000D01*
X112190000Y-97080000D01*
X112190000Y-96380000D01*
X111686579Y-96380000D01*
X111587691Y-96399670D01*
X111518099Y-96393443D01*
X111462922Y-96350579D01*
X111439678Y-96284689D01*
X111439500Y-96278053D01*
X111439500Y-94804499D01*
X111459185Y-94737460D01*
X111511989Y-94691705D01*
X111563500Y-94680499D01*
X111840002Y-94680499D01*
X111840008Y-94680499D01*
X111942797Y-94669999D01*
X112109334Y-94614814D01*
X112258656Y-94522712D01*
X112352675Y-94428692D01*
X112413994Y-94395210D01*
X112483686Y-94400194D01*
X112528034Y-94428695D01*
X112621654Y-94522315D01*
X112770875Y-94614356D01*
X112770880Y-94614358D01*
X112937302Y-94669505D01*
X112937309Y-94669506D01*
X113040019Y-94679999D01*
X113189999Y-94679999D01*
X113690000Y-94679999D01*
X113839972Y-94679999D01*
X113839986Y-94679998D01*
X113942697Y-94669505D01*
X114109119Y-94614358D01*
X114109124Y-94614356D01*
X114258345Y-94522315D01*
X114382315Y-94398345D01*
X114474356Y-94249124D01*
X114474358Y-94249119D01*
X114529505Y-94082697D01*
X114529506Y-94082690D01*
X114539999Y-93979986D01*
X114540000Y-93979973D01*
X114540000Y-93730000D01*
X113690000Y-93730000D01*
X113690000Y-94679999D01*
X113189999Y-94679999D01*
X113190000Y-94679998D01*
X113190000Y-93230000D01*
X113690000Y-93230000D01*
X114539999Y-93230000D01*
X114539999Y-92980028D01*
X114539998Y-92980013D01*
X114529505Y-92877302D01*
X114474358Y-92710880D01*
X114474356Y-92710875D01*
X114382315Y-92561654D01*
X114258345Y-92437684D01*
X114109124Y-92345643D01*
X114109119Y-92345641D01*
X113942697Y-92290494D01*
X113942690Y-92290493D01*
X113839986Y-92280000D01*
X113690000Y-92280000D01*
X113690000Y-93230000D01*
X113190000Y-93230000D01*
X113190000Y-92280000D01*
X113040027Y-92280000D01*
X113040012Y-92280001D01*
X112937302Y-92290494D01*
X112770880Y-92345641D01*
X112770875Y-92345643D01*
X112621657Y-92437682D01*
X112528034Y-92531305D01*
X112466710Y-92564789D01*
X112397019Y-92559805D01*
X112352672Y-92531304D01*
X112258657Y-92437289D01*
X112258656Y-92437288D01*
X112109334Y-92345186D01*
X111942797Y-92290001D01*
X111942795Y-92290000D01*
X111840010Y-92279500D01*
X111039998Y-92279500D01*
X111039980Y-92279501D01*
X110937203Y-92290000D01*
X110937200Y-92290001D01*
X110770668Y-92345185D01*
X110770663Y-92345187D01*
X110621342Y-92437289D01*
X110497289Y-92561342D01*
X110405187Y-92710663D01*
X110405185Y-92710668D01*
X110391919Y-92750703D01*
X110350001Y-92877203D01*
X110350001Y-92877204D01*
X110350000Y-92877204D01*
X110339500Y-92979983D01*
X110339500Y-93609191D01*
X110319815Y-93676230D01*
X110315044Y-93683130D01*
X110309616Y-93690437D01*
X110283723Y-93716331D01*
X110225803Y-93803016D01*
X110224096Y-93805569D01*
X110224089Y-93805580D01*
X110212536Y-93822870D01*
X110212533Y-93822875D01*
X110163499Y-93941255D01*
X110163497Y-93941261D01*
X110138500Y-94066928D01*
X110138500Y-99568071D01*
X110158283Y-99667522D01*
X110158283Y-99667523D01*
X110163497Y-99693737D01*
X110163498Y-99693741D01*
X110163499Y-99693744D01*
X110212535Y-99812127D01*
X110281606Y-99915500D01*
X110283726Y-99918673D01*
X110283727Y-99918674D01*
X110478181Y-100113127D01*
X110511666Y-100174450D01*
X110514500Y-100200808D01*
X110514500Y-100383469D01*
X110549026Y-100557041D01*
X110554870Y-100586420D01*
X110634059Y-100777598D01*
X110684922Y-100853720D01*
X110749024Y-100949657D01*
X110791686Y-100992319D01*
X110792747Y-100994263D01*
X110794655Y-100995392D01*
X110809411Y-101024780D01*
X110825171Y-101053642D01*
X110825012Y-101055852D01*
X110826007Y-101057832D01*
X110822533Y-101090528D01*
X110820187Y-101123334D01*
X110818785Y-101125798D01*
X110818625Y-101127311D01*
X110813893Y-101134400D01*
X110800653Y-101157686D01*
X110796437Y-101162930D01*
X110749023Y-101210345D01*
X110703198Y-101278926D01*
X110699775Y-101283186D01*
X110675404Y-101300151D01*
X110652617Y-101319196D01*
X110646099Y-101320553D01*
X110642432Y-101323106D01*
X110631982Y-101323492D01*
X110603127Y-101329500D01*
X110137525Y-101329500D01*
X110047136Y-101353720D01*
X109997514Y-101367016D01*
X109871986Y-101439489D01*
X109871983Y-101439491D01*
X109378293Y-101933181D01*
X109316970Y-101966666D01*
X109290612Y-101969500D01*
X109131306Y-101969500D01*
X108957341Y-102004103D01*
X108957337Y-102004105D01*
X108957335Y-102004105D01*
X108957334Y-102004106D01*
X108948638Y-102007708D01*
X108882113Y-102035263D01*
X108812644Y-102042730D01*
X108750165Y-102011455D01*
X108714513Y-101951365D01*
X108710662Y-101920701D01*
X108710662Y-81693345D01*
X116540000Y-81693345D01*
X116540000Y-81730000D01*
X117327500Y-81730000D01*
X117327500Y-81004999D01*
X117228360Y-81005000D01*
X117228344Y-81005001D01*
X117127347Y-81015319D01*
X116963699Y-81069546D01*
X116963688Y-81069551D01*
X116816965Y-81160052D01*
X116816961Y-81160055D01*
X116695055Y-81281961D01*
X116695052Y-81281965D01*
X116604551Y-81428688D01*
X116604546Y-81428699D01*
X116550319Y-81592347D01*
X116540000Y-81693345D01*
X108710662Y-81693345D01*
X108710662Y-74605356D01*
X108710748Y-74600729D01*
X108720663Y-74335175D01*
X108728586Y-74122980D01*
X108729276Y-74113761D01*
X108729394Y-74112715D01*
X108782434Y-73640954D01*
X108783806Y-73631841D01*
X108872071Y-73164330D01*
X108874123Y-73155320D01*
X108903397Y-73045826D01*
X108997010Y-72695678D01*
X108999721Y-72686867D01*
X109146424Y-72266654D01*
X121677501Y-72266654D01*
X121687819Y-72367652D01*
X121742046Y-72531300D01*
X121742051Y-72531311D01*
X121832552Y-72678034D01*
X121832555Y-72678038D01*
X121954461Y-72799944D01*
X121954465Y-72799947D01*
X122101188Y-72890448D01*
X122101199Y-72890453D01*
X122264847Y-72944680D01*
X122365851Y-72954999D01*
X122465000Y-72954998D01*
X122465000Y-72230000D01*
X121677501Y-72230000D01*
X121677501Y-72266654D01*
X109146424Y-72266654D01*
X109156547Y-72237657D01*
X109159906Y-72229079D01*
X109349786Y-71792829D01*
X109353790Y-71784496D01*
X109401844Y-71693345D01*
X121677500Y-71693345D01*
X121677500Y-71730000D01*
X122465000Y-71730000D01*
X122465000Y-71004999D01*
X122365860Y-71005000D01*
X122365844Y-71005001D01*
X122264847Y-71015319D01*
X122101199Y-71069546D01*
X122101188Y-71069551D01*
X121954465Y-71160052D01*
X121954461Y-71160055D01*
X121832555Y-71281961D01*
X121832552Y-71281965D01*
X121742051Y-71428688D01*
X121742046Y-71428699D01*
X121687819Y-71592347D01*
X121677500Y-71693345D01*
X109401844Y-71693345D01*
X109575670Y-71363628D01*
X109580272Y-71355637D01*
X109832929Y-70952471D01*
X109838111Y-70944849D01*
X110120130Y-70561647D01*
X110125864Y-70554435D01*
X110435678Y-70193324D01*
X110441932Y-70186562D01*
X110777806Y-69849567D01*
X110784553Y-69843284D01*
X111144631Y-69532266D01*
X111151825Y-69526507D01*
X111534078Y-69243219D01*
X111541690Y-69238006D01*
X111944011Y-68984006D01*
X111951978Y-68979382D01*
X112372136Y-68756085D01*
X112380422Y-68752070D01*
X112816044Y-68560733D01*
X112824605Y-68557347D01*
X113273288Y-68399026D01*
X113282120Y-68396277D01*
X113296814Y-68392296D01*
X113741330Y-68271863D01*
X113750314Y-68269785D01*
X114217550Y-68179957D01*
X114226657Y-68178557D01*
X114699301Y-68123821D01*
X114708475Y-68123103D01*
X115183899Y-68103764D01*
X115193114Y-68103735D01*
X115619214Y-68118221D01*
X115620383Y-68118267D01*
X115633877Y-68118866D01*
X115643179Y-68121356D01*
X115689506Y-68121338D01*
X115692260Y-68121461D01*
X115692503Y-68121544D01*
X115695572Y-68121653D01*
X115738956Y-68124753D01*
X115745169Y-68123554D01*
X115768601Y-68121310D01*
X165207889Y-68103541D01*
X165212510Y-68103627D01*
G37*
%TD.AperFunction*%
%TA.AperFunction,Conductor*%
G36*
X125727104Y-108768485D02*
G01*
X125783037Y-108810357D01*
X125801476Y-108845662D01*
X125855642Y-109009121D01*
X125855643Y-109009124D01*
X125947684Y-109158345D01*
X126071654Y-109282315D01*
X126220875Y-109374356D01*
X126220879Y-109374357D01*
X126234111Y-109378742D01*
X126291557Y-109418513D01*
X126318382Y-109483029D01*
X126306068Y-109551805D01*
X126282791Y-109584130D01*
X123688135Y-112178786D01*
X123626812Y-112212271D01*
X123557120Y-112207287D01*
X123553002Y-112205666D01*
X123452667Y-112164106D01*
X123452658Y-112164103D01*
X123278694Y-112129500D01*
X123278691Y-112129500D01*
X123213500Y-112129500D01*
X123146461Y-112109815D01*
X123100706Y-112057011D01*
X123089500Y-112005500D01*
X123089500Y-111354938D01*
X123109185Y-111287899D01*
X123125814Y-111267262D01*
X125596093Y-108796983D01*
X125657412Y-108763501D01*
X125727104Y-108768485D01*
G37*
%TD.AperFunction*%
%TA.AperFunction,Conductor*%
G36*
X122523231Y-107484185D02*
G01*
X122568986Y-107536989D01*
X122578930Y-107606147D01*
X122549905Y-107669703D01*
X122543873Y-107676181D01*
X119747223Y-110472830D01*
X119729129Y-110499912D01*
X119729128Y-110499913D01*
X119676034Y-110579374D01*
X119626999Y-110697755D01*
X119626997Y-110697761D01*
X119602000Y-110823428D01*
X119602000Y-111875216D01*
X119582315Y-111942255D01*
X119529511Y-111988010D01*
X119460353Y-111997954D01*
X119405242Y-111975626D01*
X119397271Y-111969850D01*
X119390282Y-111962861D01*
X119356170Y-111940068D01*
X119354242Y-111938671D01*
X119334254Y-111912819D01*
X119313304Y-111887750D01*
X119312726Y-111884973D01*
X119311506Y-111883396D01*
X119310864Y-111876031D01*
X119303000Y-111838261D01*
X119303000Y-108665566D01*
X119322685Y-108598527D01*
X119375489Y-108552772D01*
X119444647Y-108542828D01*
X119492098Y-108560028D01*
X119638692Y-108650450D01*
X119638699Y-108650453D01*
X119802347Y-108704680D01*
X119903351Y-108714999D01*
X120502500Y-108714999D01*
X120601640Y-108714999D01*
X120601654Y-108714998D01*
X120702652Y-108704680D01*
X120866300Y-108650453D01*
X120866311Y-108650448D01*
X121013034Y-108559947D01*
X121013038Y-108559944D01*
X121134944Y-108438038D01*
X121134947Y-108438034D01*
X121225448Y-108291311D01*
X121225453Y-108291300D01*
X121279680Y-108127652D01*
X121289999Y-108026654D01*
X121290000Y-108026641D01*
X121290000Y-107990000D01*
X120502500Y-107990000D01*
X120502500Y-108714999D01*
X119903351Y-108714999D01*
X120002500Y-108714998D01*
X120002500Y-107864000D01*
X120022185Y-107796961D01*
X120074989Y-107751206D01*
X120126500Y-107740000D01*
X120252500Y-107740000D01*
X120252500Y-107614000D01*
X120272185Y-107546961D01*
X120324989Y-107501206D01*
X120376500Y-107490000D01*
X121298993Y-107490000D01*
X121340503Y-107467334D01*
X121366861Y-107464500D01*
X122456192Y-107464500D01*
X122523231Y-107484185D01*
G37*
%TD.AperFunction*%
%TA.AperFunction,Conductor*%
G36*
X141843603Y-99811185D02*
G01*
X141889358Y-99863989D01*
X141899502Y-99899313D01*
X141908313Y-99966236D01*
X141909374Y-99974293D01*
X141906399Y-99974684D01*
X141906399Y-100007316D01*
X141909374Y-100007708D01*
X141908313Y-100015762D01*
X141908313Y-100015764D01*
X141906505Y-100029500D01*
X141893500Y-100128272D01*
X141893500Y-100353727D01*
X141900954Y-100410342D01*
X141908155Y-100465038D01*
X141909374Y-100474292D01*
X141906399Y-100474683D01*
X141906399Y-100507316D01*
X141909374Y-100507708D01*
X141893500Y-100628272D01*
X141893500Y-100853727D01*
X141909374Y-100974292D01*
X141906399Y-100974683D01*
X141906399Y-101007316D01*
X141909374Y-101007708D01*
X141893500Y-101128272D01*
X141893500Y-101353727D01*
X141909374Y-101474292D01*
X141906399Y-101474683D01*
X141906399Y-101507316D01*
X141909374Y-101507708D01*
X141893500Y-101628272D01*
X141893500Y-101853727D01*
X141900918Y-101910065D01*
X141905964Y-101948397D01*
X141909374Y-101974292D01*
X141906399Y-101974683D01*
X141906399Y-102007316D01*
X141909374Y-102007708D01*
X141908313Y-102015762D01*
X141908313Y-102015764D01*
X141906439Y-102029998D01*
X141893500Y-102128272D01*
X141893500Y-102353727D01*
X141909374Y-102474292D01*
X141906399Y-102474683D01*
X141906399Y-102507316D01*
X141909374Y-102507708D01*
X141893500Y-102628272D01*
X141893500Y-102853727D01*
X141906930Y-102955733D01*
X141908313Y-102966236D01*
X141966302Y-103106233D01*
X141999735Y-103149803D01*
X142011791Y-103165515D01*
X142036984Y-103230684D01*
X142022945Y-103299129D01*
X142011791Y-103316484D01*
X141991839Y-103342486D01*
X141935413Y-103383689D01*
X141899894Y-103389879D01*
X141898911Y-103391000D01*
X141909804Y-103473729D01*
X141907595Y-103507472D01*
X141909374Y-103507707D01*
X141893500Y-103628272D01*
X141893500Y-103853727D01*
X141908313Y-103966235D01*
X141908314Y-103966239D01*
X141951857Y-104071363D01*
X141959326Y-104140832D01*
X141928050Y-104203311D01*
X141924978Y-104206496D01*
X141799490Y-104331984D01*
X141783334Y-104359968D01*
X141757155Y-104405313D01*
X141727016Y-104457515D01*
X141689500Y-104597525D01*
X141689500Y-104597527D01*
X141689500Y-105267638D01*
X141669815Y-105334677D01*
X141653181Y-105355319D01*
X141540538Y-105467961D01*
X141540535Y-105467965D01*
X141441990Y-105615446D01*
X141441983Y-105615459D01*
X141374106Y-105779332D01*
X141374103Y-105779341D01*
X141339500Y-105953304D01*
X141339500Y-106017500D01*
X141319815Y-106084539D01*
X141267011Y-106130294D01*
X141215500Y-106141500D01*
X128850077Y-106141500D01*
X128710186Y-106178984D01*
X128710132Y-106178998D01*
X128710068Y-106179015D01*
X128584538Y-106251489D01*
X128584535Y-106251491D01*
X127734377Y-107101648D01*
X127713418Y-107113092D01*
X127694922Y-107128205D01*
X127683309Y-107129532D01*
X127673054Y-107135133D01*
X127649234Y-107133429D01*
X127625505Y-107136143D01*
X127611158Y-107130706D01*
X127603362Y-107130149D01*
X127591942Y-107125224D01*
X127530134Y-107094806D01*
X127510429Y-107076707D01*
X127488436Y-107061479D01*
X127485092Y-107053435D01*
X127478676Y-107047542D01*
X127471884Y-107021662D01*
X127461616Y-106996962D01*
X127463151Y-106988387D01*
X127460940Y-106979961D01*
X127469217Y-106954519D01*
X127473933Y-106928187D01*
X127480957Y-106918432D01*
X127482556Y-106913519D01*
X127487269Y-106909668D01*
X127497201Y-106895875D01*
X130225258Y-104167819D01*
X130286581Y-104134334D01*
X130312939Y-104131500D01*
X136082472Y-104131500D01*
X136082474Y-104131500D01*
X136082475Y-104131500D01*
X136222485Y-104093984D01*
X136274393Y-104064015D01*
X136348015Y-104021510D01*
X139541705Y-100827818D01*
X139603028Y-100794334D01*
X139629386Y-100791500D01*
X139788693Y-100791500D01*
X139788694Y-100791499D01*
X139858591Y-100777596D01*
X139962658Y-100756896D01*
X139962661Y-100756894D01*
X139962666Y-100756894D01*
X140126547Y-100689013D01*
X140274035Y-100590464D01*
X140399464Y-100465035D01*
X140498013Y-100317547D01*
X140565894Y-100153666D01*
X140566811Y-100149059D01*
X140600499Y-99979695D01*
X140600500Y-99979693D01*
X140600500Y-99915500D01*
X140620185Y-99848461D01*
X140672989Y-99802706D01*
X140724500Y-99791500D01*
X141776564Y-99791500D01*
X141843603Y-99811185D01*
G37*
%TD.AperFunction*%
%TA.AperFunction,Conductor*%
G36*
X144362833Y-94548670D02*
G01*
X144418767Y-94590541D01*
X144443184Y-94656006D01*
X144443500Y-94664852D01*
X144443500Y-95053727D01*
X144458313Y-95166235D01*
X144458313Y-95166236D01*
X144511027Y-95293500D01*
X144516302Y-95306233D01*
X144608549Y-95426451D01*
X144728767Y-95518698D01*
X144868764Y-95576687D01*
X144969469Y-95589945D01*
X144981264Y-95591498D01*
X144981280Y-95591500D01*
X144981287Y-95591500D01*
X145206713Y-95591500D01*
X145206720Y-95591500D01*
X145319236Y-95576687D01*
X145319236Y-95576686D01*
X145327295Y-95575626D01*
X145327698Y-95578689D01*
X145360302Y-95578689D01*
X145360705Y-95575626D01*
X145368763Y-95576686D01*
X145368764Y-95576687D01*
X145481280Y-95591500D01*
X145481287Y-95591500D01*
X145706713Y-95591500D01*
X145706720Y-95591500D01*
X145819236Y-95576687D01*
X145819236Y-95576686D01*
X145827295Y-95575626D01*
X145827698Y-95578689D01*
X145860302Y-95578689D01*
X145860705Y-95575626D01*
X145868763Y-95576686D01*
X145868764Y-95576687D01*
X145981280Y-95591500D01*
X145981287Y-95591500D01*
X146206713Y-95591500D01*
X146206720Y-95591500D01*
X146319236Y-95576687D01*
X146319236Y-95576686D01*
X146327295Y-95575626D01*
X146327698Y-95578689D01*
X146360302Y-95578689D01*
X146360705Y-95575626D01*
X146368763Y-95576686D01*
X146368764Y-95576687D01*
X146481280Y-95591500D01*
X146481287Y-95591500D01*
X146706713Y-95591500D01*
X146706720Y-95591500D01*
X146819236Y-95576687D01*
X146959233Y-95518698D01*
X147018515Y-95473208D01*
X147083684Y-95448016D01*
X147152129Y-95462055D01*
X147169484Y-95473208D01*
X147195486Y-95493160D01*
X147236689Y-95549587D01*
X147242878Y-95585102D01*
X147244000Y-95586086D01*
X147326730Y-95575195D01*
X147360469Y-95577415D01*
X147360705Y-95575626D01*
X147368763Y-95576686D01*
X147368764Y-95576687D01*
X147481280Y-95591500D01*
X147481287Y-95591500D01*
X147706713Y-95591500D01*
X147706720Y-95591500D01*
X147819236Y-95576687D01*
X147819236Y-95576686D01*
X147827295Y-95575626D01*
X147827698Y-95578689D01*
X147860302Y-95578689D01*
X147860705Y-95575626D01*
X147868763Y-95576686D01*
X147868764Y-95576687D01*
X147981280Y-95591500D01*
X147981287Y-95591500D01*
X148206713Y-95591500D01*
X148206720Y-95591500D01*
X148319236Y-95576687D01*
X148319236Y-95576686D01*
X148327295Y-95575626D01*
X148327698Y-95578689D01*
X148360302Y-95578689D01*
X148360705Y-95575626D01*
X148368763Y-95576686D01*
X148368764Y-95576687D01*
X148481280Y-95591500D01*
X148481287Y-95591500D01*
X148706713Y-95591500D01*
X148706720Y-95591500D01*
X148819236Y-95576687D01*
X148819236Y-95576686D01*
X148827295Y-95575626D01*
X148827698Y-95578689D01*
X148860302Y-95578689D01*
X148860705Y-95575626D01*
X148868763Y-95576686D01*
X148868764Y-95576687D01*
X148981280Y-95591500D01*
X148981287Y-95591500D01*
X149206720Y-95591500D01*
X149242638Y-95586771D01*
X149311673Y-95597536D01*
X149346505Y-95622029D01*
X150031988Y-96307511D01*
X150684987Y-96960510D01*
X150751824Y-96999098D01*
X150810516Y-97032984D01*
X150950526Y-97070500D01*
X150950527Y-97070500D01*
X151057525Y-97070500D01*
X151725500Y-97070500D01*
X151792539Y-97090185D01*
X151838294Y-97142989D01*
X151849500Y-97194500D01*
X151849500Y-103124679D01*
X151829815Y-103191718D01*
X151777011Y-103237473D01*
X151707853Y-103247417D01*
X151682941Y-103241147D01*
X151672825Y-103237450D01*
X151656484Y-103228016D01*
X151626258Y-103219917D01*
X151620952Y-103218495D01*
X151620946Y-103218493D01*
X151547601Y-103198840D01*
X151516474Y-103190500D01*
X151516473Y-103190500D01*
X144819500Y-103190500D01*
X144752461Y-103170815D01*
X144706706Y-103118011D01*
X144695500Y-103066500D01*
X144695500Y-97369528D01*
X144695500Y-97369526D01*
X144657984Y-97229516D01*
X144628050Y-97177669D01*
X144585510Y-97103986D01*
X144474584Y-96993060D01*
X144467820Y-96985729D01*
X144350092Y-96847350D01*
X144349149Y-96845236D01*
X144346162Y-96842488D01*
X144326211Y-96816488D01*
X144301016Y-96751319D01*
X144315054Y-96682874D01*
X144326211Y-96665512D01*
X144346162Y-96639512D01*
X144402590Y-96598310D01*
X144438105Y-96592120D01*
X144439088Y-96590999D01*
X144428196Y-96508270D01*
X144430409Y-96474529D01*
X144428626Y-96474295D01*
X144429687Y-96466236D01*
X144444500Y-96353720D01*
X144444500Y-96128280D01*
X144429687Y-96015764D01*
X144371698Y-95875767D01*
X144279451Y-95755549D01*
X144159233Y-95663302D01*
X144159229Y-95663300D01*
X144095801Y-95637027D01*
X144019236Y-95605313D01*
X144005171Y-95603461D01*
X143906727Y-95590500D01*
X143906720Y-95590500D01*
X143447976Y-95590500D01*
X143442183Y-95588799D01*
X143436257Y-95589945D01*
X143409045Y-95579068D01*
X143380937Y-95570815D01*
X143376984Y-95566254D01*
X143371378Y-95564013D01*
X143354364Y-95540148D01*
X143335182Y-95518011D01*
X143334323Y-95512037D01*
X143330818Y-95507121D01*
X143329407Y-95477851D01*
X143325238Y-95448853D01*
X143327745Y-95443362D01*
X143327455Y-95437332D01*
X143342091Y-95411949D01*
X143354263Y-95385297D01*
X143360114Y-95380692D01*
X143362357Y-95376804D01*
X143378046Y-95366583D01*
X143391095Y-95356316D01*
X143402038Y-95350666D01*
X143406451Y-95349484D01*
X143421828Y-95340606D01*
X143424380Y-95339132D01*
X143424387Y-95339129D01*
X143531974Y-95277014D01*
X143531973Y-95277014D01*
X143531981Y-95277010D01*
X144231819Y-94577170D01*
X144293142Y-94543686D01*
X144362833Y-94548670D01*
G37*
%TD.AperFunction*%
%TA.AperFunction,Conductor*%
G36*
X153056310Y-95556946D02*
G01*
X153059496Y-95560021D01*
X153274978Y-95775503D01*
X153308463Y-95836826D01*
X153303479Y-95906518D01*
X153301858Y-95910636D01*
X153258314Y-96015760D01*
X153258313Y-96015764D01*
X153243500Y-96128272D01*
X153243500Y-96353727D01*
X153255850Y-96447527D01*
X153258313Y-96466236D01*
X153316302Y-96606233D01*
X153349735Y-96649803D01*
X153361791Y-96665515D01*
X153386984Y-96730684D01*
X153372945Y-96799129D01*
X153361791Y-96816484D01*
X153341839Y-96842486D01*
X153285413Y-96883689D01*
X153249894Y-96889879D01*
X153248911Y-96891000D01*
X153259804Y-96973729D01*
X153257595Y-97007472D01*
X153259374Y-97007707D01*
X153243500Y-97128272D01*
X153243500Y-97353727D01*
X153251659Y-97415694D01*
X153256175Y-97450000D01*
X153259374Y-97474292D01*
X153256399Y-97474683D01*
X153256399Y-97507316D01*
X153259374Y-97507708D01*
X153243500Y-97628272D01*
X153243500Y-97853727D01*
X153259374Y-97974292D01*
X153256399Y-97974683D01*
X153256399Y-98007316D01*
X153259374Y-98007708D01*
X153243500Y-98128272D01*
X153243500Y-98353727D01*
X153253755Y-98431613D01*
X153257619Y-98460967D01*
X153259374Y-98474292D01*
X153256399Y-98474683D01*
X153256399Y-98507316D01*
X153259374Y-98507708D01*
X153258313Y-98515762D01*
X153258313Y-98515764D01*
X153255177Y-98539583D01*
X153243500Y-98628272D01*
X153243500Y-98853727D01*
X153259374Y-98974292D01*
X153256399Y-98974683D01*
X153256399Y-99007316D01*
X153259374Y-99007708D01*
X153258313Y-99015762D01*
X153258313Y-99015764D01*
X153256351Y-99030668D01*
X153243500Y-99128272D01*
X153243500Y-99353727D01*
X153259374Y-99474292D01*
X153256399Y-99474683D01*
X153256399Y-99507316D01*
X153259374Y-99507708D01*
X153258313Y-99515762D01*
X153258313Y-99515764D01*
X153256377Y-99530468D01*
X153243500Y-99628272D01*
X153243500Y-99853727D01*
X153252051Y-99918673D01*
X153257704Y-99961612D01*
X153259374Y-99974292D01*
X153256399Y-99974683D01*
X153256399Y-100007316D01*
X153259374Y-100007708D01*
X153258313Y-100015762D01*
X153258313Y-100015764D01*
X153256505Y-100029500D01*
X153243500Y-100128272D01*
X153243500Y-100353727D01*
X153250954Y-100410342D01*
X153258155Y-100465038D01*
X153259374Y-100474292D01*
X153256399Y-100474683D01*
X153256399Y-100507316D01*
X153259374Y-100507708D01*
X153243500Y-100628272D01*
X153243500Y-100853727D01*
X153259374Y-100974292D01*
X153256399Y-100974683D01*
X153256399Y-101007316D01*
X153259374Y-101007708D01*
X153243500Y-101128272D01*
X153243500Y-101353727D01*
X153259374Y-101474292D01*
X153256399Y-101474683D01*
X153256399Y-101507316D01*
X153259374Y-101507708D01*
X153243500Y-101628272D01*
X153243500Y-101853727D01*
X153250918Y-101910065D01*
X153255964Y-101948397D01*
X153259374Y-101974292D01*
X153256399Y-101974683D01*
X153256399Y-102007316D01*
X153259374Y-102007708D01*
X153258313Y-102015762D01*
X153258313Y-102015764D01*
X153256439Y-102029998D01*
X153243500Y-102128272D01*
X153243500Y-102353727D01*
X153259374Y-102474292D01*
X153256399Y-102474683D01*
X153256399Y-102507316D01*
X153259374Y-102507708D01*
X153243500Y-102628272D01*
X153243500Y-102853727D01*
X153259374Y-102974292D01*
X153257075Y-102974594D01*
X153256616Y-103007344D01*
X153259374Y-103007708D01*
X153243499Y-103128281D01*
X153243363Y-103130365D01*
X153243148Y-103130951D01*
X153242970Y-103132305D01*
X153242666Y-103132265D01*
X153219330Y-103195971D01*
X153163643Y-103238170D01*
X153093982Y-103243563D01*
X153032463Y-103210438D01*
X153031948Y-103209925D01*
X152986819Y-103164796D01*
X152970591Y-103135077D01*
X152953829Y-103105653D01*
X152953890Y-103104493D01*
X152953334Y-103103473D01*
X152950500Y-103077115D01*
X152950500Y-96447527D01*
X152950500Y-96447525D01*
X152912984Y-96307515D01*
X152899805Y-96284689D01*
X152840511Y-96181988D01*
X152840506Y-96181982D01*
X152738017Y-96079493D01*
X152738011Y-96079488D01*
X152612488Y-96007017D01*
X152612489Y-96007017D01*
X152599367Y-96003501D01*
X152472475Y-95969500D01*
X152472472Y-95969500D01*
X151302387Y-95969500D01*
X151277599Y-95962221D01*
X151251991Y-95958797D01*
X151241581Y-95951645D01*
X151235348Y-95949815D01*
X151230097Y-95943755D01*
X151214706Y-95933181D01*
X151084706Y-95803181D01*
X151051221Y-95741858D01*
X151056205Y-95672166D01*
X151098077Y-95616233D01*
X151163541Y-95591816D01*
X151172387Y-95591500D01*
X151206713Y-95591500D01*
X151206720Y-95591500D01*
X151319236Y-95576687D01*
X151319239Y-95576685D01*
X151325017Y-95575925D01*
X151325143Y-95575867D01*
X151325302Y-95575888D01*
X151327295Y-95575626D01*
X151327365Y-95576164D01*
X151346246Y-95578689D01*
X151360302Y-95578689D01*
X151360705Y-95575626D01*
X151368763Y-95576686D01*
X151368764Y-95576687D01*
X151481280Y-95591500D01*
X151481287Y-95591500D01*
X151706713Y-95591500D01*
X151706720Y-95591500D01*
X151819236Y-95576687D01*
X151819236Y-95576686D01*
X151827295Y-95575626D01*
X151827698Y-95578689D01*
X151860302Y-95578689D01*
X151860705Y-95575626D01*
X151868763Y-95576686D01*
X151868764Y-95576687D01*
X151981280Y-95591500D01*
X151981287Y-95591500D01*
X152206713Y-95591500D01*
X152206720Y-95591500D01*
X152319236Y-95576687D01*
X152319236Y-95576686D01*
X152327295Y-95575626D01*
X152327698Y-95578689D01*
X152360302Y-95578689D01*
X152360705Y-95575626D01*
X152368763Y-95576686D01*
X152368764Y-95576687D01*
X152481280Y-95591500D01*
X152481287Y-95591500D01*
X152706713Y-95591500D01*
X152706720Y-95591500D01*
X152819236Y-95576687D01*
X152924366Y-95533140D01*
X152993831Y-95525672D01*
X153056310Y-95556946D01*
G37*
%TD.AperFunction*%
%TA.AperFunction,Conductor*%
G36*
X120808730Y-99065184D02*
G01*
X120829372Y-99081818D01*
X121992825Y-100245272D01*
X121992832Y-100245278D01*
X122099363Y-100316459D01*
X122099367Y-100316461D01*
X122099374Y-100316466D01*
X122156445Y-100340105D01*
X122217756Y-100365501D01*
X122217760Y-100365501D01*
X122217761Y-100365502D01*
X122343428Y-100390500D01*
X122343431Y-100390500D01*
X125639524Y-100390500D01*
X125706563Y-100410185D01*
X125752318Y-100462989D01*
X125762262Y-100532147D01*
X125755998Y-100557041D01*
X125752076Y-100567778D01*
X125733256Y-100599602D01*
X125705267Y-100695938D01*
X125703829Y-100699876D01*
X125693273Y-100714179D01*
X125675036Y-100745016D01*
X124531871Y-101888181D01*
X124470548Y-101921666D01*
X124444190Y-101924500D01*
X124090830Y-101924500D01*
X124090812Y-101924501D01*
X123989747Y-101934825D01*
X123825984Y-101989092D01*
X123825981Y-101989093D01*
X123679148Y-102079661D01*
X123664825Y-102093984D01*
X123603501Y-102127468D01*
X123533809Y-102122482D01*
X123489465Y-102093982D01*
X123475538Y-102080055D01*
X123475534Y-102080052D01*
X123328811Y-101989551D01*
X123328800Y-101989546D01*
X123165152Y-101935319D01*
X123064154Y-101925000D01*
X122965000Y-101925000D01*
X122965000Y-102776000D01*
X122945315Y-102843039D01*
X122892511Y-102888794D01*
X122841000Y-102900000D01*
X122589000Y-102900000D01*
X122521961Y-102880315D01*
X122476206Y-102827511D01*
X122465000Y-102776000D01*
X122465000Y-101924999D01*
X122365860Y-101925000D01*
X122365844Y-101925001D01*
X122264847Y-101935319D01*
X122101199Y-101989546D01*
X122101188Y-101989551D01*
X121954465Y-102080052D01*
X121954461Y-102080055D01*
X121832556Y-102201960D01*
X121757165Y-102324185D01*
X121705216Y-102370908D01*
X121636253Y-102382129D01*
X121572171Y-102354285D01*
X121563946Y-102346767D01*
X120435819Y-101218640D01*
X120402334Y-101157317D01*
X120399500Y-101130959D01*
X120399500Y-99169499D01*
X120402050Y-99160813D01*
X120400762Y-99151852D01*
X120411740Y-99127811D01*
X120419185Y-99102460D01*
X120426025Y-99096532D01*
X120429787Y-99088296D01*
X120452021Y-99074006D01*
X120471989Y-99056705D01*
X120482503Y-99054417D01*
X120488565Y-99050522D01*
X120523500Y-99045499D01*
X120741691Y-99045499D01*
X120808730Y-99065184D01*
G37*
%TD.AperFunction*%
%TA.AperFunction,Conductor*%
G36*
X130624205Y-101830268D02*
G01*
X130659857Y-101890357D01*
X130658786Y-101955616D01*
X130637900Y-102027508D01*
X130637899Y-102027511D01*
X130637704Y-102029998D01*
X130637705Y-102030000D01*
X131986000Y-102030000D01*
X131994685Y-102032550D01*
X132003647Y-102031262D01*
X132027687Y-102042240D01*
X132053039Y-102049685D01*
X132058966Y-102056525D01*
X132067203Y-102060287D01*
X132081492Y-102082521D01*
X132098794Y-102102489D01*
X132101081Y-102113003D01*
X132104977Y-102119065D01*
X132110000Y-102154000D01*
X132110000Y-102256500D01*
X132090315Y-102323539D01*
X132037511Y-102369294D01*
X131986000Y-102380500D01*
X130030500Y-102380500D01*
X129963461Y-102360815D01*
X129917706Y-102308011D01*
X129906500Y-102256500D01*
X129906500Y-101977104D01*
X129926185Y-101910065D01*
X129978989Y-101864310D01*
X130048147Y-101854366D01*
X130054681Y-101855485D01*
X130076122Y-101859749D01*
X130089414Y-101862394D01*
X130089415Y-101862394D01*
X130266799Y-101862394D01*
X130266800Y-101862393D01*
X130324788Y-101850858D01*
X130440764Y-101827790D01*
X130440766Y-101827789D01*
X130440772Y-101827788D01*
X130492258Y-101806461D01*
X130561726Y-101798993D01*
X130624205Y-101830268D01*
G37*
%TD.AperFunction*%
%TA.AperFunction,Conductor*%
G36*
X128357306Y-89859185D02*
G01*
X128377948Y-89875819D01*
X130346447Y-91844318D01*
X131940481Y-93438351D01*
X131973966Y-93499674D01*
X131968982Y-93569366D01*
X131927110Y-93625299D01*
X131861646Y-93649716D01*
X131820711Y-93645808D01*
X131806445Y-93641986D01*
X131806442Y-93641984D01*
X131806442Y-93641985D01*
X131743958Y-93625242D01*
X131681475Y-93608500D01*
X126112979Y-93608500D01*
X125988012Y-93641985D01*
X125988011Y-93641984D01*
X125972972Y-93646015D01*
X125972968Y-93646016D01*
X125847440Y-93718489D01*
X125847437Y-93718491D01*
X124691242Y-94874686D01*
X124682867Y-94889193D01*
X124641678Y-94960536D01*
X124618769Y-95000216D01*
X124581253Y-95140226D01*
X124581253Y-95140228D01*
X124581253Y-97687391D01*
X124561568Y-97754430D01*
X124544934Y-97775072D01*
X124432291Y-97887714D01*
X124432288Y-97887718D01*
X124333743Y-98035199D01*
X124333736Y-98035212D01*
X124265859Y-98199085D01*
X124265856Y-98199094D01*
X124231253Y-98373057D01*
X124231253Y-98550448D01*
X124265856Y-98724411D01*
X124265859Y-98724420D01*
X124333736Y-98888293D01*
X124333742Y-98888304D01*
X124339292Y-98896610D01*
X124360169Y-98963288D01*
X124341684Y-99030668D01*
X124289704Y-99077358D01*
X124236189Y-99089500D01*
X123322845Y-99089500D01*
X123255806Y-99069815D01*
X123210051Y-99017011D01*
X123200107Y-98947853D01*
X123229132Y-98884297D01*
X123235164Y-98877819D01*
X123344944Y-98768038D01*
X123344947Y-98768034D01*
X123435448Y-98621311D01*
X123435453Y-98621300D01*
X123489680Y-98457652D01*
X123499999Y-98356654D01*
X123500000Y-98356641D01*
X123500000Y-98320000D01*
X122586500Y-98320000D01*
X122519461Y-98300315D01*
X122473706Y-98247511D01*
X122462500Y-98196000D01*
X122462500Y-98070000D01*
X122336500Y-98070000D01*
X122269461Y-98050315D01*
X122223706Y-97997511D01*
X122212500Y-97946000D01*
X122212500Y-97820000D01*
X122712500Y-97820000D01*
X123499999Y-97820000D01*
X123499999Y-97783360D01*
X123499998Y-97783345D01*
X123489680Y-97682347D01*
X123435453Y-97518699D01*
X123435448Y-97518688D01*
X123344947Y-97371965D01*
X123344944Y-97371961D01*
X123223038Y-97250055D01*
X123223034Y-97250052D01*
X123076311Y-97159551D01*
X123076300Y-97159546D01*
X122912652Y-97105319D01*
X122811654Y-97095000D01*
X122712500Y-97095000D01*
X122712500Y-97820000D01*
X122212500Y-97820000D01*
X122212500Y-97094999D01*
X122113360Y-97095000D01*
X122113344Y-97095001D01*
X122012347Y-97105319D01*
X121848699Y-97159546D01*
X121848688Y-97159551D01*
X121701965Y-97250052D01*
X121688032Y-97263985D01*
X121626708Y-97297468D01*
X121557016Y-97292482D01*
X121512672Y-97263982D01*
X121498351Y-97249661D01*
X121498350Y-97249660D01*
X121381634Y-97177669D01*
X121351518Y-97159093D01*
X121351513Y-97159091D01*
X121323867Y-97149930D01*
X121187753Y-97104826D01*
X121187751Y-97104825D01*
X121086684Y-97094500D01*
X121086677Y-97094500D01*
X120523500Y-97094500D01*
X120456461Y-97074815D01*
X120410706Y-97022011D01*
X120399500Y-96970500D01*
X120399500Y-96060386D01*
X120419185Y-95993347D01*
X120435814Y-95972710D01*
X124931707Y-91476816D01*
X124993028Y-91443333D01*
X125019377Y-91440499D01*
X125790008Y-91440499D01*
X125790016Y-91440498D01*
X125790019Y-91440498D01*
X125857888Y-91433565D01*
X125892797Y-91429999D01*
X126059334Y-91374814D01*
X126208656Y-91282712D01*
X126332712Y-91158656D01*
X126424814Y-91009334D01*
X126479999Y-90842797D01*
X126490500Y-90740009D01*
X126490499Y-89963499D01*
X126510183Y-89896461D01*
X126562987Y-89850706D01*
X126614499Y-89839500D01*
X128290267Y-89839500D01*
X128357306Y-89859185D01*
G37*
%TD.AperFunction*%
%TA.AperFunction,Conductor*%
G36*
X133802677Y-96720185D02*
G01*
X133823319Y-96736819D01*
X133835961Y-96749461D01*
X133835965Y-96749464D01*
X133983446Y-96848009D01*
X133983459Y-96848016D01*
X134087234Y-96891000D01*
X134147334Y-96915894D01*
X134147336Y-96915894D01*
X134147341Y-96915896D01*
X134319518Y-96950144D01*
X134381429Y-96982529D01*
X134416003Y-97043244D01*
X134412264Y-97113014D01*
X134383008Y-97159442D01*
X133659270Y-97883181D01*
X133632342Y-97897884D01*
X133606524Y-97914477D01*
X133600323Y-97915368D01*
X133597947Y-97916666D01*
X133571589Y-97919500D01*
X133570756Y-97919500D01*
X133503717Y-97899815D01*
X133457962Y-97847011D01*
X133448018Y-97777853D01*
X133464024Y-97732379D01*
X133536281Y-97610198D01*
X133582100Y-97452486D01*
X133582295Y-97450001D01*
X133582295Y-97450000D01*
X132234000Y-97450000D01*
X132166961Y-97430315D01*
X132121206Y-97377511D01*
X132110000Y-97326000D01*
X132110000Y-97074000D01*
X132129685Y-97006961D01*
X132182489Y-96961206D01*
X132234000Y-96950000D01*
X133582295Y-96950000D01*
X133582295Y-96949998D01*
X133582100Y-96947511D01*
X133556413Y-96859094D01*
X133556488Y-96832837D01*
X133552752Y-96806853D01*
X133556586Y-96798456D01*
X133556613Y-96789225D01*
X133570870Y-96767179D01*
X133581777Y-96743297D01*
X133589543Y-96738305D01*
X133594556Y-96730555D01*
X133618468Y-96719717D01*
X133640555Y-96705523D01*
X133654074Y-96703579D01*
X133658194Y-96701712D01*
X133675490Y-96700500D01*
X133735638Y-96700500D01*
X133802677Y-96720185D01*
G37*
%TD.AperFunction*%
%TA.AperFunction,Conductor*%
G36*
X157613039Y-96811185D02*
G01*
X157658794Y-96863989D01*
X157670000Y-96915500D01*
X157670000Y-97010000D01*
X158746000Y-97010000D01*
X158813039Y-97029685D01*
X158858794Y-97082489D01*
X158870000Y-97134000D01*
X158870000Y-97386000D01*
X158850315Y-97453039D01*
X158797511Y-97498794D01*
X158746000Y-97510000D01*
X157670001Y-97510000D01*
X157670001Y-97566500D01*
X157650316Y-97633539D01*
X157597512Y-97679294D01*
X157546001Y-97690500D01*
X155911436Y-97690500D01*
X155910757Y-97690300D01*
X155910075Y-97690493D01*
X155877222Y-97680453D01*
X155844397Y-97670815D01*
X155843934Y-97670281D01*
X155843256Y-97670074D01*
X155821037Y-97643857D01*
X155798642Y-97618011D01*
X155798389Y-97617132D01*
X155798083Y-97616771D01*
X155789272Y-97585441D01*
X155788512Y-97582799D01*
X155779687Y-97515764D01*
X155779593Y-97515538D01*
X155778501Y-97507299D01*
X155781689Y-97486731D01*
X155781689Y-97474698D01*
X155778626Y-97474295D01*
X155781824Y-97450001D01*
X155794500Y-97353720D01*
X155794500Y-97128280D01*
X155779687Y-97015764D01*
X155779686Y-97015763D01*
X155778870Y-97009560D01*
X155778616Y-97009021D01*
X155778196Y-96973730D01*
X155787993Y-96899315D01*
X155816259Y-96835418D01*
X155874584Y-96796947D01*
X155910932Y-96791500D01*
X157546000Y-96791500D01*
X157613039Y-96811185D01*
G37*
%TD.AperFunction*%
%TA.AperFunction,Conductor*%
G36*
X142289468Y-95406685D02*
G01*
X142335223Y-95459489D01*
X142345167Y-95528647D01*
X142316142Y-95592203D01*
X142269881Y-95625561D01*
X142178771Y-95663299D01*
X142178770Y-95663299D01*
X142095259Y-95727380D01*
X142058549Y-95755549D01*
X141991893Y-95842417D01*
X141966300Y-95875770D01*
X141908313Y-96015763D01*
X141908313Y-96015764D01*
X141893500Y-96128272D01*
X141893500Y-96353727D01*
X141905850Y-96447527D01*
X141908313Y-96466236D01*
X141966302Y-96606233D01*
X141999735Y-96649803D01*
X142011791Y-96665515D01*
X142036984Y-96730684D01*
X142022945Y-96799129D01*
X142011791Y-96816484D01*
X141991839Y-96842486D01*
X141935413Y-96883689D01*
X141899894Y-96889879D01*
X141898911Y-96891000D01*
X141909804Y-96973729D01*
X141909541Y-97007986D01*
X141908440Y-97015455D01*
X141908313Y-97015764D01*
X141907621Y-97021016D01*
X141907480Y-97021977D01*
X141893248Y-97052856D01*
X141879474Y-97083991D01*
X141878323Y-97085241D01*
X141878236Y-97085432D01*
X141878023Y-97085567D01*
X141872486Y-97091587D01*
X141760890Y-97203182D01*
X141699570Y-97236666D01*
X141673211Y-97239500D01*
X140488345Y-97239500D01*
X140421306Y-97219815D01*
X140375551Y-97167011D01*
X140365607Y-97097853D01*
X140394632Y-97034297D01*
X140400664Y-97027819D01*
X140461444Y-96967038D01*
X140461447Y-96967034D01*
X140551948Y-96820311D01*
X140551953Y-96820300D01*
X140606180Y-96656652D01*
X140616499Y-96555654D01*
X140616500Y-96555641D01*
X140616500Y-96519000D01*
X139703000Y-96519000D01*
X139635961Y-96499315D01*
X139590206Y-96446511D01*
X139579000Y-96395000D01*
X139579000Y-96143000D01*
X139598685Y-96075961D01*
X139651489Y-96030206D01*
X139703000Y-96019000D01*
X140616499Y-96019000D01*
X140616499Y-95982360D01*
X140616498Y-95982345D01*
X140606180Y-95881347D01*
X140551953Y-95717699D01*
X140551948Y-95717688D01*
X140464613Y-95576097D01*
X140446172Y-95508705D01*
X140467094Y-95442041D01*
X140520736Y-95397272D01*
X140570151Y-95387000D01*
X142222429Y-95387000D01*
X142289468Y-95406685D01*
G37*
%TD.AperFunction*%
%TA.AperFunction,Conductor*%
G36*
X154857728Y-93290185D02*
G01*
X154878370Y-93306819D01*
X156507061Y-94935510D01*
X156632591Y-95007984D01*
X156772601Y-95045500D01*
X156772602Y-95045500D01*
X156772604Y-95045500D01*
X158083396Y-95045500D01*
X158083398Y-95045500D01*
X158083399Y-95045500D01*
X158223409Y-95007984D01*
X158348939Y-94935510D01*
X158516850Y-94767598D01*
X158578167Y-94734117D01*
X158612071Y-94731513D01*
X158820657Y-94744229D01*
X158850107Y-94754862D01*
X158880150Y-94763683D01*
X158882704Y-94766630D01*
X158886375Y-94767956D01*
X158905401Y-94792823D01*
X158925906Y-94816486D01*
X158926461Y-94820348D01*
X158928832Y-94823447D01*
X158931394Y-94854655D01*
X158935850Y-94885645D01*
X158934229Y-94889193D01*
X158934549Y-94893082D01*
X158919832Y-94920720D01*
X158906826Y-94949201D01*
X158901783Y-94954616D01*
X158901710Y-94954754D01*
X158901595Y-94954818D01*
X158900793Y-94955680D01*
X158202294Y-95654181D01*
X158140971Y-95687666D01*
X158114613Y-95690500D01*
X155586770Y-95690500D01*
X155519731Y-95670815D01*
X155511282Y-95664874D01*
X155509234Y-95663303D01*
X155509230Y-95663300D01*
X155395599Y-95616233D01*
X155369236Y-95605313D01*
X155355171Y-95603461D01*
X155256727Y-95590500D01*
X155256720Y-95590500D01*
X154698387Y-95590500D01*
X154631348Y-95570815D01*
X154610706Y-95554181D01*
X153280819Y-94224294D01*
X153247334Y-94162971D01*
X153244500Y-94136613D01*
X153244500Y-93578286D01*
X153244499Y-93578272D01*
X153242374Y-93562129D01*
X153229687Y-93465764D01*
X153219824Y-93441952D01*
X153212355Y-93372483D01*
X153243630Y-93310004D01*
X153303720Y-93274352D01*
X153334385Y-93270500D01*
X154790689Y-93270500D01*
X154857728Y-93290185D01*
G37*
%TD.AperFunction*%
%TA.AperFunction,Conductor*%
G36*
X156822202Y-84961173D02*
G01*
X156828680Y-84967205D01*
X158661985Y-86800510D01*
X158787515Y-86872984D01*
X158927525Y-86910500D01*
X158927526Y-86910500D01*
X159072474Y-86910500D01*
X162769613Y-86910500D01*
X162836652Y-86930185D01*
X162882407Y-86982989D01*
X162892351Y-87052147D01*
X162863326Y-87115703D01*
X162857294Y-87122181D01*
X159579491Y-90399983D01*
X159579487Y-90399988D01*
X159519052Y-90504665D01*
X159519051Y-90504669D01*
X159507016Y-90525515D01*
X159469500Y-90665525D01*
X159469500Y-90665527D01*
X159469500Y-92670000D01*
X159449815Y-92737039D01*
X159397011Y-92782794D01*
X159345500Y-92794000D01*
X159329000Y-92794000D01*
X159329000Y-93645000D01*
X159326449Y-93653685D01*
X159327738Y-93662647D01*
X159316759Y-93686687D01*
X159309315Y-93712039D01*
X159302474Y-93717966D01*
X159298713Y-93726203D01*
X159276478Y-93740492D01*
X159256511Y-93757794D01*
X159245996Y-93760081D01*
X159239935Y-93763977D01*
X159205000Y-93769000D01*
X158965000Y-93769000D01*
X158897961Y-93749315D01*
X158852206Y-93696511D01*
X158841000Y-93645000D01*
X158841000Y-87908027D01*
X158841000Y-87908025D01*
X158803484Y-87768015D01*
X158731010Y-87642485D01*
X156653318Y-85564793D01*
X156619833Y-85503470D01*
X156616999Y-85477112D01*
X156616999Y-85054886D01*
X156636684Y-84987847D01*
X156689488Y-84942092D01*
X156758646Y-84932148D01*
X156822202Y-84961173D01*
G37*
%TD.AperFunction*%
%TA.AperFunction,Conductor*%
G36*
X143994864Y-82606174D02*
G01*
X144050797Y-82648046D01*
X144075214Y-82713510D01*
X144073147Y-82746547D01*
X144048500Y-82870454D01*
X144048500Y-82870459D01*
X144048500Y-83067541D01*
X144048500Y-83067543D01*
X144048499Y-83067543D01*
X144086947Y-83260829D01*
X144086950Y-83260839D01*
X144162364Y-83442907D01*
X144162371Y-83442920D01*
X144271860Y-83606781D01*
X144271863Y-83606785D01*
X144411214Y-83746136D01*
X144411218Y-83746139D01*
X144575079Y-83855628D01*
X144575092Y-83855635D01*
X144717832Y-83914759D01*
X144757165Y-83931051D01*
X144757169Y-83931051D01*
X144757170Y-83931052D01*
X144950456Y-83969500D01*
X144950459Y-83969500D01*
X145078192Y-83969500D01*
X145145231Y-83989185D01*
X145165873Y-84005819D01*
X145585325Y-84425272D01*
X145585332Y-84425278D01*
X145675129Y-84485278D01*
X145675131Y-84485279D01*
X145691864Y-84496460D01*
X145691872Y-84496464D01*
X145691873Y-84496465D01*
X145810256Y-84545501D01*
X145810260Y-84545501D01*
X145810261Y-84545502D01*
X145935928Y-84570500D01*
X145935931Y-84570500D01*
X147409192Y-84570500D01*
X147476231Y-84590185D01*
X147496873Y-84606819D01*
X153248123Y-90358069D01*
X153281608Y-90419392D01*
X153276624Y-90489084D01*
X153234752Y-90545017D01*
X153173044Y-90569108D01*
X153076202Y-90579001D01*
X153076200Y-90579001D01*
X152909668Y-90634185D01*
X152909663Y-90634187D01*
X152760342Y-90726289D01*
X152636289Y-90850342D01*
X152544187Y-90999663D01*
X152544185Y-90999668D01*
X152536744Y-91022123D01*
X152499835Y-91133505D01*
X152460064Y-91190949D01*
X152395549Y-91217772D01*
X152382131Y-91218500D01*
X151793526Y-91218500D01*
X151688518Y-91246637D01*
X151653515Y-91256016D01*
X151527987Y-91328489D01*
X151527984Y-91328491D01*
X149846504Y-93009970D01*
X149785181Y-93043455D01*
X149742640Y-93045228D01*
X149706723Y-93040500D01*
X149706720Y-93040500D01*
X149481280Y-93040500D01*
X149481272Y-93040500D01*
X149394393Y-93051938D01*
X149368764Y-93055313D01*
X149368762Y-93055313D01*
X149360708Y-93056374D01*
X149360316Y-93053399D01*
X149327684Y-93053399D01*
X149327292Y-93056374D01*
X149319237Y-93055313D01*
X149319236Y-93055313D01*
X149290271Y-93051499D01*
X149206727Y-93040500D01*
X149206720Y-93040500D01*
X148981280Y-93040500D01*
X148981272Y-93040500D01*
X148894393Y-93051938D01*
X148868764Y-93055313D01*
X148868762Y-93055313D01*
X148860708Y-93056374D01*
X148860316Y-93053399D01*
X148827684Y-93053399D01*
X148827292Y-93056374D01*
X148819237Y-93055313D01*
X148819236Y-93055313D01*
X148790271Y-93051499D01*
X148706727Y-93040500D01*
X148706720Y-93040500D01*
X148481280Y-93040500D01*
X148481272Y-93040500D01*
X148394393Y-93051938D01*
X148368764Y-93055313D01*
X148368762Y-93055313D01*
X148360708Y-93056374D01*
X148360316Y-93053399D01*
X148327684Y-93053399D01*
X148327292Y-93056374D01*
X148319237Y-93055313D01*
X148319236Y-93055313D01*
X148290271Y-93051499D01*
X148206727Y-93040500D01*
X148206720Y-93040500D01*
X147981280Y-93040500D01*
X147981272Y-93040500D01*
X147894393Y-93051938D01*
X147868764Y-93055313D01*
X147868762Y-93055313D01*
X147860708Y-93056374D01*
X147860316Y-93053399D01*
X147827684Y-93053399D01*
X147827292Y-93056374D01*
X147819237Y-93055313D01*
X147819236Y-93055313D01*
X147790271Y-93051499D01*
X147706727Y-93040500D01*
X147706720Y-93040500D01*
X147481280Y-93040500D01*
X147481272Y-93040500D01*
X147372044Y-93054881D01*
X147372043Y-93054881D01*
X147368764Y-93055313D01*
X147360321Y-93058810D01*
X147159406Y-93126151D01*
X147130743Y-93127234D01*
X147102353Y-93131317D01*
X147096268Y-93128538D01*
X147089587Y-93128791D01*
X147064893Y-93114209D01*
X147038797Y-93102292D01*
X147032319Y-93096260D01*
X146685550Y-92749491D01*
X146685549Y-92749490D01*
X146560019Y-92677016D01*
X146560014Y-92677014D01*
X146493329Y-92659145D01*
X146493329Y-92659146D01*
X146456668Y-92649323D01*
X146420009Y-92639500D01*
X146420008Y-92639500D01*
X146173387Y-92639500D01*
X146106348Y-92619815D01*
X146060593Y-92567011D01*
X146050649Y-92497853D01*
X146079674Y-92434297D01*
X146085706Y-92427819D01*
X147871706Y-90641818D01*
X147933029Y-90608333D01*
X147959387Y-90605499D01*
X148454170Y-90605499D01*
X148454176Y-90605499D01*
X148555253Y-90595174D01*
X148719016Y-90540908D01*
X148865850Y-90450340D01*
X148987840Y-90328350D01*
X149078408Y-90181516D01*
X149132674Y-90017753D01*
X149143000Y-89916677D01*
X149142999Y-89343324D01*
X149140394Y-89317827D01*
X149132674Y-89242247D01*
X149097059Y-89134770D01*
X149078408Y-89078484D01*
X148987840Y-88931650D01*
X148865850Y-88809660D01*
X148774629Y-88753395D01*
X148719018Y-88719093D01*
X148719013Y-88719091D01*
X148712618Y-88716972D01*
X148555253Y-88664826D01*
X148555251Y-88664825D01*
X148454178Y-88654500D01*
X147755830Y-88654500D01*
X147755812Y-88654501D01*
X147654747Y-88664825D01*
X147490984Y-88719092D01*
X147490981Y-88719093D01*
X147344148Y-88809661D01*
X147329825Y-88823984D01*
X147268501Y-88857468D01*
X147198809Y-88852482D01*
X147154465Y-88823982D01*
X147140538Y-88810055D01*
X147140534Y-88810052D01*
X146993811Y-88719551D01*
X146993800Y-88719546D01*
X146830152Y-88665319D01*
X146729154Y-88655000D01*
X146630000Y-88655000D01*
X146630000Y-89506000D01*
X146610315Y-89573039D01*
X146557511Y-89618794D01*
X146506000Y-89630000D01*
X146380000Y-89630000D01*
X146380000Y-89756000D01*
X146360315Y-89823039D01*
X146307511Y-89868794D01*
X146256000Y-89880000D01*
X145342501Y-89880000D01*
X145342501Y-89916654D01*
X145352819Y-90017652D01*
X145407046Y-90181300D01*
X145407051Y-90181311D01*
X145497552Y-90328034D01*
X145497555Y-90328038D01*
X145619461Y-90449944D01*
X145619465Y-90449947D01*
X145766188Y-90540448D01*
X145766199Y-90540453D01*
X145929847Y-90594680D01*
X146030850Y-90604999D01*
X146052106Y-90604999D01*
X146119146Y-90624681D01*
X146164903Y-90677483D01*
X146174850Y-90746641D01*
X146145827Y-90810198D01*
X146139792Y-90816680D01*
X143507294Y-93449181D01*
X143445971Y-93482666D01*
X143419613Y-93485500D01*
X141915212Y-93485500D01*
X141848173Y-93465815D01*
X141802418Y-93413011D01*
X141792474Y-93343853D01*
X141797504Y-93322502D01*
X141839174Y-93196753D01*
X141849500Y-93095677D01*
X141849499Y-92522324D01*
X141839174Y-92421247D01*
X141784908Y-92257484D01*
X141694340Y-92110650D01*
X141572350Y-91988660D01*
X141425516Y-91898092D01*
X141425514Y-91898091D01*
X141420903Y-91895247D01*
X141374179Y-91843299D01*
X141362000Y-91789708D01*
X141362000Y-89343345D01*
X145342500Y-89343345D01*
X145342500Y-89380000D01*
X146130000Y-89380000D01*
X146130000Y-88654999D01*
X146030860Y-88655000D01*
X146030844Y-88655001D01*
X145929847Y-88665319D01*
X145766199Y-88719546D01*
X145766188Y-88719551D01*
X145619465Y-88810052D01*
X145619461Y-88810055D01*
X145497555Y-88931961D01*
X145497552Y-88931965D01*
X145407051Y-89078688D01*
X145407046Y-89078699D01*
X145352819Y-89242347D01*
X145342500Y-89343345D01*
X141362000Y-89343345D01*
X141362000Y-85187887D01*
X141381685Y-85120848D01*
X141398319Y-85100206D01*
X142617702Y-83880823D01*
X143863851Y-82634673D01*
X143925172Y-82601190D01*
X143994864Y-82606174D01*
G37*
%TD.AperFunction*%
%TA.AperFunction,Conductor*%
G36*
X153025231Y-83639185D02*
G01*
X153045873Y-83655819D01*
X153482926Y-84092872D01*
X153516411Y-84154194D01*
X153511427Y-84223885D01*
X153469556Y-84279819D01*
X153410463Y-84302889D01*
X153410466Y-84302902D01*
X153410391Y-84302917D01*
X153407853Y-84303909D01*
X153403850Y-84304318D01*
X153240199Y-84358546D01*
X153240188Y-84358551D01*
X153093465Y-84449052D01*
X153093461Y-84449055D01*
X152971555Y-84570961D01*
X152971552Y-84570965D01*
X152881051Y-84717688D01*
X152881046Y-84717699D01*
X152826819Y-84881347D01*
X152816500Y-84982345D01*
X152816500Y-85019000D01*
X153730000Y-85019000D01*
X153797039Y-85038685D01*
X153842794Y-85091489D01*
X153854000Y-85143000D01*
X153854000Y-85269000D01*
X153980000Y-85269000D01*
X154047039Y-85288685D01*
X154092794Y-85341489D01*
X154104000Y-85393000D01*
X154104000Y-86243999D01*
X154203140Y-86243999D01*
X154203154Y-86243998D01*
X154304152Y-86233680D01*
X154467800Y-86179453D01*
X154467811Y-86179448D01*
X154614535Y-86088947D01*
X154628460Y-86075021D01*
X154689782Y-86041533D01*
X154759473Y-86046514D01*
X154803827Y-86075017D01*
X154818150Y-86089340D01*
X154964984Y-86179908D01*
X155128747Y-86234174D01*
X155229823Y-86244500D01*
X155724612Y-86244499D01*
X155791651Y-86264183D01*
X155812293Y-86280818D01*
X157703681Y-88172206D01*
X157737166Y-88233529D01*
X157740000Y-88259887D01*
X157740000Y-92669500D01*
X157737449Y-92678185D01*
X157738738Y-92687147D01*
X157727759Y-92711187D01*
X157720315Y-92736539D01*
X157713474Y-92742466D01*
X157709713Y-92750703D01*
X157687478Y-92764992D01*
X157667511Y-92782294D01*
X157656996Y-92784581D01*
X157650935Y-92788477D01*
X157616000Y-92793500D01*
X157574808Y-92793500D01*
X157507769Y-92773815D01*
X157487127Y-92757181D01*
X156715818Y-91985872D01*
X156682333Y-91924549D01*
X156679499Y-91898191D01*
X156679499Y-91268998D01*
X156679498Y-91268981D01*
X156668999Y-91166203D01*
X156668998Y-91166200D01*
X156664288Y-91151986D01*
X156613814Y-90999666D01*
X156521712Y-90850344D01*
X156397656Y-90726288D01*
X156269892Y-90647483D01*
X156248336Y-90634187D01*
X156248331Y-90634185D01*
X156219650Y-90624681D01*
X156081797Y-90579001D01*
X156081795Y-90579000D01*
X155979016Y-90568500D01*
X155979009Y-90568500D01*
X155349808Y-90568500D01*
X155282769Y-90548815D01*
X155262127Y-90532181D01*
X150285600Y-85555654D01*
X152816501Y-85555654D01*
X152826819Y-85656652D01*
X152881046Y-85820300D01*
X152881051Y-85820311D01*
X152971552Y-85967034D01*
X152971555Y-85967038D01*
X153093461Y-86088944D01*
X153093465Y-86088947D01*
X153240188Y-86179448D01*
X153240199Y-86179453D01*
X153403847Y-86233680D01*
X153504851Y-86243999D01*
X153604000Y-86243998D01*
X153604000Y-85519000D01*
X152816501Y-85519000D01*
X152816501Y-85555654D01*
X150285600Y-85555654D01*
X148561127Y-83831181D01*
X148527642Y-83769858D01*
X148532626Y-83700166D01*
X148574498Y-83644233D01*
X148639962Y-83619816D01*
X148648808Y-83619500D01*
X152958192Y-83619500D01*
X153025231Y-83639185D01*
G37*
%TD.AperFunction*%
%TD*%
M02*
