M48
; DRILL file {KiCad 9.0.7} date 2026-02-23T22:28:09+0100
; FORMAT={-:-/ absolute / metric / decimal}
; #@! TF.CreationDate,2026-02-23T22:28:09+01:00
; #@! TF.GenerationSoftware,Kicad,Pcbnew,9.0.7
; #@! TF.FileFunction,Plated,1,2,PTH
FMAT,2
METRIC
; #@! TA.AperFunction,Plated,PTH,ComponentDrill
T1C0.500
; #@! TA.AperFunction,Plated,PTH,ViaDrill
T2C0.600
; #@! TA.AperFunction,Plated,PTH,ComponentDrill
T3C0.700
; #@! TA.AperFunction,Plated,PTH,ComponentDrill
T4C0.890
; #@! TA.AperFunction,Plated,PTH,ComponentDrill
T5C1.000
; #@! TA.AperFunction,Plated,PTH,ComponentDrill
T6C3.200
%
G90
G05
T1
X118.752Y-112.74
X120.252Y-112.74
X145.049Y-82.969
X146.549Y-82.969
T2
X109.22Y-102.87
X111.13Y-86.72
X111.16Y-80.39
X111.16Y-88.62
X111.17Y-108.28
X111.17Y-110.39
X111.17Y-112.58
X111.17Y-114.82
X111.17Y-117.15
X111.17Y-119.11
X111.17Y-121.03
X111.17Y-123.03
X111.17Y-124.92
X111.18Y-106.24
X111.19Y-73.83
X111.19Y-78.27
X111.2Y-90.66
X111.21Y-76.06
X111.22Y-126.87
X111.24Y-82.24
X111.95Y-71.88
X112.59Y-128.96
X113.44Y-70.61
X114.9Y-128.96
X115.23Y-69.77
X116.35Y-102.51
X116.97Y-69.77
X116.98Y-128.96
X118.58Y-69.77
X118.71Y-128.96
X118.96Y-93.7
X119.13Y-121.97
X119.4Y-74.91
X119.44Y-79.58
X120.19Y-69.77
X120.47Y-128.96
X120.65Y-109.22
X121.285Y-89.535
X121.78Y-69.77
X122.26Y-128.96
X123.19Y-100.44
X123.19Y-105.41
X123.19Y-113.03
X123.22Y-69.75
X124.04Y-128.96
X124.46Y-97.79
X124.46Y-110.49
X124.74Y-69.77
X125.132Y-98.462
X126.08Y-128.96
X126.47Y-69.77
X126.5Y-79.65
X126.5Y-86.72
X127.14Y-115.85
X128.06Y-69.77
X128.24Y-128.96
X128.81Y-95.66
X129.13Y-97.48
X129.5Y-69.77
X129.956Y-102.229
X130.178Y-100.962
X130.31Y-128.96
X131.19Y-69.75
X131.445Y-107.95
X132.08Y-113.03
X132.34Y-128.96
X132.9Y-69.8
X134.151Y-97.321
X134.38Y-101.08
X134.38Y-128.96
X134.41Y-96.05
X134.58Y-74.62
X134.7Y-69.78
X134.72Y-79.66
X134.77Y-93.71
X135.06Y-84.79
X135.53Y-102.04
X135.89Y-108.585
X136.08Y-128.96
X136.525Y-97.155
X136.55Y-69.77
X137.16Y-92.71
X137.84Y-128.96
X138.57Y-69.72
X139.19Y-110.06
X139.7Y-99.891
X139.7Y-114.3
X139.8Y-128.96
X140.63Y-69.75
X141.605Y-95.885
X141.71Y-128.96
X142.24Y-106.042
X142.66Y-69.79
X142.95Y-115.57
X143.66Y-128.96
X144.63Y-69.77
X144.78Y-89.535
X145.4Y-128.96
X146.8Y-69.76
X147.22Y-128.96
X148.78Y-115.51
X148.93Y-69.76
X149.3Y-128.96
X149.37Y-74.64
X149.86Y-107.59
X151.09Y-69.76
X151.45Y-128.96
X151.71Y-107.49
X151.765Y-90.17
X153.035Y-95.885
X153.16Y-69.74
X153.65Y-128.96
X154.305Y-88.9
X154.36Y-74.6
X154.41Y-108.86
X154.41Y-115.42
X154.53Y-80.03
X155.42Y-69.77
X155.84Y-128.96
X156.21Y-95.25
X156.21Y-100.841
X157.44Y-69.78
X157.82Y-128.96
X159.34Y-69.75
X159.63Y-74.62
X159.65Y-80.03
X159.71Y-115.28
X159.81Y-122.1
X159.85Y-108.86
X160.12Y-128.96
X161.3Y-69.78
X162.12Y-128.96
X163.16Y-95.09
X163.16Y-100.33
X163.352Y-97.378
X163.366Y-96.017
X163.39Y-69.75
X164.1Y-128.96
X165.04Y-80.22
X165.1Y-105.41
X165.32Y-69.75
X166.09Y-128.94
X167.28Y-69.75
X168.49Y-127.66
X169.21Y-71.28
X170.15Y-73.57
X170.15Y-83.86
X170.16Y-122.6
X170.17Y-75.65
X170.17Y-101.85
X170.17Y-103.7
X170.17Y-113.78
X170.17Y-117.64
X170.17Y-120.06
X170.17Y-125.34
X170.18Y-99.75
X170.18Y-105.72
X170.18Y-109.82
X170.18Y-111.78
X170.2Y-77.78
X170.2Y-79.56
X170.2Y-81.5
X170.22Y-107.8
T3
X111.565Y-100.28
X111.565Y-101.88
X113.315Y-99.48
X113.315Y-101.08
X113.315Y-102.68
T4
X125.35Y-121.44
X125.35Y-123.98
X125.35Y-126.52
X130.43Y-121.44
X130.43Y-126.52
T5
X139.44Y-72.98
X141.94Y-72.98
T6
X115.21Y-74.603
X115.21Y-124.603
X165.21Y-74.603
X165.71Y-124.603
T3
G00X111.79Y-97.43
M15
G01X113.09Y-97.43
M16
G05
G00X111.79Y-104.73
M15
G01X113.09Y-104.73
M16
G05
M30
